<svg width="84" height="96" viewBox="0 0 84 96" xmlns="http://www.w3.org/2000/svg">
  <defs>
    <linearGradient x1="24.908%" y1="75.886%" x2="75.021%" y2="32.197%" id="a">
      <stop stop-color="#1A66FF" offset="0%"/>
      <stop stop-color="#EB2150" offset="100%"/>
    </linearGradient>
  </defs>
  <path d="M531 2393c23.196 0 42 18.804 42 42s-18.804 42-42 42-42-18.804-42-42 18.804-42 42-42zm1.5 80.962c20.313-.772 36.688-17.15 37.462-37.462H565.5c-.83 0-1.5-.67-1.5-1.5 0-.828.67-1.5 1.5-1.5h4.462c-.774-20.312-17.15-36.69-37.462-37.46v4.46c0 .83-.67 1.5-1.5 1.5s-1.5-.67-1.5-1.5v-4.46c-20.313.77-36.688 17.148-37.462 37.46h4.462c.83 0 1.5.672 1.5 1.5 0 .83-.67 1.5-1.5 1.5h-4.462c.774 20.313 17.15 36.69 37.462 37.462v-4.462c0-.828.67-1.5 1.5-1.5s1.5.672 1.5 1.5v4.462zm15.47-58.054c.586-.586 1.535-.586 2.122 0 .585.587.585 1.535 0 2.12l-13.942 13.944c.528.892.85 1.918.85 3.028 0 3.31-2.69 6-6 6s-6-2.69-6-6 2.69-6 6-6c1.11 0 2.136.323 3.03.85l13.94-13.942zM531 2438c1.654 0 3-1.345 3-3 0-1.654-1.346-3-3-3s-3 1.346-3 3c0 1.655 1.346 3 3 3zm-4.67-54c-.83 0-1.5-.672-1.5-1.5s.67-1.5 1.5-1.5h9.1c.83 0 1.5.672 1.5 1.5s-.67 1.5-1.5 1.5h-2.93v4.5c0 .828-.67 1.5-1.5 1.5-.828 0-1.5-.672-1.5-1.5v-4.5h-3.17z" transform="translate(-489 -2381)" fill="url(#a)" fill-rule="evenodd"/>
</svg>
