<svg width="96" height="68" viewBox="0 0 96 68" xmlns="http://www.w3.org/2000/svg">
  <defs>
    <linearGradient x1="19.035%" y1="76.215%" x2="77.515%" y2="17.194%" id="a">
      <stop stop-color="#1A66FF" offset="0%"/>
      <stop stop-color="#EB2150" offset="100%"/>
    </linearGradient>
  </defs>
  <path d="M1634.995 2395c1.544 0 3.005 1.29 3.005 2.657v51.68c0 1.712-1.35 3.085-3.005 3.085h-89.99c-1.658 0-3.005-1.373-3.005-3.085v-39.226c0-.833.67-1.51 1.5-1.51s1.5.677 1.5 1.51v39.227l89.995.08.005-51.324-89.995-.07-.005 3.09c0 .835-.67 1.51-1.5 1.51s-1.5-.675-1.5-1.51v-3.01c0-1.71 1.347-3.103 3.005-3.103h89.99zm-19.495 64.978c.83 0 1.5.677 1.5 1.51 0 .835-.67 1.512-1.5 1.512h-51c-.83 0-1.5-.677-1.5-1.51 0-.835.67-1.512 1.5-1.512h24v-3.022c0-.835.67-1.512 1.5-1.512s1.5.677 1.5 1.512v3.022h24zm-10.5-36.267c0 8.333-6.73 15.112-15 15.112s-15-6.78-15-15.11c0-8.333 6.73-15.112 15-15.112s15 6.78 15 15.11zm-27 0c0 6.667 5.383 12.09 12 12.09 6.616 0 12-5.423 12-12.09 0-6.664-5.384-12.088-12-12.088-6.617 0-12 5.424-12 12.09zm19.67-5.72c.657.506.784 1.455.283 2.118l-8 10.578c-.256.34-.644.556-1.067.59-.042.004-.084.005-.125.005-.378 0-.746-.144-1.025-.407l-4-3.777c-.605-.572-.636-1.527-.07-2.137.565-.61 1.517-.642 2.12-.07l2.79 2.633 6.992-9.246c.502-.664 1.44-.792 2.103-.286z" transform="translate(-1542 -2395)" fill="url(#a)" fill-rule="evenodd"/>
</svg>
