<svg width="96" height="96" viewBox="0 0 96 96" xmlns="http://www.w3.org/2000/svg">
  <defs>
    <linearGradient x1="29.543%" y1="68.756%" x2="72.75%" y2="29.715%" id="a">
      <stop stop-color="#1A66FF" offset="0%"/>
      <stop stop-color="#EB2150" offset="100%"/>
    </linearGradient>
  </defs>
  <path d="M1279.47 2429c0-1.655 1.346-3 3-3 1.655 0 3 1.345 3 3s-1.345 3-3 3c-1.654 0-3-1.345-3-3m9 0c0 3.31-2.69 6-6 6s-6-2.69-6-6 2.69-6 6-6 6 2.69 6 6zm16.808-21.213c-.587.586-1.535.586-2.12 0-5.667-5.666-13.2-8.787-21.214-8.787-16.542 0-30 13.458-30 30s13.458 30 30 30c16.543 0 30-13.458 30-30 0-.828.672-1.5 1.5-1.5.83 0 1.5.672 1.5 1.5 0 18.196-14.804 33-33 33-18.197 0-33-14.804-33-33 0-18.197 14.803-33 33-33 8.815 0 17.103 3.433 23.334 9.666.586.586.586 1.536 0 2.12zm-33.94 8.485c.586.585.586 1.534 0 2.12-2.834 2.834-4.394 6.6-4.394 10.607 0 8.272 6.73 15 15 15s15-6.728 15-15-6.73-15-15-15c-.828 0-1.5-.67-1.5-1.5s.672-1.5 1.5-1.5c9.925 0 18 8.075 18 18s-8.075 18-18 18c-9.926 0-18-8.075-18-18 0-4.808 1.872-9.328 5.272-12.728.587-.587 1.535-.587 2.12 0zM1282 2381c26.467 0 48 21.532 48 48s-21.533 48-48 48c-12.83 0-24.892-5.004-33.966-14.093-.584-.586-.584-1.535.003-2.12.583-.585 1.536-.587 2.12 0 8.506 8.52 19.815 13.213 31.843 13.213 24.813 0 45-20.187 45-45s-20.187-45-45-45-45 20.187-45 45c0 .828-.67 1.5-1.5 1.5s-1.5-.672-1.5-1.5c0-26.468 21.533-48 48-48z" transform="translate(-1234 -2381)" fill="url(#a)" fill-rule="evenodd"/>
</svg>
