<svg width="96" height="66" viewBox="0 0 96 66" xmlns="http://www.w3.org/2000/svg">
  <defs>
    <linearGradient x1="36.307%" y1="56.574%" x2="63.251%" y2="36.283%" id="a">
      <stop stop-color="#1A66FF" offset="0%"/>
      <stop stop-color="#EB2150" offset="100%"/>
    </linearGradient>
  </defs>
  <path d="M874.735 2399.004c-.44 0-.882.152-1.314.45-13.038 9.014-21.974 22.286-23.324 34.638-.803 7.354 1.102 13.75 5.51 18.498 3.777 4.072 9.163 6.406 14.78 6.406 5.234 0 10.107-1.99 13.72-5.607 4.07-4.072 6.156-9.466 5.867-15.185-.282-5.64-2.94-10.91-7.287-14.46-2.542-2.077-5.75-3.543-9.035-4.13-2.662-.48-5.233-.336-7.366.41-.576.198-1.22.03-1.623-.43-.4-.464-.483-1.124-.205-1.67 1.928-3.8 5.537-9.486 11.778-14.997.948-.835.876-1.727.65-2.33-.35-.923-1.253-1.594-2.148-1.594m-4.35 62.996c-6.445 0-12.634-2.684-16.977-7.364-5.018-5.407-7.196-12.622-6.294-20.87 1.462-13.394 10.658-27.146 24.602-36.784.93-.643 1.974-.982 3.02-.982 2.163 0 4.155 1.422 4.953 3.54.77 2.04.218 4.15-1.474 5.643-4.468 3.946-7.5 7.974-9.494 11.248 1.728-.187 3.586-.11 5.457.226 3.777.678 7.473 2.367 10.4 4.76 5.006 4.088 8.063 10.153 8.39 16.637.33 6.58-2.064 12.78-6.743 17.462-4.18 4.183-9.808 6.485-15.842 6.485m-45.565-62.996c-.44 0-.882.152-1.314.45-13.04 9.014-21.976 22.286-23.325 34.638-.802 7.354 1.103 13.75 5.51 18.498 3.778 4.072 9.164 6.406 14.78 6.406 5.235 0 10.108-1.99 13.72-5.607 4.074-4.074 6.157-9.467 5.87-15.187-.284-5.637-2.942-10.907-7.29-14.46-2.54-2.075-5.748-3.54-9.035-4.13-2.663-.477-5.233-.334-7.363.41-.582.203-1.22.032-1.624-.43-.402-.46-.485-1.12-.21-1.668 1.93-3.798 5.535-9.483 11.78-14.997.948-.835.876-1.727.65-2.33-.35-.923-1.253-1.594-2.148-1.594M820.47 2462c-6.445 0-12.634-2.684-16.978-7.364-5.017-5.407-7.195-12.622-6.293-20.87 1.46-13.394 10.657-27.146 24.6-36.784.93-.643 1.974-.982 3.02-.982 2.164 0 4.156 1.422 4.954 3.54.77 2.04.22 4.15-1.473 5.643-4.47 3.947-7.5 7.975-9.492 11.248 1.724-.187 3.585-.11 5.455.226 3.78.678 7.475 2.367 10.402 4.76 5.006 4.088 8.063 10.152 8.39 16.635.33 6.58-2.064 12.783-6.743 17.465-4.18 4.183-9.808 6.485-15.842 6.485" transform="translate(-797 -2396)" fill="url(#a)" fill-rule="evenodd"/>
</svg>
