<svg width="81" height="96" viewBox="0 0 81 96" xmlns="http://www.w3.org/2000/svg">
  <defs>
    <linearGradient x1="24.207%" y1="75.972%" x2="75.227%" y2="26.266%" id="a">
      <stop stop-color="#1A66FF" offset="0%"/>
      <stop stop-color="#EB2150" offset="100%"/>
    </linearGradient>
  </defs>
  <path d="M711.5 2394.473l-10.3 12.28c-.067-.012-.128-.042-.2-.042h-33c-.83 0-1.5.673-1.5 1.5 0 .83.67 1.5 1.5 1.5h30.72l-5.544 6.61c-.275-.36-.687-.61-1.176-.61h-24c-.83 0-1.5.673-1.5 1.5 0 .83.67 1.5 1.5 1.5h23.172l-5.517 6.58c-.276-.345-.68-.58-1.155-.58H668c-.83 0-1.5.673-1.5 1.5 0 .83.67 1.5 1.5 1.5h15.622l-5.49 6.547c-.274-.327-.672-.546-1.132-.546h-9c-.83 0-1.5.673-1.5 1.5 0 .83.67 1.5 1.5 1.5h8.074L659 2457.073v-71.36h52.5v8.76zm12.965-13.123c.633.533.717 1.478.186 2.114l-78 93c-.3.354-.723.536-1.152.536-.34 0-.68-.115-.962-.35-.634-.534-.718-1.48-.186-2.113l11.672-13.917c-.003-.042-.022-.077-.022-.12v-75c0-1.655 1.344-2.79 2.997-2.79H711.5c1.655 0 3 1.135 3 2.79v5.395l7.85-9.36c.534-.633 1.48-.717 2.115-.185zM713 2403.534c.83 0 1.5.672 1.5 1.5v1.5c0 .828-.67 1.5-1.5 1.5s-1.5-.672-1.5-1.5v-1.5c0-.828.67-1.5 1.5-1.5zm-3.28 67.677c.827 0 1.5.672 1.5 1.5 0 .83-.672 1.5-1.5 1.5h-2.982c-.828 0-1.5-.67-1.5-1.5 0-.827.67-1.5 1.5-1.5h2.98zm-23.856 0c.83 0 1.5.673 1.5 1.5 0 .83-.67 1.5-1.5 1.5h-2.98c-.83 0-1.5-.67-1.5-1.5 0-.827.67-1.5 1.5-1.5h2.98zM713 2449.764c.83 0 1.5.672 1.5 1.5v2.982c0 .83-.67 1.5-1.5 1.5s-1.5-.67-1.5-1.5v-2.982c0-.828.67-1.5 1.5-1.5zm-15.208 21.448c.83 0 1.5.673 1.5 1.5 0 .83-.67 1.5-1.5 1.5h-2.982c-.83 0-1.5-.67-1.5-1.5 0-.827.67-1.5 1.5-1.5h2.982zm-23.855 0c.828 0 1.5.672 1.5 1.5 0 .83-.67 1.5-1.5 1.5h-2.982c-.828 0-1.5-.67-1.5-1.5 0-.827.67-1.5 1.5-1.5h2.982zm39.063-9.52c.83 0 1.5.673 1.5 1.5v2.983c0 .828-.67 1.5-1.5 1.5s-1.5-.672-1.5-1.5v-2.982c0-.827.67-1.5 1.5-1.5zm0-47.71c.83 0 1.5.672 1.5 1.5v2.982c0 .828-.67 1.5-1.5 1.5s-1.5-.672-1.5-1.5v-2.982c0-.828.67-1.5 1.5-1.5zm0 23.855c.83 0 1.5.672 1.5 1.5v2.982c0 .83-.67 1.5-1.5 1.5s-1.5-.67-1.5-1.5v-2.982c0-.828.67-1.5 1.5-1.5zm0-11.927c.83 0 1.5.672 1.5 1.5v2.982c0 .828-.67 1.5-1.5 1.5s-1.5-.672-1.5-1.5v-2.982c0-.828.67-1.5 1.5-1.5zm-51 45.303c.83 0 1.5.673 1.5 1.5 0 .83-.67 1.5-1.5 1.5h-1.5c-.83 0-1.5-.67-1.5-1.5 0-.827.67-1.5 1.5-1.5h1.5z" transform="translate(-644 -2381)" fill="url(#a)" fill-rule="evenodd"/>
</svg>
