<svg width="53" height="96" viewBox="0 0 53 96" xmlns="http://www.w3.org/2000/svg">
  <defs>
    <linearGradient x1="0%" y1="75.648%" x2="85.721%" y2="30.191%" id="a">
      <stop stop-color="#1A66FF" offset="0%"/>
      <stop stop-color="#EB2150" offset="100%"/>
    </linearGradient>
  </defs>
  <path d="M1114.543 2381c-1.673 0-3.03 1.344-3.03 3v15.21c-.835 0-1.513.673-1.513 1.5v4.5c0 .83.678 1.5 1.514 1.5v3c-.836 0-1.514.673-1.514 1.5v4.5c0 .83.678 1.5 1.514 1.5V2474c0 1.657 1.356 3 3.03 3h45.427c1.675 0 3.03-1.343 3.03-3v-90c0-1.656-1.355-3-3.03-3h-45.427zm0 72.21v-57h37.857c.837 0 1.514-.67 1.514-1.5 0-.827-.677-1.5-1.514-1.5h-37.857V2384h45.428v69.21h-45.427zm0 20.79v-17.79h45.428V2474h-45.427zm13.628-86.79h12.116c.837 0 1.514.673 1.514 1.5 0 .83-.677 1.5-1.514 1.5h-12.115c-.834 0-1.513-.67-1.513-1.5 0-.827.68-1.5 1.514-1.5zm16.66 1.29c0-.828.677-1.5 1.513-1.5.836 0 1.514.672 1.514 1.5s-.678 1.5-1.514 1.5-1.514-.672-1.514-1.5zm-4.544 76.5c0 1.655-1.36 3-3.03 3-1.67 0-3.027-1.345-3.027-3 0-1.654 1.357-3 3.027-3 1.67 0 3.03 1.346 3.03 3zm3.028 0c0-3.313-2.712-6-6.057-6s-6.057 2.687-6.057 6c0 3.314 2.712 6 6.057 6s6.057-2.686 6.057-6z" transform="translate(-1110 -2381)" fill="url(#a)" fill-rule="evenodd"/>
</svg>
