<svg width="75" height="90" viewBox="0 0 75 90" xmlns="http://www.w3.org/2000/svg">
  <defs>
    <linearGradient x1="19.035%" y1="76.215%" x2="77.515%" y2="17.194%" id="a">
      <stop stop-color="#1A66FF" offset="0%"/>
      <stop stop-color="#EB2150" offset="100%"/>
    </linearGradient>
  </defs>
  <path d="M976.05 2396c-.834 0-1.507-.672-1.507-1.5s.673-1.5 1.506-1.5h16.567c.833 0 1.506.672 1.506 1.5s-.673 1.5-1.506 1.5H976.05zm34.64 12c0 .828-.672 1.5-1.505 1.5H976.05c-.834 0-1.507-.672-1.507-1.5s.673-1.5 1.506-1.5h33.135c.833 0 1.506.672 1.506 1.5zm-9.036 9c0 .828-.673 1.5-1.506 1.5h-24.1c-.832 0-1.505-.672-1.505-1.5s.673-1.5 1.506-1.5h24.098c.833 0 1.506.672 1.506 1.5zm-7.53 9c0 .828-.674 1.5-1.507 1.5H976.05c-.834 0-1.507-.672-1.507-1.5s.673-1.5 1.506-1.5h16.567c.833 0 1.506.672 1.506 1.5zm-7.532 9c0 .828-.673 1.5-1.506 1.5h-9.037c-.834 0-1.507-.672-1.507-1.5s.673-1.5 1.506-1.5h9.036c.833 0 1.506.672 1.506 1.5zm-10.543 28.5c0-.828.674-1.5 1.505-1.5.832 0 1.506.672 1.506 1.5s-.673 1.5-1.505 1.5c-.83 0-1.506-.672-1.506-1.5zm62.95-14.265c0 8.173-7.222 14.91-14.753 15.673v6.006c0 1.7-.747 3.086-2.425 3.086h-54.78c-1.677 0-3.042-1.298-3.042-3v-83.913c0-1.702 1.365-3.087 3.04-3.087h54.782c1.565 0 2.425 1.284 2.425 2.642v36.48c0 .828-.666 1.5-1.506 1.5s-1.505-.672-1.505-1.5v-36.052l-54.223-.07v84h54.223v-6.09c-7.53-.753-14.252-7.492-14.252-15.675 0-8.685 7.385-15.75 16.195-15.75s15.822 7.065 15.822 15.75zm-16.27 12.75c7.06 0 12.803-5.72 12.803-12.75s-5.743-12.75-12.803-12.75c-7.06 0-12.802 5.72-12.802 12.75s5.743 12.75 12.802 12.75zm1.077-20.544l6.023 6c.59.586.59 1.536 0 2.12-.294.295-.68.44-1.065.44-.385 0-.77-.145-1.065-.44l-3.453-3.44v9.88c0 .828-.674 1.5-1.507 1.5-.833 0-1.506-.672-1.506-1.5v-9.88l-3.453 3.44c-.587.587-1.54.587-2.13 0-.588-.584-.588-1.534 0-2.12l6.024-6c.14-.138.306-.248.49-.324.37-.152.784-.152 1.152 0 .185.076.352.186.49.325z" transform="translate(-964 -2384)" fill="url(#a)" fill-rule="evenodd"/>
</svg>
