<svg width="46" height="101" viewBox="0 0 46 101" xmlns="http://www.w3.org/2000/svg">
  <title>
    barrachina_value-trust
  </title>
  <path d="M40.372 83.268c-1.335 3.172-3.216 5.8-5.592 7.812-2.417 2.05-5.286 3.63-8.528 4.7-3.27 1.085-6.806 1.633-10.516 1.633H3.596v-50.76h9.75c3.748 0 7.446.428 10.988 1.275 3.447.826 6.557 2.244 9.242 4.208 2.654 1.942 4.81 4.536 6.413 7.712 1.602 3.177 2.414 7.234 2.414 12.053 0 4.33-.684 8.153-2.032 11.368zM3.596 3.588h5.42c6.94 0 12.49 1.584 16.49 4.71 3.87 3.024 5.83 7.834 5.83 14.3 0 5.616-1.654 10.485-4.915 14.47-3.176 3.878-8.228 5.843-15.015 5.843h-7.81V3.588zM43.2 58.235c-1.86-3.685-4.38-6.71-7.496-8.99-3.072-2.248-6.614-3.866-10.53-4.806-.646-.154-1.3-.277-1.953-.405 2.345-1.162 4.36-2.713 5.985-4.697 3.8-4.645 5.73-10.277 5.73-16.74 0-7.624-2.427-13.386-7.21-17.123C23.072 1.843 16.778 0 9.015 0H0v101h15.736c4.094 0 8.014-.61 11.648-1.816 3.68-1.214 6.954-3.023 9.725-5.372 2.81-2.38 5.022-5.46 6.578-9.156C45.222 81 46 76.708 46 71.9c0-5.382-.942-9.98-2.8-13.664z" fill="#F8CB38" fill-rule="evenodd"/>
</svg>
