<svg width="230" height="264" viewBox="0 0 230 264" xmlns="http://www.w3.org/2000/svg">
  <g fill="none" fill-rule="evenodd">
    <path fill="#F7F6F0" d="M21 0h189v255H21z"/>
    <path d="M87.487 67.17c0-17.837 14.35-32.297 32.05-32.297 17.7 0 32.05 14.46 32.05 32.298 0 17.84-14.35 32.3-32.05 32.3-17.7 0-32.05-14.46-32.05-32.3z" fill-opacity=".259" fill="#FBD334"/>
    <path fill="#FFF" d="M82.145 102.16h12.02V64.48h-12.02M106.182 102.16h12.02V57.75h-12.02M130.22 102.16h12.02V50.35h-12.02"/>
    <path fill="#FCD410" d="M94.164 102.16h12.018V69.864H94.164M118.2 102.16h12.02V63.135H118.2"/>
    <path fill="#F4F3EF" d="M82.145 102.16h3.34V64.48h-3.34"/>
    <path fill="#E8C42D" d="M94.164 102.16h3.338V69.864h-3.338"/>
    <path fill="#F4F3EF" d="M106.182 102.16h3.34V57.75h-3.34"/>
    <path fill="#E8C42D" d="M118.2 102.16h3.34V63.135h-3.34"/>
    <path fill="#F4F3EF" d="M130.22 102.16h3.34V50.35h-3.34"/>
    <path fill="#333" d="M85.342 93.414h-11.21v-1.346H84.7l5.342-6.73h8.667l4.005 5.384h10.073l10.683-10.766h10.583l4.006-6.73h9.52v1.347h-8.764l-4.006 6.73h-10.785L113.34 92.067H102.05l-4.006-5.383h-7.36"/>
    <path fill="#FBD334" d="M120.872 54.386h2.67v-8.074h-2.67"/>
    <path fill="#FBD334" d="M118.2 51.695h8.014v-2.692H118.2M93.496 57.75h2.67v-8.074h-2.67"/>
    <path fill="#FBD334" d="M90.825 55.06h8.013v-2.692h-8.013M105.515 42.275h2.67V34.2h-2.67"/>
    <path fill="#FBD334" d="M102.844 39.583h8.012v-2.69h-8.012"/>
    <path fill="#333" d="M74.132 102.834h6.678v-1.346h-6.678M151.587 102.834h2.67v-1.346h-2.67M143.574 102.834h5.342v-1.346h-5.342M118.87 80.63h-1.336V58.423H106.85v11.44h-1.335V57.077h13.354M118.87 102.834H106.18v-1.346h11.352V91.395h1.335"/>
    <path fill="#333" d="M130.888 102.834H118.2v-1.346h11.352V84.666h1.336M130.888 76.592h-1.336V63.807h-11.35V62.46h12.686M106.85 102.834H94.164v-1.346h11.35v-6.056h1.336M106.85 87.358h-1.335V70.536h-11.35V69.19h12.685"/>
    <path fill="#333" d="M94.83 102.834H81.478v-6.056h1.336v4.71h10.683v-11.44h1.335M82.813 88.704h-1.336V63.807H94.83v18.168h-1.334V65.153H82.813M142.906 102.834H130.22v-1.346h11.35v-23.55h1.336M142.906 69.863h-1.335v-18.84H130.89v12.11h-1.336V49.677h13.354"/>
    <path d="M55.96 144.262H53.3L52.766 146h-2.018l2.706-7.698h2.402L58.55 146h-2.065l-.525-1.738zm-.42-1.365l-.56-1.843-.338-1.213h-.023l-.316 1.203-.583 1.854h1.82zm8.48-2.31c.366.36.548.868.548 1.53V146h-1.982v-3.336c0-.396-.072-.678-.216-.846-.144-.167-.348-.25-.613-.25-.31 0-.563.11-.758.332-.195.222-.292.562-.292 1.02V146h-1.983v-5.832h1.773l.058 1.12c.187-.412.45-.72.793-.928.34-.206.742-.31 1.2-.31.615 0 1.105.18 1.47.538zm7.35 4.235l-.153 1.108c-.226.124-.49.187-.793.187-.84 0-1.342-.3-1.505-.898-.35.597-1.043.897-2.077.897-.583 0-1.03-.125-1.34-.374-.312-.248-.468-.61-.468-1.084 0-.5.177-.9.53-1.21.355-.306.936-.54 1.745-.704l1.318-.257v-.21c0-.265-.074-.475-.222-.63-.148-.156-.35-.234-.607-.234-.296 0-.537.07-.724.21-.186.14-.307.37-.36.688l-1.61-.466c.1-.568.38-1.01.84-1.324.458-.315 1.076-.473 1.853-.473.91 0 1.6.188 2.076.56.474.374.71.934.71 1.68v2.124c0 .303.14.455.42.455.15 0 .27-.017.363-.048zm-3.07-.216c.22-.15.328-.352.328-.6v-.502l-.945.222c-.25.062-.426.138-.53.227-.106.09-.158.216-.158.38 0 .162.05.287.15.372.102.086.242.13.42.13.273 0 .518-.077.736-.23zm5.226-.624c0 .265.04.45.117.56.078.11.218.163.42.163.187 0 .385-.035.595-.105l-.128 1.225c-.14.086-.323.156-.55.21-.224.054-.446.082-.664.082-.622 0-1.073-.146-1.353-.438-.28-.292-.42-.76-.42-1.406v-6.58h1.983v6.288zM78.402 146c-.218.622-.455 1.116-.712 1.48-.256.367-.56.63-.91.79-.35.158-.773.238-1.27.238-.662 0-1.19-.144-1.587-.432l.42-1.33c.124.117.262.197.414.24.152.042.348.064.59.064.24 0 .43-.04.57-.123.14-.08.253-.227.34-.437l.14-.362-.678-1.586-1.74-4.374h2.183l.898 3.324.28 1.237.316-1.284.898-3.278h1.983L78.402 146zm6.497-.327c-.196.133-.442.24-.742.32-.3.083-.6.124-.904.124-.692 0-1.22-.148-1.586-.444-.366-.295-.552-.77-.56-1.423v-2.67h-1.003v-1.412h1.003v-1.306l1.983-.55v1.856h1.75v1.41h-1.75v2.346c0 .52.258.78.77.78.32 0 .6-.084.84-.255l.2 1.223zm.366-6.41c-.182-.15-.274-.39-.274-.716 0-.335.092-.578.274-.73.183-.15.477-.227.88-.227.405 0 .7.076.882.228.182.15.274.394.274.73 0 .325-.092.564-.274.716-.183.152-.477.227-.88.227-.405 0-.7-.074-.882-.226zM87.138 146h-1.983v-5.832h1.983V146zm5.6-5.447c.442.334.718.77.827 1.306l-1.843.606c-.077-.67-.377-1.003-.898-1.003-.77 0-1.155.548-1.155 1.644 0 1.066.384 1.598 1.154 1.598.552 0 .875-.315.968-.944l1.785.572c-.086.53-.368.958-.846 1.29-.477.33-1.11.495-1.894.495-1.01 0-1.79-.265-2.333-.794-.544-.528-.816-1.275-.816-2.24 0-.955.27-1.7.81-2.233.54-.532 1.293-.8 2.257-.8.88 0 1.54.17 1.983.503zm.874 4.537l1.026-1.12c.335.553.91.83 1.727.83.272 0 .486-.038.64-.112.157-.074.234-.173.234-.298 0-.108-.08-.204-.24-.285-.16-.082-.433-.162-.822-.24-.87-.17-1.49-.404-1.86-.7-.37-.295-.555-.688-.555-1.177 0-.335.105-.65.315-.945.21-.296.527-.535.95-.718.425-.182.94-.274 1.547-.274.668 0 1.215.093 1.638.275.424.183.768.457 1.033.823l-1.027 1.003c-.187-.27-.41-.47-.666-.594-.256-.124-.563-.187-.92-.187-.28 0-.5.042-.654.128-.156.085-.234.19-.234.315 0 .116.08.215.24.297.16.082.437.16.833.24.855.147 1.47.367 1.848.658.377.292.566.69.566 1.196 0 .567-.237 1.028-.712 1.382-.474.354-1.162.53-2.064.53-1.338 0-2.286-.342-2.846-1.026zm15.42 1.027c-.436 0-.803-.047-1.103-.14-.3-.094-.632-.288-.998-.584-.264.234-.585.413-.962.537-.377.124-.795.187-1.254.187-.81 0-1.46-.183-1.954-.55-.494-.364-.744-.877-.752-1.538 0-.42.12-.82.362-1.197.24-.377.645-.67 1.213-.88-.31-.374-.52-.69-.63-.95-.11-.262-.164-.547-.164-.858 0-.335.09-.652.264-.95.175-.3.437-.543.787-.73.35-.187.783-.28 1.296-.28.74 0 1.308.17 1.71.513.4.342.6.778.6 1.307 0 .956-.557 1.66-1.67 2.11.242.265.425.467.55.607l.78.84c.203-.435.293-.94.27-1.516l1.317.035c0 .91-.248 1.673-.746 2.287.17.132.334.227.49.286.155.058.323.087.5.087.118 0 .207-.004.27-.01l-.175 1.387zm-4.363-6.433c-.125.128-.187.305-.187.53 0 .156.04.312.122.467.082.157.247.382.496.678.312-.218.518-.42.62-.607.1-.185.15-.395.15-.63 0-.2-.06-.356-.18-.465-.12-.11-.29-.164-.507-.164-.218 0-.39.066-.514.194zm1.376 4.893l-.677-.7c-.467-.482-.806-.836-1.016-1.06-.248.185-.418.358-.507.518-.09.16-.134.344-.134.554 0 .27.11.493.332.664.222.17.512.256.87.256.404 0 .78-.077 1.13-.233zm15.14 1.423h-1.773v-3.534l.058-2.368h-.022L117.546 146h-1.62l-1.902-5.902H114l.06 2.368V146h-1.786v-7.698h2.858l1.213 3.92.432 1.632h.023l.443-1.62 1.202-3.932h2.74V146zm6.555-2.344h-3.977c.063.365.197.633.403.804.206.17.48.257.822.257.288 0 .523-.054.706-.163.182-.11.305-.27.367-.48l1.61.515c-.163.496-.48.875-.95 1.136-.47.26-1.048.39-1.732.39-1.02 0-1.798-.264-2.34-.793-.54-.528-.81-1.275-.81-2.24 0-.963.265-1.71.794-2.238.53-.53 1.28-.794 2.25-.794.942 0 1.663.26 2.165.777.5.517.752 1.242.752 2.175 0 .265-.02.482-.06.654zm-3.988-1.074h2.192c-.093-.762-.45-1.143-1.073-1.143-.628 0-1.002.38-1.118 1.142zm10.567 2.24l-.152 1.108c-.226.124-.49.187-.794.187-.84 0-1.34-.3-1.504-.898-.35.597-1.042.897-2.076.897-.584 0-1.03-.125-1.342-.374-.31-.248-.466-.61-.466-1.084 0-.5.177-.9.53-1.21.354-.306.935-.54 1.744-.704l1.318-.257v-.21c0-.265-.074-.475-.22-.63-.15-.156-.35-.234-.608-.234-.295 0-.537.07-.723.21-.187.14-.307.37-.362.688l-1.61-.466c.102-.568.382-1.01.84-1.324.46-.315 1.077-.473 1.855-.473.91 0 1.602.188 2.076.56.475.374.712.934.712 1.68v2.124c0 .303.14.455.42.455.147 0 .268-.017.36-.048zm-3.068-.216c.217-.15.326-.352.326-.6v-.502l-.945.222c-.248.062-.425.138-.53.227-.105.09-.158.216-.158.38 0 .162.05.287.152.372.1.086.24.13.42.13.272 0 .517-.077.735-.23zm2.834.484l1.026-1.12c.335.553.91.83 1.727.83.27 0 .485-.038.64-.112.156-.074.233-.173.233-.298 0-.108-.08-.204-.24-.285-.158-.082-.432-.162-.82-.24-.872-.17-1.492-.404-1.86-.7-.37-.295-.555-.688-.555-1.177 0-.335.105-.65.314-.945.21-.296.527-.535.95-.718.425-.182.94-.274 1.547-.274.667 0 1.214.093 1.637.275.424.183.768.457 1.033.823l-1.027 1.003c-.186-.27-.408-.47-.665-.594-.256-.124-.563-.187-.92-.187-.28 0-.5.042-.654.128-.156.085-.234.19-.234.315 0 .116.08.215.24.297.16.082.437.16.834.24.855.147 1.47.367 1.848.658.377.292.566.69.566 1.196 0 .567-.237 1.028-.712 1.382-.474.354-1.162.53-2.064.53-1.338 0-2.286-.342-2.846-1.026zm11.874-4.922V146h-1.773l-.058-1.085c-.367.8-1.04 1.202-2.02 1.202-.62 0-1.11-.166-1.463-.496-.354-.33-.53-.85-.53-1.556v-3.896h1.982v3.394c0 .38.065.65.197.805.133.156.335.233.607.233.327 0 .587-.11.78-.332.196-.222.293-.558.293-1.01v-3.09h1.983zm5.074.012l-.21 1.68c-.078-.047-.183-.088-.315-.123-.133-.035-.273-.053-.42-.053-.374 0-.685.12-.934.356-.25.237-.373.577-.373 1.02V146H146.8v-5.832h1.75l.08 1.26c.14-.444.36-.784.66-1.02.3-.238.67-.357 1.114-.357.264 0 .474.044.63.13zm5.75 3.476h-3.977c.062.365.196.633.402.804.205.17.48.257.82.257.29 0 .524-.054.707-.163.183-.11.305-.27.367-.48l1.61.515c-.163.496-.48.875-.95 1.136-.47.26-1.048.39-1.733.39-1.017 0-1.797-.264-2.337-.793-.54-.528-.81-1.275-.81-2.24 0-.963.263-1.71.792-2.238.53-.53 1.28-.794 2.25-.794.942 0 1.664.26 2.165.777.502.517.752 1.242.752 2.175 0 .265-.02.482-.058.654zm-3.99-1.074h2.194c-.093-.762-.45-1.143-1.073-1.143-.63 0-1.003.38-1.12 1.142zm13.607-1.994c.37.358.555.867.555 1.528V146h-1.983v-3.43c0-.668-.264-1.002-.793-1.002-.312 0-.56.112-.747.338-.187.225-.28.552-.28.98V146h-1.983v-3.43c0-.668-.265-1.002-.793-1.002-.296 0-.54.112-.735.338-.195.225-.292.564-.292 1.015V146h-1.983v-5.832h1.773l.06 1.12c.185-.405.446-.712.78-.922.334-.21.727-.315 1.178-.315.443 0 .826.102 1.15.305.322.202.553.493.693.874.188-.382.454-.673.8-.875.346-.203.733-.304 1.16-.304.592 0 1.072.18 1.44.538zm6.982 3.068h-3.977c.062.365.196.633.402.804.206.17.48.257.822.257.287 0 .522-.054.705-.163.183-.11.305-.27.367-.48l1.61.515c-.163.496-.48.875-.95 1.136-.47.26-1.048.39-1.733.39-1.02 0-1.8-.264-2.34-.793-.54-.528-.81-1.275-.81-2.24 0-.963.264-1.71.793-2.238.53-.53 1.28-.794 2.25-.794.942 0 1.663.26 2.165.777.5.517.752 1.242.752 2.175 0 .265-.02.482-.058.654zm-3.99-1.074h2.194c-.094-.762-.45-1.143-1.073-1.143-.63 0-1.003.38-1.12 1.142zm9.87-1.994c.364.358.547.867.547 1.528V146h-1.984v-3.336c0-.396-.072-.678-.216-.846-.144-.167-.348-.25-.612-.25-.31 0-.564.11-.758.332-.195.222-.292.562-.292 1.02V146h-1.983v-5.832h1.773l.058 1.12c.187-.412.45-.72.794-.928.342-.206.742-.31 1.2-.31.615 0 1.105.18 1.47.538zm5.55 5.085c-.194.133-.44.24-.74.32-.3.083-.6.124-.904.124-.692 0-1.22-.148-1.586-.444-.366-.295-.552-.77-.56-1.423v-2.67h-1.003v-1.412h1.002v-1.306l1.983-.55v1.856h1.75v1.41h-1.75v2.346c0 .52.256.78.77.78.318 0 .598-.084.84-.255l.198 1.223zM53.18 160.07v.846h-2.4v6.584h-1.006v-6.584h-2.41v-.845h5.816zm.912 7.43v-7.636h.923v3.09c.225-.24.474-.43.747-.573.273-.143.587-.214.943-.214.287 0 .54.047.76.142.22.095.402.23.55.405.146.174.258.384.334.63.075.245.113.516.113.813v3.344h-.923v-3.344c0-.397-.09-.706-.272-.925-.182-.218-.46-.328-.832-.328-.273 0-.528.065-.765.197-.236.13-.454.308-.655.533v3.867h-.923zm7.844-5.334c.314 0 .605.052.87.158.267.105.497.257.69.456.194.2.345.444.454.736.11.292.163.625.163.998 0 .145-.015.242-.046.29-.032.05-.09.073-.177.073h-3.494c.007.332.052.62.135.866.084.245.198.45.343.614.145.164.318.287.52.368.2.08.424.122.672.122.232 0 .432-.027.6-.08.167-.054.31-.112.432-.174.12-.062.222-.12.303-.174.082-.054.152-.08.21-.08.076 0 .135.028.177.087l.26.337c-.115.138-.252.258-.41.36-.16.102-.33.186-.51.252-.183.065-.37.114-.564.147-.193.033-.385.05-.575.05-.363 0-.698-.062-1.003-.184-.306-.124-.57-.304-.794-.54-.22-.237-.395-.53-.52-.88-.124-.348-.186-.75-.186-1.202 0-.366.056-.708.168-1.026.113-.318.274-.594.485-.827.21-.234.468-.417.772-.55.304-.133.646-.2 1.026-.2zm.02.68c-.445 0-.796.128-1.052.385-.255.258-.414.615-.477 1.07h2.857c0-.213-.03-.41-.088-.587-.06-.178-.146-.332-.26-.46-.114-.13-.253-.23-.417-.302-.165-.07-.353-.105-.563-.105zm8.917.336c-.028.038-.055.067-.083.088-.027.02-.067.03-.12.03-.05 0-.107-.02-.168-.064-.06-.043-.137-.09-.23-.142-.094-.052-.207-.1-.34-.143-.133-.042-.296-.064-.49-.064-.255 0-.482.046-.68.138-.196.09-.36.223-.494.396-.133.173-.233.382-.3.627-.068.246-.102.52-.102.825 0 .318.037.6.11.847.072.246.174.454.305.62.132.17.292.297.48.385.19.088.4.132.636.132.224 0 .41-.027.554-.08.146-.054.266-.113.363-.18.097-.065.176-.124.24-.178.06-.054.123-.08.185-.08.08 0 .14.028.177.087l.26.337c-.23.28-.514.485-.857.614-.342.13-.703.195-1.083.195-.328 0-.633-.06-.915-.182-.282-.12-.526-.295-.734-.525-.207-.23-.37-.512-.49-.848-.12-.335-.178-.717-.178-1.145 0-.39.054-.752.163-1.084.11-.332.27-.618.478-.858.21-.24.467-.427.775-.562.308-.135.66-.202 1.057-.202.367 0 .692.06.975.18.283.118.534.286.752.504l-.244.332zm3.385-1.016c.384 0 .73.064 1.04.19.31.13.572.31.788.546.216.235.382.52.497.853.116.333.174.705.174 1.117 0 .414-.058.788-.174 1.12-.115.33-.28.615-.497.85-.216.235-.48.415-.788.54-.31.128-.656.19-1.04.19-.383 0-.73-.062-1.04-.19-.308-.125-.572-.305-.79-.54-.217-.235-.385-.52-.503-.85-.117-.332-.176-.706-.176-1.12 0-.412.058-.784.175-1.117.118-.334.286-.618.503-.853.218-.235.482-.417.79-.545.31-.127.657-.19 1.04-.19zm0 4.686c.52 0 .906-.174 1.16-.52.257-.348.385-.833.385-1.455 0-.626-.128-1.113-.384-1.462-.256-.35-.643-.524-1.162-.524-.262 0-.49.046-.684.136-.194.09-.355.22-.485.39-.13.168-.227.377-.29.624-.065.247-.097.526-.097.837 0 .31.032.59.096.835.063.245.16.45.29.62.13.167.29.295.484.385.194.09.422.135.684.135zm3.64.648v-5.25h.528c.1 0 .17.018.208.056.038.038.063.103.077.197l.064.82c.18-.368.4-.654.666-.86.264-.205.574-.308.93-.308.145 0 .277.017.394.05.118.032.227.078.327.137l-.118.69c-.025.086-.078.13-.16.13-.05 0-.124-.017-.224-.05s-.24-.05-.42-.05c-.32 0-.59.094-.806.28-.216.187-.397.458-.542.814v3.344h-.923zm4.178 0v-5.25h.55c.13 0 .214.063.248.19l.073.57c.228-.252.483-.456.764-.61.283-.157.61-.234.978-.234.287 0 .54.047.76.142.22.095.403.23.55.405.146.174.258.384.334.63.076.245.114.516.114.813v3.344h-.923v-3.344c0-.397-.09-.706-.272-.925-.18-.218-.458-.328-.83-.328-.274 0-.53.065-.766.197-.236.13-.455.308-.656.533v3.867h-.922zm7.843-5.334c.314 0 .604.052.87.158.266.105.496.257.69.456.193.2.344.444.453.736.11.292.163.625.163.998 0 .145-.015.242-.046.29-.03.05-.09.073-.177.073H88.38c.006.332.05.62.134.866.083.245.197.45.342.614.146.164.318.287.52.368.2.08.424.122.673.122.23 0 .43-.027.597-.08.168-.054.312-.112.433-.174.12-.062.222-.12.304-.174.08-.054.15-.08.21-.08.076 0 .134.028.176.087l.26.337c-.115.138-.252.258-.41.36-.16.102-.33.186-.51.252-.183.065-.37.114-.564.147-.193.033-.385.05-.575.05-.362 0-.696-.062-1.002-.184-.306-.124-.57-.304-.793-.54-.223-.237-.397-.53-.52-.88-.126-.348-.188-.75-.188-1.202 0-.366.056-.708.17-1.026.11-.318.272-.594.483-.827.21-.234.47-.417.773-.55.304-.133.646-.2 1.026-.2zm.02.68c-.446 0-.797.128-1.052.385-.256.258-.415.615-.477 1.07h2.857c0-.213-.03-.41-.088-.587-.06-.178-.146-.332-.26-.46-.114-.13-.254-.23-.418-.302-.164-.07-.35-.105-.562-.105zm3.333 4.654v-5.25h.53c.1 0 .168.018.206.056.037.038.063.103.077.197l.062.82c.18-.368.4-.654.665-.86.265-.205.575-.308.93-.308.146 0 .277.017.395.05.117.032.226.078.327.137l-.12.69c-.024.086-.077.13-.16.13-.05 0-.123-.017-.223-.05s-.24-.05-.42-.05c-.322 0-.59.094-.806.28-.216.187-.397.458-.542.814v3.344h-.923zm7.185-4.386c-.04.076-.105.114-.192.114-.05 0-.11-.02-.176-.057-.066-.037-.146-.08-.24-.126-.096-.046-.21-.09-.34-.13-.132-.04-.287-.06-.467-.06-.156 0-.296.02-.42.06-.124.04-.23.095-.32.164-.087.07-.154.15-.2.24-.048.093-.07.192-.07.3 0 .134.038.246.116.336.076.09.18.168.307.233.128.066.273.124.436.174.162.05.33.105.5.162.17.057.338.12.5.19.163.068.308.155.436.258.126.104.23.23.307.38.078.152.117.332.117.543 0 .242-.044.466-.13.67-.086.207-.214.385-.384.535-.17.15-.376.27-.622.355-.245.087-.528.13-.85.13-.366 0-.698-.06-.995-.18-.297-.118-.55-.27-.757-.458l.218-.352c.027-.045.06-.08.098-.104.038-.025.088-.037.15-.037.063 0 .128.024.198.072.07.05.152.102.25.16.1.06.22.113.36.162.14.048.314.072.525.072.18 0 .337-.024.472-.07.134-.047.247-.11.337-.19.09-.08.156-.17.2-.275.042-.103.064-.214.064-.33 0-.146-.04-.267-.117-.362-.076-.095-.18-.176-.307-.243-.128-.068-.274-.126-.438-.177-.164-.05-.332-.102-.503-.158-.17-.055-.34-.118-.503-.19-.165-.07-.31-.16-.44-.266-.127-.108-.23-.24-.307-.397-.078-.158-.117-.35-.117-.573 0-.2.04-.393.124-.578.083-.185.204-.348.363-.488.16-.14.355-.25.586-.334.23-.083.495-.124.792-.124.346 0 .656.054.93.163.276.108.513.257.714.447l-.208.337zm3.085 4.47c-.415 0-.734-.117-.957-.348-.223-.232-.334-.565-.334-1v-3.215h-.633c-.056 0-.103-.015-.14-.048-.04-.033-.058-.084-.058-.153v-.37l.86-.108.214-1.623c.006-.053.03-.095.067-.128.038-.033.086-.05.145-.05h.467v1.81h1.503v.67h-1.503v3.15c0 .222.053.386.16.493.107.108.246.16.415.16.097 0 .18-.012.25-.038.072-.026.134-.054.185-.085.052-.03.096-.06.133-.086.036-.026.068-.04.096-.04.048 0 .09.03.13.09l.27.44c-.16.15-.352.265-.577.35-.224.085-.456.127-.694.127zm4.4-5.418c.385 0 .73.064 1.04.19.31.13.572.31.788.546.217.235.383.52.5.853.115.333.173.705.173 1.117 0 .414-.058.788-.174 1.12-.117.33-.283.615-.5.85-.215.235-.477.415-.787.54-.31.128-.655.19-1.04.19-.383 0-.73-.062-1.04-.19-.308-.125-.57-.305-.79-.54-.217-.235-.384-.52-.502-.85-.116-.332-.175-.706-.175-1.12 0-.412.06-.784.176-1.117.12-.334.286-.618.504-.853.218-.235.48-.417.79-.545.31-.127.656-.19 1.04-.19zm0 4.686c.52 0 .906-.174 1.162-.52.256-.348.384-.833.384-1.455 0-.626-.13-1.113-.385-1.462-.256-.35-.643-.524-1.16-.524-.264 0-.492.046-.685.136-.194.09-.356.22-.485.39-.13.168-.226.377-.29.624-.064.247-.096.526-.096.837 0 .31.03.59.095.835.064.245.16.45.29.62.13.167.29.295.485.385.193.09.42.135.684.135zm3.64.648v-5.25h.55c.13 0 .214.063.248.19l.074.57c.228-.252.483-.456.765-.61.28-.157.606-.234.976-.234.287 0 .54.047.76.142.22.095.402.23.55.405.146.174.257.384.333.63.075.245.113.516.113.813v3.344h-.923v-3.344c0-.397-.09-.706-.272-.925-.18-.218-.46-.328-.832-.328-.273 0-.528.065-.764.197-.237.13-.456.308-.656.533v3.867h-.923zm7.843-5.334c.315 0 .605.052.87.158.267.105.497.257.69.456.194.2.346.444.454.736.11.292.164.625.164.998 0 .145-.016.242-.047.29-.03.05-.09.073-.176.073h-3.493c.007.332.052.62.135.866.083.245.197.45.342.614.145.164.318.287.518.368.2.08.425.122.674.122.232 0 .43-.027.6-.08.166-.054.31-.112.432-.174.12-.062.222-.12.303-.174.082-.054.152-.08.21-.08.077 0 .136.028.177.087l.26.337c-.115.138-.25.258-.41.36-.16.102-.33.186-.51.252-.182.065-.37.114-.563.147-.194.033-.386.05-.576.05-.363 0-.697-.062-1.003-.184-.306-.124-.57-.304-.793-.54-.223-.237-.397-.53-.52-.88-.125-.348-.188-.75-.188-1.202 0-.366.057-.708.17-1.026.11-.318.273-.594.484-.827.21-.234.468-.417.772-.55.304-.133.646-.2 1.026-.2zm.02.68c-.445 0-.795.128-1.05.385-.257.258-.416.615-.478 1.07h2.856c0-.213-.03-.41-.088-.587-.06-.178-.145-.332-.26-.46-.113-.13-.252-.23-.416-.302-.165-.07-.352-.105-.563-.105zm7.46-.68c.385 0 .73.064 1.04.19.31.13.572.31.788.546.216.235.382.52.498.853.116.333.174.705.174 1.117 0 .414-.058.788-.174 1.12-.116.33-.282.615-.498.85-.216.235-.478.415-.788.54-.31.128-.655.19-1.04.19-.383 0-.73-.062-1.038-.19-.31-.125-.573-.305-.79-.54-.22-.235-.386-.52-.504-.85-.117-.332-.176-.706-.176-1.12 0-.412.06-.784.176-1.117.118-.334.285-.618.503-.853.218-.235.48-.417.79-.545.31-.127.656-.19 1.04-.19zm0 4.686c.52 0 .906-.174 1.162-.52.256-.348.384-.833.384-1.455 0-.626-.128-1.113-.384-1.462-.256-.35-.643-.524-1.16-.524-.264 0-.492.046-.685.136-.194.09-.355.22-.485.39-.13.168-.226.377-.29.624-.064.247-.096.526-.096.837 0 .31.032.59.096.835s.16.45.29.62c.13.167.29.295.485.385.193.09.42.135.684.135zm3.847.648v-4.463l-.58-.068c-.073-.018-.132-.045-.18-.08-.046-.037-.07-.09-.07-.16v-.378h.83v-.508c0-.3.043-.567.127-.8.085-.234.206-.43.363-.592.158-.16.347-.282.568-.365.222-.083.47-.125.748-.125.235 0 .452.035.653.104l-.02.462c-.003.07-.033.11-.088.124-.055.014-.133.02-.233.02h-.162c-.16 0-.303.02-.433.063-.13.04-.24.11-.334.202-.093.093-.164.216-.215.368-.05.152-.075.34-.075.565v.482h1.52v.67h-1.49v4.478h-.927zm6.828 1.55c-.03.07-.07.124-.116.166-.046.04-.118.062-.215.062h-.685l.96-2.084-2.168-4.945h.798c.08 0 .142.018.187.058.045.04.078.084.098.132l1.405 3.308c.03.076.058.152.08.228.023.076.043.154.06.233l.073-.234c.024-.076.052-.154.083-.233l1.364-3.303c.02-.055.056-.1.106-.137.05-.036.105-.054.164-.054h.736l-2.93 6.8zm5.895-6.884c.384 0 .73.064 1.04.19.31.13.57.31.787.546.216.235.382.52.498.853.116.333.174.705.174 1.117 0 .414-.058.788-.174 1.12-.116.33-.282.615-.498.85-.216.235-.478.415-.788.54-.31.128-.655.19-1.04.19-.383 0-.73-.062-1.038-.19-.31-.125-.573-.305-.79-.54-.22-.235-.386-.52-.504-.85-.117-.332-.176-.706-.176-1.12 0-.412.06-.784.176-1.117.118-.334.285-.618.503-.853.218-.235.48-.417.79-.545.31-.127.656-.19 1.04-.19zm0 4.686c.518 0 .905-.174 1.16-.52.257-.348.385-.833.385-1.455 0-.626-.128-1.113-.384-1.462-.256-.35-.643-.524-1.16-.524-.264 0-.492.046-.685.136-.193.09-.354.22-.484.39-.13.168-.226.377-.29.624-.064.247-.096.526-.096.837 0 .31.032.59.096.835s.16.45.29.62c.13.167.29.295.485.385.194.09.422.135.685.135zm4.438-4.603v3.347c0 .398.09.705.274.923.183.218.46.327.83.327.27 0 .523-.064.762-.192.237-.128.457-.306.657-.534v-3.87h.923v5.25h-.55c-.13 0-.214-.064-.248-.192l-.073-.565c-.23.252-.485.455-.768.61-.284.153-.61.23-.975.23-.287 0-.54-.048-.76-.143-.22-.095-.403-.23-.55-.4-.15-.174-.26-.383-.336-.63-.073-.244-.11-.515-.11-.813v-3.348h.923zm4.966 5.25v-5.25h.528c.1 0 .17.018.207.056.038.038.064.103.078.197l.062.82c.18-.368.402-.654.666-.86.265-.205.576-.308.932-.308.145 0 .276.017.394.05.117.032.226.078.326.137l-.12.69c-.023.086-.077.13-.16.13-.048 0-.122-.017-.223-.05-.1-.033-.24-.05-.42-.05-.322 0-.59.094-.807.28-.216.187-.396.458-.54.814v3.344h-.924zm9.874 0c-.13 0-.214-.064-.25-.192l-.08-.637c-.226.274-.483.492-.77.656-.29.164-.62.247-.994.247-.3 0-.574-.058-.82-.174-.244-.117-.454-.287-.626-.512-.173-.224-.306-.504-.4-.84-.093-.335-.14-.72-.14-1.156 0-.387.052-.747.156-1.08.104-.334.253-.623.448-.87.196-.244.433-.437.713-.577.28-.14.6-.21.955-.21.322 0 .596.055.824.164.227.107.43.26.61.457v-2.913h.924v7.636h-.55zm-1.788-.674c.3 0 .564-.07.79-.207.227-.14.435-.335.625-.587v-2.54c-.168-.228-.354-.388-.556-.48-.202-.09-.426-.137-.672-.137-.49 0-.867.174-1.13.523-.262.35-.394.846-.394 1.492 0 .343.03.635.088.88.06.243.146.443.26.6.114.158.254.273.42.345.165.073.356.11.57.11zm4.914-4.577v5.25h-.922v-5.25h.922zm.208-1.65c0 .09-.02.174-.055.252-.036.077-.084.146-.145.207-.06.06-.13.107-.21.14-.08.036-.164.053-.254.053s-.174-.017-.25-.052c-.08-.033-.148-.08-.21-.14-.06-.062-.107-.13-.14-.208-.036-.078-.053-.162-.053-.252s.018-.175.053-.257c.034-.08.082-.152.142-.212.06-.06.13-.107.208-.142.077-.034.16-.05.25-.05s.176.016.255.05c.08.035.15.082.21.143.06.06.11.132.145.213.036.082.055.167.055.257zm3.188 1.56c.228 0 .44.026.64.076s.38.123.542.22h1.425v.342c0 .114-.072.187-.217.218l-.597.083c.117.223.176.474.176.75 0 .256-.05.49-.148.698-.1.21-.235.388-.41.536-.174.15-.38.263-.622.342-.24.08-.503.12-.79.12-.246 0-.477-.03-.695-.088-.11.07-.193.143-.25.222-.057.08-.086.158-.086.234 0 .124.05.218.15.282.1.064.234.11.4.138.166.027.354.045.565.05.21.008.425.02.644.035.22.015.435.04.646.08.21.038.4.1.565.186.165.087.3.206.4.358.1.152.15.35.15.59 0 .225-.057.443-.17.654-.112.21-.273.398-.484.562-.21.165-.467.296-.77.394-.306.1-.65.148-1.033.148-.384 0-.72-.038-1.008-.114-.29-.076-.53-.178-.72-.306-.19-.128-.332-.275-.427-.443-.095-.17-.143-.344-.143-.527 0-.26.082-.48.247-.66.164-.183.39-.327.676-.434-.148-.07-.267-.163-.355-.278-.088-.116-.132-.27-.132-.464 0-.076.014-.155.04-.236.03-.08.07-.162.128-.24.057-.08.127-.157.21-.23.083-.072.18-.136.29-.19-.26-.146-.462-.34-.61-.58-.145-.24-.22-.52-.22-.842 0-.255.05-.488.15-.697.097-.21.235-.387.41-.534.177-.148.387-.26.63-.34.245-.08.51-.12.802-.12zm1.638 5.625c0-.13-.036-.237-.11-.316-.072-.08-.17-.142-.294-.185-.125-.043-.268-.075-.43-.096-.163-.022-.334-.036-.514-.045-.18-.01-.363-.018-.55-.03-.186-.01-.364-.028-.533-.056-.197.093-.357.207-.48.342-.123.134-.184.295-.184.482 0 .117.03.227.09.33.06.1.153.19.277.263.125.074.28.133.47.176.188.044.41.065.665.065.25 0 .472-.022.67-.067.196-.044.363-.108.5-.19.136-.084.24-.182.313-.296.073-.114.11-.24.11-.38zm-1.638-2.85c.186 0 .35-.027.495-.08.144-.05.264-.123.36-.217.098-.093.17-.204.22-.334.047-.13.07-.272.07-.428 0-.32-.096-.577-.29-.767-.197-.19-.48-.286-.854-.286-.37 0-.653.095-.848.285-.195.19-.293.445-.293.766 0 .156.025.298.075.428.05.13.124.24.22.334.098.094.217.166.358.218.142.052.305.078.488.078zm4.557-2.686v5.25h-.923v-5.25h.923zm.207-1.65c0 .09-.018.174-.055.252-.036.077-.084.146-.145.207-.06.06-.13.107-.21.14-.08.036-.164.053-.254.053s-.173-.017-.25-.052c-.08-.033-.148-.08-.208-.14-.06-.062-.108-.13-.143-.208-.035-.078-.052-.162-.052-.252s.017-.175.052-.257c.035-.08.082-.152.143-.212.06-.06.13-.107.207-.142.078-.034.16-.05.25-.05s.176.016.255.05c.08.035.15.082.21.143.06.06.11.132.145.213.037.082.055.167.055.257zm3.012 6.983c-.415 0-.734-.116-.957-.347-.223-.232-.334-.565-.334-1v-3.215h-.63c-.057 0-.103-.015-.14-.048-.04-.033-.058-.084-.058-.153v-.37l.86-.108.213-1.623c.007-.053.03-.095.067-.128.038-.033.086-.05.145-.05h.467v1.81h1.503v.67h-1.503v3.15c0 .222.053.386.16.493.108.108.246.16.415.16.096 0 .18-.012.25-.038s.133-.054.185-.085c.05-.03.096-.06.132-.086.036-.026.068-.04.096-.04.048 0 .09.03.13.09l.27.44c-.16.15-.352.265-.577.35-.224.085-.456.127-.694.127zm6.132-.083h-.41c-.09 0-.162-.014-.217-.04-.055-.03-.09-.088-.11-.178l-.102-.487c-.14.124-.273.236-.405.334-.13.098-.27.18-.414.248-.146.068-.3.12-.464.153-.165.036-.347.053-.547.053-.204 0-.395-.03-.573-.086-.178-.057-.333-.142-.464-.256-.13-.113-.236-.258-.314-.432-.077-.175-.116-.38-.116-.62 0-.207.057-.406.17-.598.115-.192.3-.362.553-.51.255-.15.587-.27 1-.366.41-.095.913-.15 1.507-.164v-.41c0-.407-.087-.715-.262-.925-.174-.21-.432-.313-.775-.313-.224 0-.413.028-.567.085-.154.057-.287.12-.4.192-.112.07-.208.134-.29.19-.08.058-.16.086-.24.086-.063 0-.117-.016-.164-.05-.048-.032-.085-.072-.112-.12l-.166-.296c.29-.28.603-.49.938-.627.335-.14.707-.208 1.115-.208.293 0 .554.05.782.145.228.097.42.232.576.405.155.173.273.382.352.627.08.245.12.515.12.81v3.358zm-2.395-.565c.162 0 .31-.016.445-.05.135-.032.262-.08.38-.14.12-.06.235-.133.343-.22.11-.086.216-.184.32-.295v-1.094c-.426.014-.787.048-1.084.1-.297.055-.54.125-.726.21-.187.088-.322.19-.407.307-.084.117-.126.25-.126.394 0 .138.023.257.067.358.046.1.107.182.183.246.076.065.166.112.27.14.103.03.215.045.336.045zm4.82-7.07v7.635h-.922v-7.636h.923zM91.31 174.248v5.25h-.922v-5.25h.922zm.208-1.65c0 .09-.018.174-.055.252-.035.077-.083.146-.144.207-.06.06-.13.107-.21.14-.08.036-.164.053-.254.053s-.173-.017-.25-.052c-.08-.033-.148-.08-.21-.14-.06-.062-.107-.13-.14-.208-.036-.078-.053-.162-.053-.252s.016-.175.05-.257c.035-.08.083-.152.143-.212.06-.06.13-.107.208-.142.08-.034.162-.05.252-.05s.175.016.254.05c.08.035.15.082.21.143.06.06.11.132.145.213.038.082.056.167.056.257zm1.42 6.9v-5.25h.55c.13 0 .214.063.25.19l.07.57c.23-.252.484-.456.766-.61.28-.157.607-.234.977-.234.286 0 .54.047.758.142.22.095.403.23.55.405.147.174.258.384.334.63.076.245.114.516.114.813v3.344h-.922v-3.344c0-.397-.09-.706-.273-.925-.18-.218-.457-.328-.83-.328-.274 0-.53.065-.765.197-.237.13-.456.308-.656.533v3.867h-.924zm7.356.083c-.414 0-.733-.116-.956-.347-.223-.232-.335-.565-.335-1v-3.215h-.63c-.056 0-.103-.015-.14-.048-.04-.033-.058-.084-.058-.153v-.37l.86-.108.213-1.623c.007-.053.03-.095.068-.128.038-.033.086-.05.145-.05h.466v1.81h1.504v.67h-1.504v3.15c0 .222.054.386.16.493.108.108.246.16.416.16.096 0 .18-.012.25-.038.072-.026.133-.054.185-.085.052-.03.096-.06.132-.086.037-.026.07-.04.096-.04.05 0 .092.03.13.09l.27.44c-.16.15-.35.265-.576.35-.225.085-.456.127-.695.127zm4.355-5.417c.314 0 .605.052.87.158.267.105.497.257.69.456.194.2.345.444.454.736.11.292.164.625.164.998 0 .145-.015.242-.047.29-.03.05-.09.073-.176.073h-3.493c.007.332.052.62.135.866.083.245.197.45.342.614.145.164.318.287.52.368.2.08.424.122.672.122.232 0 .432-.027.6-.08.167-.054.31-.112.432-.174.12-.062.222-.12.303-.174.083-.054.153-.08.21-.08.077 0 .136.028.178.087l.26.337c-.115.138-.252.258-.41.36-.16.102-.33.186-.51.252-.183.065-.37.114-.564.147-.193.033-.385.05-.575.05-.364 0-.7-.062-1.004-.184-.306-.124-.57-.304-.794-.54-.222-.237-.396-.53-.52-.88-.125-.348-.187-.75-.187-1.202 0-.366.056-.708.168-1.026.113-.318.274-.594.485-.827.21-.234.468-.417.772-.55.305-.133.647-.2 1.027-.2zm.02.68c-.445 0-.796.128-1.052.385-.255.258-.414.615-.477 1.07h2.857c0-.213-.03-.41-.088-.587-.06-.178-.146-.332-.26-.46-.114-.13-.253-.23-.417-.302-.164-.07-.352-.105-.562-.105zm4.36-2.982v7.636h-.922v-7.636h.922zm2.655 0v7.636h-.923v-7.636h.922zm2.654 2.385v5.25h-.923v-5.25h.923zm.207-1.65c0 .09-.018.174-.054.252-.038.077-.086.146-.146.207-.06.06-.13.107-.21.14-.08.036-.165.053-.254.053-.09 0-.174-.017-.252-.052-.078-.033-.147-.08-.207-.14-.06-.062-.107-.13-.142-.208-.034-.078-.052-.162-.052-.252s.018-.175.052-.257c.035-.08.082-.152.143-.212.06-.06.13-.107.208-.142.078-.034.162-.05.252-.05s.174.016.254.05c.08.035.15.082.21.143.06.06.108.132.145.213.035.082.053.167.053.257zm3.188 1.56c.23 0 .443.026.642.076.198.05.38.123.54.22h1.427v.342c0 .114-.074.187-.22.218l-.595.083c.117.223.176.474.176.75 0 .256-.048.49-.147.698-.098.21-.235.388-.41.536-.174.15-.38.263-.62.342-.24.08-.505.12-.792.12-.244 0-.476-.03-.693-.088-.11.07-.195.143-.252.222-.057.08-.085.158-.085.234 0 .124.05.218.15.282.1.064.233.11.4.138.165.027.353.045.564.05.21.008.426.02.646.035.22.015.434.04.645.08.21.038.4.1.565.186.166.087.3.206.4.358.1.152.15.35.15.59 0 .225-.057.443-.17.654-.11.21-.273.398-.484.562-.21.165-.468.296-.772.394-.304.1-.648.148-1.032.148-.383 0-.72-.038-1.008-.114-.288-.076-.528-.178-.718-.306-.19-.128-.333-.275-.428-.443-.095-.17-.142-.344-.142-.527 0-.26.082-.48.246-.66.164-.183.39-.327.677-.434-.15-.07-.268-.163-.356-.278-.09-.116-.133-.27-.133-.464 0-.076.015-.155.043-.236.027-.08.07-.162.127-.24.057-.08.127-.157.21-.23.083-.072.18-.136.29-.19-.26-.146-.462-.34-.61-.58-.146-.24-.22-.52-.22-.842 0-.255.05-.488.148-.697.1-.21.236-.387.412-.534.177-.148.387-.26.63-.34.244-.08.51-.12.8-.12zm1.64 5.625c0-.13-.037-.237-.11-.316-.072-.08-.17-.142-.295-.185-.124-.043-.268-.075-.43-.096-.163-.022-.334-.036-.513-.045-.18-.01-.363-.018-.55-.03-.187-.01-.365-.028-.534-.056-.197.093-.357.207-.48.342-.122.134-.183.295-.183.482 0 .117.03.227.09.33.06.1.153.19.278.263.124.074.28.133.47.176.187.044.41.065.665.065.25 0 .472-.022.67-.067.196-.044.362-.108.5-.19.135-.084.24-.182.313-.296.073-.114.11-.24.11-.38zm-1.64-2.85c.188 0 .353-.027.496-.08.144-.05.264-.123.36-.217.097-.093.17-.204.218-.334.05-.13.073-.272.073-.428 0-.32-.098-.577-.293-.767-.195-.19-.48-.286-.853-.286-.37 0-.65.095-.846.285-.196.19-.293.445-.293.766 0 .156.026.298.076.428s.124.24.22.334c.097.094.216.166.358.218.142.052.304.078.487.078zm5.61-2.77c.315 0 .605.053.87.16.267.104.497.256.69.455.194.2.345.444.454.736.11.292.164.625.164.998 0 .145-.016.242-.047.29-.03.05-.09.073-.175.073H121.8c.008.332.053.62.136.866.082.245.196.45.342.614.145.164.318.287.518.368.2.08.425.122.674.122.232 0 .43-.027.6-.08.166-.054.31-.112.432-.174.12-.062.222-.12.303-.174.08-.054.15-.08.21-.08.076 0 .135.028.176.087l.26.337c-.114.138-.25.258-.41.36-.158.102-.328.186-.51.252-.18.065-.37.114-.562.147-.194.033-.386.05-.576.05-.363 0-.697-.062-1.003-.184-.307-.124-.57-.304-.794-.54-.223-.237-.397-.53-.52-.88-.125-.348-.188-.75-.188-1.202 0-.366.056-.708.17-1.026.11-.318.273-.594.484-.827.21-.234.468-.417.772-.55.304-.133.646-.2 1.026-.2zm.02.68c-.445 0-.796.13-1.05.386-.257.258-.416.615-.478 1.07h2.856c0-.213-.03-.41-.088-.587-.06-.178-.145-.332-.26-.46-.113-.13-.252-.23-.416-.302-.165-.07-.352-.105-.563-.105zm3.334 4.655v-5.25h.55c.13 0 .214.063.25.19l.07.57c.23-.252.484-.456.766-.61.282-.157.607-.234.977-.234.287 0 .54.047.76.142.22.095.402.23.55.405.146.174.257.384.333.63.077.245.115.516.115.813v3.344h-.923v-3.344c0-.397-.09-.706-.272-.925-.182-.218-.46-.328-.832-.328-.273 0-.528.065-.765.197-.237.13-.455.308-.656.533v3.867h-.923zm9.347-4.318c-.026.038-.054.067-.082.088-.027.02-.067.03-.12.03-.05 0-.107-.02-.167-.064-.06-.043-.137-.09-.23-.142-.093-.052-.207-.1-.34-.143-.133-.042-.296-.064-.49-.064-.255 0-.482.046-.68.138-.196.09-.36.223-.494.396-.133.173-.233.382-.3.627-.068.246-.102.52-.102.825 0 .318.037.6.11.847.072.246.174.454.305.62.13.17.29.297.48.385.187.088.4.132.634.132.224 0 .41-.027.554-.08.146-.054.267-.113.363-.18.098-.065.178-.124.24-.178.062-.054.124-.08.186-.08.08 0 .14.028.177.087l.26.337c-.23.28-.514.485-.857.614-.342.13-.703.195-1.083.195-.328 0-.633-.06-.915-.182-.282-.12-.526-.295-.733-.525-.208-.23-.37-.512-.49-.848-.12-.335-.18-.717-.18-1.145 0-.39.055-.752.164-1.084.108-.332.267-.618.476-.858.21-.24.467-.427.775-.562.31-.135.66-.202 1.06-.202.365 0 .69.06.973.18.284.118.534.286.752.504l-.244.332zm3.34-1.016c.314 0 .604.052.87.158.267.105.497.257.69.456.194.2.345.444.454.736.11.292.163.625.163.998 0 .145-.016.242-.047.29-.03.05-.09.073-.176.073h-3.494c.007.332.052.62.135.866.083.245.197.45.342.614.145.164.318.287.518.368.2.08.425.122.674.122.23 0 .43-.027.598-.08.168-.054.312-.112.433-.174.122-.062.223-.12.304-.174.08-.054.15-.08.21-.08.076 0 .135.028.176.087l.26.337c-.114.138-.25.258-.41.36-.16.102-.33.186-.51.252-.182.065-.37.114-.563.147-.194.033-.385.05-.575.05-.363 0-.698-.062-1.004-.184-.305-.124-.57-.304-.793-.54-.223-.237-.396-.53-.52-.88-.125-.348-.187-.75-.187-1.202 0-.366.056-.708.168-1.026.112-.318.274-.594.485-.827.212-.234.47-.417.773-.55.304-.133.647-.2 1.027-.2zm.02.68c-.445 0-.796.128-1.052.385-.256.258-.415.615-.477 1.07h2.858c0-.213-.03-.41-.09-.587-.057-.178-.144-.332-.258-.46-.114-.13-.253-.23-.417-.302-.164-.07-.352-.105-.563-.105zm3.033 4.084c0-.09.016-.175.05-.254.032-.08.077-.15.134-.208.057-.058.125-.105.205-.14.08-.034.164-.05.254-.05s.174.016.254.05c.08.035.148.082.207.14.06.06.105.128.138.208.032.08.05.164.05.254 0 .093-.018.18-.05.256-.033.078-.08.146-.138.205-.06.06-.128.106-.207.14-.08.03-.164.048-.254.048s-.175-.017-.254-.05c-.08-.032-.148-.078-.205-.137-.057-.058-.102-.126-.135-.204-.033-.077-.05-.163-.05-.256z" fill="#1D2630"/>
    <path fill="#DAD9D1" d="M63 209h105v22H63z"/>
    <path d="M77.835 217.15c-.033.055-.068.097-.104.124-.036.028-.084.04-.142.04-.063 0-.135-.03-.218-.092-.082-.062-.187-.13-.313-.206-.127-.075-.28-.144-.457-.206-.178-.063-.393-.094-.646-.094-.238 0-.45.032-.633.096-.182.064-.335.15-.458.26-.123.112-.215.24-.278.39-.062.148-.093.308-.093.48 0 .22.055.403.163.548.108.145.25.268.43.37.177.104.38.193.604.268.226.075.457.153.693.234.237.08.468.17.693.272.226.1.427.228.605.382s.32.343.43.567c.107.223.16.498.16.825 0 .344-.057.668-.175.97-.117.303-.288.566-.514.79-.226.223-.503.4-.83.528-.33.128-.702.192-1.12.192-.51 0-.975-.093-1.395-.278-.42-.185-.778-.435-1.075-.75l.308-.507c.03-.04.065-.074.107-.1.042-.03.09-.042.14-.042.078 0 .165.042.264.124.1.083.222.173.37.273.15.1.33.19.54.272.21.08.468.123.772.123.254 0 .48-.035.677-.105.197-.07.365-.168.502-.294.138-.127.243-.278.316-.454.074-.176.11-.372.11-.59 0-.237-.054-.432-.162-.584-.108-.152-.25-.28-.426-.382-.176-.103-.377-.19-.602-.262-.226-.07-.457-.145-.693-.22-.237-.075-.468-.162-.693-.26-.226-.1-.426-.228-.603-.386s-.32-.355-.427-.59c-.108-.238-.162-.53-.162-.88 0-.277.055-.547.163-.807.108-.26.265-.492.47-.694.206-.202.46-.363.762-.484.303-.12.65-.18 1.042-.18.44 0 .842.068 1.205.208.363.14.68.34.95.605l-.257.505zm3.328 6.738c-.44 0-.78-.123-1.015-.37-.237-.244-.355-.598-.355-1.06v-3.41h-.67c-.06 0-.11-.017-.15-.052-.04-.035-.06-.09-.06-.163v-.39l.913-.116.226-1.72c.007-.056.03-.1.07-.136.04-.034.093-.05.155-.05h.495v1.92h1.595v.708h-1.595v3.344c0 .235.057.41.17.523.114.113.26.17.44.17.103 0 .192-.014.267-.04.074-.03.14-.06.195-.092.055-.033.1-.063.14-.09.038-.028.072-.042.102-.042.05 0 .097.032.137.095l.286.467c-.17.158-.372.28-.61.37-.24.09-.484.136-.737.136zm2.414-.088v-5.572h.56c.107 0 .18.02.22.06.04.04.07.11.084.21l.067.87c.19-.39.426-.693.706-.91.28-.22.61-.328.988-.328.155 0 .294.017.42.052.123.035.24.083.345.145l-.126.732c-.027.09-.084.136-.172.136-.05 0-.13-.017-.236-.052-.107-.035-.255-.052-.446-.052-.34 0-.626.1-.855.297-.228.197-.42.485-.574.863v3.547h-.98zm6.688-5.66c.407 0 .775.068 1.103.204.328.136.607.328.836.578.23.25.405.55.528.904s.184.75.184 1.186c0 .44-.06.835-.184 1.188-.123.352-.3.652-.528.9-.23.25-.508.442-.836.576-.328.134-.696.2-1.103.2-.407 0-.775-.066-1.103-.2-.328-.134-.607-.325-.84-.575-.23-.248-.407-.548-.532-.9-.125-.353-.187-.748-.187-1.188 0-.437.062-.832.187-1.186s.302-.655.533-.904c.232-.25.51-.442.84-.578.327-.136.695-.203 1.102-.203zm0 4.973c.55 0 .96-.185 1.232-.553.27-.37.407-.883.407-1.543 0-.664-.136-1.18-.407-1.55-.27-.37-.682-.556-1.232-.556-.28 0-.52.048-.726.144-.206.095-.378.232-.515.412-.138.18-.24.4-.308.663-.068.26-.102.557-.102.887 0 .33.034.625.102.886.068.26.17.48.308.657.137.178.31.314.514.41.204.095.446.143.725.143zm3.86.687v-5.572h.584c.138 0 .226.068.263.204l.077.605c.242-.268.512-.484.81-.65.3-.164.646-.246 1.038-.246.304 0 .573.05.806.152.233.1.427.244.583.43.156.184.274.407.354.667.082.26.123.547.123.863v3.547h-.98v-3.548c0-.42-.096-.748-.288-.98-.193-.234-.487-.35-.883-.35-.29 0-.56.07-.81.21-.252.138-.484.327-.697.565v4.103h-.98zm7.993-5.665c.242 0 .468.027.68.08.21.053.4.13.573.233h1.514v.363c0 .123-.077.2-.23.232l-.633.09c.125.237.188.503.188.796 0 .27-.053.518-.157.74-.104.222-.25.41-.434.57-.185.157-.405.278-.66.362-.255.084-.534.126-.838.126-.26 0-.506-.03-.737-.093-.117.073-.206.152-.266.236-.06.084-.09.166-.09.247 0 .132.052.232.16.3.105.068.246.116.422.145.176.03.376.048.6.055.223.008.45.02.684.036.233.017.46.045.685.085.224.04.423.107.6.198.176.092.317.22.423.38.106.16.16.37.16.627 0 .238-.06.47-.18.693-.118.224-.29.423-.514.597-.223.174-.496.313-.82.418-.322.105-.686.157-1.094.157-.407 0-.763-.04-1.07-.12-.305-.08-.56-.19-.76-.325-.203-.136-.354-.292-.455-.47-.1-.178-.15-.364-.15-.56 0-.274.086-.507.26-.7.174-.192.414-.345.718-.46-.158-.072-.283-.17-.377-.293-.093-.124-.14-.288-.14-.493 0-.08.015-.165.044-.25.03-.087.074-.172.135-.256.06-.084.134-.165.222-.242.09-.077.19-.144.308-.203-.275-.154-.49-.358-.646-.613-.157-.255-.234-.553-.234-.894 0-.27.052-.518.156-.74.105-.222.25-.41.438-.566.187-.156.41-.276.668-.36.258-.085.54-.127.85-.127zm1.738 5.968c0-.14-.04-.252-.116-.336-.077-.084-.18-.15-.313-.195-.133-.046-.285-.08-.457-.102-.172-.022-.354-.038-.544-.047l-.584-.03c-.198-.01-.386-.03-.566-.06-.21.1-.38.22-.51.363s-.194.313-.194.51c0 .126.032.242.096.35.064.108.162.202.294.28.133.08.298.142.498.188.2.046.436.07.707.07.264 0 .5-.025.71-.073.21-.047.385-.115.53-.203.145-.088.256-.192.333-.313.077-.12.116-.255.116-.4zm-1.738-3.026c.198 0 .373-.027.525-.082.152-.055.28-.132.382-.23.103-.1.18-.218.23-.356.052-.138.078-.29.078-.454 0-.342-.104-.613-.31-.814-.208-.202-.51-.303-.905-.303-.393 0-.693.1-.9.302-.207.2-.31.472-.31.814 0 .165.026.316.08.453.052.137.13.255.233.354.104.1.23.176.38.23.15.056.323.083.518.083zm5.95-2.936c.334 0 .642.056.925.168.282.112.526.273.73.484.206.21.367.47.482.78.116.31.174.664.174 1.06 0 .154-.018.257-.05.308-.034.05-.096.077-.188.077h-3.707c.007.352.055.658.143.918s.21.478.363.652c.155.174.338.305.55.39.214.087.452.13.716.13.246 0 .457-.028.635-.085.18-.057.332-.118.46-.184.13-.066.236-.128.322-.185.086-.057.16-.085.223-.085.08 0 .143.03.187.093l.275.36c-.12.146-.266.273-.434.38-.17.11-.35.198-.542.268-.192.07-.39.122-.596.157-.205.035-.41.052-.61.052-.386 0-.74-.065-1.065-.195-.325-.13-.606-.32-.842-.572-.237-.25-.42-.562-.553-.933-.132-.37-.198-.795-.198-1.275 0-.39.06-.752.18-1.09.118-.337.29-.63.513-.877.224-.247.497-.442.82-.583.322-.14.685-.212 1.088-.212zm.023.72c-.473 0-.845.138-1.116.41-.27.274-.44.652-.506 1.136h3.03c0-.227-.03-.435-.093-.624-.062-.19-.154-.352-.275-.49-.12-.137-.27-.243-.443-.318-.174-.075-.373-.113-.596-.113zm3.537 4.94v-5.572h.56c.107 0 .18.02.22.06.04.04.07.11.084.21l.067.87c.19-.39.426-.693.706-.91.28-.22.61-.328.987-.328.155 0 .294.017.418.052.125.035.24.083.347.145l-.127.732c-.025.09-.082.136-.17.136-.05 0-.13-.017-.237-.052-.105-.035-.253-.052-.444-.052-.34 0-.626.1-.855.297-.228.197-.42.485-.574.863v3.547h-.98zm6.53-6.353c-.174-.143-.26-.368-.26-.676 0-.314.086-.543.258-.687.173-.143.45-.214.83-.214.382 0 .66.07.832.213.172.144.258.373.258.688 0 .31-.086.534-.258.677-.173.144-.45.215-.83.215-.382 0-.66-.07-.83-.215zm1.764 6.353h-1.87v-5.5h1.87v5.5zm6.326-5.104c.345.337.517.818.517 1.44v3.664h-1.87v-3.146c0-.374-.068-.64-.204-.797-.136-.158-.33-.237-.578-.237-.293 0-.532.104-.715.314-.183.21-.275.53-.275.962v2.904h-1.87v-5.5h1.672l.055 1.056c.175-.39.424-.68.747-.874.323-.195.7-.292 1.133-.292.58 0 1.04.17 1.386.506zm1.42 4.246l.967-1.056c.315.52.858.78 1.628.78.258 0 .46-.034.606-.103.147-.07.22-.164.22-.28 0-.104-.075-.194-.226-.27-.15-.078-.408-.153-.775-.226-.82-.16-1.406-.38-1.755-.66-.348-.28-.522-.65-.522-1.11 0-.316.1-.613.297-.892.198-.28.497-.504.896-.677.4-.172.887-.258 1.46-.258.63 0 1.145.086 1.544.258.4.173.725.43.974.776l-.968.946c-.176-.257-.385-.444-.627-.56-.242-.118-.532-.177-.87-.177-.263 0-.468.04-.615.12-.147.082-.22.18-.22.298 0 .11.075.204.225.28.15.078.413.154.787.227.807.14 1.388.346 1.743.62.356.277.534.652.534 1.13 0 .534-.224.97-.67 1.303-.448.333-1.097.5-1.948.5-1.262 0-2.157-.323-2.685-.968zm6.374-5.495c-.173-.143-.26-.368-.26-.676 0-.314.087-.543.26-.687.172-.143.45-.214.83-.214.38 0 .658.07.83.213.173.144.26.373.26.688 0 .31-.087.534-.26.677-.172.144-.45.215-.83.215-.38 0-.658-.07-.83-.215zm1.765 6.353h-1.87v-5.5h1.87v5.5zm6.297-.803c.35.28.523.69.523 1.232 0 .622-.277 1.1-.83 1.435-.554.333-1.308.5-2.26.5-.962 0-1.67-.114-2.13-.34-.458-.228-.687-.547-.687-.958 0-.242.084-.455.253-.638.17-.184.426-.316.77-.397-.564-.242-.846-.623-.846-1.144 0-.258.08-.485.242-.683.16-.198.38-.345.66-.44-.6-.323-.902-.825-.902-1.507 0-.594.235-1.054.704-1.38.47-.327 1.13-.49 1.98-.49.396 0 .763.04 1.1.12.073-.44.238-.798.495-1.077.257-.28.612-.418 1.067-.418l.176.01.21 1.244c-.148-.016-.25-.023-.31-.023-.248 0-.455.044-.62.132-.166.087-.285.208-.358.362.616.323.924.83.924 1.518 0 .594-.235 1.052-.704 1.375-.47.323-1.13.484-1.98.484-.396 0-.748-.034-1.056-.1-.227.06-.34.187-.34.385 0 .25.19.374.57.374h1.87c.64 0 1.132.138 1.48.417zm-3.112-3.52c-.15.147-.226.34-.226.583 0 .242.075.434.226.577.15.144.346.215.588.215s.438-.07.59-.215c.15-.143.224-.335.224-.577 0-.242-.075-.436-.225-.583-.15-.147-.347-.22-.59-.22-.24 0-.437.073-.587.22zm1.782 5.33c.253-.1.38-.23.38-.39 0-.118-.052-.206-.155-.265-.103-.06-.275-.088-.517-.088h-1.507c-.3 0-.515.03-.644.094-.13.062-.193.16-.193.29 0 .338.51.507 1.53.507.483 0 .85-.05 1.105-.15zm7.584-6.11c.345.336.517.817.517 1.44v3.663h-1.87v-3.146c0-.697-.26-1.045-.78-1.045-.294 0-.533.105-.716.318-.183.213-.275.54-.275.98v2.892h-1.87v-7.832h1.87v3.333c.16-.366.39-.642.688-.83.297-.187.647-.28 1.05-.28.58 0 1.04.17 1.386.506zm5.82 4.795c-.184.125-.417.226-.7.303-.282.077-.566.115-.852.115-.653 0-1.15-.14-1.496-.418-.345-.28-.52-.726-.528-1.342v-2.52h-.946v-1.33h.946v-1.232l1.87-.517v1.75h1.65v1.33h-1.65v2.212c0 .49.242.737.726.737.3 0 .565-.082.792-.243l.187 1.155zm.384-.55l.968-1.056c.315.52.858.78 1.628.78.257 0 .458-.034.605-.103.148-.07.22-.164.22-.28 0-.104-.074-.194-.224-.27-.15-.078-.41-.153-.776-.226-.82-.16-1.406-.38-1.754-.66-.35-.28-.523-.65-.523-1.11 0-.316.1-.613.297-.892.198-.28.497-.504.897-.677.4-.172.885-.258 1.457-.258.63 0 1.146.086 1.545.258.4.173.724.43.973.776l-.968.946c-.176-.257-.385-.444-.627-.56-.242-.118-.532-.177-.87-.177-.263 0-.468.04-.615.12-.147.082-.22.18-.22.298 0 .11.075.204.225.28.15.078.413.154.787.227.807.14 1.388.346 1.743.62.356.277.534.652.534 1.13 0 .534-.224.97-.67 1.303-.448.333-1.097.5-1.948.5-1.26 0-2.156-.323-2.684-.968z" fill="#1D2630"/>
    <path fill="#1D2630" fill-rule="nonzero" d="M168.028 220.972h52.944v-1.944h-52.944"/>
    <path fill="#1D2630" d="M223.36 219.997l-6.36 4.997V215"/>
  </g>
</svg>
