<svg width="128" height="104" viewBox="0 0 128 104" xmlns="http://www.w3.org/2000/svg" preserveAspectRatio="xMinYMin meet"><title>“</title><defs><linearGradient x1="-62.001%" y1="76.777%" y2="76.777%" id="a"><stop stop-color="#0457FF" offset="0%"/><stop stop-color="#0CC3F3" offset="100%"/></linearGradient></defs><path d="M334.337 17586.488c-6.182 7.726-9.272 15.553-9.272 23.48 0 3.36.403 6.25 1.21 8.668 4.702-3.628 9.81-5.442 15.32-5.442 7.524 0 13.807 2.385 18.846 7.155 5.04 4.77 7.56 11.185 7.56 19.247 0 7.524-2.553 13.806-7.66 18.845-5.106 5.04-11.355 7.558-18.746 7.558-10.617 0-18.747-4.367-24.39-13.1-4.704-7.257-7.056-16.326-7.056-27.21 0-13.84 3.528-26.235 10.583-37.186 7.056-10.95 17.706-19.786 31.95-26.504l3.83 7.457c-8.6 3.628-15.99 9.305-22.173 17.03zm-70.148 0c-6.183 7.726-9.273 15.553-9.273 23.48 0 3.36.403 6.25 1.21 8.668 4.568-3.628 9.675-5.442 15.32-5.442 7.39 0 13.64 2.385 18.745 7.155 5.107 4.77 7.66 11.185 7.66 19.247 0 4.97-1.21 9.473-3.628 13.504-2.42 4.032-5.644 7.19-9.676 9.474-4.03 2.284-8.4 3.426-13.102 3.426-10.617 0-18.747-4.367-24.39-13.1-4.704-7.257-7.056-16.326-7.056-27.21 0-13.84 3.528-26.235 10.583-37.186 7.055-10.95 17.705-19.786 31.95-26.504l3.83 7.457c-8.6 3.628-15.992 9.305-22.174 17.03z" transform="translate(-240 -17562)" fill="url(#a)" fill-rule="evenodd"/></svg>