<svg width="391" height="221" viewBox="0 0 391 221" xmlns="http://www.w3.org/2000/svg">
  <g fill="#000" fill-rule="evenodd">
    <path d="M62.428 53.732c7.4 0 13.4 6 13.4 13.4s-6 13.4-13.4 13.4-13.4-6-13.4-13.4 6-13.4 13.4-13.4zm185.4 112.8c3.314 0 6 2.686 6 6s-2.686 6-6 6-6-2.686-6-6 2.686-6 6-6zm-221.6 21v-9.4h17l-17 9.4z" fill-opacity=".2"/>
    <path d="M102.428 119.932c-2.2 0-4 1.8-4 4s1.8 4 4 4 4-1.8 4-4-1.6-4-4-4m0 12.2c-4.4 0-8-3.6-8-8s3.6-8 8-8 8 3.6 8 8c.2 4.4-3.4 8-8 8m-40-76.4c-6.2 0-11.4 5.2-11.4 11.4s5.2 11.4 11.4 11.4 11.4-5.2 11.4-11.4c0-6.4-5.2-11.4-11.4-11.4m0 26.8c-8.4 0-15.4-7-15.4-15.4s7-15.4 15.4-15.4 15.4 7 15.4 15.4-6.8 15.4-15.4 15.4zm185.4 98c-4.4 0-8-3.6-8-8s3.6-8 8-8 8 3.6 8 8-3.6 8-8 8zm0-12c-2.2 0-4 1.8-4 4s1.8 4 4 4 4-1.8 4-4-1.8-4-4-4zm97 17.2c-7.4 0-13.2-6-13.2-13.2 0-7.2 6-13.2 13.2-13.2 7.2 0 13.2 6 13.2 13.2 0 7.2-6 13.2-13.2 13.2zm0-22.4c-5.2 0-9.2 4.2-9.2 9.2 0 5 4.2 9.2 9.2 9.2 5 0 9.2-4.2 9.2-9.2 0-5-4.2-9.2-9.2-9.2zm-72.8-60.6c-3.6 0-6.6-3-6.6-6.6 0-3.6 3-6.6 6.6-6.6 3.6 0 6.6 3 6.6 6.6.2 3.6-2.8 6.6-6.6 6.6zm0-9.4c-1.4 0-2.6 1.2-2.6 2.6 0 1.4 1.2 2.6 2.6 2.6 1.4 0 2.6-1.2 2.6-2.6.2-1.4-1-2.6-2.6-2.6zm76.4-62.6c1.6-2.4 4.4-4 7.2-4.2 4.6 0 8.2 3.2 8.6 7.4 2.6.8 4.6 3.2 4.6 6 0 3.4-3 6-6.4 6h-21c-3.4 0-6.4-2.6-6.4-6 0-3.2 2.6-5.6 5.8-6 1-2 3.2-3.4 5.8-3.4.6 0 1.2 0 1.8.2zm3 3.2c-.2.6-.6 1.2-1.2 1.6-.6.2-1.2.2-1.8-.2-.4-.4-.8-.6-1.6-.6-1.2 0-2.2.8-2.4 1.8 0 .4-.4.8-.8 1.2-.4.4-.8.4-1.4.4-.2 0-.2-.2-.4-.2-1.4 0-2.4 1.2-2.4 2.2 0 1 1 2 2.4 2h21c1.4 0 2.4-1 2.4-2s-1-2-2.4-2h-.2c-.6 0-1.2-.4-1.6-.8-.4-.6-.6-1.2-.4-1.8v-.8c0-2.2-2-4-4.6-4-2.2 0-4.2 1.4-4.6 3.2zm3.6 30.6c-1 0-1.8 0-2.8.2-6 0-11.6-2-16.4-5.8-11.2-9.2-13.2-25.8-4-37.2 4.4-5.6 10.8-9 17.8-9.8 1.2 0 2 .8 2.2 1.8 0 1-.8 2-1.8 2.2-6 .6-11.2 3.6-15 8.2-7.8 9.8-6.2 23.8 3.4 31.6 4.6 3.8 10.4 5.4 16.4 4.8 6-.6 11.2-3.6 15-8.2 7.8-9.8 6.2-23.8-3.4-31.6-1-.6-1-2-.4-2.8.6-1 2-1 2.8-.4 11.2 9.2 13.2 25.8 4 37.2-4.4 5.6-10.8 9-17.8 9.8zm-134.2 21c-.6.8-2 .8-2.8 0-7-7-16.2-10.8-26.2-10.8-20.6 0-37.2 16.6-37.2 37.2s16.6 37.2 37.2 37.2 37.2-16.8 37.2-37.2c0-1.2.8-2 2-2s2 .8 2 2c0 22.8-18.4 41.2-41.2 41.2-22.8 0-41.2-18.4-41.2-41.2 0-22.8 18.6-41.2 41.2-41.2 10.8 0 21.2 4.2 29 12 .8.8.8 2 0 2.8zm165.2-64.6c9.6 18.6 2.2 41.6-16.8 51-5.4 2.8-11.2 4.2-17.2 4.2-4 0-8-.6-11.8-1.8-1-.4-1.6-1.6-1.2-2.6.4-1 1.6-1.6 2.6-1.2 8.6 2.8 17.8 2.2 26-2 16.6-8.6 23.4-29 14.8-45.8-4.2-8.2-11.2-14.2-19.8-17-8.6-2.8-17.8-2.2-26 2-16.6 8.6-23.4 29-14.8 45.8v.8c.2 1-.2 1.8-1 2.2l-64 30c-.2.2-.6.2-.8.2-.8 0-1.4-.4-1.8-1.2-.4-1 0-2.2 1-2.6l62.2-29.2c-8.2-18.4-.8-40.4 17.4-49.6 9-4.6 19.4-5.4 29-2.2 9.8 3.2 17.6 10 22.2 19zm-177.2 33.6c31.6 9.4 49.8 42.6 40 74.2-4.6 15.4-14.8 28-28.8 35.6-9 5-18.8 7.4-28.6 7.4-5.6 0-11.4-.8-17-2.4-15-4.4-29.6-16.8-35.8-29.8l-74.2 33.2h-1.2c-.2 0-.4 0-.6-.2 0-.2-.2-.2-.2-.2-.2 0-.4-.2-.4-.4-3.8-7-10.6-12.6-18.6-15.2-7.8-2.4-16-1.8-23.2 2-7.2 3.6-12.6 10-15 17.8-5 16 4 33.2 20 38.2 7.8 2.4 16 1.8 23.2-2 7.2-3.6 12.6-10 15-17.8.4-1.2 1.6-1.8 2.6-1.4 1.2.4 1.8 1.6 1.4 2.6-2.8 8.8-8.8 16-17 20.2-5 2.6-10.4 4-15.8 4-3.4 0-7-.6-10.4-1.6-18.2-5.8-28.4-25.2-22.6-43.4 2.8-8.8 8.8-16 17-20.2 8.2-4.4 17.6-5.2 26.4-2.4 8.4 2.6 15.6 8.4 20 15.6l74.6-33.4h1.6l.2.2c.2 0 .2 0 .4.2l.2.2c0 .2.2.2.2.4 5 12.8 19.4 25 34 29.4 14.2 4.2 29.4 2.6 42.4-4.6 13-7 22.6-18.8 26.8-33.2 8.6-29.6-8.2-60.6-37.8-69.4-14.2-4.2-29.4-2.6-42.4 4.6-13 7-22.6 18.8-26.8 33.2-.2 1.2-1.4 1.8-2.4 1.4-1.2-.2-1.8-1.4-1.4-2.4 4.6-15.4 14.8-28 28.8-35.6 14-7.6 30-9.4 45.4-4.8zm-191.8 140.4c2.4 4.6 6.6 8.2 11.8 9.8 5 1.6 10.4 1 15.2-1.4 4.6-2.6 8.2-6.6 9.8-11.8 3.4-10.6-2.4-21.8-13-25.2-5-1.6-10.4-1-15.2 1.4-4.6 2.6-8.2 6.6-9.8 11.8-.4 1.2-1.6 1.8-2.6 1.4-1.2-.4-1.8-1.6-1.4-2.6 2-6 6.2-11 11.8-14 5.8-3 12.2-3.6 18.4-1.6 12.6 4 19.6 17.6 15.6 30.2-2 6-6.2 11-11.8 14-3.4 1.8-7.2 2.8-11 2.8-2.4 0-4.8-.4-7.2-1.2-6-2-11-6.2-14-11.8-.6-.8-.2-2 .8-2.6.8-.6 2-.2 2.6.8zm152.4-83c0-12.4 10-22.6 22.6-22.6 12.6 0 22.6 10.2 22.6 22.6 0 12.4-10 22.6-22.6 22.6-12.6 0-22.6-10.2-22.6-22.6zm41 0c0-10.2-8.2-18.6-18.6-18.6-10.4 0-18.6 8.4-18.6 18.6 0 10.2 8.2 18.6 18.6 18.6 10.4 0 18.6-8.4 18.6-18.6zm-26.4.6l4 3.8 9.8-13.2c.6-.8 2-1 2.8-.4.8.6 1 2 .4 2.8l-11.2 15c-.4.4-.8.8-1.4.8h-.2c-.6 0-1-.2-1.4-.6l-5.6-5.4c-.8-.8-.8-2 0-2.8.8-.8 2-.8 2.8 0zm-144 79.6c1.2 0 2.2.8 2.2 2s-1 2-2.2 2h-9.8c-1.2 0-2.2-.8-2.2-2s1-2 2.2-2h9.8zm6.2-14v8c0 2.2-1.8 4-4 4h-14c-2.2 0-4-1.8-4-4v-8c0-2.2 1.8-4 4-4h14c2.2 0 4 1.8 4 4zm-18 8h14v-8h-14v8z"/>
  </g>
</svg>
