<svg width="388" height="220" viewBox="0 0 388 220" xmlns="http://www.w3.org/2000/svg">
  <g fill="none" fill-rule="evenodd">
    <path d="M279.4 142.2V134h76v8.2h-76zm-116.8-32h51.6L162.6 191v-80.8zM21.4 146v20l-20-10 20-10zm50 34l-12 7.2-38-21.2 50 14z" fill-opacity=".2" fill="#071D49"/>
    <path d="M370 132c1.2 0 2 .8 2 2s-.8 2-2 2h-12v80c0 2.2-1.8 4-4 4h-72c-2.2 0-4-1.8-4-4v-80h-14c-1.2 0-2-.8-2-2s.8-2 2-2h106zm-88 72h72v-68h-72v68zm0 12h72v-2h-72v2zm0-6h72v-2h-72v2zm-2-82c-1.2 0-2-.8-2-2V96c0-2.2 1.8-4 4-4h72c2.2 0 4 1.8 4 4v30c0 1.2-.8 2-2 2s-2-.8-2-2V96h-72v30c0 1.2-.8 2-2 2zm12 40c-1.2 0-2-.8-2-2s.8-2 2-2h12c1.2 0 2 .8 2 2s-.8 2-2 2h-12zm0-12c-1.2 0-2-.8-2-2s.8-2 2-2h22c1.2 0 2 .8 2 2s-.8 2-2 2h-22zm0-12c-1.2 0-2-.8-2-2s.8-2 2-2h32c1.2 0 2 .8 2 2s-.8 2-2 2h-32zm-36-12c1.2 0 2 .8 2 2s-.8 2-2 2h-8c-1.2 0-2-.8-2-2s.8-2 2-2h8zm36-4c-1.2 0-2-.8-2-2s.8-2 2-2h44c1.2 0 2 .8 2 2s-.8 2-2 2h-44zm0-20c-1.2 0-2-.8-2-2s.8-2 2-2h22c1.2 0 2 .8 2 2s-.8 2-2 2h-22zm94 24c1.2 0 2 .8 2 2s-.8 2-2 2h-8c-1.2 0-2-.8-2-2s.8-2 2-2h8zm-94 57c1.104 0 2 .896 2 2s-.896 2-2 2-2-.896-2-2 .896-2 2-2zM164 188.2v-76h50c1.2 0 2-.8 2-2s-.8-2-2-2h-50V96h60v92.2h-60zm0 27.8h60v-23.8h-60V216zm60-124c2.2 0 4 1.8 4 4v120c0 2.2-1.8 4-4 4h-60c-2.2 0-4-1.8-4-4v-75.8c-1.2 0-2-.8-2-2v-6c0-1.2.8-2 2-2v-4c-1.2 0-2-.8-2-2v-6c0-1.2.8-2 2-2V96c0-2.2 1.8-4 4-4h60zm-13.8 45.8c1.2 0 2-1 2-2V128c0-1.2-.8-2-2-2H202c-1.2 0-2 .8-2 2s.8 2 2 2h6.2v5.8c0 1.2.8 2 2 2zm0 36.4c1.2 0 2-1 2-2v-8c0-1.2-.8-2-2-2s-2 .8-2 2v6H202c-1.2 0-2 .8-2 2s.8 2 2 2h8.2zm-26.4 0c1.2 0 2-.8 2-2s-.8-2-2-2h-6v-6c0-1.2-.8-2-2-2s-2 .8-2 2v8c0 1.2.8 2 2 2h8zm-6-36.4c1.2 0 2-1 2-2V130h6c1.2 0 2-.8 2-2s-.8-2-2-2h-8c-1.2 0-2 .8-2 2v7.8c0 1.2.8 2 2 2zM119 155.2c.6.2 1 1 1 1.6v58.4c0 2.4-2 4.6-4.4 4.6H3.2c-1 0-1.8-.4-2.2-.8-1-1-1-2.4-1-3.6v-58.6c0-.6.4-1.4 1-1.8.2 0 .4-.2.6-.2l18.4-9.6V96c0-2.2 1.2-4 3.4-4h72c2.2 0 4.6 1.8 4.6 4v49.2l18.4 9.8c.2 0 .4 0 .6.2zm-19 2.8c0 .8-.4 1.4-1.2 1.8-1.2.6-2.8-.4-2.8-1.8V96H24v70l36 18.8L96 166l4-2 13.6-7.2-13.6-7v8.2zm-66 6c-1.2 0-2-.8-2-2s.8-2 2-2h12c1.2 0 2 .8 2 2s-.8 2-2 2H34zm0-12h22c1.2 0 2-.8 2-2s-.8-2-2-2H34c-1.2 0-2 .8-2 2s.8 2 2 2m0-24h44c1.2 0 2-.8 2-2s-.8-2-2-2H34c-1.2 0-2 .8-2 2s.8 2 2 2m0-20h22c1.2 0 2-.8 2-2s-.8-2-2-2H34c-1.2 0-2 .8-2 2s.8 2 2 2m0 32c-1.2 0-2-.8-2-2s.8-2 2-2h32c1.2 0 2 .8 2 2s-.8 2-2 2H34zm82 75.4c0 .2-.4.6-.4.6H4v-55.8L59 189c.6.4 1.2.4 1.8 0l55.2-28.8v55.2zM20 164l-13.6-7.2 13.6-7V164zM194.4 68c-14.8 0-27.8-9.4-32.4-23.4-.4-1 .2-2.2 1.2-2.6 1-.4 2.2.2 2.6 1.2 4 12.4 15.6 20.6 28.6 20.6 16.8 0 30.2-13.2 30.2-30 0-1.2.8-2 2-2H386c1.2 0 2 .8 2 2s-.8 2-2 2H228.4c-1 18.2-15.6 32.2-34 32.2M162 36H2c-1.2 0-2-.8-2-2s.8-2 2-2h158c1-17.8 16-32 34-32 14.8 0 27.8 9.4 32.4 23.4.4 1-.2 2.2-1.2 2.6-1 .4-2.2-.2-2.6-1.2C218.4 12.2 207 4 194 4c-16.6 0-30 13.4-30 30 0 1.2-.8 2-2 2zm41.4-5.4c.8.8.8 2 0 2.8-.4.4-1 .6-1.4.6-.4 0-1-.2-1.4-.6l-4.6-4.6V44c0 1.2-.8 2-2 2s-2-.8-2-2V28.8l-4.6 4.6c-.8.8-2 .8-2.8 0-.8-.8-.8-2 0-2.8l8-8c.2-.2.4-.2.6-.4.6-.2 1.2-.2 1.6 0 .2 0 .4.2.6.4l8 8z" fill="#000"/>
  </g>
</svg>
