<svg width="230" height="264" viewBox="0 0 230 264" xmlns="http://www.w3.org/2000/svg"><g fill="none" fill-rule="evenodd"><path d="M86.922 66.36c0-18.05 14.494-32.68 32.374-32.68 17.88 0 32.373 14.63 32.373 32.68 0 18.047-14.495 32.677-32.374 32.677-17.88 0-32.374-14.63-32.374-32.678z" fill-opacity=".259" fill="#FBD334"/><path fill="#FFF" d="M81.526 101.76h12.14V63.637h-12.14M105.807 101.76h12.14V56.83h-12.14M130.087 101.76h12.14V49.34h-12.14"/><path fill="#FCD410" d="M93.666 101.76h12.14V69.083h-12.14M117.947 101.76h12.14V62.275h-12.14"/><path fill="#F4F3EF" d="M81.526 101.76h3.372V63.637h-3.372"/><path fill="#E8C42D" d="M93.666 101.76h3.373V69.083h-3.374"/><path fill="#F4F3EF" d="M105.807 101.76h3.372V56.83h-3.373"/><path fill="#E8C42D" d="M117.947 101.76h3.372V62.275h-3.373"/><path fill="#F4F3EF" d="M130.087 101.76h3.372V49.34h-3.373"/><path fill="#333" d="M84.755 92.91H73.433v-1.36h10.674l5.396-6.81h8.755l4.047 5.447h10.174l10.79-10.893h10.69l4.045-6.808h9.617v1.362h-8.852l-4.047 6.808H123.83L113.037 91.55H101.63L97.583 86.1H90.15"/><path fill="#FBD334" d="M120.645 53.424h2.697v-8.17h-2.697"/><path fill="#FBD334" d="M117.947 50.7h8.093V47.98h-8.093M92.992 56.828h2.698v-8.17h-2.698"/><path fill="#FBD334" d="M90.294 54.105h8.094v-2.723h-8.094M105.132 41.17h2.698V33h-2.698"/><path fill="#FBD334" d="M102.434 38.446h8.094v-2.723h-8.094"/><path fill="#333" d="M73.433 102.442h6.744v-1.362h-6.744M151.67 102.442h2.697v-1.362h-2.698M143.576 102.442h5.396v-1.362h-5.396M118.62 79.975h-1.348V57.51h-10.79V69.08h-1.35V56.147h13.49M118.62 102.442h-12.813v-1.362h11.465V90.868h1.35"/><path fill="#333" d="M130.76 102.442h-12.813v-1.362h11.465V84.06h1.35M130.76 75.89h-1.348V62.955h-11.465v-1.36h12.814M106.48 102.442H93.667v-1.362h11.466v-6.127h1.35M106.48 86.783h-1.348v-17.02H93.666v-1.36h12.815"/><path fill="#333" d="M94.34 102.442H80.853v-6.128h1.35v4.766h10.79V89.506h1.35M82.2 88.145h-1.348v-25.19h13.49v18.382h-1.35v-17.02h-10.79M142.902 102.442h-12.815v-1.362h11.466V77.252h1.35M142.902 69.082h-1.35V50.02h-10.79v12.254h-1.35V48.658h13.49"/><path d="M51.832 143.262h-2.66L48.636 145h-2.018l2.706-7.698h2.403L54.42 145h-2.064l-.524-1.738zm-.42-1.365l-.56-1.843-.338-1.213h-.024l-.315 1.203-.583 1.854h1.82zm8.48-2.31c.365.36.548.868.548 1.53V145h-1.983v-3.336c0-.396-.072-.678-.216-.846-.143-.167-.347-.25-.61-.25-.312 0-.565.11-.76.332-.194.222-.29.562-.29 1.02V145h-1.984v-5.832h1.773l.057 1.12c.187-.412.45-.72.793-.928.342-.206.743-.31 1.202-.31.614 0 1.104.18 1.47.538zm7.348 4.235l-.152 1.108c-.225.124-.49.187-.793.187-.84 0-1.34-.3-1.505-.898-.35.597-1.042.897-2.076.897-.583 0-1.03-.125-1.34-.374-.312-.248-.468-.61-.468-1.084 0-.5.177-.9.53-1.21.355-.306.936-.54 1.745-.704l1.32-.257v-.21c0-.265-.075-.475-.223-.63-.148-.156-.35-.234-.606-.234-.295 0-.536.07-.723.21-.186.14-.307.37-.36.688l-1.61-.466c.1-.568.38-1.01.84-1.324.458-.315 1.076-.473 1.854-.473.91 0 1.602.188 2.077.56.474.374.71.934.71 1.68v2.124c0 .303.14.455.42.455.15 0 .27-.017.363-.048zm-3.068-.216c.218-.15.327-.352.327-.6v-.502l-.946.222c-.25.062-.426.138-.53.227-.106.09-.158.216-.158.38 0 .162.05.287.15.372.102.086.242.13.42.13.273 0 .518-.077.736-.23zm5.226-.624c0 .265.038.45.116.56.078.11.218.163.42.163.187 0 .385-.035.595-.105l-.13 1.225c-.14.086-.322.156-.548.21-.225.054-.447.082-.664.082-.622 0-1.073-.146-1.353-.438-.28-.292-.42-.76-.42-1.406v-6.58h1.983v6.288zM74.273 145c-.218.622-.455 1.116-.71 1.48-.258.367-.56.63-.91.79-.35.158-.775.238-1.273.238-.66 0-1.19-.144-1.586-.432l.42-1.33c.124.117.262.197.414.24.152.042.348.064.59.064.24 0 .43-.04.57-.123.14-.08.253-.227.34-.437l.14-.362-.678-1.586-1.738-4.374h2.182l.898 3.324.28 1.237.315-1.284.898-3.278h1.983L74.273 145zm6.497-.327c-.194.133-.44.24-.74.32-.3.083-.6.124-.905.124-.692 0-1.22-.148-1.586-.444-.366-.295-.553-.77-.56-1.423v-2.67h-1.004v-1.412h1.003v-1.306l1.982-.55v1.856h1.75v1.41h-1.75v2.346c0 .52.257.78.77.78.32 0 .6-.084.84-.255l.198 1.223zm.367-6.41c-.182-.15-.274-.39-.274-.716 0-.335.092-.578.274-.73.183-.15.477-.227.88-.227.405 0 .7.076.882.228.18.15.273.394.273.73 0 .325-.092.564-.274.716-.184.152-.478.227-.882.227s-.698-.074-.88-.226zM83.01 145h-1.983v-5.832h1.982V145zm5.598-5.447c.443.334.72.77.828 1.306l-1.843.606c-.077-.67-.377-1.003-.898-1.003-.77 0-1.154.548-1.154 1.644 0 1.066.385 1.598 1.155 1.598.552 0 .875-.315.968-.944l1.785.572c-.086.53-.367.958-.846 1.29-.478.33-1.11.495-1.895.495-1.01 0-1.79-.265-2.333-.794-.544-.528-.816-1.275-.816-2.24 0-.955.27-1.7.81-2.233.54-.532 1.293-.8 2.257-.8.88 0 1.54.17 1.983.503zm.875 4.537l1.026-1.12c.334.553.91.83 1.726.83.272 0 .486-.038.64-.112.157-.074.234-.173.234-.298 0-.108-.08-.204-.24-.285-.158-.082-.432-.162-.82-.24-.872-.17-1.492-.404-1.86-.7-.37-.295-.555-.688-.555-1.177 0-.335.105-.65.315-.945.21-.296.526-.535.95-.718.424-.182.94-.274 1.546-.274.668 0 1.215.093 1.638.275.424.183.768.457 1.033.823l-1.027 1.003c-.186-.27-.408-.47-.665-.594-.256-.124-.563-.187-.92-.187-.28 0-.5.042-.654.128-.155.085-.233.19-.233.315 0 .116.08.215.24.297.16.082.437.16.834.24.856.147 1.472.367 1.85.658.376.292.565.69.565 1.196 0 .567-.237 1.028-.71 1.382-.476.354-1.164.53-2.066.53-1.338 0-2.287-.342-2.847-1.026zm15.42 1.027c-.436 0-.803-.047-1.102-.14-.3-.094-.63-.288-.997-.584-.264.234-.585.413-.962.537-.376.124-.794.187-1.253.187-.81 0-1.46-.183-1.954-.55-.493-.364-.744-.877-.752-1.538 0-.42.122-.82.363-1.197.24-.377.645-.67 1.213-.88-.31-.374-.52-.69-.63-.95-.11-.262-.163-.547-.163-.858 0-.335.087-.652.262-.95.175-.3.437-.543.787-.73.35-.187.782-.28 1.295-.28.74 0 1.308.17 1.71.513.4.342.6.778.6 1.307 0 .956-.557 1.66-1.668 2.11l.547.607.78.84c.203-.435.293-.94.27-1.516l1.318.035c0 .91-.25 1.673-.747 2.287.17.132.334.227.49.286.155.058.323.087.5.087.118 0 .208-.004.27-.01l-.175 1.387zm-4.363-6.433c-.124.128-.186.305-.186.53 0 .156.04.312.122.467.082.157.247.382.496.678.31-.218.517-.42.618-.607.1-.185.152-.395.152-.63 0-.2-.06-.356-.18-.465-.12-.11-.29-.164-.508-.164-.218 0-.39.066-.514.194zm1.377 4.893l-.677-.7c-.466-.482-.805-.836-1.014-1.06-.25.185-.418.358-.508.518-.09.16-.134.344-.134.554 0 .27.11.493.332.664.222.17.512.256.87.256.404 0 .78-.077 1.13-.233zm15.14 1.423h-1.773v-3.534l.058-2.368h-.023L113.416 145h-1.62l-1.902-5.902h-.023l.058 2.368V145h-1.785v-7.698h2.858l1.213 3.92.432 1.632h.023l.444-1.62 1.202-3.932h2.74V145zm6.555-2.344h-3.978c.063.365.197.633.403.804.206.17.48.257.822.257.287 0 .522-.054.705-.163.183-.11.305-.27.367-.48l1.61.515c-.163.496-.48.875-.95 1.136-.47.26-1.05.39-1.733.39-1.02 0-1.8-.264-2.34-.793-.54-.528-.81-1.275-.81-2.24 0-.963.264-1.71.793-2.238.53-.53 1.28-.794 2.25-.794.942 0 1.663.26 2.165.777.5.517.752 1.242.752 2.175 0 .265-.02.482-.058.654zm-3.99-1.074h2.194c-.094-.762-.45-1.143-1.074-1.143-.63 0-1.003.38-1.12 1.142zm10.568 2.24l-.15 1.108c-.227.124-.49.187-.794.187-.84 0-1.342-.3-1.505-.898-.35.597-1.04.897-2.075.897-.584 0-1.03-.125-1.342-.374-.31-.248-.466-.61-.466-1.084 0-.5.177-.9.53-1.21.354-.306.936-.54 1.744-.704l1.32-.257v-.21c0-.265-.075-.475-.222-.63-.148-.156-.35-.234-.607-.234-.294 0-.535.07-.722.21-.187.14-.307.37-.362.688l-1.61-.466c.102-.568.382-1.01.84-1.324.46-.315 1.078-.473 1.855-.473.91 0 1.603.188 2.077.56.475.374.712.934.712 1.68v2.124c0 .303.14.455.42.455.146 0 .267-.017.36-.048zm-3.067-.216c.217-.15.326-.352.326-.6v-.502l-.945.222c-.25.062-.426.138-.53.227-.106.09-.16.216-.16.38 0 .162.052.287.153.372.1.086.24.13.42.13.272 0 .517-.077.735-.23zm2.834.484l1.026-1.12c.335.553.91.83 1.727.83.272 0 .486-.038.64-.112.157-.074.235-.173.235-.298 0-.108-.08-.204-.24-.285-.16-.082-.433-.162-.822-.24-.87-.17-1.49-.404-1.86-.7-.37-.295-.554-.688-.554-1.177 0-.335.104-.65.314-.945.21-.296.526-.535.95-.718.424-.182.94-.274 1.546-.274.668 0 1.215.093 1.638.275.424.183.768.457 1.033.823l-1.026 1.003c-.186-.27-.408-.47-.665-.594-.257-.124-.564-.187-.922-.187-.28 0-.498.042-.653.128-.156.085-.233.19-.233.315 0 .116.08.215.24.297.158.082.436.16.833.24.855.147 1.47.367 1.848.658.378.292.566.69.566 1.196 0 .567-.238 1.028-.712 1.382-.475.354-1.163.53-2.065.53-1.337 0-2.286-.342-2.846-1.026zm11.874-4.922V145h-1.772l-.058-1.085c-.366.8-1.038 1.202-2.018 1.202-.622 0-1.11-.166-1.464-.496-.354-.33-.53-.85-.53-1.556v-3.896h1.982v3.394c0 .38.066.65.2.805.13.156.333.233.605.233.327 0 .587-.11.782-.332.194-.222.29-.558.29-1.01v-3.09h1.984zm5.075.012l-.21 1.68c-.078-.047-.183-.088-.315-.123s-.272-.053-.42-.053c-.373 0-.684.12-.933.356-.25.237-.373.577-.373 1.02V145h-1.983v-5.832h1.75l.082 1.26c.14-.444.36-.784.66-1.02.298-.238.67-.357 1.113-.357.264 0 .474.044.63.13zm5.75 3.476h-3.977c.062.365.196.633.402.804.206.17.48.257.822.257.288 0 .523-.054.706-.163.183-.11.305-.27.368-.48l1.61.515c-.164.496-.48.875-.95 1.136-.472.26-1.05.39-1.734.39-1.018 0-1.798-.264-2.338-.793-.54-.528-.81-1.275-.81-2.24 0-.963.264-1.71.792-2.238.53-.53 1.28-.794 2.252-.794.94 0 1.662.26 2.163.777.503.517.754 1.242.754 2.175 0 .265-.02.482-.06.654zm-3.99-1.074h2.194c-.094-.762-.452-1.143-1.074-1.143-.63 0-1.003.38-1.12 1.142zm13.607-1.994c.37.358.554.867.554 1.528V145h-1.983v-3.43c0-.668-.264-1.002-.793-1.002-.31 0-.56.112-.746.338-.187.225-.28.552-.28.98V145h-1.983v-3.43c0-.668-.264-1.002-.792-1.002-.296 0-.54.112-.735.338-.195.225-.292.564-.292 1.015V145h-1.982v-5.832h1.773l.06 1.12c.186-.405.447-.712.78-.922.335-.21.728-.315 1.18-.315.442 0 .825.102 1.148.305.323.202.554.493.694.874.187-.382.453-.673.8-.875.345-.203.732-.304 1.16-.304.59 0 1.07.18 1.44.538zm6.98 3.068h-3.976c.062.365.196.633.402.804.206.17.48.257.822.257.288 0 .523-.054.706-.163.183-.11.305-.27.367-.48l1.61.515c-.163.496-.48.875-.95 1.136-.47.26-1.048.39-1.733.39-1.018 0-1.798-.264-2.338-.793-.54-.528-.81-1.275-.81-2.24 0-.963.263-1.71.792-2.238.53-.53 1.28-.794 2.25-.794.942 0 1.664.26 2.165.777.5.517.75 1.242.75 2.175 0 .265-.018.482-.057.654zm-3.988-1.074h2.193c-.094-.762-.45-1.143-1.073-1.143-.63 0-1.003.38-1.12 1.142zm9.868-1.994c.365.358.548.867.548 1.528V145h-1.983v-3.336c0-.396-.072-.678-.216-.846-.143-.167-.347-.25-.61-.25-.312 0-.565.11-.76.332-.194.222-.29.562-.29 1.02V145h-1.984v-5.832h1.773l.058 1.12c.186-.412.45-.72.793-.928.343-.206.743-.31 1.202-.31.614 0 1.104.18 1.47.538zm5.552 5.085c-.195.133-.442.24-.74.32-.3.083-.602.124-.905.124-.693 0-1.222-.148-1.587-.444-.366-.295-.552-.77-.56-1.423v-2.67h-1.003v-1.412h1.003v-1.306l1.983-.55v1.856h1.75v1.41h-1.75v2.346c0 .52.256.78.77.78.32 0 .598-.084.84-.255l.198 1.223zM49.64 158.57v.846h-2.4V166h-1.006v-6.584h-2.41v-.845h5.816zm.912 7.43v-7.636h.923v3.09c.225-.24.474-.43.747-.573.273-.143.587-.214.943-.214.287 0 .54.047.76.142.22.095.402.23.55.405.146.174.258.384.334.63.075.245.113.516.113.813V166H54v-3.344c0-.397-.09-.706-.272-.925-.182-.218-.46-.328-.832-.328-.273 0-.528.065-.765.197-.236.13-.454.308-.655.533V166h-.923zm7.844-5.334c.314 0 .605.052.87.158.267.105.497.257.69.456.194.2.345.444.454.736.11.292.163.625.163.998 0 .145-.015.242-.046.29-.032.05-.09.073-.177.073h-3.494c.007.332.052.62.135.866.084.245.198.45.343.614.145.164.318.287.52.368.2.08.424.122.672.122.232 0 .432-.027.6-.08.167-.054.31-.112.432-.174.12-.062.222-.12.303-.174.082-.054.152-.08.21-.08.076 0 .135.028.177.087l.26.337c-.115.138-.252.258-.41.36-.16.102-.33.186-.51.252-.183.065-.37.114-.564.147-.193.033-.385.05-.575.05-.363 0-.698-.062-1.003-.184-.306-.124-.57-.304-.794-.54-.22-.237-.395-.53-.52-.88-.124-.348-.186-.75-.186-1.202 0-.366.056-.708.168-1.026.113-.318.274-.594.485-.827.21-.234.468-.417.772-.55.304-.133.646-.2 1.026-.2zm.02.68c-.445 0-.796.128-1.052.385-.255.258-.414.615-.477 1.07h2.857c0-.213-.03-.41-.088-.587-.06-.178-.146-.332-.26-.46-.114-.13-.253-.23-.417-.302-.165-.07-.353-.105-.563-.105zm8.917.336c-.028.038-.055.067-.083.088-.027.02-.067.03-.12.03-.05 0-.107-.02-.168-.064-.06-.043-.137-.09-.23-.142-.094-.052-.207-.1-.34-.143-.133-.042-.296-.064-.49-.064-.255 0-.482.046-.68.138-.196.09-.36.223-.494.396-.133.173-.233.382-.3.627-.068.246-.102.52-.102.825 0 .318.037.6.11.847.072.246.174.454.305.62.132.17.292.297.48.385.19.088.4.132.636.132.224 0 .41-.027.554-.08.146-.054.266-.113.363-.18.097-.065.176-.124.24-.178.06-.054.123-.08.185-.08.08 0 .14.028.177.087l.26.337c-.23.28-.514.485-.857.614-.342.13-.703.195-1.083.195-.328 0-.633-.06-.915-.182-.282-.12-.526-.295-.734-.525-.207-.23-.37-.512-.49-.848-.12-.335-.178-.717-.178-1.145 0-.39.054-.752.163-1.084.11-.332.27-.618.478-.858.21-.24.467-.427.775-.562.308-.135.66-.202 1.057-.202.367 0 .692.06.975.18.283.118.534.286.752.504l-.244.332zm3.385-1.016c.384 0 .73.064 1.04.19.31.13.572.31.788.546.216.235.382.52.497.853.116.333.174.705.174 1.117 0 .414-.058.788-.174 1.12-.115.33-.28.615-.497.85-.216.235-.48.415-.788.54-.31.128-.656.19-1.04.19-.383 0-.73-.062-1.04-.19-.308-.125-.572-.305-.79-.54-.217-.235-.385-.52-.503-.85-.117-.332-.176-.706-.176-1.12 0-.412.058-.784.175-1.117.118-.334.286-.618.503-.853.218-.235.482-.417.79-.545.31-.127.657-.19 1.04-.19zm0 4.686c.52 0 .906-.174 1.16-.52.257-.348.385-.833.385-1.455 0-.626-.128-1.113-.384-1.462-.256-.35-.643-.524-1.162-.524-.262 0-.49.046-.684.136-.194.09-.355.22-.485.39-.13.168-.227.377-.29.624-.065.247-.097.526-.097.837 0 .31.032.59.096.835.063.245.16.45.29.62.13.167.29.295.484.385.194.09.422.135.684.135zm3.64.648v-5.25h.528c.1 0 .17.018.208.056.038.038.063.103.077.197l.064.82c.18-.368.4-.654.666-.86.264-.205.574-.308.93-.308.145 0 .277.017.394.05.118.032.227.078.327.137l-.118.69c-.025.086-.078.13-.16.13-.05 0-.124-.017-.224-.05s-.24-.05-.42-.05c-.32 0-.59.094-.806.28-.216.187-.397.458-.542.814V166h-.923zm4.178 0v-5.25h.55c.13 0 .214.063.248.19l.073.57c.228-.252.483-.456.764-.61.283-.157.61-.234.978-.234.287 0 .54.047.76.142.22.095.403.23.55.405.146.174.258.384.334.63.076.245.114.516.114.813V166h-.923v-3.344c0-.397-.09-.706-.272-.925-.18-.218-.458-.328-.83-.328-.274 0-.53.065-.766.197-.236.13-.455.308-.656.533V166h-.922zm7.843-5.334c.314 0 .604.052.87.158.266.105.496.257.69.456.193.2.344.444.453.736.11.292.163.625.163.998 0 .145-.015.242-.046.29-.03.05-.09.073-.177.073H84.84c.006.332.05.62.134.866.083.245.197.45.342.614.146.164.318.287.52.368.2.08.424.122.673.122.23 0 .43-.027.597-.08.168-.054.312-.112.433-.174.12-.062.222-.12.304-.174.08-.054.15-.08.21-.08.076 0 .134.028.176.087l.26.337c-.115.138-.252.258-.41.36-.16.102-.33.186-.51.252-.183.065-.37.114-.564.147-.193.033-.385.05-.575.05-.362 0-.696-.062-1.002-.184-.306-.124-.57-.304-.793-.54-.223-.237-.397-.53-.52-.88-.126-.348-.188-.75-.188-1.202 0-.366.056-.708.17-1.026.11-.318.272-.594.483-.827.21-.234.47-.417.773-.55.304-.133.646-.2 1.026-.2zm.02.68c-.446 0-.797.128-1.052.385-.256.258-.415.615-.477 1.07h2.857c0-.213-.03-.41-.088-.587-.06-.178-.146-.332-.26-.46-.114-.13-.254-.23-.418-.302-.164-.07-.35-.105-.562-.105zM89.733 166v-5.25h.53c.1 0 .168.018.206.056.037.038.063.103.077.197l.062.82c.18-.368.4-.654.665-.86.265-.205.575-.308.93-.308.146 0 .277.017.395.05.117.032.226.078.327.137l-.12.69c-.024.086-.077.13-.16.13-.05 0-.123-.017-.223-.05s-.24-.05-.42-.05c-.322 0-.59.094-.806.28-.216.187-.397.458-.542.814V166h-.923zm7.185-4.386c-.04.076-.105.114-.192.114-.05 0-.11-.02-.176-.057-.066-.037-.146-.08-.24-.126-.096-.046-.21-.09-.34-.13-.132-.04-.287-.06-.467-.06-.156 0-.296.02-.42.06-.124.04-.23.095-.32.164-.087.07-.154.15-.2.24-.048.093-.07.192-.07.3 0 .134.038.246.116.336.076.09.18.168.307.233.128.066.273.124.436.174.162.05.33.105.5.162.17.057.338.12.5.19.163.068.308.155.436.258.126.104.23.23.307.38.078.152.117.332.117.543 0 .242-.044.466-.13.67-.086.207-.214.385-.384.535-.17.15-.376.27-.622.355-.245.087-.528.13-.85.13-.366 0-.698-.06-.995-.18-.297-.118-.55-.27-.757-.458l.218-.352c.027-.045.06-.08.098-.104.038-.025.088-.037.15-.037.063 0 .128.024.198.072.07.05.152.102.25.16.1.06.22.113.36.162.14.048.314.072.525.072.18 0 .337-.024.472-.07.134-.047.247-.11.337-.19.09-.08.156-.17.2-.275.042-.103.064-.214.064-.33 0-.146-.04-.267-.117-.362-.076-.095-.18-.176-.307-.243-.128-.068-.274-.126-.438-.177-.164-.05-.332-.102-.503-.158-.17-.055-.34-.118-.503-.19-.165-.07-.31-.16-.44-.266-.127-.108-.23-.24-.307-.397-.078-.158-.117-.35-.117-.573 0-.2.04-.393.124-.578.083-.185.204-.348.363-.488.16-.14.355-.25.586-.334.23-.083.495-.124.792-.124.346 0 .656.054.93.163.276.108.513.257.714.447l-.208.337zm3.085 4.47c-.415 0-.734-.117-.957-.348-.223-.232-.334-.565-.334-1v-3.215h-.633c-.056 0-.103-.015-.14-.048-.04-.033-.058-.084-.058-.153v-.37l.86-.108.214-1.623c.006-.053.03-.095.067-.128.038-.033.086-.05.145-.05h.467v1.81h1.503v.67h-1.503v3.15c0 .222.053.386.16.493.107.108.246.16.415.16.097 0 .18-.012.25-.038.072-.026.134-.054.185-.085.052-.03.096-.06.133-.086.036-.026.068-.04.096-.04.048 0 .09.03.13.09l.27.44c-.16.15-.352.265-.577.35-.224.085-.456.127-.694.127zm4.4-5.418c.385 0 .73.064 1.04.19.31.13.572.31.788.546.217.235.383.52.5.853.115.333.173.705.173 1.117 0 .414-.058.788-.174 1.12-.117.33-.283.615-.5.85-.215.235-.477.415-.787.54-.31.128-.655.19-1.04.19-.383 0-.73-.062-1.04-.19-.308-.125-.57-.305-.79-.54-.217-.235-.384-.52-.502-.85-.116-.332-.175-.706-.175-1.12 0-.412.06-.784.176-1.117.12-.334.286-.618.504-.853.218-.235.48-.417.79-.545.31-.127.656-.19 1.04-.19zm0 4.686c.52 0 .906-.174 1.162-.52.256-.348.384-.833.384-1.455 0-.626-.13-1.113-.385-1.462-.256-.35-.643-.524-1.16-.524-.264 0-.492.046-.685.136-.194.09-.356.22-.485.39-.13.168-.226.377-.29.624-.064.247-.096.526-.096.837 0 .31.03.59.095.835.064.245.16.45.29.62.13.167.29.295.485.385.193.09.42.135.684.135zm3.64.648v-5.25h.55c.13 0 .214.063.248.19l.074.57c.228-.252.483-.456.765-.61.28-.157.606-.234.976-.234.287 0 .54.047.76.142.22.095.402.23.55.405.146.174.257.384.333.63.075.245.113.516.113.813V166h-.923v-3.344c0-.397-.09-.706-.272-.925-.18-.218-.46-.328-.832-.328-.273 0-.528.065-.764.197-.237.13-.456.308-.656.533V166h-.923zm7.843-5.334c.315 0 .605.052.87.158.267.105.497.257.69.456.194.2.346.444.454.736.11.292.164.625.164.998 0 .145-.016.242-.047.29-.03.05-.09.073-.176.073h-3.493c.007.332.052.62.135.866.083.245.197.45.342.614.145.164.318.287.518.368.2.08.425.122.674.122.232 0 .43-.027.6-.08.166-.054.31-.112.432-.174.12-.062.222-.12.303-.174.082-.054.152-.08.21-.08.077 0 .136.028.177.087l.26.337c-.115.138-.25.258-.41.36-.16.102-.33.186-.51.252-.182.065-.37.114-.563.147-.194.033-.386.05-.576.05-.363 0-.697-.062-1.003-.184-.306-.124-.57-.304-.793-.54-.223-.237-.397-.53-.52-.88-.125-.348-.188-.75-.188-1.202 0-.366.057-.708.17-1.026.11-.318.273-.594.484-.827.21-.234.468-.417.772-.55.304-.133.646-.2 1.026-.2zm.02.68c-.445 0-.795.128-1.05.385-.257.258-.416.615-.478 1.07h2.856c0-.213-.03-.41-.088-.587-.06-.178-.145-.332-.26-.46-.113-.13-.252-.23-.416-.302-.165-.07-.352-.105-.563-.105zm7.46-.68c.385 0 .73.064 1.04.19.31.13.572.31.788.546.216.235.382.52.498.853.116.333.174.705.174 1.117 0 .414-.058.788-.174 1.12-.116.33-.282.615-.498.85-.216.235-.478.415-.788.54-.31.128-.655.19-1.04.19-.383 0-.73-.062-1.038-.19-.31-.125-.573-.305-.79-.54-.22-.235-.386-.52-.504-.85-.117-.332-.176-.706-.176-1.12 0-.412.06-.784.176-1.117.118-.334.285-.618.503-.853.218-.235.48-.417.79-.545.31-.127.656-.19 1.04-.19zm0 4.686c.52 0 .906-.174 1.162-.52.256-.348.384-.833.384-1.455 0-.626-.128-1.113-.384-1.462-.256-.35-.643-.524-1.16-.524-.264 0-.492.046-.685.136-.194.09-.355.22-.485.39-.13.168-.226.377-.29.624-.064.247-.096.526-.096.837 0 .31.032.59.096.835s.16.45.29.62c.13.167.29.295.485.385.193.09.42.135.684.135zm3.847.648v-4.463l-.58-.068c-.073-.018-.132-.045-.18-.08-.046-.037-.07-.09-.07-.16v-.378h.83v-.508c0-.3.043-.567.127-.8.085-.234.206-.43.363-.592.158-.16.347-.282.568-.365.222-.083.47-.125.748-.125.235 0 .452.035.653.104l-.02.462c-.003.07-.033.11-.088.124-.055.014-.133.02-.233.02h-.162c-.16 0-.303.02-.433.063-.13.04-.24.11-.334.202-.093.093-.164.216-.215.368-.05.152-.075.34-.075.565v.482h1.52v.67h-1.49V166h-.927zm6.828 1.55c-.03.07-.07.124-.116.166-.046.04-.118.062-.215.062h-.685l.96-2.084-2.168-4.945h.798c.08 0 .142.018.187.058.045.04.078.084.098.132l1.405 3.308c.03.076.058.152.08.228.023.076.043.154.06.233l.073-.234c.024-.076.052-.154.083-.233l1.364-3.303c.02-.055.056-.1.106-.137.05-.036.105-.054.164-.054h.736l-2.93 6.8zm5.895-6.884c.384 0 .73.064 1.04.19.31.13.57.31.787.546.216.235.382.52.498.853.116.333.174.705.174 1.117 0 .414-.058.788-.174 1.12-.116.33-.282.615-.498.85-.216.235-.478.415-.788.54-.31.128-.655.19-1.04.19-.383 0-.73-.062-1.038-.19-.31-.125-.573-.305-.79-.54-.22-.235-.386-.52-.504-.85-.117-.332-.176-.706-.176-1.12 0-.412.06-.784.176-1.117.118-.334.285-.618.503-.853.218-.235.48-.417.79-.545.31-.127.656-.19 1.04-.19zm0 4.686c.518 0 .905-.174 1.16-.52.257-.348.385-.833.385-1.455 0-.626-.128-1.113-.384-1.462-.256-.35-.643-.524-1.16-.524-.264 0-.492.046-.685.136-.193.09-.354.22-.484.39-.13.168-.226.377-.29.624-.064.247-.096.526-.096.837 0 .31.032.59.096.835s.16.45.29.62c.13.167.29.295.485.385.194.09.422.135.685.135zm4.438-4.603v3.347c0 .398.09.705.274.923.183.218.46.327.83.327.27 0 .523-.064.762-.192.237-.128.457-.306.657-.534v-3.87h.923V166h-.55c-.13 0-.214-.064-.248-.192l-.073-.565c-.23.252-.485.455-.768.61-.284.153-.61.23-.975.23-.287 0-.54-.048-.76-.143-.22-.095-.403-.23-.55-.4-.15-.174-.26-.383-.336-.63-.073-.244-.11-.515-.11-.813v-3.348h.923zm4.966 5.25v-5.25h.528c.1 0 .17.018.207.056.038.038.064.103.078.197l.062.82c.18-.368.402-.654.666-.86.265-.205.576-.308.932-.308.145 0 .276.017.394.05.117.032.226.078.326.137l-.12.69c-.023.086-.077.13-.16.13-.048 0-.122-.017-.223-.05-.1-.033-.24-.05-.42-.05-.322 0-.59.094-.807.28-.216.187-.396.458-.54.814V166h-.924zm9.874 0c-.13 0-.214-.064-.25-.192l-.08-.637c-.226.274-.483.492-.77.656-.29.164-.62.247-.994.247-.3 0-.574-.058-.82-.174-.244-.117-.454-.287-.626-.512-.173-.224-.306-.504-.4-.84-.093-.335-.14-.72-.14-1.156 0-.387.052-.747.156-1.08.104-.334.253-.623.448-.87.196-.244.433-.437.713-.577.28-.14.6-.21.955-.21.322 0 .596.055.824.164.227.107.43.26.61.457v-2.913h.924V166h-.55zm-1.788-.674c.3 0 .564-.07.79-.207.227-.14.435-.335.625-.587v-2.54c-.168-.228-.354-.388-.556-.48-.202-.09-.426-.137-.672-.137-.49 0-.867.174-1.13.523-.262.35-.394.846-.394 1.492 0 .343.03.635.088.88.06.243.146.443.26.6.114.158.254.273.42.345.165.073.356.11.57.11zm4.914-4.577V166h-.922v-5.25h.922zm.208-1.65c0 .09-.02.174-.055.252-.036.077-.084.146-.145.207-.06.06-.13.107-.21.14-.08.036-.164.053-.254.053s-.174-.017-.25-.052c-.08-.033-.148-.08-.21-.14-.06-.062-.107-.13-.14-.208-.036-.078-.053-.162-.053-.252s.018-.175.053-.257c.034-.08.082-.152.142-.212.06-.06.13-.107.208-.142.077-.034.16-.05.25-.05s.176.016.255.05c.08.035.15.082.21.143.06.06.11.132.145.213.036.082.055.167.055.257zm3.188 1.56c.228 0 .44.026.64.076s.38.123.542.22h1.425v.342c0 .114-.072.187-.217.218l-.597.083c.117.223.176.474.176.75 0 .256-.05.49-.148.698-.1.21-.235.388-.41.536-.174.15-.38.263-.622.342-.24.08-.503.12-.79.12-.246 0-.477-.03-.695-.088-.11.07-.193.143-.25.222-.057.08-.086.158-.086.234 0 .124.05.218.15.282.1.064.234.11.4.138.166.027.354.045.565.05.21.008.425.02.644.035.22.015.435.04.646.08.21.038.4.1.565.186.165.087.3.206.4.358.1.152.15.35.15.59 0 .225-.057.443-.17.654-.112.21-.273.398-.484.562-.21.165-.467.296-.77.394-.306.1-.65.148-1.033.148-.384 0-.72-.038-1.008-.114-.29-.076-.53-.178-.72-.306-.19-.128-.332-.275-.427-.443-.095-.17-.143-.344-.143-.527 0-.26.082-.48.247-.66.164-.183.39-.327.676-.434-.148-.07-.267-.163-.355-.278-.088-.116-.132-.27-.132-.464 0-.076.014-.155.04-.236.03-.08.07-.162.128-.24.057-.08.127-.157.21-.23.083-.072.18-.136.29-.19-.26-.146-.462-.34-.61-.58-.145-.24-.22-.52-.22-.842 0-.255.05-.488.15-.697.097-.21.235-.387.41-.534.177-.148.387-.26.63-.34.245-.08.51-.12.802-.12zm1.638 5.625c0-.13-.036-.237-.11-.316-.072-.08-.17-.142-.294-.185-.125-.043-.268-.075-.43-.096-.163-.022-.334-.036-.514-.045-.18-.01-.363-.018-.55-.03-.186-.01-.364-.028-.533-.056-.197.093-.357.207-.48.342-.123.134-.184.295-.184.482 0 .117.03.227.09.33.06.1.153.19.277.263.125.074.28.133.47.176.188.044.41.065.665.065.25 0 .472-.022.67-.067.196-.044.363-.108.5-.19.136-.084.24-.182.313-.296.073-.114.11-.24.11-.38zm-1.638-2.85c.186 0 .35-.027.495-.08.144-.05.264-.123.36-.217.098-.093.17-.204.22-.334.047-.13.07-.272.07-.428 0-.32-.096-.577-.29-.767-.197-.19-.48-.286-.854-.286-.37 0-.653.095-.848.285-.195.19-.293.445-.293.766 0 .156.025.298.075.428.05.13.124.24.22.334.098.094.217.166.358.218.142.052.305.078.488.078zm4.557-2.686V166h-.923v-5.25h.923zm.207-1.65c0 .09-.018.174-.055.252-.036.077-.084.146-.145.207-.06.06-.13.107-.21.14-.08.036-.164.053-.254.053s-.173-.017-.25-.052c-.08-.033-.148-.08-.208-.14-.06-.062-.108-.13-.143-.208-.035-.078-.052-.162-.052-.252s.017-.175.052-.257c.035-.08.082-.152.143-.212.06-.06.13-.107.207-.142.078-.034.16-.05.25-.05s.176.016.255.05c.08.035.15.082.21.143.06.06.11.132.145.213.037.082.055.167.055.257zm3.012 6.983c-.415 0-.734-.116-.957-.347-.223-.232-.334-.565-.334-1v-3.215h-.63c-.057 0-.103-.015-.14-.048-.04-.033-.058-.084-.058-.153v-.37l.86-.108.213-1.623c.007-.053.03-.095.067-.128.038-.033.086-.05.145-.05h.467v1.81h1.503v.67h-1.503v3.15c0 .222.053.386.16.493.108.108.246.16.415.16.096 0 .18-.012.25-.038s.133-.054.185-.085c.05-.03.096-.06.132-.086.036-.026.068-.04.096-.04.048 0 .09.03.13.09l.27.44c-.16.15-.352.265-.577.35-.224.085-.456.127-.694.127zm6.132-.083h-.41c-.09 0-.162-.014-.217-.04-.055-.03-.09-.088-.11-.178l-.102-.487c-.14.124-.273.236-.405.334-.13.098-.27.18-.414.248-.146.068-.3.12-.464.153-.165.036-.347.053-.547.053-.204 0-.395-.03-.573-.086-.178-.057-.333-.142-.464-.256-.13-.113-.236-.258-.314-.432-.077-.175-.116-.38-.116-.62 0-.207.057-.406.17-.598.115-.192.3-.362.553-.51.255-.15.587-.27 1-.366.41-.095.913-.15 1.507-.164v-.41c0-.407-.087-.715-.262-.925-.174-.21-.432-.313-.775-.313-.224 0-.413.028-.567.085-.154.057-.287.12-.4.192-.112.07-.208.134-.29.19-.08.058-.16.086-.24.086-.063 0-.117-.016-.164-.05-.048-.032-.085-.072-.112-.12l-.166-.296c.29-.28.603-.49.938-.627.335-.14.707-.208 1.115-.208.293 0 .554.05.782.145.228.097.42.232.576.405.155.173.273.382.352.627.08.245.12.515.12.81V166zm-2.395-.565c.162 0 .31-.016.445-.05.135-.032.262-.08.38-.14.12-.06.235-.133.343-.22.11-.086.216-.184.32-.295v-1.094c-.426.014-.787.048-1.084.1-.297.055-.54.125-.726.21-.187.088-.322.19-.407.307-.084.117-.126.25-.126.394 0 .138.023.257.067.358.046.1.107.182.183.246.076.065.166.112.27.14.103.03.215.045.336.045zm4.82-7.07V166h-.922v-7.636h.923zM87.77 172.748V178h-.922v-5.25h.922zm.208-1.65c0 .09-.018.174-.055.252-.035.077-.083.146-.144.207-.06.06-.13.107-.21.14-.08.036-.164.053-.254.053s-.173-.017-.25-.052c-.08-.033-.148-.08-.21-.14-.06-.062-.107-.13-.14-.208-.036-.078-.053-.162-.053-.252s.016-.175.05-.257c.035-.08.083-.152.143-.212.06-.06.13-.107.208-.142.08-.034.162-.05.252-.05s.175.016.254.05c.08.035.15.082.21.143.06.06.11.132.145.213.038.082.056.167.056.257zm1.42 6.9v-5.25h.55c.13 0 .214.063.25.19l.07.57c.23-.252.484-.456.766-.61.28-.157.607-.234.977-.234.286 0 .54.047.758.142.22.095.403.23.55.405.147.174.258.384.334.63.076.245.114.516.114.813V178h-.922v-3.344c0-.397-.09-.706-.273-.925-.18-.218-.457-.328-.83-.328-.274 0-.53.065-.765.197-.237.13-.456.308-.656.533V178h-.924zm7.356.083c-.414 0-.733-.116-.956-.347-.223-.232-.335-.565-.335-1v-3.215h-.63c-.056 0-.103-.015-.14-.048-.04-.033-.058-.084-.058-.153v-.37l.86-.108.213-1.623c.007-.053.03-.095.068-.128.038-.033.086-.05.145-.05h.466v1.81h1.504v.67h-1.504v3.15c0 .222.054.386.16.493.108.108.246.16.416.16.096 0 .18-.012.25-.038.072-.026.133-.054.185-.085.052-.03.096-.06.132-.086.037-.026.07-.04.096-.04.05 0 .092.03.13.09l.27.44c-.16.15-.35.265-.576.35-.225.085-.456.127-.695.127zm4.355-5.417c.314 0 .605.052.87.158.267.105.497.257.69.456.194.2.345.444.454.736.11.292.164.625.164.998 0 .145-.015.242-.047.29-.03.05-.09.073-.176.073h-3.493c.007.332.052.62.135.866.083.245.197.45.342.614.145.164.318.287.52.368.2.08.424.122.672.122.232 0 .432-.027.6-.08.167-.054.31-.112.432-.174.12-.062.222-.12.303-.174.083-.054.153-.08.21-.08.077 0 .136.028.178.087l.26.337c-.115.138-.252.258-.41.36-.16.102-.33.186-.51.252-.183.065-.37.114-.564.147-.193.033-.385.05-.575.05-.364 0-.7-.062-1.004-.184-.306-.124-.57-.304-.794-.54-.222-.237-.396-.53-.52-.88-.125-.348-.187-.75-.187-1.202 0-.366.056-.708.168-1.026.113-.318.274-.594.485-.827.21-.234.468-.417.772-.55.305-.133.647-.2 1.027-.2zm.02.68c-.445 0-.796.128-1.052.385-.255.258-.414.615-.477 1.07h2.857c0-.213-.03-.41-.088-.587-.06-.178-.146-.332-.26-.46-.114-.13-.253-.23-.417-.302-.164-.07-.352-.105-.562-.105zm4.36-2.982V178h-.922v-7.636h.922zm2.655 0V178h-.923v-7.636h.922zm2.654 2.385V178h-.923v-5.25h.923zm.207-1.65c0 .09-.018.174-.054.252-.038.077-.086.146-.146.207-.06.06-.13.107-.21.14-.08.036-.165.053-.254.053-.09 0-.174-.017-.252-.052-.078-.033-.147-.08-.207-.14-.06-.062-.107-.13-.142-.208-.034-.078-.052-.162-.052-.252s.018-.175.052-.257c.035-.08.082-.152.143-.212.06-.06.13-.107.208-.142.078-.034.162-.05.252-.05s.174.016.254.05c.08.035.15.082.21.143.06.06.108.132.145.213.035.082.053.167.053.257zm3.188 1.56c.23 0 .443.026.642.076.198.05.38.123.54.22h1.427v.342c0 .114-.074.187-.22.218l-.595.083c.117.223.176.474.176.75 0 .256-.048.49-.147.698-.098.21-.235.388-.41.536-.174.15-.38.263-.62.342-.24.08-.505.12-.792.12-.244 0-.476-.03-.693-.088-.11.07-.195.143-.252.222-.057.08-.085.158-.085.234 0 .124.05.218.15.282.1.064.233.11.4.138.165.027.353.045.564.05.21.008.426.02.646.035.22.015.434.04.645.08.21.038.4.1.565.186.166.087.3.206.4.358.1.152.15.35.15.59 0 .225-.057.443-.17.654-.11.21-.273.398-.484.562-.21.165-.468.296-.772.394-.304.1-.648.148-1.032.148-.383 0-.72-.038-1.008-.114-.288-.076-.528-.178-.718-.306-.19-.128-.333-.275-.428-.443-.095-.17-.142-.344-.142-.527 0-.26.082-.48.246-.66.164-.183.39-.327.677-.434-.15-.07-.268-.163-.356-.278-.09-.116-.133-.27-.133-.464 0-.076.015-.155.043-.236.027-.08.07-.162.127-.24.057-.08.127-.157.21-.23.083-.072.18-.136.29-.19-.26-.146-.462-.34-.61-.58-.146-.24-.22-.52-.22-.842 0-.255.05-.488.148-.697.1-.21.236-.387.412-.534.177-.148.387-.26.63-.34.244-.08.51-.12.8-.12zm1.64 5.625c0-.13-.037-.237-.11-.316-.072-.08-.17-.142-.295-.185-.124-.043-.268-.075-.43-.096-.163-.022-.334-.036-.513-.045-.18-.01-.363-.018-.55-.03-.187-.01-.365-.028-.534-.056-.197.093-.357.207-.48.342-.122.134-.183.295-.183.482 0 .117.03.227.09.33.06.1.153.19.278.263.124.074.28.133.47.176.187.044.41.065.665.065.25 0 .472-.022.67-.067.196-.044.362-.108.5-.19.135-.084.24-.182.313-.296.073-.114.11-.24.11-.38zm-1.64-2.85c.188 0 .353-.027.496-.08.144-.05.264-.123.36-.217.097-.093.17-.204.218-.334.05-.13.073-.272.073-.428 0-.32-.098-.577-.293-.767-.195-.19-.48-.286-.853-.286-.37 0-.65.095-.846.285-.196.19-.293.445-.293.766 0 .156.026.298.076.428s.124.24.22.334c.097.094.216.166.358.218.142.052.304.078.487.078zm5.61-2.77c.315 0 .605.053.87.16.267.104.497.256.69.455.194.2.345.444.454.736.11.292.164.625.164.998 0 .145-.016.242-.047.29-.03.05-.09.073-.175.073h-3.494c.008.332.053.62.136.866.082.245.196.45.342.614.145.164.318.287.518.368.2.08.425.122.674.122.232 0 .43-.027.6-.08.166-.054.31-.112.432-.174.12-.062.222-.12.303-.174.08-.054.15-.08.21-.08.076 0 .135.028.176.087l.26.337c-.114.138-.25.258-.41.36-.158.102-.328.186-.51.252-.18.065-.37.114-.562.147-.194.033-.386.05-.576.05-.363 0-.697-.062-1.003-.184-.307-.124-.57-.304-.794-.54-.223-.237-.397-.53-.52-.88-.125-.348-.188-.75-.188-1.202 0-.366.056-.708.17-1.026.11-.318.273-.594.484-.827.21-.234.468-.417.772-.55.304-.133.646-.2 1.026-.2zm.02.68c-.445 0-.796.13-1.05.386-.257.258-.416.615-.478 1.07h2.856c0-.213-.03-.41-.088-.587-.06-.178-.145-.332-.26-.46-.113-.13-.252-.23-.416-.302-.165-.07-.352-.105-.563-.105zm3.334 4.655v-5.25h.55c.13 0 .214.063.25.19l.07.57c.23-.252.484-.456.766-.61.282-.157.607-.234.977-.234.287 0 .54.047.76.142.22.095.402.23.55.405.146.174.257.384.333.63.077.245.115.516.115.813V178h-.923v-3.344c0-.397-.09-.706-.272-.925-.182-.218-.46-.328-.832-.328-.273 0-.528.065-.765.197-.237.13-.455.308-.656.533V178h-.923zm9.347-4.318c-.026.038-.054.067-.082.088-.027.02-.067.03-.12.03-.05 0-.107-.02-.167-.064-.06-.043-.137-.09-.23-.142-.093-.052-.207-.1-.34-.143-.133-.042-.296-.064-.49-.064-.255 0-.482.046-.68.138-.196.09-.36.223-.494.396-.133.173-.233.382-.3.627-.068.246-.102.52-.102.825 0 .318.037.6.11.847.072.246.174.454.305.62.13.17.29.297.48.385.187.088.4.132.634.132.224 0 .41-.027.554-.08.146-.054.267-.113.363-.18.098-.065.178-.124.24-.178.062-.054.124-.08.186-.08.08 0 .14.028.177.087l.26.337c-.23.28-.514.485-.857.614-.342.13-.703.195-1.083.195-.328 0-.633-.06-.915-.182-.282-.12-.526-.295-.733-.525-.208-.23-.37-.512-.49-.848-.12-.335-.18-.717-.18-1.145 0-.39.055-.752.164-1.084.108-.332.267-.618.476-.858.21-.24.467-.427.775-.562.31-.135.66-.202 1.06-.202.365 0 .69.06.973.18.284.118.534.286.752.504l-.244.332zm3.34-1.016c.314 0 .604.052.87.158.267.105.497.257.69.456.194.2.345.444.454.736.11.292.163.625.163.998 0 .145-.016.242-.047.29-.03.05-.09.073-.176.073H134.3c.007.332.052.62.135.866.083.245.197.45.342.614.145.164.318.287.518.368.2.08.425.122.674.122.23 0 .43-.027.598-.08.168-.054.312-.112.433-.174.122-.062.223-.12.304-.174.08-.054.15-.08.21-.08.076 0 .135.028.176.087l.26.337c-.114.138-.25.258-.41.36-.16.102-.33.186-.51.252-.182.065-.37.114-.563.147-.194.033-.385.05-.575.05-.363 0-.698-.062-1.004-.184-.305-.124-.57-.304-.793-.54-.223-.237-.396-.53-.52-.88-.125-.348-.187-.75-.187-1.202 0-.366.056-.708.168-1.026.112-.318.274-.594.485-.827.212-.234.47-.417.773-.55.304-.133.647-.2 1.027-.2zm.02.68c-.445 0-.796.128-1.052.385-.256.258-.415.615-.477 1.07h2.858c0-.213-.03-.41-.09-.587-.057-.178-.144-.332-.258-.46-.114-.13-.253-.23-.417-.302-.164-.07-.352-.105-.563-.105zm3.033 4.084c0-.09.016-.175.05-.254.032-.08.077-.15.134-.208.057-.058.125-.105.205-.14.08-.034.164-.05.254-.05s.174.016.254.05c.08.035.148.082.207.14.06.06.105.128.138.208.032.08.05.164.05.254 0 .093-.018.18-.05.256-.033.078-.08.146-.138.205-.06.06-.128.106-.207.14-.08.03-.164.048-.254.048s-.175-.017-.254-.05c-.08-.032-.148-.078-.205-.137-.057-.058-.102-.126-.135-.204-.033-.077-.05-.163-.05-.256z" fill="#1D2630"/><g><g transform="translate(19 223.944)" fill="#1D2630"><path fill-rule="nonzero" d="M3.1 5.8h182.7V4H3.1"/><path d="M190.512 4.86l-6.48 4.86V0"/><circle cx="2.916" cy="4.86" r="2.916"/></g><path fill="#F7F6F0" d="M65.8 206.7h96.3v21.6H65.8z"/><path d="M80.546 214.833c-.03.05-.064.09-.1.116-.033.025-.078.038-.134.038-.058 0-.127-.03-.204-.088-.078-.06-.177-.124-.296-.194-.12-.07-.263-.136-.43-.195-.168-.058-.37-.087-.61-.087-.224 0-.423.03-.595.09-.173.06-.317.143-.433.247-.116.104-.203.225-.262.365-.06.14-.088.292-.088.454 0 .206.05.378.153.515.102.136.236.253.404.35.17.097.36.18.57.25.214.072.432.145.655.222.222.076.44.16.653.256.212.095.402.215.57.36.168.146.302.324.404.534.102.21.153.47.153.778 0 .325-.055.63-.166.915-.11.285-.273.533-.485.744-.213.21-.474.377-.783.498-.31.12-.66.18-1.055.18-.48 0-.92-.086-1.314-.26-.396-.175-.734-.41-1.014-.708l.29-.477c.027-.038.06-.07.1-.096.04-.025.084-.038.133-.038.072 0 .155.04.25.116.092.078.21.164.35.257.14.093.308.18.507.257.198.077.44.116.728.116.238 0 .45-.033.638-.098.186-.066.344-.158.474-.278.13-.12.23-.26.298-.427.07-.166.104-.35.104-.555 0-.225-.05-.41-.153-.552-.103-.143-.237-.264-.403-.36-.166-.097-.355-.18-.568-.247-.213-.066-.43-.135-.654-.206-.223-.07-.44-.153-.653-.246-.213-.093-.402-.214-.568-.363-.166-.15-.3-.334-.4-.557-.103-.223-.154-.5-.154-.827 0-.262.052-.516.154-.76.102-.247.25-.464.443-.654s.433-.342.718-.457c.285-.115.612-.172.982-.172.415 0 .793.066 1.136.197.342.132.64.322.896.57l-.244.478zm3.136 6.35c-.415 0-.734-.116-.956-.347-.223-.232-.335-.565-.335-1v-3.215h-.63c-.057 0-.103-.015-.14-.048-.04-.033-.058-.084-.058-.153v-.37l.86-.108.213-1.623c.007-.053.03-.095.067-.128.038-.033.087-.05.145-.05h.467v1.81h1.503v.67h-1.503v3.15c0 .222.054.386.16.493.108.108.246.16.415.16.096 0 .18-.012.25-.038.072-.026.133-.054.185-.085.052-.03.096-.06.132-.086.036-.026.068-.04.096-.04.048 0 .092.03.13.09l.27.44c-.16.15-.352.265-.576.35-.225.085-.457.127-.695.127zm2.276-.083v-5.25h.53c.1 0 .168.018.206.056.038.038.064.103.078.197l.062.82c.18-.368.402-.654.666-.86.264-.205.575-.308.93-.308.146 0 .277.017.395.05.117.032.226.078.326.137l-.118.69c-.024.086-.078.13-.16.13-.05 0-.123-.017-.224-.05-.1-.033-.24-.05-.42-.05-.32 0-.59.094-.806.28-.216.187-.396.458-.54.814v3.344h-.924zm6.304-5.334c.383 0 .73.064 1.04.19.308.13.57.31.787.546.215.235.38.52.497.853.115.333.173.705.173 1.117 0 .414-.058.788-.173 1.12-.116.33-.282.615-.498.85-.217.235-.48.415-.79.54-.308.128-.655.19-1.038.19-.384 0-.73-.062-1.04-.19-.31-.125-.573-.305-.79-.54-.218-.235-.386-.52-.503-.85-.12-.332-.178-.706-.178-1.12 0-.412.06-.784.177-1.117.116-.334.284-.618.502-.853.217-.235.48-.417.79-.545.31-.127.656-.19 1.04-.19zm0 4.686c.518 0 .905-.174 1.16-.52.256-.348.384-.833.384-1.455 0-.626-.128-1.113-.383-1.462-.256-.35-.643-.524-1.16-.524-.264 0-.492.046-.686.136-.193.09-.355.22-.484.39-.13.168-.227.377-.29.624-.065.247-.097.526-.097.837 0 .31.032.59.096.835s.16.45.29.62c.13.167.292.295.485.385.194.09.422.135.685.135zm3.64.648v-5.25h.548c.132 0 .214.063.25.19l.072.57c.228-.252.483-.456.764-.61.282-.157.608-.234.977-.234.287 0 .54.047.76.142.22.095.403.23.55.405.146.174.258.384.334.63.076.245.114.516.114.813v3.344h-.922v-3.344c0-.397-.09-.706-.272-.925-.182-.218-.46-.328-.832-.328-.273 0-.528.065-.765.197-.238.13-.456.308-.657.533v3.867H95.9zm7.53-5.34c.23 0 .443.026.64.076.2.05.38.123.543.22h1.426v.342c0 .114-.072.187-.217.218l-.596.083c.117.223.176.474.176.75 0 .256-.05.49-.148.698-.098.21-.235.388-.41.536-.174.15-.38.263-.62.342-.242.08-.505.12-.792.12-.245 0-.477-.03-.695-.088-.11.07-.194.143-.25.222-.058.08-.087.158-.087.234 0 .124.052.218.152.282.1.064.233.11.4.138.165.027.353.045.564.05.21.008.426.02.645.035.22.015.436.04.647.08.21.038.4.1.565.186.166.087.3.206.4.358.1.152.15.35.15.59 0 .225-.057.443-.17.654-.11.21-.273.398-.484.562-.21.165-.468.296-.772.394-.304.1-.648.148-1.032.148-.383 0-.72-.038-1.008-.114-.29-.076-.528-.178-.718-.306-.19-.128-.333-.275-.428-.443-.095-.17-.142-.344-.142-.527 0-.26.082-.48.246-.66.164-.183.39-.327.676-.434-.148-.07-.267-.163-.355-.278-.088-.116-.132-.27-.132-.464 0-.076.014-.155.042-.236.027-.08.07-.162.127-.24.057-.08.127-.157.21-.23.082-.072.18-.136.29-.19-.26-.146-.462-.34-.61-.58-.146-.24-.22-.52-.22-.842 0-.255.05-.488.148-.697.1-.21.236-.387.412-.534.177-.148.386-.26.63-.34.244-.08.51-.12.8-.12zm1.64 5.625c0-.13-.037-.237-.11-.316-.072-.08-.17-.142-.295-.185-.125-.043-.268-.075-.43-.096-.163-.022-.334-.036-.514-.045-.18-.01-.363-.018-.55-.03-.186-.01-.364-.028-.533-.056-.197.093-.357.207-.48.342-.122.134-.184.295-.184.482 0 .117.03.227.09.33.062.1.154.19.278.263.125.074.28.133.47.176.188.044.41.065.666.065.25 0 .47-.022.668-.067.197-.044.364-.108.5-.19.137-.084.242-.182.314-.296.073-.114.11-.24.11-.38zm-1.64-2.85c.188 0 .353-.027.496-.08.144-.05.264-.123.36-.217.097-.093.17-.204.218-.334.05-.13.073-.272.073-.428 0-.32-.1-.577-.294-.767-.195-.19-.48-.286-.853-.286-.37 0-.652.095-.848.285-.195.19-.292.445-.292.766 0 .156.025.298.075.428.05.13.123.24.22.334.097.094.216.166.358.218.14.052.304.078.487.078zm5.61-2.77c.315 0 .605.053.87.16.267.104.497.256.69.455.194.2.345.444.454.736.11.292.163.625.163.998 0 .145-.016.242-.047.29-.03.05-.09.073-.176.073h-3.495c.007.332.052.62.135.866.083.245.197.45.342.614.145.164.317.287.518.368.2.08.425.122.674.122.23 0 .43-.027.598-.08.168-.054.312-.112.433-.174.12-.062.222-.12.304-.174.08-.054.15-.08.21-.08.076 0 .134.028.176.087l.26.337c-.115.138-.252.258-.41.36-.16.102-.33.186-.51.252-.183.065-.37.114-.564.147-.194.033-.386.05-.576.05-.363 0-.697-.062-1.003-.184-.305-.124-.57-.304-.792-.54-.223-.237-.397-.53-.52-.88-.126-.348-.188-.75-.188-1.202 0-.366.056-.708.17-1.026.11-.318.272-.594.483-.827.21-.234.47-.417.773-.55.304-.133.646-.2 1.026-.2zm.02.68c-.445 0-.796.13-1.05.386-.257.258-.416.615-.478 1.07h2.856c0-.213-.03-.41-.088-.587-.06-.178-.145-.332-.26-.46-.113-.13-.253-.23-.417-.302-.164-.07-.35-.105-.562-.105zm3.334 4.655v-5.25h.53c.1 0 .168.018.206.056.038.038.064.103.078.197l.062.82c.18-.368.402-.654.666-.86.265-.205.575-.308.93-.308.146 0 .277.017.395.05.117.032.226.078.327.137l-.12.69c-.024.086-.077.13-.16.13-.05 0-.123-.017-.223-.05s-.24-.05-.42-.05c-.322 0-.59.094-.806.28-.215.187-.396.458-.54.814v3.344h-.924zm7.206-5.25v5.25h-.923v-5.25h.922zm.207-1.65c0 .09-.02.174-.055.252-.036.077-.085.146-.145.207-.06.06-.13.107-.21.14-.08.036-.164.053-.254.053s-.174-.017-.252-.052c-.077-.033-.147-.08-.207-.14-.06-.062-.108-.13-.143-.208-.034-.078-.05-.162-.05-.252s.016-.175.05-.257c.035-.08.082-.152.143-.212.06-.06.13-.107.207-.142.078-.034.162-.05.252-.05s.174.016.254.05c.08.035.15.082.21.143.06.06.11.132.145.213.036.082.054.167.054.257zm1.42 6.9v-5.25h.55c.13 0 .213.063.248.19l.073.57c.23-.252.484-.456.765-.61.282-.157.608-.234.977-.234.287 0 .54.047.76.142.22.095.403.23.55.405.146.174.258.384.334.63.076.245.114.516.114.813v3.344h-.923v-3.344c0-.397-.09-.706-.272-.925-.182-.218-.46-.328-.832-.328-.273 0-.528.065-.765.197-.236.13-.455.308-.656.533v3.867h-.922zm8.77-4.386c-.04.076-.104.114-.19.114-.053 0-.11-.02-.177-.057-.066-.037-.146-.08-.24-.126-.096-.046-.21-.09-.34-.13-.132-.04-.287-.06-.467-.06-.156 0-.296.02-.42.06-.125.04-.23.095-.32.164-.087.07-.154.15-.2.24-.048.093-.07.192-.07.3 0 .134.038.246.116.336.077.09.18.168.308.233.128.066.273.124.435.174.163.05.33.105.5.162.172.057.34.12.5.19.163.068.31.155.436.258.13.104.232.23.31.38.078.152.117.332.117.543 0 .242-.044.466-.13.67-.086.207-.214.385-.384.535-.17.15-.376.27-.622.355-.244.087-.528.13-.85.13-.365 0-.697-.06-.994-.18-.297-.118-.55-.27-.757-.458l.217-.352c.027-.045.06-.08.098-.104.038-.025.088-.037.15-.037.063 0 .128.024.197.072.07.05.153.102.252.16.098.06.218.113.358.162.14.048.315.072.526.072.18 0 .337-.024.47-.07.136-.047.25-.11.338-.19.09-.08.157-.17.2-.275.043-.103.065-.214.065-.33 0-.146-.038-.267-.116-.362-.078-.095-.18-.176-.308-.243-.128-.068-.274-.126-.438-.177-.164-.05-.332-.102-.503-.158-.17-.055-.34-.118-.503-.19-.164-.07-.31-.16-.438-.266-.128-.108-.23-.24-.31-.397-.076-.158-.115-.35-.115-.573 0-.2.04-.393.123-.578.083-.185.204-.348.363-.488.16-.14.354-.25.586-.334.23-.083.496-.124.793-.124.346 0 .656.054.93.163.275.108.513.257.713.447l-.207.337zm2.52-.865v5.25h-.922v-5.25h.922zm.208-1.65c0 .09-.018.174-.055.252-.036.077-.084.146-.145.207-.06.06-.13.107-.21.14-.08.036-.164.053-.254.053s-.173-.017-.25-.052c-.08-.033-.148-.08-.21-.14-.06-.062-.107-.13-.14-.208-.036-.078-.053-.162-.053-.252s.018-.175.053-.257c.034-.08.082-.152.142-.212.06-.06.13-.107.208-.142.078-.034.16-.05.25-.05s.176.016.255.05c.08.035.15.082.21.143.06.06.11.132.145.213.037.082.055.167.055.257zm3.188 1.56c.228 0 .44.026.64.076s.38.123.542.22h1.426v.342c0 .114-.073.187-.218.218l-.596.083c.117.223.176.474.176.75 0 .256-.05.49-.148.698-.098.21-.235.388-.41.536-.174.15-.38.263-.62.342-.242.08-.505.12-.792.12-.245 0-.477-.03-.695-.088-.11.07-.193.143-.25.222-.057.08-.086.158-.086.234 0 .124.05.218.15.282.1.064.234.11.4.138.166.027.354.045.565.05.21.008.425.02.644.035.22.015.435.04.646.08.21.038.4.1.565.186.166.087.3.206.4.358.1.152.15.35.15.59 0 .225-.057.443-.17.654-.11.21-.273.398-.484.562-.21.165-.467.296-.77.394-.305.1-.65.148-1.033.148-.384 0-.72-.038-1.008-.114-.29-.076-.53-.178-.72-.306-.19-.128-.332-.275-.427-.443-.095-.17-.142-.344-.142-.527 0-.26.083-.48.247-.66.164-.183.39-.327.676-.434-.148-.07-.267-.163-.355-.278-.088-.116-.132-.27-.132-.464 0-.076.014-.155.042-.236.027-.08.07-.162.127-.24.057-.08.127-.157.21-.23.082-.072.18-.136.29-.19-.26-.146-.462-.34-.61-.58-.146-.24-.22-.52-.22-.842 0-.255.05-.488.148-.697.1-.21.236-.387.412-.534.176-.148.386-.26.63-.34.244-.08.51-.12.8-.12zm1.638 5.625c0-.13-.036-.237-.11-.316-.07-.08-.17-.142-.294-.185-.125-.043-.268-.075-.43-.096-.163-.022-.334-.036-.514-.045-.18-.01-.363-.018-.55-.03-.186-.01-.364-.028-.533-.056-.197.093-.357.207-.48.342-.122.134-.184.295-.184.482 0 .117.03.227.09.33.06.1.153.19.277.263.125.074.28.133.47.176.188.044.41.065.666.065.248 0 .47-.022.668-.067.198-.044.365-.108.502-.19.136-.084.24-.182.313-.296.073-.114.11-.24.11-.38zm-1.638-2.85c.187 0 .352-.027.495-.08.144-.05.265-.123.36-.217.098-.093.17-.204.22-.334.047-.13.072-.272.072-.428 0-.32-.098-.577-.293-.767-.197-.19-.48-.286-.854-.286-.37 0-.652.095-.848.285-.195.19-.292.445-.292.766 0 .156.025.298.075.428.05.13.124.24.22.334.098.094.217.166.36.218.14.052.303.078.486.078zm3.53 2.565v-7.636h.923v3.09c.224-.24.473-.43.746-.573.273-.143.587-.214.943-.214.286 0 .54.047.758.142.22.095.403.23.55.405.147.174.258.384.334.63.076.245.114.516.114.813v3.344h-.922v-3.344c0-.397-.09-.706-.273-.925-.18-.218-.457-.328-.83-.328-.274 0-.528.065-.765.197-.237.13-.456.308-.656.533v3.867h-.924zm7.356.083c-.414 0-.733-.116-.956-.347-.223-.232-.334-.565-.334-1v-3.215h-.633c-.056 0-.103-.015-.14-.048-.04-.033-.058-.084-.058-.153v-.37l.86-.108.213-1.623c.007-.053.03-.095.068-.128.038-.033.086-.05.145-.05h.466v1.81h1.504v.67h-1.504v3.15c0 .222.054.386.16.493.108.108.246.16.416.16.097 0 .18-.012.25-.038.072-.026.133-.054.185-.085.052-.03.096-.06.132-.086.037-.026.07-.04.096-.04.05 0 .092.03.13.09l.27.44c-.16.15-.35.265-.576.35-.225.085-.456.127-.695.127zm5.283-4.47c-.042.077-.106.115-.192.115-.052 0-.11-.02-.176-.057-.066-.037-.146-.08-.24-.126-.096-.046-.21-.09-.34-.13-.132-.04-.288-.06-.467-.06-.156 0-.296.02-.42.06-.125.04-.23.095-.32.164-.087.07-.155.15-.2.24-.048.093-.07.192-.07.3 0 .134.038.246.115.336.078.09.18.168.31.233.127.066.272.124.434.174.162.05.33.105.5.162.17.057.337.12.5.19.162.068.307.155.435.258.128.104.23.23.31.38.076.152.115.332.115.543 0 .242-.043.466-.13.67-.086.207-.213.385-.383.535-.17.15-.377.27-.622.355-.245.087-.53.13-.85.13-.366 0-.698-.06-.995-.18-.298-.118-.55-.27-.757-.458l.217-.352c.028-.045.06-.08.1-.104.037-.025.087-.037.15-.037.06 0 .127.024.196.072.07.05.153.102.252.16.098.06.217.113.357.162.14.048.316.072.527.072.18 0 .337-.024.47-.07.136-.047.248-.11.338-.19.09-.08.157-.17.2-.275.043-.103.065-.214.065-.33 0-.146-.04-.267-.117-.362-.078-.095-.18-.176-.308-.243-.128-.068-.274-.126-.438-.177-.165-.05-.332-.102-.503-.158-.172-.055-.34-.118-.504-.19-.164-.07-.31-.16-.438-.266-.128-.108-.23-.24-.31-.397-.076-.158-.115-.35-.115-.573 0-.2.04-.393.124-.578.083-.185.204-.348.363-.488.16-.14.354-.25.586-.334.23-.083.496-.124.793-.124.345 0 .655.054.93.163.274.108.512.257.712.447l-.207.337z" fill="#1D2630"/></g></g></svg>