<svg width="124" height="124" viewBox="0 0 124 124" xmlns="http://www.w3.org/2000/svg" xmlns:xlink="http://www.w3.org/1999/xlink"><title>[interludio]adaptive_icons01</title><defs><path id="a" d="M0 124h124V0H0z"/></defs><g fill="none" fill-rule="evenodd"><path d="M109 53c0 29.27-23.73 53-53 53S3 73.745 3 53C3 23.73 26.73 0 56 0s53 23.73 53 53z" fill="#F4F3EF"/><path d="M45 52V26c0-4.418 3.582-8 8-8h62c4.418 0 8 3.582 8 8v52c0 4.418-3.582 8-8 8H45" fill="#FFF"/><path d="M45 52V26c0-4.418 3.582-8 8-8h62c4.418 0 8 3.582 8 8v52c0 4.418-3.582 8-8 8H59" stroke="#333" stroke-width="2"/><path fill="#FCD410" d="M59 40v34h16V40"/><mask id="b" fill="#fff"><use xlink:href="#a"/></mask><path fill="#E8C42D" mask="url(#b)" d="M59 74h5V40h-5"/><path stroke="#333" stroke-width="2" mask="url(#b)" d="M59 40v34h16V40z"/><path fill="#FFF" mask="url(#b)" d="M75 74h16V54H75"/><path fill="#F4F3EF" mask="url(#b)" d="M75 74h5V54h-5"/><path stroke="#333" stroke-width="2" mask="url(#b)" d="M75 74h16V54H75z"/><path fill="#FCD410" mask="url(#b)" d="M91 74h16V32H91"/><path fill="#E8C42D" mask="url(#b)" d="M91 74h5V32h-5"/><path stroke="#333" stroke-width="2" mask="url(#b)" d="M91 74h16V32H91z"/><path d="M22 51.513c5.152 0 9-4.215 9-9.414v-3.14c0-5.2-3.848-9.416-9-9.416s-9 4.215-9 9.415v3.14c0 5.198 3.848 9.413 9 9.413" fill="#FFF" mask="url(#b)"/><path d="M17 42.1v-3.14c0-4.5 2.885-8.258 7-9.19-.64-.143-1.307-.225-2-.225-5.152 0-9 4.215-9 9.414v3.14c0 5.198 3.848 9.413 9 9.413.693 0 1.36-.082 2-.226-4.115-.93-7-4.688-7-9.188" fill="#F4F3EF" mask="url(#b)"/><path d="M22 51.513c5.152 0 9-4.215 9-9.414v-3.14c0-5.2-3.848-9.416-9-9.416s-9 4.215-9 9.415v3.14c0 5.198 3.848 9.413 9 9.413z" stroke="#333" stroke-width="2" mask="url(#b)"/><path d="M63 58H17C7.503 58 1 61.024 1 70v18c0 4.29 3.71 8 8 8h26V68h18c6.035 0 10-5.562 10-10" fill="#FCD410" mask="url(#b)"/><path fill="#E8C42D" mask="url(#b)" d="M6 96l-5-6V65l5-5"/><path d="M63 58H17C7.503 58 1 61.024 1 70v18c0 4.29 3.71 8 8 8h26V68h18c6.035 0 10-5.562 10-10z" stroke="#333" stroke-width="2" mask="url(#b)"/><path fill="#FCD410" mask="url(#b)" d="M11 124h24V70H11"/><path d="M35 70v54" stroke="#333" stroke-width="2" mask="url(#b)"/><path fill="#E8C42D" mask="url(#b)" d="M11 124h5V70h-5M23 124h5V92h-5"/><path d="M23 92v32M11 70v54" stroke="#333" stroke-width="2" mask="url(#b)"/><path d="M47 86h-4" fill="#FFF" mask="url(#b)"/><path d="M51 86h4" stroke="#333" stroke-width="2" mask="url(#b)"/></g></svg>