<svg width="208" height="311" viewBox="0 0 208 311" xmlns="http://www.w3.org/2000/svg">
  <defs>
    <linearGradient x1="0%" y1="100%" y2="0%" id="a">
      <stop stop-color="#1A66FF" offset="0%"/>
      <stop stop-color="#EB2550" offset="100%"/>
    </linearGradient>
  </defs>
  <g fill="none" fill-rule="evenodd">
    <path fill="url(#a)" d="M0 0h208v310.4H0"/>
    <path d="M34.032 191.8l-2.57-9.05h-.077c.12 1.542.18 2.74.18 3.593v5.457H28.56v-12.564h4.52l2.62 8.92h.07l2.57-8.92h4.528V191.8h-3.12v-5.51c0-.285.005-.603.014-.952.008-.35.047-1.206.116-2.57h-.078l-2.535 9.032h-3.23zm20.642-4.89c0 1.593-.428 2.835-1.285 3.726-.857.89-2.056 1.336-3.597 1.336-1.478 0-2.654-.456-3.528-1.367-.873-.91-1.31-2.142-1.31-3.695 0-1.587.428-2.82 1.284-3.7.856-.88 2.058-1.32 3.605-1.32.956 0 1.8.205 2.535.612.733.406 1.3.99 1.697 1.748.398.76.597 1.646.597 2.66zm-6.308 0c0 .837.112 1.474.336 1.912.223.44.598.658 1.125.658.522 0 .89-.22 1.105-.658.214-.438.322-1.075.322-1.912 0-.83-.11-1.458-.327-1.882-.217-.424-.59-.636-1.117-.636-.515 0-.885.21-1.108.632-.224.42-.336 1.05-.336 1.886zm14.172-5.02c1.06 0 1.9.445 2.522 1.333.62.888.932 2.117.932 3.687 0 1.58-.313 2.82-.94 3.717-.628.897-1.5 1.345-2.618 1.345-.36 0-.68-.04-.962-.116-.28-.077-.532-.185-.752-.322-.22-.138-.477-.367-.77-.688h-.205l-.533.954h-2.62v-13.372h3.36v3.025c0 .36-.04.983-.122 1.865h.12c.327-.504.704-.868 1.13-1.09.428-.225.913-.337 1.458-.337zm-1.23 2.64c-.47 0-.813.163-1.03.49-.218.326-.327.84-.327 1.538v.472c0 .797.11 1.368.327 1.715.218.347.573.52 1.066.52.395 0 .7-.202.91-.606.213-.405.32-1 .32-1.784 0-1.564-.422-2.346-1.264-2.346zm9.978 7.27h-3.36v-9.737h3.36v9.737zm-3.446-12.16c0-.504.14-.88.42-1.126.282-.246.734-.37 1.36-.37.623 0 1.08.127 1.365.38.287.25.43.623.43 1.116 0 .985-.6 1.478-1.796 1.478-1.187 0-1.78-.493-1.78-1.478zm9.152 12.16h-3.36v-13.372h3.36V191.8zm7.03.172c-1.62 0-2.88-.43-3.777-1.293-.897-.864-1.345-2.09-1.345-3.684 0-1.644.415-2.906 1.246-3.785.83-.88 2.017-1.32 3.558-1.32 1.467 0 2.6.384 3.4 1.15.798.764 1.198 1.865 1.198 3.303v1.495h-6.007c.022.545.222.97.597 1.28.375.31.886.465 1.534.465.59 0 1.133-.056 1.628-.168.496-.11 1.033-.302 1.612-.57v2.414c-.527.268-1.072.454-1.633.557-.562.103-1.232.155-2.01.155zm-.198-7.795c-.395 0-.726.125-.992.374-.267.25-.423.64-.47 1.174h2.89c-.013-.47-.146-.845-.4-1.126-.256-.28-.598-.42-1.028-.42zm18.855 7.623l-.62-2.355h-4.082l-.636 2.355h-3.73l4.1-12.616h4.53l4.15 12.616h-3.713zm-1.325-5.14l-.54-2.062c-.127-.458-.28-1.05-.46-1.778s-.3-1.25-.357-1.565c-.052.293-.154.774-.305 1.444-.152.67-.49 1.99-1.01 3.96h2.672zm12.04 5.312c-.492 0-.934-.082-1.323-.245-.39-.163-.776-.457-1.16-.88h-.155c.103.68.155 1.105.155 1.27v3.91h-3.36v-13.964h2.732l.473 1.238h.155c.624-.94 1.486-1.41 2.586-1.41 1.078 0 1.923.448 2.536 1.342.613.894.92 2.12.92 3.678 0 1.57-.32 2.806-.96 3.708-.638.903-1.504 1.354-2.6 1.354zm-1.125-7.442c-.493 0-.838.176-1.036.528-.198.353-.305.875-.322 1.57v.265c0 .836.11 1.44.335 1.813.223.373.576.56 1.057.56.43 0 .742-.186.937-.555.195-.37.293-.98.293-1.834 0-.837-.098-1.437-.292-1.8-.194-.364-.518-.546-.97-.546zm12.443 7.442c-.492 0-.934-.082-1.323-.245-.39-.163-.776-.457-1.16-.88h-.155c.103.68.155 1.105.155 1.27v3.91h-3.36v-13.964h2.732l.473 1.238h.155c.624-.94 1.486-1.41 2.586-1.41 1.077 0 1.923.448 2.536 1.342.613.894.92 2.12.92 3.678 0 1.57-.32 2.806-.96 3.708-.638.903-1.504 1.354-2.6 1.354zm-1.125-7.442c-.493 0-.838.176-1.036.528-.198.353-.305.875-.322 1.57v.265c0 .836.11 1.44.335 1.813.223.373.576.56 1.057.56.43 0 .742-.186.937-.555.193-.37.29-.98.29-1.834 0-.837-.097-1.437-.29-1.8-.196-.364-.52-.546-.972-.546zM33.55 224.6h-5.094v-9.137h5.094v.943h-4.03v2.944h3.786v.938H29.52v3.362h4.03v.95zm6.08 0l-.205-.975h-.05c-.342.43-.682.72-1.022.872-.34.152-.763.228-1.272.228-.678 0-1.21-.175-1.596-.525-.385-.35-.578-.848-.578-1.494 0-1.383 1.106-2.108 3.32-2.175l1.162-.036v-.425c0-.54-.116-.936-.347-1.192-.23-.256-.6-.384-1.11-.384-.57 0-1.215.175-1.936.525l-.32-.795c.34-.183.708-.327 1.11-.43.402-.105.806-.157 1.21-.157.816 0 1.422.18 1.815.543.393.364.59.945.59 1.745v4.675h-.77zm-2.343-.73c.646 0 1.154-.178 1.522-.532.368-.355.552-.85.552-1.488v-.62l-1.037.045c-.825.03-1.42.157-1.784.384-.364.226-.546.58-.546 1.06 0 .374.113.66.34.855.227.196.545.294.953.294zm9.67-1.14c0 .64-.238 1.13-.713 1.476-.475.346-1.142.52-2 .52-.91 0-1.617-.145-2.125-.432v-.963c.328.168.68.3 1.058.395.377.096.74.144 1.09.144.542 0 .96-.088 1.25-.26.292-.174.438-.437.438-.79 0-.268-.115-.496-.347-.686-.232-.19-.683-.413-1.354-.67-.637-.24-1.09-.446-1.36-.623-.268-.176-.468-.377-.6-.602-.13-.226-.196-.494-.196-.807 0-.557.227-.998.68-1.32.455-.324 1.078-.485 1.87-.485.738 0 1.458.15 2.163.45l-.37.844c-.687-.285-1.31-.426-1.868-.426-.492 0-.862.077-1.113.23-.25.155-.375.368-.375.64 0 .182.047.338.14.467.095.13.246.253.454.37.21.117.61.285 1.2.506.814.296 1.363.594 1.648.894.286.3.428.677.428 1.13zm2.724 1.87h-1.036v-6.85h1.037v6.85zm-1.124-8.706c0-.238.06-.412.175-.522.118-.11.264-.166.44-.166.165 0 .31.056.43.17.12.112.18.284.18.518 0 .233-.06.407-.18.522-.12.114-.265.172-.43.172-.176 0-.322-.058-.44-.172-.115-.115-.174-.29-.174-.522zm4.363 8.706h-1.04v-9.725h1.04v9.725zm1.11-6.85h1.114l1.5 3.906c.33.892.533 1.536.612 1.93h.05c.054-.21.168-.575.34-1.09.174-.514.74-2.096 1.698-4.746h1.112l-2.944 7.8c-.29.77-.632 1.318-1.02 1.64-.39.324-.87.485-1.436.485-.316 0-.63-.035-.937-.106v-.832c.228.05.484.075.768.075.712 0 1.22-.4 1.525-1.2l.38-.976-2.762-6.887zm15.282 4.98c0 .64-.237 1.13-.712 1.476-.475.346-1.142.52-2 .52-.908 0-1.617-.145-2.125-.432v-.963c.33.168.682.3 1.06.395.376.096.74.144 1.09.144.542 0 .958-.088 1.25-.26.292-.174.438-.437.438-.79 0-.268-.116-.496-.347-.686-.232-.19-.683-.413-1.353-.67-.638-.24-1.09-.446-1.36-.623-.27-.176-.47-.377-.6-.602-.13-.226-.197-.494-.197-.807 0-.557.227-.998.68-1.32.456-.324 1.08-.485 1.87-.485.738 0 1.46.15 2.163.45l-.37.844c-.688-.285-1.31-.426-1.87-.426-.49 0-.86.077-1.11.23-.25.155-.376.368-.376.64 0 .182.047.338.14.467.094.13.245.253.453.37.21.117.61.285 1.2.506.813.296 1.362.594 1.647.894.286.3.428.677.428 1.13zm2.663-4.98v4.444c0 .558.127.975.38 1.25.255.275.653.412 1.195.412.717 0 1.24-.196 1.572-.587.33-.393.497-1.032.497-1.92v-3.6h1.036v6.85H75.8l-.15-.92h-.056c-.213.34-.508.597-.885.776-.378.18-.808.27-1.29.27-.835 0-1.46-.2-1.873-.595-.415-.395-.622-1.028-.622-1.9v-4.48h1.05zm10.07-.113c.9 0 1.598.308 2.096.922.5.614.748 1.484.748 2.61 0 1.124-.252 1.998-.754 2.62-.502.624-1.2.935-2.09.935-.446 0-.853-.082-1.222-.247-.37-.164-.678-.418-.928-.76h-.075l-.22.882h-.744v-9.725h1.038v2.363c0 .53-.017 1.004-.05 1.424h.05c.483-.683 1.2-1.025 2.15-1.025zm-.15.87c-.71 0-1.22.202-1.532.61-.313.405-.47 1.09-.47 2.052 0 .96.16 1.65.482 2.064.32.415.835.622 1.544.622.636 0 1.11-.232 1.424-.697.312-.465.47-1.133.47-2.004 0-.89-.158-1.556-.47-1.994-.313-.437-.796-.656-1.45-.656zM95.43 224.6v-4.456c0-.546-.115-.955-.35-1.228-.232-.273-.595-.41-1.086-.41-.646 0-1.123.186-1.43.556-.31.37-.464.942-.464 1.713v3.825h-1.037v-4.456c0-.546-.117-.955-.35-1.228-.234-.273-.598-.41-1.094-.41-.65 0-1.127.195-1.43.585-.3.39-.453 1.03-.453 1.916v3.594H86.7v-6.85h.844l.17.938h.05c.194-.334.47-.594.827-.782.357-.187.756-.28 1.197-.28 1.07 0 1.77.386 2.1 1.16h.05c.205-.357.5-.64.888-.85.388-.207.83-.31 1.325-.31.775 0 1.355.198 1.74.596.386.398.58 1.034.58 1.91v4.468h-1.04zm4.214 0h-1.038v-6.85h1.038v6.85zm-1.125-8.706c0-.238.057-.412.174-.522.116-.11.262-.166.437-.166.168 0 .312.056.433.17.12.112.18.284.18.518 0 .233-.06.407-.18.522-.12.114-.265.172-.432.172-.174 0-.32-.058-.436-.172-.117-.115-.175-.29-.175-.522zm5.536 7.975c.184 0 .36-.015.532-.042.17-.027.306-.055.406-.084v.793c-.113.055-.278.1-.497.135-.22.035-.416.053-.59.053-1.326 0-1.988-.698-1.988-2.094v-4.074h-.983v-.5l.982-.43.436-1.464h.6v1.588h1.988v.806h-1.988v4.03c0 .414.098.73.294.95.196.222.465.333.806.333zm6.67.73h-1.038v-6.85h1.037v6.85zm-1.126-8.706c0-.238.058-.412.175-.522.117-.11.262-.166.438-.166.166 0 .31.056.43.17.122.112.182.284.182.518 0 .233-.06.407-.18.522-.122.114-.266.172-.432.172-.176 0-.32-.058-.438-.172-.117-.115-.175-.29-.175-.522zm8.013 8.706v-4.43c0-.56-.128-.976-.382-1.25-.253-.276-.65-.414-1.193-.414-.716 0-1.24.194-1.575.582-.333.387-.5 1.027-.5 1.918v3.594h-1.037v-6.85h.844l.168.938h.05c.212-.338.51-.6.893-.785.385-.185.812-.278 1.282-.278.826 0 1.446.2 1.863.597.417.398.625 1.034.625 1.91v4.468h-1.038zm4.668 0l-2.6-6.85h1.114l1.475 4.063c.332.95.528 1.566.586 1.85h.05c.046-.22.19-.68.435-1.372.244-.693.79-2.207 1.64-4.54h1.114l-2.6 6.85h-1.213zm10.826-3.43c0 1.115-.28 1.987-.844 2.614-.562.627-1.34.94-2.33.94-.613 0-1.157-.143-1.632-.43-.475-.288-.842-.7-1.1-1.238-.258-.537-.388-1.166-.388-1.887 0-1.118.28-1.988.838-2.61.558-.624 1.333-.935 2.325-.935.958 0 1.72.32 2.284.956.564.64.846 1.5.846 2.59zm-5.218 0c0 .874.174 1.54.524 2 .35.457.865.686 1.544.686.68 0 1.195-.228 1.547-.684.352-.456.528-1.124.528-2.003 0-.872-.175-1.534-.527-1.986-.352-.452-.872-.678-1.56-.678-.678 0-1.19.223-1.537.67-.346.445-.52 1.11-.52 1.993zm8.075 3.43h-1.038v-6.85h1.037v6.85zm-1.125-8.706c0-.238.058-.412.174-.522.117-.11.263-.166.438-.166.167 0 .31.056.43.17.122.112.183.284.183.518 0 .233-.06.407-.182.522-.12.114-.263.172-.43.172-.175 0-.32-.058-.438-.172-.116-.115-.174-.29-.174-.522zm6.062 8.83c-.992 0-1.76-.304-2.303-.915-.544-.61-.816-1.475-.816-2.59 0-1.147.277-2.032.83-2.657.55-.626 1.338-.938 2.36-.938.328 0 .657.035.986.106.33.072.588.155.775.25l-.317.883c-.23-.092-.48-.168-.75-.23-.27-.06-.51-.09-.72-.09-1.39 0-2.087.888-2.087 2.663 0 .842.17 1.488.51 1.938.34.45.842.675 1.51.675.57 0 1.155-.124 1.755-.37v.92c-.457.236-1.034.355-1.73.355zm6.25 0c-1.013 0-1.81-.307-2.397-.924-.585-.617-.878-1.473-.878-2.57 0-1.103.272-1.98.816-2.63.544-.65 1.275-.975 2.19-.975.86 0 1.54.282 2.04.847.5.564.75 1.31.75 2.234v.657h-4.72c.02.804.224 1.414.61 1.83.385.417.927.626 1.627.626.738 0 1.467-.155 2.188-.464v.925c-.367.16-.714.273-1.04.342-.328.07-.722.103-1.185.103zm-.28-6.23c-.55 0-.99.18-1.317.537-.327.36-.52.855-.578 1.49h3.58c0-.655-.145-1.156-.436-1.504-.293-.348-.71-.522-1.25-.522zm8.986 4.237c0 .64-.237 1.13-.712 1.476-.475.346-1.142.52-2 .52-.91 0-1.617-.145-2.125-.432v-.963c.328.168.68.3 1.058.395.377.096.74.144 1.09.144.542 0 .96-.088 1.25-.26.292-.174.438-.437.438-.79 0-.268-.115-.496-.347-.686-.232-.19-.683-.413-1.354-.67-.637-.24-1.09-.446-1.36-.623-.268-.176-.468-.377-.6-.602-.13-.226-.196-.494-.196-.807 0-.557.227-.998.68-1.32.455-.324 1.078-.485 1.87-.485.738 0 1.458.15 2.162.45l-.368.844c-.688-.285-1.31-.426-1.87-.426-.49 0-.86.077-1.11.23-.252.155-.376.368-.376.64 0 .182.046.338.14.467.094.13.245.253.453.37.21.117.61.285 1.2.506.814.296 1.363.594 1.648.894.286.3.428.677.428 1.13zm9.225 1.87l-.205-.975h-.05c-.342.43-.682.72-1.022.872-.34.152-.763.228-1.272.228-.678 0-1.21-.175-1.596-.525-.385-.35-.578-.848-.578-1.494 0-1.383 1.106-2.108 3.32-2.175l1.162-.036v-.425c0-.54-.116-.936-.347-1.192-.23-.256-.6-.384-1.11-.384-.57 0-1.215.175-1.936.525l-.32-.795c.34-.183.708-.327 1.11-.43.402-.105.806-.157 1.21-.157.816 0 1.422.18 1.815.543.393.364.59.945.59 1.745v4.675h-.77zm-2.343-.73c.646 0 1.154-.178 1.522-.532.368-.355.553-.85.553-1.488v-.62l-1.038.045c-.825.03-1.42.157-1.784.384-.364.226-.546.58-.546 1.06 0 .374.113.66.34.855.227.196.545.294.954.294zm9.938.73v-4.43c0-.56-.127-.976-.38-1.25-.255-.276-.653-.414-1.195-.414-.717 0-1.242.194-1.575.582-.333.387-.5 1.027-.5 1.918v3.594h-1.037v-6.85h.843l.17.938h.05c.213-.338.51-.6.894-.785.383-.185.81-.278 1.28-.278.826 0 1.447.2 1.864.597.416.398.625 1.034.625 1.91v4.468h-1.038zm7.83-.92h-.055c-.48.697-1.196 1.045-2.15 1.045-.896 0-1.593-.306-2.09-.92-.5-.61-.748-1.482-.748-2.61 0-1.13.25-2.007.75-2.632.5-.626 1.196-.938 2.088-.938.93 0 1.642.337 2.137 1.012h.082l-.045-.493-.025-.482v-2.787h1.038v9.725h-.844l-.138-.92zm-2.074.176c.71 0 1.223-.192 1.542-.578.32-.385.478-1.007.478-1.865v-.22c0-.97-.16-1.663-.484-2.077-.323-.415-.84-.622-1.547-.622-.61 0-1.075.236-1.398.71-.323.472-.484 1.14-.484 2.002 0 .875.16 1.536.48 1.982.322.445.792.668 1.413.668zm-147.005 12.97c.304 0 .577.024.82.074l-.145.963c-.283-.063-.533-.094-.75-.094-.554 0-1.028.224-1.422.674-.394.45-.59 1.01-.59 1.68v3.676H28.3v-6.85h.856l.12 1.27h.05c.253-.447.56-.79.918-1.032s.752-.363 1.18-.363zm4.994 7.1c-1.014 0-1.813-.31-2.398-.926-.586-.617-.878-1.473-.878-2.57 0-1.103.272-1.98.815-2.63.543-.65 1.273-.975 2.19-.975.858 0 1.537.282 2.038.847.5.564.75 1.31.75 2.234v.656h-4.72c.022.805.225 1.415.61 1.832.386.416.928.625 1.628.625.738 0 1.467-.155 2.188-.464v.925c-.367.16-.714.273-1.04.342-.328.07-.723.103-1.185.103zm-.282-6.232c-.55 0-.99.18-1.316.537-.327.36-.52.855-.578 1.49h3.58c0-.655-.145-1.156-.436-1.504-.292-.348-.71-.522-1.25-.522zm7.306 6.23c-.992 0-1.76-.304-2.303-.915-.543-.61-.815-1.475-.815-2.59 0-1.147.276-2.032.828-2.657.552-.626 1.34-.938 2.36-.938.33 0 .658.035.987.106.33.072.587.155.775.25l-.32.882c-.228-.09-.478-.167-.75-.228-.27-.06-.51-.09-.718-.09-1.39 0-2.087.887-2.087 2.662 0 .842.17 1.488.51 1.938.34.45.842.675 1.51.675.57 0 1.155-.124 1.755-.37v.92c-.458.236-1.035.355-1.73.355zm6.25 0c-1.013 0-1.812-.307-2.397-.924-.586-.617-.878-1.473-.878-2.57 0-1.103.27-1.98.814-2.63.544-.65 1.274-.975 2.19-.975.86 0 1.538.282 2.038.847.5.564.75 1.31.75 2.234v.656h-4.718c.02.805.224 1.415.61 1.832.385.416.927.625 1.627.625.74 0 1.468-.155 2.19-.464v.925c-.368.16-.715.273-1.042.342-.327.07-.722.103-1.184.103zm-.282-6.23c-.55 0-.988.18-1.315.537-.327.36-.52.855-.578 1.49h3.58c0-.655-.146-1.156-.438-1.504-.29-.348-.708-.522-1.25-.522zm5.607 6.106h-1.04v-6.85h1.04v6.85zm-1.126-8.706c0-.238.058-.412.175-.522.115-.11.26-.166.436-.166.167 0 .31.056.43.17.122.112.183.284.183.518 0 .233-.062.407-.182.522-.12.114-.265.17-.432.17-.175 0-.32-.056-.437-.17-.118-.115-.176-.29-.176-.522zm6.512 8.83c-.446 0-.853-.08-1.222-.246-.368-.164-.678-.418-.928-.76h-.075c.05.4.076.78.076 1.138v2.82H57.22v-9.926h.843l.143.938h.05c.267-.376.577-.646.93-.813.356-.167.762-.25 1.22-.25.91 0 1.61.31 2.103.93.493.622.74 1.493.74 2.614 0 1.124-.25 1.998-.753 2.62-.502.624-1.2.935-2.09.935zm-.15-6.218c-.7 0-1.206.194-1.52.582-.31.387-.47 1.004-.48 1.85v.23c0 .963.16 1.652.48 2.066.322.415.837.622 1.545.622.593 0 1.056-.24 1.392-.72.335-.478.503-1.138.503-1.98 0-.854-.168-1.51-.503-1.965-.336-.456-.807-.684-1.416-.684zm7.02 5.363c.182 0 .36-.015.53-.042.17-.027.306-.055.407-.084v.794c-.113.054-.28.098-.497.134-.22.035-.416.053-.59.053-1.326 0-1.99-.698-1.99-2.094l.002-4.074h-.982v-.5l.98-.43.44-1.463h.6v1.587h1.986v.806h-1.987v4.03c0 .414.098.73.294.952.195.22.463.33.805.33zM74 241.93c0 .64-.237 1.13-.713 1.476-.475.346-1.14.52-2 .52-.908 0-1.616-.145-2.125-.432v-.963c.33.168.683.3 1.06.395.377.096.74.144 1.09.144.542 0 .96-.088 1.25-.26.292-.174.438-.437.438-.79 0-.268-.116-.496-.347-.686-.23-.19-.682-.413-1.353-.672-.638-.237-1.09-.444-1.36-.62-.268-.178-.468-.38-.6-.605-.13-.225-.196-.493-.196-.806 0-.557.227-.998.68-1.32.455-.324 1.078-.485 1.87-.485.737 0 1.458.15 2.162.45l-.368.844c-.688-.285-1.31-.426-1.87-.426-.49 0-.862.077-1.112.23-.25.155-.375.368-.375.638 0 .184.048.34.142.47.094.128.245.25.453.368.208.117.608.285 1.2.506.813.296 1.36.594 1.647.894.285.3.428.677.428 1.13zm9.225 1.87l-.206-.975h-.05c-.343.43-.684.72-1.023.872-.34.152-.764.228-1.272.228-.68 0-1.21-.175-1.597-.525-.385-.35-.578-.848-.578-1.494 0-1.383 1.106-2.108 3.32-2.175l1.16-.036v-.425c0-.54-.114-.936-.346-1.192-.23-.256-.6-.384-1.11-.384-.57 0-1.216.175-1.936.525l-.32-.795c.338-.183.708-.327 1.11-.43.402-.105.805-.157 1.21-.157.816 0 1.42.18 1.815.543.394.364.59.945.59 1.745v4.675h-.768zm-2.344-.73c.647 0 1.154-.178 1.523-.532.37-.355.553-.85.553-1.488v-.62l-1.037.045c-.826.03-1.42.157-1.786.384-.364.226-.546.58-.546 1.06 0 .374.113.66.34.855.227.196.545.294.953.294zm9.67-1.14c0 .64-.237 1.13-.712 1.476-.476.346-1.142.52-2 .52-.91 0-1.617-.145-2.125-.432v-.963c.33.168.682.3 1.06.395.376.096.74.144 1.09.144.54 0 .958-.088 1.25-.26.29-.174.437-.437.437-.79 0-.268-.116-.496-.347-.686-.23-.19-.682-.413-1.353-.672-.638-.237-1.09-.444-1.36-.62-.268-.178-.468-.38-.6-.605-.13-.225-.196-.493-.196-.806 0-.557.227-.998.68-1.32.455-.324 1.078-.485 1.87-.485.737 0 1.458.15 2.162.45l-.37.844c-.686-.285-1.31-.426-1.867-.426-.493 0-.864.077-1.114.23-.25.155-.375.368-.375.638 0 .184.048.34.142.47.094.128.245.25.453.368.208.117.608.285 1.2.506.813.296 1.36.594 1.647.894.285.3.428.677.428 1.13zm3.925-4.98h1.113l1.5 3.906c.33.892.533 1.536.612 1.93h.05c.054-.21.168-.575.34-1.09.174-.514.74-2.096 1.697-4.746h1.113l-2.944 7.8c-.29.77-.632 1.318-1.022 1.64-.39.324-.867.485-1.434.485-.317 0-.63-.035-.938-.106v-.833c.23.05.486.075.77.075.712 0 1.22-.4 1.524-1.2l.382-.975-2.763-6.887zm13.45 3.42c0 1.115-.28 1.987-.844 2.614-.56.627-1.338.94-2.33.94-.613 0-1.156-.143-1.63-.43-.476-.288-.843-.7-1.1-1.238-.26-.537-.39-1.166-.39-1.887 0-1.118.28-1.988.84-2.61.557-.624 1.332-.935 2.324-.935.958 0 1.72.32 2.284.956.565.64.847 1.5.847 2.59zm-5.22 0c0 .874.176 1.54.526 2 .35.457.866.686 1.545.686.68 0 1.195-.228 1.547-.684.352-.456.528-1.124.528-2.003 0-.872-.176-1.534-.528-1.986-.352-.452-.872-.678-1.56-.678-.68 0-1.19.223-1.537.67-.346.445-.52 1.11-.52 1.993zm8.014-3.42v4.444c0 .558.126.975.38 1.25s.652.412 1.194.412c.716 0 1.24-.196 1.572-.587.33-.393.496-1.032.496-1.92v-3.6h1.038v6.85h-.856l-.15-.92h-.056c-.213.34-.508.597-.885.776-.377.18-.807.27-1.29.27-.834 0-1.458-.2-1.872-.595-.414-.395-.62-1.028-.62-1.9v-4.48h1.05zm15.81 0v.656l-1.267.15c.116.146.22.337.312.572.092.236.138.5.138.797 0 .67-.23 1.206-.688 1.606-.458.4-1.087.6-1.888.6-.204 0-.395-.015-.575-.05-.44.235-.662.528-.662.882 0 .188.077.327.23.416.155.09.42.135.795.135h1.213c.74 0 1.31.156 1.71.468.397.314.596.768.596 1.364 0 .758-.304 1.336-.913 1.734-.607.398-1.495.597-2.66.597-.897 0-1.588-.167-2.073-.5-.486-.333-.728-.804-.728-1.412 0-.417.132-.778.4-1.082.265-.303.64-.51 1.124-.618-.175-.08-.322-.202-.44-.368-.12-.167-.18-.36-.18-.582 0-.25.068-.468.2-.656.134-.187.345-.368.632-.543-.354-.146-.642-.394-.865-.744-.222-.35-.334-.75-.334-1.2 0-.75.225-1.33.675-1.736.45-.406 1.09-.61 1.914-.61.358 0 .68.043.968.126h2.37zm-5.46 8c0 .37.155.652.468.844.312.19.76.287 1.343.287.872 0 1.517-.13 1.936-.39.418-.26.628-.613.628-1.06 0-.37-.115-.627-.344-.77-.23-.144-.66-.216-1.294-.216h-1.243c-.47 0-.838.112-1.1.337-.263.226-.394.55-.394.97zm.56-5.806c0 .48.137.84.407 1.087.27.247.648.37 1.132.37 1.01 0 1.517-.492 1.517-1.475 0-1.03-.512-1.544-1.537-1.544-.488 0-.862.132-1.125.395s-.394.652-.394 1.17zm9.2 4.78c-1.01 0-1.81-.307-2.396-.924-.585-.617-.878-1.473-.878-2.57 0-1.103.272-1.98.816-2.63.544-.65 1.274-.975 2.19-.975.86 0 1.538.282 2.038.847.5.564.75 1.31.75 2.234v.656h-4.72c.022.805.225 1.415.61 1.832.386.416.93.625 1.63.625.736 0 1.465-.155 2.186-.464v.925c-.366.16-.713.273-1.04.342-.327.07-.722.103-1.185.103zm-.28-6.23c-.55 0-.99.18-1.316.537-.327.36-.52.855-.578 1.49h3.582c0-.655-.146-1.156-.438-1.504-.292-.348-.708-.522-1.25-.522zm6.78 5.375c.185 0 .362-.015.532-.042.17-.027.307-.055.407-.084v.794c-.114.054-.28.098-.498.134-.22.035-.416.053-.59.053-1.326 0-1.988-.698-1.988-2.094v-4.074h-.98v-.5l.98-.43.437-1.463h.6v1.587h1.99v.806h-1.99v4.03c0 .414.1.73.295.952.196.22.465.33.806.33zm7.845 0c.183 0 .36-.015.53-.042.172-.027.307-.055.407-.084v.794c-.112.054-.278.098-.496.134-.22.035-.416.053-.59.053-1.326 0-1.99-.698-1.99-2.094v-4.074h-.98v-.5l.98-.43.44-1.463h.6v1.587h1.987v.806h-1.988v4.03c0 .414.098.73.294.952.195.22.463.33.805.33zm6.994.73v-4.43c0-.56-.128-.976-.382-1.25-.255-.276-.653-.414-1.194-.414-.72 0-1.247.196-1.578.588-.332.39-.497 1.033-.497 1.925v3.58h-1.04v-9.725h1.04v2.944c0 .353-.018.647-.05.88h.06c.205-.33.496-.59.873-.778.377-.19.807-.285 1.29-.285.838 0 1.466.2 1.885.597.42.398.628 1.03.628 1.897v4.47h-1.037zm6.06.125c-1.01 0-1.81-.308-2.396-.925-.585-.617-.878-1.473-.878-2.57 0-1.103.272-1.98.816-2.63.544-.65 1.274-.975 2.19-.975.86 0 1.538.282 2.038.847.5.564.75 1.31.75 2.234v.656h-4.72c.022.805.225 1.415.61 1.832.386.416.93.625 1.63.625.736 0 1.465-.155 2.186-.464v.925c-.366.16-.713.273-1.04.342-.327.07-.722.103-1.185.103zm-.28-6.23c-.55 0-.99.178-1.316.536-.327.36-.52.855-.578 1.49h3.58c0-.655-.144-1.156-.436-1.504-.292-.348-.708-.522-1.25-.522zm13.3 6.105v-4.456c0-.546-.117-.955-.35-1.228-.233-.273-.596-.41-1.088-.41-.645 0-1.122.186-1.43.556-.31.37-.463.942-.463 1.713v3.825h-1.04v-4.456c0-.546-.115-.955-.35-1.228-.232-.273-.597-.41-1.093-.41-.65 0-1.126.195-1.428.585-.303.39-.454 1.03-.454 1.916v3.594h-1.037v-6.85h.843l.168.938h.05c.197-.334.473-.594.83-.782.356-.187.755-.28 1.196-.28 1.07 0 1.77.386 2.1 1.162h.05c.204-.36.5-.642.888-.85.387-.21.83-.313 1.325-.313.774 0 1.354.2 1.74.597.385.398.577 1.034.577 1.91v4.468h-1.037zm4.262-1.488l.094.144c-.108.417-.264.9-.47 1.453-.203.55-.415 1.065-.636 1.54h-.78c.11-.433.235-.97.37-1.606.136-.638.23-1.148.285-1.53h1.137zm-141.3 17.257c0 1.115-.28 1.987-.843 2.614-.564.627-1.34.94-2.332.94-.613 0-1.157-.143-1.632-.43-.475-.288-.84-.7-1.1-1.238-.258-.537-.387-1.166-.387-1.887 0-1.118.278-1.988.836-2.61.56-.624 1.334-.935 2.325-.935.96 0 1.72.32 2.286.956.564.64.846 1.5.846 2.59zm-5.218 0c0 .874.175 1.54.525 2 .35.457.863.686 1.543.686.68 0 1.194-.228 1.546-.684.35-.456.528-1.124.528-2.003 0-.872-.177-1.534-.53-1.986-.35-.452-.87-.678-1.558-.678-.68 0-1.192.223-1.538.67-.345.445-.518 1.11-.518 1.993zM40.72 263v-4.43c0-.56-.128-.976-.383-1.25-.254-.276-.652-.414-1.193-.414-.717 0-1.242.194-1.575.582-.335.387-.5 1.027-.5 1.918V263h-1.04v-6.85h.845l.17.938h.05c.21-.338.51-.6.892-.785.384-.185.81-.278 1.282-.278.824 0 1.445.2 1.86.597.418.398.626 1.034.626 1.91V263H40.72zm8.705-.73c.183 0 .36-.015.53-.042.172-.027.307-.055.407-.084v.793c-.112.055-.278.1-.496.135-.22.035-.416.053-.59.053-1.326 0-1.99-.698-1.99-2.094l.002-4.074h-.982v-.5l.982-.43.437-1.464h.6v1.588h1.987v.806h-1.987v4.03c0 .414.098.73.294.952.195.22.463.33.805.33zm6.994.73v-4.43c0-.56-.128-.976-.383-1.25-.254-.276-.652-.414-1.193-.414-.72 0-1.247.196-1.578.588-.332.39-.497 1.033-.497 1.925V263h-1.04v-9.725h1.04v2.944c0 .353-.018.647-.05.88h.06c.205-.33.496-.59.873-.778.377-.19.807-.284 1.29-.284.838 0 1.466.198 1.885.596.42.398.628 1.03.628 1.897V263H56.42zm6.06.125c-1.01 0-1.81-.308-2.396-.925-.585-.617-.878-1.473-.878-2.57 0-1.103.272-1.98.816-2.63.544-.65 1.274-.975 2.19-.975.86 0 1.538.282 2.038.847.5.564.75 1.31.75 2.234v.656h-4.72c.022.805.225 1.415.61 1.832.386.416.93.625 1.63.625.736 0 1.465-.155 2.186-.464v.925c-.366.16-.713.273-1.04.342-.327.07-.722.103-1.185.103zm-.28-6.23c-.55 0-.99.178-1.316.536-.327.36-.52.855-.578 1.49h3.582c0-.655-.146-1.156-.438-1.504-.292-.348-.708-.522-1.25-.522zm13.5-.745v.656l-1.27.15c.118.146.222.337.314.572.09.236.137.5.137.797 0 .67-.228 1.206-.686 1.606-.46.4-1.088.6-1.888.6-.204 0-.396-.015-.575-.05-.44.235-.66.528-.66.882 0 .188.076.327.23.416.154.09.42.135.794.135h1.212c.742 0 1.312.156 1.71.468.398.314.596.768.596 1.364 0 .758-.304 1.336-.912 1.734-.608.398-1.496.597-2.663.597-.895 0-1.586-.167-2.07-.5-.487-.333-.73-.804-.73-1.412 0-.417.134-.778.4-1.082.267-.303.642-.51 1.126-.618-.176-.08-.322-.202-.44-.368-.12-.167-.18-.36-.18-.582 0-.25.067-.468.2-.656.134-.187.344-.368.632-.543-.354-.146-.643-.394-.866-.744-.224-.35-.335-.75-.335-1.2 0-.75.225-1.33.675-1.736.45-.406 1.087-.61 1.912-.61.36 0 .682.043.97.126H75.7zm-5.463 8c0 .37.157.652.47.844.312.19.76.287 1.343.287.87 0 1.516-.13 1.934-.39.42-.26.63-.613.63-1.06-.002-.37-.116-.627-.345-.77-.23-.144-.662-.216-1.295-.216H71.73c-.47 0-.836.112-1.1.337-.26.226-.392.55-.392.97zm.563-5.806c0 .48.135.84.406 1.087.27.247.648.37 1.132.37 1.012 0 1.518-.492 1.518-1.475 0-1.03-.512-1.544-1.537-1.544-.49 0-.864.132-1.126.395-.263.263-.394.652-.394 1.17zm12.22 1.225c0 1.115-.282 1.987-.845 2.614-.563.627-1.34.94-2.33.94-.614 0-1.157-.143-1.632-.43-.476-.288-.842-.7-1.1-1.238-.26-.537-.388-1.166-.388-1.887 0-1.118.28-1.988.838-2.61.558-.624 1.333-.935 2.325-.935.958 0 1.72.32 2.284.956.564.64.847 1.5.847 2.59zm-5.22 0c0 .874.175 1.54.525 2 .35.457.865.686 1.544.686.678 0 1.194-.228 1.546-.684.352-.456.528-1.124.528-2.003 0-.872-.176-1.534-.528-1.986-.352-.452-.872-.678-1.56-.678-.68 0-1.19.223-1.537.67-.347.445-.52 1.11-.52 1.993zm6.888 2.767c0-.28.063-.49.19-.634.127-.144.31-.215.547-.215.242 0 .43.07.566.215.136.144.204.355.204.635 0 .27-.07.48-.207.624-.137.146-.324.22-.562.22-.213 0-.39-.066-.528-.198-.14-.13-.21-.346-.21-.647zM30.8 61.6c-1.326 0-2.4 1.075-2.4 2.4v12.17c-.662 0-1.2.537-1.2 1.2v3.6c0 .662.538 1.2 1.2 1.2v2.4c-.662 0-1.2.537-1.2 1.2v3.6c0 .662.538 1.2 1.2 1.2V136c0 1.326 1.074 2.4 2.4 2.4h36c1.326 0 2.4-1.074 2.4-2.4V64c0-1.325-1.074-2.4-2.4-2.4h-36zm0 57.77v-45.6h30c.664 0 1.2-.538 1.2-1.2 0-.663-.536-1.2-1.2-1.2h-30V64h36v55.37h-36zm0 16.63v-14.23h36V136h-36zm10.8-69.43h9.6c.664 0 1.2.537 1.2 1.2 0 .662-.536 1.2-1.2 1.2h-9.6c-.662 0-1.2-.538-1.2-1.2 0-.663.538-1.2 1.2-1.2zm13.2 1.03c0-.662.538-1.2 1.2-1.2.662 0 1.2.538 1.2 1.2 0 .663-.538 1.2-1.2 1.2-.662 0-1.2-.537-1.2-1.2zm-3.6 61.2c0 1.324-1.076 2.4-2.4 2.4-1.324 0-2.4-1.076-2.4-2.4 0-1.323 1.076-2.4 2.4-2.4 1.324 0 2.4 1.077 2.4 2.4zm2.4 0c0-2.65-2.15-4.8-4.8-4.8s-4.8 2.15-4.8 4.8 2.15 4.8 4.8 4.8 4.8-2.15 4.8-4.8z" fill="#FFF"/>
  </g>
</svg>
