<svg width="45" height="54" viewBox="0 0 45 54" xmlns="http://www.w3.org/2000/svg">
  <path d="M39.958 51.686c-.85.715-1.94 1.28-3.273 1.695-1.333.416-2.79.624-4.375.624-2.143 0-4.23-.324-6.257-.97-2.028-.648-4.418-1.575-7.17-2.782s-4.766-2.052-6.04-2.535c-.6-.212-1.072-.347-1.42-.405-1.7.83-3.36 1.246-4.983 1.246-.83 0-1.5-.13-2.013-.392-.512-.26-.768-.65-.768-1.173 0-.502.274-.893.825-1.173.55-.28 1.357-.42 2.42-.42 1.505 0 3.012.28 4.518.84.773-.193 1.482-.415 2.13-.666.646-.25 1.467-.6 2.462-1.043.994-.443 1.79-.772 2.39-.984-3.69-.348-6.9-1.42-9.633-3.216-2.733-1.796-4.842-4.234-6.33-7.315-1.487-3.08-2.23-6.687-2.23-10.82 0-4.365.888-8.228 2.665-11.588 1.777-3.36 4.26-5.968 7.445-7.822C13.51.93 17.14.005 21.215.005c4.172 0 7.836.85 10.994 2.548 3.157 1.7 5.605 4.167 7.343 7.402C41.29 13.19 42.16 17.038 42.16 21.5c0 4.21-.835 7.957-2.506 11.24-1.67 3.283-4.002 5.876-6.996 7.778-2.994 1.903-6.412 2.95-10.255 3.144-.947.116-1.792.294-2.535.536-.744.24-1.753.622-3.028 1.144-1.274.52-2.385.917-3.33 1.188l5.46.463c2.27.193 4.205.338 5.808.435 1.603.096 3.06.145 4.375.145 1.815 0 3.302-.087 4.46-.26 2.454-.272 4.39-.803 5.81-1.595 1.42-.79 2.612-1.99 3.577-3.592l1.072.32c-.676 4.48-2.047 7.56-4.114 9.24zm-28.39-18.86c1.004 3.13 2.366 5.544 4.085 7.243 1.72 1.7 3.63 2.55 5.736 2.55 2.18 0 4.098-.885 5.75-2.652 1.65-1.767 2.925-4.23 3.823-7.387.898-3.157 1.347-6.773 1.347-10.85 0-4.093-.502-7.71-1.506-10.848-1.004-3.138-2.37-5.557-4.1-7.257-1.728-1.7-3.635-2.55-5.72-2.55-2.183 0-4.1.884-5.75 2.652-1.653 1.767-2.927 4.23-3.825 7.387-.9 3.158-1.348 6.774-1.348 10.85 0 4.113.502 7.734 1.506 10.863z" fill="#121E3F" fill-rule="evenodd"/>
</svg>
