<svg xmlns="http://www.w3.org/2000/svg" width="1139" height="384" viewBox="0 0 1139 384"><path fill="#E4E7EF" d="M662.1 52v-8H470.9v8H317v2h153.9v7h191.3v-7h152.6v-2H662.1zm-2 7H472.9V46h187.3v13zM1066 160.8H917.3l-40.4-40.4v-15.9h-2v16.2L834.6 161H685c-6.1 0-11 4.9-11 11v72h2v-72c0-5 4-9 9-9h149.6l41.4 41.4 41.6-41.6H1066c5 0 9 4 9 9v71.7h2v-71.7c0-6-4.9-11-11-11zm-190 40.8L836.4 162l39.6-39.6 39.6 39.6-39.6 39.6zM452 160.5H302.9l-40.1-40.1v-17.9h-2v18.2L221 160.5H71c-6.1 0-11 4.9-11 11v72h2v-72c0-5 4-9 9-9h149.1l41.9 41.9 41.9-41.9H452c5 0 9 4 9 9v72h2v-72c0-6.1-4.9-11-11-11zm-190 41.1L222.4 162l39.6-39.6 39.6 39.6-39.6 39.6z"/><title>[interludio]adaptive_flow</title><g transform="translate(0 245)"><path fill="#B8BECC" d="M120 139H0V0h120v139zM2 137h116V2H2v135z"/><circle fill="#B8BECC" cx="8.5" cy="8.5" r="2.5"/><circle fill="#B8BECC" cx="16.5" cy="8.5" r="2.5"/><circle fill="#B8BECC" cx="24.5" cy="8.5" r="2.5"/><path fill="#B8BECC" d="M2 14.9h116v2H2z"/><g fill="#575B66"><path d="M46.4 85.2h3.3v1.5h-5.1v-9.2h1.9v7.7zM57.4 83c0 1.2-.3 2.2-.9 2.9-.6.7-1.4 1-2.4 1s-1.9-.3-2.4-1c-.6-.7-.9-1.6-.9-2.9v-1.6c0-1.3.3-2.3.9-3 .6-.7 1.4-1.1 2.5-1.1 1 0 1.8.4 2.4 1.1.6.7.9 1.7.9 2.9V83zm-1.9-1.6c0-.8-.1-1.5-.4-1.9-.2-.4-.6-.6-1.1-.6-.5 0-.9.2-1.1.6-.2.4-.4 1-.4 1.8V83c0 .8.1 1.4.4 1.8s.6.6 1.1.6c.5 0 .8-.2 1.1-.6.2-.4.4-1 .4-1.7v-1.7zM65.5 85.7c-.4.4-.8.7-1.3.9-.5.2-1.1.3-1.7.3-1.1 0-1.9-.3-2.5-1-.6-.7-.9-1.6-.9-2.9v-1.7c0-1.3.3-2.3.8-2.9.6-.7 1.4-1 2.4-1s1.8.2 2.3.7c.5.5.8 1.3.9 2.3h-1.8c-.1-.6-.2-1-.4-1.2-.2-.2-.5-.3-.9-.3-.5 0-.9.2-1.1.6-.2.4-.3 1-.4 1.8V83c0 .8.1 1.5.4 1.8s.7.6 1.2.6c.4 0 .7-.1.9-.2l.2-.1v-1.7h-1.3V82h3.2v3.7zM69.2 86.8h-1.9v-9.2h1.9v9.2zM77.8 86.8h-1.9l-2.7-6.1v6.1h-1.9v-9.2h1.9l2.7 6.1v-6.1h1.9v9.2z"/></g></g><g transform="rotate(-90 227 110.5)"><path fill="#E4E7EF" d="M2 443V0h2v443c0 5 4 9 9 9h260v2H13c-6.1 0-11-4.9-11-11z"/><circle fill="#575B66" cx="3" cy="3" r="3"/><path fill="#575B66" d="M272 456v-6l3 3"/></g><path fill="#E4E7EF" d="M114 302H7v-22h107v22zM9 300h103v-18H9v18z"/><g fill="#575B66"><path d="M17.8 295.1h-1.2v-9.3h1.2v9.3zM20.9 288.2v.7c.4-.6 1-.9 1.7-.9 1.2 0 1.8.8 1.8 2.4v4.6h-1.1v-4.5c0-.5-.1-.9-.3-1.1-.2-.2-.4-.3-.8-.3-.3 0-.5.1-.8.3-.2.2-.4.4-.5.7v5h-1.1v-6.9h1.1zM28.3 293.3l1.3-5.2h1.1l-2 6.9h-.8l-2.1-6.9H27l1.3 5.2zM35.6 295.1c-.1-.1-.1-.4-.1-.7-.4.6-.9.9-1.5.9s-1.1-.2-1.5-.5c-.3-.3-.5-.8-.5-1.5s.2-1.3.7-1.7c.5-.4 1.1-.6 1.9-.6h.8v-.7c0-.4-.1-.7-.3-.9-.1-.3-.4-.4-.8-.4-.3 0-.6.1-.8.3s-.3.5-.3.8h-1.1c0-.4.1-.7.3-1s.5-.6.8-.8c.4-.2.7-.3 1.2-.3.7 0 1.2.2 1.6.5.4.3.6.9.6 1.5v3.5c0 .5.1 1 .2 1.4v.1h-1.2zm-1.5-.9c.3 0 .5-.1.8-.2s.4-.3.5-.6v-1.6h-.6c-.5 0-1 .1-1.3.4s-.5.6-.5 1 .1.7.2.8.5.2.9.2zM39.7 295.1h-1.1v-9.8h1.1v9.8zM43 286.4c0 .2-.1.3-.2.5s-.2.1-.5.1c-.2 0-.3 0-.4-.2s-.2-.3-.2-.5.1-.4.2-.5c.1-.1.3-.2.5-.2s.4.1.5.2c0 .2.1.4.1.6zm-.1 8.7h-1.1v-6.9h1.1v6.9zM44.6 291.3c0-1.1.2-1.9.6-2.4.4-.6 1-.8 1.7-.8s1.2.3 1.5.8v-3.6h1.1v9.8h-1l-.1-.7c-.4.6-.9.9-1.6.9-.7 0-1.3-.3-1.7-.8-.4-.6-.6-1.3-.6-2.3v-.9zm1.2.6c0 .8.1 1.3.3 1.7.2.4.6.5 1.1.5.6 0 1-.3 1.3-.8v-3.4c-.3-.5-.7-.8-1.2-.8s-.9.2-1.1.5-.3.9-.3 1.7v.6zM59.7 291.9c0 1.1-.2 1.9-.6 2.4-.4.5-.9.8-1.7.8-.7 0-1.2-.3-1.6-.8v3.3h-1.1v-9.4h1l.1.8c.4-.6.9-.9 1.6-.9.8 0 1.3.3 1.7.8s.6 1.3.6 2.4v.6zm-1.1-.6c0-.8-.1-1.3-.4-1.7s-.6-.5-1.1-.5c-.5 0-.9.3-1.2.8v3.6c.3.5.7.8 1.2.8s.9-.2 1.1-.5c.2-.4.4-.9.4-1.7v-.8zM64.9 295.1c-.1-.1-.1-.4-.1-.7-.4.6-.9.9-1.5.9s-1.1-.2-1.5-.5c-.3-.3-.5-.8-.5-1.5s.2-1.3.7-1.7c.5-.4 1.1-.6 1.9-.6h.8v-.7c0-.4-.1-.7-.3-.9-.2-.3-.4-.4-.8-.4-.3 0-.6.1-.8.3s-.3.5-.3.8h-1.1c0-.4.1-.7.3-1s.5-.6.8-.8c.4-.2.7-.3 1.2-.3.7 0 1.2.2 1.6.5.4.3.6.9.6 1.5v3.5c0 .5.1 1 .2 1.4v.1h-1.2zm-1.5-.9c.3 0 .5-.1.8-.2s.4-.3.5-.6v-1.6h-.6c-.5 0-1 .1-1.3.4s-.5.6-.5 1 .1.7.2.8.5.2.9.2zM71.1 293.3c0-.2-.1-.4-.3-.6-.2-.2-.5-.4-1.1-.6-.6-.2-1-.5-1.3-.6l-.6-.6s-.2-.5-.2-.8c0-.6.2-1 .6-1.4.4-.4.9-.6 1.6-.6.7 0 1.2.2 1.6.6s.6.9.6 1.5h-1c0-.3-.1-.6-.3-.8s-.4-.4-.8-.4c-.3 0-.6.1-.8.3-.1.1-.2.4-.2.7 0 .2.1.4.2.6.1.1.5.3 1 .6.8.3 1.4.6 1.7 1s.5.7.5 1.2c0 .6-.2 1.1-.6 1.4s-1 .5-1.7.5-1.3-.2-1.7-.6c-.4-.4-.7-.9-.7-1.6h1.1c0 .4.1.7.3.9s.5.3.9.3.7-.1.9-.2.3-.5.3-.8zM77.2 293.3c0-.2-.1-.4-.3-.6-.2-.2-.5-.4-1.1-.6-.6-.2-1-.5-1.3-.6l-.6-.6s-.2-.5-.2-.8c0-.6.2-1 .6-1.4.4-.4.9-.6 1.6-.6.7 0 1.2.2 1.6.6s.6.9.6 1.5H77c0-.3-.1-.6-.3-.8s-.3-.4-.6-.4-.6.1-.8.3c-.2.1-.3.4-.3.7 0 .2.1.4.2.6.1.1.5.3 1 .6.8.3 1.4.6 1.7 1s.5.7.5 1.2c0 .6-.2 1.1-.6 1.4s-1 .5-1.7.5-1.3-.2-1.7-.6c-.4-.4-.7-.9-.7-1.6h1.1c0 .4.1.7.3.9s.5.3.9.3.7-.1.9-.2.3-.5.3-.8zM85.1 293.1l1-4.9h1.1l-1.7 6.9h-.9l-1.3-4.9-1.3 4.9h-.9l-1.7-6.9h1.1l1.1 4.8 1.3-4.8h.9l1.3 4.9zM88.4 291.3c0-1 .2-1.8.7-2.4.5-.6 1.1-.9 1.9-.9s1.4.3 1.9.9c.5.6.7 1.3.7 2.3v.7c0 1-.2 1.8-.7 2.4-.5.6-1.1.9-1.9.9-.8 0-1.4-.3-1.9-.8-.5-.6-.7-1.3-.7-2.3v-.8zm1.2.6c0 .7.1 1.3.4 1.7.3.4.7.6 1.1.6 1 0 1.5-.7 1.5-2.1v-.8c0-.7-.1-1.3-.4-1.7s-.6-.6-1.1-.6c-.5 0-.8.2-1.1.6-.3.4-.4 1-.4 1.7v.6zM98.2 289.2h-.5c-.6 0-1 .3-1.2.9v4.9h-1.1v-6.8h1.1v.7c.3-.5.7-.8 1.3-.8.2 0 .3 0 .4.1v1zM99.2 291.3c0-1.1.2-1.9.6-2.4.4-.6 1-.8 1.7-.8s1.2.3 1.5.8v-3.6h1.1v9.8h-1l-.1-.7c-.4.6-.9.9-1.6.9-.7 0-1.3-.3-1.7-.8-.4-.6-.6-1.3-.6-2.3v-.9zm1.1.6c0 .8.1 1.3.3 1.7.2.4.6.5 1.1.5.6 0 1-.3 1.3-.8v-3.4c-.3-.5-.7-.8-1.2-.8s-.9.2-1.1.5-.3.9-.3 1.7v.6z"/></g><g transform="rotate(-90 210.5 94.5)"><path fill="#E4E7EF" d="M2 136V0h2v136c0 5 4 9 9 9h82.5v2H13c-6.1 0-11-4.9-11-11z"/><circle fill="#575B66" cx="3" cy="3" r="3"/><path fill="#575B66" d="M94 149v-6l3 3"/></g><path fill="#B8BECC" d="M321 105H201V0h120v105zm-118-2h116V2H203v101z"/><circle fill="#B8BECC" cx="209.5" cy="8.5" r="2.5"/><circle fill="#B8BECC" cx="217.5" cy="8.5" r="2.5"/><circle fill="#B8BECC" cx="225.5" cy="8.5" r="2.5"/><path fill="#B8BECC" d="M203 14.7h116v2H203z"/><g fill="#575B66"><path d="M244.2 58.5h3.3V60h-5.1v-9.2h1.9v7.7zM255.2 56.2c0 1.2-.3 2.2-.9 2.9-.6.7-1.4 1-2.4 1s-1.9-.3-2.4-1c-.6-.7-.9-1.6-.9-2.9v-1.6c0-1.3.3-2.3.9-3 .6-.7 1.4-1.1 2.5-1.1 1 0 1.8.4 2.4 1.1.6.7.9 1.7.9 2.9v1.7zm-1.9-1.5c0-.8-.1-1.5-.4-1.9-.2-.4-.6-.6-1.1-.6-.5 0-.9.2-1.1.6-.2.4-.4 1-.4 1.8v1.6c0 .8.1 1.4.4 1.8s.6.6 1.1.6c.5 0 .8-.2 1.1-.6.2-.4.4-1 .4-1.7v-1.6zM263.3 59c-.4.4-.8.7-1.3.9-.5.2-1.1.3-1.7.3-1.1 0-1.9-.3-2.5-1-.6-.7-.9-1.6-.9-2.9v-1.7c0-1.3.3-2.3.8-2.9.6-.7 1.4-1 2.4-1s1.8.2 2.3.7c.5.5.8 1.3.9 2.3h-1.8c-.1-.6-.2-1-.4-1.2-.2-.2-.5-.3-.9-.3-.5 0-.9.2-1.1.6-.2.4-.3 1-.4 1.8v1.7c0 .8.1 1.5.4 1.8s.7.6 1.2.6c.4 0 .7-.1.9-.2l.2-.1v-1.7h-1.3v-1.4h3.2V59zM267.1 60h-1.9v-9.2h1.9V60zM275.6 60h-1.9l-2.7-6.1V60h-1.9v-9.2h1.9l2.7 6.1v-6.1h1.9V60z"/></g><circle fill="#575B66" cx="261.8" cy="104.5" r="3"/><path fill="#575B66" d="M58 241.5h6l-3 3"/><path fill="#B8BECC" d="M938 105H818V0h120v105zm-118-2h116V2H820v101z"/><circle fill="#B8BECC" cx="826.5" cy="8.5" r="2.5"/><circle fill="#B8BECC" cx="834.5" cy="8.5" r="2.5"/><circle fill="#B8BECC" cx="842.5" cy="8.5" r="2.5"/><path fill="#B8BECC" d="M820 14.7h116v2H820z"/><g fill="#575B66"><path d="M853.7 48.1h-.9v3.4h-1.9v-9.2h3c.9 0 1.7.2 2.2.7.5.5.8 1.2.8 2.1 0 1.2-.4 2.1-1.3 2.6l1.6 3.8v.1h-2l-1.5-3.5zm-.9-1.5h1.1c.4 0 .7-.1.8-.4.2-.2.3-.6.3-1 0-.9-.4-1.4-1.1-1.4h-1.1v2.8zM863.4 47.5h-2.9V50h3.4v1.5h-5.3v-9.2h5.3v1.6h-3.4V46h2.9v1.5zM871.6 43.8h-2.3v7.7h-1.9v-7.7h-2.2v-1.6h6.4v1.6zM875.9 48.1h-.9v3.4h-1.9v-9.2h3c.9 0 1.7.2 2.2.7s.8 1.2.8 2.1c0 1.2-.4 2.1-1.3 2.6l1.6 3.8v.1h-2l-1.5-3.5zm-.9-1.5h1.1c.4 0 .7-.1.8-.4.2-.2.3-.6.3-1 0-.9-.4-1.4-1.1-1.4H875v2.8zM882.8 51.5h-1.9v-9.2h1.9v9.2zM889.6 47.5h-2.9V50h3.4v1.5h-5.3v-9.2h5.3v1.6h-3.4V46h2.9v1.5zM894.7 49l1.6-6.7h2.1l-2.7 9.2h-1.9l-2.6-9.2h2.1l1.4 6.7zM904.5 47.5h-2.9V50h3.4v1.5h-5.3v-9.2h5.3v1.6h-3.4V46h2.9v1.5zM848.5 63.8V67h-1.9v-9.2h3.1c.9 0 1.6.3 2.2.9s.8 1.3.8 2.2-.3 1.6-.8 2.1-1.3.8-2.2.8h-1.2zm0-1.5h1.3c.4 0 .6-.1.8-.3.2-.2.3-.6.3-1 0-.5-.1-.8-.3-1.1-.2-.3-.5-.4-.8-.4h-1.3v2.8zM857.8 65.2h-2.5l-.5 1.9h-2l2.9-9.2h1.7l2.9 9.2h-2l-.5-1.9zm-2.1-1.5h1.7l-.9-3.3-.8 3.3zM865.6 64.7c0-.4-.1-.7-.3-.9-.2-.2-.5-.4-1.1-.6-.9-.4-1.6-.8-2-1.2s-.6-1-.6-1.7c0-.8.3-1.4.8-1.9.6-.5 1.3-.7 2.1-.7.6 0 1.1.1 1.5.4s.8.6 1 1c.2.4.4.9.4 1.5h-1.9c0-.4-.1-.8-.3-1-.2-.2-.4-.3-.8-.3-.3 0-.6.1-.8.3s-.3.5-.3.8c0 .3.1.5.3.7s.6.4 1.1.6c.9.3 1.6.7 2 1.2.4.5.6 1.1.6 1.8 0 .8-.3 1.4-.8 1.9s-1.2.7-2.1.7c-.6 0-1.1-.1-1.6-.4s-.9-.6-1.2-1.1-.4-1-.4-1.6h1.9c0 .5.1.9.3 1.2.2.2.5.4 1 .4.9-.1 1.2-.4 1.2-1.1zM873.1 64.7c0-.4-.1-.7-.3-.9-.2-.2-.5-.4-1-.6-.9-.4-1.6-.8-2-1.2s-.6-1-.6-1.7c0-.8.3-1.4.8-1.9s1.3-.7 2.1-.7c.6 0 1.1.1 1.5.4s.8.6 1 1c.2.4.4.9.4 1.5h-1.9c0-.4-.1-.8-.3-1s-.4-.3-.8-.3c-.3 0-.6.1-.8.3s-.2.4-.2.7c0 .3.1.5.3.7s.6.4 1.1.6c.9.3 1.6.7 2 1.2.4.5.6 1.1.6 1.8 0 .8-.3 1.4-.8 1.9s-1.2.7-2.1.7c-.6 0-1.1-.1-1.6-.4s-.9-.6-1.2-1.1c-.3-.5-.4-1-.4-1.6h1.9c0 .5.1.9.3 1.2.2.2.5.4 1 .4.7 0 1-.3 1-1zM882.7 63.7l.9-5.8h1.8l-1.6 9.2h-1.9l-1.1-5.4-1.1 5.4h-1.9l-1.7-9.2h1.9l.9 5.8 1.1-5.8h1.6l1.1 5.8zM893.5 63.3c0 1.2-.3 2.2-.9 2.9-.6.7-1.4 1-2.4 1s-1.9-.3-2.4-1c-.6-.7-.9-1.6-.9-2.9v-1.6c0-1.3.3-2.3.9-3s1.4-1.1 2.5-1.1c1 0 1.8.4 2.4 1.1.6.7.9 1.7.9 2.9v1.7zm-1.9-1.5c0-.8-.1-1.5-.4-1.9s-.6-.6-1.1-.6c-.5 0-.9.2-1.1.6-.2.4-.4 1-.4 1.8v1.6c0 .8.1 1.4.4 1.8s.6.6 1.1.6c.5 0 .8-.2 1.1-.6.2-.4.4-1 .4-1.7v-1.6zM898.1 63.7h-.9v3.4h-1.9v-9.2h3c.9 0 1.7.2 2.2.7.5.5.8 1.2.8 2.1 0 1.2-.4 2.1-1.3 2.6l1.6 3.8v.1h-2l-1.5-3.5zm-.9-1.5h1.1c.4 0 .7-.1.8-.4.2-.2.3-.6.3-1 0-.9-.4-1.4-1.1-1.4h-1.1v2.8zM903 67.1v-9.2h2.4c1.1 0 1.9.3 2.6 1 .6.7 1 1.6 1 2.8v1.5c0 1.2-.3 2.2-1 2.9-.6.7-1.5 1-2.7 1H903zm1.8-7.7v6.1h.6c.6 0 1.1-.2 1.3-.5s.4-.9.4-1.7v-1.6c0-.9-.1-1.5-.4-1.8s-.7-.5-1.2-.5h-.7z"/></g><g fill="#575B66"><path d="M244.1 163.3c0 .9-.2 1.6-.5 2.1s-.8.7-1.4.7c-.5 0-.9-.2-1.1-.6v2.7h-1.5v-8h1.4l.1.5c.3-.4.7-.6 1.2-.6.6 0 1.1.2 1.4.7.3.5.5 1.1.5 2.1v.4zm-1.5-.4c0-.6-.1-1-.2-1.2-.1-.2-.3-.4-.6-.4s-.5.1-.7.4v2.7c.1.3.4.4.7.4.3 0 .5-.1.6-.4.1-.3.2-.7.2-1.2v-.3zM246.7 160.7c.3-.4.7-.6 1.2-.6s.9.2 1.2.6.4.9.4 1.7v3.7H248v-3.7c0-.3-.1-.6-.2-.7-.1-.2-.3-.2-.5-.2-.3 0-.5.1-.6.4v4.3h-1.5V158h1.5v2.7zM255.3 163.3c0 .9-.2 1.6-.5 2.1s-.8.7-1.4.7c-.5 0-.9-.2-1.1-.6v2.7h-1.5v-8h1.4l.1.5c.3-.4.7-.6 1.2-.6.6 0 1.1.2 1.4.7.3.5.5 1.1.5 2.1v.4zm-1.5-.4c0-.6-.1-1-.2-1.2-.1-.2-.3-.4-.6-.4s-.5.1-.7.4v2.7c.1.3.4.4.7.4.3 0 .5-.1.6-.4.1-.3.2-.7.2-1.2v-.3zM261.7 164.4c0-.1-.1-.2-.2-.4-.1-.1-.4-.3-.8-.4-.6-.3-1.1-.5-1.3-.8-.2-.3-.4-.6-.4-1 0-.5.2-.9.6-1.3.4-.3.9-.5 1.5-.5s1.1.2 1.5.5.6.8.6 1.3h-1.5c0-.5-.2-.7-.6-.7-.2 0-.3 0-.4.2-.1.1-.2.2-.2.4 0 .1.1.2.2.3s.4.2.8.4c.6.2 1.1.5 1.3.8.3.3.4.6.4 1.1 0 .5-.2.9-.6 1.3s-.9.5-1.5.5c-.4 0-.8-.1-1.1-.2-.3-.2-.6-.4-.8-.7-.2-.3-.3-.6-.3-1h1.4c0 .3.1.5.2.6.1.1.3.2.6.2.4 0 .6-.2.6-.6zM266.4 164.9c.4 0 .7-.3.7-.9h1.4c0 .6-.2 1.1-.6 1.5-.4.4-.9.6-1.5.6-.7 0-1.3-.2-1.7-.7s-.6-1.2-.6-2.1v-.5c0-.9.2-1.6.6-2.1.4-.5 1-.7 1.7-.7.6 0 1.1.2 1.5.6s.6 1 .6 1.7h-1.4c0-.3-.1-.6-.2-.8-.1-.2-.3-.3-.5-.3-.3 0-.5.1-.6.3s-.2.6-.2 1.1v.6c0 .5 0 .8.1 1s.1.3.2.4.3.3.5.3zM272.4 161.7h-.5c-.4 0-.7.2-.8.5v3.8h-1.5v-5.8h1.4v.6c.2-.5.6-.7 1-.7.2 0 .3 0 .4.1v1.5zM273.4 158.7c0-.2.1-.4.2-.6s.4-.2.6-.2.5.1.6.2.2.3.2.6c0 .2-.1.4-.2.6-.1.2-.3.2-.6.2s-.5-.1-.6-.2c-.1-.2-.2-.4-.2-.6zm1.6 7.3h-1.5v-5.8h1.5v5.8zM280.9 163.3c0 .9-.2 1.6-.5 2.1s-.8.7-1.4.7c-.5 0-.9-.2-1.1-.6v2.7h-1.5v-8h1.4l.1.5c.3-.4.7-.6 1.2-.6.6 0 1.1.2 1.4.7.3.5.5 1.1.5 2.1v.4zm-1.6-.4c0-.6-.1-1-.2-1.2-.1-.2-.3-.4-.6-.4s-.5.1-.7.4v2.7c.1.3.4.4.7.4.3 0 .5-.1.6-.4.1-.3.2-.7.2-1.2v-.3zM283.7 158.8v1.4h.8v1.1h-.8v2.9c0 .2 0 .4.1.5.1.1.2.1.4.1h.4v1.2c-.3.1-.5.1-.8.1-1 0-1.5-.6-1.5-1.7v-3.1h-.7v-1.1h.7v-1.4h1.4z"/></g><path fill="#FF6660" d="M118 152h68v20h-68z"/><g fill="#FFF"><path d="M142.8 162.7h-3.3v3.3h3.8v1h-5v-9.2h4.9v1h-3.7v3h3.3v.9zM147.8 161.2h-.5c-.6 0-1 .3-1.2.9v4.9H145v-6.9h1.1v.7c.3-.5.7-.8 1.3-.8.2 0 .3 0 .4.1v1.1zM151.9 161.2h-.5c-.6 0-1 .3-1.2.9v4.9h-1.1v-6.9h1.1v.7c.3-.5.7-.8 1.3-.8.2 0 .3 0 .4.1v1.1zM152.9 163.2c0-1 .2-1.8.7-2.4.5-.6 1.1-.9 1.9-.9s1.4.3 1.9.9c.5.6.7 1.3.7 2.3v.7c0 1-.2 1.8-.7 2.4-.5.6-1.1.9-1.9.9-.8 0-1.4-.3-1.9-.8-.5-.6-.7-1.3-.7-2.3v-.8zm1.1.7c0 .7.1 1.3.4 1.7.3.4.7.6 1.1.6 1 0 1.5-.7 1.5-2.1v-.8c0-.7-.1-1.3-.4-1.7s-.7-.6-1.1-.6c-.5 0-.8.2-1.1.6-.3.4-.4 1-.4 1.7v.6zM162.7 161.2h-.5c-.6 0-1 .3-1.2.9v4.9h-1.1v-6.9h1.1v.7c.3-.5.7-.8 1.3-.8.2 0 .3 0 .4.1v1.1zM164.8 165.7c.2 0 .4.1.5.2.1.1.2.3.2.5s-.1.4-.2.5c-.1.1-.3.2-.5.2s-.4-.1-.5-.2-.2-.3-.2-.5.1-.4.2-.5c.1-.1.3-.2.5-.2zm.5-1.3h-1l-.1-6.6h1.2l-.1 6.6z"/></g><path fill="#4CBA38" d="M331 152h78v20h-78z"/><g fill="#FFF"><path d="M351.1 164.7c0-.5-.1-.8-.4-1.1-.2-.2-.7-.5-1.4-.7s-1.1-.5-1.5-.7c-.3-.3-.6-.5-.8-.9-.2-.3-.3-.7-.3-1.1 0-.7.2-1.3.7-1.8.5-.5 1.1-.7 1.9-.7.5 0 1 .1 1.4.4.4.2.7.6 1 1s.3.9.3 1.4h-1.2c0-.6-.1-1-.4-1.3-.3-.3-.7-.5-1.2-.5s-.8.1-1.1.4-.4.6-.4 1.1c0 .4.1.7.4 1s.7.5 1.3.7c.9.3 1.6.7 2 1.1.4.4.6 1 .6 1.7s-.2 1.3-.7 1.8c-.5.5-1.1.7-2 .7-.5 0-1-.1-1.5-.4-.5-.2-.8-.6-1.1-1-.3-.4-.4-.9-.4-1.5h1.2c0 .6.2 1 .5 1.3.3.3.8.5 1.3.5s.9-.1 1.2-.4c.5-.2.6-.6.6-1zM357.4 166.4c-.4.5-.9.7-1.6.7-.6 0-1.1-.2-1.4-.6s-.5-1.1-.5-1.9v-4.5h1.1v4.4c0 1.1.3 1.6 1 1.6s1.2-.3 1.4-.9v-5.1h1.1v6.9h-1.1v-.6zM362.8 166.2c.4 0 .7-.1.9-.3s.3-.6.4-1h1.1c0 .7-.3 1.2-.7 1.6-.4.4-1 .7-1.6.7-.9 0-1.5-.3-1.9-.8-.4-.5-.7-1.3-.7-2.4v-.8c0-1 .2-1.8.7-2.4.4-.5 1.1-.8 1.9-.8.7 0 1.3.2 1.7.7.4.4.6 1.1.7 1.8H364c0-.5-.1-.9-.4-1.1-.2-.3-.5-.4-.9-.4-.5 0-.9.2-1.1.5s-.4.9-.4 1.6v.9c0 .8.1 1.4.4 1.7.3.3.6.5 1.2.5zM369 166.2c.4 0 .7-.1.9-.3s.3-.6.4-1h1.1c0 .7-.3 1.2-.7 1.6-.4.4-1 .7-1.6.7-.9 0-1.5-.3-1.9-.8-.4-.5-.7-1.3-.7-2.4v-.8c0-1 .2-1.8.7-2.4.4-.5 1.1-.8 1.9-.8.7 0 1.3.2 1.7.7.4.4.6 1.1.7 1.8h-1.1c0-.5-.1-.9-.4-1.1-.2-.3-.5-.4-.9-.4-.5 0-.9.2-1.1.5s-.4.9-.4 1.6v.9c0 .8.1 1.4.4 1.7.1.3.4.5 1 .5zM375.2 167.1c-.9 0-1.5-.3-2-.8s-.7-1.3-.7-2.2v-.8c0-1 .2-1.8.7-2.4.4-.6 1.1-.9 1.9-.9.8 0 1.4.3 1.8.8.4.5.6 1.3.6 2.4v.7h-3.8v.2c0 .7.1 1.3.4 1.6.3.3.7.5 1.2.5.3 0 .6-.1.9-.2.3-.1.5-.3.7-.6l.6.7c-.5.7-1.3 1-2.3 1zm-.1-6.1c-.5 0-.8.2-1 .5s-.4.8-.4 1.5h2.7v-.2c0-.7-.1-1.1-.4-1.4-.1-.3-.5-.4-.9-.4zM382.4 165.2c0-.2-.1-.4-.3-.6-.2-.2-.5-.4-1.1-.6-.6-.2-1-.5-1.3-.6l-.6-.6s-.2-.5-.2-.8c0-.6.2-1 .6-1.4.4-.4.9-.6 1.6-.6.7 0 1.2.2 1.6.6s.6.9.6 1.5h-1.1c0-.3-.1-.6-.3-.8s-.5-.3-.8-.3c-.3 0-.6.1-.8.3-.2.2-.3.4-.3.7 0 .2.1.4.2.6.1.1.5.3 1 .6.8.3 1.4.6 1.7 1s.5.7.5 1.2c0 .6-.2 1.1-.6 1.4s-1 .5-1.7.5-1.3-.2-1.7-.6c-.4-.4-.7-.9-.7-1.6h1.1c0 .4.1.7.3.9s.5.3.9.3.7-.1.9-.2.5-.6.5-.9zM388.6 165.2c0-.2-.1-.4-.3-.6-.2-.2-.5-.4-1.1-.6-.6-.2-1-.5-1.3-.6l-.6-.6s-.2-.5-.2-.8c0-.6.2-1 .6-1.4.4-.4.9-.6 1.6-.6.7 0 1.2.2 1.6.6s.6.9.6 1.5h-1.1c0-.3-.1-.6-.3-.8s-.5-.3-.8-.3c-.3 0-.6.1-.8.3-.2.2-.3.4-.3.7 0 .2.1.4.2.6.1.1.5.3 1 .6.8.3 1.4.6 1.7 1s.5.7.5 1.2c0 .6-.2 1.1-.6 1.4s-1 .5-1.7.5-1.3-.2-1.7-.6c-.4-.4-.7-.9-.7-1.6h1.1c0 .4.1.7.3.9s.5.3.9.3.7-.1.9-.2.5-.6.5-.9zM392.1 165.7c.2 0 .4.1.5.2.1.1.2.3.2.5s-.1.4-.2.5c-.1.1-.3.2-.5.2s-.4-.1-.5-.2-.2-.3-.2-.5.1-.4.2-.5c.2-.1.3-.2.5-.2zm.5-1.3h-1l-.1-6.6h1.2l-.1 6.6z"/></g><circle fill="#575B66" cx="875.8" cy="104.5" r="3"/><path fill="#575B66" d="M1073 241.5h6l-3 3M672 241.5h6l-3 3"/><g fill="#575B66"><path d="M858.1 163.3c0 .9-.2 1.6-.5 2.1s-.8.7-1.4.7c-.5 0-.9-.2-1.1-.6v2.7h-1.5v-8h1.4l.1.5c.3-.4.7-.6 1.2-.6.6 0 1.1.2 1.4.7.3.5.5 1.1.5 2.1v.4zm-1.5-.4c0-.6-.1-1-.2-1.2-.1-.2-.3-.4-.6-.4s-.5.1-.7.4v2.7c.1.3.4.4.7.4.3 0 .5-.1.6-.4s.2-.7.2-1.2v-.3zM860.7 160.7c.3-.4.7-.6 1.2-.6s.9.2 1.2.6c.3.4.4.9.4 1.7v3.7H862v-3.7c0-.3-.1-.6-.2-.7-.1-.2-.3-.2-.5-.2-.3 0-.5.1-.6.4v4.3h-1.5V158h1.5v2.7zM869.3 163.3c0 .9-.2 1.6-.5 2.1s-.8.7-1.4.7c-.5 0-.9-.2-1.1-.6v2.7h-1.5v-8h1.4l.1.5c.3-.4.7-.6 1.2-.6.6 0 1.1.2 1.4.7s.5 1.1.5 2.1v.4zm-1.5-.4c0-.6-.1-1-.2-1.2-.1-.2-.3-.4-.6-.4s-.5.1-.7.4v2.7c.1.3.4.4.7.4.3 0 .5-.1.6-.4.1-.3.2-.7.2-1.2v-.3zM875.7 164.4c0-.1-.1-.2-.2-.4-.1-.1-.4-.3-.8-.4-.6-.3-1.1-.5-1.3-.8s-.4-.6-.4-1c0-.5.2-.9.6-1.3.4-.3.9-.5 1.5-.5s1.1.2 1.5.5c.4.3.6.8.6 1.3h-1.5c0-.5-.2-.7-.6-.7-.2 0-.3 0-.4.2-.1.1-.2.2-.2.4 0 .1.1.2.2.3.1.1.4.2.8.4.6.2 1.1.5 1.3.8s.4.6.4 1.1c0 .5-.2.9-.6 1.3-.4.3-.9.5-1.5.5-.4 0-.8-.1-1.1-.2-.3-.2-.6-.4-.8-.7s-.3-.6-.3-1h1.4c0 .3.1.5.2.6s.3.2.6.2c.4 0 .6-.2.6-.6zM880.4 164.9c.4 0 .7-.3.7-.9h1.4c0 .6-.2 1.1-.6 1.5-.4.4-.9.6-1.5.6-.7 0-1.3-.2-1.7-.7-.4-.5-.6-1.2-.6-2.1v-.5c0-.9.2-1.6.6-2.1s1-.7 1.7-.7c.6 0 1.1.2 1.5.6.4.4.6 1 .6 1.7h-1.4c0-.3-.1-.6-.2-.8-.1-.2-.3-.3-.5-.3-.3 0-.5.1-.6.3-.1.2-.2.6-.2 1.1v.6c0 .5 0 .8.1 1 0 .2.1.3.2.4s.3.3.5.3zM886.4 161.7h-.5c-.4 0-.7.2-.8.5v3.8h-1.5v-5.8h1.4v.6c.2-.5.6-.7 1-.7.2 0 .3 0 .4.1v1.5zM887.4 158.7c0-.2.1-.4.2-.6s.4-.2.6-.2c.3 0 .5.1.6.2s.2.3.2.6c0 .2-.1.4-.2.6s-.3.2-.6.2-.5-.1-.6-.2c-.1-.2-.2-.4-.2-.6zm1.6 7.3h-1.5v-5.8h1.5v5.8zM894.9 163.3c0 .9-.2 1.6-.5 2.1s-.8.7-1.4.7c-.5 0-.9-.2-1.1-.6v2.7h-1.5v-8h1.4l.1.5c.3-.4.7-.6 1.2-.6.6 0 1.1.2 1.4.7s.5 1.1.5 2.1v.4zm-1.6-.4c0-.6-.1-1-.2-1.2-.1-.2-.3-.4-.6-.4s-.5.1-.7.4v2.7c.1.3.4.4.7.4.3 0 .5-.1.6-.4.1-.3.2-.7.2-1.2v-.3zM897.7 158.8v1.4h.8v1.1h-.8v2.9c0 .2 0 .4.1.5.1.1.2.1.4.1h.4v1.2c-.3.1-.5.1-.8.1-1 0-1.5-.6-1.5-1.7v-3.1h-.7v-1.1h.7v-1.4h1.4z"/></g><path fill="#FF6660" d="M955 152h68v20h-68z"/><g fill="#FFF"><path d="M979.8 162.7h-3.3v3.3h3.8v1h-5v-9.2h4.9v1h-3.7v3h3.3v.9zM984.8 161.2h-.5c-.6 0-1 .3-1.2.9v4.9H982v-6.9h1.1v.7c.3-.5.7-.8 1.3-.8.2 0 .3 0 .4.1v1.1zM988.9 161.2h-.5c-.6 0-1 .3-1.2.9v4.9h-1.1v-6.9h1.1v.7c.3-.5.7-.8 1.3-.8.2 0 .3 0 .4.1v1.1zM989.9 163.2c0-1 .2-1.8.7-2.4s1.1-.9 1.9-.9c.8 0 1.4.3 1.9.9.5.6.7 1.3.7 2.3v.7c0 1-.2 1.8-.7 2.4-.5.6-1.1.9-1.9.9-.8 0-1.4-.3-1.9-.8-.5-.6-.7-1.3-.7-2.3v-.8zm1.1.7c0 .7.1 1.3.4 1.7s.7.6 1.1.6c1 0 1.5-.7 1.5-2.1v-.8c0-.7-.1-1.3-.4-1.7s-.7-.6-1.1-.6c-.5 0-.8.2-1.1.6s-.4 1-.4 1.7v.6zM999.7 161.2h-.5c-.6 0-1 .3-1.2.9v4.9h-1.1v-6.9h1.1v.7c.3-.5.7-.8 1.3-.8.2 0 .3 0 .4.1v1.1zM1001.8 165.7c.2 0 .4.1.5.2.1.1.2.3.2.5s-.1.4-.2.5c-.1.1-.3.2-.5.2s-.4-.1-.5-.2c-.1-.1-.2-.3-.2-.5s.1-.4.2-.5c.1-.1.3-.2.5-.2zm.5-1.3h-1l-.1-6.6h1.2l-.1 6.6z"/></g><path fill="#4CBA38" d="M732 152h78v20h-78z"/><g fill="#FFF"><path d="M752.1 164.7c0-.5-.1-.8-.4-1.1-.2-.2-.7-.5-1.4-.7-.7-.2-1.2-.5-1.5-.7s-.6-.5-.8-.9c-.2-.3-.3-.7-.3-1.1 0-.7.2-1.3.7-1.8.5-.5 1.1-.7 1.9-.7.5 0 1 .1 1.4.4.4.2.7.6 1 1s.3.9.3 1.4h-1.2c0-.6-.1-1-.4-1.3-.3-.3-.7-.5-1.2-.5s-.8.1-1.1.4c-.3.3-.4.6-.4 1.1 0 .4.1.7.4 1s.7.5 1.3.7c.9.3 1.6.7 2 1.1s.6 1 .6 1.7-.2 1.3-.7 1.8c-.5.5-1.1.7-2 .7-.5 0-1-.1-1.5-.4-.5-.2-.8-.6-1.1-1-.3-.4-.4-.9-.4-1.5h1.2c0 .6.2 1 .5 1.3.3.3.8.5 1.3.5s.9-.1 1.2-.4c.5-.2.6-.6.6-1zM758.4 166.4c-.4.5-.9.7-1.6.7-.6 0-1.1-.2-1.4-.6s-.5-1.1-.5-1.9v-4.5h1.1v4.4c0 1.1.3 1.6 1 1.6s1.2-.3 1.4-.9v-5.1h1.1v6.9h-1.1v-.6zM763.8 166.2c.4 0 .7-.1.9-.3.2-.2.3-.6.4-1h1.1c0 .7-.3 1.2-.7 1.6-.4.4-1 .7-1.6.7-.9 0-1.5-.3-1.9-.8-.4-.5-.7-1.3-.7-2.4v-.8c0-1 .2-1.8.7-2.4.4-.5 1.1-.8 1.9-.8.7 0 1.3.2 1.7.7.4.4.6 1.1.7 1.8H765c0-.5-.1-.9-.4-1.1-.2-.3-.5-.4-.9-.4-.5 0-.9.2-1.1.5s-.4.9-.4 1.6v.9c0 .8.1 1.4.4 1.7.3.3.6.5 1.2.5zM770 166.2c.4 0 .7-.1.9-.3.2-.2.3-.6.4-1h1.1c0 .7-.3 1.2-.7 1.6-.4.4-1 .7-1.6.7-.9 0-1.5-.3-1.9-.8-.4-.5-.7-1.3-.7-2.4v-.8c0-1 .2-1.8.7-2.4.4-.5 1.1-.8 1.9-.8.7 0 1.3.2 1.7.7.4.4.6 1.1.7 1.8h-1.1c0-.5-.1-.9-.4-1.1-.2-.3-.5-.4-.9-.4-.5 0-.9.2-1.1.5s-.4.9-.4 1.6v.9c0 .8.1 1.4.4 1.7.1.3.4.5 1 .5zM776.2 167.1c-.9 0-1.5-.3-2-.8s-.7-1.3-.7-2.2v-.8c0-1 .2-1.8.7-2.4s1.1-.9 1.9-.9c.8 0 1.4.3 1.8.8.4.5.6 1.3.6 2.4v.7h-3.8v.2c0 .7.1 1.3.4 1.6s.7.5 1.2.5c.3 0 .6-.1.9-.2s.5-.3.7-.6l.6.7c-.5.7-1.3 1-2.3 1zm-.1-6.1c-.5 0-.8.2-1 .5-.2.3-.4.8-.4 1.5h2.7v-.2c0-.7-.1-1.1-.4-1.4s-.5-.4-.9-.4zM783.4 165.2c0-.2-.1-.4-.3-.6-.2-.2-.5-.4-1.1-.6-.6-.2-1-.5-1.3-.6l-.6-.6c-.1-.2-.2-.5-.2-.8 0-.6.2-1 .6-1.4s.9-.6 1.6-.6c.7 0 1.2.2 1.6.6s.6.9.6 1.5h-1.1c0-.3-.1-.6-.3-.8-.2-.2-.5-.3-.8-.3-.3 0-.6.1-.8.3-.2.2-.3.4-.3.7 0 .2.1.4.2.6.1.1.5.3 1 .6.8.3 1.4.6 1.7 1 .3.3.5.7.5 1.2 0 .6-.2 1.1-.6 1.4-.4.4-1 .5-1.7.5s-1.3-.2-1.7-.6c-.4-.4-.7-.9-.7-1.6h1.1c0 .4.1.7.3.9.2.2.5.3.9.3s.7-.1.9-.2c.4-.3.5-.6.5-.9zM789.6 165.2c0-.2-.1-.4-.3-.6-.2-.2-.5-.4-1.1-.6-.6-.2-1-.5-1.3-.6l-.6-.6c-.1-.2-.2-.5-.2-.8 0-.6.2-1 .6-1.4.4-.4.9-.6 1.6-.6.7 0 1.2.2 1.6.6s.6.9.6 1.5h-1.1c0-.3-.1-.6-.3-.8-.2-.2-.5-.3-.8-.3-.3 0-.6.1-.8.3-.2.2-.3.4-.3.7 0 .2.1.4.2.6.1.1.5.3 1 .6.8.3 1.4.6 1.7 1 .3.3.5.7.5 1.2 0 .6-.2 1.1-.6 1.4-.4.4-1 .5-1.7.5s-1.3-.2-1.7-.6c-.4-.4-.7-.9-.7-1.6h1.1c0 .4.1.7.3.9.2.2.5.3.9.3s.7-.1.9-.2c.4-.3.5-.6.5-.9zM793.1 165.7c.2 0 .4.1.5.2.1.1.2.3.2.5s-.1.4-.2.5c-.1.1-.3.2-.5.2s-.4-.1-.5-.2c-.1-.1-.2-.3-.2-.5s.1-.4.2-.5c.2-.1.3-.2.5-.2zm.5-1.3h-1l-.1-6.6h1.2l-.1 6.6z"/></g><path fill="#E4E7EF" d="M493 307h-60v-60h60v60zm-58-2h56v-56h-56v56z"/><path fill="#B8BECC" d="M469 260v6l-6-6"/><path fill="#B8BECC" d="M466.964 260.616l1.414 1.414-8.415 8.415-1.414-1.414z"/><g fill="#575B66"><path d="M447.6 282.6h-2.5v2.1h2.9v1.3h-4.5v-7.8h4.5v1.3h-2.9v1.8h2.5v1.3zM451 281.9l.7-1.7h1.6L452 283l1.4 3h-1.6l-.7-1.8-.7 1.8h-1.6l1.4-3-1.3-2.8h1.6l.5 1.7zM456 278.8v1.4h.8v1.1h-.8v2.9c0 .2 0 .4.1.5.1.1.2.1.4.1h.4v1.2c-.3.1-.5.1-.8.1-1 0-1.5-.6-1.5-1.7v-3.1h-.7v-1.1h.7v-1.4h1.4zM460.1 286.1c-.8 0-1.4-.2-1.8-.7s-.7-1.1-.7-2v-.5c0-.9.2-1.6.6-2.1.4-.5 1-.7 1.7-.7s1.3.2 1.6.7.6 1.2.6 2.1v.7h-3c0 .4.1.8.3 1s.4.3.8.3c.5 0 .9-.2 1.3-.5l.6.9c-.2.3-.5.5-.8.6s-.8.2-1.2.2zm-.9-3.6h1.5v-.1c0-.4-.1-.6-.2-.8s-.3-.3-.6-.3-.5.1-.6.3c-.1.2-.1.5-.1.9zM466.1 281.7h-.5c-.4 0-.7.2-.8.5v3.8h-1.5v-5.8h1.4v.6c.2-.5.6-.7 1-.7.2 0 .3 0 .4.1v1.5zM468.4 280.2v.6c.3-.5.8-.7 1.3-.7 1 0 1.5.7 1.5 2.1v3.8h-1.5v-3.7c0-.3 0-.6-.1-.7-.1-.1-.3-.2-.5-.2-.3 0-.5.1-.6.4v4.2H467v-5.8h1.4zM475.4 286c0-.1-.1-.2-.1-.5-.3.4-.6.6-1.1.6-.5 0-.9-.2-1.2-.5-.3-.3-.5-.7-.5-1.3 0-.6.2-1.1.6-1.4.4-.3.9-.5 1.7-.5h.5v-.4c0-.3 0-.4-.1-.6s-.2-.2-.4-.2c-.4 0-.6.2-.6.7h-1.5c0-.5.2-1 .6-1.3.4-.3.9-.5 1.5-.5s1.1.2 1.5.5c.3.3.5.8.5 1.4v2.7c0 .5.1.9.2 1.2v.1h-1.6zm-.9-1.1c.2 0 .3 0 .4-.1.1-.1.2-.1.3-.2v-1.2h-.4c-.3 0-.5.1-.6.2-.1.2-.2.4-.2.7 0 .4.1.6.5.6zM479.6 286H478v-8.2h1.5v8.2z"/></g><g fill="#575B66"><path d="M456.5 290.8v1.4h.8v1.1h-.8v2.9c0 .2 0 .4.1.5.1.1.2.1.4.1h.4v1.2c-.3.1-.5.1-.8.1-1 0-1.5-.6-1.5-1.7v-3.1h-.7v-1.1h.7v-1.4h1.4zM457.9 294.9c0-.9.2-1.6.6-2.1s1-.8 1.7-.8 1.3.3 1.7.8.6 1.2.6 2.1v.4c0 .9-.2 1.6-.6 2.1-.4.5-1 .7-1.7.7s-1.3-.2-1.7-.7c-.4-.5-.6-1.2-.6-2.1v-.4zm1.6.4c0 1 .3 1.6.8 1.6s.8-.4.8-1.3v-.6c0-.5-.1-.9-.2-1.2s-.4-.4-.6-.4c-.3 0-.5.1-.6.4-.1.3-.2.7-.2 1.2v.3zM463.6 294.9c0-.9.2-1.6.6-2.1s1-.8 1.7-.8 1.3.3 1.7.8.6 1.2.6 2.1v.4c0 .9-.2 1.6-.6 2.1-.4.5-1 .7-1.7.7s-1.3-.2-1.7-.7c-.4-.5-.6-1.2-.6-2.1v-.4zm1.5.4c0 1 .3 1.6.8 1.6s.8-.4.8-1.3v-.6c0-.5-.1-.9-.2-1.2s-.4-.4-.6-.4c-.3 0-.5.1-.6.4-.1.3-.2.7-.2 1.2v.3zM471 298h-1.5v-8.2h1.5v8.2z"/></g><path fill="#B8BECC" d="M1139 384h-120V245h120v139zm-118-2h116V247h-116v135z"/><circle fill="#B8BECC" cx="1027.5" cy="253.5" r="2.5"/><circle fill="#B8BECC" cx="1035.5" cy="253.5" r="2.5"/><circle fill="#B8BECC" cx="1043.5" cy="253.5" r="2.5"/><path fill="#B8BECC" d="M1021 259.9h116v2h-116z"/><g fill="#575B66"><path d="M1055.8 328.4h-.9v3.4h-1.9v-9.2h3c.9 0 1.7.2 2.2.7s.8 1.2.8 2.1c0 1.2-.4 2.1-1.3 2.6l1.6 3.8v.1h-2l-1.5-3.5zm-.9-1.6h1.1c.4 0 .7-.1.8-.4.2-.2.3-.6.3-1 0-.9-.4-1.4-1.1-1.4h-1.1v2.8zM1065.5 327.8h-2.9v2.5h3.4v1.5h-5.3v-9.2h5.3v1.6h-3.4v2.2h2.9v1.4zM1073.7 324.1h-2.3v7.7h-1.9v-7.7h-2.2v-1.6h6.4v1.6zM1078.1 328.4h-.9v3.4h-1.9v-9.2h3c.9 0 1.7.2 2.2.7.5.5.8 1.2.8 2.1 0 1.2-.4 2.1-1.3 2.6l1.6 3.8v.1h-2l-1.5-3.5zm-.9-1.6h1.1c.4 0 .7-.1.8-.4.2-.2.3-.6.3-1 0-.9-.4-1.4-1.1-1.4h-1.1v2.8zM1084.9 331.8h-1.9v-9.2h1.9v9.2zM1091.8 327.8h-2.9v2.5h3.4v1.5h-5.3v-9.2h5.3v1.6h-3.4v2.2h2.9v1.4zM1096.9 329.2l1.6-6.7h2.1l-2.7 9.2h-1.9l-2.6-9.2h2.1l1.4 6.7zM1106.6 327.8h-2.9v2.5h3.4v1.5h-5.3v-9.2h5.3v1.6h-3.4v2.2h2.9v1.4zM1050.7 344.1v3.2h-1.9v-9.2h3.1c.9 0 1.6.3 2.2.9.5.6.8 1.3.8 2.2s-.3 1.6-.8 2.1-1.3.8-2.2.8h-1.2zm0-1.6h1.3c.4 0 .6-.1.8-.3.2-.2.3-.6.3-1 0-.5-.1-.8-.3-1.1-.2-.3-.5-.4-.8-.4h-1.3v2.8zM1060 345.5h-2.5l-.5 1.9h-2l2.9-9.2h1.7l2.9 9.2h-2l-.5-1.9zm-2.1-1.6h1.7l-.9-3.3-.8 3.3zM1067.7 344.9c0-.4-.1-.7-.3-.9-.2-.2-.5-.4-1-.6-.9-.4-1.6-.8-2-1.2s-.6-1-.6-1.7c0-.8.3-1.4.8-1.9s1.3-.7 2.1-.7c.6 0 1.1.1 1.5.4s.8.6 1 1c.2.4.4.9.4 1.5h-1.9c0-.4-.1-.8-.3-1s-.4-.3-.8-.3c-.3 0-.6.1-.8.3s-.3.5-.3.8c0 .3.1.5.3.7s.6.4 1.1.6c.9.3 1.6.7 2 1.2.4.5.6 1.1.6 1.8 0 .8-.3 1.4-.8 1.9s-1.2.7-2.1.7c-.6 0-1.1-.1-1.6-.4s-.9-.6-1.2-1.1c-.3-.5-.4-1-.4-1.6h1.9c0 .5.1.9.3 1.2.2.2.5.4 1 .4.8 0 1.1-.4 1.1-1.1zM1075.3 344.9c0-.4-.1-.7-.3-.9-.2-.2-.5-.4-1.1-.6-.9-.4-1.6-.8-2-1.2s-.6-1-.6-1.7c0-.8.3-1.4.8-1.9.6-.5 1.3-.7 2.1-.7.6 0 1.1.1 1.5.4s.8.6 1 1c.2.4.4.9.4 1.5h-1.9c0-.4-.1-.8-.3-1-.2-.2-.4-.3-.8-.3-.3 0-.6.1-.8.3s-.3.5-.3.8c0 .3.1.5.3.7s.6.4 1.1.6c.9.3 1.6.7 2 1.2.4.5.6 1.1.6 1.8 0 .8-.3 1.4-.8 1.9s-1.2.7-2.1.7c-.6 0-1.1-.1-1.6-.4s-.9-.6-1.2-1.1-.4-1-.4-1.6h1.9c0 .5.1.9.3 1.2.2.2.5.4 1 .4.8 0 1.2-.4 1.2-1.1zM1084.9 343.9l.9-5.8h1.8l-1.6 9.2h-1.9l-1.1-5.4-1.1 5.4h-1.9l-1.7-9.2h1.9l.9 5.8 1.1-5.8h1.6l1.1 5.8zM1095.6 343.6c0 1.2-.3 2.2-.9 2.9s-1.4 1-2.4 1-1.9-.3-2.4-1c-.6-.7-.9-1.6-.9-2.9V342c0-1.3.3-2.3.9-3s1.4-1.1 2.5-1.1c1 0 1.8.4 2.4 1.1.6.7.9 1.7.9 2.9v1.7zm-1.9-1.6c0-.8-.1-1.5-.4-1.9s-.6-.6-1.1-.6c-.5 0-.9.2-1.1.6-.2.4-.4 1-.4 1.8v1.6c0 .8.1 1.4.4 1.8s.6.6 1.1.6c.5 0 .8-.2 1.1-.6.2-.4.4-1 .4-1.7V342zM1100.2 344h-.9v3.4h-1.9v-9.2h3c.9 0 1.7.2 2.2.7s.8 1.2.8 2.1c0 1.2-.4 2.1-1.3 2.6l1.6 3.8v.1h-2l-1.5-3.5zm-.9-1.6h1.1c.4 0 .7-.1.8-.4.2-.2.3-.6.3-1 0-.9-.4-1.4-1.1-1.4h-1.1v2.8zM1105.1 347.4v-9.2h2.4c1.1 0 1.9.3 2.6 1 .6.7 1 1.6 1 2.8v1.5c0 1.2-.3 2.2-1 2.9-.6.7-1.5 1-2.7 1h-2.3zm1.9-7.7v6.1h.6c.6 0 1.1-.2 1.3-.5s.4-.9.4-1.7V342c0-.9-.1-1.5-.4-1.8s-.7-.5-1.2-.5h-.7z"/></g><path fill="#E4E7EF" d="M1121 302h-86v-22h86v22zm-84-2h82v-18h-82v18z"/><g fill="#575B66"><path d="M1046.5 295.1h-1.2v-9.3h1.2v9.3zM1049.6 288.2v.7c.4-.6 1-.9 1.7-.9 1.2 0 1.8.8 1.8 2.4v4.6h-1.1v-4.5c0-.5-.1-.9-.3-1.1s-.4-.3-.7-.3c-.3 0-.5.1-.8.3-.2.2-.4.4-.5.7v5h-1.1v-6.9h1zM1057 293.3l1.3-5.2h1.1l-2 6.9h-.8l-2.1-6.9h1.1l1.4 5.2zM1064.3 295.1c-.1-.1-.1-.4-.1-.7-.4.6-.9.9-1.5.9s-1.1-.2-1.5-.5c-.3-.3-.5-.8-.5-1.5s.2-1.3.7-1.7c.5-.4 1.1-.6 1.9-.6h.8v-.7c0-.4-.1-.7-.3-.9-.2-.3-.4-.4-.8-.4-.3 0-.6.1-.8.3-.2.2-.3.5-.3.8h-1.1c0-.4.1-.7.3-1 .2-.3.5-.6.8-.8.4-.2.7-.3 1.2-.3.7 0 1.2.2 1.6.5.4.3.6.9.6 1.5v3.5c0 .5.1 1 .2 1.4v.1h-1.2zm-1.5-.9c.3 0 .5-.1.8-.2.2-.2.4-.3.5-.6v-1.6h-.6c-.5 0-1 .1-1.3.4-.3.2-.5.6-.5 1s.1.7.2.8c.2.1.5.2.9.2zM1068.4 295.1h-1.1v-9.8h1.1v9.8zM1071.6 286.4c0 .2-.1.3-.2.5 0 .1-.2.1-.4.1s-.4-.1-.5-.2c-.1-.1-.2-.3-.2-.5s.1-.4.2-.5c.1-.1.3-.2.5-.2s.4.1.5.2c.1.2.1.4.1.6zm0 8.7h-1.1v-6.9h1.1v6.9zM1073.3 291.3c0-1.1.2-1.9.6-2.4.4-.6 1-.8 1.7-.8s1.2.3 1.5.8v-3.6h1.1v9.8h-1l-.1-.7c-.4.6-.9.9-1.6.9-.7 0-1.3-.3-1.7-.8-.4-.6-.6-1.3-.6-2.3v-.9zm1.1.6c0 .8.1 1.3.3 1.7.2.4.6.5 1.1.5.6 0 1-.3 1.2-.8v-3.4c-.3-.5-.7-.8-1.2-.8s-.9.2-1.1.5-.3.9-.3 1.7v.6zM1085.8 295.2c-.9 0-1.5-.3-2-.8s-.7-1.3-.7-2.2v-.8c0-1 .2-1.8.7-2.4.4-.6 1.1-.9 1.9-.9.8 0 1.4.3 1.8.8.4.5.6 1.3.6 2.4v.7h-3.8v.2c0 .7.1 1.3.4 1.6.3.3.7.5 1.2.5.3 0 .6-.1.9-.2.3-.1.5-.3.7-.6l.6.7c-.5.6-1.3 1-2.3 1zm-.1-6.2c-.5 0-.8.2-1 .5-.2.3-.4.8-.4 1.5h2.7v-.2c0-.7-.1-1.1-.4-1.4-.2-.2-.5-.4-.9-.4zM1090.7 288.2v.6c.4-.5 1-.8 1.7-.8.8 0 1.3.3 1.6 1 .4-.7 1-1 1.8-1 1.3 0 1.9.8 1.9 2.4v4.6h-1.1v-4.5c0-.5-.1-.9-.3-1.1s-.5-.4-.9-.4c-.3 0-.6.1-.8.4-.2.3-.3.6-.4 1v4.6h-1.1v-4.6c0-1-.4-1.4-1.2-1.4-.6 0-1 .3-1.2.8v5.1h-1.1v-6.7h1.1zM1103.2 295.1c-.1-.1-.1-.4-.1-.7-.4.6-.9.9-1.5.9s-1.1-.2-1.5-.5c-.3-.3-.5-.8-.5-1.5s.2-1.3.7-1.7c.5-.4 1.1-.6 1.9-.6h.8v-.7c0-.4-.1-.7-.3-.9-.1-.3-.4-.4-.8-.4-.3 0-.6.1-.8.3-.2.2-.3.5-.3.8h-1.1c0-.4.1-.7.3-1 .2-.3.5-.6.8-.8.4-.2.7-.3 1.2-.3.7 0 1.2.2 1.6.5.4.3.6.9.6 1.5v3.5c0 .5.1 1 .2 1.4v.1h-1.2zm-1.5-.9c.3 0 .5-.1.8-.2.2-.2.4-.3.5-.6v-1.6h-.6c-.5 0-1 .1-1.3.4-.3.2-.5.6-.5 1s.1.7.2.8c.3.1.5.2.9.2zM1107.4 286.4c0 .2-.1.3-.2.5-.1.1-.2.1-.4.1s-.4-.1-.5-.2c-.1-.1-.2-.3-.2-.5s.1-.4.2-.5c.1-.1.3-.2.5-.2s.4.1.5.2c0 .2.1.4.1.6zm-.1 8.7h-1.1v-6.9h1.1v6.9zM1110.5 295.1h-1.1v-9.8h1.1v9.8z"/></g><path fill="#E4E7EF" d="M705 307h-60v-60h60v60zm-58-2h56v-56h-56v56z"/><path fill="#B8BECC" d="M681 260v6l-6-6"/><path fill="#B8BECC" d="M678.962 260.615l1.414 1.414-8.414 8.413-1.414-1.414z"/><g fill="#575B66"><path d="M665.5 281.8c0 .9-.3 1.6-.8 2s-1.1.7-2 .7c-.9 0-1.6-.3-2-.9s-.7-1.4-.7-2.5v-1.3c0-1.1.2-1.9.7-2.5.5-.6 1.2-.9 2-.9.9 0 1.5.2 1.9.7.4.5.7 1.2.8 2.1h-1.6c0-.6-.1-.9-.3-1.1-.2-.2-.4-.3-.9-.3-.4 0-.7.1-.9.4-.2.3-.3.8-.3 1.5v1.5c0 .8.1 1.3.3 1.6.2.3.5.4.9.4s.7-.1.9-.3c.2-.2.2-.6.3-1.1h1.7zM668.1 279.1c.3-.4.7-.6 1.2-.6s.9.2 1.2.6c.3.4.4.9.4 1.7v3.7h-1.5v-3.7c0-.3-.1-.6-.2-.7-.1-.2-.3-.2-.5-.2-.3 0-.5.1-.6.4v4.3h-1.5v-8.2h1.5v2.7zM674.5 284.5c-.8 0-1.4-.2-1.8-.7-.4-.5-.7-1.1-.7-2v-.5c0-.9.2-1.6.6-2.1.4-.5 1-.7 1.7-.7s1.3.2 1.6.7c.4.5.6 1.2.6 2.1v.7h-3c0 .4.1.8.3 1 .2.2.4.3.8.3.5 0 .9-.2 1.3-.5l.6.9c-.2.3-.5.5-.8.6s-.8.2-1.2.2zm-.9-3.6h1.5v-.1c0-.4-.1-.6-.2-.8s-.3-.3-.6-.3-.5.1-.6.3c-.1.2-.1.5-.1.9zM679.7 283.2c.4 0 .7-.3.7-.9h1.4c0 .6-.2 1.1-.6 1.5-.4.4-.9.6-1.5.6-.7 0-1.3-.2-1.7-.7-.4-.5-.6-1.2-.6-2.1v-.5c0-.9.2-1.6.6-2.1.4-.5 1-.7 1.7-.7.6 0 1.1.2 1.5.6.4.4.6 1 .6 1.7h-1.4c0-.3-.1-.6-.2-.8-.1-.2-.3-.3-.5-.3-.3 0-.5.1-.6.3-.1.2-.2.6-.2 1.1v.6c0 .5 0 .8.1 1 0 .2.1.3.2.4s.3.3.5.3zM684.8 282.1l-.4.5v1.8h-1.5v-8.2h1.5v4.5l.2-.3 1.1-1.7h1.8l-1.7 2.4 1.8 3.4h-1.7l-1.1-2.4z"/></g><g fill="#575B66"><path d="M663.1 289.1c0-.2.1-.4.2-.6s.4-.2.6-.2c.2 0 .5.1.6.2s.2.3.2.6c0 .2-.1.4-.2.6-.1.2-.3.2-.6.2s-.5-.1-.6-.2-.2-.4-.2-.6zm1.6 7.3h-1.5v-5.8h1.5v5.8zM667.5 290.6v.6c.3-.5.8-.7 1.3-.7 1 0 1.5.7 1.5 2.1v3.8h-1.5v-3.7c0-.3 0-.6-.1-.7s-.3-.2-.5-.2c-.3 0-.5.1-.6.4v4.2H666v-5.8h1.5zM676.2 293.7c0 .9-.2 1.6-.5 2.1s-.8.7-1.4.7c-.5 0-.9-.2-1.2-.7v.6h-1.4v-8.2h1.5v2.9c.3-.4.7-.6 1.1-.6.6 0 1.1.2 1.4.7.3.5.5 1.2.5 2.1v.4zm-1.5-.4c0-.6-.1-1-.2-1.2s-.3-.3-.6-.3-.6.1-.7.4v2.7c.1.3.4.4.7.4.3 0 .5-.1.6-.3.1-.2.2-.6.2-1.1v-.6zM677.1 293.3c0-.9.2-1.6.6-2.1.4-.5 1-.8 1.7-.8s1.3.3 1.7.8c.4.5.6 1.2.6 2.1v.4c0 .9-.2 1.6-.6 2.1-.4.5-1 .7-1.7.7s-1.3-.2-1.7-.7c-.4-.5-.6-1.2-.6-2.1v-.4zm1.5.4c0 1 .3 1.6.8 1.6s.8-.4.8-1.3v-.6c0-.5-.1-.9-.2-1.2-.1-.3-.4-.4-.6-.4-.3 0-.5.1-.6.4-.1.3-.2.7-.2 1.2v.3zM684.8 292.3l.7-1.7h1.6l-1.3 2.8 1.4 3h-1.6l-.7-1.8-.7 1.8h-1.6l1.4-3-1.3-2.8h1.6l.5 1.7z"/></g><circle fill="#575B66" cx="320" cy="53" r="3"/><path fill="#575B66" d="M813 56v-6l3 3"/><text transform="translate(537.657 56)" fill="#575B66" font-family="'RobotoCondensed-Regular'" font-size="9">Forgot pasword</text><g><g transform="matrix(0 -1 -1 0 1022 305)"><path fill="#E4E7EF" d="M2 0v136c0 6.1 4.9 11 11 11h82.5v-2H13c-5 0-9-4-9-9V0H2z"/><circle fill="#575B66" cx="3" cy="3" r="3"/><path fill="#575B66" d="M94 149v-6l3 3"/></g></g><path fill="#575B66" d="M459 241.5h6l-3 3"/></svg>