<svg width="208" height="312" viewBox="0 0 208 312" xmlns="http://www.w3.org/2000/svg">
  <g fill="#071D49" fill-rule="evenodd">
    <path d="M8.6 8.4v295.2h191.31V8.4H8.6zm-8-8h207.31v311.2H.6V.4z" fill-rule="nonzero"/>
    <path d="M46.632 185.8l-2.57-9.05h-.077c.12 1.542.18 2.74.18 3.593v5.457H41.16v-12.564h4.52l2.62 8.92h.07l2.57-8.92h4.528V185.8h-3.12v-5.51c0-.285.005-.603.014-.952.008-.35.047-1.206.116-2.57h-.078l-2.535 9.032h-3.23zm20.642-4.89c0 1.593-.428 2.835-1.285 3.726-.857.89-2.056 1.336-3.597 1.336-1.478 0-2.654-.456-3.528-1.367-.873-.91-1.31-2.142-1.31-3.695 0-1.587.428-2.82 1.284-3.7.856-.88 2.058-1.32 3.605-1.32.956 0 1.8.205 2.535.612.733.406 1.3.99 1.697 1.748.398.76.597 1.646.597 2.66zm-6.308 0c0 .837.112 1.474.336 1.912.223.44.598.658 1.125.658.522 0 .89-.22 1.105-.658.214-.438.322-1.075.322-1.912 0-.83-.11-1.458-.327-1.882-.217-.424-.59-.636-1.117-.636-.515 0-.885.21-1.108.632-.224.42-.336 1.05-.336 1.886zm14.172-5.02c1.06 0 1.9.445 2.522 1.333.62.888.932 2.117.932 3.687 0 1.58-.313 2.82-.94 3.717-.628.897-1.5 1.345-2.618 1.345-.36 0-.68-.04-.962-.116-.28-.077-.532-.185-.752-.322-.22-.138-.477-.367-.77-.688h-.205l-.533.954h-2.62v-13.372h3.36v3.025c0 .36-.04.983-.122 1.865h.12c.327-.504.704-.868 1.13-1.09.428-.225.913-.337 1.458-.337zm-1.23 2.64c-.47 0-.813.163-1.03.49-.218.326-.327.84-.327 1.538v.472c0 .797.11 1.368.327 1.715.218.347.573.52 1.066.52.395 0 .7-.202.91-.606.213-.405.32-1 .32-1.784 0-1.564-.422-2.346-1.264-2.346zm9.978 7.27h-3.36v-9.737h3.36v9.737zm-3.446-12.16c0-.504.14-.88.42-1.126.282-.246.734-.37 1.36-.37.623 0 1.08.127 1.365.38.287.25.43.623.43 1.116 0 .985-.6 1.478-1.796 1.478-1.187 0-1.78-.493-1.78-1.478zm9.152 12.16h-3.36v-13.372h3.36V185.8zm7.03.172c-1.62 0-2.88-.43-3.777-1.293-.897-.864-1.345-2.09-1.345-3.684 0-1.644.415-2.906 1.246-3.785.83-.88 2.017-1.32 3.558-1.32 1.467 0 2.6.384 3.4 1.15.798.764 1.198 1.865 1.198 3.303v1.495h-6.007c.022.545.222.97.597 1.28.375.31.886.465 1.534.465.59 0 1.133-.056 1.628-.168.496-.11 1.033-.302 1.612-.57v2.414c-.527.268-1.072.454-1.633.557-.562.103-1.232.155-2.01.155zm-.198-7.795c-.395 0-.726.125-.992.374-.267.25-.423.64-.47 1.174h2.89c-.013-.47-.146-.845-.4-1.126-.256-.28-.598-.42-1.028-.42zm18.855 7.623l-.62-2.355h-4.082l-.636 2.355h-3.73l4.1-12.616h4.53l4.15 12.616h-3.713zm-1.325-5.14l-.54-2.062c-.127-.458-.28-1.05-.46-1.778s-.3-1.25-.357-1.565c-.052.293-.154.774-.305 1.444-.152.67-.49 1.99-1.01 3.96h2.672zm12.04 5.312c-.492 0-.934-.082-1.323-.245-.39-.163-.776-.457-1.16-.88h-.155c.103.68.155 1.105.155 1.27v3.91h-3.36v-13.964h2.732l.473 1.238h.155c.624-.94 1.486-1.41 2.586-1.41 1.078 0 1.923.448 2.536 1.342.613.894.92 2.12.92 3.678 0 1.57-.32 2.806-.96 3.708-.638.903-1.504 1.354-2.6 1.354zm-1.125-7.442c-.493 0-.838.176-1.036.528-.198.353-.305.875-.322 1.57v.265c0 .836.11 1.44.335 1.813.223.373.576.56 1.057.56.43 0 .742-.186.937-.555.195-.37.293-.98.293-1.834 0-.837-.098-1.437-.292-1.8-.194-.364-.518-.546-.97-.546zm12.443 7.442c-.492 0-.934-.082-1.323-.245-.39-.163-.776-.457-1.16-.88h-.155c.103.68.155 1.105.155 1.27v3.91h-3.36v-13.964h2.732l.473 1.238h.155c.624-.94 1.486-1.41 2.586-1.41 1.077 0 1.923.448 2.536 1.342.613.894.92 2.12.92 3.678 0 1.57-.32 2.806-.96 3.708-.638.903-1.504 1.354-2.6 1.354zm-1.125-7.442c-.493 0-.838.176-1.036.528-.198.353-.305.875-.322 1.57v.265c0 .836.11 1.44.335 1.813.223.373.576.56 1.057.56.43 0 .742-.186.937-.555.193-.37.29-.98.29-1.834 0-.837-.097-1.437-.29-1.8-.196-.364-.52-.546-.972-.546zM46.15 218.6h-5.094v-9.137h5.094v.943h-4.03v2.944h3.786v.938H42.12v3.362h4.03v.95zm6.08 0l-.205-.975h-.05c-.342.43-.682.72-1.022.872-.34.152-.763.228-1.272.228-.678 0-1.21-.175-1.596-.525-.385-.35-.578-.848-.578-1.494 0-1.383 1.106-2.108 3.32-2.175l1.162-.036v-.425c0-.54-.116-.936-.347-1.192-.23-.256-.6-.384-1.11-.384-.57 0-1.215.175-1.936.525l-.32-.795c.34-.183.708-.327 1.11-.43.402-.105.806-.157 1.21-.157.816 0 1.422.18 1.815.543.393.364.59.945.59 1.745v4.675h-.77zm-2.342-.73c.645 0 1.153-.178 1.52-.532.37-.355.555-.85.555-1.488v-.62l-1.038.045c-.825.03-1.42.157-1.784.384-.364.226-.546.58-.546 1.06 0 .374.113.66.34.855.227.196.545.294.954.294zm9.668-1.14c0 .64-.237 1.13-.712 1.476-.475.346-1.142.52-2 .52-.91 0-1.617-.145-2.125-.432v-.963c.328.168.68.3 1.058.395.377.096.74.144 1.09.144.542 0 .96-.088 1.25-.26.292-.174.438-.437.438-.79 0-.268-.115-.496-.347-.686-.232-.19-.683-.413-1.354-.67-.637-.24-1.09-.446-1.36-.623-.268-.176-.468-.377-.6-.602-.13-.226-.196-.494-.196-.807 0-.557.227-.998.68-1.32.455-.324 1.078-.485 1.87-.485.738 0 1.458.15 2.163.45l-.37.844c-.687-.285-1.31-.426-1.868-.426-.492 0-.862.077-1.112.23-.25.155-.375.368-.375.64 0 .182.046.338.14.467.094.13.245.253.453.37.21.117.61.285 1.2.506.814.296 1.363.594 1.648.894.286.3.428.677.428 1.13zm2.725 1.87h-1.036v-6.85h1.037v6.85zm-1.124-8.706c0-.238.06-.412.175-.522.118-.11.264-.166.44-.166.165 0 .31.056.43.17.12.112.18.284.18.518 0 .233-.06.407-.18.522-.12.114-.265.172-.43.172-.176 0-.322-.058-.44-.172-.115-.115-.174-.29-.174-.522zm4.363 8.706h-1.04v-9.725h1.04v9.725zm1.11-6.85h1.114l1.5 3.906c.33.892.533 1.536.612 1.932h.05c.054-.213.168-.577.34-1.09.174-.516.74-2.098 1.698-4.748h1.112l-2.943 7.8c-.292.77-.633 1.318-1.022 1.64-.39.324-.867.485-1.434.485-.316 0-.63-.035-.937-.106v-.832c.228.05.484.075.768.075.712 0 1.22-.4 1.525-1.2l.38-.975-2.762-6.888zm15.283 4.98c0 .64-.238 1.13-.713 1.476-.475.346-1.142.52-2 .52-.908 0-1.617-.145-2.125-.432v-.963c.33.168.682.3 1.06.395.376.096.74.144 1.09.144.542 0 .958-.088 1.25-.26.292-.174.438-.437.438-.79 0-.268-.116-.496-.347-.686-.232-.19-.683-.413-1.353-.67-.638-.24-1.09-.446-1.36-.623-.27-.176-.47-.377-.6-.602-.13-.226-.197-.494-.197-.807 0-.557.227-.998.682-1.32.454-.324 1.077-.485 1.868-.485.738 0 1.46.15 2.163.45l-.37.844c-.688-.285-1.31-.426-1.87-.426-.49 0-.86.077-1.11.23-.25.155-.376.368-.376.64 0 .182.047.338.14.467.094.13.245.253.454.37.208.117.608.285 1.2.506.812.296 1.36.594 1.646.894.286.3.43.677.43 1.13zm2.662-4.98v4.444c0 .558.127.975.38 1.25.255.275.653.412 1.195.412.717 0 1.24-.196 1.572-.587.33-.393.497-1.032.497-1.92v-3.6h1.036v6.85H88.4l-.15-.92h-.056c-.213.34-.508.597-.885.776-.378.18-.808.27-1.29.27-.835 0-1.46-.2-1.873-.595-.415-.395-.622-1.028-.622-1.9v-4.48h1.05zm10.07-.112c.9 0 1.598.307 2.096.92.5.616.748 1.486.748 2.61 0 1.126-.252 2-.754 2.623-.502.624-1.2.935-2.09.935-.446 0-.853-.082-1.222-.247-.37-.164-.678-.418-.928-.76h-.075l-.22.882h-.744v-9.725h1.038v2.363c0 .53-.017 1.004-.05 1.425h.05c.483-.684 1.2-1.025 2.15-1.025zm-.15.868c-.71 0-1.22.203-1.532.61-.313.406-.47 1.09-.47 2.053 0 .96.16 1.65.482 2.064.32.415.835.622 1.544.622.636 0 1.11-.232 1.424-.697.312-.465.47-1.133.47-2.004 0-.89-.158-1.556-.47-1.993-.313-.438-.796-.657-1.45-.657zm13.536 6.094v-4.456c0-.546-.115-.955-.35-1.228-.232-.273-.595-.41-1.086-.41-.646 0-1.123.186-1.43.557-.31.37-.464.94-.464 1.712v3.825h-1.037v-4.456c0-.546-.117-.955-.35-1.228-.234-.273-.598-.41-1.094-.41-.65 0-1.127.195-1.43.585-.3.39-.452 1.03-.452 1.916v3.594H99.3v-6.85h.844l.17.938h.05c.194-.334.47-.594.827-.782.357-.187.756-.28 1.198-.28 1.07 0 1.77.386 2.1 1.162h.05c.204-.36.5-.642.887-.85.388-.21.83-.313 1.325-.313.775 0 1.355.2 1.74.597.386.398.58 1.034.58 1.91v4.468h-1.04zm4.214 0h-1.038v-6.85h1.038v6.85zm-1.125-8.706c0-.238.057-.412.174-.522.116-.11.262-.166.437-.166.168 0 .312.056.433.17.12.112.18.284.18.518 0 .233-.06.407-.18.522-.12.114-.265.172-.432.172-.174 0-.32-.058-.436-.172-.117-.115-.175-.29-.175-.522zm5.536 7.975c.184 0 .36-.015.532-.042.17-.027.306-.055.406-.084v.794c-.113.054-.278.098-.497.134-.22.035-.416.053-.59.053-1.326 0-1.988-.698-1.988-2.094v-4.074h-.982v-.5l.98-.43.438-1.463h.6v1.587h1.988v.806h-1.988v4.032c0 .412.098.73.294.95.196.22.465.33.806.33zm6.67.73h-1.038v-6.85h1.037v6.85zm-1.126-8.706c0-.238.058-.412.175-.522.117-.11.262-.166.438-.166.166 0 .31.056.43.17.122.112.182.284.182.518 0 .233-.06.407-.18.522-.122.114-.266.172-.432.172-.176 0-.32-.058-.438-.172-.117-.115-.175-.29-.175-.522zm8.013 8.706v-4.43c0-.56-.128-.976-.382-1.25-.253-.276-.65-.414-1.192-.414-.717 0-1.242.194-1.575.582-.334.387-.5 1.027-.5 1.918v3.594h-1.038v-6.85h.844l.168.938h.05c.212-.338.51-.6.893-.785.385-.185.812-.278 1.283-.278.825 0 1.445.2 1.862.597.417.398.625 1.034.625 1.91v4.468h-1.037zm4.668 0l-2.6-6.85h1.114l1.475 4.063c.332.95.528 1.566.586 1.85h.05c.046-.22.19-.68.435-1.372.244-.693.79-2.207 1.64-4.54h1.114l-2.6 6.85h-1.213zm10.826-3.43c0 1.115-.28 1.987-.843 2.614-.563.627-1.34.94-2.332.94-.61 0-1.155-.143-1.63-.43-.475-.288-.842-.7-1.1-1.238-.258-.537-.387-1.166-.387-1.887 0-1.118.28-1.988.837-2.61.558-.624 1.333-.935 2.325-.935.958 0 1.72.32 2.284.956.564.64.846 1.5.846 2.59zm-5.218 0c0 .874.174 1.54.525 2 .35.457.864.686 1.543.686.68 0 1.195-.228 1.547-.684.352-.456.528-1.124.528-2.003 0-.872-.175-1.534-.527-1.986-.352-.452-.872-.678-1.56-.678-.678 0-1.19.223-1.537.67-.346.445-.518 1.11-.518 1.993zm8.075 3.43h-1.038v-6.85h1.038v6.85zm-1.125-8.706c0-.238.058-.412.175-.522.116-.11.262-.166.437-.166.167 0 .31.056.43.17.122.112.183.284.183.518 0 .233-.06.407-.182.522-.12.114-.263.172-.43.172-.175 0-.32-.058-.438-.172-.116-.115-.174-.29-.174-.522zm6.062 8.83c-.992 0-1.76-.304-2.303-.915-.544-.61-.816-1.475-.816-2.59 0-1.147.277-2.032.83-2.657.55-.626 1.338-.938 2.36-.938.328 0 .657.035.986.106.33.072.588.155.775.25l-.317.883c-.23-.092-.48-.168-.75-.23-.27-.06-.51-.09-.72-.09-1.39 0-2.087.888-2.087 2.663 0 .842.17 1.488.51 1.938.34.45.842.675 1.51.675.57 0 1.155-.124 1.755-.37v.92c-.457.236-1.034.355-1.73.355zm6.25 0c-1.013 0-1.81-.307-2.397-.924-.585-.617-.878-1.473-.878-2.57 0-1.103.272-1.98.816-2.63.544-.65 1.275-.975 2.19-.975.86 0 1.54.282 2.04.847.5.564.75 1.31.75 2.234v.657h-4.72c.02.804.224 1.414.61 1.83.385.417.927.626 1.628.626.737 0 1.466-.155 2.187-.464v.925c-.367.16-.714.273-1.04.342-.328.07-.722.103-1.185.103zm-.28-6.23c-.55 0-.99.18-1.317.537-.327.36-.52.855-.578 1.49h3.58c0-.655-.145-1.156-.436-1.504-.293-.348-.71-.522-1.25-.522zm8.986 4.237c0 .64-.237 1.13-.712 1.476-.475.346-1.142.52-2 .52-.91 0-1.617-.145-2.125-.432v-.963c.328.168.68.3 1.058.395.377.096.74.144 1.09.144.542 0 .96-.088 1.25-.26.292-.174.438-.437.438-.79 0-.268-.115-.496-.347-.686-.232-.19-.683-.413-1.354-.67-.637-.24-1.09-.446-1.36-.623-.268-.176-.468-.377-.6-.602-.13-.226-.196-.494-.196-.807 0-.557.227-.998.68-1.32.455-.324 1.078-.485 1.87-.485.738 0 1.458.15 2.163.45l-.37.844c-.687-.285-1.31-.426-1.868-.426-.492 0-.862.077-1.112.23-.25.155-.375.368-.375.64 0 .182.046.338.14.467.094.13.245.253.453.37.21.117.61.285 1.2.506.814.296 1.363.594 1.648.894.286.3.428.677.428 1.13zM45.113 237.8l-.207-.975h-.05c-.34.43-.682.72-1.022.872-.34.152-.763.228-1.27.228-.68 0-1.213-.175-1.598-.525-.386-.35-.578-.848-.578-1.494 0-1.383 1.106-2.108 3.318-2.175l1.163-.036v-.425c0-.54-.117-.936-.348-1.192-.23-.256-.6-.384-1.11-.384-.57 0-1.216.175-1.937.525l-.32-.795c.34-.183.71-.327 1.11-.43.403-.105.806-.157 1.21-.157.817 0 1.422.18 1.816.543.394.364.59.945.59 1.745v4.675h-.767zm-2.344-.73c.645 0 1.152-.178 1.52-.532.37-.355.554-.85.554-1.488v-.62l-1.038.045c-.825.03-1.42.157-1.784.384-.365.226-.547.58-.547 1.06 0 .374.114.66.34.855.228.196.545.294.954.294zm9.936.73v-4.43c0-.56-.127-.976-.38-1.25-.255-.276-.653-.414-1.195-.414-.715 0-1.24.194-1.574.582-.333.387-.5 1.027-.5 1.918v3.594H48.02v-6.85h.843l.168.938h.05c.214-.338.512-.6.895-.785.383-.185.81-.278 1.28-.278.826 0 1.447.2 1.864.597.415.398.624 1.034.624 1.91v4.468h-1.038zm7.832-.92h-.057c-.478.697-1.195 1.045-2.15 1.045-.895 0-1.59-.306-2.09-.92-.497-.61-.746-1.482-.746-2.61 0-1.13.25-2.007.75-2.632.5-.626 1.196-.938 2.087-.938.93 0 1.643.337 2.14 1.013h.08l-.044-.494-.025-.48v-2.79h1.04v9.726h-.845l-.137-.92zm-2.075.176c.708 0 1.22-.192 1.54-.578.32-.385.478-1.007.478-1.865v-.22c0-.97-.16-1.663-.483-2.077-.323-.415-.84-.622-1.547-.622-.608 0-1.074.236-1.397.71-.323.472-.484 1.14-.484 2.002 0 .875.16 1.536.48 1.982.32.445.792.668 1.413.668zm11.706-6.23c.303 0 .576.024.818.074l-.144.963c-.284-.063-.534-.094-.75-.094-.554 0-1.028.224-1.422.674-.394.45-.59 1.01-.59 1.68v3.676h-1.038v-6.85h.856l.12 1.27h.05c.253-.447.56-.79.918-1.032s.752-.363 1.18-.363zm4.993 7.1c-1.013 0-1.812-.31-2.397-.926-.586-.617-.878-1.473-.878-2.57 0-1.103.27-1.98.815-2.63.544-.65 1.274-.975 2.19-.975.86 0 1.538.282 2.038.847.5.564.75 1.31.75 2.234v.657h-4.717c.02.804.223 1.414.61 1.83.384.417.927.626 1.627.626.738 0 1.467-.155 2.188-.464v.925c-.367.16-.714.273-1.04.342-.328.07-.723.103-1.185.103zm-.282-6.232c-.55 0-.987.18-1.314.537-.327.36-.52.855-.578 1.49h3.58c0-.655-.145-1.156-.437-1.504-.29-.348-.707-.522-1.25-.522zm7.308 6.23c-.992 0-1.76-.304-2.304-.915-.543-.61-.815-1.475-.815-2.59 0-1.147.275-2.032.827-2.657.552-.626 1.338-.938 2.36-.938.328 0 .658.035.987.106.33.072.587.155.775.25l-.32.883c-.23-.092-.48-.168-.75-.23-.27-.06-.51-.09-.72-.09-1.39 0-2.086.888-2.086 2.663 0 .842.17 1.488.51 1.938.34.45.842.675 1.51.675.57 0 1.155-.124 1.755-.37v.92c-.46.236-1.037.355-1.732.355zm6.25 0c-1.013 0-1.812-.307-2.397-.924-.585-.617-.877-1.473-.877-2.57 0-1.103.27-1.98.815-2.63.544-.65 1.274-.975 2.19-.975.86 0 1.538.282 2.038.847.5.564.75 1.31.75 2.234v.657h-4.718c.02.804.223 1.414.61 1.83.384.417.927.626 1.627.626.738 0 1.467-.155 2.188-.464v.925c-.367.16-.714.273-1.04.342-.328.07-.723.103-1.185.103zm-.282-6.23c-.55 0-.988.18-1.315.537-.326.36-.52.855-.577 1.49h3.58c0-.655-.145-1.156-.437-1.504-.29-.348-.708-.522-1.25-.522zm5.607 6.106h-1.038v-6.85h1.038v6.85zm-1.125-8.706c0-.238.058-.412.175-.522.116-.11.262-.166.437-.166.167 0 .31.056.43.17.122.112.183.284.183.518 0 .233-.06.407-.182.522-.12.114-.263.172-.43.172-.175 0-.32-.058-.437-.172-.117-.115-.175-.29-.175-.522zm6.512 8.83c-.446 0-.853-.08-1.222-.246-.37-.164-.678-.418-.928-.76h-.075c.05.4.075.78.075 1.138v2.82h-1.037v-9.926h.843l.144.938H97c.267-.376.577-.646.93-.813.355-.167.762-.25 1.22-.25.908 0 1.61.31 2.103.93.494.622.74 1.493.74 2.614 0 1.124-.25 1.998-.752 2.62-.5.624-1.198.935-2.09.935zm-.15-6.218c-.7 0-1.206.194-1.52.582-.31.387-.472 1.004-.48 1.85v.23c0 .963.16 1.652.48 2.066.322.415.837.622 1.545.622.592 0 1.055-.24 1.39-.718.336-.48.504-1.14.504-1.982 0-.854-.17-1.51-.504-1.965-.336-.456-.808-.684-1.416-.684zm7.02 5.363c.182 0 .36-.015.53-.042.17-.027.306-.055.406-.084v.794c-.112.054-.278.098-.497.134-.22.035-.416.053-.59.053-1.326 0-1.99-.698-1.99-2.094v-4.074h-.98v-.5l.98-.43.44-1.463h.6v1.587h1.986v.806h-1.987v4.032c0 .412.097.73.293.95.195.22.464.33.806.33zm6.724-1.14c0 .64-.238 1.13-.713 1.476-.474.346-1.14.52-2 .52-.907 0-1.615-.145-2.124-.432v-.963c.33.168.683.3 1.06.395.377.096.74.144 1.09.144.542 0 .96-.088 1.25-.26.292-.174.438-.437.438-.79 0-.268-.116-.496-.347-.686-.23-.19-.682-.413-1.353-.67-.638-.24-1.09-.446-1.36-.623-.268-.176-.468-.377-.6-.602-.13-.226-.196-.494-.196-.807 0-.557.227-.998.68-1.32.455-.324 1.078-.485 1.87-.485.737 0 1.458.15 2.162.45l-.37.844c-.686-.285-1.31-.426-1.867-.426-.492 0-.863.077-1.113.23-.25.155-.375.368-.375.64 0 .182.047.338.14.467.094.13.245.253.454.37.207.117.607.285 1.2.506.81.296 1.36.594 1.646.894.285.3.428.677.428 1.13zm9.225 1.87l-.207-.975h-.05c-.342.43-.683.72-1.022.872-.34.152-.763.228-1.27.228-.68 0-1.213-.175-1.598-.525-.386-.35-.578-.848-.578-1.494 0-1.383 1.106-2.108 3.32-2.175l1.16-.036v-.425c0-.54-.115-.936-.346-1.192-.23-.256-.6-.384-1.11-.384-.57 0-1.216.175-1.937.525l-.317-.795c.337-.183.707-.327 1.11-.43.4-.105.804-.157 1.208-.157.818 0 1.423.18 1.817.543.394.364.59.945.59 1.745v4.675h-.768zm-2.345-.73c.646 0 1.153-.178 1.522-.532.37-.355.553-.85.553-1.488v-.62l-1.037.045c-.826.03-1.42.157-1.785.384-.364.226-.547.58-.547 1.06 0 .374.115.66.342.855.227.196.545.294.953.294zm9.67-1.14c0 .64-.24 1.13-.714 1.476-.474.346-1.14.52-2 .52-.907 0-1.615-.145-2.124-.432v-.963c.33.168.683.3 1.06.395.377.096.74.144 1.09.144.542 0 .96-.088 1.25-.26.292-.174.438-.437.438-.79 0-.268-.116-.496-.347-.686-.23-.19-.682-.413-1.353-.67-.638-.24-1.09-.446-1.36-.623-.268-.176-.468-.377-.6-.602-.13-.226-.197-.494-.197-.807 0-.557.228-.998.682-1.32.453-.324 1.076-.485 1.867-.485.738 0 1.46.15 2.163.45l-.37.844c-.686-.285-1.31-.426-1.868-.426-.49 0-.862.077-1.112.23-.25.155-.375.368-.375.64 0 .182.047.338.14.467.094.13.245.253.454.37.207.117.607.285 1.2.506.81.296 1.36.594 1.646.894.285.3.428.677.428 1.13zm3.924-4.98h1.11l1.5 3.906c.33.892.535 1.536.614 1.932h.05c.054-.213.167-.577.34-1.09.173-.516.74-2.098 1.697-4.748h1.114l-2.944 7.8c-.292.77-.632 1.318-1.022 1.64-.39.324-.868.485-1.434.485-.317 0-.63-.035-.938-.106v-.832c.23.05.486.075.77.075.712 0 1.22-.4 1.524-1.2l.38-.975-2.76-6.888zm13.45 3.42c0 1.115-.282 1.987-.845 2.614-.563.627-1.34.94-2.33.94-.614 0-1.157-.143-1.632-.43-.476-.288-.842-.7-1.1-1.238-.26-.537-.388-1.166-.388-1.887 0-1.118.28-1.988.838-2.61.558-.624 1.333-.935 2.325-.935.958 0 1.72.32 2.284.956.564.64.847 1.5.847 2.59zm-5.22 0c0 .874.175 1.54.525 2 .35.457.865.686 1.544.686.678 0 1.194-.228 1.546-.684.352-.456.528-1.124.528-2.003 0-.872-.176-1.534-.528-1.986-.352-.452-.872-.678-1.56-.678-.68 0-1.19.223-1.537.67-.347.445-.52 1.11-.52 1.993zm8.013-3.42v4.444c0 .558.127.975.38 1.25.255.275.653.412 1.195.412.716 0 1.24-.196 1.57-.587.333-.393.498-1.032.498-1.92v-3.6h1.038v6.85h-.856l-.15-.92h-.057c-.21.34-.506.597-.883.776-.377.18-.807.27-1.29.27-.834 0-1.458-.2-1.873-.595-.414-.395-.62-1.028-.62-1.9v-4.48h1.05zm15.812 0v.656l-1.27.15c.118.146.222.337.314.572.09.236.136.5.136.797 0 .67-.23 1.206-.687 1.606-.46.4-1.09.6-1.89.6-.203 0-.395-.015-.574-.05-.44.235-.662.528-.662.883 0 .187.077.326.23.415.155.09.42.135.795.135h1.21c.743 0 1.313.156 1.71.468.4.314.598.768.598 1.364 0 .758-.305 1.336-.913 1.734-.608.398-1.496.597-2.662.597-.896 0-1.587-.167-2.072-.5-.485-.333-.727-.804-.727-1.412 0-.417.133-.778.4-1.082.266-.303.64-.51 1.125-.617-.176-.08-.322-.203-.44-.37-.12-.166-.18-.36-.18-.58 0-.25.067-.47.2-.657.134-.187.344-.368.632-.543-.354-.146-.643-.394-.866-.744-.223-.35-.334-.75-.334-1.2 0-.75.225-1.33.675-1.736.45-.406 1.087-.61 1.913-.61.358 0 .68.043.968.126h2.37zm-5.462 8c0 .37.156.652.468.844.314.19.762.287 1.345.287.87 0 1.516-.13 1.934-.39.418-.26.628-.613.628-1.06 0-.37-.115-.627-.344-.77-.23-.144-.66-.216-1.294-.216h-1.244c-.47 0-.837.112-1.1.337-.262.226-.393.55-.393.97zm.562-5.806c0 .48.135.84.406 1.087.272.247.65.37 1.133.37 1.012 0 1.518-.492 1.518-1.475 0-1.03-.51-1.544-1.536-1.544-.488 0-.863.132-1.125.395-.264.263-.395.652-.395 1.17zm9.2 4.78c-1.013 0-1.81-.307-2.397-.924-.585-.617-.878-1.473-.878-2.57 0-1.103.272-1.98.816-2.63.543-.65 1.274-.975 2.19-.975.86 0 1.538.282 2.038.847.5.564.75 1.31.75 2.234v.657h-4.72c.022.804.225 1.414.61 1.83.386.417.928.626 1.63.626.736 0 1.465-.155 2.186-.464v.925c-.367.16-.714.273-1.04.342-.328.07-.722.103-1.185.103zm-.28-6.23c-.55 0-.99.18-1.317.537-.327.36-.52.855-.578 1.49h3.58c0-.655-.145-1.156-.436-1.504-.292-.348-.71-.522-1.25-.522zm6.78 5.375c.183 0 .36-.015.53-.042.172-.027.308-.055.408-.084v.794c-.113.054-.28.098-.497.134-.22.035-.416.053-.59.053-1.326 0-1.988-.698-1.988-2.094v-4.074h-.982v-.5l.982-.43.437-1.463h.6v1.587h1.988v.806h-1.988v4.032c0 .412.098.73.294.95.195.22.463.33.805.33zm-132.962 19.2c.183 0 .36-.015.53-.042.172-.027.307-.055.407-.084v.794c-.113.054-.278.098-.497.134-.22.035-.415.053-.59.053-1.326 0-1.988-.698-1.988-2.094v-4.074h-.98v-.5l.98-.43.438-1.463h.6v1.587H44v.806h-1.987v4.032c0 .412.097.73.293.95.196.22.465.33.807.33zm6.993.73v-4.43c0-.56-.127-.976-.38-1.25-.255-.276-.653-.414-1.195-.414-.72 0-1.246.196-1.577.588-.33.39-.497 1.033-.497 1.925V257H45.42v-9.725h1.036v2.944c0 .353-.016.647-.05.88h.063c.203-.33.494-.59.87-.778.378-.19.808-.284 1.29-.284.84 0 1.467.198 1.886.596.418.398.628 1.03.628 1.897V257h-1.038zm6.063.125c-1.014 0-1.813-.308-2.398-.925-.586-.617-.878-1.473-.878-2.57 0-1.103.272-1.98.815-2.63.543-.65 1.273-.975 2.19-.975.858 0 1.537.282 2.038.847.5.564.75 1.31.75 2.234v.657h-4.72c.022.804.225 1.414.61 1.83.386.417.928.626 1.628.626.738 0 1.467-.155 2.188-.464v.925c-.367.16-.714.273-1.04.342-.328.07-.723.103-1.185.103zm-.282-6.23c-.55 0-.99.178-1.316.536-.327.36-.52.855-.578 1.49h3.58c0-.655-.145-1.156-.436-1.504-.292-.348-.71-.522-1.25-.522zm13.3 6.105v-4.456c0-.546-.117-.955-.35-1.228-.234-.273-.596-.41-1.088-.41-.646 0-1.123.186-1.43.557-.31.37-.464.94-.464 1.712V257H64.82v-4.456c0-.546-.118-.955-.35-1.228-.235-.273-.6-.41-1.095-.41-.65 0-1.126.195-1.428.585-.302.39-.453 1.03-.453 1.916V257h-1.038v-6.85h.844l.17.938h.05c.195-.334.47-.594.827-.782.356-.187.755-.28 1.197-.28 1.07 0 1.77.386 2.1 1.162h.05c.204-.36.5-.642.887-.85.39-.21.83-.313 1.326-.313.775 0 1.355.2 1.74.597.386.398.58 1.034.58 1.91V257h-1.038zm4.262-1.487l.094.143c-.11.417-.265.9-.47 1.453-.203.55-.416 1.065-.636 1.54h-.782c.113-.433.237-.97.372-1.606.136-.638.23-1.148.285-1.53h1.137zm11.288-1.944c0 1.115-.282 1.987-.844 2.614-.563.627-1.34.94-2.33.94-.614 0-1.158-.143-1.633-.43-.474-.288-.84-.7-1.1-1.238-.257-.537-.386-1.166-.386-1.887 0-1.118.28-1.988.837-2.61.56-.624 1.335-.935 2.326-.935.96 0 1.72.32 2.285.956.565.64.848 1.5.848 2.59zm-5.22 0c0 .874.176 1.54.526 2 .35.457.864.686 1.544.686s1.194-.228 1.546-.684c.352-.456.53-1.124.53-2.003 0-.872-.178-1.534-.53-1.986-.352-.452-.87-.678-1.56-.678-.678 0-1.19.223-1.536.67-.346.445-.52 1.11-.52 1.993zM91.245 257v-4.43c0-.56-.127-.976-.38-1.25-.256-.276-.654-.414-1.195-.414-.718 0-1.243.194-1.576.582-.334.387-.5 1.027-.5 1.918V257h-1.038v-6.85h.844l.17.938h.05c.21-.338.51-.6.893-.785.383-.185.81-.278 1.28-.278.826 0 1.447.2 1.863.597.417.398.625 1.034.625 1.91V257h-1.036zm8.706-.73c.183 0 .36-.015.53-.042.172-.027.308-.055.408-.084v.794c-.113.054-.28.098-.497.134-.218.035-.415.053-.59.053-1.325 0-1.987-.698-1.987-2.094v-4.074h-.982v-.5l.983-.43.437-1.463h.6v1.587h1.988v.806H98.85v4.032c0 .412.098.73.294.95.196.22.464.33.806.33zm6.994.73v-4.43c0-.56-.127-.976-.38-1.25-.256-.276-.654-.414-1.195-.414-.722 0-1.248.196-1.58.588-.33.39-.496 1.033-.496 1.925V257h-1.038v-9.725h1.038v2.944c0 .353-.017.647-.05.88h.062c.204-.33.495-.59.872-.778.377-.19.807-.284 1.29-.284.838 0 1.466.198 1.885.596.42.398.628 1.03.628 1.897V257h-1.036zm6.062.125c-1.012 0-1.81-.308-2.397-.925-.586-.617-.88-1.473-.88-2.57 0-1.103.273-1.98.817-2.63.544-.65 1.274-.975 2.19-.975.86 0 1.538.282 2.038.847.5.564.75 1.31.75 2.234v.657h-4.72c.022.804.225 1.414.61 1.83.386.417.93.626 1.63.626.736 0 1.465-.155 2.186-.464v.925c-.365.16-.712.273-1.04.342-.326.07-.72.103-1.184.103zm-.28-6.23c-.55 0-.99.178-1.317.536-.328.36-.52.855-.58 1.49h3.583c0-.655-.146-1.156-.438-1.504-.292-.348-.708-.522-1.25-.522zm13.5-.745v.656l-1.27.15c.117.146.22.337.313.572.09.236.136.5.136.797 0 .67-.23 1.206-.687 1.606-.46.4-1.09.6-1.89.6-.203 0-.395-.015-.574-.05-.44.235-.662.528-.662.883 0 .187.077.326.23.415.155.09.42.135.795.135h1.21c.743 0 1.313.156 1.71.468.4.314.598.768.598 1.364 0 .758-.305 1.336-.913 1.734-.608.398-1.496.597-2.662.597-.896 0-1.587-.167-2.072-.5-.485-.333-.727-.804-.727-1.412 0-.417.133-.778.4-1.082.266-.303.64-.51 1.125-.617-.176-.08-.322-.203-.44-.37-.12-.166-.18-.36-.18-.58 0-.25.067-.47.2-.657.134-.187.344-.368.632-.543-.354-.146-.643-.394-.866-.744-.223-.35-.334-.75-.334-1.2 0-.75.225-1.33.675-1.736.45-.406 1.087-.61 1.913-.61.358 0 .68.043.968.126h2.37zm-5.463 8c0 .37.156.652.468.844.314.19.762.287 1.345.287.87 0 1.516-.13 1.934-.39.418-.26.628-.613.628-1.06 0-.37-.115-.627-.344-.77-.23-.144-.66-.216-1.294-.216h-1.244c-.47 0-.837.112-1.1.337-.262.226-.393.55-.393.97zm.562-5.806c0 .48.135.84.406 1.087.272.247.65.37 1.133.37 1.012 0 1.518-.492 1.518-1.475 0-1.03-.51-1.544-1.536-1.544-.488 0-.863.132-1.125.395-.264.263-.395.652-.395 1.17zm12.22 1.225c0 1.115-.282 1.987-.845 2.614-.563.627-1.34.94-2.33.94-.614 0-1.157-.143-1.632-.43-.476-.288-.842-.7-1.1-1.238-.26-.537-.388-1.166-.388-1.887 0-1.118.28-1.988.838-2.61.558-.624 1.333-.935 2.325-.935.958 0 1.72.32 2.284.956.564.64.847 1.5.847 2.59zm-5.22 0c0 .874.175 1.54.525 2 .35.457.865.686 1.544.686.68 0 1.195-.228 1.547-.684.353-.456.53-1.124.53-2.003 0-.872-.177-1.534-.53-1.986-.35-.452-.87-.678-1.56-.678-.678 0-1.19.223-1.536.67-.346.445-.52 1.11-.52 1.993zm6.888 2.768c0-.28.063-.49.19-.635.127-.144.31-.215.547-.215.242 0 .43.07.566.215.135.144.203.355.203.635 0 .27-.07.48-.207.625-.138.145-.325.218-.563.218-.213 0-.39-.064-.528-.196-.14-.13-.21-.346-.21-.646zM43.4 55.6c-1.326 0-2.4 1.075-2.4 2.4v12.17c-.662 0-1.2.537-1.2 1.2v3.6c0 .662.538 1.2 1.2 1.2v2.4c-.662 0-1.2.537-1.2 1.2v3.6c0 .662.538 1.2 1.2 1.2V130c0 1.326 1.074 2.4 2.4 2.4h36c1.326 0 2.4-1.074 2.4-2.4V58c0-1.325-1.074-2.4-2.4-2.4h-36zm0 57.77v-45.6h30c.664 0 1.2-.538 1.2-1.2 0-.663-.536-1.2-1.2-1.2h-30V58h36v55.37h-36zm0 16.63v-14.23h36V130h-36zm10.8-69.43h9.6c.664 0 1.2.537 1.2 1.2 0 .662-.536 1.2-1.2 1.2h-9.6c-.662 0-1.2-.538-1.2-1.2 0-.663.538-1.2 1.2-1.2zm13.2 1.03c0-.662.538-1.2 1.2-1.2.662 0 1.2.538 1.2 1.2 0 .663-.538 1.2-1.2 1.2-.662 0-1.2-.537-1.2-1.2zm-3.6 61.2c0 1.324-1.076 2.4-2.4 2.4-1.324 0-2.4-1.076-2.4-2.4 0-1.323 1.076-2.4 2.4-2.4 1.324 0 2.4 1.077 2.4 2.4zm2.4 0c0-2.65-2.15-4.8-4.8-4.8s-4.8 2.15-4.8 4.8 2.15 4.8 4.8 4.8 4.8-2.15 4.8-4.8z"/>
  </g>
</svg>
