<svg width="1287" height="551" viewBox="0 0 1287 551" xmlns="http://www.w3.org/2000/svg"><title>[interludio]bg__footer</title><g stroke="#FFF" stroke-width=".2" fill="none" fill-rule="evenodd"><path d="M1286.412.064c-133.78 160.92-206.16 535.682-514.16 245.682-141.642-133.363-497 318-772.247 304.076"/><path d="M1286.412 6.921c-141.284 153.26-215.985 523.8-517.35 243.493-142.99-132.995-497.716 296-757.712 299.409"/><path d="M1286.412 13.78c-148.788 145.594-225.892 511.988-520.542 241.3-144.354-132.615-498.428 274-743.175 294.742"/><path d="M1286.412 20.636C1130.12 158.568 1050.53 520.892 762.68 259.746c-145.743-132.22-499.143 252-728.64 290.076"/><path d="M1286.412 27.493c-163.796 130.27-245.952 488.598-526.923 236.92-147.156-131.812-499.858 230-714.105 285.41"/><path d="M1286.412 34.35c-171.3 122.606-256.1 477.016-530.113 234.73-148.592-131.386-500.573 208-699.57 280.742"/><path d="M1286.412 41.207c-178.804 114.943-266.326 465.51-533.304 232.54-150.052-130.938-501.285 186-685.033 276.075"/><path d="M1286.412 48.064c-186.308 107.28-276.626 454.078-536.494 230.35-151.54-130.467-502 164-670.497 271.408"/><path d="M1286.412 54.922c-193.812 99.618-287 442.723-539.685 228.157-153.058-129.967-502.714 142-655.96 266.742"/><path d="M1286.412 61.78c-201.316 91.954-297.445 431.443-542.875 225.967-154.607-129.438-503.43 120-641.426 262.075"/><path d="M1286.412 68.636c-208.82 84.292-307.96 420.24-546.066 223.777-156.19-128.873-504.142 98-626.89 257.41"/><path d="M1286.412 75.493c-216.324 76.63-318.542 409.114-549.256 221.587-157.808-128.268-504.857 76-612.355 252.742"/><path d="M1286.412 82.35c-223.828 68.966-329.188 398.065-552.447 219.397-159.465-127.617-505.57 54-597.82 248.075"/><path d="M1286.412 89.207C1055.08 150.51 946.515 476.3 730.775 306.413c-161.167-126.912-506.286 32-583.284 243.41"/><path d="M1286.412 96.064c-238.836 53.64-350.666 376.196-558.828 215.016-162.915-126.147-507 10-568.748 238.742"/><path d="M1286.412 102.92C1040.072 148.9 924.92 468.3 724.394 315.748c-164.716-125.31-507.714-12-554.213 234.075"/><path d="M1286.412 109.78c-253.844 38.313-372.37 354.64-565.208 210.634-166.574-124.393-508.43-34-539.678 229.408"/><path d="M1286.412 116.636c-261.35 30.652-383.3 343.98-568.4 208.444-168.494-123.38-509.142-56-525.14 224.742"/><path d="M1286.412 123.493c-268.853 22.99-394.276 333.403-571.59 206.254-170.49-122.256-509.857-78-510.606 220.075"/><path d="M1286.412 130.35c-276.357 15.326-405.294 322.907-574.78 204.063-172.564-121.002-510.57-100-496.07 215.41"/><path d="M1286.412 137.207c-283.86 7.663-416.347 312.495-577.97 201.873-174.73-119.593-511.286-122-481.536 210.742"/><path d="M238.25 549.822c-45-350.075 290-324.075 467-206.075 153.732 102.487 289.797-199.683 581.162-199.683"/></g></svg>