<svg width="127" height="101" viewBox="0 0 127 101" xmlns="http://www.w3.org/2000/svg"><title>[interludio]adaptive_icons04</title><g fill="none" fill-rule="evenodd"><path d="M42.133 50.524c-.105 17.12 13.69 31.084 30.81 31.188 17.12.104 31.084-13.69 31.19-30.81.103-17.122-13.69-31.085-30.81-31.19-17.122-.103-31.085 13.692-31.19 30.812" fill="#F4F3EF"/><path fill="#FCD410" d="M100.01 51.315L77.23 34.71l-.036 6.027-34-.18-.06 9.973 4 .024-.06 10 29.998.157-.036 6"/><path stroke="#333" stroke-width="2" d="M7.268 28.31l14.706.09 8.094 12.05 5.126.03M7.134 50.31l36 .22M7 72.31l14.706.09 7.99-11.952 13.376.082M25.683 90.424L39.718 70.51l15.293.092M26.146 14.426L39.96 30.51l15.295.094M55.133 50.603l-12-.073M43.072 60.53l34 .207-.037 6 23.024-15.395-22.83-16.604-.037 6-30-.183M67.133 50.676l4 .024M59.133 50.627l4 .024M59.255 30.628l4 .024M59.01 70.627l4 .024M74.95 99.972c-12.767-.078-24.385-4.938-33.167-12.872M84.754.982c23.163 4.46 40.594 24.907 40.446 49.35M122.55 68.586c-4.27 10.87-12.174 19.904-22.21 25.616"/><path d="M46.175 21.227c7.342-6.7 17.128-10.763 27.852-10.698 22.62.137 40.844 18.585 40.706 41.205-.108 17.623-11.33 32.58-26.98 38.26M43.194 40.53l-4-.024" stroke="#333" stroke-width="2"/><path d="M13.268 28.348c-.02 3.314-2.723 5.983-6.036 5.962-3.314-.02-5.984-2.722-5.964-6.036.02-3.314 2.723-5.983 6.037-5.963 3.313.02 5.983 2.724 5.963 6.038M13 72.347c.02-3.314-2.65-6.016-5.963-6.036C3.723 66.29 1.02 68.96 1 72.275c-.02 3.314 2.65 6.016 5.964 6.036 3.313.02 6.016-2.65 6.036-5.963M13.134 50.347c-.02 3.314-2.723 5.984-6.036 5.963-3.314-.02-5.984-2.722-5.964-6.036.02-3.314 2.723-5.984 6.037-5.963 3.314.02 5.984 2.723 5.964 6.037M30.89 90.456c.02-3.314-2.65-6.016-5.963-6.036-3.314-.02-6.017 2.65-6.037 5.963-.02 3.314 2.65 6.016 5.964 6.036 3.313.02 6.016-2.65 6.036-5.964M31.353 14.457c-.02 3.314-2.723 5.984-6.036 5.963-3.314-.02-5.984-2.722-5.964-6.036.02-3.314 2.723-5.984 6.037-5.963 3.313.02 5.983 2.723 5.963 6.037" fill="#FCD410"/><path d="M23.353 14.41c.014-2.372 1.065-4.49 2.712-5.944-.222-.026-.447-.043-.675-.045-3.314-.02-6.017 2.65-6.037 5.965-.02 3.313 2.65 6.016 5.963 6.036.23.003.454-.012.677-.035-1.63-1.475-2.654-3.605-2.64-5.976M5.268 28.3c.014-2.372 1.065-4.49 2.712-5.944-.222-.026-.447-.043-.675-.045-3.314-.02-6.017 2.65-6.037 5.965-.02 3.313 2.65 6.016 5.963 6.036.23.003.455-.012.678-.035-1.63-1.475-2.654-3.605-2.64-5.976M5.134 50.298c.014-2.37 1.065-4.488 2.712-5.943-.222-.026-.447-.043-.675-.045-3.313-.02-6.016 2.65-6.036 5.964-.02 3.313 2.65 6.016 5.963 6.036.23.002.454-.013.677-.036-1.63-1.475-2.654-3.605-2.64-5.976M5 72.298c.014-2.37 1.065-4.488 2.712-5.943-.222-.026-.447-.043-.675-.045C3.723 66.29 1.02 68.96 1 72.274c-.02 3.313 2.65 6.016 5.963 6.036.23.002.454-.013.677-.036C6.01 76.8 4.986 74.67 5 72.298M22.89 90.407c.014-2.37 1.065-4.488 2.712-5.943-.222-.026-.447-.043-.675-.045-3.314-.02-6.017 2.65-6.037 5.963-.02 3.313 2.65 6.016 5.963 6.036.23 0 .454-.014.677-.037-1.63-1.475-2.654-3.605-2.64-5.976" fill="#E8C42D"/><path d="M13.268 28.348c-.02 3.314-2.723 5.983-6.036 5.962-3.314-.02-5.984-2.722-5.964-6.036.02-3.314 2.723-5.983 6.037-5.963 3.313.02 5.983 2.724 5.963 6.038zM13 72.347c.02-3.314-2.65-6.016-5.963-6.036C3.723 66.29 1.02 68.96 1 72.275c-.02 3.314 2.65 6.016 5.964 6.036 3.313.02 6.016-2.65 6.036-5.963zM13.134 50.347c-.02 3.314-2.723 5.984-6.036 5.963-3.314-.02-5.984-2.722-5.964-6.036.02-3.314 2.723-5.984 6.037-5.963 3.314.02 5.984 2.723 5.964 6.037zM30.89 90.456c.02-3.314-2.65-6.016-5.963-6.036-3.314-.02-6.017 2.65-6.037 5.963-.02 3.314 2.65 6.016 5.964 6.036 3.313.02 6.016-2.65 6.036-5.964zM31.353 14.457c-.02 3.314-2.723 5.984-6.036 5.963-3.314-.02-5.984-2.722-5.964-6.036.02-3.314 2.723-5.984 6.037-5.963 3.313.02 5.983 2.723 5.963 6.037z" stroke="#333" stroke-width="2"/></g></svg>