<svg width="208" height="311" viewBox="0 0 208 311" xmlns="http://www.w3.org/2000/svg">
  <g fill="none" fill-rule="evenodd">
    <path fill="#1966FF" fill-rule="nonzero" d="M8.4 302.08h191.146V8.2H8.4v141.2h-8V.2h207.146v309.88H.4V276.2h8"/>
    <path d="M7.232 185.6l-2.57-9.05h-.077c.12 1.542.18 2.74.18 3.593v5.457H1.76v-12.564h4.52l2.62 8.92h.07l2.57-8.92h4.528V185.6h-3.12v-5.51c0-.285.005-.603.014-.953.008-.35.047-1.205.116-2.57h-.078l-2.535 9.033h-3.23zm20.642-4.89c0 1.593-.428 2.835-1.285 3.726-.857.89-2.056 1.336-3.597 1.336-1.478 0-2.654-.456-3.528-1.367-.873-.91-1.31-2.142-1.31-3.695 0-1.587.428-2.82 1.284-3.7.856-.88 2.058-1.32 3.605-1.32.956 0 1.8.205 2.535.612.733.406 1.3.99 1.697 1.748.398.76.597 1.646.597 2.66zm-6.308 0c0 .837.112 1.474.336 1.912.223.44.598.658 1.125.658.522 0 .89-.22 1.105-.658.214-.438.322-1.075.322-1.912 0-.83-.11-1.458-.327-1.882-.217-.424-.59-.636-1.117-.636-.515 0-.885.21-1.108.632-.224.42-.336 1.05-.336 1.886zm14.17-5.02c1.06 0 1.902.445 2.524 1.333.62.888.932 2.117.932 3.687 0 1.58-.313 2.82-.94 3.717-.628.897-1.5 1.345-2.618 1.345-.36 0-.68-.04-.962-.116-.28-.077-.532-.185-.752-.322-.22-.138-.477-.367-.77-.688h-.205l-.533.954h-2.62v-13.372h3.36v3.025c0 .36-.04.983-.122 1.865h.12c.327-.504.704-.868 1.13-1.09.428-.225.913-.337 1.457-.337zm-1.227 2.64c-.47 0-.815.163-1.033.49-.217.326-.326.84-.326 1.538v.472c0 .797.11 1.368.327 1.715.218.347.573.52 1.066.52.395 0 .7-.202.91-.606.213-.405.32-1 .32-1.784 0-1.564-.422-2.346-1.264-2.346zm9.976 7.27h-3.36v-9.737h3.36v9.737zm-3.446-12.16c0-.504.14-.88.42-1.126.282-.246.734-.37 1.36-.37.623 0 1.08.127 1.365.38.287.25.43.623.43 1.116 0 .985-.6 1.478-1.796 1.478-1.187 0-1.78-.493-1.78-1.478zm9.152 12.16h-3.36v-13.372h3.36V185.6zm7.03.172c-1.62 0-2.88-.43-3.777-1.293-.897-.864-1.345-2.09-1.345-3.684 0-1.644.415-2.906 1.246-3.785.83-.88 2.017-1.32 3.558-1.32 1.467 0 2.6.384 3.4 1.15.798.764 1.198 1.865 1.198 3.303v1.495h-6.007c.022.545.222.97.597 1.28.375.31.886.465 1.534.465.59 0 1.133-.056 1.628-.168.496-.11 1.033-.302 1.612-.57v2.414c-.527.268-1.072.454-1.633.557-.562.103-1.232.155-2.01.155zm-.198-7.795c-.395 0-.726.125-.992.374-.267.25-.423.64-.47 1.174h2.89c-.013-.47-.146-.845-.4-1.126-.256-.28-.598-.42-1.028-.42zM75.88 185.6l-.62-2.355h-4.082l-.636 2.355h-3.73l4.1-12.616h4.53l4.15 12.616h-3.713zm-1.325-5.14l-.54-2.062c-.127-.458-.28-1.05-.46-1.778s-.3-1.25-.357-1.565c-.052.293-.154.774-.305 1.444-.152.67-.49 1.99-1.01 3.96h2.672zm12.04 5.312c-.492 0-.934-.082-1.323-.245-.39-.163-.776-.457-1.16-.88h-.155c.103.68.155 1.105.155 1.27v3.91h-3.36v-13.964h2.732l.473 1.238h.155c.624-.94 1.486-1.41 2.586-1.41 1.078 0 1.923.448 2.536 1.342.613.894.92 2.12.92 3.678 0 1.57-.32 2.806-.96 3.708-.638.903-1.504 1.354-2.6 1.354zm-1.125-7.442c-.493 0-.838.176-1.036.528-.198.353-.305.875-.322 1.57v.265c0 .836.11 1.44.335 1.813.223.373.576.56 1.057.56.43 0 .742-.186.937-.555.195-.37.293-.98.293-1.834 0-.837-.098-1.437-.292-1.8-.194-.364-.518-.546-.97-.546zm12.443 7.442c-.492 0-.934-.082-1.323-.245-.39-.163-.776-.457-1.16-.88h-.155c.103.68.155 1.105.155 1.27v3.91h-3.36v-13.964h2.732l.473 1.238h.155c.624-.94 1.486-1.41 2.586-1.41 1.077 0 1.923.448 2.536 1.342.613.894.92 2.12.92 3.678 0 1.57-.32 2.806-.96 3.708-.638.903-1.504 1.354-2.6 1.354zm-1.126-7.442c-.492 0-.837.176-1.035.528-.198.353-.305.875-.322 1.57v.265c0 .836.11 1.44.335 1.813.223.373.576.56 1.057.56.43 0 .742-.186.937-.555.193-.37.29-.98.29-1.834 0-.837-.097-1.437-.29-1.8-.196-.364-.52-.546-.973-.546z" fill="#071D49"/>
    <path d="M86.4 47.4c-1.326 0-2.4 1.075-2.4 2.4v12.17c-.662 0-1.2.537-1.2 1.2v3.6c0 .662.538 1.2 1.2 1.2v2.4c-.662 0-1.2.537-1.2 1.2v3.6c0 .662.538 1.2 1.2 1.2v45.43c0 1.326 1.074 2.4 2.4 2.4h36c1.326 0 2.4-1.074 2.4-2.4v-72c0-1.325-1.074-2.4-2.4-2.4h-36zm0 57.77v-45.6h30c.664 0 1.2-.538 1.2-1.2 0-.663-.536-1.2-1.2-1.2h-30V49.8h36v55.37h-36zm0 16.63v-14.23h36v14.23h-36zm10.8-69.43h9.6c.664 0 1.2.537 1.2 1.2 0 .662-.536 1.2-1.2 1.2h-9.6c-.662 0-1.2-.538-1.2-1.2 0-.663.538-1.2 1.2-1.2zm13.2 1.03c0-.662.538-1.2 1.2-1.2.662 0 1.2.538 1.2 1.2 0 .663-.538 1.2-1.2 1.2-.662 0-1.2-.537-1.2-1.2zm-3.6 61.2c0 1.324-1.076 2.4-2.4 2.4-1.324 0-2.4-1.076-2.4-2.4 0-1.323 1.076-2.4 2.4-2.4 1.324 0 2.4 1.077 2.4 2.4zm2.4 0c0-2.65-2.15-4.8-4.8-4.8s-4.8 2.15-4.8 4.8 2.15 4.8 4.8 4.8 4.8-2.15 4.8-4.8z" fill="#1A66FF"/>
    <path d="M6.75 218.4H1.656v-9.138H6.75v.944H2.72v2.944h3.786v.937H2.72v3.363h4.03v.95zm6.08 0l-.205-.975h-.05c-.342.43-.682.72-1.022.872-.34.152-.763.228-1.272.228-.678 0-1.21-.175-1.596-.525-.385-.35-.578-.848-.578-1.494 0-1.383 1.106-2.108 3.32-2.175l1.16-.036v-.425c0-.54-.114-.936-.345-1.192-.23-.256-.6-.384-1.11-.384-.57 0-1.215.175-1.936.525l-.32-.795c.34-.183.708-.327 1.11-.43.402-.105.806-.158 1.21-.158.816 0 1.422.182 1.815.544.393.364.59.945.59 1.745v4.675h-.77zm-2.343-.73c.646 0 1.154-.178 1.522-.533.368-.354.552-.85.552-1.487v-.62l-1.037.045c-.825.03-1.42.157-1.784.384-.364.226-.546.58-.546 1.06 0 .374.113.66.34.855.227.196.545.294.953.294zm9.67-1.14c0 .64-.238 1.13-.713 1.476-.475.346-1.142.52-2 .52-.91 0-1.617-.145-2.125-.432v-.963c.328.168.68.3 1.058.395.377.096.74.144 1.09.144.542 0 .96-.088 1.25-.26.292-.174.438-.437.438-.79 0-.268-.115-.496-.347-.686-.232-.19-.683-.413-1.354-.672-.637-.237-1.09-.444-1.36-.62-.268-.178-.468-.38-.6-.605-.13-.225-.196-.493-.196-.806 0-.557.227-.998.68-1.32.455-.324 1.078-.485 1.87-.485.738 0 1.458.15 2.162.45l-.368.844c-.688-.285-1.31-.426-1.87-.426-.49 0-.86.077-1.112.23-.25.155-.375.368-.375.638 0 .184.047.34.14.47.095.128.246.25.454.368.21.117.61.285 1.2.506.814.296 1.363.594 1.648.894.286.3.428.677.428 1.13zm2.724 1.87h-1.036v-6.85h1.037v6.85zm-1.124-8.706c0-.238.06-.412.175-.522.118-.11.264-.166.44-.166.165 0 .31.056.43.17.12.112.18.284.18.518 0 .233-.06.407-.18.522-.12.114-.265.17-.43.17-.176 0-.322-.056-.44-.17-.115-.115-.174-.29-.174-.522zm4.363 8.706h-1.04v-9.725h1.04v9.725zm1.11-6.85h1.114l1.5 3.906c.33.892.533 1.536.612 1.93h.05c.054-.21.168-.575.34-1.09.174-.514.74-2.096 1.698-4.746h1.112l-2.944 7.8c-.29.77-.632 1.318-1.02 1.64-.39.324-.87.485-1.436.485-.316 0-.63-.035-.937-.106v-.833c.228.05.484.075.767.075.713 0 1.22-.4 1.525-1.2l.382-.975-2.763-6.887zm15.282 4.98c0 .64-.237 1.13-.712 1.476-.475.346-1.142.52-2 .52-.908 0-1.617-.145-2.125-.432v-.963c.33.168.682.3 1.06.395.376.096.74.144 1.09.144.542 0 .958-.088 1.25-.26.292-.174.437-.437.437-.79 0-.268-.115-.496-.346-.686-.232-.19-.683-.413-1.354-.672-.637-.237-1.09-.444-1.36-.62-.268-.178-.468-.38-.6-.605-.13-.225-.196-.493-.196-.806 0-.557.227-.998.68-1.32.456-.324 1.08-.485 1.87-.485.738 0 1.46.15 2.163.45l-.37.844c-.688-.285-1.31-.426-1.87-.426-.49 0-.86.077-1.11.23-.25.155-.376.368-.376.638 0 .184.047.34.14.47.094.128.245.25.453.368.21.117.61.285 1.2.506.813.296 1.362.594 1.647.894.286.3.428.677.428 1.13zm2.663-4.98v4.444c0 .558.127.975.38 1.25.255.275.653.412 1.195.412.717 0 1.24-.196 1.572-.587.33-.393.497-1.032.497-1.92v-3.6h1.036v6.85H49l-.15-.92h-.056c-.213.34-.508.597-.885.776-.378.18-.808.27-1.29.27-.835 0-1.46-.2-1.873-.595-.415-.395-.622-1.028-.622-1.9v-4.48h1.05zm10.07-.113c.9 0 1.598.308 2.096.922.5.614.747 1.484.747 2.61 0 1.124-.25 1.998-.753 2.62-.502.624-1.2.935-2.09.935-.446 0-.853-.082-1.222-.247-.37-.164-.678-.418-.928-.76h-.075l-.22.882h-.744v-9.725h1.038v2.362c0 .53-.017 1.005-.05 1.425h.05c.483-.683 1.2-1.025 2.15-1.025zm-.15.87c-.71 0-1.22.202-1.533.61-.312.405-.468 1.09-.468 2.052 0 .96.16 1.65.48 2.064.322.415.836.622 1.545.622.636 0 1.11-.232 1.424-.697.312-.465.468-1.133.468-2.004 0-.89-.156-1.556-.468-1.994-.313-.437-.796-.656-1.45-.656zM68.63 218.4v-4.456c0-.546-.115-.955-.35-1.228-.232-.273-.595-.41-1.086-.41-.646 0-1.123.186-1.432.556-.308.37-.462.942-.462 1.713v3.825h-1.038v-4.456c0-.546-.116-.955-.35-1.228-.233-.273-.597-.41-1.093-.41-.65 0-1.127.195-1.43.585-.3.39-.453 1.03-.453 1.916v3.594H59.9v-6.85h.844l.168.937h.05c.196-.333.472-.593.83-.78.355-.188.754-.282 1.195-.282 1.07 0 1.77.387 2.1 1.162h.05c.205-.358.5-.64.888-.85.388-.208.83-.312 1.325-.312.775 0 1.355.2 1.74.597.386.398.58 1.034.58 1.91v4.468h-1.04zm4.214 0h-1.038v-6.85h1.038v6.85zm-1.125-8.706c0-.238.057-.412.174-.522.116-.11.262-.166.437-.166.168 0 .312.056.432.17.12.112.182.284.182.518 0 .233-.06.407-.182.522-.12.114-.264.17-.43.17-.176 0-.322-.056-.438-.17-.117-.115-.175-.29-.175-.522zm5.536 7.975c.184 0 .36-.015.53-.042.172-.027.308-.055.408-.084v.793c-.113.055-.278.1-.497.135-.22.035-.416.053-.59.053-1.326 0-1.988-.698-1.988-2.094v-4.074h-.983v-.5l.982-.43.436-1.464h.6v1.588h1.988v.806h-1.988v4.03c0 .414.098.73.294.95.196.222.465.333.806.333zm6.67.73h-1.04v-6.85h1.04v6.85zm-1.126-8.706c0-.238.058-.412.175-.522.117-.11.262-.166.437-.166.167 0 .31.056.432.17.12.112.18.284.18.518 0 .233-.06.407-.18.522-.12.114-.265.17-.432.17-.175 0-.32-.056-.437-.17-.117-.115-.175-.29-.175-.522zm8.012 8.706v-4.43c0-.56-.127-.976-.38-1.25-.255-.276-.653-.414-1.195-.414-.716 0-1.24.194-1.575.58-.333.39-.5 1.03-.5 1.92v3.594h-1.037v-6.85h.844l.167.937h.05c.213-.337.51-.598.894-.784.385-.185.812-.278 1.282-.278.826 0 1.446.2 1.863.597.417.398.625 1.034.625 1.91v4.468h-1.038zm4.67 0l-2.6-6.85h1.112l1.475 4.062c.332.95.528 1.567.586 1.85h.05c.046-.22.19-.678.435-1.37.244-.695.79-2.21 1.64-4.542h1.114l-2.6 6.85H95.48zm10.824-3.43c0 1.115-.28 1.987-.844 2.614-.562.627-1.34.94-2.33.94-.613 0-1.157-.143-1.632-.43-.475-.288-.842-.7-1.1-1.238-.258-.537-.388-1.166-.388-1.887 0-1.118.28-1.988.838-2.61.558-.624 1.333-.935 2.325-.935.958 0 1.72.32 2.284.956.564.64.846 1.5.846 2.59zm-5.22 0c0 .874.176 1.54.526 2 .35.457.865.686 1.544.686.68 0 1.195-.228 1.547-.684.352-.456.528-1.124.528-2.003 0-.872-.175-1.534-.527-1.986-.352-.452-.872-.678-1.56-.678-.678 0-1.19.223-1.537.67-.346.445-.52 1.11-.52 1.993zm8.076 3.43h-1.037v-6.85h1.037v6.85zm-1.125-8.706c0-.238.06-.412.175-.522.117-.11.263-.166.438-.166.167 0 .31.056.43.17.122.112.182.284.182.518 0 .233-.06.407-.18.522-.122.114-.265.17-.432.17-.175 0-.32-.056-.438-.17-.116-.115-.175-.29-.175-.522zm6.063 8.83c-.992 0-1.76-.304-2.303-.915-.544-.61-.816-1.475-.816-2.59 0-1.147.277-2.032.83-2.658.55-.625 1.338-.937 2.36-.937.328 0 .657.035.986.106.33.072.588.155.775.25l-.318.882c-.23-.09-.48-.167-.75-.228-.27-.06-.51-.09-.718-.09-1.392 0-2.088.887-2.088 2.662 0 .842.17 1.488.51 1.938.34.45.842.675 1.51.675.57 0 1.155-.124 1.755-.37v.92c-.457.236-1.034.355-1.73.355zm6.25 0c-1.013 0-1.81-.307-2.397-.924-.585-.617-.878-1.473-.878-2.57 0-1.103.272-1.98.816-2.63.544-.65 1.275-.975 2.19-.975.86 0 1.54.282 2.04.847.5.564.75 1.31.75 2.234v.656h-4.72c.02.805.224 1.415.61 1.832.385.416.927.625 1.627.625.738 0 1.467-.155 2.188-.464v.925c-.367.16-.714.273-1.04.342-.328.07-.722.103-1.185.103zm-.28-6.23c-.55 0-.99.18-1.317.537-.327.36-.52.855-.578 1.49h3.58c0-.655-.145-1.156-.436-1.504-.293-.348-.71-.522-1.25-.522zm8.986 4.237c0 .64-.237 1.13-.712 1.476-.475.346-1.142.52-2 .52-.91 0-1.617-.145-2.125-.432v-.963c.328.168.68.3 1.058.395.377.096.74.144 1.09.144.542 0 .96-.088 1.25-.26.292-.174.438-.437.438-.79 0-.268-.115-.496-.347-.686-.232-.19-.683-.413-1.354-.672-.637-.237-1.09-.444-1.36-.62-.268-.178-.468-.38-.6-.605-.13-.225-.196-.493-.196-.806 0-.557.227-.998.68-1.32.455-.324 1.078-.485 1.87-.485.738 0 1.458.15 2.162.45l-.368.844c-.688-.285-1.31-.426-1.87-.426-.49 0-.86.077-1.112.23-.25.155-.375.368-.375.638 0 .184.047.34.14.47.095.128.246.25.454.368.21.117.61.285 1.2.506.814.296 1.363.594 1.648.894.286.3.428.677.428 1.13zm9.225 1.87l-.205-.975h-.05c-.342.43-.682.72-1.022.872-.34.152-.763.228-1.272.228-.678 0-1.21-.175-1.596-.525-.385-.35-.578-.848-.578-1.494 0-1.383 1.106-2.108 3.32-2.175l1.16-.036v-.425c0-.54-.114-.936-.345-1.192-.23-.256-.6-.384-1.11-.384-.57 0-1.215.175-1.936.525l-.32-.795c.34-.183.708-.327 1.11-.43.402-.105.806-.158 1.21-.158.816 0 1.422.182 1.815.544.393.364.59.945.59 1.745v4.675h-.77zm-2.343-.73c.646 0 1.154-.178 1.522-.533.368-.354.552-.85.552-1.487v-.62l-1.037.045c-.825.03-1.42.157-1.784.384-.364.226-.546.58-.546 1.06 0 .374.113.66.34.855.227.196.545.294.953.294zm9.938.73v-4.43c0-.56-.127-.976-.38-1.25-.255-.276-.653-.414-1.195-.414-.717 0-1.242.194-1.575.58-.333.39-.5 1.03-.5 1.92v3.594h-1.038v-6.85h.844l.17.937h.05c.213-.337.51-.598.894-.784.383-.185.81-.278 1.28-.278.826 0 1.447.2 1.863.597.417.398.625 1.034.625 1.91v4.468h-1.037zm7.83-.92h-.055c-.48.697-1.196 1.045-2.15 1.045-.896 0-1.593-.306-2.09-.92-.5-.61-.748-1.482-.748-2.61 0-1.13.25-2.007.75-2.633.5-.625 1.196-.937 2.088-.937.93 0 1.642.337 2.137 1.012h.082l-.045-.493-.025-.482v-2.787h1.037v9.725h-.843l-.138-.92zm-2.074.176c.71 0 1.223-.192 1.542-.578.32-.385.478-1.007.478-1.866v-.218c0-.97-.16-1.664-.484-2.078-.323-.415-.84-.622-1.547-.622-.61 0-1.075.236-1.398.71-.323.472-.485 1.14-.485 2.002 0 .875.16 1.536.482 1.98.32.447.79.67 1.41.67zM4.626 230.626c.304 0 .577.024.82.074l-.145.962c-.283-.062-.533-.093-.75-.093-.554 0-1.028.224-1.422.674-.394.45-.59 1.01-.59 1.68v3.676H1.5v-6.85h.856l.12 1.27h.05c.253-.447.56-.79.918-1.033.358-.24.752-.362 1.18-.362zm4.994 7.1c-1.014 0-1.813-.31-2.398-.926-.586-.617-.878-1.473-.878-2.57 0-1.103.272-1.98.815-2.63.543-.65 1.273-.975 2.19-.975.858 0 1.537.282 2.037.847.5.564.75 1.31.75 2.234v.656H7.42c.02.805.223 1.415.608 1.832.386.416.928.625 1.628.625.738 0 1.467-.155 2.188-.464v.925c-.367.16-.714.273-1.04.342-.328.07-.723.103-1.185.103zm-.283-6.232c-.55 0-.988.18-1.315.537-.327.36-.52.855-.578 1.49h3.58c0-.655-.145-1.156-.437-1.504-.29-.348-.708-.522-1.25-.522zm7.307 6.23c-.992 0-1.76-.304-2.303-.915-.543-.61-.815-1.475-.815-2.59 0-1.147.276-2.032.828-2.658.552-.625 1.34-.937 2.36-.937.33 0 .658.035.987.106.33.072.587.155.775.25l-.32.882c-.228-.09-.478-.167-.75-.228-.27-.06-.51-.09-.718-.09-1.39 0-2.087.887-2.087 2.662 0 .842.17 1.488.51 1.938.34.45.842.675 1.51.675.57 0 1.155-.124 1.755-.37v.92c-.458.236-1.035.355-1.73.355zm6.25 0c-1.013 0-1.812-.307-2.397-.924-.586-.617-.878-1.473-.878-2.57 0-1.103.27-1.98.814-2.63.544-.65 1.274-.975 2.19-.975.86 0 1.538.282 2.038.847.5.564.75 1.31.75 2.234v.656h-4.718c.02.805.224 1.415.61 1.832.385.416.927.625 1.627.625.74 0 1.468-.155 2.19-.464v.925c-.368.16-.715.273-1.042.342-.327.07-.722.103-1.184.103zm-.282-6.23c-.55 0-.988.18-1.315.537-.327.36-.52.855-.578 1.49h3.58c0-.655-.146-1.156-.438-1.504-.29-.348-.708-.522-1.25-.522zm5.607 6.106h-1.04v-6.85h1.04v6.85zm-1.126-8.706c0-.238.058-.412.175-.522.115-.11.26-.166.436-.166.167 0 .31.056.43.17.122.112.183.284.183.518 0 .233-.062.407-.183.522-.12.114-.264.17-.43.17-.176 0-.322-.056-.438-.17-.118-.115-.176-.29-.176-.522zm6.512 8.83c-.446 0-.853-.08-1.222-.246-.368-.164-.678-.418-.928-.76h-.075c.05.4.076.78.076 1.138v2.82H30.42v-9.926h.842l.144.937h.05c.267-.375.577-.645.93-.812.356-.167.762-.25 1.22-.25.91 0 1.61.31 2.103.93.493.622.74 1.493.74 2.614 0 1.124-.25 1.998-.753 2.62-.502.624-1.2.935-2.09.935zm-.15-6.218c-.7 0-1.206.194-1.52.58-.31.39-.47 1.006-.48 1.85v.233c0 .96.16 1.65.48 2.064.322.415.837.622 1.545.622.593 0 1.056-.24 1.392-.72.335-.478.503-1.138.503-1.98 0-.854-.168-1.51-.503-1.965-.336-.456-.807-.684-1.416-.684zm7.02 5.363c.182 0 .36-.015.53-.042.17-.027.306-.055.406-.084v.793c-.112.055-.278.1-.496.135-.22.035-.416.053-.59.053-1.326 0-1.99-.698-1.99-2.094v-4.074h-.98v-.5l.98-.43.44-1.464h.6v1.588h1.986v.806h-1.987v4.03c0 .414.098.73.294.95.195.222.463.333.805.333zm6.724-1.14c0 .64-.237 1.13-.713 1.476-.475.346-1.14.52-2 .52-.908 0-1.616-.145-2.125-.432v-.963c.33.168.683.3 1.06.395.377.096.74.144 1.09.144.542 0 .96-.088 1.25-.26.292-.174.438-.437.438-.79 0-.268-.116-.496-.347-.686-.23-.19-.682-.413-1.353-.672-.638-.237-1.09-.444-1.36-.62-.268-.178-.468-.38-.6-.605-.13-.225-.196-.493-.196-.806 0-.557.227-.998.68-1.32.455-.324 1.078-.485 1.87-.485.737 0 1.458.15 2.162.45l-.37.844c-.686-.285-1.31-.426-1.867-.426-.493 0-.864.077-1.114.23-.25.155-.375.368-.375.638 0 .184.048.34.142.47.094.128.245.25.453.368.208.117.608.285 1.2.506.813.296 1.36.594 1.647.894.285.3.428.677.428 1.13zm9.225 1.87l-.206-.975h-.05c-.343.43-.684.72-1.023.872-.34.152-.764.228-1.272.228-.68 0-1.21-.175-1.597-.525-.385-.35-.578-.848-.578-1.494 0-1.383 1.106-2.108 3.32-2.175l1.16-.036v-.425c0-.54-.114-.936-.346-1.192-.23-.256-.6-.384-1.11-.384-.57 0-1.216.175-1.937.525l-.318-.795c.336-.183.706-.327 1.108-.43.402-.105.805-.158 1.21-.158.816 0 1.42.182 1.815.544.394.364.59.945.59 1.745v4.675h-.768zm-2.344-.73c.647 0 1.154-.178 1.523-.533.37-.354.553-.85.553-1.487v-.62l-1.037.045c-.826.03-1.42.157-1.786.384-.364.226-.547.58-.547 1.06 0 .374.114.66.34.855.228.196.546.294.954.294zm9.67-1.14c0 .64-.237 1.13-.713 1.476-.475.346-1.14.52-2 .52-.908 0-1.616-.145-2.125-.432v-.963c.33.168.683.3 1.06.395.377.096.74.144 1.09.144.542 0 .96-.088 1.25-.26.292-.174.438-.437.438-.79 0-.268-.116-.496-.347-.686-.23-.19-.682-.413-1.353-.672-.638-.237-1.09-.444-1.36-.62-.268-.178-.468-.38-.6-.605-.13-.225-.196-.493-.196-.806 0-.557.227-.998.68-1.32.455-.324 1.078-.485 1.87-.485.737 0 1.458.15 2.162.45l-.37.844c-.686-.285-1.31-.426-1.867-.426-.493 0-.864.077-1.114.23-.25.155-.375.368-.375.638 0 .184.048.34.142.47.094.128.245.25.453.368.208.117.608.285 1.2.506.813.296 1.36.594 1.647.894.285.3.428.677.428 1.13zm3.925-4.98h1.112l1.5 3.906c.33.892.534 1.536.613 1.93h.05c.054-.21.168-.575.34-1.09.174-.514.74-2.096 1.697-4.746H74.1l-2.944 7.8c-.29.77-.632 1.318-1.022 1.64-.39.324-.867.485-1.434.485-.317 0-.63-.035-.938-.106v-.833c.23.05.486.075.77.075.712 0 1.22-.4 1.524-1.2l.38-.975-2.76-6.887zm13.45 3.42c0 1.115-.28 1.987-.844 2.614-.56.627-1.338.94-2.33.94-.613 0-1.156-.143-1.63-.43-.476-.288-.843-.7-1.1-1.238-.26-.537-.39-1.166-.39-1.887 0-1.118.28-1.988.84-2.61.557-.624 1.332-.935 2.324-.935.958 0 1.72.32 2.284.956.565.64.847 1.5.847 2.59zm-5.22 0c0 .874.176 1.54.526 2 .35.457.866.686 1.545.686.68 0 1.195-.228 1.547-.684.352-.456.528-1.124.528-2.003 0-.872-.176-1.534-.528-1.986-.352-.452-.872-.678-1.56-.678-.68 0-1.19.223-1.537.67-.346.445-.52 1.11-.52 1.993zm8.014-3.42v4.444c0 .558.126.975.38 1.25s.652.412 1.194.412c.716 0 1.24-.196 1.572-.587.33-.393.496-1.032.496-1.92v-3.6H88.6v6.85h-.856l-.15-.92h-.057c-.212.34-.507.597-.884.776-.377.18-.807.27-1.29.27-.834 0-1.458-.2-1.872-.595-.414-.395-.62-1.028-.62-1.9v-4.48h1.05zm15.81 0v.656l-1.268.15c.117.146.22.337.313.572.092.236.137.5.137.797 0 .67-.23 1.206-.687 1.606-.458.4-1.087.6-1.888.6-.204 0-.395-.015-.575-.05-.44.235-.662.528-.662.882 0 .188.077.327.23.416.155.09.42.134.795.134h1.212c.742 0 1.312.157 1.71.47.398.312.597.766.597 1.362 0 .758-.304 1.336-.913 1.734-.607.398-1.495.597-2.66.597-.897 0-1.588-.167-2.073-.5-.486-.333-.728-.804-.728-1.413 0-.416.132-.777.4-1.08.265-.305.64-.51 1.124-.62-.175-.08-.322-.202-.44-.368-.12-.167-.18-.36-.18-.582 0-.25.068-.468.2-.656.134-.187.345-.368.632-.544-.354-.145-.642-.393-.865-.743-.222-.35-.334-.75-.334-1.2 0-.75.225-1.33.675-1.736.45-.406 1.09-.61 1.914-.61.358 0 .68.043.968.126h2.37zm-5.46 8c0 .37.155.652.467.844.313.19.76.287 1.344.287.872 0 1.517-.13 1.936-.39.418-.26.628-.613.628-1.06 0-.37-.115-.627-.344-.77-.23-.144-.66-.216-1.294-.216h-1.244c-.47 0-.837.112-1.1.337-.262.226-.393.55-.393.97zm.56-5.806c0 .48.137.84.407 1.087.27.247.648.37 1.132.37 1.01 0 1.517-.492 1.517-1.475 0-1.03-.512-1.544-1.537-1.544-.488 0-.862.132-1.125.395s-.394.652-.394 1.17zm9.2 4.78c-1.01 0-1.81-.307-2.396-.924-.585-.617-.878-1.473-.878-2.57 0-1.103.272-1.98.816-2.63.544-.65 1.274-.975 2.19-.975.86 0 1.538.282 2.038.847.5.564.75 1.31.75 2.234v.656h-4.72c.022.805.225 1.415.61 1.832.386.416.93.625 1.63.625.736 0 1.465-.155 2.186-.464v.925c-.366.16-.713.273-1.04.342-.327.07-.722.103-1.185.103zm-.28-6.23c-.55 0-.99.18-1.316.537-.327.36-.52.855-.578 1.49h3.58c0-.655-.144-1.156-.436-1.504-.292-.348-.708-.522-1.25-.522zm6.78 5.375c.185 0 .362-.015.532-.042.17-.027.307-.055.407-.084v.793c-.114.055-.28.1-.498.135-.22.035-.416.053-.59.053-1.326 0-1.988-.698-1.988-2.094v-4.074h-.982v-.5l.982-.43.437-1.464h.6v1.588h1.99v.806h-1.99v4.03c0 .414.1.73.295.95.196.222.465.333.806.333zm7.845 0c.183 0 .36-.015.53-.042.172-.027.307-.055.407-.084v.793c-.112.055-.278.1-.496.135-.22.035-.416.053-.59.053-1.326 0-1.99-.698-1.99-2.094v-4.074h-.98v-.5l.98-.43.44-1.464h.6v1.588h1.986v.806h-1.987v4.03c0 .414.098.73.294.95.195.222.463.333.805.333zm6.994.73v-4.43c0-.56-.128-.976-.383-1.25-.254-.276-.652-.414-1.193-.414-.72 0-1.247.196-1.578.588-.332.39-.497 1.033-.497 1.925v3.58h-1.04v-9.725h1.04v2.944c0 .353-.018.647-.05.88h.06c.205-.33.496-.59.873-.778.377-.19.807-.285 1.29-.285.838 0 1.466.2 1.885.597.42.398.628 1.03.628 1.897v4.47h-1.037zm6.06.125c-1.01 0-1.81-.308-2.396-.925-.585-.617-.878-1.473-.878-2.57 0-1.103.272-1.98.816-2.63.544-.65 1.274-.975 2.19-.975.86 0 1.538.282 2.038.847.5.564.75 1.31.75 2.234v.656h-4.72c.022.805.225 1.415.61 1.832.386.416.93.625 1.63.625.736 0 1.465-.155 2.186-.464v.925c-.366.16-.713.273-1.04.342-.327.07-.722.103-1.185.103zm-.28-6.23c-.55 0-.99.178-1.316.536-.327.36-.52.855-.578 1.49h3.58c0-.655-.144-1.156-.436-1.504-.292-.348-.708-.522-1.25-.522zm13.3 6.105v-4.456c0-.546-.117-.955-.35-1.228-.233-.273-.596-.41-1.088-.41-.645 0-1.122.186-1.43.556-.31.37-.463.942-.463 1.713v3.825h-1.04v-4.456c0-.546-.115-.955-.35-1.228-.232-.273-.597-.41-1.093-.41-.65 0-1.126.195-1.428.585-.303.39-.454 1.03-.454 1.916v3.594h-1.037v-6.85h.842l.17.937h.05c.195-.333.47-.593.827-.78.356-.188.755-.282 1.196-.282 1.07 0 1.77.387 2.1 1.162h.05c.204-.358.5-.64.888-.85.387-.208.83-.312 1.325-.312.774 0 1.354.2 1.74.597.385.398.577 1.034.577 1.91v4.468h-1.037zm4.262-1.488l.094.144c-.108.417-.264.9-.47 1.453-.203.55-.415 1.065-.636 1.54h-.78c.11-.433.235-.97.37-1.606.136-.638.23-1.148.285-1.532h1.137zM160 234.17c0 1.115-.28 1.987-.844 2.614-.562.627-1.34.94-2.33.94-.614 0-1.157-.143-1.632-.43-.475-.288-.842-.7-1.1-1.238-.26-.537-.388-1.166-.388-1.887 0-1.118.28-1.988.838-2.61.558-.624 1.333-.935 2.325-.935.957 0 1.72.32 2.283.956.565.64.847 1.5.847 2.59zm-5.22 0c0 .874.176 1.54.526 2 .35.457.865.686 1.544.686.68 0 1.195-.228 1.547-.684.352-.456.528-1.124.528-2.003 0-.872-.176-1.534-.528-1.986-.352-.452-.872-.678-1.56-.678-.68 0-1.19.223-1.537.67-.346.445-.52 1.11-.52 1.993zm11.726 3.43v-4.43c0-.56-.127-.976-.38-1.25-.255-.276-.653-.414-1.195-.414-.715 0-1.24.194-1.574.58-.333.39-.5 1.03-.5 1.92v3.594h-1.037v-6.85h.842l.17.937h.05c.212-.337.51-.598.893-.784.383-.185.81-.278 1.28-.278.826 0 1.447.2 1.864.597.415.398.624 1.034.624 1.91v4.468h-1.038zm8.706-.73c.184 0 .36-.015.532-.042.17-.027.306-.055.406-.084v.793c-.113.055-.278.1-.497.135-.22.035-.415.053-.59.053-1.326 0-1.988-.698-1.988-2.094v-4.074h-.98v-.5l.98-.43.438-1.464h.6v1.588h1.987v.806h-1.988v4.03c0 .414.098.73.294.95.196.222.465.333.806.333zm6.994.73v-4.43c0-.56-.127-.976-.38-1.25-.255-.276-.653-.414-1.195-.414-.72 0-1.246.196-1.577.588-.33.39-.497 1.033-.497 1.925v3.58h-1.037v-9.725h1.036v2.944c0 .353-.016.647-.05.88h.063c.203-.33.494-.59.87-.778.378-.19.808-.285 1.29-.285.84 0 1.467.2 1.886.597.418.398.628 1.03.628 1.897v4.47h-1.038zm6.063.125c-1.014 0-1.813-.308-2.398-.925-.586-.617-.878-1.473-.878-2.57 0-1.103.272-1.98.815-2.63.543-.65 1.273-.975 2.19-.975.858 0 1.537.282 2.037.847.5.564.75 1.31.75 2.234v.656h-4.718c.02.805.223 1.415.608 1.832.386.416.928.625 1.628.625.738 0 1.467-.155 2.188-.464v.925c-.367.16-.714.273-1.04.342-.328.07-.723.103-1.185.103zm-.283-6.23c-.55 0-.988.178-1.315.536-.327.36-.52.855-.578 1.49h3.58c0-.655-.145-1.156-.437-1.504-.29-.348-.708-.522-1.25-.522zM7.107 249.95v.656l-1.27.15c.117.146.22.337.313.572.092.236.137.5.137.797 0 .67-.23 1.206-.687 1.606-.458.4-1.087.6-1.888.6-.204 0-.395-.015-.575-.05-.44.235-.662.528-.662.882 0 .188.077.327.23.416.155.09.42.134.795.134h1.212c.742 0 1.312.157 1.71.47.398.312.597.766.597 1.362 0 .758-.305 1.336-.914 1.734-.608.398-1.496.597-2.662.597-.896 0-1.587-.167-2.072-.5-.486-.333-.728-.804-.728-1.413 0-.416.133-.777.4-1.08.266-.305.64-.51 1.125-.62-.176-.08-.323-.202-.442-.368-.12-.167-.178-.36-.178-.582 0-.25.067-.468.2-.656.133-.187.344-.368.63-.544-.353-.145-.64-.393-.864-.743-.223-.35-.335-.75-.335-1.2 0-.75.226-1.33.676-1.736.45-.406 1.088-.61 1.913-.61.357 0 .68.043.967.126h2.37zm-5.463 8c0 .37.156.652.468.844.313.19.76.287 1.344.287.87 0 1.516-.13 1.935-.39.42-.26.63-.613.63-1.06 0-.37-.116-.627-.345-.77-.23-.144-.66-.216-1.294-.216H3.138c-.47 0-.837.112-1.1.337-.262.226-.393.55-.393.97zm.562-5.806c0 .48.136.84.406 1.087s.648.37 1.132.37c1.012 0 1.518-.492 1.518-1.475 0-1.03-.512-1.544-1.537-1.544-.488 0-.862.132-1.125.395s-.394.652-.394 1.17zm12.22 1.225c0 1.115-.282 1.987-.845 2.614-.56.627-1.338.94-2.33.94-.613 0-1.156-.143-1.63-.43-.476-.288-.843-.7-1.1-1.238-.26-.537-.39-1.166-.39-1.887 0-1.118.28-1.988.84-2.61.557-.624 1.332-.935 2.324-.935.958 0 1.72.32 2.284.956.565.64.847 1.5.847 2.59zm-5.22 0c0 .874.175 1.54.525 2 .35.457.866.686 1.545.686.68 0 1.195-.228 1.547-.684.352-.456.528-1.124.528-2.003 0-.872-.176-1.534-.528-1.986-.352-.452-.872-.678-1.56-.678-.68 0-1.19.223-1.537.67-.346.445-.52 1.11-.52 1.993zm6.888 2.767c0-.28.063-.49.19-.634.127-.144.31-.216.547-.216.243 0 .43.072.567.216.135.144.203.355.203.634 0 .27-.07.48-.206.625-.138.146-.325.22-.563.22-.21 0-.387-.066-.527-.198-.14-.13-.21-.346-.21-.647z" fill="#071D49"/>
  </g>
</svg>
