<svg width="230" height="264" viewBox="0 0 230 264" xmlns="http://www.w3.org/2000/svg"><g fill="none" fill-rule="evenodd"><path d="M33.522 66.36c0-18.05 14.494-32.68 32.374-32.68 17.88 0 32.373 14.63 32.373 32.68 0 18.047-14.495 32.677-32.374 32.677-17.88 0-32.374-14.63-32.374-32.678z" fill-opacity=".259" fill="#FBD334"/><path fill="#FFF" d="M28.126 101.76h12.14V63.637h-12.14M52.407 101.76h12.14V56.83h-12.14M76.687 101.76h12.14V49.34h-12.14"/><path fill="#FCD410" d="M40.266 101.76h12.14V69.083h-12.14M64.547 101.76h12.14V62.275h-12.14"/><path fill="#F4F3EF" d="M28.126 101.76h3.372V63.637h-3.372"/><path fill="#E8C42D" d="M40.266 101.76h3.373V69.083h-3.374"/><path fill="#F4F3EF" d="M52.407 101.76h3.372V56.83h-3.373"/><path fill="#E8C42D" d="M64.547 101.76h3.372V62.275h-3.373"/><path fill="#F4F3EF" d="M76.687 101.76h3.372V49.34h-3.373"/><path fill="#333" d="M31.355 92.91H20.033v-1.36h10.674l5.396-6.81h8.755l4.047 5.447H59.08l10.79-10.893h10.69l4.045-6.808h9.617v1.362H85.37l-4.047 6.808H70.43L59.637 91.55H48.23L44.183 86.1H36.75"/><path fill="#FBD334" d="M67.245 53.424h2.697v-8.17h-2.697"/><path fill="#FBD334" d="M64.547 50.7h8.093V47.98h-8.093M39.592 56.828h2.698v-8.17h-2.698"/><path fill="#FBD334" d="M36.894 54.105h8.094v-2.723h-8.094M51.732 41.17h2.698V33h-2.698"/><path fill="#FBD334" d="M49.034 38.446h8.094v-2.723h-8.094"/><path fill="#333" d="M20.033 102.442h6.744v-1.362h-6.744M98.27 102.442h2.697v-1.362H98.27M90.176 102.442h5.396v-1.362h-5.396M65.22 79.975h-1.348V57.51h-10.79V69.08h-1.35V56.147h13.49M65.22 102.442H52.408v-1.362h11.465V90.868h1.35"/><path fill="#333" d="M77.36 102.442H64.548v-1.362h11.465V84.06h1.35M77.36 75.89h-1.348V62.955H64.547v-1.36H77.36M53.08 102.442H40.267v-1.362h11.466v-6.127h1.35M53.08 86.783h-1.348v-17.02H40.266v-1.36H53.08"/><path fill="#333" d="M40.94 102.442H27.453v-6.128h1.35v4.766h10.79V89.506h1.35M28.8 88.145h-1.348v-25.19h13.49v18.382h-1.35v-17.02h-10.79M89.502 102.442H76.687v-1.362h11.466V77.252h1.35M89.502 69.082h-1.35V50.02h-10.79v12.254h-1.35V48.658h13.49"/><path d="M25.26 143.062H22.6l-.535 1.738h-2.018l2.706-7.698h2.402l2.695 7.698h-2.065l-.525-1.738zm-.42-1.365l-.56-1.843-.338-1.213h-.023l-.316 1.203-.583 1.854h1.82zm8.48-2.31c.366.36.548.868.548 1.53v3.883h-1.982v-3.336c0-.396-.072-.678-.216-.846-.144-.167-.348-.25-.613-.25-.31 0-.563.11-.758.332-.195.222-.292.562-.292 1.02v3.08h-1.983v-5.832h1.773l.058 1.12c.187-.412.45-.72.793-.928.34-.206.742-.31 1.2-.31.615 0 1.105.18 1.47.538zm7.35 4.235l-.153 1.108c-.226.124-.49.187-.793.187-.84 0-1.342-.3-1.505-.898-.35.597-1.043.897-2.077.897-.583 0-1.03-.125-1.34-.374-.312-.248-.468-.61-.468-1.084 0-.5.177-.9.53-1.21.355-.306.936-.54 1.745-.704l1.318-.257v-.21c0-.265-.074-.475-.222-.63-.148-.156-.35-.234-.607-.234-.296 0-.537.07-.724.21-.186.14-.307.37-.36.688l-1.61-.466c.1-.568.38-1.01.84-1.324.458-.315 1.076-.473 1.853-.473.91 0 1.6.188 2.076.56.474.374.71.934.71 1.68v2.124c0 .303.14.455.42.455.15 0 .27-.017.363-.048zm-3.07-.216c.22-.15.328-.352.328-.6v-.502l-.945.222c-.25.062-.426.138-.53.227-.106.09-.158.216-.158.38 0 .162.05.287.15.372.102.086.242.13.42.13.273 0 .518-.077.736-.23zm5.226-.624c0 .265.04.45.117.56.078.11.218.163.42.163.187 0 .385-.035.595-.105l-.128 1.225c-.14.086-.323.156-.55.21-.224.054-.446.082-.664.082-.622 0-1.073-.146-1.353-.438-.28-.292-.42-.76-.42-1.406v-6.58h1.983v6.288zm4.876 2.018c-.218.622-.455 1.116-.712 1.48-.256.367-.56.63-.91.79-.35.158-.773.238-1.27.238-.662 0-1.19-.144-1.587-.432l.42-1.33c.124.117.262.197.414.24.152.042.348.064.59.064.24 0 .43-.04.57-.123.14-.08.253-.227.34-.437l.14-.362-.678-1.586-1.74-4.374h2.183l.898 3.324.28 1.237.316-1.284.898-3.278h1.983l-2.135 5.832zm6.497-.327c-.196.133-.442.24-.742.32-.3.083-.6.124-.904.124-.692 0-1.22-.148-1.586-.444-.366-.295-.552-.77-.56-1.423v-2.67h-1.003v-1.412h1.003v-1.306l1.983-.55v1.856h1.75v1.41h-1.75v2.346c0 .52.258.78.77.78.32 0 .6-.084.84-.255l.2 1.223zm.366-6.41c-.182-.15-.274-.39-.274-.716 0-.335.092-.578.274-.73.183-.15.477-.227.88-.227.405 0 .7.076.882.228.182.15.274.394.274.73 0 .325-.092.564-.274.716-.183.152-.477.227-.88.227-.405 0-.7-.074-.882-.226zm1.872 6.737h-1.983v-5.832h1.983v5.832zm5.6-5.447c.442.334.718.77.827 1.306l-1.843.606c-.077-.67-.377-1.003-.898-1.003-.77 0-1.155.548-1.155 1.644 0 1.066.384 1.598 1.154 1.598.552 0 .875-.315.968-.944l1.785.572c-.086.53-.368.958-.846 1.29-.477.33-1.11.495-1.894.495-1.01 0-1.79-.265-2.333-.794-.544-.528-.816-1.275-.816-2.24 0-.955.27-1.7.81-2.233.54-.532 1.293-.8 2.257-.8.88 0 1.54.17 1.983.503zm.874 4.537l1.026-1.12c.335.553.91.83 1.727.83.272 0 .486-.038.64-.112.157-.074.234-.173.234-.298 0-.108-.08-.204-.24-.285-.16-.082-.433-.162-.822-.24-.87-.17-1.49-.404-1.86-.7-.37-.295-.555-.688-.555-1.177 0-.335.105-.65.315-.945.21-.296.527-.535.95-.718.425-.182.94-.274 1.547-.274.668 0 1.215.093 1.638.275.424.183.768.457 1.033.823l-1.027 1.003c-.187-.27-.41-.47-.666-.594-.256-.124-.563-.187-.92-.187-.28 0-.5.042-.654.128-.156.085-.234.19-.234.315 0 .116.08.215.24.297.16.082.437.16.833.24.855.147 1.47.367 1.848.658.377.292.566.69.566 1.196 0 .567-.237 1.028-.712 1.382-.474.354-1.162.53-2.064.53-1.338 0-2.286-.342-2.846-1.026zm15.42 1.027c-.436 0-.803-.047-1.103-.14-.3-.094-.632-.288-.998-.584-.264.234-.585.413-.962.537-.377.124-.795.187-1.254.187-.81 0-1.46-.183-1.954-.55-.494-.364-.744-.877-.752-1.538 0-.42.12-.82.362-1.197.24-.377.645-.67 1.213-.88-.31-.374-.52-.69-.63-.95-.11-.262-.164-.547-.164-.858 0-.335.09-.652.264-.95.175-.3.437-.543.787-.73.35-.187.783-.28 1.296-.28.74 0 1.308.17 1.71.513.4.342.6.778.6 1.307 0 .956-.557 1.66-1.67 2.11.242.265.425.467.55.607l.78.84c.203-.435.293-.94.27-1.516l1.317.035c0 .91-.248 1.673-.746 2.287.17.132.334.227.49.286.155.058.323.087.5.087.118 0 .207-.004.27-.01l-.175 1.387zm-4.363-6.433c-.125.128-.187.305-.187.53 0 .156.04.312.122.467.082.157.247.382.496.678.312-.218.518-.42.62-.607.1-.185.15-.395.15-.63 0-.2-.06-.356-.18-.465-.12-.11-.29-.164-.507-.164-.218 0-.39.066-.514.194zm1.376 4.893l-.677-.7c-.467-.482-.806-.836-1.016-1.06-.248.185-.418.358-.507.518-.09.16-.134.344-.134.554 0 .27.11.493.332.664.222.17.512.256.87.256.404 0 .78-.077 1.13-.233zm15.14 1.423h-1.773v-3.534l.058-2.368h-.022l-1.902 5.902h-1.62l-1.902-5.902H83.3l.06 2.368v3.534h-1.786v-7.698h2.858l1.213 3.92.432 1.632h.023l.443-1.62 1.202-3.932h2.74v7.698zm6.555-2.344h-3.977c.063.365.197.633.403.804.206.17.48.257.822.257.288 0 .523-.054.706-.163.182-.11.305-.27.367-.48l1.61.515c-.163.496-.48.875-.95 1.136-.47.26-1.048.39-1.732.39-1.02 0-1.798-.264-2.34-.793-.54-.528-.81-1.275-.81-2.24 0-.963.265-1.71.794-2.238.53-.53 1.28-.794 2.25-.794.942 0 1.663.26 2.165.777.5.517.752 1.242.752 2.175 0 .265-.02.482-.06.654zm-3.988-1.074h2.192c-.093-.762-.45-1.143-1.073-1.143-.628 0-1.002.38-1.118 1.142zm10.567 2.24l-.152 1.108c-.226.124-.49.187-.794.187-.84 0-1.34-.3-1.504-.898-.35.597-1.042.897-2.076.897-.584 0-1.03-.125-1.342-.374-.31-.248-.466-.61-.466-1.084 0-.5.177-.9.53-1.21.354-.306.935-.54 1.744-.704l1.318-.257v-.21c0-.265-.074-.475-.22-.63-.15-.156-.35-.234-.608-.234-.295 0-.537.07-.723.21-.187.14-.307.37-.362.688l-1.61-.466c.102-.568.382-1.01.84-1.324.46-.315 1.077-.473 1.855-.473.91 0 1.602.188 2.076.56.475.374.712.934.712 1.68v2.124c0 .303.14.455.42.455.147 0 .268-.017.36-.048zm-3.068-.216c.217-.15.326-.352.326-.6v-.502l-.945.222c-.248.062-.425.138-.53.227-.105.09-.158.216-.158.38 0 .162.05.287.152.372.1.086.24.13.42.13.272 0 .517-.077.735-.23zm2.834.484l1.026-1.12c.335.553.91.83 1.727.83.27 0 .485-.038.64-.112.156-.074.233-.173.233-.298 0-.108-.08-.204-.24-.285-.158-.082-.432-.162-.82-.24-.872-.17-1.492-.404-1.86-.7-.37-.295-.555-.688-.555-1.177 0-.335.105-.65.314-.945.21-.296.527-.535.95-.718.425-.182.94-.274 1.547-.274.667 0 1.214.093 1.637.275.424.183.768.457 1.033.823l-1.027 1.003c-.186-.27-.408-.47-.665-.594-.256-.124-.563-.187-.92-.187-.28 0-.5.042-.654.128-.156.085-.234.19-.234.315 0 .116.08.215.24.297.16.082.437.16.834.24.855.147 1.47.367 1.848.658.377.292.566.69.566 1.196 0 .567-.237 1.028-.712 1.382-.474.354-1.162.53-2.064.53-1.338 0-2.286-.342-2.846-1.026zm11.874-4.922v5.832h-1.773l-.058-1.085c-.367.8-1.04 1.202-2.02 1.202-.62 0-1.11-.166-1.463-.496-.354-.33-.53-.85-.53-1.556v-3.896h1.982v3.394c0 .38.065.65.197.805.133.156.335.233.607.233.327 0 .587-.11.78-.332.196-.222.293-.558.293-1.01v-3.09h1.983zm5.074.012l-.21 1.68c-.078-.047-.183-.088-.315-.123-.133-.035-.273-.053-.42-.053-.374 0-.685.12-.934.356-.25.237-.373.577-.373 1.02v2.94H116.1v-5.832h1.75l.08 1.26c.14-.444.36-.784.66-1.02.3-.238.67-.357 1.114-.357.264 0 .474.044.63.13zm5.75 3.476h-3.977c.062.365.196.633.402.804.205.17.48.257.82.257.29 0 .524-.054.707-.163.183-.11.305-.27.367-.48l1.61.515c-.163.496-.48.875-.95 1.136-.47.26-1.048.39-1.733.39-1.017 0-1.797-.264-2.337-.793-.54-.528-.81-1.275-.81-2.24 0-.963.263-1.71.792-2.238.53-.53 1.28-.794 2.25-.794.942 0 1.664.26 2.165.777.502.517.752 1.242.752 2.175 0 .265-.02.482-.058.654zm-3.99-1.074h2.194c-.093-.762-.45-1.143-1.073-1.143-.63 0-1.003.38-1.12 1.142zm13.607-1.994c.37.358.555.867.555 1.528v3.884h-1.983v-3.43c0-.668-.264-1.002-.793-1.002-.312 0-.56.112-.747.338-.187.225-.28.552-.28.98v3.114h-1.983v-3.43c0-.668-.265-1.002-.793-1.002-.296 0-.54.112-.735.338-.195.225-.292.564-.292 1.015v3.08h-1.983v-5.832h1.773l.06 1.12c.185-.405.446-.712.78-.922.334-.21.727-.315 1.178-.315.443 0 .826.102 1.15.305.322.202.553.493.693.874.188-.382.454-.673.8-.875.346-.203.733-.304 1.16-.304.592 0 1.072.18 1.44.538zm6.982 3.068h-3.977c.062.365.196.633.402.804.206.17.48.257.822.257.287 0 .522-.054.705-.163.183-.11.305-.27.367-.48l1.61.515c-.163.496-.48.875-.95 1.136-.47.26-1.048.39-1.733.39-1.02 0-1.8-.264-2.34-.793-.54-.528-.81-1.275-.81-2.24 0-.963.264-1.71.793-2.238.53-.53 1.28-.794 2.25-.794.942 0 1.663.26 2.165.777s.752 1.242.752 2.175c0 .265-.02.482-.058.654zm-3.99-1.074h2.194c-.094-.762-.45-1.143-1.073-1.143-.63 0-1.003.38-1.12 1.142zm9.87-1.994c.364.358.547.867.547 1.528v3.884h-1.984v-3.336c0-.396-.072-.678-.216-.846-.144-.167-.348-.25-.612-.25-.31 0-.564.11-.758.332-.195.222-.292.562-.292 1.02v3.08h-1.983v-5.832h1.773l.058 1.12c.187-.412.45-.72.794-.928.342-.206.742-.31 1.2-.31.615 0 1.105.18 1.47.538zm5.55 5.085c-.194.133-.44.24-.74.32-.3.083-.6.124-.904.124-.692 0-1.22-.148-1.586-.444-.366-.295-.552-.77-.56-1.423v-2.67h-1.003v-1.412h1.002v-1.306l1.983-.55v1.856h1.75v1.41h-1.75v2.346c0 .52.256.78.77.78.318 0 .598-.084.84-.255l.198 1.223zM25.962 158.87v.846h-2.4v6.584h-1.006v-6.584h-2.41v-.845h5.816zm.912 7.43v-7.636h.923v3.09c.224-.24.473-.43.746-.573.273-.143.588-.214.944-.214.287 0 .54.047.76.142.22.095.402.23.55.405.146.174.257.384.333.63.076.245.114.516.114.813v3.344h-.923v-3.344c0-.397-.09-.706-.27-.925-.182-.218-.46-.328-.833-.328-.273 0-.528.065-.764.197-.237.13-.456.308-.656.533v3.867h-.923zm7.843-5.334c.315 0 .605.052.87.158.267.105.497.257.69.456.194.2.345.444.454.736.11.292.165.625.165.998 0 .145-.016.242-.047.29-.03.05-.09.073-.176.073h-3.494c.007.332.052.62.135.866.082.245.197.45.342.614.145.164.318.287.518.368.2.08.425.122.674.122.232 0 .43-.027.6-.08.166-.054.31-.112.432-.174.12-.062.22-.12.302-.174.08-.054.15-.08.21-.08.076 0 .135.028.176.087l.26.337c-.115.138-.25.258-.41.36-.16.102-.33.186-.51.252-.182.065-.37.114-.563.147-.194.033-.386.05-.576.05-.364 0-.698-.062-1.004-.184-.306-.124-.57-.304-.793-.54-.223-.237-.397-.53-.52-.88-.125-.348-.188-.75-.188-1.202 0-.366.057-.708.17-1.026.11-.318.273-.594.484-.827.21-.234.467-.417.77-.55.305-.133.647-.2 1.027-.2zm.02.68c-.445 0-.795.128-1.05.385-.257.258-.416.615-.478 1.07h2.855c0-.213-.03-.41-.088-.587-.06-.178-.145-.332-.26-.46-.113-.13-.252-.23-.416-.302-.164-.07-.35-.105-.562-.105zm8.918.336c-.028.038-.056.067-.083.088-.028.02-.068.03-.12.03-.05 0-.108-.02-.168-.064-.06-.043-.137-.09-.23-.142-.094-.052-.207-.1-.34-.143-.133-.042-.297-.064-.49-.064-.256 0-.482.046-.68.138-.196.09-.36.223-.494.396-.133.173-.234.382-.3.627-.068.246-.102.52-.102.825 0 .318.036.6.11.847.07.246.173.454.305.62.13.17.29.297.48.385.187.088.4.132.634.132.225 0 .41-.027.555-.08.145-.054.266-.113.363-.18.096-.065.176-.124.238-.178.062-.054.125-.08.187-.08.08 0 .138.028.176.087l.26.337c-.23.28-.514.485-.856.614-.342.13-.703.195-1.084.195-.328 0-.633-.06-.915-.182-.28-.12-.525-.295-.732-.525-.207-.23-.37-.512-.49-.848-.12-.335-.18-.717-.18-1.145 0-.39.056-.752.164-1.084.11-.332.268-.618.477-.858.21-.24.467-.427.774-.562.308-.135.66-.202 1.058-.202.366 0 .69.06.975.18.283.118.534.286.75.504l-.242.332zm3.385-1.016c.383 0 .73.064 1.04.19.308.13.57.31.787.546.216.235.382.52.498.853.116.333.173.705.173 1.117 0 .414-.057.788-.173 1.12-.116.33-.282.615-.498.85-.216.235-.48.415-.788.54-.31.128-.657.19-1.04.19-.384 0-.73-.062-1.04-.19-.31-.125-.572-.305-.79-.54-.218-.235-.386-.52-.503-.85-.118-.332-.176-.706-.176-1.12 0-.412.06-.784.177-1.117.117-.334.285-.618.503-.853.218-.235.48-.417.79-.545.31-.127.656-.19 1.04-.19zm0 4.686c.518 0 .905-.174 1.16-.52.257-.348.385-.833.385-1.455 0-.626-.128-1.113-.384-1.462-.255-.35-.642-.524-1.16-.524-.263 0-.49.046-.685.136-.193.09-.355.22-.484.39-.13.168-.226.377-.29.624-.063.247-.095.526-.095.837 0 .31.032.59.095.835.064.245.16.45.29.62.13.167.292.295.485.385.194.09.422.135.685.135zm3.64.648v-5.25h.528c.1 0 .17.018.207.056.038.038.064.103.078.197l.062.82c.18-.368.402-.654.666-.86.266-.205.576-.308.932-.308.145 0 .276.017.394.05.117.032.226.078.326.137l-.12.69c-.023.086-.077.13-.16.13-.048 0-.122-.017-.223-.05-.1-.033-.24-.05-.42-.05-.322 0-.59.094-.807.28-.216.187-.396.458-.54.814v3.344h-.924zm4.177 0v-5.25h.55c.13 0 .214.063.25.19l.07.57c.23-.252.484-.456.766-.61.28-.157.607-.234.977-.234.287 0 .54.047.76.142.22.095.402.23.55.405.146.174.257.384.333.63.076.245.114.516.114.813v3.344h-.922v-3.344c0-.397-.09-.706-.273-.925-.18-.218-.458-.328-.832-.328-.273 0-.528.065-.764.197-.237.13-.456.308-.656.533v3.867h-.923zm7.844-5.334c.315 0 .605.052.872.158.266.105.495.257.69.456.193.2.344.444.453.736.108.292.163.625.163.998 0 .145-.016.242-.047.29-.03.05-.09.073-.175.073H61.16c.008.332.053.62.136.866.083.245.197.45.342.614.145.164.318.287.518.368.2.08.425.122.674.122.232 0 .43-.027.6-.08.167-.054.31-.112.432-.174.12-.062.222-.12.303-.174.08-.054.15-.08.21-.08.076 0 .135.028.176.087l.26.337c-.114.138-.25.258-.41.36-.158.102-.328.186-.51.252-.18.065-.37.114-.562.147-.194.033-.385.05-.576.05-.362 0-.697-.062-1.003-.184-.307-.124-.57-.304-.794-.54-.223-.237-.396-.53-.52-.88-.125-.348-.187-.75-.187-1.202 0-.366.055-.708.167-1.026.112-.318.274-.594.485-.827.21-.234.468-.417.772-.55.304-.133.646-.2 1.027-.2zm.02.68c-.444 0-.795.128-1.05.385-.257.258-.416.615-.478 1.07h2.856c0-.213-.03-.41-.088-.587-.058-.178-.145-.332-.26-.46-.113-.13-.252-.23-.416-.302-.164-.07-.352-.105-.563-.105zm3.335 4.654v-5.25h.528c.1 0 .17.018.208.056.04.038.065.103.08.197l.06.82c.18-.368.403-.654.667-.86.264-.205.574-.308.93-.308.146 0 .277.017.394.05.12.032.228.078.328.137l-.12.69c-.023.086-.077.13-.16.13-.048 0-.123-.017-.223-.05s-.24-.05-.42-.05c-.32 0-.59.094-.806.28-.217.187-.397.458-.543.814v3.344h-.922zm7.185-4.386c-.042.076-.106.114-.192.114-.052 0-.11-.02-.176-.057-.066-.037-.146-.08-.24-.126-.096-.046-.21-.09-.34-.13-.132-.04-.288-.06-.468-.06-.155 0-.295.02-.42.06-.124.04-.23.095-.318.164-.088.07-.156.15-.202.24-.047.093-.07.192-.07.3 0 .134.038.246.116.336.078.09.18.168.31.233.127.066.272.124.434.174.163.05.33.105.5.162.17.057.338.12.5.19.163.068.308.155.436.258.128.104.23.23.31.38.076.152.115.332.115.543 0 .242-.043.466-.13.67-.086.207-.214.385-.383.535-.17.15-.377.27-.622.355-.246.087-.53.13-.85.13-.367 0-.698-.06-.996-.18-.297-.118-.55-.27-.756-.458l.217-.352c.028-.045.06-.08.1-.104.037-.025.087-.037.15-.037.06 0 .127.024.196.072.07.05.154.102.252.16.1.06.218.113.358.162.14.048.316.072.526.072.18 0 .337-.024.472-.07.135-.047.247-.11.337-.19.09-.08.156-.17.2-.275.043-.103.064-.214.064-.33 0-.146-.04-.267-.117-.362-.078-.095-.18-.176-.31-.243-.127-.068-.273-.126-.437-.177-.164-.05-.33-.102-.503-.158-.17-.055-.338-.118-.502-.19-.164-.07-.31-.16-.437-.266-.128-.108-.23-.24-.31-.397-.077-.158-.116-.35-.116-.573 0-.2.042-.393.125-.578.083-.185.204-.348.363-.488.16-.14.354-.25.586-.334.232-.083.496-.124.794-.124.345 0 .655.054.93.163.275.108.513.257.713.447l-.207.337zm3.084 4.47c-.415 0-.733-.117-.956-.348-.223-.232-.335-.565-.335-1v-3.215H74.4c-.054 0-.1-.015-.14-.048-.037-.033-.056-.084-.056-.153v-.37l.86-.108.213-1.623c.007-.053.03-.095.067-.128.038-.033.087-.05.146-.05h.466v1.81h1.503v.67h-1.504v3.15c0 .222.054.386.16.493.108.108.246.16.416.16.096 0 .18-.012.25-.038.072-.026.133-.054.185-.085.052-.03.096-.06.132-.086.035-.026.067-.04.095-.04.048 0 .092.03.13.09l.27.44c-.16.15-.352.265-.576.35-.226.085-.457.127-.696.127zm4.4-5.418c.385 0 .73.064 1.04.19.31.13.573.31.79.546.215.235.38.52.496.853.116.333.174.705.174 1.117 0 .414-.058.788-.174 1.12-.115.33-.28.615-.497.85-.216.235-.48.415-.788.54-.31.128-.656.19-1.04.19-.383 0-.73-.062-1.04-.19-.308-.125-.572-.305-.79-.54-.217-.235-.385-.52-.502-.85-.118-.332-.177-.706-.177-1.12 0-.412.06-.784.177-1.117.117-.334.285-.618.502-.853.218-.235.482-.417.79-.545.31-.127.657-.19 1.04-.19zm0 4.686c.52 0 .907-.174 1.163-.52.255-.348.383-.833.383-1.455 0-.626-.128-1.113-.383-1.462-.256-.35-.643-.524-1.162-.524-.262 0-.49.046-.684.136-.192.09-.354.22-.484.39-.13.168-.226.377-.29.624-.064.247-.096.526-.096.837 0 .31.032.59.096.835s.16.45.29.62c.13.167.292.295.485.385.195.09.423.135.685.135zm3.64.648v-5.25h.55c.13 0 .214.063.25.19l.07.57c.23-.252.484-.456.766-.61.282-.157.607-.234.977-.234.287 0 .54.047.76.142.22.095.402.23.55.405.146.174.258.384.334.63.077.245.115.516.115.813v3.344h-.923v-3.344c0-.397-.09-.706-.272-.925-.182-.218-.46-.328-.832-.328-.273 0-.528.065-.765.197-.237.13-.455.308-.656.533v3.867h-.922zm7.844-5.334c.314 0 .605.052.87.158.267.105.497.257.69.456.194.2.345.444.454.736.11.292.163.625.163.998 0 .145-.015.242-.046.29-.033.05-.09.073-.178.073h-3.494c.007.332.052.62.135.866.083.245.197.45.342.614.145.164.318.287.52.368.2.08.424.122.673.122.23 0 .43-.027.598-.08.168-.054.312-.112.433-.174.12-.062.22-.12.302-.174.082-.054.152-.08.21-.08.076 0 .135.028.177.087l.258.337c-.114.138-.25.258-.41.36-.16.102-.33.186-.51.252-.182.065-.37.114-.563.147-.193.033-.385.05-.575.05-.363 0-.697-.062-1.003-.184-.306-.124-.57-.304-.793-.54-.223-.237-.397-.53-.52-.88-.126-.348-.188-.75-.188-1.202 0-.366.056-.708.168-1.026.113-.318.274-.594.485-.827.21-.234.467-.417.772-.55.304-.133.646-.2 1.026-.2zm.02.68c-.445 0-.796.128-1.052.385-.255.258-.414.615-.477 1.07h2.856c0-.213-.03-.41-.088-.587-.06-.178-.146-.332-.26-.46-.114-.13-.253-.23-.417-.302-.163-.07-.35-.105-.56-.105zm7.46-.68c.384 0 .73.064 1.04.19.31.13.572.31.788.546.216.235.382.52.497.853.116.333.174.705.174 1.117 0 .414-.058.788-.174 1.12-.115.33-.28.615-.497.85-.216.235-.48.415-.788.54-.31.128-.656.19-1.04.19-.383 0-.73-.062-1.04-.19-.308-.125-.572-.305-.79-.54-.217-.235-.385-.52-.502-.85-.118-.332-.177-.706-.177-1.12 0-.412.058-.784.176-1.117.117-.334.285-.618.502-.853.218-.235.482-.417.79-.545.31-.127.657-.19 1.04-.19zm0 4.686c.52 0 .906-.174 1.162-.52.255-.348.383-.833.383-1.455 0-.626-.128-1.113-.383-1.462-.256-.35-.643-.524-1.162-.524-.262 0-.49.046-.684.136-.193.09-.355.22-.485.39-.13.168-.227.377-.29.624-.065.247-.097.526-.097.837 0 .31.032.59.096.835.063.245.16.45.29.62.13.167.29.295.484.385.194.09.422.135.684.135zm3.847.648v-4.463l-.58-.068c-.073-.018-.133-.045-.18-.08-.046-.037-.07-.09-.07-.16v-.378h.83v-.508c0-.3.042-.567.127-.8.085-.234.206-.43.363-.592.157-.16.346-.282.568-.365.22-.083.47-.125.746-.125.234 0 .452.035.652.104l-.02.462c-.004.07-.033.11-.09.124-.054.014-.132.02-.232.02h-.16c-.16 0-.304.02-.434.063-.13.04-.24.11-.334.202-.093.093-.165.216-.215.368-.05.152-.075.34-.075.565v.482h1.52v.67h-1.49v4.478h-.927zm6.827 1.55c-.03.07-.07.124-.116.166-.047.04-.12.062-.215.062h-.684l.96-2.084-2.168-4.945h.8c.078 0 .14.018.185.058.045.04.078.084.1.132l1.404 3.308c.03.076.058.152.08.228.023.076.042.154.06.233l.072-.234c.023-.076.05-.154.082-.233l1.364-3.303c.02-.055.056-.1.106-.137.05-.036.104-.054.163-.054h.736l-2.928 6.8zm5.895-6.884c.383 0 .73.064 1.04.19.308.13.57.31.787.546.216.235.382.52.498.853.115.333.173.705.173 1.117 0 .414-.058.788-.173 1.12-.116.33-.282.615-.498.85-.216.235-.48.415-.788.54-.31.128-.656.19-1.04.19-.383 0-.73-.062-1.04-.19-.308-.125-.572-.305-.79-.54-.217-.235-.385-.52-.502-.85-.118-.332-.177-.706-.177-1.12 0-.412.06-.784.177-1.117.117-.334.285-.618.503-.853.217-.235.48-.417.79-.545.31-.127.656-.19 1.04-.19zm0 4.686c.518 0 .905-.174 1.16-.52.256-.348.384-.833.384-1.455 0-.626-.127-1.113-.382-1.462-.256-.35-.643-.524-1.16-.524-.264 0-.492.046-.686.136-.193.09-.355.22-.484.39-.13.168-.227.377-.29.624-.065.247-.097.526-.097.837 0 .31.033.59.097.835s.16.45.29.62c.13.167.292.295.485.385.194.09.422.135.685.135zm4.437-4.603v3.347c0 .398.092.705.275.923.182.218.458.327.828.327.27 0 .524-.064.762-.192.24-.128.458-.306.66-.534v-3.87h.92v5.25h-.548c-.13 0-.214-.064-.25-.192l-.072-.565c-.228.252-.483.455-.767.61-.283.153-.608.23-.974.23-.288 0-.54-.048-.76-.143-.22-.095-.404-.23-.553-.4-.15-.174-.26-.383-.334-.63-.075-.244-.112-.515-.112-.813v-3.348h.924zm4.966 5.25v-5.25h.53c.1 0 .168.018.206.056.038.038.064.103.078.197l.062.82c.18-.368.402-.654.667-.86.264-.205.574-.308.93-.308.145 0 .277.017.394.05.118.032.226.078.327.137l-.12.69c-.024.086-.077.13-.16.13-.05 0-.123-.017-.223-.05s-.24-.05-.42-.05c-.32 0-.59.094-.805.28-.216.187-.397.458-.542.814v3.344h-.923zm9.876 0c-.132 0-.214-.064-.25-.192l-.082-.637c-.225.274-.48.492-.77.656-.288.164-.62.247-.993.247-.3 0-.572-.058-.818-.174-.245-.117-.454-.287-.627-.512-.173-.224-.306-.504-.4-.84-.092-.335-.14-.72-.14-1.156 0-.387.053-.747.157-1.08.103-.334.253-.623.448-.87.195-.244.433-.437.713-.577.28-.14.598-.21.954-.21.32 0 .596.055.824.164.23.107.433.26.613.457v-2.913h.922v7.636h-.55zm-1.79-.674c.302 0 .566-.07.792-.207.226-.14.434-.335.625-.587v-2.54c-.17-.228-.356-.388-.558-.48-.202-.09-.426-.137-.67-.137-.492 0-.87.174-1.13.523-.264.35-.395.846-.395 1.492 0 .343.03.635.088.88.06.243.145.443.26.6.113.158.253.273.42.345.165.073.355.11.57.11zm4.916-4.577v5.25h-.923v-5.25h.922zm.207-1.65c0 .09-.02.174-.055.252-.037.077-.085.146-.145.207-.06.06-.13.107-.21.14-.08.036-.165.053-.254.053-.09 0-.174-.017-.252-.052-.078-.033-.147-.08-.207-.14-.06-.062-.108-.13-.143-.208-.034-.078-.052-.162-.052-.252s.018-.175.052-.257c.035-.08.082-.152.143-.212.06-.06.13-.107.207-.142.078-.034.162-.05.252-.05s.174.016.254.05c.08.035.15.082.21.143.06.06.108.132.145.213.036.082.054.167.054.257zm3.187 1.56c.228 0 .442.026.64.076.2.05.38.123.542.22h1.425v.342c0 .114-.073.187-.218.218l-.596.083c.118.223.177.474.177.75 0 .256-.05.49-.148.698-.1.21-.236.388-.41.536-.175.15-.382.263-.622.342-.24.08-.504.12-.79.12-.246 0-.478-.03-.695-.088-.11.07-.195.143-.252.222-.056.08-.084.158-.084.234 0 .124.05.218.15.282.1.064.233.11.4.138.165.027.353.045.564.05.21.008.426.02.646.035.22.015.434.04.645.08.212.038.4.1.566.186.166.087.3.206.4.358.1.152.15.35.15.59 0 .225-.057.443-.17.654-.11.21-.273.398-.484.562-.21.165-.468.296-.772.394-.304.1-.648.148-1.032.148-.383 0-.72-.038-1.008-.114-.288-.076-.528-.178-.718-.306-.19-.128-.333-.275-.428-.443-.095-.17-.142-.344-.142-.527 0-.26.082-.48.246-.66.164-.183.39-.327.677-.434-.15-.07-.267-.163-.355-.278-.09-.116-.133-.27-.133-.464 0-.076.014-.155.042-.236.026-.08.07-.162.126-.24.057-.08.127-.157.21-.23.083-.072.18-.136.29-.19-.26-.146-.462-.34-.61-.58-.146-.24-.22-.52-.22-.842 0-.255.05-.488.148-.697.1-.21.236-.387.412-.534.177-.148.387-.26.63-.34.244-.08.51-.12.8-.12zm1.638 5.625c0-.13-.036-.237-.108-.316-.073-.08-.172-.142-.296-.185-.123-.043-.267-.075-.43-.096-.162-.022-.333-.036-.512-.045-.18-.01-.363-.018-.55-.03-.187-.01-.365-.028-.534-.056-.197.093-.357.207-.48.342-.122.134-.183.295-.183.482 0 .117.03.227.09.33.062.1.154.19.28.263.123.074.28.133.468.176.188.044.41.065.666.065.25 0 .472-.022.67-.067.196-.044.362-.108.5-.19.135-.084.24-.182.313-.296.072-.114.108-.24.108-.38zm-1.638-2.85c.187 0 .352-.027.495-.08.144-.05.264-.123.36-.217.097-.093.17-.204.218-.334.05-.13.073-.272.073-.428 0-.32-.098-.577-.293-.767-.195-.19-.48-.286-.853-.286-.37 0-.652.095-.847.285-.196.19-.293.445-.293.766 0 .156.025.298.075.428.05.13.124.24.22.334.097.094.216.166.358.218.142.052.304.078.487.078zm4.557-2.686v5.25h-.923v-5.25h.924zm.207-1.65c0 .09-.017.174-.053.252-.036.077-.085.146-.145.207-.06.06-.13.107-.21.14-.08.036-.164.053-.254.053s-.174-.017-.252-.052c-.077-.033-.146-.08-.207-.14-.06-.062-.11-.13-.144-.208-.034-.078-.05-.162-.05-.252s.016-.175.05-.257c.035-.08.083-.152.143-.212.06-.06.13-.107.206-.142.078-.034.162-.05.252-.05s.174.016.254.05c.08.035.15.082.21.143.06.06.11.132.145.213.036.082.054.167.054.257zm3.013 6.983c-.414 0-.733-.116-.956-.347-.223-.232-.335-.565-.335-1v-3.215h-.632c-.055 0-.102-.015-.14-.048-.038-.033-.057-.084-.057-.153v-.37l.86-.108.213-1.623c.007-.053.03-.095.068-.128.038-.033.086-.05.145-.05h.465v1.81h1.504v.67h-1.505v3.15c0 .222.054.386.16.493.108.108.246.16.416.16.097 0 .18-.012.252-.038.07-.026.132-.054.184-.085.052-.03.096-.06.132-.086.037-.026.07-.04.096-.04.05 0 .092.03.13.09l.27.44c-.16.15-.35.265-.576.35-.225.085-.456.127-.695.127zm6.133-.083h-.41c-.09 0-.162-.014-.217-.04-.057-.03-.093-.088-.11-.178l-.104-.487c-.138.124-.273.236-.404.334-.132.098-.27.18-.415.248-.145.068-.3.12-.464.153-.164.036-.346.053-.547.053-.204 0-.395-.03-.573-.086-.178-.057-.332-.142-.464-.256-.132-.113-.236-.258-.314-.432-.078-.175-.117-.38-.117-.62 0-.207.056-.406.17-.598.114-.192.298-.362.552-.51.254-.15.587-.27.998-.366.41-.095.914-.15 1.51-.164v-.41c0-.407-.09-.715-.263-.925-.175-.21-.433-.313-.775-.313-.225 0-.414.028-.568.085-.153.057-.287.12-.4.192-.11.07-.208.134-.29.19-.08.058-.16.086-.24.086-.062 0-.117-.016-.164-.05-.046-.032-.083-.072-.11-.12l-.167-.296c.29-.28.603-.49.938-.627.337-.14.708-.208 1.116-.208.294 0 .555.05.783.145.227.097.42.232.574.405.156.173.273.382.353.627.08.245.12.515.12.81v3.358zm-2.395-.565c.163 0 .312-.016.447-.05.135-.032.262-.08.38-.14.12-.06.234-.133.343-.22.11-.086.215-.184.32-.295v-1.094c-.426.014-.787.048-1.085.1-.297.055-.54.125-.725.21-.187.088-.323.19-.407.307-.085.117-.127.25-.127.394 0 .138.022.257.067.358.045.1.105.182.18.246.077.065.167.112.27.14.105.03.217.045.338.045zm4.822-7.07v7.635h-.923v-7.636h.922zm-136.61 14.384v5.25h-.92v-5.25h.92zm.21-1.65c0 .09-.02.174-.056.252-.036.077-.084.146-.145.207-.06.06-.13.107-.21.14-.078.036-.163.053-.253.053s-.174-.017-.25-.052c-.08-.033-.148-.08-.21-.14-.06-.062-.107-.13-.14-.208-.036-.078-.053-.162-.053-.252s.017-.175.052-.257c.034-.08.082-.152.142-.212.06-.06.13-.107.208-.142.077-.034.16-.05.25-.05s.176.016.255.05c.08.035.15.082.21.143.062.06.11.132.146.213.037.082.055.167.055.257zm1.42 6.9v-5.25h.55c.13 0 .213.063.247.19l.072.57c.228-.252.483-.456.765-.61.28-.157.607-.234.977-.234.287 0 .54.047.76.142.22.095.402.23.55.405.146.174.257.384.333.63.076.245.114.516.114.813v3.344h-.922v-3.344c0-.397-.09-.706-.272-.925-.18-.218-.46-.328-.832-.328-.273 0-.528.065-.764.197-.237.13-.456.308-.656.533v3.867h-.923zm7.355.083c-.415 0-.733-.116-.956-.347-.222-.232-.334-.565-.334-1v-3.215h-.632c-.055 0-.102-.015-.14-.048-.038-.033-.057-.084-.057-.153v-.37l.86-.108.213-1.623c.007-.053.03-.095.067-.128.038-.033.087-.05.146-.05h.466v1.81H31.9v.67H30.4v3.15c0 .222.053.386.16.493.107.108.245.16.415.16.096 0 .18-.012.25-.038.072-.026.133-.054.185-.085.052-.03.096-.06.132-.086.036-.026.068-.04.096-.04.048 0 .092.03.13.09l.27.44c-.16.15-.352.265-.576.35-.225.085-.456.127-.695.127zm4.355-5.417c.314 0 .605.052.87.158.267.105.497.257.69.456.194.2.345.444.454.736.11.292.163.625.163.998 0 .145-.017.242-.048.29-.03.05-.09.073-.176.073h-3.494c.007.332.052.62.135.866.083.245.197.45.342.614.144.164.317.287.517.368.2.08.425.122.674.122.233 0 .432-.027.6-.08.168-.054.312-.112.433-.174.12-.062.222-.12.303-.174.08-.054.15-.08.21-.08.076 0 .135.028.176.087l.26.337c-.114.138-.25.258-.41.36-.16.102-.33.186-.51.252-.182.065-.37.114-.563.147-.195.033-.386.05-.576.05-.363 0-.698-.062-1.004-.184-.305-.124-.57-.304-.793-.54-.223-.237-.396-.53-.52-.88-.125-.348-.187-.75-.187-1.202 0-.366.056-.708.168-1.026.112-.318.274-.594.485-.827.21-.234.468-.417.772-.55.304-.133.647-.2 1.027-.2zm.02.68c-.445 0-.796.128-1.052.385-.256.258-.415.615-.477 1.07h2.857c0-.213-.03-.41-.09-.587-.057-.178-.144-.332-.258-.46-.114-.13-.253-.23-.417-.302-.164-.07-.352-.105-.563-.105zm4.36-2.982v7.636h-.923v-7.636h.922zm2.654 0v7.636h-.922v-7.636h.922zm2.655 2.385v5.25h-.922v-5.25h.923zm.208-1.65c0 .09-.018.174-.054.252-.037.077-.085.146-.146.207-.06.06-.13.107-.21.14-.08.036-.164.053-.254.053s-.173-.017-.25-.052c-.08-.033-.148-.08-.208-.14-.06-.062-.108-.13-.143-.208-.034-.078-.052-.162-.052-.252s.02-.175.053-.257c.035-.08.082-.152.143-.212.06-.06.13-.107.207-.142.078-.034.162-.05.25-.05.09 0 .176.016.255.05.08.035.15.082.21.143.06.06.11.132.146.213.036.082.054.167.054.257zm3.188 1.56c.228 0 .442.026.64.076.2.05.38.123.542.22h1.426v.342c0 .114-.073.187-.218.218L50 173.9c.117.223.176.474.176.75 0 .256-.05.49-.148.698-.098.21-.235.388-.41.536-.174.15-.38.263-.62.342-.24.08-.505.12-.792.12-.245 0-.477-.03-.695-.088-.11.07-.193.143-.25.222-.057.08-.085.158-.085.234 0 .124.05.218.15.282.1.064.233.11.4.138.165.027.353.045.564.05.21.008.425.02.644.035.22.015.435.04.646.08.21.038.4.1.565.186.166.087.3.206.4.358.1.152.15.35.15.59 0 .225-.057.443-.17.654-.11.21-.273.398-.484.562-.21.165-.467.296-.77.394-.305.1-.65.148-1.033.148-.383 0-.72-.038-1.008-.114-.29-.076-.53-.178-.72-.306-.19-.128-.332-.275-.427-.443-.095-.17-.142-.344-.142-.527 0-.26.083-.48.247-.66.164-.183.39-.327.676-.434-.148-.07-.266-.163-.355-.278-.088-.116-.132-.27-.132-.464 0-.076.014-.155.042-.236.027-.08.07-.162.127-.24.057-.08.127-.157.21-.23.083-.072.18-.136.29-.19-.26-.146-.462-.34-.61-.58-.146-.24-.22-.52-.22-.842 0-.255.05-.488.148-.697.1-.21.236-.387.412-.534.177-.148.387-.26.63-.34.244-.08.51-.12.8-.12zm1.638 5.625c0-.13-.036-.237-.11-.316-.07-.08-.17-.142-.294-.185-.124-.043-.268-.075-.43-.096-.163-.022-.334-.036-.514-.045-.18-.01-.362-.018-.55-.03-.186-.01-.364-.028-.533-.056-.197.093-.357.207-.48.342-.122.134-.184.295-.184.482 0 .117.03.227.09.33.06.1.153.19.278.263.124.074.28.133.47.176.187.044.41.065.665.065.25 0 .472-.022.67-.067.196-.044.362-.108.5-.19.135-.084.24-.182.312-.296.073-.114.11-.24.11-.38zm-1.638-2.85c.187 0 .352-.027.495-.08.145-.05.265-.123.362-.217.096-.093.17-.204.217-.334.048-.13.072-.272.072-.428 0-.32-.098-.577-.293-.767-.196-.19-.48-.286-.854-.286-.37 0-.652.095-.847.285-.197.19-.294.445-.294.766 0 .156.025.298.075.428.05.13.124.24.22.334.098.094.217.166.36.218.14.052.303.078.486.078zm5.61-2.77c.314 0 .604.053.87.16.266.104.496.256.69.455.193.2.344.444.453.736.108.292.163.625.163.998 0 .145-.016.242-.047.29-.03.05-.09.073-.176.073h-3.494c.006.332.05.62.134.866.083.245.197.45.343.614.145.164.317.287.518.368.2.08.426.122.675.122.23 0 .43-.027.6-.08.166-.054.31-.112.43-.174.122-.062.223-.12.305-.174.08-.054.15-.08.21-.08.076 0 .134.028.176.087l.26.337c-.115.138-.25.258-.41.36-.16.102-.33.186-.51.252-.182.065-.37.114-.564.147-.193.033-.385.05-.575.05-.363 0-.697-.062-1.003-.184-.306-.124-.57-.304-.793-.54-.222-.237-.396-.53-.52-.88-.125-.348-.187-.75-.187-1.202 0-.366.056-.708.17-1.026.11-.318.273-.594.483-.827.21-.234.47-.417.773-.55.303-.133.645-.2 1.025-.2zm.02.68c-.446 0-.797.13-1.052.386-.256.258-.415.615-.477 1.07h2.856c0-.213-.03-.41-.088-.587-.06-.178-.145-.332-.26-.46-.113-.13-.252-.23-.417-.302-.164-.07-.35-.105-.562-.105zm3.333 4.655v-5.25h.55c.13 0 .213.063.248.19l.072.57c.228-.252.483-.456.765-.61.28-.157.607-.234.977-.234.287 0 .54.047.76.142.22.095.402.23.55.405.146.174.257.384.333.63.076.245.114.516.114.813v3.344h-.923v-3.344c0-.397-.09-.706-.273-.925-.18-.218-.458-.328-.832-.328-.273 0-.527.065-.764.197-.237.13-.456.308-.656.533v3.867h-.923zm9.346-4.318c-.028.038-.055.067-.083.088-.028.02-.067.03-.12.03-.05 0-.107-.02-.168-.064-.06-.043-.137-.09-.23-.142-.094-.052-.207-.1-.34-.143-.133-.042-.296-.064-.49-.064-.255 0-.482.046-.68.138-.196.09-.36.223-.494.396-.132.173-.232.382-.3.627-.067.246-.1.52-.1.825 0 .318.036.6.108.847.073.246.175.454.306.62.13.17.29.297.48.385.188.088.4.132.635.132.223 0 .408-.027.553-.08.145-.054.266-.113.363-.18.097-.065.176-.124.24-.178.06-.054.123-.08.185-.08.08 0 .14.028.178.087l.26.337c-.23.28-.515.485-.857.614-.34.13-.702.195-1.082.195-.328 0-.633-.06-.915-.182-.282-.12-.526-.295-.734-.525-.208-.23-.37-.512-.49-.848-.12-.335-.18-.717-.18-1.145 0-.39.055-.752.164-1.084.11-.332.268-.618.477-.858.21-.24.468-.427.776-.562.307-.135.66-.202 1.057-.202.367 0 .692.06.975.18.283.118.534.286.752.504l-.244.332zm3.34-1.016c.313 0 .603.052.87.158.266.105.495.257.69.456.192.2.344.444.453.736.107.292.162.625.162.998 0 .145-.016.242-.047.29-.03.05-.09.073-.176.073h-3.495c.007.332.052.62.135.866.083.245.197.45.342.614.145.164.318.287.518.368.2.08.425.122.674.122.232 0 .43-.027.6-.08.166-.054.31-.112.432-.174.12-.062.222-.12.303-.174.08-.054.15-.08.21-.08.075 0 .134.028.175.087l.26.337c-.115.138-.25.258-.41.36-.16.102-.33.186-.51.252-.182.065-.37.114-.563.147-.194.033-.386.05-.576.05-.363 0-.697-.062-1.003-.184-.306-.124-.57-.304-.793-.54-.223-.237-.396-.53-.52-.88-.125-.348-.188-.75-.188-1.202 0-.366.057-.708.17-1.026.11-.318.273-.594.484-.827.21-.234.468-.417.772-.55.304-.133.646-.2 1.027-.2zm.02.68c-.447 0-.797.128-1.053.385-.256.258-.415.615-.477 1.07h2.856c0-.213-.03-.41-.088-.587-.06-.178-.145-.332-.26-.46-.113-.13-.252-.23-.416-.302-.164-.07-.352-.105-.563-.105zm3.032 4.084c0-.09.016-.175.05-.254.032-.08.077-.15.134-.208.057-.058.125-.105.205-.14.08-.034.164-.05.254-.05s.175.016.255.05c.08.035.148.082.207.14.06.06.105.128.137.208.032.08.05.164.05.254 0 .093-.018.18-.05.256-.033.078-.08.146-.138.205-.06.06-.128.106-.207.14-.08.03-.164.048-.254.048s-.174-.017-.253-.05c-.08-.032-.148-.078-.205-.137-.057-.058-.102-.126-.135-.204-.033-.077-.05-.163-.05-.256z" fill="#1D2630"/><g><path d="M24.956 216.085c-.03.05-.063.09-.098.116-.035.027-.08.04-.135.04-.06 0-.127-.03-.205-.088-.077-.06-.176-.124-.295-.194-.12-.07-.263-.136-.43-.195-.168-.06-.37-.088-.61-.088-.224 0-.423.03-.596.09-.172.06-.317.143-.432.247-.116.104-.204.225-.262.365-.06.14-.088.292-.088.454 0 .208.05.38.153.517.1.136.236.253.404.35.168.097.358.18.57.25.213.072.43.145.653.222.223.075.44.16.653.255.213.095.403.215.57.36.168.146.303.324.405.534.102.21.153.47.153.777 0 .325-.055.63-.166.915-.11.285-.272.533-.485.744-.212.21-.473.377-.782.498-.31.12-.66.18-1.055.18-.48 0-.92-.086-1.314-.26-.396-.175-.734-.41-1.014-.708l.29-.477c.028-.04.062-.07.1-.097.04-.026.085-.04.134-.04.072 0 .155.04.248.117.094.078.21.164.35.257.14.093.31.18.508.257.2.077.442.116.73.116.237 0 .45-.033.636-.098.187-.066.345-.158.475-.278.13-.12.23-.26.3-.427.068-.166.103-.35.103-.555 0-.225-.05-.41-.153-.552-.102-.143-.236-.264-.402-.36-.166-.097-.355-.18-.568-.247l-.653-.207c-.223-.07-.44-.153-.653-.246-.213-.093-.402-.214-.568-.363-.166-.15-.3-.334-.402-.557-.102-.223-.153-.5-.153-.827 0-.263.052-.517.154-.762.102-.245.25-.462.444-.652.193-.19.433-.342.718-.457.285-.113.612-.17.982-.17.415 0 .793.066 1.135.197.342.132.64.322.897.57l-.244.478zm3.137 6.35c-.415 0-.734-.116-.957-.347-.223-.232-.334-.565-.334-1v-3.215h-.632c-.056 0-.102-.016-.14-.05-.038-.032-.057-.083-.057-.152v-.367l.86-.11.213-1.622c.007-.05.03-.093.067-.126.038-.033.086-.05.145-.05h.467v1.81h1.503v.67h-1.503v3.15c0 .222.053.386.16.493.108.108.246.16.415.16.097 0 .18-.012.252-.038.07-.027.132-.055.184-.086.05-.03.096-.06.132-.086.036-.026.068-.04.096-.04.048 0 .09.03.13.09l.27.44c-.16.15-.352.265-.577.35-.224.085-.456.127-.694.127zm2.276-.083v-5.25h.527c.1 0 .17.018.208.056.038.038.064.103.077.197l.063.82c.18-.368.4-.654.666-.86.265-.205.575-.308.93-.308.146 0 .278.017.395.05.118.032.227.078.327.137l-.12.69c-.024.086-.077.13-.16.13-.048 0-.123-.017-.223-.05s-.24-.05-.42-.05c-.322 0-.59.094-.807.28-.216.187-.397.458-.542.814v3.344h-.92zm6.302-5.334c.384 0 .73.064 1.04.19.31.13.572.31.788.546.216.235.382.52.497.853.116.333.174.705.174 1.117 0 .414-.057.788-.173 1.12-.115.33-.28.615-.497.85-.216.235-.48.415-.788.54-.31.128-.656.19-1.04.19-.383 0-.73-.062-1.04-.19-.308-.125-.572-.305-.79-.54-.217-.235-.385-.52-.502-.85-.118-.332-.177-.706-.177-1.12 0-.412.06-.784.177-1.117.117-.334.285-.618.502-.853.218-.235.482-.417.79-.545.31-.128.657-.192 1.04-.192zm0 4.686c.52 0 .906-.174 1.162-.52.255-.348.383-.833.383-1.455 0-.627-.128-1.114-.383-1.463-.256-.35-.643-.524-1.162-.524-.262 0-.49.045-.684.135-.194.09-.355.22-.485.39-.13.168-.226.377-.29.624-.064.247-.096.526-.096.837 0 .31.032.588.096.834.064.245.16.45.29.62.13.167.29.295.485.385.194.09.422.134.684.134zm3.64.648v-5.25h.55c.13 0 .213.063.248.19l.072.57c.228-.252.483-.456.765-.61.282-.157.607-.234.977-.234.287 0 .54.047.76.142.22.095.402.23.55.405.146.174.258.384.334.63.076.245.114.516.114.813v3.344h-.923v-3.344c0-.397-.092-.706-.273-.925-.182-.22-.46-.33-.832-.33-.273 0-.528.066-.765.198s-.455.31-.656.535v3.867h-.923zm7.532-5.34c.228 0 .44.026.64.076s.38.123.542.22h1.425v.342c0 .114-.07.187-.216.218l-.596.083c.117.225.176.476.176.752 0 .256-.05.49-.148.698-.098.21-.235.388-.41.536-.174.15-.38.263-.622.342-.24.08-.503.12-.79.12-.246 0-.477-.03-.695-.088-.11.07-.195.143-.252.222-.057.08-.086.158-.086.234 0 .124.05.218.15.282.1.064.234.11.4.138.166.027.354.045.565.05.21.008.426.02.645.035.22.017.435.043.646.08.21.04.4.102.565.188.166.087.3.206.4.358.1.152.15.35.15.59 0 .225-.057.443-.17.654-.112.21-.273.398-.484.562-.212.165-.47.296-.773.394-.305.1-.648.148-1.032.148s-.72-.038-1.008-.114c-.29-.076-.528-.178-.718-.306-.19-.128-.334-.275-.43-.443-.094-.167-.142-.342-.142-.525 0-.26.083-.48.247-.66.164-.183.39-.327.676-.434-.147-.068-.266-.16-.354-.276-.088-.116-.132-.27-.132-.464 0-.076.014-.155.04-.236.03-.08.07-.162.128-.24.057-.08.127-.157.21-.23.083-.072.18-.136.29-.19-.26-.146-.462-.34-.608-.58-.147-.24-.22-.52-.22-.842 0-.255.048-.488.147-.697.1-.21.237-.387.413-.534.176-.146.386-.26.63-.338.244-.08.51-.12.8-.12zm1.638 5.625c0-.13-.036-.237-.11-.316-.07-.08-.17-.14-.294-.183-.125-.043-.268-.075-.43-.096-.163-.02-.334-.034-.514-.043-.18-.01-.363-.018-.55-.03-.186-.01-.364-.028-.533-.056-.196.095-.356.21-.48.344-.122.134-.183.295-.183.482 0 .117.03.227.09.33.06.1.154.19.278.263.125.073.28.132.47.175.188.044.41.065.665.065.25 0 .472-.022.67-.067.196-.045.363-.11.5-.192.136-.082.24-.18.313-.294.073-.114.11-.24.11-.38zm-1.638-2.85c.186 0 .35-.027.495-.08.142-.05.262-.123.36-.217.096-.093.17-.204.217-.334.048-.13.073-.272.073-.428 0-.32-.098-.577-.293-.767-.196-.19-.48-.284-.853-.284-.37 0-.652.095-.848.285-.195.19-.293.447-.293.768 0 .156.025.298.076.428.05.13.122.24.22.334.096.094.215.166.357.218.14.052.304.078.487.078zm5.61-2.77c.313 0 .604.053.87.16.266.104.496.256.69.455.193.2.344.444.453.736.11.292.163.625.163.998 0 .145-.015.242-.046.29-.032.05-.09.073-.177.073h-3.494c.007.33.052.62.135.865.083.245.197.45.342.614.145.163.318.286.52.367.2.08.424.122.673.122.23 0 .43-.028.598-.082.17-.053.313-.11.434-.173.12-.062.222-.12.303-.174.082-.052.152-.08.21-.08.076 0 .135.03.177.09l.26.336c-.115.138-.252.258-.41.36-.16.102-.33.186-.51.252-.183.065-.37.114-.564.147-.193.033-.385.05-.575.05-.363 0-.697-.062-1.003-.184-.306-.122-.57-.302-.793-.54-.224-.235-.398-.528-.522-.877-.125-.35-.187-.75-.187-1.203 0-.366.057-.708.17-1.026.112-.318.273-.594.484-.827.21-.234.468-.417.772-.55.305-.133.647-.2 1.027-.2zm.02.68c-.446 0-.797.13-1.053.386-.254.257-.413.614-.476 1.07H54.8c0-.214-.03-.41-.087-.588-.06-.178-.146-.332-.26-.46-.114-.13-.253-.23-.417-.302-.164-.07-.352-.106-.562-.106zm3.333 4.655v-5.25h.53c.1 0 .168.018.206.056.038.038.064.103.078.197l.063.82c.18-.368.402-.654.666-.86.264-.205.574-.308.93-.308.145 0 .276.017.394.05.117.032.226.078.326.137l-.12.69c-.023.086-.077.13-.16.13-.048 0-.122-.017-.223-.05-.1-.033-.24-.05-.42-.05-.32 0-.59.094-.806.28-.215.187-.395.458-.54.814v3.344h-.923zm6.153-5.988c-.162-.134-.243-.347-.243-.637 0-.297.08-.513.243-.648.163-.136.424-.203.783-.203.36 0 .62.067.783.202.162.134.244.35.244.647 0 .29-.082.503-.244.637-.162.135-.423.203-.783.203-.36 0-.62-.068-.783-.203zm1.664 5.988h-1.762v-5.184h1.762v5.184zm5.962-4.81c.325.317.487.77.487 1.357v3.452H69.31v-2.965c0-.353-.063-.603-.19-.752-.13-.15-.31-.223-.545-.223-.277 0-.5.1-.674.296-.172.197-.258.5-.258.907v2.737H65.88v-5.184h1.575l.052.995c.166-.366.4-.64.705-.824.304-.184.66-.276 1.068-.276.546 0 .98.16 1.306.477zm1.338 4l.912-.994c.297.49.81.736 1.534.736.242 0 .432-.033.57-.098.14-.066.208-.154.208-.265 0-.096-.07-.18-.213-.253-.14-.072-.385-.143-.73-.212-.775-.152-1.326-.36-1.654-.622-.328-.263-.492-.612-.492-1.048 0-.297.094-.577.28-.84.187-.262.47-.475.845-.637.377-.162.835-.244 1.374-.244.594 0 1.08.082 1.457.244.376.162.682.406.917.73l-.91.893c-.167-.24-.364-.418-.592-.528-.228-.11-.5-.166-.82-.166-.248 0-.442.038-.58.114-.138.076-.207.17-.207.28 0 .104.072.192.213.264.142.073.39.144.742.213.76.13 1.308.326 1.643.586.335.26.503.613.503 1.062 0 .505-.21.914-.632 1.23-.42.313-1.033.47-1.835.47-1.19 0-2.032-.303-2.53-.912zm6.008-5.178c-.163-.134-.244-.347-.244-.637 0-.297.08-.513.244-.648.162-.136.423-.203.783-.203.36 0 .62.067.782.202.163.134.244.35.244.647 0 .29-.08.503-.243.637-.162.135-.423.203-.782.203-.36 0-.62-.068-.783-.203zm1.664 5.988h-1.763v-5.184h1.763v5.184zm5.936-.757c.328.263.492.65.492 1.16 0 .59-.26 1.04-.783 1.354-.52.314-1.23.47-2.13.47-.905 0-1.574-.106-2.006-.32-.432-.215-.648-.515-.648-.902 0-.228.08-.43.24-.602.158-.172.4-.297.725-.373-.532-.228-.798-.587-.798-1.078 0-.242.076-.456.228-.643.152-.187.36-.325.622-.415-.566-.304-.85-.777-.85-1.42 0-.56.22-.994.664-1.3.442-.31 1.064-.463 1.866-.463.373 0 .72.038 1.037.114.068-.414.224-.753.465-1.016.242-.262.578-.394 1.006-.394l.167.01.197 1.172c-.138-.014-.235-.02-.29-.02-.235 0-.43.04-.586.124-.156.083-.268.197-.337.342.582.304.872.78.872 1.43 0 .56-.22.993-.664 1.297-.442.304-1.064.456-1.866.456-.373 0-.705-.032-.995-.094-.215.055-.322.176-.322.363 0 .234.18.35.54.35h1.762c.6 0 1.066.132 1.395.395zm-2.935-3.318c-.14.14-.212.322-.212.55 0 .228.07.41.212.544.142.136.327.203.555.203.228 0 .413-.067.555-.202.14-.134.212-.315.212-.543 0-.228-.072-.41-.213-.55-.142-.138-.327-.207-.555-.207-.228 0-.413.07-.555.207zm1.68 5.024c.238-.093.358-.215.358-.367 0-.11-.05-.194-.145-.25-.097-.055-.26-.082-.488-.082h-1.42c-.284 0-.486.03-.607.09-.12.058-.18.15-.18.274 0 .318.48.477 1.44.477.456 0 .804-.046 1.042-.14zm7.15-5.76c.324.32.486.772.486 1.36v3.452H90.15v-2.965c0-.657-.245-.985-.736-.985-.276 0-.5.1-.674.3-.172.2-.26.508-.26.923v2.727h-1.76v-7.382h1.76v3.14c.153-.344.37-.605.65-.78.28-.178.61-.266.99-.266.545 0 .98.16 1.306.477zm5.483 4.522c-.172.117-.392.212-.658.285-.266.072-.534.11-.803.11-.617 0-1.087-.133-1.412-.395-.324-.263-.49-.685-.497-1.265v-2.374h-.89v-1.255h.89v-1.16l1.763-.49v1.65h1.556v1.255h-1.557v2.083c0 .464.228.695.685.695.283 0 .532-.075.746-.227l.176 1.09zm.363-.52l.913-.994c.297.49.808.736 1.534.736.242 0 .432-.033.57-.098.14-.066.208-.154.208-.265 0-.096-.07-.18-.213-.253-.142-.072-.385-.143-.73-.212-.775-.152-1.326-.36-1.654-.622-.328-.263-.492-.612-.492-1.048 0-.297.093-.577.28-.84.187-.262.468-.475.845-.637.377-.162.835-.244 1.374-.244.594 0 1.08.082 1.456.244.377.162.683.406.918.73l-.91.893c-.167-.24-.364-.418-.592-.528-.228-.11-.5-.166-.82-.166-.248 0-.442.038-.58.114-.138.076-.207.17-.207.28 0 .104.07.192.213.264.142.073.39.144.74.213.762.13 1.31.326 1.645.586.335.26.503.613.503 1.062 0 .505-.21.914-.632 1.23-.42.313-1.033.47-1.835.47-1.19 0-2.032-.303-2.53-.912z" fill="#1D2630"/><path fill="#BFBEB6" fill-rule="nonzero" d="M110.475 233.35l1.606 1.097 9.995-14.64-9.994-14.638-1.605 1.095 9.246 13.543"/><g fill="#BFBEB6"><path fill-rule="nonzero" d="M120.548 220.776h73.626v-1.944h-73.626"/><path d="M198.982 219.804l-6.48 4.86v-9.72"/></g></g></g></svg>