<svg width="230" height="264" viewBox="0 0 230 264" xmlns="http://www.w3.org/2000/svg">
  <g fill="none" fill-rule="evenodd">
    <path fill="#F7F6F0" d="M20 0h190v206H20z"/>
    <path d="M54.06 145.162H51.4l-.535 1.738h-2.018l2.706-7.698h2.402l2.695 7.698h-2.065l-.525-1.738zm-.42-1.365l-.56-1.843-.338-1.213h-.023l-.316 1.203-.583 1.854h1.82zm8.48-2.31c.366.36.548.868.548 1.53v3.883h-1.982v-3.336c0-.396-.072-.678-.216-.846-.144-.167-.348-.25-.613-.25-.31 0-.563.11-.758.332-.195.222-.292.562-.292 1.02v3.08h-1.983v-5.832h1.773l.058 1.12c.187-.412.45-.72.793-.928.34-.206.742-.31 1.2-.31.615 0 1.105.18 1.47.538zm7.35 4.235l-.153 1.108c-.226.124-.49.187-.793.187-.84 0-1.342-.3-1.505-.898-.35.597-1.043.897-2.077.897-.583 0-1.03-.125-1.34-.374-.312-.248-.468-.61-.468-1.084 0-.5.177-.9.53-1.21.355-.306.936-.54 1.745-.704l1.318-.257v-.21c0-.265-.074-.475-.222-.63-.148-.156-.35-.234-.607-.234-.296 0-.537.07-.724.21-.186.14-.307.37-.36.688l-1.61-.466c.1-.568.38-1.01.84-1.324.458-.315 1.076-.473 1.853-.473.91 0 1.6.188 2.076.56.474.374.71.934.71 1.68v2.124c0 .303.14.455.42.455.15 0 .27-.017.363-.048zm-3.07-.216c.22-.15.328-.352.328-.6v-.502l-.945.222c-.25.062-.426.138-.53.227-.106.09-.158.216-.158.38 0 .162.05.287.15.372.102.086.242.13.42.13.273 0 .518-.077.736-.23zm5.226-.624c0 .265.04.45.117.56.078.11.218.163.42.163.187 0 .385-.035.595-.105l-.128 1.225c-.14.086-.323.156-.55.21-.224.054-.446.082-.664.082-.622 0-1.073-.146-1.353-.438-.28-.292-.42-.76-.42-1.406v-6.58h1.983v6.288zm4.876 2.018c-.218.622-.455 1.116-.712 1.48-.256.367-.56.63-.91.79-.35.158-.773.238-1.27.238-.662 0-1.19-.144-1.587-.432l.42-1.33c.124.117.262.197.414.24.152.042.348.064.59.064.24 0 .43-.04.57-.123.14-.08.253-.227.34-.437l.14-.362-.678-1.586-1.74-4.374h2.183l.898 3.324.28 1.237.316-1.284.898-3.278h1.983l-2.135 5.832zm6.497-.327c-.196.133-.442.24-.742.32-.3.083-.6.124-.904.124-.692 0-1.22-.148-1.586-.444-.366-.295-.552-.77-.56-1.423v-2.67h-1.003v-1.412h1.003v-1.306l1.983-.55v1.856h1.75v1.41h-1.75v2.346c0 .52.258.78.77.78.32 0 .6-.084.84-.255l.2 1.223zm.366-6.41c-.182-.15-.274-.39-.274-.716 0-.335.092-.578.274-.73.183-.15.477-.227.88-.227.405 0 .7.076.882.228.182.15.274.394.274.73 0 .325-.092.564-.274.716-.183.152-.477.227-.88.227-.405 0-.7-.074-.882-.226zm1.872 6.737h-1.983v-5.832h1.983v5.832zm5.6-5.447c.442.334.718.77.827 1.306l-1.843.606c-.077-.67-.377-1.003-.898-1.003-.77 0-1.155.548-1.155 1.644 0 1.066.384 1.598 1.154 1.598.552 0 .875-.315.968-.944l1.785.572c-.086.53-.368.958-.846 1.29-.477.33-1.11.495-1.894.495-1.01 0-1.79-.265-2.333-.794-.544-.528-.816-1.275-.816-2.24 0-.955.27-1.7.81-2.233.54-.532 1.293-.8 2.257-.8.88 0 1.54.17 1.983.503zm.874 4.537l1.026-1.12c.335.553.91.83 1.727.83.272 0 .486-.038.64-.112.157-.074.234-.173.234-.298 0-.108-.08-.204-.24-.285-.16-.082-.433-.162-.822-.24-.87-.17-1.49-.404-1.86-.7-.37-.295-.555-.688-.555-1.177 0-.335.105-.65.315-.945.21-.296.527-.535.95-.718.425-.182.94-.274 1.547-.274.668 0 1.215.093 1.638.275.424.183.768.457 1.033.823l-1.027 1.003c-.187-.27-.41-.47-.666-.594-.256-.124-.563-.187-.92-.187-.28 0-.5.042-.654.128-.156.085-.234.19-.234.315 0 .116.08.215.24.297.16.082.437.16.833.24.855.147 1.47.367 1.848.658.377.292.566.69.566 1.196 0 .567-.237 1.028-.712 1.382-.474.354-1.162.53-2.064.53-1.338 0-2.286-.342-2.846-1.026zm15.42 1.027c-.436 0-.803-.047-1.103-.14-.3-.094-.632-.288-.998-.584-.264.234-.585.413-.962.537-.377.124-.795.187-1.254.187-.81 0-1.46-.183-1.954-.55-.494-.364-.744-.877-.752-1.538 0-.42.12-.82.362-1.197.24-.377.645-.67 1.213-.88-.31-.374-.52-.69-.63-.95-.11-.262-.164-.547-.164-.858 0-.335.09-.652.264-.95.175-.3.437-.543.787-.73.35-.187.783-.28 1.296-.28.74 0 1.308.17 1.71.513.4.342.6.778.6 1.307 0 .956-.557 1.66-1.67 2.11.242.265.425.467.55.607l.78.84c.203-.435.293-.94.27-1.516l1.317.035c0 .91-.248 1.673-.746 2.287.17.132.334.227.49.286.155.058.323.087.5.087.118 0 .207-.004.27-.01l-.175 1.387zm-4.363-6.433c-.125.128-.187.305-.187.53 0 .156.04.312.122.467.082.157.247.382.496.678.312-.218.518-.42.62-.607.1-.185.15-.395.15-.63 0-.2-.06-.356-.18-.465-.12-.11-.29-.164-.507-.164-.218 0-.39.066-.514.194zm1.376 4.893l-.677-.7c-.467-.482-.806-.836-1.016-1.06-.248.185-.418.358-.507.518-.09.16-.134.344-.134.554 0 .27.11.493.332.664.222.17.512.256.87.256.404 0 .78-.077 1.13-.233zm15.14 1.423h-1.773v-3.534l.058-2.368h-.022l-1.902 5.902h-1.62l-1.902-5.902h-.023l.06 2.368v3.534h-1.786v-7.698h2.858l1.213 3.92.432 1.632h.023l.443-1.62 1.202-3.932h2.74v7.698zm6.555-2.344h-3.977c.063.365.197.633.403.804.206.17.48.257.822.257.288 0 .523-.054.706-.163.182-.11.305-.27.367-.48l1.61.515c-.163.496-.48.875-.95 1.136-.47.26-1.048.39-1.732.39-1.02 0-1.798-.264-2.34-.793-.54-.528-.81-1.275-.81-2.24 0-.963.265-1.71.794-2.238.53-.53 1.28-.794 2.25-.794.942 0 1.663.26 2.165.777.5.517.752 1.242.752 2.175 0 .265-.02.482-.06.654zm-3.988-1.074h2.192c-.093-.762-.45-1.143-1.073-1.143-.628 0-1.002.38-1.118 1.142zm10.567 2.24l-.152 1.108c-.226.124-.49.187-.794.187-.84 0-1.34-.3-1.504-.898-.35.597-1.042.897-2.076.897-.584 0-1.03-.125-1.342-.374-.31-.248-.466-.61-.466-1.084 0-.5.177-.9.53-1.21.354-.306.935-.54 1.744-.704l1.318-.257v-.21c0-.265-.074-.475-.22-.63-.15-.156-.35-.234-.608-.234-.295 0-.537.07-.723.21-.187.14-.307.37-.362.688l-1.61-.466c.102-.568.382-1.01.84-1.324.46-.315 1.077-.473 1.855-.473.91 0 1.602.188 2.076.56.475.374.712.934.712 1.68v2.124c0 .303.14.455.42.455.147 0 .268-.017.36-.048zm-3.068-.216c.217-.15.326-.352.326-.6v-.502l-.945.222c-.248.062-.425.138-.53.227-.105.09-.158.216-.158.38 0 .162.05.287.152.372.1.086.24.13.42.13.272 0 .517-.077.735-.23zm2.834.484l1.026-1.12c.335.553.91.83 1.727.83.27 0 .485-.038.64-.112.156-.074.233-.173.233-.298 0-.108-.08-.204-.24-.285-.158-.082-.432-.162-.82-.24-.872-.17-1.492-.404-1.86-.7-.37-.295-.555-.688-.555-1.177 0-.335.105-.65.314-.945.21-.296.527-.535.95-.718.425-.182.94-.274 1.547-.274.667 0 1.214.093 1.637.275.424.183.768.457 1.033.823l-1.027 1.003c-.186-.27-.408-.47-.665-.594-.256-.124-.563-.187-.92-.187-.28 0-.5.042-.654.128-.156.085-.234.19-.234.315 0 .116.08.215.24.297.16.082.437.16.834.24.855.147 1.47.367 1.848.658.377.292.566.69.566 1.196 0 .567-.237 1.028-.712 1.382-.474.354-1.162.53-2.064.53-1.338 0-2.286-.342-2.846-1.026zm11.874-4.922v5.832h-1.773l-.058-1.085c-.367.8-1.04 1.202-2.02 1.202-.62 0-1.11-.166-1.463-.496-.354-.33-.53-.85-.53-1.556v-3.896h1.982v3.394c0 .38.065.65.197.805.133.156.335.233.607.233.327 0 .587-.11.78-.332.196-.222.293-.558.293-1.01v-3.09h1.983zm5.074.012l-.21 1.68c-.078-.047-.183-.088-.315-.123-.133-.035-.273-.053-.42-.053-.374 0-.685.12-.934.356-.25.237-.373.577-.373 1.02v2.94H144.9v-5.832h1.75l.08 1.26c.14-.444.36-.784.66-1.02.3-.238.67-.357 1.114-.357.264 0 .474.044.63.13zm5.75 3.476h-3.977c.062.365.196.633.402.804.205.17.48.257.82.257.29 0 .524-.054.707-.163.183-.11.305-.27.367-.48l1.61.515c-.163.496-.48.875-.95 1.136-.47.26-1.048.39-1.733.39-1.017 0-1.797-.264-2.337-.793-.54-.528-.81-1.275-.81-2.24 0-.963.263-1.71.792-2.238.53-.53 1.28-.794 2.25-.794.942 0 1.664.26 2.165.777.502.517.752 1.242.752 2.175 0 .265-.02.482-.058.654zm-3.99-1.074h2.194c-.093-.762-.45-1.143-1.073-1.143-.63 0-1.003.38-1.12 1.142zm13.607-1.994c.37.358.555.867.555 1.528v3.884h-1.983v-3.43c0-.668-.264-1.002-.793-1.002-.312 0-.56.112-.747.338-.187.225-.28.552-.28.98v3.114h-1.983v-3.43c0-.668-.265-1.002-.793-1.002-.296 0-.54.112-.735.338-.195.225-.292.564-.292 1.015v3.08h-1.983v-5.832h1.773l.06 1.12c.185-.405.446-.712.78-.922.334-.21.727-.315 1.178-.315.443 0 .826.102 1.15.305.322.202.553.493.693.874.188-.382.454-.673.8-.875.346-.203.733-.304 1.16-.304.592 0 1.072.18 1.44.538zm6.982 3.068h-3.977c.062.365.196.633.402.804.206.17.48.257.822.257.287 0 .522-.054.705-.163.183-.11.305-.27.367-.48l1.61.515c-.163.496-.48.875-.95 1.136-.47.26-1.048.39-1.733.39-1.02 0-1.8-.264-2.34-.793-.54-.528-.81-1.275-.81-2.24 0-.963.264-1.71.793-2.238.53-.53 1.28-.794 2.25-.794.942 0 1.663.26 2.165.777.5.517.752 1.242.752 2.175 0 .265-.02.482-.058.654zm-3.99-1.074h2.194c-.094-.762-.45-1.143-1.073-1.143-.63 0-1.003.38-1.12 1.142zm9.87-1.994c.364.358.547.867.547 1.528v3.884h-1.984v-3.336c0-.396-.072-.678-.216-.846-.144-.167-.348-.25-.612-.25-.31 0-.564.11-.758.332-.195.222-.292.562-.292 1.02v3.08h-1.983v-5.832h1.773l.058 1.12c.187-.412.45-.72.794-.928.342-.206.742-.31 1.2-.31.615 0 1.105.18 1.47.538zm5.55 5.085c-.194.133-.44.24-.74.32-.3.083-.6.124-.904.124-.692 0-1.22-.148-1.586-.444-.366-.295-.552-.77-.56-1.423v-2.67h-1.003v-1.412h1.002v-1.306l1.983-.55v1.856h1.75v1.41h-1.75v2.346c0 .52.256.78.77.78.318 0 .598-.084.84-.255l.198 1.223z" fill="#1D2630"/>
    <path d="M88.332 67.942c0-17.768 14.397-32.172 32.158-32.172 17.76 0 32.158 14.404 32.158 32.172 0 17.768-14.398 32.17-32.158 32.17S88.332 85.71 88.332 67.943z" fill-opacity=".259" fill="#FBD334"/>
    <path fill="#FFF" d="M82.972 102.795h12.06V65.26H82.97M107.09 102.795h12.06V58.56h-12.06M131.21 102.795h12.058v-51.61h-12.06"/>
    <path fill="#FCD410" d="M95.03 102.795h12.06V70.623H95.03M119.15 102.795h12.06V63.92h-12.06"/>
    <path fill="#F4F3EF" d="M82.972 102.795h3.35V65.26h-3.35"/>
    <path fill="#E8C42D" d="M95.03 102.795h3.35V70.623h-3.35"/>
    <path fill="#F4F3EF" d="M107.09 102.795h3.35V58.56h-3.35"/>
    <path fill="#E8C42D" d="M119.15 102.795h3.35V63.92h-3.35"/>
    <path fill="#F4F3EF" d="M131.21 102.795h3.35v-51.61h-3.35"/>
    <path fill="#333" d="M86.18 94.082H74.932v-1.34h10.604l5.36-6.703h8.696l4.02 5.36h10.106l10.72-10.723h10.617l4.02-6.703h9.553v1.34h-8.794l-4.02 6.703h-10.82l-10.72 10.724h-11.332l-4.02-5.36H91.54"/>
    <path fill="#FBD334" d="M121.83 55.207h2.68v-8.043h-2.68"/>
    <path fill="#FBD334" d="M119.15 52.526h8.04v-2.68h-8.04M94.36 58.56h2.68v-8.044h-2.68"/>
    <path fill="#FBD334" d="M91.68 55.878h8.04v-2.68h-8.04M106.42 43.143h2.68V35.1h-2.68"/>
    <path fill="#FBD334" d="M103.74 40.462h8.04v-2.68h-8.04"/>
    <path fill="#333" d="M74.933 103.465h6.7v-1.34h-6.7M152.648 103.465h2.68v-1.34h-2.68M144.608 103.465h5.36v-1.34h-5.36M119.82 81.347h-1.34V59.23h-10.72v11.393h-1.34V57.888h13.4M119.82 103.465h-12.73v-1.34h11.39V92.07h1.34"/>
    <path fill="#333" d="M131.88 103.465h-12.73v-1.34h11.39V85.367h1.34M131.88 77.325h-1.34V64.59h-11.39v-1.34h12.73M107.76 103.465H95.03v-1.34h11.39V96.09h1.34M107.76 88.05h-1.34V71.292H95.03v-1.34h12.73"/>
    <path fill="#333" d="M95.7 103.465H82.303v-6.032h1.34v4.69h10.72V90.73h1.34M83.642 89.39h-1.34v-24.8h13.4v18.097h-1.34V65.93H83.64M143.938 103.465h-12.73v-1.34h11.39v-23.46h1.34M143.938 70.623h-1.34V51.856h-10.72V63.92h-1.34V50.517h13.4"/>
    <path d="M51.595 160.97v.846h-2.4v6.584H48.19v-6.584h-2.41v-.845h5.815zm.912 7.43v-7.636h.923v3.09c.225-.24.474-.43.747-.573.273-.143.587-.214.943-.214.287 0 .54.047.76.142.22.095.402.23.55.405.146.174.258.384.334.63.076.245.114.516.114.813v3.344h-.923v-3.344c0-.397-.09-.706-.272-.925-.182-.218-.46-.328-.832-.328-.272 0-.527.065-.764.197-.237.13-.455.308-.656.533v3.867h-.923zm7.844-5.334c.315 0 .606.052.872.158.266.105.496.257.69.456.193.2.344.444.453.736.11.292.163.625.163.998 0 .145-.015.242-.046.29-.032.05-.09.073-.177.073H58.81c.008.332.053.62.136.866.083.245.197.45.342.614.145.164.318.287.52.368.2.08.424.122.672.122.232 0 .432-.027.6-.08.167-.054.31-.112.432-.174.12-.062.222-.12.303-.174.082-.054.152-.08.21-.08.076 0 .135.028.177.087l.26.337c-.115.138-.252.258-.41.36-.16.102-.33.186-.51.252-.183.065-.37.114-.564.147-.193.033-.385.05-.575.05-.363 0-.698-.062-1.003-.184-.306-.124-.57-.304-.794-.54-.222-.237-.396-.53-.52-.88-.125-.348-.187-.75-.187-1.202 0-.366.055-.708.167-1.026.113-.318.274-.594.485-.827.21-.234.468-.417.772-.55.305-.133.647-.2 1.027-.2zm.022.68c-.446 0-.797.128-1.053.385-.256.258-.415.615-.478 1.07H61.7c0-.213-.03-.41-.09-.587-.058-.178-.145-.332-.26-.46-.113-.13-.252-.23-.416-.302-.164-.07-.352-.105-.562-.105zm8.916.336c-.028.038-.055.067-.083.088-.027.02-.067.03-.12.03-.05 0-.107-.02-.168-.064-.06-.043-.137-.09-.23-.142-.094-.052-.207-.1-.34-.143-.133-.042-.296-.064-.49-.064-.255 0-.482.046-.68.138-.196.09-.36.223-.494.396-.133.173-.233.382-.3.627-.068.246-.102.52-.102.825 0 .318.038.6.11.847.073.246.175.454.306.62.13.17.29.297.48.385.188.088.4.132.635.132.225 0 .41-.027.555-.08.146-.054.266-.113.363-.18.097-.065.176-.124.24-.178.06-.054.123-.08.185-.08.08 0 .14.028.177.087l.26.337c-.23.28-.514.485-.857.614-.342.13-.703.195-1.083.195-.328 0-.633-.06-.915-.182-.282-.12-.526-.295-.734-.525-.206-.23-.37-.512-.488-.848-.12-.335-.18-.717-.18-1.145 0-.39.055-.752.164-1.084.11-.332.268-.618.477-.858.21-.24.467-.427.775-.562.308-.135.66-.202 1.057-.202.367 0 .692.06.975.18.283.118.534.286.752.504l-.244.332zm3.385-1.016c.384 0 .73.064 1.04.19.31.13.572.31.788.546.217.235.383.52.498.853.116.333.174.705.174 1.117 0 .414-.058.788-.174 1.12-.115.33-.28.615-.497.85-.215.235-.478.415-.787.54-.31.128-.656.19-1.04.19-.383 0-.73-.062-1.04-.19-.308-.125-.572-.305-.79-.54-.217-.235-.385-.52-.503-.85-.117-.332-.176-.706-.176-1.12 0-.412.06-.784.176-1.117.118-.334.286-.618.503-.853.218-.235.482-.417.79-.545.31-.127.657-.19 1.04-.19zm0 4.686c.52 0 .906-.174 1.16-.52.257-.348.385-.833.385-1.455 0-.626-.128-1.113-.384-1.462-.255-.35-.642-.524-1.16-.524-.263 0-.49.046-.685.136-.195.09-.356.22-.486.39-.13.168-.226.377-.29.624-.064.247-.096.526-.096.837 0 .31.032.59.096.835s.16.45.29.62c.13.167.29.295.485.385.193.09.42.135.683.135zm3.64.648v-5.25h.528c.1 0 .17.018.21.056.037.038.062.103.076.197l.063.82c.178-.368.4-.654.665-.86.264-.205.574-.308.93-.308.145 0 .277.017.394.05.117.032.226.078.326.137l-.12.69c-.024.086-.077.13-.16.13-.05 0-.123-.017-.223-.05s-.24-.05-.42-.05c-.32 0-.59.094-.806.28-.216.187-.397.458-.542.814v3.344h-.923zm4.178 0v-5.25h.55c.132 0 .215.063.25.19l.072.57c.228-.252.483-.456.764-.61.282-.157.608-.234.977-.234.287 0 .54.047.76.142.22.095.403.23.55.405.146.174.258.384.334.63.076.245.114.516.114.813v3.344h-.922v-3.344c0-.397-.09-.706-.272-.925-.182-.218-.46-.328-.832-.328-.273 0-.528.065-.765.197-.237.13-.456.308-.657.533v3.867h-.922zm7.844-5.334c.315 0 .605.052.87.158.267.105.497.257.69.456.194.2.345.444.454.736.11.292.163.625.163.998 0 .145-.014.242-.045.29-.03.05-.09.073-.177.073h-3.494c.007.332.052.62.135.866.082.245.196.45.34.614.147.164.32.287.52.368.2.08.425.122.674.122.23 0 .43-.027.598-.08.168-.054.312-.112.433-.174.12-.062.222-.12.304-.174.08-.054.15-.08.21-.08.075 0 .133.028.175.087l.26.337c-.115.138-.252.258-.41.36-.16.102-.33.186-.51.252-.183.065-.37.114-.564.147-.192.033-.384.05-.574.05-.363 0-.697-.062-1.003-.184-.306-.124-.57-.304-.793-.54-.223-.237-.397-.53-.52-.88-.126-.348-.188-.75-.188-1.202 0-.366.056-.708.17-1.026.11-.318.272-.594.483-.827.21-.234.47-.417.773-.55.304-.133.646-.2 1.026-.2zm.02.68c-.445 0-.796.128-1.05.385-.257.258-.416.615-.478 1.07h2.856c0-.213-.03-.41-.088-.587-.06-.178-.145-.332-.26-.46-.113-.13-.253-.23-.417-.302-.164-.07-.35-.105-.562-.105zm3.334 4.654v-5.25h.53c.1 0 .168.018.206.056.038.038.064.103.078.197l.062.82c.18-.368.402-.654.666-.86.265-.205.575-.308.93-.308.146 0 .277.017.395.05.117.032.226.078.327.137l-.12.69c-.024.086-.077.13-.16.13-.05 0-.123-.017-.223-.05-.102-.033-.242-.05-.42-.05-.323 0-.59.094-.807.28-.216.187-.397.458-.542.814v3.344h-.922zm7.185-4.386c-.04.076-.105.114-.192.114-.05 0-.11-.02-.175-.057-.066-.037-.146-.08-.24-.126-.096-.046-.21-.09-.34-.13-.132-.04-.287-.06-.467-.06-.156 0-.296.02-.42.06-.124.04-.23.095-.32.164-.087.07-.154.15-.2.24-.048.093-.07.192-.07.3 0 .134.038.246.116.336.077.09.18.168.308.233.128.066.273.124.436.174.162.05.33.105.5.162.17.057.338.12.5.19.163.068.308.155.436.258.127.104.23.23.308.38.078.152.117.332.117.543 0 .242-.045.466-.13.67-.087.207-.215.385-.385.535-.17.15-.376.27-.622.355-.245.087-.528.13-.85.13-.366 0-.698-.06-.995-.18-.297-.118-.55-.27-.757-.458l.22-.352c.026-.045.06-.08.097-.104.038-.025.088-.037.15-.037.063 0 .128.024.198.072.07.05.152.102.25.16.1.06.22.113.36.162.14.048.314.072.525.072.18 0 .337-.024.472-.07.134-.047.247-.11.337-.19.088-.08.155-.17.198-.275.043-.103.065-.214.065-.33 0-.146-.04-.267-.117-.362-.077-.095-.18-.176-.308-.243-.128-.068-.274-.126-.438-.177-.164-.05-.332-.102-.503-.158-.17-.055-.34-.118-.503-.19-.164-.07-.31-.16-.438-.266-.128-.108-.23-.24-.308-.397-.078-.158-.117-.35-.117-.573 0-.2.042-.393.125-.578.083-.185.204-.348.363-.488.16-.14.355-.25.586-.334.232-.083.496-.124.793-.124.346 0 .656.054.93.163.276.108.513.257.714.447l-.207.337zm3.085 4.47c-.415 0-.734-.117-.957-.348-.222-.232-.333-.565-.333-1v-3.215h-.633c-.055 0-.102-.015-.14-.048-.038-.033-.057-.084-.057-.153v-.37l.86-.108.214-1.623c.007-.053.03-.095.068-.128.038-.033.086-.05.145-.05h.467v1.81h1.503v.67h-1.503v3.15c0 .222.053.386.16.493.107.108.246.16.415.16.097 0 .18-.012.25-.038.072-.026.134-.054.185-.085.052-.03.096-.06.133-.086.036-.026.068-.04.096-.04.047 0 .09.03.128.09l.27.44c-.16.15-.35.265-.576.35-.224.085-.456.127-.694.127zm4.4-5.418c.385 0 .73.064 1.04.19.31.13.572.31.788.546.216.235.382.52.498.853.116.333.174.705.174 1.117 0 .414-.058.788-.174 1.12-.116.33-.282.615-.498.85-.216.235-.478.415-.788.54-.31.128-.655.19-1.04.19-.383 0-.73-.062-1.04-.19-.308-.125-.57-.305-.79-.54-.217-.235-.384-.52-.502-.85-.117-.332-.176-.706-.176-1.12 0-.412.06-.784.176-1.117.118-.334.285-.618.503-.853.217-.235.48-.417.79-.545.31-.127.655-.19 1.04-.19zm0 4.686c.52 0 .906-.174 1.162-.52.256-.348.384-.833.384-1.455 0-.626-.128-1.113-.384-1.462-.256-.35-.643-.524-1.16-.524-.264 0-.492.046-.685.136-.194.09-.356.22-.485.39-.13.168-.226.377-.29.624-.064.247-.096.526-.096.837 0 .31.032.59.096.835s.16.45.29.62c.13.167.29.295.485.385.193.09.42.135.684.135zm3.64.648v-5.25h.55c.13 0 .214.063.248.19l.073.57c.227-.252.482-.456.764-.61.28-.157.607-.234.977-.234.288 0 .54.047.76.142.22.095.403.23.55.405.147.174.258.384.334.63.076.245.114.516.114.813v3.344h-.923v-3.344c0-.397-.09-.706-.272-.925-.18-.218-.46-.328-.832-.328-.272 0-.527.065-.763.197-.237.13-.456.308-.656.533v3.867H110zm7.843-5.334c.316 0 .606.052.872.158.266.105.496.257.69.456.193.2.345.444.453.736.11.292.164.625.164.998 0 .145-.017.242-.048.29-.03.05-.09.073-.176.073h-3.494c.007.332.052.62.135.866.083.245.197.45.342.614.144.164.317.287.517.368.2.08.425.122.674.122.233 0 .432-.027.6-.08.167-.054.312-.112.433-.174.12-.062.222-.12.303-.174.08-.054.15-.08.21-.08.076 0 .135.028.176.087l.26.337c-.115.138-.25.258-.41.36-.16.102-.33.186-.51.252-.182.065-.37.114-.563.147-.195.033-.387.05-.577.05-.363 0-.697-.062-1.003-.184-.306-.124-.57-.304-.793-.54-.223-.237-.397-.53-.52-.88-.125-.348-.188-.75-.188-1.202 0-.366.056-.708.168-1.026.112-.318.274-.594.485-.827.21-.234.468-.417.772-.55.304-.133.646-.2 1.026-.2zm.022.68c-.446 0-.796.128-1.052.385-.256.258-.415.615-.477 1.07h2.856c0-.213-.03-.41-.09-.587-.058-.178-.144-.332-.258-.46-.114-.13-.253-.23-.417-.302-.165-.07-.352-.105-.563-.105zm7.46-.68c.384 0 .73.064 1.04.19.31.13.57.31.787.546.215.235.38.52.497.853.116.333.174.705.174 1.117 0 .414-.057.788-.173 1.12-.116.33-.282.615-.498.85-.217.235-.48.415-.79.54-.308.128-.654.19-1.038.19s-.73-.062-1.04-.19c-.31-.125-.572-.305-.79-.54-.218-.235-.385-.52-.503-.85-.118-.332-.177-.706-.177-1.12 0-.412.06-.784.176-1.117.117-.334.284-.618.502-.853.218-.235.48-.417.79-.545.31-.127.656-.19 1.04-.19zm0 4.686c.518 0 .905-.174 1.16-.52.257-.348.385-.833.385-1.455 0-.626-.128-1.113-.384-1.462-.256-.35-.643-.524-1.16-.524-.264 0-.492.046-.685.136-.194.09-.355.22-.485.39-.13.168-.226.377-.29.624-.064.247-.096.526-.096.837 0 .31.032.59.096.835s.16.45.29.62c.13.167.29.295.485.385.193.09.42.135.684.135zm3.846.648v-4.463l-.58-.068c-.073-.018-.132-.045-.18-.08-.046-.037-.07-.09-.07-.16v-.378h.83v-.508c0-.3.043-.567.127-.8.085-.234.206-.43.363-.592.158-.16.347-.282.568-.365.22-.083.47-.125.747-.125.235 0 .452.035.653.104l-.02.462c-.004.07-.034.11-.09.124-.054.014-.132.02-.232.02h-.16c-.16 0-.304.02-.434.063-.13.04-.24.11-.334.202-.094.093-.165.216-.216.368-.05.152-.075.34-.075.565v.482h1.52v.67h-1.49v4.478h-.927zm6.828 1.55c-.03.07-.07.124-.117.166-.047.04-.12.062-.216.062h-.684l.96-2.084-2.168-4.945h.798c.08 0 .142.018.187.058.045.04.078.084.098.132l1.405 3.308c.03.076.058.152.08.228.023.076.043.154.06.233l.073-.234c.024-.076.052-.154.083-.233l1.363-3.303c.02-.055.055-.1.105-.137.05-.036.105-.054.164-.054h.735l-2.93 6.8zm5.894-6.884c.384 0 .73.064 1.04.19.31.13.57.31.787.546.216.235.382.52.498.853.116.333.174.705.174 1.117 0 .414-.06.788-.175 1.12-.116.33-.282.615-.498.85-.216.235-.478.415-.788.54-.31.128-.656.19-1.04.19s-.73-.062-1.04-.19c-.31-.125-.572-.305-.79-.54-.218-.235-.385-.52-.503-.85-.117-.332-.176-.706-.176-1.12 0-.412.06-.784.177-1.117.118-.334.285-.618.503-.853.218-.235.48-.417.79-.545.31-.127.656-.19 1.04-.19zm0 4.686c.518 0 .905-.174 1.16-.52.257-.348.385-.833.385-1.455 0-.626-.128-1.113-.384-1.462-.255-.35-.642-.524-1.16-.524-.263 0-.49.046-.684.136-.194.09-.355.22-.485.39-.13.168-.225.377-.29.624-.063.247-.095.526-.095.837 0 .31.032.59.096.835.065.245.16.45.29.62.13.167.292.295.486.385.193.09.42.135.684.135zm4.438-4.603v3.347c0 .398.09.705.274.923.183.218.46.327.83.327.27 0 .523-.064.762-.192.238-.128.458-.306.658-.534v-3.87h.923v5.25h-.55c-.13 0-.214-.064-.248-.192l-.073-.565c-.228.252-.484.455-.767.61-.284.153-.61.23-.975.23-.287 0-.54-.048-.76-.143-.22-.095-.403-.23-.55-.4-.15-.174-.26-.383-.336-.63-.074-.244-.11-.515-.11-.813v-3.348h.922zm4.966 5.25v-5.25h.53c.1 0 .168.018.206.056.038.038.064.103.078.197l.062.82c.18-.368.402-.654.666-.86.264-.205.575-.308.93-.308.146 0 .277.017.395.05.118.032.227.078.327.137l-.12.69c-.023.086-.077.13-.16.13-.048 0-.122-.017-.223-.05-.1-.033-.24-.05-.42-.05-.32 0-.59.094-.806.28-.216.187-.396.458-.54.814v3.344h-.924zm9.875 0c-.132 0-.215-.064-.25-.192l-.082-.637c-.225.274-.482.492-.77.656-.29.164-.62.247-.993.247-.3 0-.574-.058-.82-.174-.244-.117-.454-.287-.626-.512-.174-.224-.307-.504-.4-.84-.094-.335-.14-.72-.14-1.156 0-.387.05-.747.155-1.08.104-.334.253-.623.448-.87.196-.244.433-.437.713-.577.28-.14.598-.21.954-.21.322 0 .596.055.824.164.228.107.432.26.612.457v-2.913h.923v7.636h-.55zm-1.79-.674c.302 0 .565-.07.79-.207.228-.14.436-.335.626-.587v-2.54c-.17-.228-.355-.388-.557-.48-.203-.09-.427-.137-.673-.137-.49 0-.867.174-1.13.523-.262.35-.394.846-.394 1.492 0 .343.03.635.088.88.06.243.147.443.26.6.115.158.255.273.42.345.166.073.357.11.57.11zm4.915-4.577v5.25h-.922v-5.25h.922zm.208-1.65c0 .09-.02.174-.055.252-.036.077-.084.146-.145.207-.06.06-.13.107-.21.14-.08.036-.164.053-.254.053s-.175-.017-.252-.052c-.078-.033-.147-.08-.208-.14-.06-.062-.108-.13-.142-.208-.035-.078-.052-.162-.052-.252s.017-.175.052-.257c.034-.08.082-.152.142-.212.06-.06.13-.107.208-.142.077-.034.16-.05.25-.05s.176.016.255.05c.08.035.15.082.21.143.06.06.11.132.145.213.036.082.055.167.055.257zm3.188 1.56c.23 0 .442.026.64.076.2.05.38.123.543.22h1.425v.342c0 .114-.072.187-.217.218l-.596.083c.118.223.177.474.177.75 0 .256-.05.49-.147.698-.1.21-.235.388-.41.536-.174.15-.38.263-.622.342-.24.08-.502.12-.79.12-.245 0-.476-.03-.694-.088-.11.07-.194.143-.25.222-.058.08-.087.158-.087.234 0 .124.05.218.15.282.1.064.233.11.4.138.165.027.353.045.564.05.21.008.426.02.645.035.22.015.434.04.645.08.21.038.4.1.565.186.165.087.3.206.4.358.1.152.15.35.15.59 0 .225-.057.443-.17.654-.112.21-.273.398-.484.562-.21.165-.468.296-.772.394-.305.1-.648.148-1.032.148s-.72-.038-1.008-.114c-.29-.076-.528-.178-.718-.306-.19-.128-.333-.275-.428-.443-.095-.17-.143-.344-.143-.527 0-.26.082-.48.247-.66.164-.183.39-.327.676-.434-.148-.07-.267-.163-.355-.278-.088-.116-.132-.27-.132-.464 0-.076.015-.155.042-.236.028-.08.07-.162.127-.24.056-.08.126-.157.21-.23.082-.072.18-.136.29-.19-.26-.146-.463-.34-.61-.58-.146-.24-.22-.52-.22-.842 0-.255.05-.488.148-.697.098-.21.236-.387.412-.534.176-.148.386-.26.63-.34.244-.08.51-.12.8-.12zm1.64 5.625c0-.13-.037-.237-.11-.316-.073-.08-.17-.142-.295-.185-.125-.043-.268-.075-.43-.096-.163-.022-.334-.036-.514-.045-.18-.01-.362-.018-.548-.03-.187-.01-.365-.028-.534-.056-.197.093-.357.207-.48.342-.123.134-.184.295-.184.482 0 .117.03.227.09.33.06.1.154.19.278.263.125.074.28.133.47.176.188.044.41.065.665.065.25 0 .472-.022.67-.067.196-.044.363-.108.5-.19.136-.084.24-.182.313-.296.073-.114.11-.24.11-.38zm-1.64-2.85c.187 0 .352-.027.496-.08.143-.05.263-.123.36-.217.097-.093.17-.204.218-.334.048-.13.072-.272.072-.428 0-.32-.097-.577-.292-.767-.196-.19-.48-.286-.853-.286-.37 0-.652.095-.847.285-.195.19-.293.445-.293.766 0 .156.025.298.075.428.05.13.124.24.22.334.098.094.217.166.358.218.142.052.305.078.488.078zm4.558-2.686v5.25h-.923v-5.25h.923zm.207-1.65c0 .09-.018.174-.055.252-.036.077-.084.146-.145.207-.06.06-.13.107-.21.14-.08.036-.164.053-.254.053s-.172-.017-.25-.052c-.078-.033-.147-.08-.207-.14-.06-.062-.108-.13-.143-.208-.035-.078-.052-.162-.052-.252s.017-.175.052-.257c.035-.08.082-.152.143-.212.06-.06.13-.107.207-.142.078-.034.16-.05.25-.05s.176.016.255.05c.08.035.15.082.21.143.06.06.11.132.145.213.037.082.055.167.055.257zm3.012 6.983c-.415 0-.734-.116-.957-.347-.223-.232-.334-.565-.334-1v-3.215h-.632c-.056 0-.102-.015-.14-.048-.038-.033-.057-.084-.057-.153v-.37l.86-.108.213-1.623c.007-.053.03-.095.067-.128.038-.033.086-.05.145-.05h.467v1.81h1.502v.67H175.1v3.15c0 .222.052.386.16.493.107.108.245.16.414.16.097 0 .18-.012.252-.038.07-.026.132-.054.184-.085.05-.03.096-.06.132-.086.036-.026.068-.04.096-.04.048 0 .09.03.13.09l.27.44c-.16.15-.352.265-.577.35-.223.085-.455.127-.693.127zm6.132-.083h-.41c-.09 0-.163-.014-.218-.04-.055-.03-.09-.088-.11-.178l-.102-.487c-.14.124-.273.236-.405.334-.13.098-.27.18-.414.248-.145.068-.3.12-.463.153-.165.036-.347.053-.547.053-.204 0-.395-.03-.573-.086-.178-.057-.333-.142-.464-.256-.13-.113-.236-.258-.314-.432-.078-.175-.117-.38-.117-.62 0-.207.057-.406.17-.598.115-.192.3-.362.553-.51.254-.15.586-.27.998-.366.41-.095.914-.15 1.508-.164v-.41c0-.407-.087-.715-.262-.925-.174-.21-.432-.313-.775-.313-.224 0-.413.028-.567.085-.154.057-.287.12-.4.192-.112.07-.208.134-.29.19-.08.058-.16.086-.24.086-.063 0-.117-.016-.164-.05-.047-.032-.084-.072-.11-.12l-.167-.296c.29-.28.603-.49.938-.627.335-.14.707-.208 1.115-.208.293 0 .554.05.782.145.228.097.42.232.576.405.155.173.273.382.352.627.08.245.12.515.12.81v3.358zm-2.396-.565c.163 0 .31-.016.446-.05.135-.032.262-.08.38-.14.12-.06.235-.133.343-.22.11-.086.216-.184.32-.295v-1.094c-.426.014-.787.048-1.084.1-.298.055-.54.125-.727.21-.187.088-.322.19-.407.307-.085.117-.127.25-.127.394 0 .138.022.257.066.358.045.1.106.182.182.246.076.065.166.112.27.14.103.03.215.045.336.045zm4.822-7.07v7.635h-.923v-7.636h.923zm-94.303 14.384v5.25H88.8v-5.25h.923zm.208-1.65c0 .09-.017.174-.054.252-.036.077-.084.146-.145.207-.06.06-.13.107-.21.14-.078.036-.163.053-.253.053s-.173-.017-.25-.052c-.08-.033-.148-.08-.21-.14-.06-.062-.107-.13-.14-.208-.036-.078-.053-.162-.053-.252s.017-.175.052-.257c.034-.08.082-.152.142-.212.06-.06.13-.107.208-.142.078-.034.16-.05.25-.05s.176.016.255.05c.08.035.15.082.21.143.062.06.11.132.146.213.037.082.055.167.055.257zm1.42 6.9v-5.25h.55c.132 0 .215.063.25.19l.072.57c.228-.252.483-.456.765-.61.28-.157.607-.234.977-.234.287 0 .54.047.76.142.22.095.402.23.55.405.146.174.257.384.333.63.076.245.114.516.114.813v3.344h-.92v-3.344c0-.397-.092-.706-.274-.925-.18-.218-.458-.328-.832-.328-.273 0-.528.065-.764.197-.237.13-.456.308-.656.533v3.867h-.923zm7.357.083c-.414 0-.733-.116-.956-.347-.222-.232-.334-.565-.334-1v-3.215h-.632c-.055 0-.102-.015-.14-.048-.038-.033-.057-.084-.057-.153v-.37l.86-.108.213-1.623c.007-.053.03-.095.068-.128.038-.033.086-.05.145-.05h.466v1.81h1.503v.67H98.34v3.15c0 .222.053.386.16.493.107.108.245.16.415.16.096 0 .18-.012.25-.038.072-.026.133-.054.185-.085.052-.03.096-.06.132-.086.037-.026.07-.04.096-.04.05 0 .092.03.13.09l.27.44c-.16.15-.35.265-.576.35-.225.085-.456.127-.695.127zm4.355-5.417c.314 0 .605.052.87.158.267.105.497.257.69.456.194.2.345.444.454.736.11.292.163.625.163.998 0 .145-.016.242-.048.29-.03.05-.09.073-.176.073h-3.494c.007.332.052.62.135.866.083.245.197.45.342.614.144.164.317.287.518.368.2.08.425.122.673.122.233 0 .433-.027.6-.08.168-.054.312-.112.433-.174.12-.062.222-.12.303-.174.082-.054.152-.08.21-.08.076 0 .135.028.177.087l.26.337c-.115.138-.252.258-.41.36-.16.102-.33.186-.51.252-.183.065-.37.114-.564.147-.194.033-.386.05-.576.05-.363 0-.698-.062-1.003-.184-.305-.124-.57-.304-.793-.54-.222-.237-.396-.53-.52-.88-.125-.348-.187-.75-.187-1.202 0-.366.056-.708.168-1.026.113-.318.274-.594.485-.827.21-.234.468-.417.772-.55.305-.133.647-.2 1.027-.2zm.02.68c-.445 0-.796.128-1.052.385-.255.258-.414.615-.477 1.07h2.857c0-.213-.03-.41-.088-.587-.06-.178-.146-.332-.26-.46-.114-.13-.253-.23-.417-.302-.164-.07-.352-.105-.562-.105zm4.36-2.982v7.636h-.922v-7.636h.922zm2.655 0v7.636h-.923v-7.636h.923zm2.654 2.385v5.25h-.922v-5.25h.923zm.208-1.65c0 .09-.018.174-.054.252-.037.077-.085.146-.145.207-.062.06-.132.107-.21.14-.08.036-.166.053-.255.053-.09 0-.174-.017-.252-.052-.078-.033-.147-.08-.207-.14-.06-.062-.108-.13-.143-.208-.034-.078-.052-.162-.052-.252s.02-.175.053-.257c.035-.08.082-.152.143-.212.06-.06.13-.107.207-.142.078-.034.162-.05.252-.05s.174.016.254.05c.078.035.148.082.21.143.06.06.107.132.144.213.036.082.054.167.054.257zm3.188 1.56c.228 0 .442.026.64.076.2.05.38.123.542.22h1.426v.342c0 .114-.073.187-.218.218l-.596.083c.117.223.176.474.176.75 0 .256-.05.49-.148.698-.098.21-.235.388-.41.536-.174.15-.38.263-.62.342-.24.08-.505.12-.792.12-.245 0-.477-.03-.694-.088-.11.07-.195.143-.252.222-.057.08-.085.158-.085.234 0 .124.05.218.15.282.1.064.233.11.4.138.165.027.353.045.564.05.21.008.425.02.645.035.22.015.434.04.645.08.21.038.4.1.565.186.166.087.3.206.4.358.1.152.15.35.15.59 0 .225-.057.443-.17.654-.11.21-.273.398-.484.562-.21.165-.467.296-.77.394-.305.1-.65.148-1.033.148-.383 0-.72-.038-1.008-.114-.29-.076-.53-.178-.72-.306-.19-.128-.332-.275-.427-.443-.095-.17-.142-.344-.142-.527 0-.26.083-.48.247-.66.164-.183.39-.327.677-.434-.15-.07-.267-.163-.355-.278-.09-.116-.134-.27-.134-.464 0-.076.014-.155.042-.236.027-.08.07-.162.127-.24.057-.08.127-.157.21-.23.083-.072.18-.136.29-.19-.26-.146-.462-.34-.61-.58-.146-.24-.22-.52-.22-.842 0-.255.05-.488.148-.697.1-.21.236-.387.412-.534.177-.148.387-.26.63-.34.244-.08.51-.12.8-.12zm1.638 5.625c0-.13-.036-.237-.108-.316-.073-.08-.172-.142-.296-.185-.124-.043-.268-.075-.43-.096-.163-.022-.334-.036-.513-.045-.18-.01-.363-.018-.55-.03-.187-.01-.365-.028-.534-.056-.197.093-.357.207-.48.342-.122.134-.183.295-.183.482 0 .117.03.227.09.33.06.1.153.19.278.263.124.074.28.133.47.176.187.044.41.065.665.065.25 0 .472-.022.67-.067.196-.044.362-.108.5-.19.135-.084.24-.182.313-.296.072-.114.108-.24.108-.38zm-1.638-2.85c.187 0 .352-.027.495-.08.145-.05.265-.123.362-.217.096-.093.17-.204.217-.334.048-.13.072-.272.072-.428 0-.32-.098-.577-.293-.767-.196-.19-.48-.286-.854-.286-.37 0-.652.095-.847.285-.197.19-.294.445-.294.766 0 .156.025.298.075.428.05.13.125.24.22.334.098.094.217.166.36.218.14.052.303.078.486.078zm5.61-2.77c.314 0 .604.053.87.16.266.104.496.256.69.455.193.2.344.444.453.736.108.292.163.625.163.998 0 .145-.016.242-.047.29-.03.05-.09.073-.176.073h-3.494c.007.332.052.62.135.866.083.245.197.45.343.614.145.164.318.287.518.368.2.08.426.122.675.122.232 0 .43-.027.6-.08.166-.054.31-.112.432-.174.12-.062.222-.12.303-.174.08-.054.15-.08.21-.08.076 0 .135.028.176.087l.26.337c-.115.138-.25.258-.41.36-.16.102-.33.186-.51.252-.182.065-.37.114-.563.147-.194.033-.386.05-.576.05-.363 0-.697-.062-1.003-.184-.306-.124-.57-.304-.793-.54-.222-.237-.396-.53-.52-.88-.124-.348-.187-.75-.187-1.202 0-.366.056-.708.17-1.026.11-.318.273-.594.484-.827.21-.234.468-.417.772-.55.303-.133.645-.2 1.025-.2zm.02.68c-.446 0-.797.13-1.052.386-.256.258-.415.615-.477 1.07h2.856c0-.213-.03-.41-.088-.587-.06-.178-.145-.332-.26-.46-.113-.13-.252-.23-.416-.302-.166-.07-.353-.105-.564-.105zm3.333 4.655v-5.25h.55c.13 0 .213.063.248.19l.072.57c.228-.252.483-.456.765-.61.282-.157.607-.234.977-.234.287 0 .54.047.76.142.22.095.402.23.55.405.146.174.257.384.333.63.077.245.115.516.115.813v3.344h-.923v-3.344c0-.397-.09-.706-.272-.925-.182-.218-.46-.328-.832-.328-.273 0-.528.065-.765.197-.237.13-.455.308-.656.533v3.867h-.923zm9.346-4.318c-.027.038-.055.067-.083.088-.027.02-.067.03-.12.03-.05 0-.107-.02-.167-.064-.06-.043-.138-.09-.23-.142-.094-.052-.208-.1-.34-.143-.134-.042-.297-.064-.49-.064-.256 0-.483.046-.68.138-.197.09-.362.223-.495.396-.132.173-.232.382-.3.627-.067.246-.1.52-.1.825 0 .318.036.6.108.847.073.246.175.454.306.62.13.17.29.297.48.385.188.088.4.132.635.132.223 0 .408-.027.553-.08.146-.054.267-.113.363-.18.097-.065.177-.124.24-.178.06-.054.123-.08.185-.08.08 0 .14.028.178.087l.26.337c-.23.28-.514.485-.857.614-.34.13-.702.195-1.082.195-.328 0-.633-.06-.915-.182-.282-.12-.526-.295-.733-.525-.208-.23-.37-.512-.49-.848-.12-.335-.18-.717-.18-1.145 0-.39.055-.752.164-1.084.11-.332.268-.618.477-.858.21-.24.468-.427.776-.562.308-.135.66-.202 1.058-.202.366 0 .69.06.974.18.284.118.534.286.752.504l-.244.332zm3.34-1.016c.313 0 .603.052.87.158.266.105.496.257.69.456.193.2.344.444.453.736.108.292.162.625.162.998 0 .145-.016.242-.047.29-.03.05-.09.073-.176.073h-3.495c.007.332.052.62.135.866.083.245.197.45.342.614.145.164.318.287.518.368.2.08.425.122.674.122.232 0 .43-.027.6-.08.167-.054.31-.112.432-.174.12-.062.222-.12.303-.174.08-.054.15-.08.21-.08.075 0 .134.028.175.087l.26.337c-.114.138-.25.258-.41.36-.16.102-.33.186-.51.252-.182.065-.37.114-.563.147-.194.033-.385.05-.575.05-.363 0-.698-.062-1.004-.184-.305-.124-.57-.304-.793-.54-.223-.237-.396-.53-.52-.88-.125-.348-.187-.75-.187-1.202 0-.366.056-.708.168-1.026.113-.318.275-.594.486-.827.21-.234.468-.417.772-.55.304-.133.647-.2 1.027-.2zm.02.68c-.446 0-.797.128-1.053.385-.256.258-.415.615-.477 1.07h2.857c0-.213-.03-.41-.09-.587-.057-.178-.144-.332-.258-.46-.114-.13-.253-.23-.417-.302-.164-.07-.352-.105-.563-.105zm3.032 4.084c0-.09.016-.175.05-.254.032-.08.077-.15.134-.208.057-.058.125-.105.205-.14.08-.034.164-.05.254-.05s.175.016.255.05c.08.035.148.082.207.14.06.06.105.128.138.208.032.08.05.164.05.254 0 .093-.018.18-.05.256-.033.078-.08.146-.138.205-.06.06-.128.106-.207.14-.08.03-.164.048-.254.048s-.174-.017-.253-.05c-.08-.032-.148-.078-.205-.137-.057-.058-.102-.126-.135-.204-.033-.077-.05-.163-.05-.256z" fill="#1D2630"/>
    <path fill="#DFDED6" d="M20 202h190v36H20z"/>
    <path d="M76.795 217.37c-.033.055-.068.097-.105.124-.036.028-.084.042-.142.042-.063 0-.135-.032-.218-.094-.082-.062-.187-.13-.313-.206-.127-.075-.28-.144-.457-.206-.178-.063-.393-.094-.646-.094-.238 0-.45.032-.633.096-.182.064-.335.15-.458.26-.123.112-.215.24-.278.39-.062.148-.093.308-.093.48 0 .22.055.403.163.548.108.145.25.268.43.37.177.104.38.193.604.268l.693.233c.237.082.468.173.693.274.226.1.427.228.605.382s.32.343.43.567c.107.223.16.498.16.825 0 .344-.057.668-.175.97-.117.303-.288.566-.514.79-.226.223-.503.4-.83.528-.33.128-.702.192-1.12.192-.51 0-.975-.093-1.395-.278-.42-.185-.778-.435-1.075-.75l.308-.507c.03-.04.065-.074.107-.1.042-.03.09-.043.14-.043.078 0 .165.042.264.124.1.083.222.173.37.273.15.1.33.19.54.272.21.08.468.123.772.123.254 0 .48-.035.677-.105.197-.07.365-.168.502-.294.138-.127.243-.278.316-.454.074-.176.11-.372.11-.59 0-.237-.054-.432-.162-.584-.108-.152-.25-.28-.426-.382-.176-.103-.377-.19-.602-.262-.226-.07-.457-.145-.693-.22-.237-.075-.468-.162-.693-.26-.226-.1-.426-.228-.603-.386s-.32-.355-.427-.59c-.108-.238-.162-.53-.162-.88 0-.277.055-.547.163-.807.108-.26.265-.492.47-.694.206-.202.46-.363.762-.484.303-.12.65-.18 1.042-.18.44 0 .842.068 1.205.208.363.14.68.34.95.605l-.257.505zm3.328 6.738c-.44 0-.78-.123-1.015-.37-.237-.244-.355-.598-.355-1.06v-3.41h-.67c-.06 0-.11-.017-.15-.052-.04-.035-.06-.09-.06-.162v-.39l.913-.116.226-1.722c.007-.055.03-.1.07-.135.04-.034.093-.05.155-.05h.495v1.92h1.595v.708h-1.595v3.344c0 .235.057.41.17.523.114.113.26.17.44.17.103 0 .192-.014.267-.04.074-.03.14-.06.195-.092.055-.033.1-.063.14-.09.038-.028.072-.042.102-.042.05 0 .097.032.137.095l.286.467c-.17.158-.372.28-.61.37-.24.09-.484.136-.737.136zm2.414-.088v-5.572h.56c.107 0 .18.02.22.06.04.04.07.11.084.21l.067.87c.19-.39.426-.693.706-.91.28-.22.61-.328.988-.328.155 0 .294.017.42.052.123.035.24.083.345.146l-.126.73c-.027.093-.084.14-.172.14-.05 0-.13-.02-.236-.054-.107-.035-.255-.052-.446-.052-.34 0-.626.1-.855.297-.228.197-.42.485-.574.862v3.548h-.98zm6.688-5.66c.407 0 .775.068 1.103.204.328.136.607.328.836.578.23.25.405.55.528.904s.184.75.184 1.186c0 .44-.06.835-.184 1.188-.123.352-.3.652-.528.9-.23.25-.508.442-.836.576-.328.134-.696.2-1.103.2-.407 0-.775-.066-1.103-.2-.328-.134-.607-.325-.838-.575-.232-.248-.41-.548-.534-.9-.125-.353-.187-.748-.187-1.188 0-.437.062-.832.187-1.186s.302-.655.534-.904c.23-.25.51-.442.838-.578.328-.136.696-.203 1.103-.203zm0 4.972c.55 0 .96-.184 1.232-.552.27-.37.407-.883.407-1.543 0-.664-.136-1.18-.407-1.55-.27-.37-.682-.556-1.232-.556-.28 0-.52.048-.726.144-.206.095-.378.232-.515.412-.138.18-.24.4-.308.663-.068.26-.102.557-.102.887 0 .33.034.625.102.886.068.26.17.48.308.657.137.178.31.314.514.41.204.095.446.143.725.143zm3.86.688v-5.572h.584c.138 0 .226.068.263.204l.077.605c.242-.268.512-.484.81-.65.3-.164.646-.246 1.038-.246.304 0 .573.05.806.152.233.1.427.244.583.43.156.184.274.407.355.667.08.26.12.547.12.862v3.548h-.978v-3.548c0-.42-.097-.748-.29-.98-.192-.234-.486-.35-.882-.35-.29 0-.56.07-.81.21-.252.138-.484.327-.697.565v4.103h-.98zm7.993-5.665c.242 0 .468.027.68.08.21.053.4.13.574.233h1.512v.363c0 .123-.077.2-.23.232l-.633.09c.125.237.188.503.188.796 0 .27-.053.518-.157.74-.104.222-.25.41-.434.57-.185.157-.405.278-.66.362-.255.084-.534.126-.838.126-.26 0-.506-.03-.737-.093-.117.073-.206.152-.266.236-.06.084-.09.166-.09.247 0 .132.052.232.16.3.105.068.246.116.422.145.176.03.376.048.6.055.223.008.45.02.684.036.233.017.46.045.685.085.224.04.423.107.6.198.176.092.317.22.423.38.106.16.16.37.16.627 0 .238-.06.47-.18.693-.118.224-.29.423-.513.597-.224.174-.497.313-.82.418-.323.105-.687.157-1.094.157-.407 0-.763-.04-1.07-.12-.305-.08-.56-.19-.76-.325-.203-.136-.354-.292-.455-.47-.1-.178-.15-.364-.15-.558 0-.276.086-.51.26-.702.174-.192.414-.345.718-.46-.158-.072-.283-.17-.377-.293-.093-.124-.14-.288-.14-.493 0-.08.015-.165.044-.25.03-.087.074-.172.135-.256.06-.084.134-.165.222-.242.09-.077.19-.144.308-.203-.275-.154-.49-.358-.646-.613-.157-.255-.234-.553-.234-.894 0-.27.052-.518.156-.74.105-.222.25-.41.438-.566.187-.156.41-.276.668-.36.258-.085.54-.127.85-.127zm1.737 5.968c0-.14-.038-.252-.115-.336-.077-.084-.18-.15-.314-.195-.132-.046-.284-.08-.456-.102-.172-.022-.354-.038-.545-.047l-.583-.03c-.198-.01-.386-.03-.566-.06-.21.1-.38.22-.51.363s-.194.313-.194.51c0 .126.032.242.096.35.064.108.162.202.294.28.133.08.298.142.498.188.2.046.436.07.707.07.264 0 .5-.025.71-.073.21-.047.385-.115.53-.203.145-.088.256-.192.333-.313.077-.12.115-.255.115-.4zm-1.737-3.025c.198 0 .373-.028.525-.083.152-.055.28-.132.382-.23.103-.1.18-.218.23-.356.052-.138.078-.29.078-.454 0-.342-.104-.613-.31-.814-.208-.202-.51-.303-.906-.303-.392 0-.692.1-.9.302-.206.2-.31.472-.31.814 0 .165.027.316.08.453.053.137.13.255.234.354.104.1.23.176.38.23.15.056.323.084.517.084zm5.95-2.938c.334 0 .642.056.924.168.283.112.527.273.732.484.205.21.366.47.48.78.117.31.174.664.174 1.06 0 .154-.016.257-.05.308-.032.05-.094.077-.186.077h-3.707c.007.352.055.658.143.918s.21.478.363.652c.155.174.338.305.55.39.214.087.452.13.716.13.246 0 .457-.028.635-.085.18-.057.332-.118.46-.184.13-.066.236-.128.322-.185.086-.057.16-.085.223-.085.08 0 .143.03.187.093l.275.36c-.12.146-.266.273-.434.38-.17.11-.35.198-.542.268-.192.07-.39.122-.596.157-.205.035-.41.052-.61.052-.386 0-.74-.065-1.065-.195-.325-.13-.606-.32-.842-.572-.237-.25-.42-.562-.553-.933-.132-.37-.198-.795-.198-1.275 0-.39.06-.752.18-1.09.118-.337.29-.63.513-.877.224-.247.497-.442.82-.583.322-.14.685-.212 1.088-.212zm.022.72c-.473 0-.845.138-1.116.41-.27.274-.44.652-.506 1.136h3.03c0-.227-.03-.435-.093-.624-.062-.19-.154-.352-.275-.49-.12-.137-.27-.243-.443-.318-.174-.075-.373-.113-.597-.113zm3.537 4.94v-5.572h.56c.107 0 .18.02.22.06.04.04.07.11.084.21l.066.87c.19-.39.427-.693.707-.91.28-.22.61-.328.987-.328.155 0 .294.017.42.052.123.035.24.083.345.146l-.126.73c-.027.093-.084.14-.172.14-.05 0-.13-.02-.236-.054-.107-.035-.255-.052-.446-.052-.34 0-.626.1-.855.297-.228.197-.42.485-.574.862v3.548h-.98zm6.528-6.353c-.172-.143-.258-.368-.258-.676 0-.314.086-.543.258-.686.173-.144.45-.215.83-.215.382 0 .66.07.832.214.172.143.258.372.258.687 0 .31-.086.534-.258.677-.173.144-.45.215-.83.215-.382 0-.66-.07-.832-.215zm1.766 6.353h-1.87v-5.5h1.87v5.5zm6.326-5.104c.345.337.517.818.517 1.44v3.664h-1.87v-3.146c0-.374-.068-.64-.203-.797-.136-.158-.33-.237-.578-.237-.293 0-.532.104-.715.314-.183.21-.275.53-.275.962v2.904h-1.87v-5.5h1.672l.055 1.056c.175-.39.424-.68.747-.874.323-.195.7-.292 1.133-.292.58 0 1.04.17 1.386.506zm1.42 4.246l.967-1.056c.315.52.858.78 1.628.78.258 0 .46-.034.606-.103.147-.07.22-.164.22-.28 0-.104-.075-.193-.226-.27-.15-.078-.408-.153-.775-.226-.82-.16-1.406-.38-1.755-.66-.348-.28-.522-.65-.522-1.11 0-.316.1-.613.297-.892.198-.28.497-.504.896-.677.4-.172.887-.258 1.46-.258.63 0 1.145.086 1.544.258.4.173.725.43.974.776l-.968.946c-.176-.257-.385-.444-.627-.56-.242-.118-.532-.177-.87-.177-.263 0-.468.04-.615.12-.147.082-.22.18-.22.298 0 .11.075.204.225.28.15.08.413.154.787.227.807.14 1.388.346 1.743.62.356.277.534.652.534 1.13 0 .534-.224.97-.67 1.303-.448.333-1.097.5-1.948.5-1.262 0-2.157-.323-2.685-.968zm6.373-5.495c-.173-.143-.26-.368-.26-.676 0-.314.087-.543.26-.686.172-.144.45-.215.83-.215.38 0 .658.07.83.214.173.143.26.372.26.687 0 .31-.087.534-.26.677-.172.144-.45.215-.83.215-.38 0-.658-.07-.83-.215zm1.765 6.353h-1.87v-5.5h1.87v5.5zm6.298-.803c.348.28.522.69.522 1.232 0 .622-.277 1.1-.83 1.435-.554.333-1.308.5-2.26.5-.962 0-1.67-.114-2.13-.34-.458-.228-.687-.547-.687-.958 0-.242.084-.455.253-.638.17-.184.426-.316.77-.397-.564-.242-.846-.623-.846-1.144 0-.258.08-.485.242-.683.16-.198.38-.345.66-.44-.6-.323-.902-.825-.902-1.507 0-.594.235-1.054.704-1.38.47-.327 1.13-.49 1.98-.49.396 0 .763.04 1.1.12.073-.44.238-.798.495-1.077.257-.28.612-.418 1.067-.418l.176.01.21 1.244c-.148-.016-.25-.023-.31-.023-.248 0-.455.044-.62.132-.166.087-.285.208-.358.362.616.323.924.83.924 1.518 0 .594-.235 1.052-.704 1.375-.47.323-1.13.484-1.98.484-.396 0-.748-.034-1.056-.1-.227.06-.34.187-.34.385 0 .25.19.374.57.374h1.87c.64 0 1.132.138 1.48.417zm-3.113-3.52c-.15.147-.226.34-.226.583 0 .242.075.434.225.577.15.144.346.215.588.215s.438-.07.588-.215c.15-.143.226-.335.226-.577 0-.242-.075-.436-.225-.583-.15-.147-.347-.22-.59-.22-.24 0-.437.073-.587.22zm1.782 5.33c.253-.1.38-.23.38-.39 0-.118-.052-.206-.155-.265-.103-.06-.275-.088-.517-.088h-1.507c-.3 0-.515.03-.644.094-.13.062-.193.16-.193.29 0 .338.51.507 1.53.507.483 0 .85-.05 1.104-.15zm7.584-6.11c.345.336.517.817.517 1.44v3.663h-1.87v-3.146c0-.697-.26-1.045-.78-1.045-.294 0-.533.105-.716.318-.183.213-.275.54-.275.98v2.892h-1.87v-7.832h1.87v3.333c.16-.366.39-.642.687-.83.297-.187.647-.28 1.05-.28.58 0 1.04.17 1.386.506zm5.82 4.795c-.184.125-.417.226-.7.303-.282.077-.566.115-.852.115-.653 0-1.15-.14-1.496-.418-.345-.28-.52-.726-.528-1.342v-2.52h-.946v-1.33h.946v-1.232l1.87-.517v1.75h1.65v1.33h-1.65v2.212c0 .49.242.737.726.737.3 0 .565-.082.792-.243l.187 1.155zm.384-.55l.968-1.056c.315.52.858.78 1.628.78.257 0 .458-.034.605-.103.148-.07.22-.164.22-.28 0-.104-.074-.193-.225-.27-.15-.078-.408-.153-.775-.226-.82-.16-1.406-.38-1.755-.66-.348-.28-.522-.65-.522-1.11 0-.316.1-.613.297-.892.198-.28.497-.504.896-.677.4-.172.886-.258 1.458-.258.63 0 1.146.086 1.545.258.4.173.724.43.973.776l-.968.946c-.176-.257-.385-.444-.627-.56-.242-.118-.532-.177-.87-.177-.263 0-.468.04-.615.12-.147.082-.22.18-.22.298 0 .11.075.204.225.28.15.08.413.154.787.227.807.14 1.388.346 1.743.62.356.277.534.652.534 1.13 0 .534-.224.97-.67 1.303-.448.333-1.097.5-1.948.5-1.26 0-2.156-.323-2.684-.968z" fill="#1D2630"/>
  </g>
</svg>
