<svg width="511" height="220" viewBox="0 0 511 220" xmlns="http://www.w3.org/2000/svg">
  <g fill="none" fill-rule="evenodd">
    <path d="M510.01 60l.99 48.31h-5.442c-.922-5.072-1.73-9.154-2.422-12.25-.693-3.097-1.533-6.356-2.522-9.78-.99-3.426-2.013-6.092-3.067-8.003-1.054-1.91-2.34-3.82-3.857-5.73-1.517-1.91-3.25-3.31-5.193-4.2-1.944-.888-4.203-1.61-6.776-2.172-2.57-.56-5.538-.84-8.9-.84-.265 0-.808.017-1.633.05s-1.566.048-2.225.048l-.294 131.01 15.332.987V202h-55.788v-4.57l14.542-.987.294-130.91c-.66 0-1.403-.016-2.226-.05C439.996 65.453 402 60 402 60h108.01z" fill="#A8569C"/>
    <path d="M379.448 148v47.513c8.417.664 22.468.997 30.754.997 3.88 0 7.302-.315 10.26-.948 2.96-.63 5.525-1.68 7.696-3.144 2.17-1.462 4.01-3.11 5.524-4.94 1.512-1.83 2.843-4.177 3.996-7.038 1.148-2.86 2.086-5.722 2.81-8.585.724-2.858 1.48-6.388 2.27-10.58H447L445.915 202H339v-4.593l15.193-.995v-41.13M401 125.293c1.95.196-.534.296 4.606.296 6.83 0 11.71-1.695 14.638-5.084 2.927-3.387 4.39-9.557 4.39-18.506H430v53h-5.365c0-8.948-1.482-15.183-4.44-18.703-2.962-3.52-7.823-5.28-14.59-5.28-5.008 0-2.526.1-4.605.296v-6.02zM339 64.522V60h107.012l.988 40h-4.148c-.79-4.454-1.63-8.237-2.52-11.35-.887-3.11-2.156-6.24-3.802-9.386-1.646-3.145-3.572-5.652-5.777-7.518-2.207-1.87-5.038-3.392-8.495-4.57-3.457-1.18-7.455-1.77-12-1.77-5.597 0-21.26 1.037-30.76 0L339 64.522z" fill="#703968"/>
    <path d="M291 220v-5.16l21.59-1.117V66.277l-17.293-1.12V60h60.97c8.233 0 15.85.88 22.85 2.635 6.998 1.758 13.303 4.412 18.918 7.96 5.615 3.55 10.01 8.298 13.192 14.242 3.182 5.94 4.773 12.8 4.773 20.573 0 7.175-1.218 13.643-3.65 19.398-2.432 5.757-5.708 10.578-9.824 14.463-4.12 3.89-9.077 7.122-14.877 9.7-5.804 2.578-11.942 4.447-18.415 5.605-6.475 1.162-13.344 1.74-20.604 1.74-1.572 0-4.004-.075-7.297-.224v57.633l17.29 1.118V220H291zm50.333-70.188c2.62.223 5.277.335 7.97.335 24.553 0 36.83-14.97 36.83-44.91 0-7.26-.825-13.453-2.47-18.58-1.646-5.128-4.024-9.096-7.13-11.9-3.106-2.808-6.55-4.83-10.33-6.063-3.78-1.235-8.104-1.855-12.97-1.855-3.667 0-7.633.3-11.9.897v82.075z" fill="#A8569C"/>
    <path d="M265.345 147.34c0 12.46.844 23.7 2.533 33.72 1.688 10.024 4.297 18.15 7.827 24.378 3.53 6.23 7.74 9.344 12.633 9.344 7.274 0 12.98-6.165 17.115-18.498 4.134-12.33 6.202-28.708 6.202-49.134 0-21.247-2.024-37.215-6.073-47.903-4.05-10.684-9.666-16.03-16.854-16.03-2.512 0-4.905.76-7.177 2.277-2.272 1.518-4.406 3.952-6.397 7.304-1.993 3.353-3.702 7.48-5.13 12.378-1.43 4.902-2.567 10.957-3.41 18.165-.846 7.21-1.268 15.21-1.268 24M236 149.425c0-13.026 2.074-24.915 6.222-35.664 4.147-10.75 10.243-19.398 18.284-25.945C268.55 81.272 277.81 78 288.29 78c15.806 0 28.542 6.293 38.208 18.876 9.667 12.586 14.502 29.09 14.502 49.516 0 7.462-.66 14.702-1.975 21.722-1.318 7.018-3.377 13.676-6.18 19.967-2.8 6.294-6.208 11.795-10.213 16.505-4.008 4.712-8.926 8.46-14.754 11.24-5.83 2.782-12.19 4.175-19.084 4.175-16.422 0-29.325-6.45-38.712-19.35C240.694 187.747 236 170.674 236 149.425" fill="#703968"/>
    <path d="M170.77 60h41.83c8.276 0 15.75.712 22.42 2.13 6.67 1.422 12.637 3.664 17.89 6.728 5.257 3.066 9.32 7.195 12.19 12.39 2.87 5.196 4.306 11.344 4.306 18.445 0 12.78-4.29 22.743-12.86 29.88-5.054 4.21-11.16 7.542-18.313 9.995-4.98 1.71-16.463 4.076-16.463 4.076 6.263.076 11.686 1.084 16.27 3.027 4.584 1.945 8.236 4.43 10.96 7.457 2.72 3.028 5.31 6.935 7.77 11.716 1.638 3.292 3.97 8.317 6.99 15.08 3.018 6.767 8.558 21.786 14.79 28.855 2.31 2.618 5.624 6.8 14.45 3.91L290.995 220H274.44c-5.668 0-10.142-.354-13.42-1.065-3.28-.71-6.542-2.412-9.784-5.103-3.245-2.69-6.133-6.408-8.668-11.156-2.535-4.746-6.858-14.67-12.97-29.77-.895-2.24-2.182-5.137-3.857-8.687-1.677-3.55-3.13-6.242-4.36-8.073-1.232-1.833-2.685-3.758-4.363-5.775-1.678-2.02-3.393-3.456-5.143-4.318-1.752-.856-3.598-1.29-5.536-1.29-3.28 0-5.777.04-7.49.113l-.068 50.72 17.22 1.12V202h-63.067v-6.97l17.22.87.068-52.476 28.45-4.942c.82.076 2.525.116 4.762.116 13.268 0 22.604-3.237 28.01-9.713 5.405-6.475 8.108-16.152 8.108-29.03 0-6.436-.767-11.902-2.293-16.395-1.53-4.492-3.71-7.972-6.54-10.443-2.835-2.47-5.966-4.23-9.394-5.277-3.43-1.047-7.344-1.572-11.74-1.572-2.91 0-6.487.3-10.736.9L170.77 60z" fill="#A8569C"/>
    <path d="M156 60h13.4c7.387 0 14.222.786 20.503 2.353 6.28 1.57 11.94 3.94 16.977 7.108 5.037 3.172 8.982 7.41 11.837 12.717 2.855 5.305 4.283 11.43 4.283 18.37 0 6.408-1.093 12.183-3.275 17.32-2.183 5.14-5.122 9.446-8.815 12.915-3.695 3.47-8.146 6.358-13.35 8.66-5.206 2.303-10.715 3.972-16.523 5.006-5.81 1.036-11.973 1.552-18.49 1.552-1.41 0-3.593-.066-6.547-.2v-5.605c2.35.2 4.735.3 7.152.3 22.032 0 33.047-13.368 33.047-40.102 0-6.483-.74-12.014-2.217-16.59-1.478-4.58-3.613-8.122-6.397-10.628-2.79-2.505-5.88-4.31-9.27-5.41-3.393-1.106-7.272-1.658-11.637-1.658-3.293 0-6.853.268-10.68.802V60z" fill="#703968"/>
    <path d="M72.164 140.566l50.775-1.245-.23-77.944-.508.003-50.038 79.186zM14.027 201L14 195.16l15.36-1.338L146.675 14.044l9.89-.044v180.886l17.408 1.05V202H106l.05-6.256 17.132-1.34-.204-46.204H67.826l-31.23 45.593 17.146 1.187.025 5.84-39.74.18zM5.546 176.455c-.874-.57-1.68-1.245-2.414-2.026-.736-.778-1.365-1.67-1.893-2.672-.53-1.003-.894-2.043-1.102-3.12-.207-1.077-.18-2.226.076-3.45.254-1.224.763-2.406 1.523-3.548 1.137-1.704 2.538-2.818 4.21-3.338 1.67-.522 3.14-.367 4.418.467.638.414 1.04.974 1.205 1.68.166.708.008 1.423-.475 2.147-.45.674-1.025 1.09-1.722 1.25-.703.16-1.365.035-1.993-.373-.59-.386-.965-.915-1.124-1.593-.16-.674-.032-1.326.386-1.95.057-.086.17-.233.342-.437l-.09-.058c-.334-.007-.67.022-1.014.09-.34.068-.793.27-1.358.607-.562.337-1.044.805-1.443 1.407-.72 1.078-.925 2.222-.61 3.43.314 1.208.994 2.355 2.04 3.443 1.048 1.088 2.415 2.183 4.104 3.283 5.448 3.554 9.18 3.823 11.19.804.262-.392.472-.778.63-1.16.16-.38.3-.86.417-1.443.12-.584.105-1.25-.042-1.995-.147-.748-.424-1.552-.833-2.417l.887-.453c1.63 3.227 1.51 6.247-.364 9.056-3.752 5.63-8.736 6.42-14.952 2.367M19.432 154.63c1.3.878 2.51 1.596 3.62 2.15 1.118.553 2.16.952 3.14 1.196.977.245 1.836.262 2.574.056.738-.208 1.322-.647 1.754-1.317 1.633-2.538-.37-5.713-6.004-9.523-1.42-.958-2.676-1.724-3.77-2.29-1.098-.57-2.126-.975-3.088-1.22-.962-.242-1.797-.238-2.502.01-.706.248-1.29.733-1.752 1.452-.432.67-.595 1.394-.49 2.17.108.78.453 1.575 1.04 2.387.585.815 1.33 1.63 2.237 2.44.91.813 1.988 1.643 3.242 2.49m-2.91 4.994c-1.772-1.2-3.142-2.655-4.11-4.37-.97-1.715-1.44-3.518-1.41-5.412.03-1.893.584-3.68 1.664-5.36.893-1.39 1.967-2.463 3.22-3.22 1.255-.757 2.543-1.17 3.87-1.244 1.325-.074 2.655.08 3.983.463 1.33.384 2.59.98 3.79 1.79 1.725 1.166 3.07 2.582 4.035 4.25.966 1.667 1.445 3.447 1.435 5.333-.01 1.89-.55 3.666-1.62 5.334-.952 1.478-2.034 2.62-3.247 3.42-1.216.802-2.473 1.256-3.78 1.36-1.305.106-2.613-.04-3.925-.438-1.31-.397-2.614-1.034-3.905-1.906M22.734 134.626L22 134.15l2.193-4.123 1.083-3.04.69.078 2.417 1.568.05-.074c-1.093-2.817-.947-5.262.44-7.335.287-.433.612-.82.974-1.17.36-.35.803-.678 1.324-.984.523-.307 1.145-.493 1.862-.557.72-.064 1.484.016 2.29.24l.026-.037c-1.125-3.1-.953-5.753.515-7.948.29-.433.61-.826.958-1.182.35-.356.816-.688 1.396-.993.58-.305 1.194-.493 1.842-.568.648-.075 1.43.02 2.343.275.917.26 1.874.71 2.875 1.363l11.54 7.5 1.45-1.79.735.477-5.58 8.346-.734-.477 1.082-2.004-12.164-7.906c-.702-.456-1.352-.787-1.943-.986-.593-.2-1.07-.298-1.434-.295-.36.005-.692.084-.996.243-.302.156-.514.3-.636.433-.124.133-.248.29-.37.477-.554.827-.65 1.918-.292 3.276.358 1.356 1.307 2.535 2.845 3.535l11.02 7.162 1.453-1.79.734.476-5.582 8.348-.732-.476 1.082-2.005-12.164-7.905c-.703-.458-1.35-.79-1.938-.997-.59-.206-1.068-.305-1.43-.302-.36.002-.688.08-.988.234-.297.15-.51.292-.63.423-.122.133-.247.29-.37.476-.53.79-.53 1.894-.008 3.313.52 1.42 1.528 2.613 3.02 3.584l10.66 6.93 1.453-1.79.734.476L39.51 145l-.734-.477 1.096-2.023-15.615-10.15-1.523 2.276zM62.112 106.18c1.057-.31 1.854-.87 2.39-1.685.387-.59.622-1.193.702-1.803.082-.61.058-1.173-.07-1.693-.13-.52-.387-1.066-.776-1.642-.385-.575-.78-1.074-1.18-1.498-.402-.426-.91-.885-1.525-1.382-.614-.495-1.134-.892-1.56-1.192-.423-.3-.935-.647-1.533-1.042-1.894-1.255-3.507-2.117-4.835-2.59-1.326-.47-2.35-.617-3.062-.435-.715.18-1.3.616-1.754 1.307-.63.963-.684 2.09-.157 3.386.526 1.296 1.386 2.338 2.58 3.13l10.78 7.136zm-19.392-3.072l-.72-.477 2.153-4.12 1.062-3.042.68.08 2.282 1.51.05-.072c-.676-1.457-.968-2.713-.88-3.77.09-1.055.49-2.126 1.203-3.212.186-.283.412-.564.683-.846.27-.28.628-.58 1.078-.894.45-.314.938-.578 1.467-.795.527-.218 1.16-.36 1.893-.43.736-.073 1.503-.045 2.302.076.803.123 1.718.4 2.75.824 1.027.424 2.094 1.002 3.193 1.73 1.323.875 2.436 1.86 3.34 2.953.9 1.096 1.572 2.265 2.012 3.51.44 1.25.558 2.582.35 4-.21 1.42-.773 2.824-1.69 4.22-.8 1.22-1.762 2.033-2.885 2.442l7.812 5.172 1.426-1.79.72.477L67.524 119l-.72-.477 1.074-2.023-23.665-15.67-1.493 2.278zM71.88 85.46c.94.61 1.827.92 2.657.933.83.014 1.48-.333 1.954-1.038.557-.828.56-1.902.012-3.227-.55-1.322-1.547-2.452-2.996-3.39l-2.442-1.578c-.385.45-.68.825-.884 1.13-.425.63-.722 1.248-.886 1.846-.168.6-.208 1.138-.12 1.612.086.475.22.91.403 1.306.18.397.43.76.75 1.09.322.328.595.587.82.78.228.19.47.368.732.536m-2.603 4.65c-.58-.373-1.075-.83-1.486-1.365-.41-.537-.72-1.177-.93-1.923-.21-.748-.29-1.55-.24-2.407.05-.856.277-1.814.675-2.876.398-1.06.972-2.148 1.725-3.268.4-.594.805-1.145 1.21-1.65l-2.45-1.585c-.783-.505-1.427-.9-1.933-1.182-.505-.284-1.057-.53-1.654-.743-.595-.21-1.11-.293-1.54-.25-.43.045-.872.213-1.33.502-.456.288-.88.725-1.274 1.308-1.194 1.776-1.384 3.512-.568 5.207l.07.045c.104-.23.212-.43.328-.6.425-.633.948-1.008 1.573-1.127.626-.12 1.293.05 2.004.508.616.398.987.953 1.114 1.663.126.71-.03 1.39-.473 2.048-.482.72-1.1 1.13-1.85 1.237-.75.11-1.445-.043-2.082-.456-1.393-.903-2.115-2.315-2.162-4.238-.047-1.922.506-3.742 1.66-5.457.817-1.216 1.637-2.173 2.463-2.868.824-.698 1.612-1.17 2.363-1.416.75-.248 1.574-.285 2.468-.118.896.17 1.74.444 2.533.827.797.38 1.724.917 2.786 1.603l9.556 6.178 1.44-1.764.728.47-3.9 5.803-3.143-1.302-.025.035c.723 1.323 1.074 2.584 1.054 3.784-.018 1.2-.433 2.403-1.243 3.607-.997 1.484-2.193 2.34-3.585 2.575-1.395.232-2.687-.038-3.88-.81M69 63.184l2.166-4.11 1.07-3.032.734.006 2.34 1.636.048-.072c-1.08-2.808-.85-5.375.69-7.7.294-.442.61-.844.95-1.202.338-.36.798-.704 1.37-1.035.573-.33 1.18-.542 1.816-.636.637-.094 1.41-.022 2.313.22.907.24 1.854.686 2.843 1.335l11.51 7.546 1.425-1.767.725.475-5.503 8.305-.725-.475 1.07-2-12.02-7.88c-2.51-1.648-4.326-1.628-5.444.057-.733 1.106-.85 2.332-.353 3.672.498 1.34 1.53 2.525 3.098 3.555l10.535 6.906 1.437-1.784.725.475L86.304 74l-.725-.474 1.083-2.017-15.468-10.142-1.445 2.255-.75-.44zM106.43 57.5c-.706-.462-1.153-1.07-1.337-1.826-.185-.754-.053-1.468.395-2.14.48-.72 1.06-1.127 1.734-1.214.676-.085 1.333.08 1.968.494.238.156.474.42.707.796.23.376.348.742.35 1.1l.072.048c.278-.443.404-.95.38-1.52-.024-.57-.197-1.184-.517-1.84-.32-.655-.607-1.18-.856-1.576-.253-.397-.577-.878-.976-1.44l-2.173-2.625-23.012-3.632-1.427 1.72-.738-.48 5.883-8.837.737.48-1.147 2.147 14.956 2.796-9.285-11.313-1.565 1.925-.738-.482L93.225 25l.738.48-1.098 2.072 16.08 19.394c.932 1.233 1.652 2.347 2.158 3.34.51.993.797 1.846.864 2.56.066.713.033 1.312-.1 1.796-.135.484-.363.97-.687 1.455-.622.934-1.376 1.527-2.264 1.777-.89.25-1.718.127-2.486-.375M94.93 24.633l-.724-.476 2.165-4.12 1.07-3.04.73.006 16.672 10.968 1.433-1.788.725.476L111.49 35l-.724-.476 1.082-2.022L96.433 22.36l-1.503 2.273zm-6.703-7.3c-.328-.22-.592-.484-.788-.8-.2-.315-.33-.654-.396-1.014-.064-.363-.058-.73.02-1.103.078-.374.226-.728.444-1.06.222-.334.49-.606.81-.822.318-.215.66-.366 1.022-.455.363-.086.727-.103 1.096-.048.368.057.71.19 1.03.4.317.208.574.472.77.785.198.316.333.655.405 1.023.07.364.07.734 0 1.113-.074.375-.224.738-.452 1.083-.227.346-.5.624-.82.84-.32.214-.66.36-1.018.445-.357.084-.718.094-1.08.03-.366-.06-.712-.2-1.043-.418zM117.88 16.46c.94.61 1.827.92 2.657.933.83.014 1.48-.333 1.954-1.038.557-.828.56-1.902.012-3.227-.55-1.32-1.547-2.45-2.996-3.39l-2.442-1.578c-.385.45-.68.826-.884 1.13-.425.63-.722 1.248-.886 1.847-.168.598-.208 1.135-.12 1.61.086.476.22.91.403 1.307.18.397.43.76.75 1.09.322.328.595.587.82.777.228.193.47.372.732.54m-2.603 4.65c-.58-.373-1.075-.83-1.486-1.365-.41-.537-.72-1.177-.93-1.924-.21-.746-.29-1.548-.24-2.405.05-.856.277-1.814.675-2.875.398-1.06.972-2.147 1.725-3.268.4-.594.805-1.145 1.21-1.65l-2.45-1.585c-.783-.505-1.427-.9-1.933-1.18-.505-.285-1.057-.533-1.654-.746-.595-.208-1.11-.292-1.54-.248-.43.045-.872.213-1.33.503-.456.288-.88.724-1.274 1.307-1.194 1.777-1.384 3.512-.568 5.207l.07.046c.104-.23.212-.43.328-.602.425-.632.948-1.007 1.573-1.126.626-.12 1.293.05 2.004.508.616.4.987.954 1.114 1.663.126.708-.03 1.39-.473 2.048-.482.717-1.1 1.13-1.85 1.238-.75.11-1.445-.044-2.082-.456-1.393-.902-2.115-2.315-2.162-4.238-.047-1.922.506-3.74 1.66-5.456.817-1.217 1.637-2.174 2.463-2.87.824-.697 1.612-1.17 2.363-1.414.75-.25 1.574-.288 2.468-.12.896.17 1.74.444 2.533.828.797.38 1.724.917 2.786 1.604l9.556 6.178 1.44-1.766.728.47-3.9 5.802-3.143-1.3-.025.036c.723 1.32 1.074 2.583 1.054 3.783-.018 1.2-.433 2.403-1.243 3.607-.997 1.484-2.193 2.34-3.585 2.575-1.395.232-2.687-.038-3.88-.81" fill="#A8569C"/>
  </g>
</svg>
