<svg width="116" height="55" viewBox="0 0 116 55" xmlns="http://www.w3.org/2000/svg">
  <g fill="#121E3F" fill-rule="evenodd">
    <path d="M75.09 25.544H63.865l-2.578 8.668H57L67.698 1h3.58L82 34.212h-4.288l-2.623-8.668zM64.96 21.94h9.056l-4.54-15.1-4.515 15.1zM32.584 52.547L27 36.025H11.856l-5.89 16.522h5.737V54H0v-1.453h3.595L23.1 0h6.27l19.276 52.547h3.518V54h-25.01v-1.453h5.43zm-12.85-38.244l-7.19 20.04h13.844l-6.654-20.04zM103.258 14c1.012 0 1.86.445 2.55 1.335.686.89 1.576 2.73 2.668 5.52 2.55 6.594 5.036 16.93 7.463 31.006.04.162.06.395.06.698 0 .304-.192.627-.576.97-.385.345-.93.517-1.64.517-.706 0-1.303-.172-1.788-.516-.486-.345-.81-.91-.97-1.7-.163-.788-.466-2.336-.91-4.64-.972-5.138-1.62-7.808-1.943-8.01-.485-.283-2.093-.587-4.824-.91-2.73-.324-4.54-.486-5.43-.486-.89 0-1.417.08-1.578.243-.73.647-1.72 5.562-2.973 14.744-.163.77-.932 1.154-2.307 1.154S89 53.337 89 52.164c0-2.912 1.072-8.474 3.216-16.685 2.144-8.213 3.923-13.653 5.34-16.323 1.78-3.438 3.68-5.157 5.702-5.157zm-.242 6.735c-.607 0-1.66 1.79-3.155 5.37-1.496 3.58-2.244 5.794-2.244 6.643 0 .203.04.344.12.425.325.324 1.6.607 3.824.85 2.224.242 3.7.364 4.43.364.727 0 1.13-.05 1.212-.152.08-.1.122-.425.122-.97 0-.547-.546-2.772-1.64-6.675-1.09-3.904-1.98-5.855-2.668-5.855z"/>
  </g>
</svg>
