<svg width="360" height="222" viewBox="0 0 360 222" xmlns="http://www.w3.org/2000/svg">
  <title>
    Path
  </title>
  <g fill="none" fill-rule="evenodd">
    <path d="M0 0h360v222H0z"/>
    <path d="M68.457 163.444v3.436h1.61c.302 0 .588-.036.856-.11.27-.07.503-.178.705-.317.2-.14.358-.32.47-.537.11-.217.168-.472.168-.762 0-.324-.067-.596-.202-.813-.134-.217-.313-.393-.537-.528-.224-.133-.478-.228-.763-.284-.286-.056-.58-.084-.88-.084h-1.427zm0-5.062v3.32H70c.57 0 .993-.17 1.267-.504.274-.335.41-.738.41-1.207 0-.546-.167-.952-.502-1.214-.336-.263-.79-.394-1.36-.394h-1.358zm-2.048 10.36v-12.22h3.34c.603 0 1.15.058 1.643.175.492.117.912.302 1.26.553.345.252.61.58.795.99.185.407.277.896.277 1.466 0 .313-.03.617-.092.913-.062.296-.162.57-.302.82-.14.252-.32.473-.544.663-.224.19-.504.335-.84.436.28.055.563.15.848.284.285.134.54.315.764.544.223.23.405.515.545.855.14.342.21.74.21 1.2 0 .59-.115 1.097-.345 1.516-.23.418-.53.762-.906 1.03-.374.268-.808.464-1.3.587-.492.123-1 .184-1.527.184H66.41zM82.316 163.796h2.786l-1.208-2.917c-.012-.012-.04-.087-.084-.227-.045-.14-.078-.265-.1-.377-.023.112-.057.237-.1.377-.046.14-.068.215-.068.226l-1.226 2.916zm4.85 4.945c-.034-.077-.092-.217-.176-.418l-.31-.738c-.124-.29-.258-.612-.403-.964-.146-.352-.297-.717-.453-1.098h-4.212l-1.342 3.22h-2.03l.318-.747c.168-.397.377-.89.63-1.475l.838-1.96c.308-.722.623-1.457.948-2.206.324-.748.64-1.483.948-2.204l.84-1.96.628-1.476c.168-.397.274-.645.32-.746l.327.746c.173.396.385.888.637 1.475.252.586.53 1.24.84 1.96.307.72.622 1.456.947 2.204.326.75.642 1.484.95 2.205l.838 1.96c.252.586.462 1.078.63 1.475.167.397.273.645.318.746h-2.03zM96.01 162.606h1.644c.425 0 .777-.073 1.057-.218.28-.145.504-.32.672-.528.168-.207.285-.43.352-.67.067-.24.1-.462.1-.663 0-.19-.03-.404-.09-.645-.063-.24-.175-.467-.337-.68-.162-.21-.383-.39-.663-.535-.28-.145-.637-.218-1.074-.218h-1.66v4.156zm-2.048 6.135v-12.22h3.456c.672 0 1.284.09 1.838.27.554.178 1.023.435 1.41.77.385.336.685.75.897 1.24.212.493.32 1.046.32 1.66 0 .336-.035.67-.102 1.006-.066.335-.172.66-.318.972-.145.313-.335.6-.57.863-.235.264-.515.49-.84.68.247.39.488.774.722 1.148.235.375.473.752.714 1.132.24.38.49.77.747 1.173.256.403.536.838.838 1.308h-2.466c-.504-.78-.98-1.522-1.427-2.22-.447-.7-.878-1.36-1.292-1.987H96.01v4.208H93.96zM110.037 162.606h1.644c.426 0 .778-.073 1.058-.218.28-.145.503-.32.672-.528.167-.207.284-.43.352-.67.067-.24.1-.462.1-.663 0-.19-.03-.404-.092-.645-.06-.24-.173-.467-.335-.68-.163-.21-.383-.39-.663-.535-.28-.145-.638-.218-1.074-.218h-1.66v4.156zm-2.047 6.135v-12.22h3.456c.672 0 1.284.09 1.838.27.553.178 1.023.435 1.41.77.385.336.684.75.897 1.24.213.493.32 1.046.32 1.66 0 .336-.034.67-.1 1.006-.068.335-.175.66-.32.972-.145.313-.335.6-.57.863-.235.264-.515.49-.84.68.247.39.487.774.722 1.148.235.375.473.752.714 1.132.24.38.488.77.746 1.173.257.403.537.838.84 1.308h-2.468c-.503-.78-.98-1.522-1.426-2.22-.447-.7-.878-1.36-1.292-1.987h-1.878v4.208h-2.048zM124.685 163.796h2.786l-1.207-2.917c-.012-.012-.04-.087-.084-.227-.046-.14-.08-.265-.102-.377-.023.112-.056.237-.1.377-.046.14-.068.215-.068.226l-1.225 2.916zm4.85 4.945c-.034-.077-.092-.217-.177-.418l-.31-.738c-.123-.29-.257-.612-.402-.964l-.454-1.098h-4.21l-1.344 3.22h-2.03c.045-.102.15-.35.32-.747.166-.397.376-.89.628-1.475.25-.587.53-1.24.84-1.96.306-.722.622-1.457.947-2.206.324-.748.64-1.483.948-2.204.31-.72.588-1.374.84-1.96l.63-1.476c.167-.397.273-.645.318-.746.045.1.154.35.327.746.174.396.386.888.638 1.475.25.586.53 1.24.84 1.96.306.72.622 1.456.947 2.204.324.75.64 1.484.948 2.205.308.72.587 1.373.84 1.96l.628 1.475c.168.397.274.645.32.746h-2.03zM145.056 167.836c-.134.09-.32.195-.562.318-.24.123-.525.238-.856.344-.33.106-.702.196-1.116.268-.414.073-.855.11-1.325.11-.962 0-1.823-.166-2.584-.495-.76-.33-1.404-.773-1.93-1.332-.526-.56-.93-1.213-1.208-1.96-.28-.75-.42-1.538-.42-2.365 0-.916.168-1.762.504-2.54.334-.776.79-1.446 1.366-2.01.577-.565 1.248-1.003 2.014-1.317.766-.312 1.586-.47 2.458-.47.336 0 .674.026 1.015.076.342.05.664.115.965.193.302.078.568.168.797.268.23.1.395.207.495.32-.1.155-.18.284-.234.384-.057.1-.115.204-.177.31-.063.107-.13.227-.202.36-.073.135-.176.32-.31.554-.135-.088-.297-.167-.487-.234s-.388-.12-.595-.16c-.207-.038-.417-.07-.63-.09-.21-.023-.402-.035-.57-.035-.626 0-1.205.12-1.736.353-.533.235-.99.545-1.377.93-.386.386-.688.836-.906 1.35-.218.514-.327 1.045-.327 1.593 0 .536.103 1.058.31 1.567.207.51.497.958.872 1.35.375.39.82.706 1.334.946.515.24 1.085.36 1.712.36.358 0 .704-.037 1.04-.11.336-.072.632-.153.89-.242.257-.09.466-.18.63-.268.16-.09.248-.152.26-.185l.888 1.86zM149.94 168.74v-12.22h2.063v5.097h5.84v-5.096h2.08V159.865c0 .867-.003 1.79-.008 2.767-.006.98-.008 1.9-.008 2.767V168.74h-2.065v-5.162h-5.84v5.163h-2.063zM166.098 168.74h2.064v-12.22h-2.064M185.143 156.52v12.79c-.078-.1-.252-.284-.52-.553-.27-.268-.6-.59-.99-.963l-1.3-1.24c-.476-.453-.96-.91-1.452-1.375-.492-.465-.973-.92-1.442-1.368-.47-.446-.898-.857-1.284-1.23-.386-.376-.71-.694-.973-.957-.262-.262-.433-.444-.51-.545-.012-.022-.057-.08-.135-.176-.08-.094-.146-.18-.202-.26l.05.537v7.56h-2.047V155.97c.08.1.252.282.52.545.27.263.6.578.99.947.392.37.826.77 1.3 1.207L178.6 160c.49.452.972.9 1.442 1.34.47.442.9.844 1.292 1.207.39.364.718.674.98.93.264.258.435.436.513.537l.32.47-.05-.57v-7.393h2.046zM193.986 163.796h2.785l-1.207-2.917c-.01-.012-.04-.087-.084-.227-.046-.14-.08-.265-.102-.377-.022.112-.055.237-.1.377-.045.14-.067.215-.067.226l-1.224 2.916zm4.85 4.945c-.034-.077-.093-.217-.177-.418l-.31-.738c-.125-.29-.26-.612-.404-.964-.145-.352-.297-.717-.453-1.098h-4.212l-1.34 3.22h-2.032c.045-.102.152-.35.32-.747.167-.397.377-.89.628-1.475l.84-1.96c.307-.722.623-1.457.947-2.206.325-.748.64-1.483.95-2.204.306-.72.586-1.374.838-1.96l.63-1.476c.168-.397.274-.645.318-.746l.328.746c.173.396.386.888.638 1.475l.838 1.96c.308.72.624 1.456.948 2.204.325.75.64 1.484.95 2.205.306.72.586 1.373.838 1.96l.63 1.475c.167.397.273.645.318.746h-2.03zM75.655 181.33v5.197c-.47.28-1.038.495-1.703.646-.666.15-1.345.226-2.04.226-.96 0-1.83-.152-2.608-.454-.778-.3-1.44-.715-1.99-1.24-.547-.525-.966-1.15-1.257-1.877-.29-.728-.436-1.52-.436-2.382 0-.972.174-1.857.52-2.656.347-.8.815-1.486 1.402-2.062.587-.576 1.27-1.023 2.047-1.34.776-.32 1.596-.48 2.457-.48.29 0 .596.02.915.06.32.04.635.098.948.176.313.078.615.17.906.276.29.107.554.232.79.378l-1.008 1.676c-.157-.1-.344-.187-.562-.26-.218-.073-.445-.137-.68-.193-.235-.056-.467-.097-.696-.126-.23-.027-.445-.042-.646-.042-.57 0-1.116.115-1.636.344-.52.228-.982.538-1.384.93-.403.39-.725.857-.965 1.4-.242.54-.362 1.12-.362 1.734 0 .56.106 1.09.32 1.592.21.504.507.947.888 1.333.38.384.833.692 1.36.92.525.23 1.1.345 1.727.345.224 0 .504-.02.84-.06.335-.038.654-.108.956-.21v-2.077h-2.283v-1.777h4.178zM81.31 187.265v-12.22h8.12v1.86h-6.073v3.286h5.403v1.912h-5.403v3.252h6.31v1.91M102.268 175.733l-.74 1.676c-.468-.17-.933-.303-1.39-.404-.46-.1-.885-.15-1.277-.15-.68 0-1.22.134-1.618.402-.397.268-.596.61-.596 1.023 0 .358.15.65.445.872.297.223.67.425 1.117.604.447.178.93.36 1.45.544.522.185 1.005.422 1.453.713.447.29.82.66 1.116 1.106.296.446.444 1.016.444 1.71 0 .535-.098 1.02-.293 1.457-.196.436-.49.81-.88 1.123-.393.313-.888.556-1.486.73-.598.172-1.3.26-2.105.26-.493 0-.94-.035-1.342-.102-.403-.066-.764-.15-1.083-.25-.32-.102-.6-.21-.847-.328-.246-.117-.46-.232-.638-.343l.89-1.794c.47.257.973.455 1.51.595.537.14 1.012.21 1.426.21.202 0 .462-.023.78-.067.32-.044.63-.128.932-.25.302-.124.563-.292.78-.504.22-.212.328-.486.328-.82 0-.392-.148-.714-.445-.965-.296-.25-.668-.474-1.116-.67-.448-.195-.932-.388-1.452-.578-.52-.19-1.004-.416-1.452-.68-.447-.26-.82-.585-1.115-.97-.296-.386-.444-.875-.444-1.468 0-.424.084-.84.252-1.248.168-.408.422-.774.763-1.098.342-.324.768-.587 1.276-.788.51-.2 1.11-.302 1.804-.302.436 0 .86.037 1.267.11.408.072.775.153 1.1.242.323.09.592.176.805.26.212.084.34.13.386.143M115.322 175.045v1.96h-3.02v10.26h-2.064v-10.26h-2.953v-1.96M120.792 187.265h2.065v-12.22h-2.065M133.495 174.358c.257-.37.51-.743.763-1.123.252-.38.506-.76.764-1.14h1.728c-.336.38-.677.76-1.024 1.14-.346.38-.693.754-1.04 1.123h-1.19zm-3.205 6.822c0 .593.108 1.15.327 1.668.218.52.52.972.906 1.358.386.385.833.69 1.342.913.51.223 1.06.335 1.653.335.57 0 1.11-.112 1.62-.336.508-.224.95-.53 1.325-.914.375-.386.67-.838.89-1.358.217-.52.327-1.075.327-1.668 0-.592-.112-1.148-.336-1.667-.224-.52-.526-.976-.906-1.367-.38-.39-.825-.698-1.334-.92-.51-.225-1.055-.337-1.636-.337-.582 0-1.127.11-1.636.335-.51.223-.95.53-1.326.92-.375.392-.67.848-.89 1.368-.218.52-.326 1.075-.326 1.667zm-2.064 0c0-.85.165-1.653.495-2.414.33-.76.778-1.424 1.343-1.994.565-.57 1.225-1.023 1.98-1.358.755-.335 1.563-.503 2.425-.503.85 0 1.655.17 2.416.504.76.335 1.426.788 1.997 1.358.572.57 1.022 1.235 1.352 1.994.33.76.495 1.565.495 2.414 0 .86-.165 1.668-.495 2.422-.33.755-.78 1.414-1.35 1.978-.572.565-1.238 1.01-1.998 1.333-.76.324-1.566.486-2.416.486-.862 0-1.67-.163-2.425-.487-.755-.324-1.415-.768-1.98-1.333-.565-.564-1.013-1.223-1.342-1.978-.33-.754-.494-1.56-.494-2.422zM87.25 86.522c-3.262-.77-6.66-1.16-10.103-1.16H66.5V135l2.228-1.038 17.53-11.258c.618-.397.99-1.08.99-1.813V86.523z" fill="#4C4C4C"/>
    <path d="M102.417 120.685c-1.252 2.98-3.017 5.448-5.248 7.34-2.263 1.923-4.95 3.406-7.985 4.41-3.054 1.013-6.36 1.527-9.822 1.527H67.878v-47.6h9.27c3.442 0 6.84.39 10.1 1.16l.14.03c3.226.776 6.137 2.104 8.653 3.948 2.49 1.826 4.514 4.263 6.015 7.243 1.502 2.984 2.264 6.784 2.264 11.296 0 4.05-.64 7.633-1.903 10.645m2.208-23.234c-1.706-3.388-4.022-6.17-6.88-8.267-2.828-2.07-6.085-3.56-9.685-4.425-.27-.064-.54-.122-.81-.18-3.277-.72-6.67-1.09-10.103-1.09H65v53.348h14.363c3.772 0 7.382-.563 10.728-1.673 3.388-1.12 6.397-2.785 8.943-4.947 2.578-2.187 4.61-5.02 6.037-8.42 1.41-3.367 2.127-7.323 2.127-11.757 0-4.965-.866-9.2-2.572-12.59M69 39h-2v39h8.5c5.057 0 8.827-2.26 11.75-4.523v-20.77c0-.732-.374-1.414-.992-1.81L69 39z" fill="#4C4C4C"/>
    <path d="M89.446 71.342c-.656.802-1.39 1.51-2.197 2.135-2.923 2.263-6.845 3.375-11.902 3.375h-7.47V39.874h5.254c6.487 0 11.68 1.49 15.433 4.424 3.696 2.894 5.493 7.297 5.493 13.462 0 5.268-1.552 9.838-4.612 13.582m.893-29.306C86.065 38.694 80.276 37 73.13 37H65v42.727H75.348c4.737 0 8.715-.945 11.9-2.804 1.704-.994 3.185-2.245 4.427-3.763 3.49-4.27 5.26-9.452 5.26-15.4 0-7.008-2.218-12.298-6.596-15.724" fill="#4C4C4C"/>
  </g>
</svg>
