<svg xmlns="http://www.w3.org/2000/svg" width="1125" height="536" viewBox="0 0 1125 536">
  <path fill="#E4E7EF" d="M163 175v2h83v248H36V177h24.2c.1-.7-.1-1.3 0-2H34v252h214V175h-85z"/>
  <path fill="#575B66" d="M75 219.6c-.8 0-1.4-.3-2-.8s-.8-1.2-.8-2 .3-1.5.8-2 1.2-.8 2-.8 1.5.3 2 .8c.6.6.8 1.2.8 2s-.3 1.5-.9 2-1.1.8-1.9.8zm23.3-2.5v3.9H97v-10h3.2c.9 0 1.7.3 2.2.8s.8 1.3.8 2.2c0 1-.3 1.7-.8 2.2s-1.2.8-2.1.8h-2zm0-1.1h1.9c.6 0 1-.2 1.3-.5s.4-.8.4-1.4c0-.6-.2-1.1-.5-1.4-.3-.4-.7-.5-1.3-.5h-1.9v3.8zm6.1 1c0-1.1.3-1.9.8-2.6s1.2-.9 2.1-.9 1.5.3 2.1.9.8 1.4.8 2.5v.8c0 1.1-.3 1.9-.8 2.5s-1.2.9-2.1.9c-.9 0-1.5-.3-2.1-.9s-.8-1.4-.8-2.5v-.7zm1.2.7c0 .8.1 1.4.4 1.8s.7.7 1.2.7c1.1 0 1.6-.8 1.6-2.3v-.9c0-.8-.2-1.4-.5-1.8-.3-.4-.7-.7-1.2-.7s-.9.2-1.2.7c-.3.4-.4 1-.4 1.8v.7zm9.7 1.4c0-.3-.1-.5-.3-.7s-.6-.4-1.1-.7c-.7-.3-1.1-.5-1.4-.7s-.5-.4-.6-.7-.2-.5-.2-.9c0-.6.2-1.1.7-1.5s1-.6 1.7-.6 1.3.2 1.7.6.7 1 .7 1.6h-1.2c0-.3-.1-.6-.3-.9-.2-.2-.5-.4-.9-.4s-.6.1-.8.3c-.2.2-.3.4-.3.7 0 .2.1.4.2.6s.5.3 1.1.6c.9.4 1.5.7 1.8 1s.5.8.5 1.3c0 .6-.2 1.2-.7 1.5s-1 .6-1.8.6-1.4-.2-1.9-.7-.7-1-.7-1.7h1.2c0 .4.1.7.4 1s.6.3 1 .3.7-.1.9-.3.3 0 .3-.3zm4.4-7.3v1.8h1.1v1h-1.1v4.6c0 .3 0 .5.1.7s.3.2.5.2.3 0 .5-.1v1c-.3.1-.6.1-.8.1-.5 0-.8-.2-1.1-.5-.3-.3-.4-.8-.4-1.4v-4.6h-1.1v-1h1.1v-1.8h1.2zm7.3 0v1.8h1.1v1H127v4.6c0 .3 0 .5.1.7s.3.2.5.2.3 0 .5-.1v1c-.3.1-.6.1-.8.1-.5 0-.8-.2-1.1-.5s-.4-.8-.4-1.4v-4.6h-1.1v-1h1.1v-1.8h1.2zm3.8 9.2h-1.2v-7.4h1.2v7.4zm.1-9.4c0 .2-.1.4-.2.5s-.3.2-.5.2-.4-.1-.5-.2-.2-.3-.2-.5.1-.4.2-.5.3-.2.5-.2.4.1.5.2.2.3.2.5zm3.4.2v1.8h1.1v1h-1.1v4.6c0 .3 0 .5.1.7s.3.2.5.2.3 0 .5-.1v1c-.3.1-.6.1-.8.1-.5 0-.8-.2-1.1-.5s-.4-.8-.4-1.4v-4.6H132v-1h1.1v-1.8h1.2zm3.9 9.2H137v-10.5h1.2V221zm4.5.1c-.9 0-1.6-.3-2.1-.8s-.7-1.4-.8-2.4v-.9c0-1.1.2-2 .7-2.6s1.2-.9 2-.9c.9 0 1.5.3 1.9.8s.6 1.4.7 2.6v.8H141v.2c0 .8.1 1.4.4 1.7s.7.5 1.3.5c.4 0 .7-.1.9-.2s.5-.3.8-.6l.6.8c-.4.7-1.2 1-2.3 1zm-.1-6.6c-.5 0-.9.2-1.1.5s-.4.9-.4 1.6h2.9v-.2c0-.7-.2-1.2-.4-1.5s-.5-.4-1-.4zM75 247.6c-.8 0-1.4-.3-2-.8s-.8-1.2-.8-2 .3-1.5.8-2 1.2-.8 2-.8 1.5.3 2 .8c.6.6.8 1.2.8 2s-.3 1.5-.9 2-1.1.8-1.9.8zm23.3-2.5v3.9H97v-10h3.2c.9 0 1.7.3 2.2.8s.8 1.3.8 2.2c0 1-.3 1.7-.8 2.2s-1.2.8-2.1.8h-2zm0-1.1h1.9c.6 0 1-.2 1.3-.5s.4-.8.4-1.4c0-.6-.2-1.1-.5-1.4-.3-.4-.7-.5-1.3-.5h-1.9v3.8zm6.1 1c0-1.1.3-1.9.8-2.6s1.2-.9 2.1-.9 1.5.3 2.1.9.8 1.4.8 2.5v.8c0 1.1-.3 1.9-.8 2.5s-1.2.9-2.1.9c-.9 0-1.5-.3-2.1-.9s-.8-1.4-.8-2.5v-.7zm1.2.7c0 .8.1 1.4.4 1.8s.7.7 1.2.7c1.1 0 1.6-.8 1.6-2.3v-.9c0-.8-.2-1.4-.5-1.8-.3-.4-.7-.7-1.2-.7s-.9.2-1.2.7c-.3.4-.4 1-.4 1.8v.7zm9.7 1.4c0-.3-.1-.5-.3-.7s-.6-.4-1.1-.7c-.7-.3-1.1-.5-1.4-.7s-.5-.4-.6-.7-.2-.5-.2-.9c0-.6.2-1.1.7-1.5s1-.6 1.7-.6 1.3.2 1.7.6.7 1 .7 1.6h-1.2c0-.3-.1-.6-.3-.9-.2-.2-.5-.4-.9-.4s-.6.1-.8.3c-.2.2-.3.4-.3.7 0 .2.1.4.2.6s.5.3 1.1.6c.9.4 1.5.7 1.8 1s.5.8.5 1.3c0 .6-.2 1.2-.7 1.5s-1 .6-1.8.6-1.4-.2-1.9-.7-.7-1-.7-1.7h1.2c0 .4.1.7.4 1s.6.3 1 .3.7-.1.9-.3.3 0 .3-.3zm4.4-7.3v1.8h1.1v1h-1.1v4.6c0 .3 0 .5.1.7s.3.2.5.2.3 0 .5-.1v1c-.3.1-.6.1-.8.1-.5 0-.8-.2-1.1-.5-.3-.3-.4-.8-.4-1.4v-4.6h-1.1v-1h1.1v-1.8h1.2zm9.3 7.3c0-.3-.1-.5-.3-.7s-.6-.4-1.1-.7c-.7-.3-1.1-.5-1.4-.7s-.5-.4-.6-.7-.2-.5-.2-.9c0-.6.2-1.1.7-1.5s1-.6 1.7-.6 1.3.2 1.7.6.7 1 .7 1.6H129c0-.3-.1-.6-.3-.9s-.5-.4-.9-.4-.6.1-.8.3-.3.4-.3.7c0 .2.1.4.2.6s.5.3 1.1.6c.9.4 1.5.7 1.8 1s.5.8.5 1.3c0 .6-.2 1.2-.7 1.5s-1 .6-1.8.6-1.4-.2-1.9-.7-.7-1-.7-1.7h1.2c0 .4.1.7.4 1 .2.2.6.3 1 .3s.7-.1.9-.3.3 0 .3-.3zm6.6 1.3c-.4.5-1 .8-1.8.8-.7 0-1.2-.2-1.5-.7s-.5-1.1-.5-2v-4.8h1.2v4.7c0 1.2.3 1.7 1 1.7s1.2-.3 1.5-1v-5.5h1.2v7.4h-1.1v-.6zm4.1-6.8v.7c.5-.5 1-.8 1.8-.8s1.4.4 1.7 1.1c.5-.7 1.1-1.1 1.9-1.1 1.4 0 2.1.8 2.1 2.5v5H146v-4.9c0-.5-.1-.9-.3-1.2s-.5-.4-1-.4c-.4 0-.7.1-.9.4s-.4.6-.4 1.1v5h-1.2v-4.9c0-1-.4-1.5-1.3-1.5-.6 0-1 .3-1.3.9v5.5h-1.2v-7.4h1.3zm10.5 0v.7c.5-.5 1-.8 1.8-.8s1.4.4 1.7 1.1c.5-.7 1.1-1.1 1.9-1.1 1.4 0 2.1.8 2.1 2.5v5h-1.2v-4.9c0-.5-.1-.9-.3-1.2s-.5-.4-1-.4c-.4 0-.7.1-.9.4s-.4.6-.4 1.1v5h-1.2v-4.9c0-1-.4-1.5-1.3-1.5-.6 0-1 .3-1.3.9v5.5h-1.2v-7.4h1.3zm13.2 7.4c-.1-.2-.1-.4-.2-.8-.4.6-1 .9-1.6.9-.7 0-1.2-.2-1.6-.6s-.6-.9-.6-1.6c0-.8.3-1.3.8-1.8s1.2-.7 2.1-.7h.9v-.8c0-.4-.1-.8-.3-.9s-.5-.3-.9-.3-.7.1-.9.3-.3.5-.3.8h-1.2c0-.4.1-.7.3-1.1s.5-.6.9-.8.8-.3 1.3-.3c.8 0 1.3.2 1.7.6s.6.9.6 1.6v3.7c0 .6.1 1.1.2 1.5v.1h-1.2zm-1.6-1c.3 0 .6-.1.8-.2s.5-.4.6-.6v-1.8h-.7c-.6 0-1 .1-1.4.4s-.5.6-.5 1 .1.7.3.9.5.3.9.3zm7.6-5.3h-.5c-.6 0-1.1.3-1.3 1v5.3h-1.2v-7.4h1.2v.8c.3-.6.8-.9 1.4-.9.2 0 .4 0 .5.1l-.1 1.1zm3.2 4.3l1.3-5.4h1.3l-2.4 8.4c-.2.6-.4 1.1-.8 1.4s-.7.5-1.1.5c-.2 0-.4 0-.6-.1v-1h.3c.4 0 .6-.1.8-.2s.4-.5.5-.9l.2-.8-2.2-7.3h1.3l1.4 5.4zM75 275.6c-.8 0-1.4-.3-2-.8-.6-.6-.8-1.2-.8-2s.3-1.5.8-2 1.2-.8 2-.8 1.5.3 2 .8c.6.6.8 1.2.8 2s-.3 1.5-.9 2-1.1.8-1.9.8zm23.3-2.5v3.9H97v-10h3.2c.9 0 1.7.3 2.2.8s.8 1.3.8 2.2c0 1-.3 1.7-.8 2.2-.5.5-1.2.8-2.1.8h-2zm0-1.1h1.9c.6 0 1-.2 1.3-.5.3-.3.4-.8.4-1.4 0-.6-.2-1.1-.5-1.4-.3-.4-.7-.5-1.3-.5h-1.9v3.8zm6.1 1c0-1.1.3-1.9.8-2.6.5-.6 1.2-.9 2.1-.9s1.5.3 2.1.9c.5.6.8 1.4.8 2.5v.8c0 1.1-.3 1.9-.8 2.5-.5.6-1.2.9-2.1.9-.9 0-1.5-.3-2.1-.9-.5-.6-.8-1.4-.8-2.5v-.7zm1.2.7c0 .8.1 1.4.4 1.8.3.4.7.7 1.2.7 1.1 0 1.6-.8 1.6-2.3v-.9c0-.8-.2-1.4-.5-1.8-.3-.4-.7-.7-1.2-.7s-.9.2-1.2.7c-.3.4-.4 1-.4 1.8v.7zm9.7 1.4c0-.3-.1-.5-.3-.7-.2-.2-.6-.4-1.1-.7-.7-.3-1.1-.5-1.4-.7s-.5-.4-.6-.7c-.1-.2-.2-.5-.2-.9 0-.6.2-1.1.7-1.5.4-.4 1-.6 1.7-.6s1.3.2 1.7.6c.4.4.7 1 .7 1.6h-1.2c0-.3-.1-.6-.3-.9-.2-.2-.5-.4-.9-.4s-.6.1-.8.3c-.2.2-.3.4-.3.7 0 .2.1.4.2.6s.5.3 1.1.6c.9.4 1.5.7 1.8 1s.5.8.5 1.3c0 .6-.2 1.2-.7 1.5-.4.4-1 .6-1.8.6s-1.4-.2-1.9-.7c-.5-.4-.7-1-.7-1.7h1.2c0 .4.1.7.4 1s.6.3 1 .3.7-.1.9-.3c.2.3.3 0 .3-.3zm4.4-7.3v1.8h1.1v1h-1.1v4.6c0 .3 0 .5.1.7s.3.2.5.2.3 0 .5-.1v1c-.3.1-.6.1-.8.1-.5 0-.8-.2-1.1-.5-.3-.3-.4-.8-.4-1.4v-4.6h-1.1v-1h1.1v-1.8h1.2zm11.1 5.9c0 1.2-.2 2-.6 2.6-.4.6-1 .9-1.8.9s-1.4-.3-1.8-1l-.1.9h-1.1v-10.5h1.2v3.9c.4-.6 1-1 1.7-1 .8 0 1.4.3 1.8.9s.6 1.4.6 2.6v.7zm-1.2-.7c0-.9-.1-1.5-.4-1.9-.2-.4-.6-.6-1.2-.6s-1.1.3-1.4 1v3.5c.3.7.8 1 1.4 1 .5 0 .9-.2 1.2-.6s.4-1 .4-1.8v-.6zm2.5 0c0-1.1.3-1.9.8-2.6.5-.6 1.2-.9 2.1-.9s1.5.3 2.1.9c.5.6.8 1.4.8 2.5v.8c0 1.1-.3 1.9-.8 2.5-.5.6-1.2.9-2.1.9-.9 0-1.5-.3-2.1-.9-.5-.6-.8-1.4-.8-2.5v-.7zm1.2.7c0 .8.1 1.4.4 1.8.3.4.7.7 1.2.7 1.1 0 1.6-.8 1.6-2.3v-.9c0-.8-.2-1.4-.5-1.8-.3-.4-.7-.7-1.2-.7s-.9.2-1.2.7c-.3.4-.4 1-.4 1.8v.7zm5.8-.7c0-1.1.2-2 .6-2.6.4-.6 1-.9 1.8-.9.7 0 1.3.3 1.7.9v-3.8h1.2V277h-1.1l-.1-.8c-.4.6-1 .9-1.7.9-.8 0-1.4-.3-1.8-.9s-.7-1.4-.7-2.5v-.7zm1.2.7c0 .8.1 1.4.4 1.8s.6.6 1.2.6 1.1-.3 1.3-.9v-3.7c-.3-.6-.8-.9-1.3-.9-.6 0-1 .2-1.2.6s-.4 1-.4 1.8v.7zm8 1.3l1.3-5.4h1.3l-2.4 8.4c-.2.6-.4 1.1-.8 1.4-.3.3-.7.5-1.1.5-.2 0-.4 0-.6-.1v-1h.3c.4 0 .6-.1.8-.2.2-.2.4-.5.5-.9l.2-.8-2.2-7.3h1.3l1.4 5.4zM75 303.6c-.8 0-1.4-.3-2-.8-.6-.6-.8-1.2-.8-2s.3-1.5.8-2 1.2-.8 2-.8 1.5.3 2 .8c.6.6.8 1.2.8 2s-.3 1.5-.9 2-1.1.8-1.9.8zm23.7-8.6l2.6 8.1 2.6-8.1h1.6v10h-1.3v-3.9l.1-3.9-2.6 7.8h-1l-2.6-7.7.1 3.9v3.9h-1.3v-10h1.8zm12.6 10c-.1-.2-.1-.4-.2-.8-.4.6-1 .9-1.6.9-.7 0-1.2-.2-1.6-.6s-.6-.9-.6-1.6c0-.8.3-1.3.8-1.8.5-.4 1.2-.7 2.1-.7h.9v-.8c0-.4-.1-.8-.3-.9-.2-.2-.5-.3-.9-.3s-.7.1-.9.3c-.2.2-.3.5-.3.8h-1.2c0-.4.1-.7.3-1.1.2-.3.5-.6.9-.8.4-.2.8-.3 1.3-.3.8 0 1.3.2 1.7.6s.6.9.6 1.6v3.7c0 .6.1 1.1.2 1.5v.1h-1.2zm-1.6-1c.3 0 .6-.1.8-.2s.5-.4.6-.6v-1.8h-.7c-.6 0-1 .1-1.4.4-.3.2-.5.6-.5 1s.1.7.3.9c.2.2.5.3.9.3zm5.8 1h-1.2v-7.4h1.2v7.4zm.1-9.4c0 .2-.1.4-.2.5s-.3.2-.5.2-.4-.1-.5-.2-.2-.3-.2-.5.1-.4.2-.5c.1-.1.3-.2.5-.2s.4.1.5.2.2.3.2.5zm2.9 2v.8c.5-.6 1.1-.9 1.8-.9 1.3 0 2 .9 2 2.6v4.9h-1.2v-4.9c0-.6-.1-1-.3-1.2-.2-.2-.5-.4-.9-.4-.3 0-.6.1-.8.3-.2.2-.4.5-.6.8v5.4h-1.2v-7.4h1.2zm10.2 7.4h-1.2v-7.4h1.2v7.4zm.1-9.4c0 .2-.1.4-.2.5s-.3.2-.5.2-.4-.1-.5-.2-.2-.3-.2-.5.1-.4.2-.5c.1-.1.3-.2.5-.2s.4.1.5.2.2.3.2.5zm2.9 2v.7c.5-.5 1-.8 1.8-.8s1.4.4 1.7 1.1c.5-.7 1.1-1.1 1.9-1.1 1.4 0 2.1.8 2.1 2.5v5H138v-4.9c0-.5-.1-.9-.3-1.2-.2-.3-.5-.4-1-.4-.4 0-.7.1-.9.4-.2.3-.4.6-.4 1.1v5h-1.2v-4.9c0-1-.4-1.5-1.3-1.5-.6 0-1 .3-1.3.9v5.5h-1.2v-7.4h1.3zm13.2 7.4c-.1-.2-.1-.4-.2-.8-.4.6-1 .9-1.6.9-.7 0-1.2-.2-1.6-.6s-.6-.9-.6-1.6c0-.8.3-1.3.8-1.8.5-.4 1.2-.7 2.1-.7h.9v-.8c0-.4-.1-.8-.3-.9-.2-.2-.5-.3-.9-.3s-.7.1-.9.3c-.2.2-.3.5-.3.8h-1.2c0-.4.1-.7.3-1.1.2-.3.5-.6.9-.8.4-.2.8-.3 1.3-.3.8 0 1.3.2 1.7.6s.6.9.6 1.6v3.7c0 .6.1 1.1.2 1.5v.1h-1.2zm-1.6-1c.3 0 .6-.1.8-.2s.5-.4.6-.6v-1.8h-.7c-.6 0-1 .1-1.4.4-.3.2-.5.6-.5 1s.1.7.3.9c.2.2.5.3.9.3zm4.3-3c0-1.2.2-2 .6-2.6.4-.6 1-.9 1.8-.9s1.3.3 1.7 1l.1-.8h1.1v7.5c0 .9-.2 1.6-.7 2.1-.5.5-1.1.7-2 .7-.4 0-.8-.1-1.2-.3-.5-.2-.8-.4-1-.7l.5-.8c.5.5 1.1.7 1.7.7 1 0 1.5-.5 1.6-1.6v-1c-.4.6-.9.9-1.7.9-.8 0-1.4-.3-1.8-.9-.4-.6-.7-1.4-.7-2.5v-.8zm1.2.7c0 .8.1 1.4.4 1.8s.6.6 1.2.6 1.1-.3 1.4-.9v-3.7c-.3-.6-.8-.9-1.3-.9-.6 0-1 .2-1.2.6s-.4 1-.4 1.8v.7zm8.6 3.4c-.9 0-1.6-.3-2.1-.8s-.7-1.4-.8-2.4v-.9c0-1.1.2-2 .7-2.6.5-.6 1.2-.9 2-.9.9 0 1.5.3 1.9.8.4.6.6 1.4.7 2.6v.8h-4.1v.2c0 .8.1 1.4.4 1.7.3.4.7.5 1.3.5.4 0 .7-.1.9-.2.3-.1.5-.3.8-.6l.6.8c-.5.7-1.3 1-2.3 1zm-.2-6.6c-.5 0-.9.2-1.1.5-.2.3-.4.9-.4 1.6h2.9v-.2c0-.7-.2-1.2-.4-1.5s-.5-.4-1-.4zM75 331.6c-.8 0-1.4-.3-2-.8-.6-.6-.8-1.2-.8-2s.3-1.5.8-2 1.2-.8 2-.8 1.5.3 2 .8c.6.6.8 1.2.8 2s-.3 1.5-.9 2-1.1.8-1.9.8zm27.9-7.5h-2.6v8.9H99v-8.9h-2.6V323h6.5v1.1zm2.5 2.3c.5-.6 1-.9 1.8-.9 1.3 0 2 .9 2 2.6v4.9H108v-4.9c0-.6-.1-1-.3-1.2-.2-.2-.5-.4-.9-.4-.3 0-.6.1-.8.3-.2.2-.4.5-.6.8v5.4h-1.2v-10.5h1.2v3.9zm9.3 6c-.4.5-1 .8-1.8.8-.7 0-1.2-.2-1.5-.7-.3-.5-.5-1.1-.5-2v-4.8h1.2v4.7c0 1.2.3 1.7 1 1.7s1.2-.3 1.5-1v-5.5h1.2v7.4h-1.1v-.6zm4.2-6.8v.7c.5-.5 1-.8 1.8-.8s1.4.4 1.7 1.1c.5-.7 1.1-1.1 1.9-1.1 1.4 0 2.1.8 2.1 2.5v5h-1.2v-4.9c0-.5-.1-.9-.3-1.2-.2-.3-.5-.4-1-.4-.4 0-.7.1-.9.4-.2.3-.4.6-.4 1.1v5h-1.2v-4.9c0-1-.4-1.5-1.3-1.5-.6 0-1 .3-1.3.9v5.5h-1.2v-7.4h1.3zm14.7 4.1c0 1.2-.2 2-.6 2.6-.4.6-1 .9-1.8.9s-1.4-.3-1.8-1l-.1.9h-1.1v-10.5h1.2v3.9c.4-.6 1-1 1.7-1 .8 0 1.4.3 1.8.9s.6 1.4.6 2.6v.7zm-1.2-.7c0-.9-.1-1.5-.4-1.9-.2-.4-.6-.6-1.2-.6s-1.1.3-1.4 1v3.5c.3.7.8 1 1.4 1 .5 0 .9-.2 1.2-.6s.4-1 .4-1.8v-.6zm3.9-3.4v.8c.5-.6 1.1-.9 1.8-.9 1.3 0 2 .9 2 2.6v4.9h-1.2v-4.9c0-.6-.1-1-.3-1.2-.2-.2-.5-.4-.9-.4-.3 0-.6.1-.8.3-.2.2-.4.5-.6.8v5.4h-1.2v-7.4h1.2zm9.4 7.4c-.1-.2-.1-.4-.2-.8-.4.6-1 .9-1.6.9-.7 0-1.2-.2-1.6-.6s-.6-.9-.6-1.6c0-.8.3-1.3.8-1.8.5-.4 1.2-.7 2.1-.7h.9v-.8c0-.4-.1-.8-.3-.9-.2-.2-.5-.3-.9-.3s-.7.1-.9.3c-.2.2-.3.5-.3.8h-1.2c0-.4.1-.7.3-1.1.2-.3.5-.6.9-.8.4-.2.8-.3 1.3-.3.8 0 1.3.2 1.7.6s.6.9.6 1.6v3.7c0 .6.1 1.1.2 1.5v.1h-1.2zm-1.6-1c.3 0 .6-.1.8-.2s.5-.4.6-.6v-1.8h-.7c-.6 0-1 .1-1.4.4-.3.2-.5.6-.5 1s.1.7.3.9c.2.2.5.3.9.3zm5.8 1h-1.2v-7.4h1.2v7.4zm.1-9.4c0 .2-.1.4-.2.5s-.3.2-.5.2-.4-.1-.5-.2-.2-.3-.2-.5.1-.4.2-.5c.1-.1.3-.2.5-.2s.4.1.5.2.2.3.2.5zm3.1 9.4h-1.2v-10.5h1.2V333zm6.5 0h-1.2v-7.4h1.2v7.4zm.1-9.4c0 .2-.1.4-.2.5s-.3.2-.5.2-.4-.1-.5-.2-.2-.3-.2-.5.1-.4.2-.5c.1-.1.3-.2.5-.2s.4.1.5.2.2.3.2.5zm2.9 2v.7c.5-.5 1-.8 1.8-.8s1.4.4 1.7 1.1c.5-.7 1.1-1.1 1.9-1.1 1.4 0 2.1.8 2.1 2.5v5H169v-4.9c0-.5-.1-.9-.3-1.2-.2-.3-.5-.4-1-.4-.4 0-.7.1-.9.4-.2.3-.4.6-.4 1.1v5h-1.2v-4.9c0-1-.4-1.5-1.3-1.5-.6 0-1 .3-1.3.9v5.5h-1.2v-7.4h1.2zm13.2 7.4c-.1-.2-.1-.4-.2-.8-.4.6-1 .9-1.6.9-.7 0-1.2-.2-1.6-.6s-.6-.9-.6-1.6c0-.8.3-1.3.8-1.8.5-.4 1.2-.7 2.1-.7h.9v-.8c0-.4-.1-.8-.3-.9-.2-.2-.5-.3-.9-.3s-.7.1-.9.3c-.2.2-.3.5-.3.8H172c0-.4.1-.7.3-1.1.2-.3.5-.6.9-.8.4-.2.8-.3 1.3-.3.8 0 1.3.2 1.7.6s.6.9.6 1.6v3.7c0 .6.1 1.1.2 1.5v.1h-1.2zm-1.6-1c.3 0 .6-.1.8-.2s.5-.4.6-.6v-1.8h-.7c-.6 0-1 .1-1.4.4-.3.2-.5.6-.5 1s.1.7.3.9c.2.2.5.3.9.3zm4.3-3c0-1.2.2-2 .6-2.6.4-.6 1-.9 1.8-.9s1.3.3 1.7 1l.1-.8h1.1v7.5c0 .9-.2 1.6-.7 2.1-.5.5-1.1.7-2 .7-.4 0-.8-.1-1.2-.3-.5-.2-.8-.4-1-.7l.5-.8c.5.5 1.1.7 1.7.7 1 0 1.5-.5 1.6-1.6v-1c-.4.6-.9.9-1.7.9-.8 0-1.4-.3-1.8-.9-.4-.6-.7-1.4-.7-2.5v-.8zm1.2.7c0 .8.1 1.4.4 1.8s.6.6 1.2.6 1.1-.3 1.4-.9v-3.7c-.3-.6-.8-.9-1.3-.9-.6 0-1 .2-1.2.6s-.4 1-.4 1.8v.7zm8.5 3.4c-.9 0-1.6-.3-2.1-.8s-.7-1.4-.8-2.4v-.9c0-1.1.2-2 .7-2.6.5-.6 1.2-.9 2-.9.9 0 1.5.3 1.9.8.4.6.6 1.4.7 2.6v.8h-4.1v.2c0 .8.1 1.4.4 1.7.3.4.7.5 1.3.5.4 0 .7-.1.9-.2.3-.1.5-.3.8-.6l.6.8c-.4.7-1.2 1-2.3 1zm-.1-6.6c-.5 0-.9.2-1.1.5-.2.3-.4.9-.4 1.6h2.9v-.2c0-.7-.2-1.2-.4-1.5s-.5-.4-1-.4zM75 359.6c-.8 0-1.4-.3-2-.8-.6-.6-.8-1.2-.8-2s.3-1.5.8-2 1.2-.8 2-.8 1.5.3 2 .8c.6.6.8 1.2.8 2s-.3 1.5-.9 2-1.1.8-1.9.8zm25.1-2.6h-1.8v4H97v-10h2.8c1 0 1.7.3 2.2.8.5.5.8 1.3.8 2.2 0 .6-.1 1.2-.4 1.6-.3.5-.7.8-1.2 1l1.9 4.2v.1h-1.3l-1.7-3.9zm-1.8-1.1h1.5c.5 0 .9-.2 1.3-.5.3-.3.5-.8.5-1.4 0-1.3-.6-1.9-1.7-1.9h-1.5v3.8zm8.7 5.2c-.9 0-1.6-.3-2.1-.8s-.7-1.4-.8-2.4v-.9c0-1.1.2-2 .7-2.6.5-.6 1.2-.9 2-.9.9 0 1.5.3 1.9.8.4.6.6 1.4.7 2.6v.8h-4.1v.2c0 .8.1 1.4.4 1.7.3.4.7.5 1.3.5.4 0 .7-.1.9-.2.3-.1.5-.3.8-.6l.6.8c-.4.7-1.2 1-2.3 1zm-.2-6.6c-.5 0-.9.2-1.1.5-.2.3-.4.9-.4 1.6h2.9v-.2c0-.7-.2-1.2-.4-1.5s-.5-.4-1-.4zm5.4 6.5H111v-10.5h1.2V361zm5.7 0c-.1-.2-.1-.4-.2-.8-.4.6-1 .9-1.6.9-.7 0-1.2-.2-1.6-.6s-.6-.9-.6-1.6c0-.8.3-1.3.8-1.8.5-.4 1.2-.7 2.1-.7h.9v-.8c0-.4-.1-.8-.3-.9-.2-.2-.5-.3-.9-.3s-.7.1-.9.3c-.2.2-.3.5-.3.8h-1.2c0-.4.1-.7.3-1.1.2-.3.5-.6.9-.8.4-.2.8-.3 1.3-.3.8 0 1.3.2 1.7.6s.6.9.6 1.6v3.7c0 .6.1 1.1.2 1.5v.1h-1.2zm-1.6-1c.3 0 .6-.1.8-.2s.5-.4.6-.6v-1.8h-.7c-.6 0-1 .1-1.4.4-.3.2-.5.6-.5 1s.1.7.3.9c.2.2.5.3.9.3zm6.1-8.2v1.8h1.1v1h-1.1v4.6c0 .3 0 .5.1.7s.3.2.5.2.3 0 .5-.1v1c-.3.1-.6.1-.8.1-.5 0-.8-.2-1.1-.5-.3-.3-.4-.8-.4-1.4v-4.6h-1.1v-1h1.1v-1.8h1.2zm5.2 9.3c-.9 0-1.6-.3-2.1-.8s-.7-1.4-.8-2.4v-.9c0-1.1.2-2 .7-2.6.5-.6 1.2-.9 2-.9.9 0 1.5.3 1.9.8.4.6.6 1.4.7 2.6v.8h-4.1v.2c0 .8.1 1.4.4 1.7.3.4.7.5 1.3.5.4 0 .7-.1.9-.2.3-.1.5-.3.8-.6l.6.8c-.4.7-1.2 1-2.3 1zm-.2-6.6c-.5 0-.9.2-1.1.5-.2.3-.4.9-.4 1.6h2.9v-.2c0-.7-.2-1.2-.4-1.5s-.5-.4-1-.4zm3.8 2.5c0-1.1.2-2 .6-2.6.4-.6 1-.9 1.8-.9.7 0 1.3.3 1.7.9v-3.8h1.2V361h-1.1l-.1-.8c-.4.6-1 .9-1.7.9-.8 0-1.4-.3-1.8-.9s-.7-1.4-.7-2.5v-.7zm1.2.7c0 .8.1 1.4.4 1.8s.6.6 1.2.6 1.1-.3 1.3-.9v-3.7c-.3-.6-.8-.9-1.3-.9-.6 0-1 .2-1.2.6s-.4 1-.4 1.8v.7zm14.6 0c0 1.2-.2 2-.6 2.6-.4.6-1 .9-1.8.9s-1.4-.3-1.8-1l-.1.9h-1.1v-10.5h1.2v3.9c.4-.6 1-1 1.7-1 .8 0 1.4.3 1.8.9s.6 1.4.6 2.6v.7zm-1.2-.7c0-.9-.1-1.5-.4-1.9-.2-.4-.6-.6-1.2-.6s-1.1.3-1.4 1v3.5c.3.7.8 1 1.4 1 .5 0 .9-.2 1.2-.6s.4-1 .4-1.8v-.6zm4.1 4h-1.2v-10.5h1.2V361zm1.6-4c0-1.1.3-1.9.8-2.6.5-.6 1.2-.9 2.1-.9s1.5.3 2.1.9c.5.6.8 1.4.8 2.5v.8c0 1.1-.3 1.9-.8 2.5-.5.6-1.2.9-2.1.9-.9 0-1.5-.3-2.1-.9-.5-.6-.8-1.4-.8-2.5v-.7zm1.2.7c0 .8.1 1.4.4 1.8.3.4.7.7 1.2.7 1.1 0 1.6-.8 1.6-2.3v-.9c0-.8-.2-1.4-.5-1.8-.3-.4-.7-.7-1.2-.7s-.9.2-1.2.7c-.3.4-.4 1-.4 1.8v.7zm5.8-.7c0-1.2.2-2 .6-2.6.4-.6 1-.9 1.8-.9s1.3.3 1.7 1l.1-.8h1.1v7.5c0 .9-.2 1.6-.7 2.1-.5.5-1.1.7-2 .7-.4 0-.8-.1-1.2-.3-.5-.2-.8-.4-1-.7l.5-.8c.5.5 1.1.7 1.7.7 1 0 1.5-.5 1.6-1.6v-1c-.4.6-.9.9-1.7.9-.8 0-1.4-.3-1.8-.9-.4-.6-.7-1.4-.7-2.5v-.8zm1.3.7c0 .8.1 1.4.4 1.8s.6.6 1.2.6 1.1-.3 1.4-.9v-3.7c-.3-.6-.8-.9-1.3-.9-.6 0-1 .2-1.2.6s-.4 1-.4 1.8v.7zm14.4 0c0 1.2-.2 2-.6 2.6s-1 .9-1.8.9c-.7 0-1.3-.3-1.7-.8v3.5h-1.2v-10.2h1.1l.1.8c.4-.6 1-1 1.7-1 .8 0 1.4.3 1.8.8.4.6.6 1.4.6 2.5v.9zm-1.2-.7c0-.8-.1-1.4-.4-1.8-.3-.4-.7-.6-1.2-.6-.6 0-1 .3-1.3.9v3.8c.3.6.7.8 1.3.8.5 0 .9-.2 1.2-.6.3-.4.4-1 .4-1.8v-.7zm2.5 0c0-1.1.3-1.9.8-2.6.5-.6 1.2-.9 2.1-.9s1.5.3 2.1.9c.5.6.8 1.4.8 2.5v.8c0 1.1-.3 1.9-.8 2.5-.5.6-1.2.9-2.1.9-.9 0-1.5-.3-2.1-.9-.5-.6-.8-1.4-.8-2.5v-.7zm1.2.7c0 .8.1 1.4.4 1.8.3.4.7.7 1.2.7 1.1 0 1.6-.8 1.6-2.3v-.9c0-.8-.2-1.4-.5-1.8-.3-.4-.7-.7-1.2-.7s-.9.2-1.2.7c-.3.4-.4 1-.4 1.8v.7zm9.7 1.4c0-.3-.1-.5-.3-.7-.2-.2-.6-.4-1.1-.7-.7-.3-1.1-.5-1.4-.7s-.5-.4-.6-.7c-.1-.2-.2-.5-.2-.9 0-.6.2-1.1.7-1.5.4-.4 1-.6 1.7-.6s1.3.2 1.7.6c.4.4.7 1 .7 1.6h-1.2c0-.3-.1-.6-.3-.9-.2-.2-.5-.4-.9-.4s-.6.1-.8.3-.3.4-.3.7c0 .2.1.4.2.6s.5.3 1.1.6c.9.4 1.5.7 1.8 1s.5.8.5 1.3c0 .6-.2 1.2-.7 1.5-.4.4-1 .6-1.8.6s-1.4-.2-1.9-.7c-.5-.4-.7-1-.7-1.7h1.2c0 .4.1.7.4 1s.6.3 1 .3.7-.1.9-.3c.2.3.3 0 .3-.3zm4.4-7.3v1.8h1.1v1h-1.1v4.6c0 .3 0 .5.1.7s.3.2.5.2.3 0 .5-.1v1c-.3.1-.6.1-.8.1-.5 0-.8-.2-1.1-.5s-.4-.8-.4-1.4v-4.6h-1.1v-1h1.1v-1.8h1.2zm6.1 7.3c0-.3-.1-.5-.3-.7-.2-.2-.6-.4-1.1-.7-.7-.3-1.1-.5-1.4-.7s-.5-.4-.6-.7c-.1-.2-.2-.5-.2-.9 0-.6.2-1.1.7-1.5.4-.4 1-.6 1.7-.6s1.3.2 1.7.6c.4.4.7 1 .7 1.6h-1.2c0-.3-.1-.6-.3-.9-.2-.2-.5-.4-.9-.4s-.6.1-.8.3-.3.4-.3.7c0 .2.1.4.2.6s.5.3 1.1.6c.9.4 1.5.7 1.8 1s.5.8.5 1.3c0 .6-.2 1.2-.7 1.5-.4.4-1 .6-1.8.6s-1.4-.2-1.9-.7c-.5-.4-.7-1-.7-1.7h1.2c0 .4.1.7.4 1s.6.3 1 .3.7-.1.9-.3c.2.3.3 0 .3-.3zM75 387.6c-.8 0-1.4-.3-2-.8-.6-.6-.8-1.2-.8-2s.3-1.5.8-2 1.2-.8 2-.8 1.5.3 2 .8c.6.6.8 1.2.8 2s-.3 1.5-.9 2-1.1.8-1.9.8zm22.1 1.4v-10h2.8c.9 0 1.6.2 2 .7.5.4.7 1.1.7 2 0 .5-.1.9-.3 1.2s-.5.6-.9.8c.5.1.8.4 1.1.8s.4.9.4 1.5c0 .9-.2 1.6-.7 2.1-.5.5-1.2.8-2.1.8h-3zm1.2-4.7v3.6h1.7c.5 0 .8-.2 1.1-.5.3-.3.4-.8.4-1.3 0-1.2-.5-1.8-1.5-1.8h-1.7zm0-1h1.6c.4 0 .8-.1 1-.4.3-.3.4-.7.4-1.2s-.1-.9-.4-1.2c-.2-.2-.6-.4-1.1-.4h-1.6v3.2zm7.5 5.7h-1.2v-10.5h1.2V389zm1.7-4c0-1.1.3-1.9.8-2.6.5-.6 1.2-.9 2.1-.9s1.5.3 2.1.9c.5.6.8 1.4.8 2.5v.8c0 1.1-.3 1.9-.8 2.5-.5.6-1.2.9-2.1.9-.9 0-1.5-.3-2.1-.9-.5-.6-.8-1.4-.8-2.5v-.7zm1.2.7c0 .8.1 1.4.4 1.8.3.4.7.7 1.2.7 1.1 0 1.6-.8 1.6-2.3v-.9c0-.8-.2-1.4-.5-1.8-.3-.4-.7-.7-1.2-.7s-.9.2-1.2.7c-.3.4-.4 1-.4 1.8v.7zm5.8-.7c0-1.2.2-2 .6-2.6.4-.6 1-.9 1.8-.9s1.3.3 1.7 1l.1-.8h1.1v7.5c0 .9-.2 1.6-.7 2.1-.5.5-1.1.7-2 .7-.4 0-.8-.1-1.2-.3-.5-.2-.8-.4-1-.7l.5-.8c.5.5 1.1.7 1.7.7 1 0 1.5-.5 1.6-1.6v-1c-.4.6-.9.9-1.7.9-.8 0-1.4-.3-1.8-.9-.4-.6-.7-1.4-.7-2.5v-.8zm1.2.7c0 .8.1 1.4.4 1.8s.6.6 1.2.6 1.1-.3 1.4-.9v-3.7c-.3-.6-.8-.9-1.3-.9-.6 0-1 .2-1.2.6s-.4 1-.4 1.8v.7zm11.7 2.4c.4 0 .7-.1 1-.4.2-.2.4-.6.4-1.1h1.1c0 .7-.3 1.3-.8 1.8s-1.1.7-1.7.7c-.9 0-1.6-.3-2.1-.9-.5-.6-.7-1.4-.7-2.6v-.8c0-1.1.2-2 .7-2.5s1.2-.9 2.1-.9c.8 0 1.4.2 1.8.7s.7 1.1.7 2h-1.1c0-.5-.2-1-.4-1.2s-.6-.4-1-.4c-.5 0-.9.2-1.2.5-.3.4-.4.9-.4 1.7v.9c0 .9.1 1.5.4 1.8.3.5.7.7 1.2.7zm7.7.9c-.1-.2-.1-.4-.2-.8-.4.6-1 .9-1.6.9-.7 0-1.2-.2-1.6-.6s-.6-.9-.6-1.6c0-.8.3-1.3.8-1.8.5-.4 1.2-.7 2.1-.7h.9v-.8c0-.4-.1-.8-.3-.9-.2-.2-.5-.3-.9-.3s-.7.1-.9.3c-.2.2-.3.5-.3.8h-1.2c0-.4.1-.7.3-1.1.2-.3.5-.6.9-.8.4-.2.8-.3 1.3-.3.8 0 1.3.2 1.7.6s.6.9.6 1.6v3.7c0 .6.1 1.1.2 1.5v.1h-1.2zm-1.6-1c.3 0 .6-.1.8-.2s.5-.4.6-.6v-1.8h-.7c-.6 0-1 .1-1.4.4-.3.2-.5.6-.5 1s.1.7.3.9c.3.2.5.3.9.3zm6.1-8.2v1.8h1.1v1h-1.1v4.6c0 .3 0 .5.1.7s.3.2.5.2.3 0 .5-.1v1c-.3.1-.6.1-.8.1-.5 0-.8-.2-1.1-.5s-.4-.8-.4-1.4v-4.6h-1.1v-1h1.1v-1.8h1.2zm5.2 9.3c-.9 0-1.6-.3-2.1-.8s-.7-1.4-.8-2.4v-.9c0-1.1.2-2 .7-2.6.5-.6 1.2-.9 2-.9.9 0 1.5.3 1.9.8.4.6.6 1.4.7 2.6v.8h-4.1v.2c0 .8.1 1.4.4 1.7.3.4.7.5 1.3.5.4 0 .7-.1.9-.2.3-.1.5-.3.8-.6l.6.8c-.4.7-1.2 1-2.3 1zm-.1-6.6c-.5 0-.9.2-1.1.5-.2.3-.4.9-.4 1.6h2.9v-.2c0-.7-.2-1.2-.4-1.5s-.6-.4-1-.4zm3.8 2.5c0-1.2.2-2 .6-2.6.4-.6 1-.9 1.8-.9s1.3.3 1.7 1l.1-.8h1.1v7.5c0 .9-.2 1.6-.7 2.1-.5.5-1.1.7-2 .7-.4 0-.8-.1-1.2-.3-.5-.2-.8-.4-1-.7l.5-.8c.5.5 1.1.7 1.7.7 1 0 1.5-.5 1.6-1.6v-1c-.4.6-.9.9-1.7.9-.8 0-1.4-.3-1.8-.9-.4-.6-.7-1.4-.7-2.5v-.8zm1.2.7c0 .8.1 1.4.4 1.8s.6.6 1.2.6 1.1-.3 1.4-.9v-3.7c-.3-.6-.8-.9-1.3-.9-.6 0-1 .2-1.2.6s-.4 1-.4 1.8v.7zm5.7-.7c0-1.1.3-1.9.8-2.6.5-.6 1.2-.9 2.1-.9s1.5.3 2.1.9c.5.6.8 1.4.8 2.5v.8c0 1.1-.3 1.9-.8 2.5-.5.6-1.2.9-2.1.9-.9 0-1.5-.3-2.1-.9-.5-.6-.8-1.4-.8-2.5v-.7zm1.2.7c0 .8.1 1.4.4 1.8.3.4.7.7 1.2.7 1.1 0 1.6-.8 1.6-2.3v-.9c0-.8-.2-1.4-.5-1.8-.3-.4-.7-.7-1.2-.7s-.9.2-1.2.7c-.3.4-.4 1-.4 1.8v.7zm9.1-3h-.5c-.6 0-1.1.3-1.3 1v5.3h-1.2v-7.4h1.2v.8c.3-.6.8-.9 1.4-.9.2 0 .4 0 .5.1l-.1 1.1zm3.2 4.3l1.3-5.4h1.3l-2.4 8.4c-.2.6-.4 1.1-.8 1.4-.3.3-.7.5-1.1.5-.2 0-.4 0-.6-.1v-1h.3c.4 0 .6-.1.8-.2.2-.2.4-.5.5-.9l.2-.8-2.2-7.3h1.3l1.4 5.4zM71.8 182v-10.7h3.3c1.1 0 2 .2 2.5.7.6.5.9 1.2.9 2.2 0 .5-.1 1-.4 1.4s-.6.7-1 .9c.5.1.8.4 1.1.8s.4.9.4 1.5c0 1-.3 1.8-.9 2.3-.6.5-1.4.8-2.5.8h-3.4zm2.2-4.6v2.8h1.4c.4 0 .7-.1.9-.4s.3-.6.3-1c0-1-.3-1.4-1-1.5H74zm0-1.6h1.1c.8 0 1.3-.4 1.3-1.3 0-.5-.1-.8-.3-1s-.5-.3-1-.3H74v2.6zm8.9 4.4h3.8v1.8h-5.9v-10.7H83v8.9zm12.5-2.6c0 1.4-.3 2.5-1 3.3-.7.8-1.6 1.2-2.8 1.2-1.2 0-2.1-.4-2.8-1.2-.7-.8-1-1.9-1-3.3v-1.8c0-1.5.3-2.6 1-3.4.7-.8 1.6-1.2 2.8-1.2 1.2 0 2.1.4 2.8 1.2.7.8 1 1.9 1 3.4v1.8zm-2.1-1.8c0-1-.1-1.7-.4-2.1-.3-.5-.7-.7-1.3-.7-.6 0-1 .2-1.3.7-.3.5-.4 1.1-.4 2.1v1.9c0 .9.1 1.6.4 2.1.3.4.7.7 1.3.7.6 0 1-.2 1.3-.6.3-.4.4-1.1.4-2v-2.1zm11.4 5c-.4.4-.9.8-1.5 1-.6.2-1.3.3-2 .3-1.2 0-2.2-.4-2.9-1.1-.7-.8-1-1.9-1-3.3v-1.9c0-1.5.3-2.6 1-3.4.6-.8 1.6-1.2 2.8-1.2 1.2 0 2 .3 2.6.9s.9 1.5 1 2.7h-2.1c-.1-.7-.2-1.1-.4-1.4s-.6-.4-1.1-.4c-.6 0-1 .2-1.3.6s-.4 1.1-.4 2v1.9c0 1 .1 1.7.4 2.1s.8.7 1.4.7c.4 0 .8-.1 1-.3l.2-.1v-2H101v-1.6h3.7v4.5zm8.1-2.6v3.8h-2.2v-10.7h3.6c1.1 0 1.9.3 2.5 1s.9 1.5.9 2.5-.3 1.9-.9 2.5-1.5.9-2.6.9h-1.3zm0-1.7h1.5c.4 0 .7-.1 1-.4s.3-.7.3-1.2-.1-1-.3-1.3-.5-.5-.9-.5h-1.5v3.4zm14.4 1.1c0 1.4-.3 2.5-1 3.3-.7.8-1.6 1.2-2.8 1.2-1.2 0-2.1-.4-2.8-1.2-.7-.8-1-1.9-1-3.3v-1.8c0-1.5.3-2.6 1-3.4.7-.8 1.6-1.2 2.8-1.2 1.2 0 2.1.4 2.8 1.2.7.8 1 1.9 1 3.4v1.8zm-2.2-1.8c0-1-.1-1.7-.4-2.1-.3-.5-.7-.7-1.3-.7-.6 0-1 .2-1.3.7-.3.5-.4 1.1-.4 2.1v1.9c0 .9.1 1.6.4 2.1.3.4.7.7 1.3.7.6 0 1-.2 1.3-.6.3-.4.4-1.1.4-2v-2.1zm8.7 3.4c0-.4-.1-.8-.3-1s-.6-.5-1.2-.7c-1.1-.4-1.8-.9-2.3-1.4-.5-.5-.7-1.2-.7-1.9 0-.9.3-1.6 1-2.2.6-.5 1.4-.8 2.4-.8.7 0 1.2.1 1.8.4.5.3.9.7 1.2 1.2.3.5.4 1.1.4 1.7h-2.1c0-.5-.1-.9-.3-1.1s-.5-.4-.9-.4-.7.1-.9.3c-.2.2-.3.5-.3.9 0 .3.1.6.4.8.2.2.6.5 1.2.7 1 .4 1.8.8 2.3 1.4.5.5.7 1.2.7 2.1 0 .9-.3 1.7-.9 2.2-.6.5-1.4.8-2.4.8-.7 0-1.3-.1-1.9-.4-.6-.3-1-.7-1.3-1.2-.3-.5-.5-1.1-.5-1.9h2.2c0 .6.1 1.1.4 1.3.2.3.6.4 1.2.4.4 0 .8-.4.8-1.2zm11-6.1h-2.6v8.9h-2.2v-8.9h-2.6v-1.8h7.4v1.8zm6.1 6.1c0-.4-.1-.8-.3-1s-.6-.5-1.2-.7c-1.1-.4-1.8-.9-2.3-1.4s-.7-1.2-.7-1.9c0-.9.3-1.6 1-2.2s1.4-.8 2.4-.8c.7 0 1.2.1 1.8.4s.9.7 1.2 1.2.4 1.1.4 1.7H151c0-.5-.1-.9-.3-1.1s-.5-.4-.9-.4-.7.1-.9.3-.3.5-.3.9c0 .3.1.6.4.8s.6.5 1.2.7c1 .4 1.8.8 2.3 1.4s.7 1.2.7 2.1c0 .9-.3 1.7-.9 2.2s-1.4.8-2.4.8c-.7 0-1.3-.1-1.9-.4s-1-.7-1.3-1.2-.5-1.1-.5-1.9h2.2c0 .6.1 1.1.4 1.3s.6.4 1.2.4c.4 0 .8-.4.8-1.2z"/>
  <path fill="#E4E7EF" d="M772.4 176c.2.7-.1 1.3 0 2H831v217H621V178h21.5v-2H619v221h214V176h-60.6z"/>
  <path fill="#575B66" d="M660 221.6c-.8 0-1.4-.3-2-.8s-.8-1.2-.8-2 .3-1.5.8-2 1.2-.8 2-.8 1.5.3 2 .8c.6.6.8 1.2.8 2s-.3 1.5-.9 2-1.1.8-1.9.8zm27.9-7.5h-2.6v8.9H684v-8.9h-2.6V213h6.5v1.1zm1 4.9c0-1.1.3-1.9.8-2.6s1.2-.9 2.1-.9 1.5.3 2.1.9.8 1.4.8 2.5v.8c0 1.1-.3 1.9-.8 2.5s-1.2.9-2.1.9c-.9 0-1.5-.3-2.1-.9s-.8-1.4-.8-2.5v-.7zm1.2.7c0 .8.1 1.4.4 1.8s.7.7 1.2.7c1.1 0 1.6-.8 1.6-2.3v-.9c0-.8-.2-1.4-.5-1.8-.3-.4-.7-.7-1.2-.7s-.9.2-1.2.7c-.3.4-.4 1-.4 1.8v.7zm5.9-.7c0-1.1.3-1.9.8-2.6s1.2-.9 2.1-.9 1.5.3 2.1.9.8 1.4.8 2.5v.8c0 1.1-.3 1.9-.8 2.5s-1.2.9-2.1.9c-.9 0-1.5-.3-2.1-.9s-.8-1.4-.8-2.5v-.7zm1.2.7c0 .8.1 1.4.4 1.8s.7.7 1.2.7c1.1 0 1.6-.8 1.6-2.3v-.9c0-.8-.2-1.4-.5-1.8-.3-.4-.7-.7-1.2-.7s-.9.2-1.2.7c-.3.4-.4 1-.4 1.8v.7zm7.3 3.3h-1.2v-10.5h1.2V223zm6.3-7.4v.8c.5-.6 1.1-.9 1.8-.9 1.3 0 2 .9 2 2.6v4.9h-1.2v-4.9c0-.6-.1-1-.3-1.2s-.5-.4-.9-.4c-.3 0-.6.1-.8.3s-.4.5-.6.8v5.4h-1.2v-7.4h1.2zm9.4 7.4c-.1-.2-.1-.4-.2-.8-.4.6-1 .9-1.6.9-.7 0-1.2-.2-1.6-.6s-.6-.9-.6-1.6c0-.8.3-1.3.8-1.8s1.2-.7 2.1-.7h.9v-.8c0-.4-.1-.8-.3-.9s-.5-.3-.9-.3-.7.1-.9.3-.3.5-.3.8h-1.2c0-.4.1-.7.3-1.1s.5-.6.9-.8.8-.3 1.3-.3c.8 0 1.3.2 1.7.6s.6.9.6 1.6v3.7c0 .6.1 1.1.2 1.5v.1h-1.2zm-1.6-1c.3 0 .6-.1.8-.2s.5-.4.6-.6v-1.8h-.7c-.6 0-1 .1-1.4.4s-.5.6-.5 1 .1.7.3.9.5.3.9.3zm5.7-6.4v.7c.5-.5 1-.8 1.8-.8s1.4.4 1.7 1.1c.5-.7 1.1-1.1 1.9-1.1 1.4 0 2.1.8 2.1 2.5v5h-1.2v-4.9c0-.5-.1-.9-.3-1.2s-.5-.4-1-.4c-.4 0-.7.1-.9.4s-.4.6-.4 1.1v5h-1.2v-4.9c0-1-.4-1.5-1.3-1.5-.6 0-1 .3-1.3.9v5.5H723v-7.4h1.3zm12 7.5c-.9 0-1.6-.3-2.1-.8s-.7-1.4-.8-2.4v-.9c0-1.1.2-2 .7-2.6s1.2-.9 2-.9c.9 0 1.5.3 1.9.8s.6 1.4.7 2.6v.8h-4.1v.2c0 .8.1 1.4.4 1.7s.7.5 1.3.5c.4 0 .7-.1.9-.2s.5-.3.8-.6l.6.8c-.4.7-1.2 1-2.3 1zm-.1-6.6c-.5 0-.9.2-1.1.5s-.4.9-.4 1.6h2.9v-.2c0-.7-.2-1.2-.4-1.5s-.6-.4-1-.4zM660 249.6c-.8 0-1.4-.3-2-.8s-.8-1.2-.8-2 .3-1.5.8-2 1.2-.8 2-.8 1.5.3 2 .8c.6.6.8 1.2.8 2s-.3 1.5-.9 2-1.1.8-1.9.8zm27.9-7.5h-2.6v8.9H684v-8.9h-2.6V241h6.5v1.1zm1 4.9c0-1.1.3-1.9.8-2.6s1.2-.9 2.1-.9 1.5.3 2.1.9.8 1.4.8 2.5v.8c0 1.1-.3 1.9-.8 2.5s-1.2.9-2.1.9c-.9 0-1.5-.3-2.1-.9s-.8-1.4-.8-2.5v-.7zm1.2.7c0 .8.1 1.4.4 1.8s.7.7 1.2.7c1.1 0 1.6-.8 1.6-2.3v-.9c0-.8-.2-1.4-.5-1.8-.3-.4-.7-.7-1.2-.7s-.9.2-1.2.7c-.3.4-.4 1-.4 1.8v.7zm5.9-.7c0-1.1.3-1.9.8-2.6s1.2-.9 2.1-.9 1.5.3 2.1.9.8 1.4.8 2.5v.8c0 1.1-.3 1.9-.8 2.5s-1.2.9-2.1.9c-.9 0-1.5-.3-2.1-.9s-.8-1.4-.8-2.5v-.7zm1.2.7c0 .8.1 1.4.4 1.8s.7.7 1.2.7c1.1 0 1.6-.8 1.6-2.3v-.9c0-.8-.2-1.4-.5-1.8-.3-.4-.7-.7-1.2-.7s-.9.2-1.2.7c-.3.4-.4 1-.4 1.8v.7zm7.3 3.3h-1.2v-10.5h1.2V251zm6.5 0h-1.2v-10.5h1.2V251zm1.6-4c0-1.1.3-1.9.8-2.6s1.2-.9 2.1-.9 1.5.3 2.1.9.8 1.4.8 2.5v.8c0 1.1-.3 1.9-.8 2.5s-1.2.9-2.1.9c-.9 0-1.5-.3-2.1-.9s-.8-1.4-.8-2.5v-.7zm1.2.7c0 .8.1 1.4.4 1.8s.7.7 1.2.7c1.1 0 1.6-.8 1.6-2.3v-.9c0-.8-.2-1.4-.5-1.8-.3-.4-.7-.7-1.2-.7s-.9.2-1.2.7c-.3.4-.4 1-.4 1.8v.7zm5.9-.7c0-1.2.2-2 .6-2.6.4-.6 1-.9 1.8-.9s1.3.3 1.7 1l.1-.8h1.1v7.5c0 .9-.2 1.6-.7 2.1s-1.1.7-2 .7c-.4 0-.8-.1-1.2-.3s-.8-.4-1-.7l.5-.8c.5.5 1.1.7 1.7.7 1 0 1.5-.5 1.6-1.6v-1c-.4.6-.9.9-1.7.9-.8 0-1.4-.3-1.8-.9s-.7-1.4-.7-2.5v-.8zm1.2.7c0 .8.1 1.4.4 1.8s.6.6 1.2.6 1.1-.3 1.4-.9v-3.7c-.3-.6-.8-.9-1.3-.9-.6 0-1 .2-1.2.6s-.4 1-.4 1.8v.7zm5.6-.7c0-1.1.3-1.9.8-2.6s1.2-.9 2.1-.9 1.5.3 2.1.9.8 1.4.8 2.5v.8c0 1.1-.3 1.9-.8 2.5s-1.2.9-2.1.9c-.9 0-1.5-.3-2.1-.9s-.8-1.4-.8-2.5v-.7zm1.2.7c0 .8.1 1.4.4 1.8s.7.7 1.2.7c1.1 0 1.6-.8 1.6-2.3v-.9c0-.8-.2-1.4-.5-1.8-.3-.4-.7-.7-1.2-.7s-.9.2-1.2.7c-.3.4-.4 1-.4 1.8v.7zM660 277.6c-.8 0-1.4-.3-2-.8-.6-.6-.8-1.2-.8-2s.3-1.5.8-2 1.2-.8 2-.8 1.5.3 2 .8c.6.6.8 1.2.8 2s-.3 1.5-.9 2-1.1.8-1.9.8zm22.1 1.4v-10h2.4c1.2 0 2.1.4 2.7 1.1.6.7 1 1.7 1 3.1v1.7c0 1.3-.3 2.3-1 3.1s-1.6 1.1-2.8 1.1h-2.3zm1.2-8.9v7.8h1c.9 0 1.5-.3 1.9-.8.4-.5.6-1.2.6-2.2v-1.8c0-1-.2-1.8-.6-2.3-.4-.5-1-.7-1.8-.7h-1.1zm9.2 9c-.9 0-1.6-.3-2.1-.8s-.7-1.4-.8-2.4v-.9c0-1.1.2-2 .7-2.6.5-.6 1.2-.9 2-.9.9 0 1.5.3 1.9.8.4.6.6 1.4.7 2.6v.8h-4.1v.2c0 .8.1 1.4.4 1.7.3.4.7.5 1.3.5.4 0 .7-.1.9-.2.3-.1.5-.3.8-.6l.6.8c-.4.7-1.2 1-2.3 1zm-.1-6.6c-.5 0-.9.2-1.1.5-.2.3-.4.9-.4 1.6h2.9v-.2c0-.7-.2-1.2-.4-1.5s-.5-.4-1-.4zm7.6 4.6c0-.3-.1-.5-.3-.7-.2-.2-.6-.4-1.1-.7-.7-.3-1.1-.5-1.4-.7s-.5-.4-.6-.7c-.1-.2-.2-.5-.2-.9 0-.6.2-1.1.7-1.5.4-.4 1-.6 1.7-.6s1.3.2 1.7.6c.4.4.7 1 .7 1.6H700c0-.3-.1-.6-.3-.9-.2-.2-.5-.4-.9-.4s-.6.1-.8.3-.3.4-.3.7c0 .2.1.4.2.6s.5.3 1.1.6c.9.4 1.5.7 1.8 1s.5.8.5 1.3c0 .6-.2 1.2-.7 1.5-.4.4-1 .6-1.8.6s-1.4-.2-1.9-.7c-.5-.4-.7-1-.7-1.7h1.2c0 .4.1.7.4 1s.6.3 1 .3.7-.1.9-.3c.2.3.3 0 .3-.3zm5.4 1c.4 0 .7-.1 1-.4.2-.2.4-.6.4-1.1h1.1c0 .7-.3 1.3-.8 1.8s-1.1.7-1.7.7c-.9 0-1.6-.3-2.1-.9-.5-.6-.7-1.4-.7-2.6v-.8c0-1.1.2-2 .7-2.5s1.2-.9 2.1-.9c.8 0 1.4.2 1.8.7s.7 1.1.7 2h-1.1c0-.5-.2-1-.4-1.2s-.6-.4-1-.4c-.5 0-.9.2-1.2.5-.3.4-.4.9-.4 1.7v.9c0 .9.1 1.5.4 1.8.2.5.6.7 1.2.7zm6.9-5.4h-.5c-.6 0-1.1.3-1.3 1v5.3h-1.2v-7.4h1.2v.8c.3-.6.8-.9 1.4-.9.2 0 .4 0 .5.1l-.1 1.1zm2.6 6.3h-1.2v-7.4h1.2v7.4zm.1-9.4c0 .2-.1.4-.2.5s-.3.2-.5.2-.4-.1-.5-.2-.2-.3-.2-.5.1-.4.2-.5c.1-.1.3-.2.5-.2s.4.1.5.2.2.3.2.5zm7.1 6.1c0 1.2-.2 2-.6 2.6s-1 .9-1.8.9c-.7 0-1.3-.3-1.7-.8v3.5h-1.2v-10.2h1.1l.1.8c.4-.6 1-1 1.7-1 .8 0 1.4.3 1.8.8.4.6.6 1.4.6 2.5v.9zm-1.2-.7c0-.8-.1-1.4-.4-1.8-.3-.4-.7-.6-1.2-.6-.6 0-1 .3-1.3.9v3.8c.3.6.7.8 1.3.8.5 0 .9-.2 1.2-.6.3-.4.4-1 .4-1.8v-.7zm4.3-5.2v1.8h1.1v1h-1.1v4.6c0 .3 0 .5.1.7s.3.2.5.2.3 0 .5-.1v1c-.3.1-.6.1-.8.1-.5 0-.8-.2-1.1-.5s-.4-.8-.4-1.4v-4.6h-1.1v-1h1.1v-1.8h1.2zm3.9 9.2h-1.2v-7.4h1.2v7.4zm.1-9.4c0 .2-.1.4-.2.5s-.3.2-.5.2-.4-.1-.5-.2-.2-.3-.2-.5.1-.4.2-.5c.1-.1.3-.2.5-.2s.4.1.5.2.2.3.2.5zm1.6 5.4c0-1.1.3-1.9.8-2.6.5-.6 1.2-.9 2.1-.9s1.5.3 2.1.9c.5.6.8 1.4.8 2.5v.8c0 1.1-.3 1.9-.8 2.5-.5.6-1.2.9-2.1.9-.9 0-1.5-.3-2.1-.9-.5-.6-.8-1.4-.8-2.5v-.7zm1.2.7c0 .8.1 1.4.4 1.8.3.4.7.7 1.2.7 1.1 0 1.6-.8 1.6-2.3v-.9c0-.8-.2-1.4-.5-1.8-.3-.4-.7-.7-1.2-.7s-.9.2-1.2.7c-.3.4-.4 1-.4 1.8v.7zm7.2-4.1v.8c.5-.6 1.1-.9 1.8-.9 1.3 0 2 .9 2 2.6v4.9h-1.2v-4.9c0-.6-.1-1-.3-1.2-.2-.2-.5-.4-.9-.4-.3 0-.6.1-.8.3-.2.2-.4.5-.6.8v5.4H738v-7.4h1.2zm9.1 8.3h-1l3.5-10.8h1l-3.5 10.8zm9.7-10.1v1.8h1.1v1H758v4.6c0 .3 0 .5.1.7s.3.2.5.2.3 0 .5-.1v1c-.3.1-.6.1-.8.1-.5 0-.8-.2-1.1-.5s-.4-.8-.4-1.4v-4.6h-1.1v-1h1.1v-1.8h1.2zm6.3 8.6c-.4.5-1 .8-1.8.8-.7 0-1.2-.2-1.5-.7-.3-.5-.5-1.1-.5-2v-4.8h1.2v4.7c0 1.2.3 1.7 1 1.7s1.2-.3 1.5-1v-5.5h1.2v7.4h-1.1v-.6zm4.6-8.6v1.8h1.1v1h-1.1v4.6c0 .3 0 .5.1.7s.3.2.5.2.3 0 .5-.1v1c-.3.1-.6.1-.8.1-.5 0-.8-.2-1.1-.5s-.4-.8-.4-1.4v-4.6h-1.1v-1h1.1v-1.8h1.2zm2.3 5.2c0-1.1.3-1.9.8-2.6.5-.6 1.2-.9 2.1-.9s1.5.3 2.1.9c.5.6.8 1.4.8 2.5v.8c0 1.1-.3 1.9-.8 2.5-.5.6-1.2.9-2.1.9-.9 0-1.5-.3-2.1-.9-.5-.6-.8-1.4-.8-2.5v-.7zm1.2.7c0 .8.1 1.4.4 1.8.3.4.7.7 1.2.7 1.1 0 1.6-.8 1.6-2.3v-.9c0-.8-.2-1.4-.5-1.8-.3-.4-.7-.7-1.2-.7s-.9.2-1.2.7c-.3.4-.4 1-.4 1.8v.7zm9.1-3h-.5c-.6 0-1.1.3-1.3 1v5.3h-1.2v-7.4h1.2v.8c.3-.6.8-.9 1.4-.9.2 0 .4 0 .5.1l-.1 1.1zm2.5 6.3h-1.2v-7.4h1.2v7.4zm.1-9.4c0 .2-.1.4-.2.5s-.3.2-.5.2-.4-.1-.5-.2-.2-.3-.2-.5.1-.4.2-.5c.1-.1.3-.2.5-.2s.4.1.5.2.2.3.2.5zm5.6 9.4c-.1-.2-.1-.4-.2-.8-.4.6-1 .9-1.6.9-.7 0-1.2-.2-1.6-.6s-.6-.9-.6-1.6c0-.8.3-1.3.8-1.8.5-.4 1.2-.7 2.1-.7h.9v-.8c0-.4-.1-.8-.3-.9-.2-.2-.5-.3-.9-.3s-.7.1-.9.3c-.2.2-.3.5-.3.8h-1.2c0-.4.1-.7.3-1.1.2-.3.5-.6.9-.8.4-.2.8-.3 1.3-.3.8 0 1.3.2 1.7.6s.6.9.6 1.6v3.7c0 .6.1 1.1.2 1.5v.1h-1.2zm-1.6-1c.3 0 .6-.1.8-.2s.5-.4.6-.6v-1.8h-.7c-.6 0-1 .1-1.4.4-.3.2-.5.6-.5 1s.1.7.3.9c.2.2.5.3.9.3zm5.9 1h-1.2v-10.5h1.2V279zm-134 26.6c-.8 0-1.4-.3-2-.8-.6-.6-.8-1.2-.8-2s.3-1.5.8-2 1.2-.8 2-.8 1.5.3 2 .8c.6.6.8 1.2.8 2s-.3 1.5-.9 2-1.1.8-1.9.8zm24.9-.5l2.3-8h1.4l-3.1 10h-1.1l-3.1-10h1.4l2.2 8zm6.1 1.9h-1.2v-7.4h1.2v7.4zm.1-9.4c0 .2-.1.4-.2.5s-.3.2-.5.2-.4-.1-.5-.2-.2-.3-.2-.5.1-.4.2-.5c.1-.1.3-.2.5-.2s.4.1.5.2.2.3.2.5zm1.6 5.4c0-1.1.2-2 .6-2.6.4-.6 1-.9 1.8-.9.7 0 1.3.3 1.7.9v-3.8h1.2V307h-1.1l-.1-.8c-.4.6-1 .9-1.7.9-.8 0-1.4-.3-1.8-.9s-.7-1.4-.7-2.5v-.7zm1.2.7c0 .8.1 1.4.4 1.8s.6.6 1.2.6 1.1-.3 1.3-.9v-3.7c-.3-.6-.8-.9-1.3-.9-.6 0-1 .2-1.2.6s-.4 1-.4 1.8v.7zm8.6 3.4c-.9 0-1.6-.3-2.1-.8s-.7-1.4-.8-2.4v-.9c0-1.1.2-2 .7-2.6.5-.6 1.2-.9 2-.9.9 0 1.5.3 1.9.8.4.6.6 1.4.7 2.6v.8h-4.1v.2c0 .8.1 1.4.4 1.7.3.4.7.5 1.3.5.4 0 .7-.1.9-.2.3-.1.5-.3.8-.6l.6.8c-.4.7-1.2 1-2.3 1zm-.1-6.6c-.5 0-.9.2-1.1.5-.2.3-.4.9-.4 1.6h2.9v-.2c0-.7-.2-1.2-.4-1.5s-.5-.4-1-.4zm3.8 2.5c0-1.1.3-1.9.8-2.6.5-.6 1.2-.9 2.1-.9s1.5.3 2.1.9c.5.6.8 1.4.8 2.5v.8c0 1.1-.3 1.9-.8 2.5-.5.6-1.2.9-2.1.9-.9 0-1.5-.3-2.1-.9-.5-.6-.8-1.4-.8-2.5v-.7zm1.2.7c0 .8.1 1.4.4 1.8.3.4.7.7 1.2.7 1.1 0 1.6-.8 1.6-2.3v-.9c0-.8-.2-1.4-.5-1.8-.3-.4-.7-.7-1.2-.7s-.9.2-1.2.7c-.3.4-.4 1-.4 1.8v.7zm10.9-5.9v1.8h1.1v1h-1.1v4.6c0 .3 0 .5.1.7s.3.2.5.2.3 0 .5-.1v1c-.3.1-.6.1-.8.1-.5 0-.8-.2-1.1-.5s-.4-.8-.4-1.4v-4.6H716v-1h1.1v-1.8h1.2zm6.3 8.6c-.4.5-1 .8-1.8.8-.7 0-1.2-.2-1.5-.7-.3-.5-.5-1.1-.5-2v-4.8h1.2v4.7c0 1.2.3 1.7 1 1.7s1.2-.3 1.5-1v-5.5h1.2v7.4h-1.1v-.6zm4.6-8.6v1.8h1.1v1h-1.1v4.6c0 .3 0 .5.1.7s.3.2.5.2.3 0 .5-.1v1c-.3.1-.6.1-.8.1-.5 0-.8-.2-1.1-.5s-.4-.8-.4-1.4v-4.6h-1.1v-1h1.1v-1.8h1.2zm2.3 5.2c0-1.1.3-1.9.8-2.6.5-.6 1.2-.9 2.1-.9s1.5.3 2.1.9c.5.6.8 1.4.8 2.5v.8c0 1.1-.3 1.9-.8 2.5-.5.6-1.2.9-2.1.9-.9 0-1.5-.3-2.1-.9-.5-.6-.8-1.4-.8-2.5v-.7zm1.2.7c0 .8.1 1.4.4 1.8.3.4.7.7 1.2.7 1.1 0 1.6-.8 1.6-2.3v-.9c0-.8-.2-1.4-.5-1.8-.3-.4-.7-.7-1.2-.7s-.9.2-1.2.7c-.3.4-.4 1-.4 1.8v.7zm9.1-3h-.5c-.6 0-1.1.3-1.3 1v5.3h-1.2v-7.4h1.2v.8c.3-.6.8-.9 1.4-.9.2 0 .4 0 .5.1l-.1 1.1zm2.5 6.3h-1.2v-7.4h1.2v7.4zm.1-9.4c0 .2-.1.4-.2.5s-.3.2-.5.2-.4-.1-.5-.2-.2-.3-.2-.5.1-.4.2-.5c.1-.1.3-.2.5-.2s.4.1.5.2.2.3.2.5zm5.6 9.4c-.1-.2-.1-.4-.2-.8-.4.6-1 .9-1.6.9-.7 0-1.2-.2-1.6-.6s-.6-.9-.6-1.6c0-.8.3-1.3.8-1.8.5-.4 1.2-.7 2.1-.7h.9v-.8c0-.4-.1-.8-.3-.9-.2-.2-.5-.3-.9-.3s-.7.1-.9.3c-.2.2-.3.5-.3.8h-1.2c0-.4.1-.7.3-1.1.2-.3.5-.6.9-.8.4-.2.8-.3 1.3-.3.8 0 1.3.2 1.7.6s.6.9.6 1.6v3.7c0 .6.1 1.1.2 1.5v.1H750zm-1.6-1c.3 0 .6-.1.8-.2s.5-.4.6-.6v-1.8h-.7c-.6 0-1 .1-1.4.4-.3.2-.5.6-.5 1s.1.7.3.9c.2.2.5.3.9.3zm5.8 1H753v-10.5h1.2V307zM660 333.6c-.8 0-1.4-.3-2-.8-.6-.6-.8-1.2-.8-2s.3-1.5.8-2 1.2-.8 2-.8 1.5.3 2 .8c.6.6.8 1.2.8 2s-.3 1.5-.9 2-1.1.8-1.9.8zm25.1-2.6h-1.8v4H682v-10h2.8c1 0 1.7.3 2.2.8.5.5.8 1.3.8 2.2 0 .6-.1 1.2-.4 1.6s-.7.8-1.2 1l1.9 4.2v.1h-1.3l-1.7-3.9zm-1.8-1.1h1.5c.5 0 .9-.2 1.3-.5.3-.3.5-.8.5-1.4 0-1.3-.6-1.9-1.7-1.9h-1.5v3.8zm8.7 5.2c-.9 0-1.6-.3-2.1-.8s-.7-1.4-.8-2.4v-.9c0-1.1.2-2 .7-2.6.5-.6 1.2-.9 2-.9.9 0 1.5.3 1.9.8.4.6.6 1.4.7 2.6v.8h-4.1v.2c0 .8.1 1.4.4 1.7.3.4.7.5 1.3.5.4 0 .7-.1.9-.2.3-.1.5-.3.8-.6l.6.8c-.4.7-1.2 1-2.3 1zm-.2-6.6c-.5 0-.9.2-1.1.5-.2.3-.4.9-.4 1.6h2.9v-.2c0-.7-.2-1.2-.4-1.5s-.5-.4-1-.4zm5.4 6.5H696v-10.5h1.2V335zm5.7 0c-.1-.2-.1-.4-.2-.8-.4.6-1 .9-1.6.9-.7 0-1.2-.2-1.6-.6s-.6-.9-.6-1.6c0-.8.3-1.3.8-1.8.5-.4 1.2-.7 2.1-.7h.9v-.8c0-.4-.1-.8-.3-.9-.2-.2-.5-.3-.9-.3s-.7.1-.9.3c-.2.2-.3.5-.3.8h-1.2c0-.4.1-.7.3-1.1.2-.3.5-.6.9-.8.4-.2.8-.3 1.3-.3.8 0 1.3.2 1.7.6s.6.9.6 1.6v3.7c0 .6.1 1.1.2 1.5v.1h-1.2zm-1.6-1c.3 0 .6-.1.8-.2s.5-.4.6-.6v-1.8h-.7c-.6 0-1 .1-1.4.4-.3.2-.5.6-.5 1s.1.7.3.9c.2.2.5.3.9.3zm6.1-8.2v1.8h1.1v1h-1.1v4.6c0 .3 0 .5.1.7s.3.2.5.2.3 0 .5-.1v1c-.3.1-.6.1-.8.1-.5 0-.8-.2-1.1-.5s-.4-.8-.4-1.4v-4.6h-1.1v-1h1.1v-1.8h1.2zm5.2 9.3c-.9 0-1.6-.3-2.1-.8s-.7-1.4-.8-2.4v-.9c0-1.1.2-2 .7-2.6.5-.6 1.2-.9 2-.9.9 0 1.5.3 1.9.8.4.6.6 1.4.7 2.6v.8h-4.1v.2c0 .8.1 1.4.4 1.7.3.4.7.5 1.3.5.4 0 .7-.1.9-.2.3-.1.5-.3.8-.6l.6.8c-.4.7-1.2 1-2.3 1zm-.2-6.6c-.5 0-.9.2-1.1.5-.2.3-.4.9-.4 1.6h2.9v-.2c0-.7-.2-1.2-.4-1.5s-.5-.4-1-.4zm3.8 2.5c0-1.1.2-2 .6-2.6.4-.6 1-.9 1.8-.9.7 0 1.3.3 1.7.9v-3.8h1.2V335h-1.1l-.1-.8c-.4.6-1 .9-1.7.9-.8 0-1.4-.3-1.8-.9s-.7-1.4-.7-2.5v-.7zm1.2.7c0 .8.1 1.4.4 1.8s.6.6 1.2.6 1.1-.3 1.3-.9v-3.7c-.3-.6-.8-.9-1.3-.9-.6 0-1 .2-1.2.6s-.4 1-.4 1.8v.7zm10.8-5.9v1.8h1.1v1h-1.1v4.6c0 .3 0 .5.1.7s.3.2.5.2.3 0 .5-.1v1c-.3.1-.6.1-.8.1-.5 0-.8-.2-1.1-.5s-.4-.8-.4-1.4v-4.6h-1.1v-1h1.1v-1.8h1.2zm5.2 9.3c-.9 0-1.6-.3-2.1-.8s-.7-1.4-.8-2.4v-.9c0-1.1.2-2 .7-2.6.5-.6 1.2-.9 2-.9.9 0 1.5.3 1.9.8.4.6.6 1.4.7 2.6v.8h-4.1v.2c0 .8.1 1.4.4 1.7.3.4.7.5 1.3.5.4 0 .7-.1.9-.2.3-.1.5-.3.8-.6l.6.8c-.4.7-1.2 1-2.3 1zm-.1-6.6c-.5 0-.9.2-1.1.5-.2.3-.4.9-.4 1.6h2.9v-.2c0-.7-.2-1.2-.4-1.5s-.6-.4-1-.4zm7.6 4.6c0-.3-.1-.5-.3-.7-.2-.2-.6-.4-1.1-.7-.7-.3-1.1-.5-1.4-.7s-.5-.4-.6-.7c-.1-.2-.2-.5-.2-.9 0-.6.2-1.1.7-1.5.4-.4 1-.6 1.7-.6s1.3.2 1.7.6c.4.4.7 1 .7 1.6h-1.2c0-.3-.1-.6-.3-.9-.2-.2-.5-.4-.9-.4s-.6.1-.8.3-.3.4-.3.7c0 .2.1.4.2.6s.5.3 1.1.6c.9.4 1.5.7 1.8 1s.5.8.5 1.3c0 .6-.2 1.2-.7 1.5-.4.4-1 .6-1.8.6s-1.4-.2-1.9-.7c-.5-.4-.7-1-.7-1.7h1.2c0 .4.1.7.4 1s.6.3 1 .3.7-.1.9-.3c.2.3.3 0 .3-.3zm4.4-7.3v1.8h1.1v1h-1.1v4.6c0 .3 0 .5.1.7s.3.2.5.2.3 0 .5-.1v1c-.3.1-.6.1-.8.1-.5 0-.8-.2-1.1-.5s-.4-.8-.4-1.4v-4.6H743v-1h1.1v-1.8h1.2zm3.9 9.2H748v-7.4h1.2v7.4zm0-9.4c0 .2-.1.4-.2.5s-.3.2-.5.2-.4-.1-.5-.2-.2-.3-.2-.5.1-.4.2-.5c.1-.1.3-.2.5-.2s.4.1.5.2.2.3.2.5zm3 2v.7c.5-.5 1-.8 1.8-.8s1.4.4 1.7 1.1c.5-.7 1.1-1.1 1.9-1.1 1.4 0 2.1.8 2.1 2.5v5h-1.2v-4.9c0-.5-.1-.9-.3-1.2-.2-.3-.5-.4-1-.4-.4 0-.7.1-.9.4-.2.3-.4.6-.4 1.1v5h-1.2v-4.9c0-1-.4-1.5-1.3-1.5-.6 0-1 .3-1.3.9v5.5h-1.2v-7.4h1.3zm9.1 3.4c0-1.1.3-1.9.8-2.6.5-.6 1.2-.9 2.1-.9s1.5.3 2.1.9c.5.6.8 1.4.8 2.5v.8c0 1.1-.3 1.9-.8 2.5-.5.6-1.2.9-2.1.9-.9 0-1.5-.3-2.1-.9-.5-.6-.8-1.4-.8-2.5v-.7zm1.2.7c0 .8.1 1.4.4 1.8.3.4.7.7 1.2.7 1.1 0 1.6-.8 1.6-2.3v-.9c0-.8-.2-1.4-.5-1.8-.3-.4-.7-.7-1.2-.7s-.9.2-1.2.7c-.3.4-.4 1-.4 1.8v.7zm7.3-4.1v.8c.5-.6 1.1-.9 1.8-.9 1.3 0 2 .9 2 2.6v4.9h-1.2v-4.9c0-.6-.1-1-.3-1.2-.2-.2-.5-.4-.9-.4-.3 0-.6.1-.8.3-.2.2-.4.5-.6.8v5.4h-1.2v-7.4h1.2zm6.9 7.4h-1.2v-7.4h1.2v7.4zm.1-9.4c0 .2-.1.4-.2.5s-.3.2-.5.2-.4-.1-.5-.2-.2-.3-.2-.5.1-.4.2-.5c.1-.1.3-.2.5-.2s.4.1.5.2.2.3.2.5zm5.6 9.4c-.1-.2-.1-.4-.2-.8-.4.6-1 .9-1.6.9-.7 0-1.2-.2-1.6-.6s-.6-.9-.6-1.6c0-.8.3-1.3.8-1.8.5-.4 1.2-.7 2.1-.7h.9v-.8c0-.4-.1-.8-.3-.9-.2-.2-.5-.3-.9-.3s-.7.1-.9.3c-.2.2-.3.5-.3.8h-1.2c0-.4.1-.7.3-1.1.2-.3.5-.6.9-.8.4-.2.8-.3 1.3-.3.8 0 1.3.2 1.7.6s.6.9.6 1.6v3.7c0 .6.1 1.1.2 1.5v.1h-1.2zm-1.6-1c.3 0 .6-.1.8-.2s.5-.4.6-.6v-1.8h-.7c-.6 0-1 .1-1.4.4-.3.2-.5.6-.5 1s.1.7.3.9c.2.2.5.3.9.3zm5.8 1h-1.2v-10.5h1.2V335zm5.5-1.9c0-.3-.1-.5-.3-.7-.2-.2-.6-.4-1.1-.7-.7-.3-1.1-.5-1.4-.7s-.5-.4-.6-.7c-.1-.2-.2-.5-.2-.9 0-.6.2-1.1.7-1.5.4-.4 1-.6 1.7-.6s1.3.2 1.7.6c.4.4.7 1 .7 1.6H792c0-.3-.1-.6-.3-.9-.2-.2-.5-.4-.9-.4s-.6.1-.8.3-.3.4-.3.7c0 .2.1.4.2.6s.5.3 1.1.6c.9.4 1.5.7 1.8 1s.5.8.5 1.3c0 .6-.2 1.2-.7 1.5-.4.4-1 .6-1.8.6s-1.4-.2-1.9-.7c-.5-.4-.7-1-.7-1.7h1.2c0 .4.1.7.4 1s.6.3 1 .3.7-.1.9-.3c.3.3.4 0 .4-.3zM660 361.6c-.8 0-1.4-.3-2-.8-.6-.6-.8-1.2-.8-2s.3-1.5.8-2 1.2-.8 2-.8 1.5.3 2 .8c.6.6.8 1.2.8 2s-.3 1.5-.9 2-1.1.8-1.9.8zm26.4-1.1c0-.5-.1-.9-.4-1.1-.3-.3-.8-.5-1.5-.8-.7-.3-1.2-.5-1.6-.8-.4-.3-.6-.6-.8-.9-.2-.4-.3-.8-.3-1.2 0-.8.3-1.4.8-1.9s1.2-.8 2.1-.8c.6 0 1.1.1 1.6.4.5.3.8.6 1.1 1.1s.4 1 .4 1.5h-1.3c0-.6-.1-1.1-.4-1.4-.3-.3-.7-.5-1.3-.5-.5 0-.9.1-1.2.4-.3.3-.4.7-.4 1.2 0 .4.2.8.5 1.1.3.3.8.5 1.4.8 1 .3 1.7.7 2.1 1.2.4.5.6 1.1.6 1.9 0 .8-.3 1.5-.8 1.9s-1.2.7-2.1.7c-.6 0-1.1-.1-1.6-.4s-.9-.6-1.2-1.1-.4-1-.4-1.6h1.3c0 .6.2 1.1.5 1.4s.8.5 1.4.5c.6 0 1-.1 1.2-.4.2-.3.3-.7.3-1.2zm2.5-1.5c0-1.1.3-1.9.8-2.6.5-.6 1.2-.9 2.1-.9s1.5.3 2.1.9c.5.6.8 1.4.8 2.5v.8c0 1.1-.3 1.9-.8 2.5-.5.6-1.2.9-2.1.9-.9 0-1.5-.3-2.1-.9-.5-.6-.8-1.4-.8-2.5v-.7zm1.2.7c0 .8.1 1.4.4 1.8.3.4.7.7 1.2.7 1.1 0 1.6-.8 1.6-2.3v-.9c0-.8-.2-1.4-.5-1.8-.3-.4-.7-.7-1.2-.7s-.9.2-1.2.7c-.3.4-.4 1-.4 1.8v.7zm9.9 2.7c-.4.5-1 .8-1.8.8-.7 0-1.2-.2-1.5-.7-.3-.5-.5-1.1-.5-2v-4.8h1.2v4.7c0 1.2.3 1.7 1 1.7s1.2-.3 1.5-1v-5.5h1.2v7.4H700v-.6zm6-5.7h-.5c-.6 0-1.1.3-1.3 1v5.3H703v-7.4h1.2v.8c.3-.6.8-.9 1.4-.9.2 0 .4 0 .5.1l-.1 1.1zm3.8 5.4c.4 0 .7-.1 1-.4.2-.2.4-.6.4-1.1h1.1c0 .7-.3 1.3-.8 1.8s-1.1.7-1.7.7c-.9 0-1.6-.3-2.1-.9-.5-.6-.7-1.4-.7-2.6v-.8c0-1.1.2-2 .7-2.5s1.2-.9 2.1-.9c.8 0 1.4.2 1.8.7s.7 1.1.7 2h-1.1c0-.5-.2-1-.4-1.2s-.6-.4-1-.4c-.5 0-.9.2-1.2.5-.3.4-.4.9-.4 1.7v.9c0 .9.1 1.5.4 1.8.2.5.6.7 1.2.7zm6.5 1c-.9 0-1.6-.3-2.1-.8s-.7-1.4-.8-2.4v-.9c0-1.1.2-2 .7-2.6.5-.6 1.2-.9 2-.9.9 0 1.5.3 1.9.8.4.6.6 1.4.7 2.6v.8h-4.1v.2c0 .8.1 1.4.4 1.7.3.4.7.5 1.3.5.4 0 .7-.1.9-.2.3-.1.5-.3.8-.6l.6.8c-.4.7-1.2 1-2.3 1zm-.1-6.6c-.5 0-.9.2-1.1.5-.2.3-.4.9-.4 1.6h2.9v-.2c0-.7-.2-1.2-.4-1.5s-.6-.4-1-.4zM661.1 182H659v-10.7h2.2V182zm9.8 0h-2.2l-3.1-7v7h-2.2v-10.7h2.2l3.2 7v-7h2.1V182zm8.9-8.9h-2.6v8.9H675v-8.9h-2.6v-1.8h7.4v1.8zm7.2 4.3h-3.4v2.8h4v1.8h-6.1v-10.7h6.1v1.8h-4v2.5h3.4v1.8zm9.6 3.4c-.4.4-.9.8-1.5 1s-1.3.3-2 .3c-1.2 0-2.2-.4-2.9-1.1s-1-1.9-1-3.3v-1.9c0-1.5.3-2.6 1-3.4s1.6-1.2 2.8-1.2c1.2 0 2 .3 2.6.9s.9 1.5 1 2.7h-2.1c-.1-.7-.2-1.1-.4-1.4s-.6-.4-1.1-.4c-.6 0-1 .2-1.3.6s-.4 1.1-.4 2v1.9c0 1 .1 1.7.4 2.1s.8.7 1.4.7c.4 0 .8-.1 1-.3l.2-.1v-2h-1.5v-1.6h3.7v4.5zm5.2-2.7h-1.1v3.9h-2.2v-10.7h3.4c1.1 0 1.9.3 2.5.8s.9 1.4.9 2.4c0 1.4-.5 2.4-1.5 3l1.9 4.4v.1h-2.3l-1.6-3.9zm-1.1-1.8h1.2c.4 0 .8-.1 1-.4s.3-.7.3-1.1c0-1.1-.4-1.6-1.3-1.6h-1.3v3.1zm11.7 3.5h-2.9l-.6 2.2h-2.3l3.3-10.7h2l3.4 10.7H713l-.6-2.2zM710 178h2l-1-3.8-1 3.8zm12.8-4.9h-2.6v8.9H718v-8.9h-2.6v-1.8h7.4v1.8zm4 8.9h-2.2v-10.7h2.2V182zm9.8-4.4c0 1.4-.3 2.5-1 3.3s-1.6 1.2-2.8 1.2c-1.2 0-2.1-.4-2.8-1.2s-1-1.9-1-3.3v-1.8c0-1.5.3-2.6 1-3.4s1.6-1.2 2.8-1.2c1.2 0 2.1.4 2.8 1.2s1 1.9 1 3.4v1.8zm-2.2-1.8c0-1-.1-1.7-.4-2.1s-.7-.7-1.3-.7c-.6 0-1 .2-1.3.7s-.4 1.1-.4 2.1v1.9c0 .9.1 1.6.4 2.1s.7.7 1.3.7c.6 0 1-.2 1.3-.6s.4-1.1.4-2v-2.1zm11.7 6.2h-2.2l-3.1-7v7h-2.2v-10.7h2.2l3.2 7v-7h2.1V182zm6.7-2.8c0-.4-.1-.8-.3-1s-.6-.5-1.2-.7c-1.1-.4-1.8-.9-2.3-1.4s-.7-1.2-.7-1.9c0-.9.3-1.6 1-2.2s1.4-.8 2.4-.8c.7 0 1.2.1 1.8.4s.9.7 1.2 1.2.4 1.1.4 1.7H753c0-.5-.1-.9-.3-1.1s-.5-.4-.9-.4-.7.1-.9.3-.3.5-.3.9c0 .3.1.6.4.8s.6.5 1.2.7c1 .4 1.8.8 2.3 1.4s.7 1.2.7 2.1c0 .9-.3 1.7-.9 2.2s-1.4.8-2.4.8c-.7 0-1.3-.1-1.9-.4s-1-.7-1.3-1.2-.5-1.1-.5-1.9h2.2c0 .6.1 1.1.4 1.3s.6.4 1.2.4c.4 0 .8-.4.8-1.2z"/>
  <path fill="#E4E7EF" d="M519 285v2h19v108H328V287h24.1c.2-.7-.2-1.3 0-2H326v112h214V285h-21z"/>
  <path fill="#575B66" d="M367 330.6c-.8 0-1.4-.3-2-.8-.6-.6-.8-1.2-.8-2s.3-1.5.8-2 1.2-.8 2-.8 1.5.3 2 .8c.6.6.8 1.2.8 2s-.3 1.5-.9 2-1.1.8-1.9.8zm26.4-1.1c0-.5-.1-.9-.4-1.1-.3-.3-.8-.5-1.5-.8-.7-.3-1.2-.5-1.6-.8-.4-.3-.6-.6-.8-.9-.2-.4-.3-.8-.3-1.2 0-.8.3-1.4.8-1.9s1.2-.8 2.1-.8c.6 0 1.1.1 1.6.4.5.3.8.6 1.1 1.1s.4 1 .4 1.5h-1.3c0-.6-.1-1.1-.4-1.4-.3-.3-.7-.5-1.3-.5-.5 0-.9.1-1.2.4-.3.3-.4.7-.4 1.2 0 .4.2.8.5 1.1.3.3.8.5 1.4.8 1 .3 1.7.7 2.1 1.2.4.5.6 1.1.6 1.9 0 .8-.3 1.5-.8 1.9s-1.2.7-2.1.7c-.6 0-1.1-.1-1.6-.4s-.9-.6-1.2-1.1-.4-1-.4-1.6h1.3c0 .6.2 1.1.5 1.4s.8.5 1.4.5c.6 0 1-.1 1.2-.4.2-.3.3-.7.3-1.2zm2.5-1.5c0-1.1.3-1.9.8-2.6.5-.6 1.2-.9 2.1-.9s1.5.3 2.1.9c.5.6.8 1.4.8 2.5v.8c0 1.1-.3 1.9-.8 2.5-.5.6-1.2.9-2.1.9-.9 0-1.5-.3-2.1-.9-.5-.6-.8-1.4-.8-2.5v-.7zm1.2.7c0 .8.1 1.4.4 1.8.3.4.7.7 1.2.7 1.1 0 1.6-.8 1.6-2.3v-.9c0-.8-.2-1.4-.5-1.8-.3-.4-.7-.7-1.2-.7s-.9.2-1.2.7c-.3.4-.4 1-.4 1.8v.7zm9.9 2.7c-.4.5-1 .8-1.8.8-.7 0-1.2-.2-1.5-.7-.3-.5-.5-1.1-.5-2v-4.8h1.2v4.7c0 1.2.3 1.7 1 1.7s1.2-.3 1.5-1v-5.5h1.2v7.4H407v-.6zm6-5.7h-.5c-.6 0-1.1.3-1.3 1v5.3H410v-7.4h1.2v.8c.3-.6.8-.9 1.4-.9.2 0 .4 0 .5.1l-.1 1.1zm3.8 5.4c.4 0 .7-.1 1-.4.2-.2.4-.6.4-1.1h1.1c0 .7-.3 1.3-.8 1.8s-1.1.7-1.7.7c-.9 0-1.6-.3-2.1-.9-.5-.6-.7-1.4-.7-2.6v-.8c0-1.1.2-2 .7-2.5s1.2-.9 2.1-.9c.8 0 1.4.2 1.8.7s.7 1.1.7 2h-1.1c0-.5-.2-1-.4-1.2s-.6-.4-1-.4c-.5 0-.9.2-1.2.5-.3.4-.4.9-.4 1.7v.9c0 .9.1 1.5.4 1.8.2.5.6.7 1.2.7zm6.5 1c-.9 0-1.6-.3-2.1-.8s-.7-1.4-.8-2.4v-.9c0-1.1.2-2 .7-2.6.5-.6 1.2-.9 2-.9.9 0 1.5.3 1.9.8.4.6.6 1.4.7 2.6v.8h-4.1v.2c0 .8.1 1.4.4 1.7.3.4.7.5 1.3.5.4 0 .7-.1.9-.2.3-.1.5-.3.8-.6l.6.8c-.4.7-1.2 1-2.3 1zm-.1-6.6c-.5 0-.9.2-1.1.5-.2.3-.4.9-.4 1.6h2.9v-.2c0-.7-.2-1.2-.4-1.5s-.6-.4-1-.4zm8.4-.9v.8c.5-.6 1.1-.9 1.8-.9 1.3 0 2 .9 2 2.6v4.9h-1.2v-4.9c0-.6-.1-1-.3-1.2-.2-.2-.5-.4-.9-.4-.3 0-.6.1-.8.3-.2.2-.4.5-.6.8v5.4h-1.2v-7.4h1.2zm9.4 7.4c-.1-.2-.1-.4-.2-.8-.4.6-1 .9-1.6.9-.7 0-1.2-.2-1.6-.6s-.6-.9-.6-1.6c0-.8.3-1.3.8-1.8.5-.4 1.2-.7 2.1-.7h.9v-.8c0-.4-.1-.8-.3-.9-.2-.2-.5-.3-.9-.3s-.7.1-.9.3c-.2.2-.3.5-.3.8h-1.2c0-.4.1-.7.3-1.1.2-.3.5-.6.9-.8.4-.2.8-.3 1.3-.3.8 0 1.3.2 1.7.6s.6.9.6 1.6v3.7c0 .6.1 1.1.2 1.5v.1H441zm-1.6-1c.3 0 .6-.1.8-.2s.5-.4.6-.6v-1.8h-.7c-.6 0-1 .1-1.4.4-.3.2-.5.6-.5 1s.1.7.3.9c.2.2.5.3.9.3zm5.7-6.4v.7c.5-.5 1-.8 1.8-.8s1.4.4 1.7 1.1c.5-.7 1.1-1.1 1.9-1.1 1.4 0 2.1.8 2.1 2.5v5h-1.2v-4.9c0-.5-.1-.9-.3-1.2-.2-.3-.5-.4-1-.4-.4 0-.7.1-.9.4-.2.3-.4.6-.4 1.1v5h-1.2v-4.9c0-1-.4-1.5-1.3-1.5-.6 0-1 .3-1.3.9v5.5h-1.2v-7.4h1.3zm12 7.5c-.9 0-1.6-.3-2.1-.8s-.7-1.4-.8-2.4v-.9c0-1.1.2-2 .7-2.6.5-.6 1.2-.9 2-.9.9 0 1.5.3 1.9.8.4.6.6 1.4.7 2.6v.8h-4.1v.2c0 .8.1 1.4.4 1.7.3.4.7.5 1.3.5.4 0 .7-.1.9-.2.3-.1.5-.3.8-.6l.6.8c-.4.7-1.2 1-2.3 1zm-.1-6.6c-.5 0-.9.2-1.1.5-.2.3-.4.9-.4 1.6h2.9v-.2c0-.7-.2-1.2-.4-1.5s-.6-.4-1-.4zm-90 33.1c-.8 0-1.4-.3-2-.8-.6-.6-.8-1.2-.8-2s.3-1.5.8-2 1.2-.8 2-.8 1.5.3 2 .8c.6.6.8 1.2.8 2s-.3 1.5-.9 2-1.1.8-1.9.8zm26.4-1.1c0-.5-.1-.9-.4-1.1-.3-.3-.8-.5-1.5-.8-.7-.3-1.2-.5-1.6-.8-.4-.3-.6-.6-.8-.9-.2-.4-.3-.8-.3-1.2 0-.8.3-1.4.8-1.9s1.2-.8 2.1-.8c.6 0 1.1.1 1.6.4.5.3.8.6 1.1 1.1s.4 1 .4 1.5h-1.3c0-.6-.1-1.1-.4-1.4-.3-.3-.7-.5-1.3-.5-.5 0-.9.1-1.2.4-.3.3-.4.7-.4 1.2 0 .4.2.8.5 1.1.3.3.8.5 1.4.8 1 .3 1.7.7 2.1 1.2.4.5.6 1.1.6 1.9 0 .8-.3 1.5-.8 1.9s-1.2.7-2.1.7c-.6 0-1.1-.1-1.6-.4s-.9-.6-1.2-1.1-.4-1-.4-1.6h1.3c0 .6.2 1.1.5 1.4s.8.5 1.4.5c.6 0 1-.1 1.2-.4.2-.3.3-.7.3-1.2zm2.5-1.5c0-1.1.3-1.9.8-2.6.5-.6 1.2-.9 2.1-.9s1.5.3 2.1.9c.5.6.8 1.4.8 2.5v.8c0 1.1-.3 1.9-.8 2.5-.5.6-1.2.9-2.1.9-.9 0-1.5-.3-2.1-.9-.5-.6-.8-1.4-.8-2.5v-.7zm1.2.7c0 .8.1 1.4.4 1.8.3.4.7.7 1.2.7 1.1 0 1.6-.8 1.6-2.3v-.9c0-.8-.2-1.4-.5-1.8-.3-.4-.7-.7-1.2-.7s-.9.2-1.2.7c-.3.4-.4 1-.4 1.8v.7zm9.9 2.7c-.4.5-1 .8-1.8.8-.7 0-1.2-.2-1.5-.7-.3-.5-.5-1.1-.5-2v-4.8h1.2v4.7c0 1.2.3 1.7 1 1.7s1.2-.3 1.5-1v-5.5h1.2v7.4H407v-.6zm6-5.7h-.5c-.6 0-1.1.3-1.3 1v5.3H410v-7.4h1.2v.8c.3-.6.8-.9 1.4-.9.2 0 .4 0 .5.1l-.1 1.1zm3.6 5.4c.4 0 .7-.1 1-.4.2-.2.4-.6.4-1.1h1.1c0 .7-.3 1.3-.8 1.8s-1.1.7-1.7.7c-.9 0-1.6-.3-2.1-.9-.5-.6-.7-1.4-.7-2.6v-.8c0-1.1.2-2 .7-2.5s1.2-.9 2.1-.9c.8 0 1.4.2 1.8.7s.7 1.1.7 2H418c0-.5-.2-1-.4-1.2s-.6-.4-1-.4c-.5 0-.9.2-1.2.5-.3.4-.4.9-.4 1.7v.9c0 .9.1 1.5.4 1.8.3.5.7.7 1.2.7zm6.6 1c-.9 0-1.6-.3-2.1-.8s-.7-1.4-.8-2.4v-.9c0-1.1.2-2 .7-2.6.5-.6 1.2-.9 2-.9.9 0 1.5.3 1.9.8.4.6.6 1.4.7 2.6v.8h-4.1v.2c0 .8.1 1.4.4 1.7.3.4.7.5 1.3.5.4 0 .7-.1.9-.2.3-.1.5-.3.8-.6l.6.8c-.4.7-1.2 1-2.3 1zm-.1-6.6c-.5 0-.9.2-1.1.5-.2.3-.4.9-.4 1.6h2.9v-.2c0-.7-.2-1.2-.4-1.5s-.6-.4-1-.4zm8.5 6.5h-1.2v-10.5h1.2V360zm1.7-4c0-1.1.3-1.9.8-2.6.5-.6 1.2-.9 2.1-.9s1.5.3 2.1.9c.5.6.8 1.4.8 2.5v.8c0 1.1-.3 1.9-.8 2.5-.5.6-1.2.9-2.1.9-.9 0-1.5-.3-2.1-.9-.5-.6-.8-1.4-.8-2.5v-.7zm1.2.7c0 .8.1 1.4.4 1.8.3.4.7.7 1.2.7 1.1 0 1.6-.8 1.6-2.3v-.9c0-.8-.2-1.4-.5-1.8-.3-.4-.7-.7-1.2-.7s-.9.2-1.2.7c-.3.4-.4 1-.4 1.8v.7zm5.8-.7c0-1.2.2-2 .6-2.6.4-.6 1-.9 1.8-.9s1.3.3 1.7 1l.1-.8h1.1v7.5c0 .9-.2 1.6-.7 2.1-.5.5-1.1.7-2 .7-.4 0-.8-.1-1.2-.3-.5-.2-.8-.4-1-.7l.5-.8c.5.5 1.1.7 1.7.7 1 0 1.5-.5 1.6-1.6v-1c-.4.6-.9.9-1.7.9-.8 0-1.4-.3-1.8-.9-.4-.6-.7-1.4-.7-2.5v-.8zm1.2.7c0 .8.1 1.4.4 1.8s.6.6 1.2.6 1.1-.3 1.4-.9v-3.7c-.3-.6-.8-.9-1.3-.9-.6 0-1 .2-1.2.6s-.4 1-.4 1.8v.7zm5.7-.7c0-1.1.3-1.9.8-2.6.5-.6 1.2-.9 2.1-.9s1.5.3 2.1.9c.5.6.8 1.4.8 2.5v.8c0 1.1-.3 1.9-.8 2.5-.5.6-1.2.9-2.1.9-.9 0-1.5-.3-2.1-.9-.5-.6-.8-1.4-.8-2.5v-.7zm1.2.7c0 .8.1 1.4.4 1.8.3.4.7.7 1.2.7 1.1 0 1.6-.8 1.6-2.3v-.9c0-.8-.2-1.4-.5-1.8-.3-.4-.7-.7-1.2-.7s-.9.2-1.2.7c-.3.4-.4 1-.4 1.8v.7zM363.5 291h-2.2v-10.7h2.2V291zm9.8 0h-2.2l-3.1-7v7h-2.2v-10.7h2.2l3.2 7v-7h2.1V291zm8.9-8.9h-2.6v8.9h-2.2v-8.9h-2.6v-1.8h7.4v1.8zm7.2 4.3H386v2.8h4v1.8h-6.1v-10.7h6.1v1.8h-4v2.5h3.4v1.8zm9.6 3.4c-.4.4-.9.8-1.5 1s-1.3.3-2 .3c-1.2 0-2.2-.4-2.9-1.1s-1-1.9-1-3.3v-1.9c0-1.5.3-2.6 1-3.4s1.6-1.2 2.8-1.2c1.2 0 2 .3 2.6.9s.9 1.5 1 2.7h-2.1c-.1-.7-.2-1.1-.4-1.4s-.6-.4-1.1-.4c-.6 0-1 .2-1.3.6s-.4 1.1-.4 2v1.9c0 1 .1 1.7.4 2.1s.8.7 1.4.7c.4 0 .8-.1 1-.3l.2-.1v-2h-1.5v-1.6h3.7v4.5zm5.2-2.7h-1.1v3.9H401v-10.7h3.4c1.1 0 1.9.3 2.5.8.6.6.9 1.4.9 2.4 0 1.4-.5 2.4-1.5 3l1.9 4.4v.1h-2.3l-1.7-3.9zm-1.1-1.8h1.2c.4 0 .8-.1 1-.4s.3-.7.3-1.1c0-1.1-.4-1.6-1.3-1.6H403v3.1zm11.8 3.5H412l-.6 2.2h-2.3l3.3-10.7h2l3.4 10.7h-2.3l-.6-2.2zm-2.5-1.8h2l-1-3.8-1 3.8zm12.8-4.9h-2.6v8.9h-2.2v-8.9h-2.6v-1.8h7.4v1.8zm4 8.9H427v-10.7h2.2V291zm9.8-4.4c0 1.4-.3 2.5-1 3.3s-1.6 1.2-2.8 1.2c-1.2 0-2.1-.4-2.8-1.2s-1-1.9-1-3.3v-1.8c0-1.5.3-2.6 1-3.4s1.6-1.2 2.8-1.2c1.2 0 2.1.4 2.8 1.2s1 1.9 1 3.4v1.8zm-2.2-1.8c0-1-.1-1.7-.4-2.1s-.7-.7-1.3-.7c-.6 0-1 .2-1.3.7s-.4 1.1-.4 2.1v1.9c0 .9.1 1.6.4 2.1s.7.7 1.3.7c.6 0 1-.2 1.3-.6s.4-1.1.4-2v-2.1zm11.7 6.2h-2.2l-3.1-7v7H441v-10.7h2.2l3.2 7v-7h2.1V291zm10.6-2.8c0-.4-.1-.8-.3-1s-.6-.5-1.2-.7c-1.1-.4-1.8-.9-2.3-1.4s-.7-1.2-.7-1.9c0-.9.3-1.6 1-2.2s1.4-.8 2.4-.8c.7 0 1.2.1 1.8.4s.9.7 1.2 1.2.4 1.1.4 1.7h-2.1c0-.5-.1-.9-.3-1.1s-.5-.4-.9-.4-.7.1-.9.3-.3.5-.3.9c0 .3.1.6.4.8s.6.5 1.2.7c1 .4 1.8.8 2.3 1.4s.7 1.2.7 2.1c0 .9-.3 1.7-.9 2.2s-1.4.8-2.4.8c-.7 0-1.3-.1-1.9-.4s-1-.7-1.3-1.2-.5-1.1-.5-1.9h2.2c0 .6.1 1.1.4 1.3s.6.4 1.2.4c.4 0 .8-.4.8-1.2zm11.6-1.6c0 1.4-.3 2.5-1 3.3-.7.8-1.6 1.2-2.8 1.2-1.2 0-2.1-.4-2.8-1.2-.7-.8-1-1.9-1-3.3v-1.8c0-1.5.3-2.6 1-3.4.7-.8 1.6-1.2 2.8-1.2 1.2 0 2.1.4 2.8 1.2.7.8 1 1.9 1 3.4v1.8zm-2.2-1.8c0-1-.1-1.7-.4-2.1s-.7-.7-1.3-.7c-.6 0-1 .2-1.3.7s-.4 1.1-.4 2.1v1.9c0 .9.1 1.6.4 2.1s.7.7 1.3.7c.6 0 1-.2 1.3-.6s.4-1.1.4-2v-2.1zm11.2-4.5v7.4c0 1.1-.3 2-.9 2.5s-1.5.9-2.6.9-2-.3-2.6-.9-.9-1.5-.9-2.6v-7.3h2.2v7.3c0 .6.1 1 .3 1.3s.5.4 1.1.4.9-.1 1.1-.4.3-.7.3-1.3v-7.4h2zm5.3 6.8h-1.1v3.9h-2.2v-10.7h3.4c1.1 0 1.9.3 2.5.8s.9 1.4.9 2.4c0 1.4-.5 2.4-1.5 3l1.9 4.4v.1h-2.3l-1.6-3.9zm-1.1-1.8h1.2c.4 0 .8-.1 1-.4s.3-.7.3-1.1c0-1.1-.4-1.6-1.3-1.6h-1.3v3.1zm13.9 2.1c-.1 1.2-.4 2.1-1 2.8-.6.6-1.5.9-2.7.9-1.2 0-2.1-.4-2.8-1.2-.6-.8-1-1.9-1-3.4v-1.8c0-1.5.3-2.6 1-3.4.7-.8 1.6-1.2 2.8-1.2 1.2 0 2 .3 2.6 1 .6.6.9 1.6 1 2.8h-2.2c0-.8-.1-1.3-.3-1.6-.2-.3-.6-.4-1.2-.4s-1 .2-1.2.6c-.2.4-.4 1.1-.4 2v2c0 1.1.1 1.8.4 2.2.2.4.6.6 1.2.6s1-.1 1.2-.4.3-.8.4-1.5h2.2zm7.3-1h-3.4v2.8h4v1.8h-6.1v-10.7h6.1v1.8h-4v2.5h3.4v1.8z"/>
  <path fill="#E4E7EF" d="M480.4 5v2H538v217H328V7h24.1V5H326v221h214V5h-59.6z"/>
  <path fill="#575B66" d="M372 53.6c-.8 0-1.4-.3-2-.8s-.8-1.2-.8-2 .3-1.5.8-2 1.2-.8 2-.8 1.5.3 2 .8.8 1.2.8 2-.3 1.5-.9 2-1.1.8-1.9.8zm27.9-7.5h-2.6V55H396v-8.9h-2.6V45h6.5v1.1zm3.9 9c-.9 0-1.6-.3-2.1-.8s-.7-1.3-.7-2.4V51c0-1.1.2-2 .7-2.6s1.2-.9 2-.9c.9 0 1.5.3 1.9.8s.6 1.4.7 2.6v.8h-4.1v.2c0 .8.1 1.4.4 1.7s.7.5 1.3.5c.4 0 .7-.1.9-.2s.5-.3.8-.6l.6.8c-.5.7-1.3 1-2.4 1zm-.1-6.6c-.5 0-.9.2-1.1.5s-.4.9-.4 1.6h2.9v-.2c0-.7-.2-1.2-.4-1.5s-.6-.4-1-.4zm7.6 4.6c0-.3-.1-.5-.3-.7s-.6-.4-1.1-.7c-.7-.3-1.1-.5-1.4-.7s-.5-.4-.6-.7-.2-.5-.2-.9c0-.6.2-1.1.7-1.5s1-.6 1.7-.6 1.3.2 1.7.6.7 1 .7 1.6h-1.2c0-.3-.1-.6-.3-.9s-.5-.4-.9-.4-.6.1-.8.3-.3.4-.3.7c0 .2.1.4.2.6s.5.3 1.1.6c.9.4 1.5.7 1.8 1s.5.8.5 1.3c0 .6-.2 1.2-.7 1.5s-1 .6-1.8.6-1.4-.2-1.9-.7-.7-1-.7-1.7h1.2c0 .4.1.7.4 1s.6.3 1 .3.7-.1.9-.3.3 0 .3-.3zm4.4-7.3v1.8h1.1v1h-1.1v4.6c0 .3 0 .5.1.7s.3.2.5.2.3 0 .5-.1v1c-.3.1-.6.1-.8.1-.5 0-.8-.2-1.1-.5s-.4-.8-.4-1.4v-4.6h-1.1v-1h1.1v-1.8h1.2zm3.9 9.2h-1.2v-7.4h1.2V55zm.1-9.4c0 .2-.1.4-.2.5s-.3.2-.5.2-.4-.1-.5-.2-.2-.3-.2-.5.1-.4.2-.5.3-.2.5-.2.4.1.5.2.2.3.2.5zm2.9 2v.7c.5-.5 1-.8 1.8-.8s1.4.4 1.7 1.1c.5-.7 1.1-1.1 1.9-1.1 1.4 0 2.1.8 2.1 2.5v5H429v-4.9c0-.5-.1-.9-.3-1.2s-.5-.4-1-.4c-.4 0-.7.1-.9.4s-.4.6-.4 1.1v5h-1.2v-4.9c0-1-.4-1.5-1.3-1.5-.6 0-1 .3-1.3.9V55h-1.2v-7.4h1.2zm9.1 3.4c0-1.1.3-1.9.8-2.6s1.2-.9 2.1-.9 1.5.3 2.1.9.8 1.4.8 2.5v.8c0 1.1-.3 1.9-.8 2.5s-1.2.9-2.1.9c-.9 0-1.5-.3-2.1-.9s-.8-1.4-.8-2.5V51zm1.3.7c0 .8.1 1.4.4 1.8s.7.7 1.2.7c1.1 0 1.6-.8 1.6-2.3V51c0-.8-.2-1.4-.5-1.8s-.7-.7-1.2-.7-.9.2-1.2.7-.4 1-.4 1.8v.7zm7.2-4.1v.8c.5-.6 1.1-.9 1.8-.9 1.3 0 2 .9 2 2.6V55h-1.2v-4.9c0-.6-.1-1-.3-1.2s-.5-.4-.9-.4c-.3 0-.6.1-.8.3s-.4.5-.6.8V55H439v-7.4h1.2zm6.9 7.4h-1.2v-7.4h1.2V55zm.1-9.4c0 .2-.1.4-.2.5s-.3.2-.5.2-.4-.1-.5-.2-.2-.3-.2-.5.1-.4.2-.5.3-.2.5-.2.4.1.5.2.2.3.2.5zm5.6 9.4c-.1-.2-.1-.4-.2-.8-.4.6-1 .9-1.6.9-.7 0-1.2-.2-1.6-.6s-.6-.9-.6-1.6c0-.8.3-1.3.8-1.8s1.2-.7 2.1-.7h.9v-.8c0-.4-.1-.8-.3-.9s-.5-.3-.9-.3-.7.1-.9.3-.3.5-.3.8H449c0-.4.1-.7.3-1.1s.5-.6.9-.8.8-.3 1.3-.3c.8 0 1.3.2 1.7.6.4.4.6.9.6 1.6v3.7c0 .6.1 1.1.2 1.5v.3h-1.2zm-1.6-1c.3 0 .6-.1.8-.2s.5-.4.6-.6v-1.8h-.6c-.6 0-1 .1-1.4.4s-.5.6-.5 1 .1.7.3.9.4.3.8.3zm5.8 1h-1.2V44.5h1.2V55zm8.9 0c-.1-.2-.1-.4-.2-.8-.4.6-1 .9-1.6.9-.7 0-1.2-.2-1.6-.6s-.5-.8-.5-1.5c0-.8.3-1.3.8-1.8s1.2-.7 2.1-.7h.9v-.8c0-.4-.1-.8-.3-.9s-.5-.3-.9-.3-.7.1-.9.3-.3.5-.3.8h-1.2c0-.4.1-.7.3-1.1s.5-.6.9-.8.8-.3 1.3-.3c.8 0 1.3.2 1.7.6.4.4.6.9.6 1.6v3.7c0 .6.1 1.1.2 1.5v.2h-1.3zm-1.6-1c.3 0 .6-.1.8-.2s.5-.4.6-.6v-1.8h-.7c-.6 0-1 .1-1.4.4s-.5.6-.5 1 .1.7.3.9.5.3.9.3zm8.3.4c-.4.5-1 .8-1.8.8-.7 0-1.2-.2-1.5-.7s-.5-1.1-.5-2v-4.8h1.2v4.7c0 1.2.3 1.7 1 1.7s1.2-.3 1.5-1v-5.5h1.2V55h-1.1v-.6zm4.6-8.6v1.8h1.1v1h-1.1v4.6c0 .3 0 .5.1.7s.3.2.5.2.3 0 .5-.1v1c-.3.1-.6.1-.8.1-.5 0-.8-.2-1.1-.5s-.4-.8-.4-1.4v-4.6h-1.1v-1h1.1v-1.8h1.2zm3.7 2.6c.5-.6 1-.9 1.8-.9 1.3 0 2 .9 2 2.6V55h-1.2v-4.9c0-.6-.1-1-.3-1.2s-.5-.4-.9-.4c-.3 0-.6.1-.8.3s-.4.5-.6.8V55h-1.2V44.5h1.2v3.9zm5.3 2.6c0-1.1.3-1.9.8-2.6s1.2-.9 2.1-.9 1.5.3 2.1.9.8 1.4.8 2.5v.8c0 1.1-.3 1.9-.8 2.5s-1.2.9-2.1.9c-.9 0-1.5-.3-2.1-.9s-.8-1.4-.8-2.5V51zm1.3.7c0 .8.1 1.4.4 1.8s.7.7 1.2.7c1.1 0 1.6-.8 1.6-2.3V51c0-.8-.2-1.4-.5-1.8s-.7-.7-1.2-.7-.9.2-1.2.7-.4 1-.4 1.8v.7zm9.1-3h-.5c-.6 0-1.1.3-1.3 1V55h-1.2v-7.4h1.2v.8c.3-.6.8-.9 1.4-.9.2 0 .4 0 .5.1l-.1 1.1zM372 81.6c-.8 0-1.4-.3-2-.8s-.8-1.2-.8-2 .3-1.5.8-2 1.2-.8 2-.8 1.5.3 2 .8.8 1.2.8 2-.3 1.5-.9 2-1.1.8-1.9.8zm28.3-1.8c-.1 1.1-.4 1.9-.9 2.4s-1.3.8-2.3.8c-1 0-1.8-.4-2.4-1.1s-.9-1.8-.9-3.1V77c0-1.3.3-2.3.9-3.1s1.4-1.1 2.5-1.1c1 0 1.7.3 2.2.9s.8 1.4.9 2.5H399c-.1-.8-.2-1.4-.5-1.7s-.7-.5-1.3-.5c-.7 0-1.2.3-1.6.8s-.5 1.3-.5 2.3v1.8c0 1 .2 1.8.5 2.3s.8.8 1.5.8 1.1-.2 1.4-.5.5-.9.5-1.7h1.3zm1.3-.8c0-1.1.3-1.9.8-2.6s1.2-.9 2.1-.9 1.5.3 2.1.9.8 1.4.8 2.5v.8c0 1.1-.3 1.9-.8 2.5s-1.2.9-2.1.9c-.9 0-1.5-.3-2.1-.9s-.8-1.4-.8-2.5V79zm1.2.7c0 .8.1 1.4.4 1.8s.7.7 1.2.7c1.1 0 1.6-.8 1.6-2.3V79c0-.8-.2-1.4-.5-1.8s-.7-.7-1.2-.7-.9.2-1.2.7-.4 1-.4 1.8v.7zm7.2-4.1v.7c.5-.5 1-.8 1.8-.8s1.4.4 1.7 1.1c.5-.7 1.1-1.1 1.9-1.1 1.4 0 2.1.8 2.1 2.5v5h-1.2v-4.9c0-.5-.1-.9-.3-1.2s-.5-.4-1-.4c-.4 0-.7.1-.9.4s-.4.6-.4 1.1v5h-1.2v-4.9c0-1-.4-1.5-1.3-1.5-.6 0-1 .3-1.3.9V83h-1.2v-7.4h1.3zm14.7 4.1c0 1.2-.2 2-.6 2.6s-1 .9-1.8.9c-.7 0-1.3-.3-1.7-.8v3.5h-1.2V75.6h1.1l.1.8c.4-.6 1-1 1.7-1 .8 0 1.4.3 1.8.8s.6 1.4.6 2.5v1zm-1.2-.7c0-.8-.1-1.4-.4-1.8s-.7-.6-1.2-.6c-.6 0-1 .3-1.3.9v3.8c.3.6.7.8 1.3.8.5 0 .9-.2 1.2-.6s.4-1 .4-1.8V79zm6.6 4c-.1-.2-.1-.4-.2-.8-.4.6-1 .9-1.6.9-.7 0-1.2-.2-1.6-.6s-.6-.9-.6-1.6c0-.8.3-1.3.8-1.8s1.2-.7 2.1-.7h.9v-.8c0-.4-.1-.8-.3-.9s-.5-.3-.9-.3-.7.1-.9.3-.3.5-.3.8h-1.2c0-.4.1-.7.3-1.1s.5-.6.9-.8.8-.3 1.3-.3c.8 0 1.3.2 1.7.6s.6.9.6 1.6v3.7c0 .6.1 1.1.2 1.5v.3h-1.2zm-1.6-1c.3 0 .6-.1.8-.2s.5-.4.6-.6v-1.8h-.7c-.6 0-1 .1-1.4.4s-.5.6-.5 1 .1.7.3.9.5.3.9.3zm5.7-6.4v.8c.5-.6 1.1-.9 1.8-.9 1.3 0 2 .9 2 2.6V83h-1.2v-4.9c0-.6-.1-1-.3-1.2s-.5-.4-.9-.4c-.3 0-.6.1-.8.3s-.4.5-.6.8V83H433v-7.4h1.2zm7.6 5.4l1.3-5.4h1.3L442 84c-.2.6-.4 1.1-.8 1.4s-.7.5-1.1.5c-.2 0-.4 0-.6-.1v-1h.3c.4 0 .6-.1.8-.2s.4-.5.5-.9l.2-.8-2.2-7.3h1.3l1.4 5.4zm8.2-5.4v.8c.5-.6 1.1-.9 1.8-.9 1.3 0 2 .9 2 2.6V83h-1.2v-4.9c0-.6-.1-1-.3-1.2s-.5-.4-.9-.4c-.3 0-.6.1-.8.3s-.4.5-.6.8V83h-1.2v-7.4h1.2zm9.4 7.4c-.1-.2-.1-.4-.2-.8-.4.6-1 .9-1.6.9-.7 0-1.2-.2-1.6-.6s-.6-.9-.6-1.6c0-.8.3-1.3.8-1.8s1.2-.7 2.1-.7h.9v-.8c0-.4-.1-.8-.3-.9s-.5-.3-.9-.3-.7.1-.9.3-.3.5-.3.8h-1.2c0-.4.1-.7.3-1.1s.5-.6.9-.8.8-.3 1.3-.3c.8 0 1.3.2 1.7.6s.6.9.6 1.6v3.7c0 .6.1 1.1.2 1.5v.3h-1.2zm-1.6-1c.3 0 .6-.1.8-.2s.5-.4.6-.6v-1.8h-.7c-.6 0-1 .1-1.4.4s-.5.6-.5 1 .1.7.3.9.5.3.9.3zm5.6-6.4v.7c.5-.5 1-.8 1.8-.8s1.4.4 1.7 1.1c.5-.7 1.1-1.1 1.9-1.1 1.4 0 2.1.8 2.1 2.5v5h-1.2v-4.9c0-.5-.1-.9-.3-1.2s-.5-.4-1-.4c-.4 0-.7.1-.9.4s-.4.6-.4 1.1v5h-1.2v-4.9c0-1-.4-1.5-1.3-1.5-.6 0-1 .3-1.3.9V83h-1.2v-7.4h1.3zm12.1 7.5c-.9 0-1.6-.3-2.1-.8s-.7-1.4-.8-2.4V79c0-1.1.2-2 .7-2.6s1.2-.9 2-.9c.9 0 1.5.3 1.9.8s.6 1.4.7 2.6v.8h-4.1v.2c0 .8.1 1.4.4 1.7s.7.5 1.3.5c.4 0 .7-.1.9-.2s.5-.3.8-.6l.6.8c-.4.7-1.2 1-2.3 1zm-.2-6.6c-.5 0-.9.2-1.1.5s-.4.9-.4 1.6h2.9v-.2c0-.7-.2-1.2-.4-1.5s-.5-.4-1-.4zM372 109.6c-.8 0-1.4-.3-2-.8s-.8-1.2-.8-2 .3-1.5.8-2 1.2-.8 2-.8 1.5.3 2 .8.8 1.2.8 2-.3 1.5-.9 2-1.1.8-1.9.8zm25.1-2.6h-1.8v4H394v-10h2.8c1 0 1.7.3 2.2.8s.8 1.3.8 2.2c0 .6-.1 1.2-.4 1.6s-.7.8-1.2 1l1.9 4.2v.1h-1.3l-1.7-3.9zm-1.8-1.1h1.5c.5 0 .9-.2 1.3-.5s.5-.8.5-1.4c0-1.3-.6-1.9-1.7-1.9h-1.5v3.8zm5.8 1.1c0-1.1.3-1.9.8-2.6s1.2-.9 2.1-.9 1.5.3 2.1.9.8 1.4.8 2.5v.8c0 1.1-.3 1.9-.8 2.5s-1.2.9-2.1.9c-.9 0-1.5-.3-2.1-.9s-.8-1.4-.8-2.5v-.7zm1.2.7c0 .8.1 1.4.4 1.8s.7.7 1.2.7c1.1 0 1.6-.8 1.6-2.3v-.9c0-.8-.2-1.4-.5-1.8s-.7-.7-1.2-.7-.9.2-1.2.7-.4 1-.4 1.8v.7zm7.4 3.3h-1.2v-10.5h1.2V111zm4.5.1c-.9 0-1.6-.3-2.1-.8s-.7-1.4-.8-2.4v-.9c0-1.1.2-2 .7-2.6s1.2-.9 2-.9c.9 0 1.5.3 1.9.8s.6 1.4.7 2.6v.8h-4.1v.2c0 .8.1 1.4.4 1.7s.7.5 1.3.5c.4 0 .7-.1.9-.2s.5-.3.8-.6l.6.8c-.4.7-1.2 1-2.3 1zm-.1-6.6c-.5 0-.9.2-1.1.5s-.4.9-.4 1.6h2.9v-.2c0-.7-.2-1.2-.4-1.5s-.6-.4-1-.4zM372 137.6c-.8 0-1.4-.3-2-.8s-.8-1.2-.8-2 .3-1.5.8-2 1.2-.8 2-.8 1.5.3 2 .8c.6.6.8 1.2.8 2s-.3 1.5-.9 2-1.1.8-1.9.8zm28.5-2.7c0 .9-.1 1.6-.4 2.2s-.6 1.1-1 1.4l1.5 1.3-.8.8-1.8-1.6c-.3.1-.6.1-.8.1-1 0-1.8-.4-2.4-1.1s-.9-1.7-.9-3.1v-1.8c0-1.3.3-2.4.9-3.1s1.4-1.1 2.5-1.1 1.9.4 2.5 1.1.9 1.8.9 3.1v1.8zm-1.3-1.7c0-1.1-.2-1.8-.5-2.3s-.9-.8-1.6-.8c-.7 0-1.2.3-1.6.8s-.5 1.3-.5 2.3v1.8c0 1 .2 1.8.5 2.3s.9.8 1.6.8c.7 0 1.2-.2 1.6-.7s.5-1.2.5-2.2v-2zm6.9 5.2c-.4.5-1 .8-1.8.8-.7 0-1.2-.2-1.5-.7s-.5-1.1-.5-2v-4.8h1.2v4.7c0 1.2.3 1.7 1 1.7s1.2-.3 1.5-1v-5.5h1.2v7.4h-1.1v-.6zm2.7-3.4c0-1.1.3-1.9.8-2.6s1.2-.9 2.1-.9 1.5.3 2.1.9.8 1.4.8 2.5v.8c0 1.1-.3 1.9-.8 2.5s-1.2.9-2.1.9c-.9 0-1.5-.3-2.1-.9s-.8-1.4-.8-2.5v-.7zm1.2.7c0 .8.1 1.4.4 1.8s.7.7 1.2.7c1.1 0 1.6-.8 1.6-2.3v-.9c0-.8-.2-1.4-.5-1.8-.3-.4-.7-.7-1.2-.7s-.9.2-1.2.7c-.3.4-.4 1-.4 1.8v.7zm7.7-5.9v1.8h1.1v1h-1.1v4.6c0 .3 0 .5.1.7s.3.2.5.2.3 0 .5-.1v1c-.3.1-.6.1-.8.1-.5 0-.8-.2-1.1-.5s-.4-.8-.4-1.4v-4.6h-1.1v-1h1.1v-1.8h1.2zm5.2 9.3c-.9 0-1.6-.3-2.1-.8s-.7-1.4-.8-2.4v-.9c0-1.1.2-2 .7-2.6s1.2-.9 2-.9c.9 0 1.5.3 1.9.8s.6 1.4.7 2.6v.8h-4.1v.2c0 .8.1 1.4.4 1.7s.7.5 1.3.5c.4 0 .7-.1.9-.2s.5-.3.8-.6l.6.8c-.4.7-1.2 1-2.3 1zm-.1-6.6c-.5 0-.9.2-1.1.5s-.4.9-.4 1.6h2.9v-.2c0-.7-.2-1.2-.4-1.5s-.6-.4-1-.4zM372 165.6c-.8 0-1.4-.3-2-.8s-.8-1.2-.8-2 .3-1.5.8-2 1.2-.8 2-.8 1.5.3 2 .8c.6.6.8 1.2.8 2s-.3 1.5-.9 2-1.1.8-1.9.8zm23.3-2.5v3.9H394v-10h3.2c.9 0 1.7.3 2.2.8s.8 1.3.8 2.2c0 1-.3 1.7-.8 2.2s-1.2.8-2.1.8h-2zm0-1.1h1.9c.6 0 1-.2 1.3-.5s.4-.8.4-1.4c0-.6-.2-1.1-.5-1.4s-.7-.5-1.3-.5h-1.9v3.8zm7.7 5h-1.2v-7.4h1.2v7.4zm.1-9.4c0 .2-.1.4-.2.5s-.3.2-.5.2-.4-.1-.5-.2-.2-.3-.2-.5.1-.4.2-.5.3-.2.5-.2.4.1.5.2.2.3.2.5zm4.3 8.5c.4 0 .7-.1 1-.4s.4-.6.4-1.1h1.1c0 .7-.3 1.3-.8 1.8s-1.1.7-1.7.7c-.9 0-1.6-.3-2.1-.9s-.7-1.4-.7-2.6v-.8c0-1.1.2-2 .7-2.5s1.2-.9 2.1-.9c.8 0 1.4.2 1.8.7s.7 1.1.7 2h-1.1c0-.5-.2-1-.4-1.2s-.6-.4-1-.4c-.5 0-.9.2-1.2.5s-.4.9-.4 1.7v.9c0 .9.1 1.5.4 1.8s.7.7 1.2.7zm5.5-8.3v1.8h1.1v1h-1.1v4.6c0 .3 0 .5.1.7s.3.2.5.2.3 0 .5-.1v1c-.3.1-.6.1-.8.1-.5 0-.8-.2-1.1-.5s-.4-.8-.4-1.4v-4.6h-1.1v-1h1.1v-1.8h1.2zm6.3 8.6c-.4.5-1 .8-1.8.8-.7 0-1.2-.2-1.5-.7s-.5-1.1-.5-2v-4.8h1.2v4.7c0 1.2.3 1.7 1 1.7s1.2-.3 1.5-1v-5.5h1.2v7.4h-1.1v-.6zm6.1-5.7h-.5c-.6 0-1.1.3-1.3 1v5.3h-1.2v-7.4h1.2v.8c.3-.6.8-.9 1.4-.9.2 0 .4 0 .5.1l-.1 1.1zm3.8 6.4c-.9 0-1.6-.3-2.1-.8s-.7-1.4-.8-2.4v-.9c0-1.1.2-2 .7-2.6s1.2-.9 2-.9c.9 0 1.5.3 1.9.8s.6 1.4.7 2.6v.8h-4.1v.2c0 .8.1 1.4.4 1.7s.7.5 1.3.5c.4 0 .7-.1.9-.2s.5-.3.8-.6l.6.8c-.4.7-1.2 1-2.3 1zm-.1-6.6c-.5 0-.9.2-1.1.5s-.4.9-.4 1.6h2.9v-.2c0-.7-.2-1.2-.4-1.5s-.5-.4-1-.4zm-57 33.1c-.8 0-1.4-.3-2-.8s-.8-1.2-.8-2 .3-1.5.8-2 1.2-.8 2-.8 1.5.3 2 .8c.6.6.8 1.2.8 2s-.3 1.5-.9 2-1.1.8-1.9.8zm26.7-3h-3.4v4.4H394v-10h5.2v1.1h-3.9v3.4h3.4v1.1zm4.6 4.5c-.9 0-1.6-.3-2.1-.8s-.7-1.4-.8-2.4v-.9c0-1.1.2-2 .7-2.6s1.2-.9 2-.9c.9 0 1.5.3 1.9.8s.6 1.4.7 2.6v.8h-4.1v.2c0 .8.1 1.4.4 1.7s.7.5 1.3.5c.4 0 .7-.1.9-.2s.5-.3.8-.6l.6.8c-.5.7-1.3 1-2.3 1zm-.2-6.6c-.5 0-.9.2-1.1.5s-.4.9-.4 1.6h2.9v-.2c0-.7-.2-1.2-.4-1.5s-.5-.4-1-.4zm7.9 6.5c-.1-.2-.1-.4-.2-.8-.4.6-1 .9-1.6.9-.7 0-1.2-.2-1.6-.6s-.6-.9-.6-1.6c0-.8.3-1.3.8-1.8s1.2-.7 2.1-.7h.9v-.8c0-.4-.1-.8-.3-.9s-.5-.3-.9-.3-.7.1-.9.3-.3.5-.3.8h-1.2c0-.4.1-.7.3-1.1s.5-.6.9-.8.8-.3 1.3-.3c.8 0 1.3.2 1.7.6s.6.9.6 1.6v3.7c0 .6.1 1.1.2 1.5v.1H411zm-1.6-1c.3 0 .6-.1.8-.2s.5-.4.6-.6v-1.8h-.7c-.6 0-1 .1-1.4.4s-.5.6-.5 1 .1.7.3.9.5.3.9.3zm6.1-8.2v1.8h1.1v1h-1.1v4.6c0 .3 0 .5.1.7s.3.2.5.2.3 0 .5-.1v1c-.3.1-.6.1-.8.1-.5 0-.8-.2-1.1-.5s-.4-.8-.4-1.4v-4.6h-1.1v-1h1.1v-1.8h1.2zm6.3 8.6c-.4.5-1 .8-1.8.8-.7 0-1.2-.2-1.5-.7s-.5-1.1-.5-2v-4.8h1.2v4.7c0 1.2.3 1.7 1 1.7s1.2-.3 1.5-1v-5.5h1.2v7.4h-1.1v-.6zm6-5.7h-.5c-.6 0-1.1.3-1.3 1v5.3h-1.2v-7.4h1.2v.8c.3-.6.8-.9 1.4-.9.2 0 .4 0 .5.1l-.1 1.1zm3.9 6.4c-.9 0-1.6-.3-2.1-.8s-.7-1.4-.8-2.4v-.9c0-1.1.2-2 .7-2.6s1.2-.9 2-.9c.9 0 1.5.3 1.9.8s.6 1.4.7 2.6v.8H430v.2c0 .8.1 1.4.4 1.7s.7.5 1.3.5c.4 0 .7-.1.9-.2s.5-.3.8-.6l.6.8c-.4.7-1.2 1-2.3 1zm-.1-6.6c-.5 0-.9.2-1.1.5s-.4.9-.4 1.6h2.9v-.2c0-.7-.2-1.2-.4-1.5s-.6-.4-1-.4zm3.8 2.5c0-1.1.2-2 .6-2.6s1-.9 1.8-.9c.7 0 1.3.3 1.7.9v-3.8h1.2V195h-1.1l-.1-.8c-.4.6-1 .9-1.7.9-.8 0-1.4-.3-1.8-.9s-.7-1.4-.7-2.5v-.7zm1.2.7c0 .8.1 1.4.4 1.8s.6.6 1.2.6 1.1-.3 1.3-.9v-3.7c-.3-.6-.8-.9-1.3-.9-.6 0-1 .2-1.2.6s-.4 1-.4 1.8v.7zm7.2.5c0-.5.1-1 .2-1.3s.4-.8.8-1.3l.5-.6c.3-.4.5-.9.5-1.4 0-.5-.1-.9-.3-1.1s-.5-.4-.9-.4c-.3 0-.6.1-.9.4s-.3.6-.3 1h-1.2c0-.8.2-1.4.7-1.8s1-.7 1.7-.7 1.3.2 1.7.7c.4.5.6 1.1.6 1.9 0 .8-.3 1.6-1 2.3l-.6.8c-.3.4-.4.9-.4 1.6h-1.1zm.7 1.4c.2 0 .4.1.5.2s.2.3.2.5-.1.4-.2.5-.3.2-.5.2-.4-.1-.5-.2-.2-.3-.2-.5.1-.4.2-.5.2-.2.5-.2zM372 2.1h-2.6V11h-2.2V2.1h-2.6V.3h7.4v1.8zm7.2 4.3h-3.4v2.8h4V11h-6.1V.3h6.1v1.8h-4v2.5h3.4v1.8zm6.8 1.8c0-.4-.1-.8-.3-1s-.6-.5-1.2-.7c-1.1-.4-1.8-.9-2.3-1.4-.5-.5-.7-1.2-.7-1.9 0-.9.3-1.6 1-2.2.6-.5 1.4-.8 2.4-.8.7 0 1.2.1 1.8.4.5.3.9.7 1.2 1.2s.4 1.1.4 1.7h-2.1c0-.5-.1-.9-.3-1.1s-.7-.4-1.1-.4c-.4 0-.7.1-.9.3s-.3.5-.3.9c0 .3.1.6.4.8.2.2.6.5 1.2.7 1 .4 1.8.8 2.3 1.4.5.5.7 1.2.7 2.1 0 .9-.3 1.7-.9 2.2-.6.5-1.4.8-2.4.8-.7 0-1.3-.1-1.9-.4-.6-.3-1-.7-1.3-1.2s-.5-1.1-.5-1.9h2.2c0 .6.1 1.1.4 1.3s.6.4 1.2.4 1-.4 1-1.2zm11-6.1h-2.6V11h-2.2V2.1h-2.6V.3h7.4v1.8zm4 8.9h-2.2V.3h2.2V11zM406.1.3l2 7.7 2-7.7h2.8V11h-2.2V8.1l.2-4.4-2.1 7.3h-1.5l-2.1-7.3.2 4.4V11h-2.2V.3h2.9zm16.5 6.3c0 1.4-.3 2.5-1 3.3s-1.6 1.2-2.8 1.2c-1.2 0-2.1-.4-2.8-1.2s-1-1.9-1-3.3V4.9c0-1.5.3-2.6 1-3.4s1.6-1.2 2.8-1.2c1.2 0 2.1.4 2.8 1.2s1 1.9 1 3.4v1.7zm-2.1-1.8c0-1-.1-1.7-.4-2.1s-.7-.7-1.3-.7c-.6 0-1 .2-1.3.7s-.4 1.1-.4 2.1v1.9c0 .9.1 1.6.4 2.1s.7.7 1.3.7c.6 0 1-.2 1.3-.6s.4-1.1.4-2V4.8zm11.6 6.2H430l-3.1-7v7h-2.2V.3h2.2l3.2 7v-7h2.1V11zm4.5 0h-2.2V.3h2.2V11zm7.5-2.2h-2.9l-.6 2.2h-2.3L441.6.3h2L447 11h-2.3l-.6-2.2zM441.6 7h2l-1-3.8-1 3.8zm9 2.2h3.8V11h-5.9V.3h2.2v8.9zm10-1c0-.4-.1-.8-.3-1s-.6-.5-1.2-.7c-1.1-.4-1.8-.9-2.3-1.4s-.8-1.2-.8-1.9c0-.9.3-1.6 1-2.2s1.4-.8 2.4-.8c.7 0 1.2.1 1.8.4s.9.7 1.2 1.2.4 1.1.4 1.7h-2.1c0-.5-.1-.9-.3-1.1s-.6-.4-1-.4-.7.1-.9.3-.3.5-.3.9c0 .3.1.6.4.8.2.2.6.5 1.2.7 1 .4 1.8.8 2.3 1.4s.7 1.2.7 2.1c0 .9-.3 1.7-.9 2.2s-1.4.8-2.4.8c-.7 0-1.3-.1-1.9-.4-.6-.3-1-.7-1.3-1.2s-.5-1.1-.5-1.9h2.2c0 .6.1 1.1.4 1.3s.6.4 1.2.4 1-.4 1-1.2z"/>
  <path fill="#E4E7EF" d="M1073.8 292c.1.7-.1 1.3 0 2h49.2v134H913V294h23.3v-2H911v138h214V292h-51.2z"/>
  <path fill="#575B66" d="M957 340.6c-.8 0-1.4-.3-2-.8-.6-.6-.8-1.2-.8-2s.3-1.5.8-2 1.2-.8 2-.8 1.5.3 2 .8c.6.6.8 1.2.8 2s-.3 1.5-.9 2-1.1.8-1.9.8zm23.3-2.5v3.9H979v-10h3.2c.9 0 1.7.3 2.2.8s.8 1.3.8 2.2c0 1-.3 1.7-.8 2.2-.5.5-1.2.8-2.1.8h-2zm0-1.1h1.9c.6 0 1-.2 1.3-.5.3-.3.4-.8.4-1.4 0-.6-.2-1.1-.5-1.4-.3-.4-.7-.5-1.3-.5h-1.9v3.8zm7.7 5h-1.2v-7.4h1.2v7.4zm.1-9.4c0 .2-.1.4-.2.5s-.3.2-.5.2-.4-.1-.5-.2-.2-.3-.2-.5.1-.4.2-.5c.1-.1.3-.2.5-.2s.4.1.5.2.2.3.2.5zm4.3 8.5c.4 0 .7-.1 1-.4.2-.2.4-.6.4-1.1h1.1c0 .7-.3 1.3-.8 1.8s-1.1.7-1.7.7c-.9 0-1.6-.3-2.1-.9-.5-.6-.7-1.4-.7-2.6v-.8c0-1.1.2-2 .7-2.5s1.2-.9 2.1-.9c.8 0 1.4.2 1.8.7s.7 1.1.7 2h-1.1c0-.5-.2-1-.4-1.2s-.6-.4-1-.4c-.5 0-.9.2-1.2.5-.3.4-.4.9-.4 1.7v.9c0 .9.1 1.5.4 1.8.3.5.7.7 1.2.7zm5.5-8.3v1.8h1.1v1h-1.1v4.6c0 .3 0 .5.1.7s.3.2.5.2.3 0 .5-.1v1c-.3.1-.6.1-.8.1-.5 0-.8-.2-1.1-.5s-.4-.8-.4-1.4v-4.6h-1.1v-1h1.1v-1.8h1.2zm6.3 8.6c-.4.5-1 .8-1.8.8-.7 0-1.2-.2-1.5-.7-.3-.5-.5-1.1-.5-2v-4.8h1.2v4.7c0 1.2.3 1.7 1 1.7s1.2-.3 1.5-1v-5.5h1.2v7.4h-1.1v-.6zm6.1-5.7h-.5c-.6 0-1.1.3-1.3 1v5.3h-1.2v-7.4h1.2v.8c.3-.6.8-.9 1.4-.9.2 0 .4 0 .5.1l-.1 1.1zm3.8 6.4c-.9 0-1.6-.3-2.1-.8s-.7-1.4-.8-2.4v-.9c0-1.1.2-2 .7-2.6.5-.6 1.2-.9 2-.9.9 0 1.5.3 1.9.8.4.6.6 1.4.7 2.6v.8h-4.1v.2c0 .8.1 1.4.4 1.7.3.4.7.5 1.3.5.4 0 .7-.1.9-.2.3-.1.5-.3.8-.6l.6.8c-.4.7-1.2 1-2.3 1zm-.1-6.6c-.5 0-.9.2-1.1.5-.2.3-.4.9-.4 1.6h2.9v-.2c0-.7-.2-1.2-.4-1.5s-.5-.4-1-.4zm-57 33.1c-.8 0-1.4-.3-2-.8-.6-.6-.8-1.2-.8-2s.3-1.5.8-2 1.2-.8 2-.8 1.5.3 2 .8c.6.6.8 1.2.8 2s-.3 1.5-.9 2-1.1.8-1.9.8zm28.6 1.4h-1.3l-4-7.7v7.7H979v-10h1.3l4 7.7V360h1.2v10zm5.8 0c-.1-.2-.1-.4-.2-.8-.4.6-1 .9-1.6.9-.7 0-1.2-.2-1.6-.6s-.6-.9-.6-1.6c0-.8.3-1.3.8-1.8.5-.4 1.2-.7 2.1-.7h.9v-.8c0-.4-.1-.8-.3-.9-.2-.2-.5-.3-.9-.3s-.7.1-.9.3c-.2.2-.3.5-.3.8h-1.2c0-.4.1-.7.3-1.1.2-.3.5-.6.9-.8.4-.2.8-.3 1.3-.3.8 0 1.3.2 1.7.6s.6.9.6 1.6v3.7c0 .6.1 1.1.2 1.5v.1h-1.2zm-1.6-1c.3 0 .6-.1.8-.2s.5-.4.6-.6v-1.8h-.7c-.6 0-1 .1-1.4.4-.3.2-.5.6-.5 1s.1.7.3.9c.2.2.5.3.9.3zm5.6-6.4v.7c.5-.5 1-.8 1.8-.8s1.4.4 1.7 1.1c.5-.7 1.1-1.1 1.9-1.1 1.4 0 2.1.8 2.1 2.5v5h-1.2v-4.9c0-.5-.1-.9-.3-1.2-.2-.3-.5-.4-1-.4-.4 0-.7.1-.9.4-.2.3-.4.6-.4 1.1v5H998v-4.9c0-1-.4-1.5-1.3-1.5-.6 0-1 .3-1.3.9v5.5h-1.2v-7.4h1.2zm12.1 7.5c-.9 0-1.6-.3-2.1-.8s-.7-1.4-.8-2.4v-.9c0-1.1.2-2 .7-2.6.5-.6 1.2-.9 2-.9.9 0 1.5.3 1.9.8.4.6.6 1.4.7 2.6v.8h-4.1v.2c0 .8.1 1.4.4 1.7.3.4.7.5 1.3.5.4 0 .7-.1.9-.2.3-.1.5-.3.8-.6l.6.8c-.5.7-1.3 1-2.3 1zm-.2-6.6c-.5 0-.9.2-1.1.5-.2.3-.4.9-.4 1.6h2.9v-.2c0-.7-.2-1.2-.4-1.5s-.5-.4-1-.4zM957 396.6c-.8 0-1.4-.3-2-.8-.6-.6-.8-1.2-.8-2s.3-1.5.8-2 1.2-.8 2-.8 1.5.3 2 .8c.6.6.8 1.2.8 2s-.3 1.5-.9 2-1.1.8-1.9.8zm25.1-2.6h-1.8v4H979v-10h2.8c1 0 1.7.3 2.2.8.5.5.8 1.3.8 2.2 0 .6-.1 1.2-.4 1.6s-.7.8-1.2 1l1.9 4.2v.1h-1.3l-1.7-3.9zm-1.8-1.1h1.5c.5 0 .9-.2 1.3-.5.3-.3.5-.8.5-1.4 0-1.3-.6-1.9-1.7-1.9h-1.5v3.8zm5.8 1.1c0-1.1.3-1.9.8-2.6.5-.6 1.2-.9 2.1-.9s1.5.3 2.1.9c.5.6.8 1.4.8 2.5v.8c0 1.1-.3 1.9-.8 2.5-.5.6-1.2.9-2.1.9-.9 0-1.5-.3-2.1-.9-.5-.6-.8-1.4-.8-2.5v-.7zm1.2.7c0 .8.1 1.4.4 1.8.3.4.7.7 1.2.7 1.1 0 1.6-.8 1.6-2.3v-.9c0-.8-.2-1.4-.5-1.8-.3-.4-.7-.7-1.2-.7s-.9.2-1.2.7c-.3.4-.4 1-.4 1.8v.7zm7.4 3.3h-1.2v-10.5h1.2V398zm4.5.1c-.9 0-1.6-.3-2.1-.8s-.7-1.4-.8-2.4v-.9c0-1.1.2-2 .7-2.6.5-.6 1.2-.9 2-.9.9 0 1.5.3 1.9.8.4.6.6 1.4.7 2.6v.8h-4.1v.2c0 .8.1 1.4.4 1.7.3.4.7.5 1.3.5.4 0 .7-.1.9-.2.3-.1.5-.3.8-.6l.6.8c-.4.7-1.2 1-2.3 1zm-.1-6.6c-.5 0-.9.2-1.1.5-.2.3-.4.9-.4 1.6h2.9v-.2c0-.7-.2-1.2-.4-1.5s-.6-.4-1-.4zM958.6 289.1H956v8.9h-2.2v-8.9h-2.6v-1.8h7.4v1.8zm7.2 4.3h-3.4v2.8h4v1.8h-6.1v-10.7h6.1v1.8h-4v2.5h3.4v1.8zm7.4 2.4h-2.9l-.6 2.2h-2.3l3.3-10.7h2l3.4 10.7h-2.3l-.6-2.2zm-2.4-1.8h2l-1-3.8-1 3.8zm9.6-6.7l2 7.7 2-7.7h2.8V298H985v-2.9l.2-4.4-2.1 7.3h-1.5l-2.1-7.3.2 4.4v2.9h-2.2v-10.7h2.9zm15.8 0l2 7.7 2-7.7h2.8V298h-2.2v-2.9l.2-4.4-2.1 7.3h-1.5l-2.1-7.3.2 4.4v2.9h-2.2v-10.7h2.9zm14.5 6.1h-3.4v2.8h4v1.8h-6.1v-10.7h6.1v1.8h-4v2.5h3.4v1.8zm5.2-6.1l2 7.7 2-7.7h2.8V298h-2.2v-2.9l.2-4.4-2.1 7.3h-1.5l-2.1-7.3.2 4.4v2.9h-2.2v-10.7h2.9zm9 10.7v-10.7h3.3c1.1 0 2 .2 2.5.7s.9 1.2.9 2.2c0 .5-.1 1-.4 1.4s-.6.7-1 .9c.5.1.8.4 1.1.8s.4.9.4 1.5c0 1-.3 1.8-.9 2.3s-1.4.8-2.5.8h-3.4zm2.2-4.6v2.8h1.4c.4 0 .7-.1.9-.4s.3-.6.3-1c0-1-.3-1.4-1-1.5h-1.6zm0-1.6h1.1c.8 0 1.3-.4 1.3-1.3 0-.5-.1-.8-.3-1s-.5-.3-1-.3h-1.1v2.6zm12.2 1.6h-3.4v2.8h4v1.8h-6.1v-10.7h6.1v1.8h-4v2.5h3.4v1.8zm5.6.7h-1.1v3.9h-2.2v-10.7h3.4c1.1 0 1.9.3 2.5.8s.9 1.4.9 2.4c0 1.4-.5 2.4-1.5 3l1.9 4.4v.1h-2.3l-1.6-3.9zm-1.1-1.8h1.2c.4 0 .8-.1 1-.4s.3-.7.3-1.1c0-1.1-.4-1.6-1.3-1.6h-1.3v3.1zm11.2 2.9c0-.4-.1-.8-.3-1s-.6-.5-1.2-.7c-1.1-.4-1.8-.9-2.3-1.4s-.7-1.2-.7-1.9c0-.9.3-1.6 1-2.2s1.4-.8 2.4-.8c.7 0 1.2.1 1.8.4s.9.7 1.2 1.2.4 1.1.4 1.7h-2.1c0-.5-.1-.9-.3-1.1s-.5-.4-.9-.4-.7.1-.9.3-.3.5-.3.9c0 .3.1.6.4.8s.6.5 1.2.7c1 .4 1.8.8 2.3 1.4s.7 1.2.7 2.1c0 .9-.3 1.7-.9 2.2s-1.4.8-2.4.8c-.7 0-1.3-.1-1.9-.4s-1-.7-1.3-1.2-.5-1.1-.5-1.9h2.2c0 .6.1 1.1.4 1.3s.6.4 1.2.4c.4 0 .8-.4.8-1.2z"/>
  <path fill="#E4E7EF" d="M1033.8 112v2h89.2v117H913V114h23.3c-.1-.7.1-1.3 0-2H911v121h214V112h-91.2z"/>
  <path fill="#575B66" d="M957 160.6c-.8 0-1.4-.3-2-.8s-.8-1.2-.8-2 .3-1.5.8-2 1.2-.8 2-.8 1.5.3 2 .8c.6.6.8 1.2.8 2s-.3 1.5-.9 2-1.1.8-1.9.8zm25.5-8.6h1.3v7c0 1-.2 1.7-.7 2.2s-1.1.8-2 .8c-.8 0-1.5-.3-2-.8s-.7-1.2-.7-2.1h1.3c0 .6.1 1 .4 1.3s.6.5 1 .5.8-.2 1-.5.4-.8.4-1.5V152zm2.9 6c0-1.1.3-1.9.8-2.6s1.2-.9 2.1-.9 1.5.3 2.1.9.8 1.4.8 2.5v.8c0 1.1-.3 1.9-.8 2.5s-1.2.9-2.1.9c-.9 0-1.5-.3-2.1-.9s-.8-1.4-.8-2.5v-.7zm1.2.7c0 .8.1 1.4.4 1.8s.7.7 1.2.7c1.1 0 1.6-.8 1.6-2.3v-.9c0-.8-.2-1.4-.5-1.8-.3-.4-.7-.7-1.2-.7s-.9.2-1.2.7c-.3.4-.4 1-.4 1.8v.7zm11.5 0c0 1.2-.2 2-.6 2.6s-1 .9-1.8.9-1.4-.3-1.8-1l-.1.9h-1.1v-10.5h1.2v3.9c.4-.6 1-1 1.7-1 .8 0 1.4.3 1.8.9s.6 1.4.6 2.6v.7zm-1.2-.7c0-.9-.1-1.5-.4-1.9s-.6-.6-1.2-.6-1.1.3-1.4 1v3.5c.3.7.8 1 1.4 1 .5 0 .9-.2 1.2-.6s.4-1 .4-1.8v-.6zm7.3.1v3.9h-1.3v-10h3.2c.9 0 1.7.3 2.2.8s.8 1.3.8 2.2c0 1-.3 1.7-.8 2.2s-1.2.8-2.1.8h-2zm0-1.1h1.9c.6 0 1-.2 1.3-.5s.4-.8.4-1.4c0-.6-.2-1.1-.5-1.4s-.7-.5-1.3-.5h-1.9v3.8zm6.1 1c0-1.1.3-1.9.8-2.6s1.2-.9 2.1-.9 1.5.3 2.1.9.8 1.4.8 2.5v.8c0 1.1-.3 1.9-.8 2.5s-1.2.9-2.1.9c-.9 0-1.5-.3-2.1-.9s-.8-1.4-.8-2.5v-.7zm1.2.7c0 .8.1 1.4.4 1.8s.7.7 1.2.7c1.1 0 1.6-.8 1.6-2.3v-.9c0-.8-.2-1.4-.5-1.8-.3-.4-.7-.7-1.2-.7s-.9.2-1.2.7c-.3.4-.4 1-.4 1.8v.7zm9.7 1.4c0-.3-.1-.5-.3-.7s-.6-.4-1.1-.7c-.7-.3-1.1-.5-1.4-.7s-.5-.4-.6-.7-.2-.5-.2-.9c0-.6.2-1.1.7-1.5s1-.6 1.7-.6 1.3.2 1.7.6.7 1 .7 1.6h-1.2c0-.3-.1-.6-.3-.9s-.5-.4-.9-.4-.6.1-.8.3-.3.4-.3.7c0 .2.1.4.2.6s.5.3 1.1.6c.9.4 1.5.7 1.8 1s.5.8.5 1.3c0 .6-.2 1.2-.7 1.5s-1 .6-1.8.6-1.4-.2-1.9-.7-.7-1-.7-1.7h1.2c0 .4.1.7.4 1s.6.3 1 .3.7-.1.9-.3.3 0 .3-.3zm4.1 1.9h-1.2v-7.4h1.2v7.4zm.1-9.4c0 .2-.1.4-.2.5s-.3.2-.5.2-.4-.1-.5-.2-.2-.3-.2-.5.1-.4.2-.5.3-.2.5-.2.4.1.5.2.2.3.2.5zm3.4.2v1.8h1.1v1h-1.1v4.6c0 .3 0 .5.1.7s.3.2.5.2.3 0 .5-.1v1c-.3.1-.6.1-.8.1-.5 0-.8-.2-1.1-.5s-.4-.8-.4-1.4v-4.6h-1.1v-1h1.1v-1.8h1.2zm3.8 9.2h-1.2v-7.4h1.2v7.4zm.1-9.4c0 .2-.1.4-.2.5s-.3.2-.5.2-.4-.1-.5-.2-.2-.3-.2-.5.1-.4.2-.5.3-.2.5-.2.4.1.5.2.2.3.2.5zm1.6 5.4c0-1.1.3-1.9.8-2.6s1.2-.9 2.1-.9 1.5.3 2.1.9.8 1.4.8 2.5v.8c0 1.1-.3 1.9-.8 2.5s-1.2.9-2.1.9c-.9 0-1.5-.3-2.1-.9s-.8-1.4-.8-2.5v-.7zm1.2.7c0 .8.1 1.4.4 1.8s.7.7 1.2.7c1.1 0 1.6-.8 1.6-2.3v-.9c0-.8-.2-1.4-.5-1.8-.3-.4-.7-.7-1.2-.7s-.9.2-1.2.7c-.3.4-.4 1-.4 1.8v.7zm7.2-4.1v.8c.5-.6 1.1-.9 1.8-.9 1.3 0 2 .9 2 2.6v4.9h-1.2v-4.9c0-.6-.1-1-.3-1.2s-.5-.4-.9-.4c-.3 0-.6.1-.8.3s-.4.5-.6.8v5.4h-1.2v-7.4h1.2zm-85.7 34c-.8 0-1.4-.3-2-.8s-.8-1.2-.8-2 .3-1.5.8-2 1.2-.8 2-.8 1.5.3 2 .8c.6.6.8 1.2.8 2s-.3 1.5-.9 2-1.1.8-1.9.8zm25.5-8.6h1.3v7c0 1-.2 1.7-.7 2.2s-1.1.8-2 .8c-.8 0-1.5-.3-2-.8s-.7-1.2-.7-2.1h1.3c0 .6.1 1 .4 1.3s.6.5 1 .5.8-.2 1-.5.4-.8.4-1.5V180zm2.9 6c0-1.1.3-1.9.8-2.6s1.2-.9 2.1-.9 1.5.3 2.1.9.8 1.4.8 2.5v.8c0 1.1-.3 1.9-.8 2.5s-1.2.9-2.1.9c-.9 0-1.5-.3-2.1-.9s-.8-1.4-.8-2.5v-.7zm1.2.7c0 .8.1 1.4.4 1.8s.7.7 1.2.7c1.1 0 1.6-.8 1.6-2.3v-.9c0-.8-.2-1.4-.5-1.8-.3-.4-.7-.7-1.2-.7s-.9.2-1.2.7c-.3.4-.4 1-.4 1.8v.7zm11.5 0c0 1.2-.2 2-.6 2.6s-1 .9-1.8.9-1.4-.3-1.8-1l-.1.9h-1.1v-10.5h1.2v3.9c.4-.6 1-1 1.7-1 .8 0 1.4.3 1.8.9s.6 1.4.6 2.6v.7zm-1.2-.7c0-.9-.1-1.5-.4-1.9s-.6-.6-1.2-.6-1.1.3-1.4 1v3.5c.3.7.8 1 1.4 1 .5 0 .9-.2 1.2-.6s.4-1 .4-1.8v-.6zm6.1 4v-10h2.4c1.2 0 2.1.4 2.7 1.1s1 1.7 1 3.1v1.7c0 1.3-.3 2.3-1 3.1s-1.6 1.1-2.8 1.1h-2.3zm1.2-8.9v7.8h1c.9 0 1.5-.3 1.9-.8s.6-1.2.6-2.2v-1.8c0-1-.2-1.8-.6-2.3s-1-.7-1.8-.7h-1.1zm9.2 9c-.9 0-1.6-.3-2.1-.8s-.7-1.4-.8-2.4v-.9c0-1.1.2-2 .7-2.6s1.2-.9 2-.9c.9 0 1.5.3 1.9.8s.6 1.4.7 2.6v.8h-4.1v.2c0 .8.1 1.4.4 1.7s.7.5 1.3.5c.4 0 .7-.1.9-.2s.5-.3.8-.6l.6.8c-.4.7-1.2 1-2.3 1zm-.1-6.6c-.5 0-.9.2-1.1.5s-.4.9-.4 1.6h2.9v-.2c0-.7-.2-1.2-.4-1.5s-.5-.4-1-.4zm7.7 4.6c0-.3-.1-.5-.3-.7s-.6-.4-1.1-.7c-.7-.3-1.1-.5-1.4-.7s-.5-.4-.6-.7-.2-.5-.2-.9c0-.6.2-1.1.7-1.5s1-.6 1.7-.6 1.3.2 1.7.6.7 1 .7 1.6h-1.2c0-.3-.1-.6-.3-.9s-.5-.4-.9-.4-.6.1-.8.3-.3.4-.3.7c0 .2.1.4.2.6s.5.3 1.1.6c.9.4 1.5.7 1.8 1s.5.8.5 1.3c0 .6-.2 1.2-.7 1.5s-1 .6-1.8.6-1.4-.2-1.9-.7-.7-1-.7-1.7h1.2c0 .4.1.7.4 1s.6.3 1 .3.7-.1.9-.3.3 0 .3-.3zm5.3 1c.4 0 .7-.1 1-.4s.4-.6.4-1.1h1.1c0 .7-.3 1.3-.8 1.8s-1.1.7-1.7.7c-.9 0-1.6-.3-2.1-.9-.5-.6-.7-1.4-.7-2.6v-.8c0-1.1.2-2 .7-2.5s1.2-.9 2.1-.9c.8 0 1.4.2 1.8.7s.7 1.1.7 2h-1.1c0-.5-.2-1-.4-1.2s-.6-.4-1-.4c-.5 0-.9.2-1.2.5s-.4.9-.4 1.7v.9c0 .9.1 1.5.4 1.8s.6.7 1.2.7zm7-5.4h-.5c-.6 0-1.1.3-1.3 1v5.3h-1.2v-7.4h1.2v.8c.3-.6.8-.9 1.4-.9.2 0 .4 0 .5.1l-.1 1.1zm2.5 6.3h-1.2v-7.4h1.2v7.4zm.1-9.4c0 .2-.1.4-.2.5s-.3.2-.5.2-.4-.1-.5-.2-.2-.3-.2-.5.1-.4.2-.5.3-.2.5-.2.4.1.5.2.2.3.2.5zm7.1 6.1c0 1.2-.2 2-.6 2.6s-1 .9-1.8.9c-.7 0-1.3-.3-1.7-.8v3.5h-1.2v-10.2h1.1l.1.8c.4-.6 1-1 1.7-1 .8 0 1.4.3 1.8.8s.6 1.4.6 2.5v.9zm-1.2-.7c0-.8-.1-1.4-.4-1.8s-.7-.6-1.2-.6c-.6 0-1 .3-1.3.9v3.8c.3.6.7.8 1.3.8.5 0 .9-.2 1.2-.6s.4-1 .4-1.8v-.7zm4.4-5.2v1.8h1.1v1h-1.1v4.6c0 .3 0 .5.1.7s.3.2.5.2.3 0 .5-.1v1c-.3.1-.6.1-.8.1-.5 0-.8-.2-1.1-.5s-.4-.8-.4-1.4v-4.6h-1.1v-1h1.1v-1.8h1.2zm3.8 9.2h-1.2v-7.4h1.2v7.4zm.1-9.4c0 .2-.1.4-.2.5s-.3.2-.5.2-.4-.1-.5-.2-.2-.3-.2-.5.1-.4.2-.5.3-.2.5-.2.4.1.5.2.2.3.2.5zm1.6 5.4c0-1.1.3-1.9.8-2.6s1.2-.9 2.1-.9 1.5.3 2.1.9.8 1.4.8 2.5v.8c0 1.1-.3 1.9-.8 2.5s-1.2.9-2.1.9c-.9 0-1.5-.3-2.1-.9s-.8-1.4-.8-2.5v-.7zm1.2.7c0 .8.1 1.4.4 1.8s.7.7 1.2.7c1.1 0 1.6-.8 1.6-2.3v-.9c0-.8-.2-1.4-.5-1.8-.3-.4-.7-.7-1.2-.7s-.9.2-1.2.7c-.3.4-.4 1-.4 1.8v.7zm7.2-4.1v.8c.5-.6 1.1-.9 1.8-.9 1.3 0 2 .9 2 2.6v4.9h-1.2v-4.9c0-.6-.1-1-.3-1.2s-.5-.4-.9-.4c-.3 0-.6.1-.8.3s-.4.5-.6.8v5.4h-1.2v-7.4h1.2zM963.4 114.4c-.1 1.2-.4 2.1-1 2.8s-1.5.9-2.7.9c-1.2 0-2.1-.4-2.8-1.2-.6-.8-1-1.9-1-3.4v-1.8c0-1.5.3-2.6 1-3.4.7-.8 1.6-1.2 2.8-1.2 1.2 0 2 .3 2.6 1s.9 1.6 1 2.8h-2.2c0-.8-.1-1.3-.3-1.6s-.6-.4-1.2-.4-1 .2-1.2.6-.4 1.1-.4 2v2c0 1.1.1 1.8.4 2.2s.6.6 1.2.6 1-.1 1.2-.4.3-.8.4-1.5h2.2zm6.9 1.4h-2.9l-.6 2.2h-2.3l3.3-10.7h2l3.4 10.7h-2.3l-.6-2.2zm-2.4-1.8h2l-1-3.8-1 3.8zm10 .1h-1.1v3.9h-2.2v-10.7h3.4c1.1 0 1.9.3 2.5.8.6.6.9 1.4.9 2.4 0 1.4-.5 2.4-1.5 3l1.9 4.4v.1h-2.3l-1.6-3.9zm-1.1-1.8h1.2c.4 0 .8-.1 1-.4.2-.3.3-.7.3-1.1 0-1.1-.4-1.6-1.3-1.6h-1.3v3.1zm12.2 1.1h-3.4v2.8h4v1.8h-6.1v-10.7h6.1v1.8h-4v2.5h3.4v1.8zm7.8 0h-3.4v2.8h4v1.8h-6.1v-10.7h6.1v1.8h-4v2.5h3.4v1.8zm5.6.7h-1.1v3.9h-2.2v-10.7h3.4c1.1 0 1.9.3 2.5.8s.9 1.4.9 2.4c0 1.4-.5 2.4-1.5 3l1.9 4.4v.1h-2.3l-1.6-3.9zm-1.1-1.8h1.2c.4 0 .8-.1 1-.4.2-.3.3-.7.3-1.1 0-1.1-.4-1.6-1.3-1.6h-1.3v3.1zm11.1 2.9c0-.4-.1-.8-.3-1s-.6-.5-1.2-.7c-1.1-.4-1.8-.9-2.3-1.4s-.7-1.2-.7-1.9c0-.9.3-1.6 1-2.2s1.4-.8 2.4-.8c.7 0 1.2.1 1.8.4s.9.7 1.2 1.2.4 1.1.4 1.7h-2.1c0-.5-.1-.9-.3-1.1s-.5-.4-.9-.4-.7.1-.9.3-.3.5-.3.9c0 .3.1.6.4.8s.6.5 1.2.7c1 .4 1.8.8 2.3 1.4s.7 1.2.7 2.1c0 .9-.3 1.7-.9 2.2s-1.4.8-2.4.8c-.7 0-1.3-.1-1.9-.4s-1-.7-1.3-1.2-.5-1.1-.5-1.9h2.2c0 .6.1 1.1.4 1.3s.6.4 1.2.4c.5 0 .8-.4.8-1.2z"/>
  <path fill="#E4E7EF" d="M487.5 455c0 .7-.1 1.3 0 2H538v77H328v-77h24.1c-.1-.7.1-1.3 0-2H326v81h214v-81h-52.5z"/>
  <path fill="#575B66" d="M367 499.6c-.8 0-1.4-.3-2-.8-.6-.6-.8-1.2-.8-2s.3-1.5.8-2 1.2-.8 2-.8 1.5.3 2 .8c.6.6.8 1.2.8 2s-.3 1.5-.9 2-1.1.8-1.9.8zm28.3-1.8c-.1 1.1-.4 1.9-.9 2.4-.5.6-1.3.8-2.3.8-1 0-1.8-.4-2.4-1.1s-.9-1.8-.9-3.1V495c0-1.3.3-2.3.9-3.1s1.4-1.1 2.5-1.1c1 0 1.7.3 2.2.9.5.6.8 1.4.9 2.5H394c-.1-.8-.2-1.4-.5-1.7-.3-.3-.7-.5-1.3-.5-.7 0-1.2.3-1.6.8-.4.5-.5 1.3-.5 2.3v1.8c0 1 .2 1.8.5 2.3.3.5.8.8 1.5.8s1.1-.2 1.4-.5c.3-.3.5-.9.5-1.7h1.3zm5.3 3.2c-.1-.2-.1-.4-.2-.8-.4.6-1 .9-1.6.9-.7 0-1.2-.2-1.6-.6s-.6-.9-.6-1.6c0-.8.3-1.3.8-1.8.5-.4 1.2-.7 2.1-.7h.9v-.8c0-.4-.1-.8-.3-.9-.2-.2-.5-.3-.9-.3s-.7.1-.9.3c-.2.2-.3.5-.3.8h-1.2c0-.4.1-.7.3-1.1.2-.3.5-.6.9-.8.4-.2.8-.3 1.3-.3.8 0 1.3.2 1.7.6s.6.9.6 1.6v3.7c0 .6.1 1.1.2 1.5v.1h-1.2zm-1.6-1c.3 0 .6-.1.8-.2s.5-.4.6-.6v-1.8h-.7c-.6 0-1 .1-1.4.4-.3.2-.5.6-.5 1s.1.7.3.9c.2.2.5.3.9.3zm6.1-8.2v1.8h1.1v1h-1.1v4.6c0 .3 0 .5.1.7s.3.2.5.2.3 0 .5-.1v1c-.3.1-.6.1-.8.1-.5 0-.8-.2-1.1-.5s-.4-.8-.4-1.4v-4.6h-1.1v-1h1.1v-1.8h1.2zm5.2 9.3c-.9 0-1.6-.3-2.1-.8s-.7-1.4-.8-2.4v-.9c0-1.1.2-2 .7-2.6.5-.6 1.2-.9 2-.9.9 0 1.5.3 1.9.8.4.6.6 1.4.7 2.6v.8h-4.1v.2c0 .8.1 1.4.4 1.7.3.4.7.5 1.3.5.4 0 .7-.1.9-.2.3-.1.5-.3.8-.6l.6.8c-.4.7-1.2 1-2.3 1zm-.1-6.6c-.5 0-.9.2-1.1.5-.2.3-.4.9-.4 1.6h2.9v-.2c0-.7-.2-1.2-.4-1.5s-.6-.4-1-.4zm3.8 2.5c0-1.2.2-2 .6-2.6.4-.6 1-.9 1.8-.9s1.3.3 1.7 1l.1-.8h1.1v7.5c0 .9-.2 1.6-.7 2.1-.5.5-1.1.7-2 .7-.4 0-.8-.1-1.2-.3-.5-.2-.8-.4-1-.7l.5-.8c.5.5 1.1.7 1.7.7 1 0 1.5-.5 1.6-1.6v-1c-.4.6-.9.9-1.7.9-.8 0-1.4-.3-1.8-.9-.4-.6-.7-1.4-.7-2.5v-.8zm1.2.7c0 .8.1 1.4.4 1.8s.6.6 1.2.6 1.1-.3 1.4-.9v-3.7c-.3-.6-.8-.9-1.3-.9-.6 0-1 .2-1.2.6s-.4 1-.4 1.8v.7zm5.7-.7c0-1.1.3-1.9.8-2.6.5-.6 1.2-.9 2.1-.9s1.5.3 2.1.9c.5.6.8 1.4.8 2.5v.8c0 1.1-.3 1.9-.8 2.5-.5.6-1.2.9-2.1.9-.9 0-1.5-.3-2.1-.9-.5-.6-.8-1.4-.8-2.5v-.7zm1.2.7c0 .8.1 1.4.4 1.8.3.4.7.7 1.2.7 1.1 0 1.6-.8 1.6-2.3v-.9c0-.8-.2-1.4-.5-1.8-.3-.4-.7-.7-1.2-.7s-.9.2-1.2.7c-.3.4-.4 1-.4 1.8v.7zm9.1-3h-.5c-.6 0-1.1.3-1.3 1v5.3h-1.2v-7.4h1.2v.8c.3-.6.8-.9 1.4-.9.2 0 .4 0 .5.1l-.1 1.1zm3.2 4.3l1.3-5.4h1.3l-2.4 8.4c-.2.6-.4 1.1-.8 1.4-.3.3-.7.5-1.1.5-.2 0-.4 0-.6-.1v-1h.3c.4 0 .6-.1.8-.2.2-.2.4-.5.5-.9l.2-.8-2.2-7.3h1.3l1.4 5.4zm8.2-5.4v.8c.5-.6 1.1-.9 1.8-.9 1.3 0 2 .9 2 2.6v4.9h-1.2v-4.9c0-.6-.1-1-.3-1.2-.2-.2-.5-.4-.9-.4-.3 0-.6.1-.8.3-.2.2-.4.5-.6.8v5.4h-1.2v-7.4h1.2zm9.4 7.4c-.1-.2-.1-.4-.2-.8-.4.6-1 .9-1.6.9-.7 0-1.2-.2-1.6-.6s-.6-.9-.6-1.6c0-.8.3-1.3.8-1.8.5-.4 1.2-.7 2.1-.7h.9v-.8c0-.4-.1-.8-.3-.9-.2-.2-.5-.3-.9-.3s-.7.1-.9.3c-.2.2-.3.5-.3.8h-1.2c0-.4.1-.7.3-1.1.2-.3.5-.6.9-.8.4-.2.8-.3 1.3-.3.8 0 1.3.2 1.7.6s.6.9.6 1.6v3.7c0 .6.1 1.1.2 1.5v.1H452zm-1.6-1c.3 0 .6-.1.8-.2s.5-.4.6-.6v-1.8h-.7c-.6 0-1 .1-1.4.4-.3.2-.5.6-.5 1s.1.7.3.9c.2.2.5.3.9.3zm5.7-6.4v.7c.5-.5 1-.8 1.8-.8s1.4.4 1.7 1.1c.5-.7 1.1-1.1 1.9-1.1 1.4 0 2.1.8 2.1 2.5v5h-1.2v-4.9c0-.5-.1-.9-.3-1.2-.2-.3-.5-.4-1-.4-.4 0-.7.1-.9.4-.2.3-.4.6-.4 1.1v5h-1.2v-4.9c0-1-.4-1.5-1.3-1.5-.6 0-1 .3-1.3.9v5.5h-1.2v-7.4h1.3zm12 7.5c-.9 0-1.6-.3-2.1-.8s-.7-1.4-.8-2.4v-.9c0-1.1.2-2 .7-2.6.5-.6 1.2-.9 2-.9.9 0 1.5.3 1.9.8.4.6.6 1.4.7 2.6v.8h-4.1v.2c0 .8.1 1.4.4 1.7.3.4.7.5 1.3.5.4 0 .7-.1.9-.2.3-.1.5-.3.8-.6l.6.8c-.4.7-1.2 1-2.3 1zm-.1-6.6c-.5 0-.9.2-1.1.5-.2.3-.4.9-.4 1.6h2.9v-.2c0-.7-.2-1.2-.4-1.5s-.6-.4-1-.4zM365.5 462v-10.7h3.3c1.1 0 2 .2 2.5.7s.9 1.2.9 2.2c0 .5-.1 1-.4 1.4s-.6.7-1 .9c.5.1.8.4 1.1.8s.4.9.4 1.5c0 1-.3 1.8-.9 2.3s-1.4.8-2.5.8h-3.4zm2.2-4.6v2.8h1.4c.4 0 .7-.1.9-.4s.3-.6.3-1c0-1-.3-1.4-1-1.5h-1.6zm0-1.6h1.1c.8 0 1.3-.4 1.3-1.3 0-.5-.1-.8-.3-1s-.5-.3-1-.3h-1.1v2.6zm8.9 4.4h3.8v1.8h-5.9v-10.7h2.2v8.9zm12.5-2.6c0 1.4-.3 2.5-1 3.3s-1.6 1.2-2.8 1.2c-1.2 0-2.1-.4-2.8-1.2s-1-1.9-1-3.3v-1.8c0-1.5.3-2.6 1-3.4s1.6-1.2 2.8-1.2c1.2 0 2.1.4 2.8 1.2s1 1.9 1 3.4v1.8zm-2.2-1.8c0-1-.1-1.7-.4-2.1s-.7-.7-1.3-.7c-.6 0-1 .2-1.3.7s-.4 1.1-.4 2.1v1.9c0 .9.1 1.6.4 2.1s.7.7 1.3.7c.6 0 1-.2 1.3-.6s.4-1.1.4-2v-2.1zm11.5 5c-.4.4-.9.8-1.5 1s-1.3.3-2 .3c-1.2 0-2.2-.4-2.9-1.1s-1-1.9-1-3.3v-1.9c0-1.5.3-2.6 1-3.4s1.6-1.2 2.8-1.2c1.2 0 2 .3 2.6.9s.9 1.5 1 2.7h-2.1c-.1-.7-.2-1.1-.4-1.4s-.6-.4-1.1-.4c-.6 0-1 .2-1.3.6s-.4 1.1-.4 2v1.9c0 1 .1 1.7.4 2.1s.8.7 1.4.7c.4 0 .8-.1 1-.3l.2-.1v-2h-1.5v-1.6h3.7v4.5zm13.1-2.4c-.1 1.2-.4 2.1-1 2.8s-1.5.9-2.7.9c-1.2 0-2.1-.4-2.8-1.2s-1-1.9-1-3.4v-1.8c0-1.5.3-2.6 1-3.4s1.6-1.2 2.8-1.2c1.2 0 2 .3 2.6 1s.9 1.6 1 2.8h-2.2c0-.8-.1-1.3-.3-1.6s-.6-.4-1.2-.4-1 .2-1.2.6-.4 1.1-.4 2v2c0 1.1.1 1.8.4 2.2s.6.6 1.2.6 1-.1 1.2-.4.3-.8.4-1.5h2.2zm6.9 1.4h-2.9l-.6 2.2h-2.3l3.3-10.7h2l3.4 10.7H419l-.6-2.2zM416 458h2l-1-3.8-1 3.8zm12.8-4.9h-2.6v8.9H424v-8.9h-2.6v-1.8h7.4v1.8zm7.2 4.3h-3.4v2.8h4v1.8h-6.1v-10.7h6.1v1.8h-4v2.5h3.4v1.8zm9.6 3.4c-.4.4-.9.8-1.5 1-.6.2-1.3.3-2 .3-1.2 0-2.2-.4-2.9-1.1-.7-.8-1-1.9-1-3.3v-1.9c0-1.5.3-2.6 1-3.4s1.6-1.2 2.8-1.2c1.2 0 2 .3 2.6.9s.9 1.5 1 2.7h-2.1c-.1-.7-.2-1.1-.4-1.4s-.6-.4-1.1-.4c-.6 0-1 .2-1.3.6s-.4 1.1-.4 2v1.9c0 1 .1 1.7.4 2.1s.8.7 1.4.7c.4 0 .8-.1 1-.3l.2-.1v-2H442v-1.6h3.7v4.5zm9.5-3.2c0 1.4-.3 2.5-1 3.3s-1.6 1.2-2.8 1.2c-1.2 0-2.1-.4-2.8-1.2s-1-1.9-1-3.3v-1.8c0-1.5.3-2.6 1-3.4s1.6-1.2 2.8-1.2c1.2 0 2.1.4 2.8 1.2s1 1.9 1 3.4v1.8zm-2.1-1.8c0-1-.1-1.7-.4-2.1s-.7-.7-1.3-.7c-.6 0-1 .2-1.3.7s-.4 1.1-.4 2.1v1.9c0 .9.1 1.6.4 2.1s.7.7 1.3.7c.6 0 1-.2 1.3-.6s.4-1.1.4-2v-2.1zm7.4 2.3h-1.1v3.9h-2.2v-10.7h3.4c1.1 0 1.9.3 2.5.8s.9 1.4.9 2.4c0 1.4-.5 2.4-1.5 3l1.9 4.4v.1H462l-1.6-3.9zm-1.1-1.8h1.2c.4 0 .8-.1 1-.4s.3-.7.3-1.1c0-1.1-.4-1.6-1.3-1.6h-1.3v3.1zm9.5-.2l1.6-4.8h2.3l-2.9 6.8v3.9h-2.2v-3.9l-2.9-6.8h2.3l1.8 4.8z"/>
  <path fill="#0042FF" d="M76 385h-2v113h250.5v-2H76"/>
  <circle fill="#0042FF" cx="327" cy="497" r="3"/>
  <path fill="#0042FF" d="M536 360h123v-2H536"/>
  <circle fill="#0042FF" cx="539" cy="359" r="3"/>
  <path fill="#0042FF" d="M2 356h70.5v2H0v-62h36v2H2"/>
  <circle fill="#0042FF" cx="35.2" cy="297" r="3"/>
  <path fill="#0042FF" d="M536 188v-2h62v144h60v2h-62V188"/>
  <circle fill="#0042FF" cx="539" cy="187" r="3"/>
</svg>
