<svg width="154" height="280" viewBox="0 0 154 280" xmlns="http://www.w3.org/2000/svg">
  <path d="M125.608 120.042c-4.315-1.53-9.957-2.774-15.927-3.785.493-27.642 2.844-60.623 5.985-88.667 6.806 1.538 13.14 3.71 18.557 6.657-5.92 30.66-7.316 57.66-8.614 85.795m-64.195-7.74c-1.03-29.76-2.555-50.954-7.875-84.96 6.132-1.178 13.31-2.078 20.966-2.524 2.34 27.903 4.117 53.364 3.5 87.87-1.596-.118-2.84-.202-3.58-.258-3.02-.223-7.752-.523-13.01-.127m45.056-86.376c-3.14 29.484-3.98 60.964-4.04 89.23-5.973-.814-11.874-1.418-16.77-1.852.73-29.67.304-51.77-1.107-88.794 7.283-.02 14.734.408 21.917 1.417M34.53 6.782c-5.543 2.76-3.115 15.952-.505 21.78.732 1.633 3.727 3.295 7.085 2.05.813-.302 1.71-.596 2.642-.884 6.416 33.864 7.842 51.558 8.61 84.025-2.98.772-5.927 1.876-8.65 3.448-10.517 6.083-20.602 10.418-37.867 23.96C3.888 142.694.81 144.9.81 149.087c0 .677-.007 1.42-.015 2.188l-.27-.43c-1.027 35.597-.28 76.38 0 112.39 0 4.295 7.163 6.033 7.382 2.563 2.205-33.506 2.496-53.392 5.206-85.42 8.467 2.935 19.94 4.92 29.208 6.422.147 16.285.84 40.794 1.05 44.1.235 3.708 6.373 6.005 6.686 2.032.662-8.427 1.863-28.27 2.553-44.64 7.058.912 14.164 1.65 21.167 2.414 4.736.517 11.422 1.053 17.006 1.11 1.3 27.823 3.162 56.94 4.806 85.22 1.375 4.292 7.916 3.373 7.96.713.54-33.072.64-58.745 1.152-87.542 2.44-.68 4.713-1.6 6.705-2.853 4.058-2.55 8.967-8.99 13.263-16.243 1.37 21.554 2.803 41.142 3.64 61.068.203 7.616 7.974 7.02 7.97 2.914-.46-38.89-.647-47.102-1.182-88.773l-.09-.043c.06-.527.096-1.025.09-1.467-.048-2.868-.582-14.084-1.574-18.7l.31.108c0-32.286 2.24-54.982 8.282-86.562 3.132 2.435 7.836 4.73 9.252-.78 2.916-11.332 3.48-17.35.433-20.693C131.036-4.583 54.14-2.98 34.53 6.783" fill="#FF5F5C" fill-rule="evenodd"/>
</svg>
