<svg width="120" height="100" viewBox="0 0 120 100" xmlns="http://www.w3.org/2000/svg" xmlns:xlink="http://www.w3.org/1999/xlink"><title>[interludio]adaptive_icons03</title><defs><path id="a" d="M100 100H0V0h100z"/><path id="c" d="M0 100h120V0H0z"/></defs><g fill="none" fill-rule="evenodd"><g transform="translate(6)"><mask id="b" fill="#fff"><use xlink:href="#a"/></mask><path d="M0 50c0 27.614 22.386 50 50 50s50-22.386 50-50S77.614 0 50 0 0 22.386 0 50" fill="#F4F3EF" mask="url(#b)"/></g><path fill="#FFF" d="M104 16L92 34h-6l-6-6h-4l-8 10h-8l-8-14h-8l-4 6h-8l-8 10h-4v44h96V16"/><path fill="#FCD410" d="M20 68h10l8-10h12l6 8h12l16-16h12l6-10h14v44H20"/><mask id="d" fill="#fff"><use xlink:href="#c"/></mask><path fill="#E8C42D" mask="url(#d)" d="M20 84h5V68h-5"/><path stroke="#333" stroke-width="2" mask="url(#d)" d="M116 16h-12L92 34h-6l-6-6h-4l-8 10h-8l-8-14h-8l-4 6h-8l-8 10h-4M0 84h120M20 68h10l8-10h12l6 8h12l16-16h12l6-10h14M8 72H0M8 60H0M8 48H0M8 36H0M8 24H0M8 12H0M14 84V10"/></g></svg>