<svg width="230" height="264" viewBox="0 0 230 264" xmlns="http://www.w3.org/2000/svg">
  <g fill="none" fill-rule="evenodd">
    <path fill="#F7F6F0" d="M21 0h189v198.612H21"/>
    <path d="M54.26 143.262H51.6L51.066 145h-2.018l2.706-7.698h2.402L56.85 145h-2.065l-.525-1.738zm-.42-1.365l-.56-1.843-.338-1.213h-.023l-.316 1.203-.583 1.854h1.82zm8.48-2.31c.366.36.548.868.548 1.53V145h-1.982v-3.336c0-.396-.072-.678-.216-.846-.144-.167-.348-.25-.613-.25-.31 0-.563.11-.758.332-.195.222-.292.562-.292 1.02V145h-1.983v-5.832h1.773l.058 1.12c.187-.412.45-.72.793-.928.34-.206.742-.31 1.2-.31.615 0 1.105.18 1.47.538zm7.35 4.235l-.153 1.108c-.226.124-.49.187-.793.187-.84 0-1.342-.3-1.505-.898-.35.597-1.043.897-2.077.897-.583 0-1.03-.125-1.34-.374-.312-.248-.468-.61-.468-1.084 0-.5.177-.9.53-1.21.355-.306.936-.54 1.745-.704l1.318-.257v-.21c0-.265-.074-.475-.222-.63-.148-.156-.35-.234-.607-.234-.296 0-.537.07-.724.21-.186.14-.307.37-.36.688l-1.61-.466c.1-.568.38-1.01.84-1.324.458-.315 1.076-.473 1.853-.473.91 0 1.6.188 2.076.56.474.374.71.934.71 1.68v2.124c0 .303.14.455.42.455.15 0 .27-.017.363-.048zm-3.07-.216c.22-.15.328-.352.328-.6v-.502l-.945.222c-.25.062-.426.138-.53.227-.106.09-.158.216-.158.38 0 .162.05.287.15.372.102.086.242.13.42.13.273 0 .518-.077.736-.23zm5.226-.624c0 .265.04.45.117.56.078.11.218.163.42.163.187 0 .385-.035.595-.105l-.128 1.225c-.14.086-.323.156-.55.21-.224.054-.446.082-.664.082-.622 0-1.073-.146-1.353-.438-.28-.292-.42-.76-.42-1.406v-6.58h1.983v6.288zM76.702 145c-.218.622-.455 1.116-.712 1.48-.256.367-.56.63-.91.79-.35.158-.773.238-1.27.238-.662 0-1.19-.144-1.587-.432l.42-1.33c.124.117.262.197.414.24.152.042.348.064.59.064.24 0 .43-.04.57-.123.14-.08.253-.227.34-.437l.14-.362-.678-1.586-1.74-4.374h2.183l.898 3.324.28 1.237.316-1.284.898-3.278h1.983L76.702 145zm6.497-.327c-.196.133-.442.24-.742.32-.3.083-.6.124-.904.124-.692 0-1.22-.148-1.586-.444-.366-.295-.552-.77-.56-1.423v-2.67h-1.003v-1.412h1.003v-1.306l1.983-.55v1.856h1.75v1.41h-1.75v2.346c0 .52.258.78.77.78.32 0 .6-.084.84-.255l.2 1.223zm.366-6.41c-.182-.15-.274-.39-.274-.716 0-.335.092-.578.274-.73.183-.15.477-.227.88-.227.405 0 .7.076.882.228.182.15.274.394.274.73 0 .325-.092.564-.274.716-.183.152-.477.227-.88.227-.405 0-.7-.074-.882-.226zM85.438 145h-1.983v-5.832h1.983V145zm5.6-5.447c.442.334.718.77.827 1.306l-1.843.606c-.077-.67-.377-1.003-.898-1.003-.77 0-1.155.548-1.155 1.644 0 1.066.384 1.598 1.154 1.598.552 0 .875-.315.968-.944l1.785.572c-.086.53-.368.958-.846 1.29-.477.33-1.11.495-1.894.495-1.01 0-1.79-.265-2.333-.794-.544-.528-.816-1.275-.816-2.24 0-.955.27-1.7.81-2.233.54-.532 1.293-.8 2.257-.8.88 0 1.54.17 1.983.503zm.874 4.537l1.026-1.12c.335.553.91.83 1.727.83.272 0 .486-.038.64-.112.157-.074.234-.173.234-.298 0-.108-.08-.204-.24-.285-.16-.082-.433-.162-.822-.24-.87-.17-1.49-.404-1.86-.7-.37-.295-.555-.688-.555-1.177 0-.335.105-.65.315-.945.21-.296.527-.535.95-.718.425-.182.94-.274 1.547-.274.668 0 1.215.093 1.638.275.424.183.768.457 1.033.823l-1.027 1.003c-.187-.27-.41-.47-.666-.594-.256-.124-.563-.187-.92-.187-.28 0-.5.042-.654.128-.156.085-.234.19-.234.315 0 .116.08.215.24.297.16.082.437.16.833.24.855.147 1.47.367 1.848.658.377.292.566.69.566 1.196 0 .567-.237 1.028-.712 1.382-.474.354-1.162.53-2.064.53-1.338 0-2.286-.342-2.846-1.026zm15.42 1.027c-.436 0-.803-.047-1.103-.14-.3-.094-.632-.288-.998-.584-.264.234-.585.413-.962.537-.377.124-.795.187-1.254.187-.81 0-1.46-.183-1.954-.55-.494-.364-.744-.877-.752-1.538 0-.42.12-.82.362-1.197.24-.377.645-.67 1.213-.88-.31-.374-.52-.69-.63-.95-.11-.262-.164-.547-.164-.858 0-.335.09-.652.264-.95.175-.3.437-.543.787-.73.35-.187.783-.28 1.296-.28.74 0 1.308.17 1.71.513.4.342.6.778.6 1.307 0 .956-.557 1.66-1.67 2.11.242.265.425.467.55.607l.78.84c.203-.435.293-.94.27-1.516l1.317.035c0 .91-.248 1.673-.746 2.287.17.132.334.227.49.286.155.058.323.087.5.087.118 0 .207-.004.27-.01l-.175 1.387zm-4.363-6.433c-.125.128-.187.305-.187.53 0 .156.04.312.122.467.082.157.247.382.496.678.312-.218.518-.42.62-.607.1-.185.15-.395.15-.63 0-.2-.06-.356-.18-.465-.12-.11-.29-.164-.507-.164-.218 0-.39.066-.514.194zm1.376 4.893l-.677-.7c-.467-.482-.806-.836-1.016-1.06-.248.185-.418.358-.507.518-.09.16-.134.344-.134.554 0 .27.11.493.332.664.222.17.512.256.87.256.404 0 .78-.077 1.13-.233zm15.14 1.423h-1.773v-3.534l.058-2.368h-.022L115.846 145h-1.62l-1.902-5.902h-.023l.06 2.368V145h-1.786v-7.698h2.858l1.213 3.92.432 1.632h.023l.443-1.62 1.202-3.932h2.74V145zm6.555-2.344h-3.977c.063.365.197.633.403.804.206.17.48.257.822.257.288 0 .523-.054.706-.163.182-.11.305-.27.367-.48l1.61.515c-.163.496-.48.875-.95 1.136-.47.26-1.048.39-1.732.39-1.02 0-1.798-.264-2.34-.793-.54-.528-.81-1.275-.81-2.24 0-.963.265-1.71.794-2.238.53-.53 1.28-.794 2.25-.794.942 0 1.663.26 2.165.777.5.517.752 1.242.752 2.175 0 .265-.02.482-.06.654zm-3.988-1.074h2.192c-.093-.762-.45-1.143-1.073-1.143-.628 0-1.002.38-1.118 1.142zm10.567 2.24l-.152 1.108c-.226.124-.49.187-.794.187-.84 0-1.34-.3-1.504-.898-.35.597-1.042.897-2.076.897-.584 0-1.03-.125-1.342-.374-.31-.248-.466-.61-.466-1.084 0-.5.177-.9.53-1.21.354-.306.935-.54 1.744-.704l1.318-.257v-.21c0-.265-.074-.475-.22-.63-.15-.156-.35-.234-.608-.234-.295 0-.537.07-.723.21-.187.14-.307.37-.362.688l-1.61-.466c.102-.568.382-1.01.84-1.324.46-.315 1.077-.473 1.855-.473.91 0 1.602.188 2.076.56.475.374.712.934.712 1.68v2.124c0 .303.14.455.42.455.147 0 .268-.017.36-.048zm-3.068-.216c.217-.15.326-.352.326-.6v-.502l-.945.222c-.248.062-.425.138-.53.227-.105.09-.158.216-.158.38 0 .162.05.287.152.372.1.086.24.13.42.13.272 0 .517-.077.735-.23zm2.834.484l1.026-1.12c.335.553.91.83 1.727.83.27 0 .485-.038.64-.112.156-.074.233-.173.233-.298 0-.108-.08-.204-.24-.285-.158-.082-.432-.162-.82-.24-.872-.17-1.492-.404-1.86-.7-.37-.295-.555-.688-.555-1.177 0-.335.105-.65.314-.945.21-.296.527-.535.95-.718.425-.182.94-.274 1.547-.274.667 0 1.214.093 1.637.275.424.183.768.457 1.033.823l-1.027 1.003c-.186-.27-.408-.47-.665-.594-.256-.124-.563-.187-.92-.187-.28 0-.5.042-.654.128-.156.085-.234.19-.234.315 0 .116.08.215.24.297.16.082.437.16.834.24.855.147 1.47.367 1.848.658.377.292.566.69.566 1.196 0 .567-.237 1.028-.712 1.382-.474.354-1.162.53-2.064.53-1.338 0-2.286-.342-2.846-1.026zm11.874-4.922V145h-1.773l-.058-1.085c-.367.8-1.04 1.202-2.02 1.202-.62 0-1.11-.166-1.463-.496-.354-.33-.53-.85-.53-1.556v-3.896h1.982v3.394c0 .38.065.65.197.805.133.156.335.233.607.233.327 0 .587-.11.78-.332.196-.222.293-.558.293-1.01v-3.09h1.983zm5.074.012l-.21 1.68c-.078-.047-.183-.088-.315-.123-.133-.035-.273-.053-.42-.053-.374 0-.685.12-.934.356-.25.237-.373.577-.373 1.02V145H145.1v-5.832h1.75l.08 1.26c.14-.444.36-.784.66-1.02.3-.238.67-.357 1.114-.357.264 0 .474.044.63.13zm5.75 3.476h-3.977c.062.365.196.633.402.804.205.17.48.257.82.257.29 0 .524-.054.707-.163.183-.11.305-.27.367-.48l1.61.515c-.163.496-.48.875-.95 1.136-.47.26-1.048.39-1.733.39-1.017 0-1.797-.264-2.337-.793-.54-.528-.81-1.275-.81-2.24 0-.963.263-1.71.792-2.238.53-.53 1.28-.794 2.25-.794.942 0 1.664.26 2.165.777.502.517.752 1.242.752 2.175 0 .265-.02.482-.058.654zm-3.99-1.074h2.194c-.093-.762-.45-1.143-1.073-1.143-.63 0-1.003.38-1.12 1.142zm13.607-1.994c.37.358.555.867.555 1.528V145h-1.983v-3.43c0-.668-.264-1.002-.793-1.002-.312 0-.56.112-.747.338-.187.225-.28.552-.28.98V145h-1.983v-3.43c0-.668-.265-1.002-.793-1.002-.296 0-.54.112-.735.338-.195.225-.292.564-.292 1.015V145h-1.983v-5.832h1.773l.06 1.12c.185-.405.446-.712.78-.922.334-.21.727-.315 1.178-.315.443 0 .826.102 1.15.305.322.202.553.493.693.874.188-.382.454-.673.8-.875.346-.203.733-.304 1.16-.304.592 0 1.072.18 1.44.538zm6.982 3.068h-3.977c.062.365.196.633.402.804.206.17.48.257.822.257.287 0 .522-.054.705-.163.183-.11.305-.27.367-.48l1.61.515c-.163.496-.48.875-.95 1.136-.47.26-1.048.39-1.733.39-1.02 0-1.8-.264-2.34-.793-.54-.528-.81-1.275-.81-2.24 0-.963.264-1.71.793-2.238.53-.53 1.28-.794 2.25-.794.942 0 1.663.26 2.165.777.5.517.752 1.242.752 2.175 0 .265-.02.482-.058.654zm-3.99-1.074h2.194c-.094-.762-.45-1.143-1.073-1.143-.63 0-1.003.38-1.12 1.142zm9.87-1.994c.364.358.547.867.547 1.528V145h-1.984v-3.336c0-.396-.072-.678-.216-.846-.144-.167-.348-.25-.612-.25-.31 0-.564.11-.758.332-.195.222-.292.562-.292 1.02V145h-1.983v-5.832h1.773l.058 1.12c.187-.412.45-.72.794-.928.342-.206.742-.31 1.2-.31.615 0 1.105.18 1.47.538zm5.55 5.085c-.194.133-.44.24-.74.32-.3.083-.6.124-.904.124-.692 0-1.22-.148-1.586-.444-.366-.295-.552-.77-.56-1.423v-2.67h-1.003v-1.412h1.002v-1.306l1.983-.55v1.856h1.75v1.41h-1.75v2.346c0 .52.256.78.77.78.318 0 .598-.084.84-.255l.198 1.223z" fill="#1D2630"/>
    <path d="M86.614 66.193c0-17.796 14.378-32.222 32.115-32.222 17.735 0 32.113 14.427 32.113 32.223 0 17.797-14.378 32.223-32.114 32.223-17.738 0-32.116-14.426-32.116-32.223z" fill-opacity=".259" fill="#FBD334"/>
    <path fill="#FFF" d="M81.26 101.1h12.044V63.51H81.26M105.347 101.1h12.043V56.796h-12.043M129.433 101.1h12.043V49.41h-12.043"/>
    <path fill="#FCD410" d="M93.304 101.1h12.043V68.88H93.304M117.39 101.1h12.043V62.167H117.39"/>
    <path fill="#F4F3EF" d="M81.26 101.1h3.346V63.51H81.26"/>
    <path fill="#E8C42D" d="M93.304 101.1h3.346V68.88h-3.346"/>
    <path fill="#F4F3EF" d="M105.347 101.1h3.346V56.796h-3.346"/>
    <path fill="#E8C42D" d="M117.39 101.1h3.346V62.167h-3.346"/>
    <path fill="#F4F3EF" d="M129.433 101.1h3.346V49.41h-3.347"/>
    <path fill="#333" d="M84.464 92.374H73.232v-1.342h10.59l5.352-6.713h8.685l4.013 5.37h10.093l10.705-10.742h10.604l4.015-6.713h9.54v1.343h-8.783l-4.015 6.713h-10.806L112.52 91.033h-11.316l-4.014-5.37h-7.373"/>
    <path fill="#FBD334" d="M120.067 53.44h2.676v-8.057h-2.676"/>
    <path fill="#FBD334" d="M117.39 50.754h8.03V48.07h-8.03M92.635 56.795h2.676V48.74h-2.675"/>
    <path fill="#FBD334" d="M89.96 54.11h8.028v-2.685h-8.03M104.678 41.356h2.676V33.3h-2.676"/>
    <path fill="#FBD334" d="M102.002 38.67h8.03v-2.685H102"/>
    <path fill="#333" d="M73.233 101.773h6.69v-1.343h-6.69M150.843 101.773h2.676v-1.343h-2.677M142.815 101.773h5.352v-1.343h-5.352M118.06 79.62h-1.34V57.467h-10.704V68.88h-1.338V56.123h13.38M118.06 101.773h-12.713v-1.343h11.374V90.36h1.34"/>
    <path fill="#333" d="M130.102 101.773H117.39v-1.343h11.374V83.647h1.338M130.102 75.592h-1.338V62.837H117.39v-1.342h12.712M106.016 101.773H93.304v-1.343h11.374v-6.042h1.338M106.016 86.333h-1.338V69.55H93.304v-1.342h12.712"/>
    <path fill="#333" d="M93.973 101.773h-13.38V95.73h1.337v4.7h10.705V89.018h1.338M81.93 87.675h-1.338V62.837h13.38v18.125h-1.337V64.18H81.93M142.145 101.773h-12.712v-1.343h11.374V76.934h1.338M142.145 68.88h-1.338V50.08h-10.705v12.084h-1.338V48.74h13.38"/>
    <path d="M51.67 159.57v.846h-2.4V167h-1.006v-6.584h-2.41v-.845h5.816zm.912 7.43v-7.636h.923v3.09c.225-.24.474-.43.747-.573.273-.143.587-.214.943-.214.287 0 .54.047.76.142.22.095.402.23.55.405.146.174.258.384.334.63.075.245.113.516.113.813V167h-.923v-3.344c0-.397-.09-.706-.272-.925-.182-.218-.46-.328-.832-.328-.273 0-.528.065-.765.197-.236.13-.454.308-.655.533V167h-.923zm7.844-5.334c.314 0 .605.052.87.158.267.105.497.257.69.456.194.2.345.444.454.736.11.292.163.625.163.998 0 .145-.015.242-.046.29-.032.05-.09.073-.177.073h-3.494c.007.332.052.62.135.866.084.245.198.45.343.614.145.164.318.287.52.368.2.08.424.122.672.122.232 0 .432-.027.6-.08.167-.054.31-.112.432-.174.12-.062.222-.12.303-.174.082-.054.152-.08.21-.08.076 0 .135.028.177.087l.26.337c-.115.138-.252.258-.41.36-.16.102-.33.186-.51.252-.183.065-.37.114-.564.147-.193.033-.385.05-.575.05-.363 0-.698-.062-1.003-.184-.306-.124-.57-.304-.794-.54-.22-.237-.395-.53-.52-.88-.124-.348-.186-.75-.186-1.202 0-.366.056-.708.168-1.026.113-.318.274-.594.485-.827.21-.234.468-.417.772-.55.304-.133.646-.2 1.026-.2zm.02.68c-.445 0-.796.128-1.052.385-.255.258-.414.615-.477 1.07h2.857c0-.213-.03-.41-.088-.587-.06-.178-.146-.332-.26-.46-.114-.13-.253-.23-.417-.302-.165-.07-.353-.105-.563-.105zm8.917.336c-.028.038-.055.067-.083.088-.027.02-.067.03-.12.03-.05 0-.107-.02-.168-.064-.06-.043-.137-.09-.23-.142-.094-.052-.207-.1-.34-.143-.133-.042-.296-.064-.49-.064-.255 0-.482.046-.68.138-.196.09-.36.223-.494.396-.133.173-.233.382-.3.627-.068.246-.102.52-.102.825 0 .318.037.6.11.847.072.246.174.454.305.62.132.17.292.297.48.385.19.088.4.132.636.132.224 0 .41-.027.554-.08.146-.054.266-.113.363-.18.097-.065.176-.124.24-.178.06-.054.123-.08.185-.08.08 0 .14.028.177.087l.26.337c-.23.28-.514.485-.857.614-.342.13-.703.195-1.083.195-.328 0-.633-.06-.915-.182-.282-.12-.526-.295-.734-.525-.207-.23-.37-.512-.49-.848-.12-.335-.178-.717-.178-1.145 0-.39.054-.752.163-1.084.11-.332.27-.618.478-.858.21-.24.467-.427.775-.562.308-.135.66-.202 1.057-.202.367 0 .692.06.975.18.283.118.534.286.752.504l-.244.332zm3.385-1.016c.384 0 .73.064 1.04.19.31.13.572.31.788.546.216.235.382.52.497.853.116.333.174.705.174 1.117 0 .414-.058.788-.174 1.12-.115.33-.28.615-.497.85-.216.235-.48.415-.788.54-.31.128-.656.19-1.04.19-.383 0-.73-.062-1.04-.19-.308-.125-.572-.305-.79-.54-.217-.235-.385-.52-.503-.85-.117-.332-.176-.706-.176-1.12 0-.412.058-.784.175-1.117.118-.334.286-.618.503-.853.218-.235.482-.417.79-.545.31-.127.657-.19 1.04-.19zm0 4.686c.52 0 .906-.174 1.16-.52.257-.348.385-.833.385-1.455 0-.626-.128-1.113-.384-1.462-.256-.35-.643-.524-1.162-.524-.262 0-.49.046-.684.136-.194.09-.355.22-.485.39-.13.168-.227.377-.29.624-.065.247-.097.526-.097.837 0 .31.032.59.096.835.063.245.16.45.29.62.13.167.29.295.484.385.194.09.422.135.684.135zm3.64.648v-5.25h.528c.1 0 .17.018.208.056.038.038.063.103.077.197l.064.82c.18-.368.4-.654.666-.86.264-.205.574-.308.93-.308.145 0 .277.017.394.05.118.032.227.078.327.137l-.118.69c-.025.086-.078.13-.16.13-.05 0-.124-.017-.224-.05s-.24-.05-.42-.05c-.32 0-.59.094-.806.28-.216.187-.397.458-.542.814V167h-.923zm4.178 0v-5.25h.55c.13 0 .214.063.248.19l.073.57c.228-.252.483-.456.764-.61.283-.157.61-.234.978-.234.287 0 .54.047.76.142.22.095.403.23.55.405.146.174.258.384.334.63.076.245.114.516.114.813V167h-.923v-3.344c0-.397-.09-.706-.272-.925-.18-.218-.458-.328-.83-.328-.274 0-.53.065-.766.197-.236.13-.455.308-.656.533V167h-.922zm7.843-5.334c.314 0 .604.052.87.158.266.105.496.257.69.456.193.2.344.444.453.736.11.292.163.625.163.998 0 .145-.015.242-.046.29-.03.05-.09.073-.177.073H86.87c.006.332.05.62.134.866.083.245.197.45.342.614.146.164.318.287.52.368.2.08.424.122.673.122.23 0 .43-.027.597-.08.168-.054.312-.112.433-.174.12-.062.222-.12.304-.174.08-.054.15-.08.21-.08.076 0 .134.028.176.087l.26.337c-.115.138-.252.258-.41.36-.16.102-.33.186-.51.252-.183.065-.37.114-.564.147-.193.033-.385.05-.575.05-.362 0-.696-.062-1.002-.184-.306-.124-.57-.304-.793-.54-.223-.237-.397-.53-.52-.88-.126-.348-.188-.75-.188-1.202 0-.366.056-.708.17-1.026.11-.318.272-.594.483-.827.21-.234.47-.417.773-.55.304-.133.646-.2 1.026-.2zm.02.68c-.446 0-.797.128-1.052.385-.256.258-.415.615-.477 1.07h2.857c0-.213-.03-.41-.088-.587-.06-.178-.146-.332-.26-.46-.114-.13-.254-.23-.418-.302-.164-.07-.35-.105-.562-.105zM91.763 167v-5.25h.53c.1 0 .168.018.206.056.037.038.063.103.077.197l.062.82c.18-.368.4-.654.665-.86.265-.205.575-.308.93-.308.146 0 .277.017.395.05.117.032.226.078.327.137l-.12.69c-.024.086-.077.13-.16.13-.05 0-.123-.017-.223-.05s-.24-.05-.42-.05c-.322 0-.59.094-.806.28-.216.187-.397.458-.542.814V167h-.923zm7.185-4.386c-.04.076-.105.114-.192.114-.05 0-.11-.02-.176-.057-.066-.037-.146-.08-.24-.126-.096-.046-.21-.09-.34-.13-.132-.04-.287-.06-.467-.06-.156 0-.296.02-.42.06-.124.04-.23.095-.32.164-.087.07-.154.15-.2.24-.048.093-.07.192-.07.3 0 .134.038.246.116.336.076.09.18.168.307.233.128.066.273.124.436.174.162.05.33.105.5.162.17.057.338.12.5.19.163.068.308.155.436.258.126.104.23.23.307.38.078.152.117.332.117.543 0 .242-.044.466-.13.67-.086.207-.214.385-.384.535-.17.15-.376.27-.622.355-.245.087-.528.13-.85.13-.366 0-.698-.06-.995-.18-.297-.118-.55-.27-.757-.458l.218-.352c.027-.045.06-.08.098-.104.038-.025.088-.037.15-.037.063 0 .128.024.198.072.07.05.152.102.25.16.1.06.22.113.36.162.14.048.314.072.525.072.18 0 .337-.024.472-.07.134-.047.247-.11.337-.19.09-.08.156-.17.2-.275.042-.103.064-.214.064-.33 0-.146-.04-.267-.117-.362-.076-.095-.18-.176-.307-.243-.128-.068-.274-.126-.438-.177-.164-.05-.332-.102-.503-.158-.17-.055-.34-.118-.503-.19-.165-.07-.31-.16-.44-.266-.127-.108-.23-.24-.307-.397-.078-.158-.117-.35-.117-.573 0-.2.04-.393.124-.578.083-.185.204-.348.363-.488.16-.14.355-.25.586-.334.23-.083.495-.124.792-.124.346 0 .656.054.93.163.276.108.513.257.714.447l-.208.337zm3.085 4.47c-.415 0-.734-.117-.957-.348-.223-.232-.334-.565-.334-1v-3.215h-.633c-.056 0-.103-.015-.14-.048-.04-.033-.058-.084-.058-.153v-.37l.86-.108.214-1.623c.006-.053.03-.095.067-.128.038-.033.086-.05.145-.05h.467v1.81h1.503v.67h-1.503v3.15c0 .222.053.386.16.493.107.108.246.16.415.16.097 0 .18-.012.25-.038.072-.026.134-.054.185-.085.052-.03.096-.06.133-.086.036-.026.068-.04.096-.04.048 0 .09.03.13.09l.27.44c-.16.15-.352.265-.577.35-.224.085-.456.127-.694.127zm4.4-5.418c.385 0 .73.064 1.04.19.31.13.572.31.788.546.217.235.383.52.5.853.115.333.173.705.173 1.117 0 .414-.058.788-.174 1.12-.117.33-.283.615-.5.85-.215.235-.477.415-.787.54-.31.128-.655.19-1.04.19-.383 0-.73-.062-1.04-.19-.308-.125-.57-.305-.79-.54-.217-.235-.384-.52-.502-.85-.116-.332-.175-.706-.175-1.12 0-.412.06-.784.176-1.117.12-.334.286-.618.504-.853.218-.235.48-.417.79-.545.31-.127.656-.19 1.04-.19zm0 4.686c.52 0 .906-.174 1.162-.52.256-.348.384-.833.384-1.455 0-.626-.13-1.113-.385-1.462-.256-.35-.643-.524-1.16-.524-.264 0-.492.046-.685.136-.194.09-.356.22-.485.39-.13.168-.226.377-.29.624-.064.247-.096.526-.096.837 0 .31.03.59.095.835.064.245.16.45.29.62.13.167.29.295.485.385.193.09.42.135.684.135zm3.64.648v-5.25h.55c.13 0 .214.063.248.19l.074.57c.228-.252.483-.456.765-.61.28-.157.606-.234.976-.234.287 0 .54.047.76.142.22.095.402.23.55.405.146.174.257.384.333.63.075.245.113.516.113.813V167h-.923v-3.344c0-.397-.09-.706-.272-.925-.18-.218-.46-.328-.832-.328-.273 0-.528.065-.764.197-.237.13-.456.308-.656.533V167h-.923zm7.843-5.334c.315 0 .605.052.87.158.267.105.497.257.69.456.194.2.346.444.454.736.11.292.164.625.164.998 0 .145-.016.242-.047.29-.03.05-.09.073-.176.073h-3.493c.007.332.052.62.135.866.083.245.197.45.342.614.145.164.318.287.518.368.2.08.425.122.674.122.232 0 .43-.027.6-.08.166-.054.31-.112.432-.174.12-.062.222-.12.303-.174.082-.054.152-.08.21-.08.077 0 .136.028.177.087l.26.337c-.115.138-.25.258-.41.36-.16.102-.33.186-.51.252-.182.065-.37.114-.563.147-.194.033-.386.05-.576.05-.363 0-.697-.062-1.003-.184-.306-.124-.57-.304-.793-.54-.223-.237-.397-.53-.52-.88-.125-.348-.188-.75-.188-1.202 0-.366.057-.708.17-1.026.11-.318.273-.594.484-.827.21-.234.468-.417.772-.55.304-.133.646-.2 1.026-.2zm.02.68c-.445 0-.795.128-1.05.385-.257.258-.416.615-.478 1.07h2.856c0-.213-.03-.41-.088-.587-.06-.178-.145-.332-.26-.46-.113-.13-.252-.23-.416-.302-.165-.07-.352-.105-.563-.105zm7.46-.68c.385 0 .73.064 1.04.19.31.13.572.31.788.546.216.235.382.52.498.853.116.333.174.705.174 1.117 0 .414-.058.788-.174 1.12-.116.33-.282.615-.498.85-.216.235-.478.415-.788.54-.31.128-.655.19-1.04.19-.383 0-.73-.062-1.038-.19-.31-.125-.573-.305-.79-.54-.22-.235-.386-.52-.504-.85-.117-.332-.176-.706-.176-1.12 0-.412.06-.784.176-1.117.118-.334.285-.618.503-.853.218-.235.48-.417.79-.545.31-.127.656-.19 1.04-.19zm0 4.686c.52 0 .906-.174 1.162-.52.256-.348.384-.833.384-1.455 0-.626-.128-1.113-.384-1.462-.256-.35-.643-.524-1.16-.524-.264 0-.492.046-.685.136-.194.09-.355.22-.485.39-.13.168-.226.377-.29.624-.064.247-.096.526-.096.837 0 .31.032.59.096.835s.16.45.29.62c.13.167.29.295.485.385.193.09.42.135.684.135zm3.847.648v-4.463l-.58-.068c-.073-.018-.132-.045-.18-.08-.046-.037-.07-.09-.07-.16v-.378h.83v-.508c0-.3.043-.567.127-.8.085-.234.206-.43.363-.592.158-.16.347-.282.568-.365.222-.083.47-.125.748-.125.235 0 .452.035.653.104l-.02.462c-.003.07-.033.11-.088.124-.055.014-.133.02-.233.02h-.162c-.16 0-.303.02-.433.063-.13.04-.24.11-.334.202-.093.093-.164.216-.215.368-.05.152-.075.34-.075.565v.482h1.52v.67h-1.49V167h-.927zm6.828 1.55c-.03.07-.07.124-.116.166-.046.04-.118.062-.215.062h-.685l.96-2.084-2.168-4.945h.798c.08 0 .142.018.187.058.045.04.078.084.098.132l1.405 3.308c.03.076.058.152.08.228.023.076.043.154.06.233l.073-.234c.024-.076.052-.154.083-.233l1.364-3.303c.02-.055.056-.1.106-.137.05-.036.105-.054.164-.054H139l-2.93 6.8zm5.895-6.884c.384 0 .73.064 1.04.19.31.13.57.31.787.546.216.235.382.52.498.853.116.333.174.705.174 1.117 0 .414-.058.788-.174 1.12-.116.33-.282.615-.498.85-.216.235-.478.415-.788.54-.31.128-.655.19-1.04.19-.383 0-.73-.062-1.038-.19-.31-.125-.573-.305-.79-.54-.22-.235-.386-.52-.504-.85-.117-.332-.176-.706-.176-1.12 0-.412.06-.784.176-1.117.118-.334.285-.618.503-.853.218-.235.48-.417.79-.545.31-.127.656-.19 1.04-.19zm0 4.686c.518 0 .905-.174 1.16-.52.257-.348.385-.833.385-1.455 0-.626-.128-1.113-.384-1.462-.256-.35-.643-.524-1.16-.524-.264 0-.492.046-.685.136-.193.09-.354.22-.484.39-.13.168-.226.377-.29.624-.064.247-.096.526-.096.837 0 .31.032.59.096.835s.16.45.29.62c.13.167.29.295.485.385.194.09.422.135.685.135zm4.438-4.603v3.347c0 .398.09.705.274.923.183.218.46.327.83.327.27 0 .523-.064.762-.192.237-.128.457-.306.657-.534v-3.87h.923V167h-.55c-.13 0-.214-.064-.248-.192l-.073-.565c-.23.252-.485.455-.768.61-.284.153-.61.23-.975.23-.287 0-.54-.048-.76-.143-.22-.095-.403-.23-.55-.4-.15-.174-.26-.383-.336-.63-.073-.244-.11-.515-.11-.813v-3.348h.923zm4.966 5.25v-5.25h.528c.1 0 .17.018.207.056.038.038.064.103.078.197l.062.82c.18-.368.402-.654.666-.86.265-.205.576-.308.932-.308.145 0 .276.017.394.05.117.032.226.078.326.137l-.12.69c-.023.086-.077.13-.16.13-.048 0-.122-.017-.223-.05-.1-.033-.24-.05-.42-.05-.322 0-.59.094-.807.28-.216.187-.396.458-.54.814V167h-.924zm9.874 0c-.13 0-.214-.064-.25-.192l-.08-.637c-.226.274-.483.492-.77.656-.29.164-.62.247-.994.247-.3 0-.574-.058-.82-.174-.244-.117-.454-.287-.626-.512-.173-.224-.306-.504-.4-.84-.093-.335-.14-.72-.14-1.156 0-.387.052-.747.156-1.08.104-.334.253-.623.448-.87.196-.244.433-.437.713-.577.28-.14.6-.21.955-.21.322 0 .596.055.824.164.227.107.43.26.61.457v-2.913h.924V167h-.55zm-1.788-.674c.3 0 .564-.07.79-.207.227-.14.435-.335.625-.587v-2.54c-.168-.228-.354-.388-.556-.48-.202-.09-.426-.137-.672-.137-.49 0-.867.174-1.13.523-.262.35-.394.846-.394 1.492 0 .343.03.635.088.88.06.243.146.443.26.6.114.158.254.273.42.345.165.073.356.11.57.11zm4.914-4.577V167h-.922v-5.25h.922zm.208-1.65c0 .09-.02.174-.055.252-.036.077-.084.146-.145.207-.06.06-.13.107-.21.14-.08.036-.164.053-.254.053s-.174-.017-.25-.052c-.08-.033-.148-.08-.21-.14-.06-.062-.107-.13-.14-.208-.036-.078-.053-.162-.053-.252s.018-.175.053-.257c.034-.08.082-.152.142-.212.06-.06.13-.107.208-.142.077-.034.16-.05.25-.05s.176.016.255.05c.08.035.15.082.21.143.06.06.11.132.145.213.036.082.055.167.055.257zm3.188 1.56c.228 0 .44.026.64.076s.38.123.542.22h1.425v.342c0 .114-.072.187-.217.218l-.597.083c.117.223.176.474.176.75 0 .256-.05.49-.148.698-.1.21-.235.388-.41.536-.174.15-.38.263-.622.342-.24.08-.503.12-.79.12-.246 0-.477-.03-.695-.088-.11.07-.193.143-.25.222-.057.08-.086.158-.086.234 0 .124.05.218.15.282.1.064.234.11.4.138.166.027.354.045.565.05.21.008.425.02.644.035.22.015.435.04.646.08.21.038.4.1.565.186.165.087.3.206.4.358.1.152.15.35.15.59 0 .225-.057.443-.17.654-.112.21-.273.398-.484.562-.21.165-.467.296-.77.394-.306.1-.65.148-1.033.148-.384 0-.72-.038-1.008-.114-.29-.076-.53-.178-.72-.306-.19-.128-.332-.275-.427-.443-.095-.17-.143-.344-.143-.527 0-.26.082-.48.247-.66.164-.183.39-.327.676-.434-.148-.07-.267-.163-.355-.278-.088-.116-.132-.27-.132-.464 0-.076.014-.155.04-.236.03-.08.07-.162.128-.24.057-.08.127-.157.21-.23.083-.072.18-.136.29-.19-.26-.146-.462-.34-.61-.58-.145-.24-.22-.52-.22-.842 0-.255.05-.488.15-.697.097-.21.235-.387.41-.534.177-.148.387-.26.63-.34.245-.08.51-.12.802-.12zm1.638 5.625c0-.13-.036-.237-.11-.316-.072-.08-.17-.142-.294-.185-.125-.043-.268-.075-.43-.096-.163-.022-.334-.036-.514-.045-.18-.01-.363-.018-.55-.03-.186-.01-.364-.028-.533-.056-.197.093-.357.207-.48.342-.123.134-.184.295-.184.482 0 .117.03.227.09.33.06.1.153.19.277.263.125.074.28.133.47.176.188.044.41.065.665.065.25 0 .472-.022.67-.067.196-.044.363-.108.5-.19.136-.084.24-.182.313-.296.073-.114.11-.24.11-.38zm-1.638-2.85c.186 0 .35-.027.495-.08.144-.05.264-.123.36-.217.098-.093.17-.204.22-.334.047-.13.07-.272.07-.428 0-.32-.096-.577-.29-.767-.197-.19-.48-.286-.854-.286-.37 0-.653.095-.848.285-.195.19-.293.445-.293.766 0 .156.025.298.075.428.05.13.124.24.22.334.098.094.217.166.358.218.142.052.305.078.488.078zm4.557-2.686V167h-.923v-5.25h.923zm.207-1.65c0 .09-.018.174-.055.252-.036.077-.084.146-.145.207-.06.06-.13.107-.21.14-.08.036-.164.053-.254.053s-.173-.017-.25-.052c-.08-.033-.148-.08-.208-.14-.06-.062-.108-.13-.143-.208-.035-.078-.052-.162-.052-.252s.017-.175.052-.257c.035-.08.082-.152.143-.212.06-.06.13-.107.207-.142.078-.034.16-.05.25-.05s.176.016.255.05c.08.035.15.082.21.143.06.06.11.132.145.213.037.082.055.167.055.257zm3.012 6.983c-.415 0-.734-.116-.957-.347-.223-.232-.334-.565-.334-1v-3.215h-.63c-.057 0-.103-.015-.14-.048-.04-.033-.058-.084-.058-.153v-.37l.86-.108.213-1.623c.007-.053.03-.095.067-.128.038-.033.086-.05.145-.05h.467v1.81h1.503v.67h-1.503v3.15c0 .222.053.386.16.493.108.108.246.16.415.16.096 0 .18-.012.25-.038s.133-.054.185-.085c.05-.03.096-.06.132-.086.036-.026.068-.04.096-.04.048 0 .09.03.13.09l.27.44c-.16.15-.352.265-.577.35-.224.085-.456.127-.694.127zm6.132-.083h-.41c-.09 0-.162-.014-.217-.04-.055-.03-.09-.088-.11-.178l-.102-.487c-.14.124-.273.236-.405.334-.13.098-.27.18-.414.248-.146.068-.3.12-.464.153-.165.036-.347.053-.547.053-.204 0-.395-.03-.573-.086-.178-.057-.333-.142-.464-.256-.13-.113-.236-.258-.314-.432-.077-.175-.116-.38-.116-.62 0-.207.057-.406.17-.598.115-.192.3-.362.553-.51.255-.15.587-.27 1-.366.41-.095.913-.15 1.507-.164v-.41c0-.407-.087-.715-.262-.925-.174-.21-.432-.313-.775-.313-.224 0-.413.028-.567.085-.154.057-.287.12-.4.192-.112.07-.208.134-.29.19-.08.058-.16.086-.24.086-.063 0-.117-.016-.164-.05-.048-.032-.085-.072-.112-.12l-.166-.296c.29-.28.603-.49.938-.627.335-.14.707-.208 1.115-.208.293 0 .554.05.782.145.228.097.42.232.576.405.155.173.273.382.352.627.08.245.12.515.12.81V167zm-2.395-.565c.162 0 .31-.016.445-.05.135-.032.262-.08.38-.14.12-.06.235-.133.343-.22.11-.086.216-.184.32-.295v-1.094c-.426.014-.787.048-1.084.1-.297.055-.54.125-.726.21-.187.088-.322.19-.407.307-.084.117-.126.25-.126.394 0 .138.023.257.067.358.046.1.107.182.183.246.076.065.166.112.27.14.103.03.215.045.336.045zm4.82-7.07V167h-.922v-7.636h.923zM89.8 173.748V179h-.922v-5.25h.922zm.208-1.65c0 .09-.018.174-.055.252-.035.077-.083.146-.144.207-.06.06-.13.107-.21.14-.08.036-.164.053-.254.053s-.173-.017-.25-.052c-.08-.033-.148-.08-.21-.14-.06-.062-.107-.13-.14-.208-.036-.078-.053-.162-.053-.252s.016-.175.05-.257c.035-.08.083-.152.143-.212.06-.06.13-.107.208-.142.08-.034.162-.05.252-.05s.175.016.254.05c.08.035.15.082.21.143.06.06.11.132.145.213.038.082.056.167.056.257zm1.42 6.9v-5.25h.55c.13 0 .214.063.25.19l.07.57c.23-.252.484-.456.766-.61.28-.157.607-.234.977-.234.286 0 .54.047.758.142.22.095.403.23.55.405.147.174.258.384.334.63.076.245.114.516.114.813V179h-.922v-3.344c0-.397-.09-.706-.273-.925-.18-.218-.457-.328-.83-.328-.274 0-.53.065-.765.197-.237.13-.456.308-.656.533V179h-.924zm7.356.083c-.414 0-.733-.116-.956-.347-.223-.232-.335-.565-.335-1v-3.215h-.63c-.056 0-.103-.015-.14-.048-.04-.033-.058-.084-.058-.153v-.37l.86-.108.213-1.623c.007-.053.03-.095.068-.128.038-.033.086-.05.145-.05h.466v1.81h1.504v.67h-1.504v3.15c0 .222.054.386.16.493.108.108.246.16.416.16.096 0 .18-.012.25-.038.072-.026.133-.054.185-.085.052-.03.096-.06.132-.086.037-.026.07-.04.096-.04.05 0 .092.03.13.09l.27.44c-.16.15-.35.265-.576.35-.225.085-.456.127-.695.127zm4.355-5.417c.314 0 .605.052.87.158.267.105.497.257.69.456.194.2.345.444.454.736.11.292.164.625.164.998 0 .145-.015.242-.047.29-.03.05-.09.073-.176.073h-3.493c.007.332.052.62.135.866.083.245.197.45.342.614.145.164.318.287.52.368.2.08.424.122.672.122.232 0 .432-.027.6-.08.167-.054.31-.112.432-.174.12-.062.222-.12.303-.174.083-.054.153-.08.21-.08.077 0 .136.028.178.087l.26.337c-.115.138-.252.258-.41.36-.16.102-.33.186-.51.252-.183.065-.37.114-.564.147-.193.033-.385.05-.575.05-.364 0-.7-.062-1.004-.184-.306-.124-.57-.304-.794-.54-.222-.237-.396-.53-.52-.88-.125-.348-.187-.75-.187-1.202 0-.366.056-.708.168-1.026.113-.318.274-.594.485-.827.21-.234.468-.417.772-.55.305-.133.647-.2 1.027-.2zm.02.68c-.445 0-.796.128-1.052.385-.255.258-.414.615-.477 1.07h2.857c0-.213-.03-.41-.088-.587-.06-.178-.146-.332-.26-.46-.114-.13-.253-.23-.417-.302-.164-.07-.352-.105-.562-.105zm4.36-2.982V179h-.922v-7.636h.922zm2.655 0V179h-.923v-7.636h.922zm2.654 2.385V179h-.923v-5.25h.923zm.207-1.65c0 .09-.018.174-.054.252-.038.077-.086.146-.146.207-.06.06-.13.107-.21.14-.08.036-.165.053-.254.053-.09 0-.174-.017-.252-.052-.078-.033-.147-.08-.207-.14-.06-.062-.107-.13-.142-.208-.034-.078-.052-.162-.052-.252s.018-.175.052-.257c.035-.08.082-.152.143-.212.06-.06.13-.107.208-.142.078-.034.162-.05.252-.05s.174.016.254.05c.08.035.15.082.21.143.06.06.108.132.145.213.035.082.053.167.053.257zm3.188 1.56c.23 0 .443.026.642.076.198.05.38.123.54.22h1.427v.342c0 .114-.074.187-.22.218l-.595.083c.117.223.176.474.176.75 0 .256-.048.49-.147.698-.098.21-.235.388-.41.536-.174.15-.38.263-.62.342-.24.08-.505.12-.792.12-.244 0-.476-.03-.693-.088-.11.07-.195.143-.252.222-.057.08-.085.158-.085.234 0 .124.05.218.15.282.1.064.233.11.4.138.165.027.353.045.564.05.21.008.426.02.646.035.22.015.434.04.645.08.21.038.4.1.565.186.166.087.3.206.4.358.1.152.15.35.15.59 0 .225-.057.443-.17.654-.11.21-.273.398-.484.562-.21.165-.468.296-.772.394-.304.1-.648.148-1.032.148-.383 0-.72-.038-1.008-.114-.288-.076-.528-.178-.718-.306-.19-.128-.333-.275-.428-.443-.095-.17-.142-.344-.142-.527 0-.26.082-.48.246-.66.164-.183.39-.327.677-.434-.15-.07-.268-.163-.356-.278-.09-.116-.133-.27-.133-.464 0-.076.015-.155.043-.236.027-.08.07-.162.127-.24.057-.08.127-.157.21-.23.083-.072.18-.136.29-.19-.26-.146-.462-.34-.61-.58-.146-.24-.22-.52-.22-.842 0-.255.05-.488.148-.697.1-.21.236-.387.412-.534.177-.148.387-.26.63-.34.244-.08.51-.12.8-.12zm1.64 5.625c0-.13-.037-.237-.11-.316-.072-.08-.17-.142-.295-.185-.124-.043-.268-.075-.43-.096-.163-.022-.334-.036-.513-.045-.18-.01-.363-.018-.55-.03-.187-.01-.365-.028-.534-.056-.197.093-.357.207-.48.342-.122.134-.183.295-.183.482 0 .117.03.227.09.33.06.1.153.19.278.263.124.074.28.133.47.176.187.044.41.065.665.065.25 0 .472-.022.67-.067.196-.044.362-.108.5-.19.135-.084.24-.182.313-.296.073-.114.11-.24.11-.38zm-1.64-2.85c.188 0 .353-.027.496-.08.144-.05.264-.123.36-.217.097-.093.17-.204.218-.334.05-.13.073-.272.073-.428 0-.32-.098-.577-.293-.767-.195-.19-.48-.286-.853-.286-.37 0-.65.095-.846.285-.196.19-.293.445-.293.766 0 .156.026.298.076.428s.124.24.22.334c.097.094.216.166.358.218.142.052.304.078.487.078zm5.61-2.77c.315 0 .605.053.87.16.267.104.497.256.69.455.194.2.345.444.454.736.11.292.164.625.164.998 0 .145-.016.242-.047.29-.03.05-.09.073-.175.073h-3.494c.008.332.053.62.136.866.082.245.196.45.342.614.145.164.318.287.518.368.2.08.425.122.674.122.232 0 .43-.027.6-.08.166-.054.31-.112.432-.174.12-.062.222-.12.303-.174.08-.054.15-.08.21-.08.076 0 .135.028.176.087l.26.337c-.114.138-.25.258-.41.36-.158.102-.328.186-.51.252-.18.065-.37.114-.562.147-.194.033-.386.05-.576.05-.363 0-.697-.062-1.003-.184-.307-.124-.57-.304-.794-.54-.223-.237-.397-.53-.52-.88-.125-.348-.188-.75-.188-1.202 0-.366.056-.708.17-1.026.11-.318.273-.594.484-.827.21-.234.468-.417.772-.55.304-.133.646-.2 1.026-.2zm.02.68c-.445 0-.796.13-1.05.386-.257.258-.416.615-.478 1.07h2.856c0-.213-.03-.41-.088-.587-.06-.178-.145-.332-.26-.46-.113-.13-.252-.23-.416-.302-.165-.07-.352-.105-.563-.105zm3.334 4.655v-5.25h.55c.13 0 .214.063.25.19l.07.57c.23-.252.484-.456.766-.61.282-.157.607-.234.977-.234.287 0 .54.047.76.142.22.095.402.23.55.405.146.174.257.384.333.63.077.245.115.516.115.813V179h-.923v-3.344c0-.397-.09-.706-.272-.925-.182-.218-.46-.328-.832-.328-.273 0-.528.065-.765.197-.237.13-.455.308-.656.533V179h-.923zm9.347-4.318c-.026.038-.054.067-.082.088-.027.02-.067.03-.12.03-.05 0-.107-.02-.167-.064-.06-.043-.137-.09-.23-.142-.093-.052-.207-.1-.34-.143-.133-.042-.296-.064-.49-.064-.255 0-.482.046-.68.138-.196.09-.36.223-.494.396-.133.173-.233.382-.3.627-.068.246-.102.52-.102.825 0 .318.037.6.11.847.072.246.174.454.305.62.13.17.29.297.48.385.187.088.4.132.634.132.224 0 .41-.027.554-.08.146-.054.267-.113.363-.18.098-.065.178-.124.24-.178.062-.054.124-.08.186-.08.08 0 .14.028.177.087l.26.337c-.23.28-.514.485-.857.614-.342.13-.703.195-1.083.195-.328 0-.633-.06-.915-.182-.282-.12-.526-.295-.733-.525-.208-.23-.37-.512-.49-.848-.12-.335-.18-.717-.18-1.145 0-.39.055-.752.164-1.084.108-.332.267-.618.476-.858.21-.24.467-.427.775-.562.31-.135.66-.202 1.06-.202.365 0 .69.06.973.18.284.118.534.286.752.504l-.244.332zm3.34-1.016c.314 0 .604.052.87.158.267.105.497.257.69.456.194.2.345.444.454.736.11.292.163.625.163.998 0 .145-.016.242-.047.29-.03.05-.09.073-.176.073h-3.494c.007.332.052.62.135.866.083.245.197.45.342.614.145.164.318.287.518.368.2.08.425.122.674.122.23 0 .43-.027.598-.08.168-.054.312-.112.433-.174.122-.062.223-.12.304-.174.08-.054.15-.08.21-.08.076 0 .135.028.176.087l.26.337c-.114.138-.25.258-.41.36-.16.102-.33.186-.51.252-.182.065-.37.114-.563.147-.194.033-.385.05-.575.05-.363 0-.698-.062-1.004-.184-.305-.124-.57-.304-.793-.54-.223-.237-.396-.53-.52-.88-.125-.348-.187-.75-.187-1.202 0-.366.056-.708.168-1.026.112-.318.274-.594.485-.827.212-.234.47-.417.773-.55.304-.133.647-.2 1.027-.2zm.02.68c-.445 0-.796.128-1.052.385-.256.258-.415.615-.477 1.07h2.858c0-.213-.03-.41-.09-.587-.057-.178-.144-.332-.258-.46-.114-.13-.253-.23-.417-.302-.164-.07-.352-.105-.563-.105zm3.033 4.084c0-.09.016-.175.05-.254.032-.08.077-.15.134-.208.057-.058.125-.105.205-.14.08-.034.164-.05.254-.05s.174.016.254.05c.08.035.148.082.207.14.06.06.105.128.138.208.032.08.05.164.05.254 0 .093-.018.18-.05.256-.033.078-.08.146-.138.205-.06.06-.128.106-.207.14-.08.03-.164.048-.254.048s-.175-.017-.254-.05c-.08-.032-.148-.078-.205-.137-.057-.058-.102-.126-.135-.204-.033-.077-.05-.163-.05-.256z" fill="#1D2630"/>
    <path fill="#1D2630" fill-rule="nonzero" d="M21.028 236.972h188.944v-1.944H21.028"/>
    <path fill="#F7F6F0" d="M114.24 204.044l-6.804-6.48h13.608"/>
    <path fill="#BFBEB6" fill-rule="nonzero" d="M116 205.155l6.712-6.183H209.972v-1.944h-88.02l-5.95 5.48-5.924-5.48h-89.05v1.944h88.29"/>
    <path d="M79.056 215.733c-.03.05-.063.09-.098.116-.035.025-.08.038-.135.038-.06 0-.127-.03-.205-.088-.077-.06-.176-.124-.295-.194-.12-.07-.263-.136-.43-.195-.168-.058-.37-.087-.61-.087-.224 0-.423.03-.596.09-.172.06-.317.143-.432.247-.116.104-.204.225-.262.365-.06.14-.088.292-.088.454 0 .206.05.378.153.515.1.136.236.253.404.35.168.097.358.18.57.25.213.072.43.145.653.222.223.076.44.16.653.256.213.095.403.215.57.36.168.146.303.324.405.534.102.21.153.47.153.778 0 .325-.055.63-.166.915-.11.285-.272.533-.485.744-.212.21-.473.377-.782.498-.31.12-.66.18-1.055.18-.48 0-.92-.086-1.314-.26-.396-.175-.734-.41-1.014-.708l.29-.477c.028-.038.062-.07.1-.096.04-.025.085-.038.134-.038.072 0 .155.04.248.116.094.078.21.164.35.257.14.093.31.18.508.257.2.077.442.116.73.116.237 0 .45-.033.636-.098.187-.066.345-.158.475-.278.13-.12.23-.26.3-.427.068-.166.103-.35.103-.555 0-.225-.05-.41-.153-.552-.102-.143-.236-.264-.402-.36-.166-.097-.355-.18-.568-.247l-.653-.206c-.223-.07-.44-.153-.653-.246-.213-.093-.402-.214-.568-.363-.166-.15-.3-.334-.402-.557-.102-.223-.153-.5-.153-.827 0-.262.052-.516.154-.76.102-.247.25-.464.444-.654.193-.19.433-.342.718-.457.285-.115.612-.172.982-.172.415 0 .793.066 1.135.197.342.132.64.322.897.57l-.244.478zm3.137 6.35c-.415 0-.734-.116-.957-.347-.223-.232-.334-.565-.334-1v-3.215h-.632c-.056 0-.102-.015-.14-.048-.038-.033-.057-.084-.057-.153v-.37l.86-.108.213-1.623c.007-.053.03-.095.067-.128.038-.033.086-.05.145-.05h.467v1.81h1.503v.67h-1.503v3.15c0 .222.053.386.16.493.108.108.246.16.415.16.097 0 .18-.012.252-.038.07-.026.132-.054.184-.085.05-.03.096-.06.132-.086.036-.026.068-.04.096-.04.048 0 .09.03.13.09l.27.44c-.16.15-.352.265-.577.35-.224.085-.456.127-.694.127zM84.47 222v-5.25h.527c.1 0 .17.018.208.056.038.038.064.103.077.197l.063.82c.18-.368.4-.654.666-.86.265-.205.575-.308.93-.308.146 0 .278.017.395.05.118.032.227.078.327.137l-.12.69c-.024.086-.077.13-.16.13-.048 0-.123-.017-.223-.05s-.24-.05-.42-.05c-.322 0-.59.094-.807.28-.216.187-.397.458-.542.814V222h-.92zm6.302-5.334c.384 0 .73.064 1.04.19.31.13.572.31.788.546.216.235.382.52.497.853.116.333.174.705.174 1.117 0 .414-.057.788-.173 1.12-.115.33-.28.615-.497.85-.216.235-.48.415-.788.54-.31.128-.656.19-1.04.19-.383 0-.73-.062-1.04-.19-.308-.125-.572-.305-.79-.54-.217-.235-.385-.52-.502-.85-.118-.332-.177-.706-.177-1.12 0-.412.06-.784.177-1.117.117-.334.285-.618.502-.853.218-.235.482-.417.79-.545.31-.127.657-.19 1.04-.19zm0 4.686c.52 0 .906-.174 1.162-.52.255-.348.383-.833.383-1.455 0-.626-.128-1.113-.383-1.462-.256-.35-.643-.524-1.162-.524-.262 0-.49.046-.684.136-.194.09-.355.22-.485.39-.13.168-.226.377-.29.624-.064.247-.096.526-.096.837 0 .31.032.59.096.835s.16.45.29.62c.13.167.29.295.485.385.194.09.422.135.684.135zm3.64.648v-5.25h.55c.13 0 .213.063.248.19l.072.57c.228-.252.483-.456.765-.61.282-.157.607-.234.977-.234.287 0 .54.047.76.142.22.095.402.23.55.405.146.174.258.384.334.63.076.245.114.516.114.813V222h-.923v-3.344c0-.397-.092-.706-.273-.925-.182-.218-.46-.328-.832-.328-.273 0-.528.065-.765.197-.237.13-.455.308-.656.533V222h-.923zm7.532-5.34c.228 0 .44.026.64.076s.38.123.542.22h1.425v.342c0 .114-.07.187-.216.218l-.596.083c.117.223.176.474.176.75 0 .256-.05.49-.148.698-.098.21-.235.388-.41.536-.174.15-.38.263-.622.342-.24.08-.503.12-.79.12-.246 0-.477-.03-.695-.088-.11.07-.195.143-.252.222-.057.08-.086.158-.086.234 0 .124.05.218.15.282.1.064.234.11.4.138.166.027.354.045.565.05.21.008.426.02.645.035.22.015.435.04.646.08.21.038.4.1.565.186.166.087.3.206.4.358.1.152.15.35.15.59 0 .225-.057.443-.17.654-.112.21-.273.398-.484.562-.212.165-.47.296-.773.394-.305.1-.648.148-1.032.148s-.72-.038-1.008-.114c-.29-.076-.528-.178-.718-.306-.19-.128-.334-.275-.43-.443-.094-.17-.142-.344-.142-.527 0-.26.083-.48.247-.66.164-.183.39-.327.676-.434-.147-.07-.266-.163-.354-.278-.088-.116-.132-.27-.132-.464 0-.076.014-.155.04-.236.03-.08.07-.162.128-.24.057-.08.127-.157.21-.23.083-.072.18-.136.29-.19-.26-.146-.462-.34-.608-.58-.147-.24-.22-.52-.22-.842 0-.255.048-.488.147-.697.1-.21.237-.387.413-.534.176-.148.386-.26.63-.34.244-.08.51-.12.8-.12zm1.638 5.625c0-.13-.036-.237-.11-.316-.07-.08-.17-.142-.294-.185-.125-.043-.268-.075-.43-.096-.163-.022-.334-.036-.514-.045-.18-.01-.363-.018-.55-.03-.186-.01-.364-.028-.533-.056-.196.093-.356.207-.48.342-.122.134-.183.295-.183.482 0 .117.03.227.09.33.06.1.154.19.278.263.125.074.28.133.47.176.188.044.41.065.665.065.25 0 .472-.022.67-.067.196-.044.363-.108.5-.19.136-.084.24-.182.313-.296.073-.114.11-.24.11-.38zm-1.638-2.85c.186 0 .35-.027.495-.08.142-.05.262-.123.36-.217.096-.093.17-.204.217-.334.048-.13.073-.272.073-.428 0-.32-.098-.577-.293-.767-.196-.19-.48-.286-.853-.286-.37 0-.652.095-.848.285-.195.19-.293.445-.293.766 0 .156.025.298.076.428.05.13.122.24.22.334.096.094.215.166.357.218.14.052.304.078.487.078zm5.61-2.77c.313 0 .604.053.87.16.266.104.496.256.69.455.193.2.344.444.453.736.11.292.163.625.163.998 0 .145-.015.242-.046.29-.032.05-.09.073-.177.073h-3.494c.007.332.052.62.135.866.083.245.197.45.342.614.145.164.318.287.52.368.2.08.424.122.673.122.23 0 .43-.027.598-.08.17-.054.313-.112.434-.174.12-.062.222-.12.303-.174.082-.054.152-.08.21-.08.076 0 .135.028.177.087l.26.337c-.115.138-.252.258-.41.36-.16.102-.33.186-.51.252-.183.065-.37.114-.564.147-.193.033-.385.05-.575.05-.363 0-.697-.062-1.003-.184-.306-.124-.57-.304-.793-.54-.224-.237-.398-.53-.522-.88-.125-.348-.187-.75-.187-1.202 0-.366.057-.708.17-1.026.112-.318.273-.594.484-.827.21-.234.468-.417.772-.55.305-.133.647-.2 1.027-.2zm.02.68c-.446 0-.797.13-1.053.386-.254.258-.413.615-.476 1.07h2.857c0-.213-.03-.41-.087-.587-.06-.178-.146-.332-.26-.46-.114-.13-.253-.23-.417-.302-.164-.07-.352-.105-.562-.105zm3.333 4.655v-5.25h.53c.1 0 .168.018.206.056.038.038.064.103.078.197l.063.82c.18-.368.402-.654.666-.86.264-.205.574-.308.93-.308.145 0 .276.017.394.05.117.032.226.078.326.137l-.12.69c-.023.086-.077.13-.16.13-.048 0-.122-.017-.223-.05-.1-.033-.24-.05-.42-.05-.32 0-.59.094-.806.28-.215.187-.395.458-.54.814V222h-.923zm6.153-5.988c-.162-.134-.243-.347-.243-.637 0-.297.08-.513.243-.648.163-.135.424-.202.783-.202.36 0 .62.067.783.202.162.135.244.35.244.648 0 .29-.082.503-.244.637-.162.135-.423.203-.783.203-.36 0-.62-.068-.783-.203zm1.664 5.988h-1.762v-5.184h1.762V222zm5.962-4.81c.325.317.487.77.487 1.357V222h-1.762v-2.965c0-.353-.063-.603-.19-.752-.13-.15-.31-.223-.545-.223-.277 0-.5.1-.674.296-.172.197-.258.5-.258.907V222h-1.763v-5.184h1.575l.052.995c.166-.365.4-.64.705-.823.304-.183.66-.275 1.068-.275.546 0 .98.16 1.306.477zm1.338 4l.912-.994c.297.49.81.736 1.534.736.242 0 .432-.033.57-.098.14-.066.208-.154.208-.265 0-.098-.07-.182-.213-.255-.14-.072-.385-.143-.73-.212-.775-.152-1.326-.36-1.654-.622-.328-.262-.492-.61-.492-1.047 0-.297.094-.577.28-.84.187-.262.47-.475.845-.637.377-.162.835-.244 1.374-.244.594 0 1.08.082 1.457.244.376.162.682.406.917.73l-.91.893c-.167-.243-.364-.42-.592-.53-.228-.11-.5-.166-.82-.166-.248 0-.442.038-.58.114-.138.076-.207.17-.207.28 0 .104.072.192.213.264.142.073.39.144.742.213.76.13 1.308.326 1.643.586.335.26.503.614.503 1.063 0 .505-.21.914-.632 1.23-.42.313-1.033.47-1.835.47-1.19 0-2.032-.303-2.53-.912zm6.008-5.178c-.163-.134-.244-.347-.244-.637 0-.297.08-.513.244-.648.162-.135.423-.202.783-.202.36 0 .62.067.782.202.163.135.244.35.244.648 0 .29-.08.503-.243.637-.162.135-.423.203-.782.203-.36 0-.62-.068-.783-.203zm1.664 5.988h-1.763v-5.184h1.763V222zm5.936-.757c.328.263.492.65.492 1.16 0 .59-.26 1.04-.783 1.354-.52.315-1.23.472-2.13.472-.905 0-1.574-.108-2.006-.322-.432-.215-.648-.515-.648-.902 0-.228.08-.43.24-.602.158-.172.4-.297.725-.373-.532-.227-.798-.586-.798-1.077 0-.242.076-.456.228-.643.152-.187.36-.325.622-.415-.566-.304-.85-.777-.85-1.42 0-.56.22-.994.664-1.3.442-.31 1.064-.463 1.866-.463.373 0 .72.038 1.037.114.068-.414.224-.753.465-1.016.242-.262.578-.394 1.006-.394l.167.01.197 1.172c-.138-.014-.235-.02-.29-.02-.235 0-.43.04-.586.124-.156.083-.268.197-.337.342.582.304.872.78.872 1.43 0 .56-.22.993-.664 1.297-.442.305-1.064.457-1.866.457-.373 0-.705-.03-.995-.093-.215.055-.322.176-.322.363 0 .235.18.352.54.352h1.762c.6 0 1.066.13 1.395.393zm-2.935-3.318c-.14.14-.212.322-.212.55 0 .228.07.41.212.544.142.134.327.2.555.2.228 0 .413-.066.555-.2.14-.136.212-.317.212-.545 0-.228-.072-.41-.213-.55-.142-.138-.327-.207-.555-.207-.228 0-.413.07-.555.207zm1.68 5.024c.238-.095.358-.217.358-.37 0-.11-.05-.193-.145-.248-.097-.056-.26-.083-.488-.083h-1.42c-.284 0-.486.028-.607.087-.12.06-.18.15-.18.275 0 .318.48.477 1.44.477.456 0 .804-.048 1.042-.14zm7.15-5.76c.324.317.486.77.486 1.357V222h-1.763v-2.965c0-.657-.245-.985-.736-.985-.276 0-.5.1-.674.3-.172.2-.26.508-.26.923V222h-1.76v-7.382h1.76v3.14c.153-.344.37-.605.65-.78.28-.178.61-.266.99-.266.545 0 .98.16 1.306.477zm5.483 4.52c-.172.117-.392.212-.658.285-.266.072-.534.11-.803.11-.617 0-1.087-.133-1.412-.395-.324-.263-.49-.685-.497-1.265v-2.374h-.89v-1.254h.89v-1.16l1.763-.49v1.65h1.556v1.255h-1.557v2.084c0 .464.228.695.685.695.283 0 .532-.077.746-.23l.176 1.09zm.363-.52l.913-.994c.297.49.808.736 1.534.736.242 0 .432-.033.57-.098.14-.066.208-.154.208-.265 0-.098-.07-.182-.213-.255-.142-.072-.385-.143-.73-.212-.775-.152-1.326-.36-1.654-.622-.328-.262-.492-.61-.492-1.047 0-.297.093-.577.28-.84.187-.262.468-.475.845-.637.377-.162.835-.244 1.374-.244.594 0 1.08.082 1.456.244.377.162.683.406.918.73l-.91.893c-.167-.243-.364-.42-.592-.53-.228-.11-.5-.166-.82-.166-.248 0-.442.038-.58.114-.138.076-.207.17-.207.28 0 .104.07.192.213.264.142.073.39.144.74.213.762.13 1.31.326 1.645.586.335.26.503.614.503 1.063 0 .505-.21.914-.632 1.23-.42.313-1.033.47-1.835.47-1.19 0-2.032-.303-2.53-.912zM215.364 236L209 241v-10" fill="#1D2630"/>
  </g>
</svg>
