<svg width="1440" height="555" viewBox="0 0 1440 555" xmlns="http://www.w3.org/2000/svg"><title>[interludio]_bg_main-background</title><defs><linearGradient x1="0%" y1="56.999%" y2="44.653%" id="a"><stop stop-color="#0457FF" offset="0%"/><stop stop-color="#0CC3F3" offset="100%"/></linearGradient></defs><g transform="translate(0 -42)" stroke="url(#a)" stroke-width=".2" fill="none" fill-rule="evenodd"><path d="M.088 565.165c296.995 100.4 331.726-158.307 501.523-73.41C894.194 688.05 793.7 226.594 923.758 155.063c278.91-153.4 53.8 664.71 516.24 124.986"/><path d="M.088 561.683c285.053 99.652 330.016-145.138 498.03-65.15C884.933 681.704 785 236.75 914.06 161.724c273.237-158.846 63.682 646.228 525.94 106.992"/><path d="M.088 558.2c273.112 98.906 328.465-132.32 494.54-56.888 381.41 173.238 281.674-254.36 409.728-332.928 267.587-164.177 73.568 627.745 535.642 89"/><path d="M.088 554.72c261.17 98.156 326.818-119.317 491.048-48.63C866.92 667.83 767.608 257.2 894.656 175.045c261.962-169.395 83.452 609.26 545.342 71.005"/><path d="M.088 551.237c249.23 97.41 325.157-106.303 487.557-40.37 370.127 150.27 271.278-243.374 397.31-329.16 256.37-174.505 93.336 590.777 555.043 53.01"/><path d="M.088 547.755c237.288 96.66 323.485-93.278 484.065-32.11 364.444 138.825 266.1-237.813 391.1-327.277C1126.07 8.858 978.476 760.662 1440 223.385"/><path d="M.088 544.273c225.346 95.914 321.8-80.242 480.574-23.85 358.73 127.41 260.935-232.207 384.89-325.394C1110.858 10.615 978.66 748.84 1440 212.052"/><path d="M.088 540.79C213.493 635.958 320.19 473.6 477.17 525.2c352.99 116.033 255.793-226.557 378.683-323.51 239.84-189.222 122.99 535.328 584.145-.97"/><path d="M.088 537.31c201.463 94.417 318.395-54.125 473.59-7.33 347.223 104.69 250.675-220.867 372.474-321.63 234.43-193.94 132.874 516.846 593.846-18.962"/><path d="M.088 533.827c189.522 93.67 316.674-41.04 470.1.93C811.615 628.153 715.77 319.625 836.45 215.012 1065.53 16.434 979.21 713.374 1440 178.055"/><path d="M.088 530.346c177.58 92.923 314.943-27.935 466.608 9.188 335.61 82.15 240.524-209.358 360.054-317.86 223.786-203.14 152.644 479.88 613.248-54.95"/><path d="M.088 526.863c165.64 92.175 313.203-14.805 463.116 17.45 329.77 70.952 235.5-203.55 353.846-315.978 218.556-207.627 162.528 461.395 622.948-72.945"/><path d="M.088 523.38c153.697 91.428 311.454-1.65 459.625 25.71 323.913 59.813 230.51-197.703 347.636-314.094C1020.74 22.942 979.76 677.91 1439.997 144.058"/><path d="M.088 519.9c141.756 90.678 309.7 11.53 456.133 33.97 318.043 48.734 225.56-191.825 341.428-312.212 208.298-216.423 182.297 424.43 642.35-108.932"/><path d="M.088 516.418c129.815 89.93 307.94 24.742 452.642 42.23 312.162 37.722 220.65-185.916 335.218-310.33 203.272-220.74 192.18 405.946 652.05-126.924"/><path d="M.088 512.936c117.873 89.184 306.18 37.987 449.15 50.488 306.28 26.782 215.785-179.976 329.01-308.444 198.316-225.017 202.065 387.462 661.75-144.92"/><path d="M.088 509.454c105.932 88.436 304.423 51.267 445.66 58.748C746.15 584.114 656.71 394.19 768.545 261.642 961.978 32.384 980.496 630.62 1439.998 98.728"/><path d="M.088 505.972c93.99 87.688 302.67 64.584 442.167 67.008 294.54 5.118 206.19-168.026 316.59-304.678C947.466 34.838 980.68 618.798 1440 87.396"/><path d="M.088 502.49c82.05 86.94 300.93 77.94 438.676 75.268 288.7-5.6 201.46-162.02 310.38-302.795C933.02 37.315 980.865 606.976 1440 76.063"/><path d="M.088 499.008c70.107 86.193 299.204 91.335 435.185 83.528 282.89-16.242 196.778-155.995 304.17-300.91C918.646 39.81 981.05 595.153 1440 64.73"/><path d="M.088 495.526c58.166 85.445 297.498 104.77 431.693 91.787C708.91 560.505 623.927 437.36 729.745 288.286 904.34 42.32 981.232 583.332 1439.998 53.4"/><path d="M.088 492.044C46.312 576.74 295.906 610.286 428.29 592.09c271.417-37.303 187.56-143.902 291.753-297.143 170.06-250.112 261.372 276.563 719.955-252.88"/></g></svg>