<svg width="939" height="273" viewBox="0 0 939 273" xmlns="http://www.w3.org/2000/svg">
  <title>
    [interludio]barrachina_logo-construction
  </title>
  <g fill="none" fill-rule="evenodd">
    <path fill="#EAEAEA" d="M1.778 133.878h936.974v-1.083H1.778M1.778 128.348h936.974v-1.083H1.778M1.778 87.585h936.974V86.5H1.778M1.693 186.438h936.974v-1.084H1.693"/>
    <path d="M933.81 170.13c-1.277 3.045-3.082 5.574-5.366 7.513-2.306 1.962-5.04 3.475-8.13 4.497-3.1 1.03-6.452 1.553-9.964 1.553h-11.293l18.195-11.703c.618-.396.992-1.08.992-1.816V136.3c.08.02.16.032.237.05 3.284.79 6.248 2.145 8.81 4.026 2.547 1.87 4.615 4.363 6.146 7.41 1.534 3.048 2.313 6.922 2.313 11.51 0 4.116-.654 7.76-1.94 10.833m1.458-23.266c-1.68-3.34-3.955-6.077-6.764-8.14-2.785-2.044-5.995-3.512-9.545-4.366-3.496-.84-7.14-1.263-10.83-1.263h-11.743v52.648h13.963c3.732 0 7.3-.558 10.61-1.657 3.338-1.106 6.304-2.748 8.81-4.882 2.532-2.15 4.527-4.935 5.93-8.282 1.392-3.326 2.097-7.237 2.097-11.626 0-4.91-.85-9.094-2.53-12.432M904.113 88.544c6.588 0 11.872 1.52 15.704 4.523 3.755 2.943 5.66 7.593 5.66 13.822 0 5.378-1.586 10.048-4.71 13.877-.74.902-1.584 1.69-2.523 2.38v-21.322c0-.735-.373-1.42-.99-1.817l-17.827-11.464h4.686zm18.24 33.52c3.432-4.206 5.173-9.312 5.173-15.175 0-6.892-2.17-12.085-6.444-15.436-4.203-3.29-9.912-4.96-16.97-4.96h-7.724v42h9.943c7.147 0 12.537-2.164 16.023-6.43z" fill="#C0C0C0"/>
    <path fill="#EAEAEA" d="M895.847 270.445h1.082V0h-1.083M936.51 270.445h1.082V0h-1.083"/>
    <g fill="#C0C0C0">
      <path d="M678.575 137.05h38.405v-3.713h-38.405M678.575 126.653h38.405v-3.714h-38.405"/>
    </g>
    <g>
      <path d="M443.33 88.66c-1.207 0-2.184.977-2.184 2.184v95.273l26.04-14.635V104.08l-21.672-11.052h48v93.09h4.368V90.843c0-1.207-.978-2.185-2.184-2.185h-52.37z" fill="#C0C0C0"/>
      <path fill="#EAEAEA" d="M440.605 272.61h1.082V2.166h-1.082M497.34 272.61h1.084V2.166h-1.083"/>
    </g>
    <path fill="#C0C0C0" d="M240.924 149.274V131.87H223.63v-3.715h17.294v-17.3h3.82v17.3h17.29v3.714h-17.29v17.404"/>
    <g>
      <path d="M40.344 169.077c1.368-3.268 2.06-7.145 2.06-11.523 0-4.88-.827-8.998-2.458-12.243-1.63-3.24-3.828-5.89-6.536-7.88-2.727-2-5.88-3.44-9.37-4.28-3.552-.85-7.256-1.282-11.01-1.282H2.72v51.636h12.672c3.734 0 7.3-.557 10.597-1.65 3.285-1.09 6.194-2.7 8.647-4.785 2.428-2.064 4.348-4.753 5.707-7.993zm1.55-24.745c1.786 3.55 2.69 8 2.69 13.222 0 4.67-.75 8.83-2.23 12.365-1.492 3.56-3.615 6.524-6.306 8.81-2.667 2.27-5.822 4.016-9.373 5.192-3.518 1.168-7.316 1.762-11.283 1.762H.54v-55.997h12.49c3.925 0 7.8.45 11.52 1.342 3.773.91 7.19 2.47 10.15 4.644 2.988 2.194 5.408 5.108 7.194 8.658z" fill="#C0C0C0"/>
      <path d="M26.47 123.497c-3.273 4.007-8.44 6.037-15.354 6.037H2.72v-40.31h6.037c7.008 0 12.628 1.62 16.704 4.812 3.995 3.13 6.02 8.076 6.02 14.7 0 5.72-1.686 10.688-5.01 14.76m.335-31.178c-4.47-3.5-10.54-5.275-18.048-5.275H.54v44.672h10.576c7.602 0 13.334-2.3 17.04-6.838 3.652-4.474 5.503-9.904 5.503-16.142 0-7.328-2.307-12.852-6.855-16.417" fill="#C0C0C0"/>
      <path fill="#EAEAEA" d="M0 270.995h1.082V.55H0M43.515 270.995h1.082V.55h-1"/>
    </g>
  </g>
</svg>
