<svg width="102" height="118" viewBox="0 0 102 118" xmlns="http://www.w3.org/2000/svg"><title>[interludio]adaptive_icons02</title><g fill="none" fill-rule="evenodd"><path d="M101 59c0 27.614-22.386 50-50 50S1 86.614 1 59 23.386 9 51 9s50 22.386 50 50" fill="#F4F3EF"/><path d="M51 101V17M87.373 38L14.627 80M14.627 38l72.746 42" stroke="#333" stroke-width="2"/><path d="M83 59c0 17.674-14.327 32-32 32-17.673 0-32-14.327-32-32 0-17.673 14.327-32 32-32 17.673 0 32 14.328 32 32" fill="#FFF"/><path d="M27 58.998c0-11.912 5.085-22.633 13.198-30.124C27.84 33.306 19 45.117 19 58.998c0 13.883 8.843 25.698 21.202 30.13C32.087 81.636 27 70.912 27 59" fill="#F4F3EF"/><path d="M83 59c0 17.674-14.327 32-32 32-17.673 0-32-14.327-32-32 0-17.673 14.327-32 32-32 17.673 0 32 14.328 32 32zM23 25l14-8M9 71V47M37 101l-14-8M79 93l-14 8M93 47v24M65 17l14 8" stroke="#333" stroke-width="2"/><path d="M51 65c-5.92 0-18 1.746-18 8v4c4.868 4.092 11.142 6.566 18 6.566 6.858 0 13.132-2.474 18-6.566v-4c0-6.254-12.08-8-18-8" fill="#FCD410"/><path d="M38 76.105c0-5.923 7.472-9.057 15.047-10.52-1.13-.095-2.182-.14-3.08-.14-5.58 0-16.967 1.646-16.967 7.54v3.77c1.528 1.286 3.206 2.397 5 3.313v-3.963z" fill="#E8C42D"/><path d="M51 57c4.413 0 8-3.455 8-7.715v-4.572C59 40.453 55.413 37 51 37s-8 3.453-8 7.713v4.573C43 53.546 46.587 57 51 57" fill="#FFF"/><path d="M47 49.286v-4.572c0-3.593 2.555-6.602 6-7.46-.64-.16-1.308-.254-2-.254-4.413 0-8 3.454-8 7.714v4.572C43 53.546 46.587 57 51 57c.692 0 1.36-.094 2-.254-3.446-.858-6-3.868-6-7.46" fill="#F4F3EF"/><path d="M51 57c4.413 0 8-3.455 8-7.715v-4.572C59 40.453 55.413 37 51 37s-8 3.453-8 7.713v4.573C43 53.546 46.587 57 51 57zM69 77v-4c0-6.254-12.08-8-18-8s-18 1.746-18 8v4" stroke="#333" stroke-width="2"/><path d="M59 9c0 4.418-3.582 8-8 8s-8-3.582-8-8 3.582-8 8-8 8 3.582 8 8" fill="#FCD410"/><path d="M47 9c0-3.726 2.552-6.848 6-7.738C52.36 1.097 51.692 1 51 1c-4.418 0-8 3.582-8 8s3.582 8 8 8c.692 0 1.36-.097 2-.262-3.448-.89-6-4.012-6-7.738" fill="#E8C42D"/><path d="M101 33c0 4.418-3.582 8-8 8s-8-3.582-8-8 3.582-8 8-8 8 3.582 8 8" fill="#FFF"/><path d="M101 85c0 4.418-3.582 8-8 8s-8-3.582-8-8 3.582-8 8-8 8 3.582 8 8" fill="#FCD410"/><path d="M89 33c0-3.726 2.552-6.848 6-7.738-.64-.165-1.308-.262-2-.262-4.418 0-8 3.582-8 8s3.582 8 8 8c.692 0 1.36-.097 2-.262-3.448-.89-6-4.012-6-7.738" fill="#F4F3EF"/><path d="M89 85c0-3.726 2.552-6.848 6-7.738-.64-.165-1.308-.262-2-.262-4.418 0-8 3.582-8 8s3.582 8 8 8c.692 0 1.36-.097 2-.262-3.448-.89-6-4.012-6-7.738" fill="#E8C42D"/><path d="M17 85c0 4.418-3.582 8-8 8s-8-3.582-8-8 3.582-8 8-8 8 3.582 8 8M17 33c0 4.418-3.582 8-8 8s-8-3.582-8-8 3.582-8 8-8 8 3.582 8 8M51 117c-4.418 0-8-3.582-8-8s3.582-8 8-8 8 3.582 8 8-3.582 8-8 8" fill="#FFF"/><path d="M47 109c0-3.726 2.552-6.848 6-7.738-.64-.165-1.308-.262-2-.262-4.418 0-8 3.582-8 8s3.582 8 8 8c.692 0 1.36-.097 2-.262-3.448-.89-6-4.012-6-7.738M5 85c0-3.726 2.552-6.848 6-7.738-.64-.165-1.308-.262-2-.262-4.418 0-8 3.582-8 8s3.582 8 8 8c.692 0 1.36-.097 2-.262-3.448-.89-6-4.012-6-7.738M5 33c0-3.726 2.552-6.848 6-7.738-.64-.165-1.308-.262-2-.262-4.418 0-8 3.582-8 8s3.582 8 8 8c.692 0 1.36-.097 2-.262-3.448-.89-6-4.012-6-7.738" fill="#F4F3EF"/><path d="M59 9c0 4.418-3.582 8-8 8s-8-3.582-8-8 3.582-8 8-8 8 3.582 8 8zM101 33c0 4.418-3.582 8-8 8s-8-3.582-8-8 3.582-8 8-8 8 3.582 8 8zM101 85c0 4.418-3.582 8-8 8s-8-3.582-8-8 3.582-8 8-8 8 3.582 8 8zM17 85c0 4.418-3.582 8-8 8s-8-3.582-8-8 3.582-8 8-8 8 3.582 8 8zM17 33c0 4.418-3.582 8-8 8s-8-3.582-8-8 3.582-8 8-8 8 3.582 8 8zM51 117c-4.418 0-8-3.582-8-8s3.582-8 8-8 8 3.582 8 8-3.582 8-8 8" stroke="#333" stroke-width="2"/></g></svg>