<svg width="231" height="280" viewBox="0 0 231 280" xmlns="http://www.w3.org/2000/svg">
  <g fill="none" fill-rule="evenodd">
    <path d="M51.475 31.327c-.806 0-1.496-.195-2.072-.585-.576-.39-.864-1.084-.864-2.082 0-.96.415-1.91 1.247-2.85.83-.94 1.963-1.71 3.396-2.312 1.433-.6 2.987-.902 4.663-.902 1.305 0 2.44.16 3.406.48.966.32 1.708.774 2.226 1.363.518.587.777 1.284.777 2.09 0 1.15-.457 2.213-1.372 3.185-.915.973-2.066 1.79-3.454 2.457-1.39.665-2.806 1.17-4.25 1.516 2.25.038 4.057.454 5.42 1.247 1.362.793 2.043 1.99 2.043 3.588 0 2.11-1.09 3.99-3.272 5.64-2.18 1.652-4.866 2.934-8.058 3.85-3.19.913-6.214 1.39-9.066 1.428l.19-.71c2.215-.14 4.434-.648 6.66-1.524s4.078-2.108 5.555-3.694c1.48-1.586 2.217-3.46 2.217-5.622 0-1.05-.21-1.893-.633-2.533-.422-.64-1.01-.985-1.765-1.036-.615.244-1.076.416-1.383.52-.307.1-.607.152-.902.152-.473 0-.71-.134-.71-.403 0-.026.013-.09.04-.193.1-.486.728-.73 1.88-.73.32 0 .568.008.748.02 1.432-.6 2.603-1.442 3.51-2.523.91-1.08 1.363-2.312 1.363-3.694 0-1.1-.32-1.963-.96-2.59-.64-.627-1.534-.94-2.685-.94-.933 0-1.857.227-2.772.68-.915.455-1.663 1.047-2.245 1.776-.582.73-.873 1.47-.873 2.226 0 .64.176 1.113.527 1.42.352.307.93.46 1.737.46.908 0 1.72-.198 2.437-.595l.442.595c-1.01.55-2.06.825-3.147.825z" fill="#575B66"/>
    <path d="M228.553 216.15c-.003-1.59-.282-3.174-1.083-4.537-2.177-3.71-13.01-7.275-24.96-7.275-11.953 0-19.742 2.202-25.428 5.7-4.648 2.858-3.718 7.027-3.718 16.05 0 1.77 1.367 2.717 2.33 3.088-1.28 13.634-2.448 29.516-3.344 42.492-.103 2.406 3.802 2.626 3.825 1.362.913-15.504 2.14-29.27 3.53-42.572 2.722.763 5.725 1.4 8.956 1.877-.177 9.888-.626 31.564-.688 33.677-.065 2.206 3.316 2.694 3.316.98 0-3.382.988-24.667 1.347-34.172 5.14.514 10.734.622 16.59.19.99 14.045 2.466 37.754 2.897 44.75.14 2.276 3.444 2.486 3.422.79-.186-14.05-.844-32.172-1.498-46.014 3.087-.38 6.226-.912 9.39-1.617 1.188 11.73 2.603 27.71 3.43 36.624.274 2.547 3.693 2.438 3.514.5-.675-9.276-2.206-26.027-3.423-38.47 1.756-1.506 1.613-4.668 1.596-13.425zM156.87 197.914c-2.205-.782-5.09-1.417-8.14-1.934.25-14.128 1.453-30.985 3.058-45.318 3.48.786 6.716 1.896 9.485 3.402-3.026 15.672-3.74 29.47-4.402 43.85m-32.81-3.955c-.526-15.21-1.305-26.044-4.025-43.425 3.134-.602 6.804-1.062 10.716-1.29 1.197 14.262 2.105 27.274 1.79 44.91-.815-.06-1.45-.103-1.83-.13-1.543-.115-3.962-.268-6.65-.066m23.03-44.148c-1.605 15.07-2.035 31.16-2.066 45.605-3.052-.416-6.07-.724-8.57-.946.37-15.163.154-26.46-.567-45.382 3.723-.01 7.53.21 11.202.724m-36.77-9.785c-2.833 1.41-1.592 8.154-.258 11.13.375.836 1.905 1.686 3.622 1.05.415-.155.873-.305 1.35-.452 3.28 17.308 4.008 26.35 4.4 42.945-1.523.395-3.03.96-4.42 1.762-5.376 3.11-10.53 5.324-19.354 12.246-1 .784-2.573 1.91-2.573 4.05 0 .347-.004.726-.008 1.12l-.14-.22c-.524 18.193-.142 39.038 0 57.442 0 2.195 3.662 3.083 3.774 1.31 1.127-17.125 1.275-27.29 2.66-43.658 4.328 1.5 10.192 2.514 14.93 3.282.073 8.324.427 20.85.535 22.54.12 1.895 3.256 3.07 3.416 1.038.338-4.307.952-14.45 1.305-22.814 3.608.465 7.24.842 10.82 1.232 2.42.265 5.837.54 8.69.568.666 14.22 1.618 29.103 2.458 43.556.703 2.193 4.046 1.724 4.068.364.277-16.902.328-30.024.59-44.742 1.247-.348 2.408-.818 3.426-1.458 2.074-1.303 4.583-4.595 6.78-8.302.7 11.017 1.432 21.028 1.86 31.212.103 3.892 4.075 3.588 4.072 1.49-.234-19.877-.33-24.075-.603-45.372l-.045-.023c.03-.27.05-.524.046-.75-.024-1.465-.297-7.198-.804-9.557l.158.055c0-16.5 1.146-28.1 4.234-44.24 1.6 1.244 4.004 2.417 4.728-.4 1.49-5.79 1.78-8.867.22-10.576-10.612-11.635-49.912-10.817-59.935-5.827M62.228 255.56c-17.51-2.436-34.334-4.244-51.987-7.19 1.46-6.354 3-13.148 4.57-20.09 3.238.954 6.6 1.697 10.028 2.304 1.696 7.976 3 14.205 3.12 14.77.31 1.44 4.038 2.42 3.653-.144-.253-1.697-1.283-7.046-2.652-13.96 5.086.75 10.26 1.284 15.34 1.838 6.407.698 15.364 1.297 20.98-1.87.416-.234 1.076-.932 1.878-1.943-1.753 9.47-3.475 18.61-4.928 26.286m14.095-78.83c-.928 6.235-2.35 14.684-4 24.05-8.608-2.737-24.765-3.74-27.666-3.956-3.534-.26-11.26-.73-17.125 2.66-1.483.858-2.95 1.654-4.47 2.485l-1.076-5.278c2.044-8.91 3.988-17.244 5.702-24.298 14.126.743 32.746 1.34 48.635 4.337m1.942 32.36c.148-.612.23-1.152.223-1.593-.03-1.91-.45-3.09-1.226-4.078-.055-.07-.13-.138-.194-.207l-.215-1.057c1.64-8.74 3.214-17.06 4.614-24.344 1.554-6.658 2.186-11.805 2.616-16.465.312-3.376-.28-6.518-3.033-8.816-1.524-1.27-3.656-1.73-5.687-2.14-10.58-2.14-31.152-2.65-35.7-2.132-8.902 1.015-11.94 6.168-13.493 9.53-2.223 4.816-2.585 9.07-3.413 13.993-1.868 8.267-4.847 21.233-8.042 35.1-2.44 1.583-5.15 3.496-8.297 5.963-1.092.856-2.807 2.085-2.807 4.42 0 4.672-.59 6.442 4.315 8.56.728.316 1.468.61 2.215.896C4.957 249.177.32 269.275.03 270.832c-.425 2.275 3.948 3.933 4.463 1.863 1.448-5.817 3.19-13.224 5.096-21.495 8.092 1.56 41.99 6.416 51.982 7.822-1.847 9.74-3.137 16.467-3.28 17.33-.434 2.6 3.95 4.653 4.395 2.25 2.515-13.578 6.736-36.565 10.966-59.31.608-1.077 1.19-2.157 1.73-3.212 3.294 14.98 7.445 34.89 7.683 35.916.416 1.79 3.99 1.97 3.653-.142-.602-3.78-4.993-25.708-8.455-42.763" fill="#FF5F5C"/>
    <path fill="#B8BECC" fill-rule="nonzero" d="M52 70v80h2V70"/>
    <path d="M49.877 148.35c0 1.658 1.343 3 3 3s3-1.342 3-3c0-1.656-1.343-3-3-3s-3 1.344-3 3z" fill="#121E3F"/>
    <path fill="#B8BECC" fill-rule="nonzero" d="M139.982 115.018v23.578h2v-23.578"/>
    <path d="M137.877 136.56c0 1.658 1.343 3 3 3s3-1.342 3-3c0-1.655-1.343-3-3-3s-3 1.345-3 3z" fill="#121E3F"/>
    <path fill="#B8BECC" fill-rule="nonzero" d="M52.07 115.93h150.966v-1.965H52.07"/>
    <path d="M53.544 71.72c-19.805 0-35.86-16.056-35.86-35.86C17.684 16.055 33.74 0 53.544 0s35.86 16.055 35.86 35.86c0 19.804-16.055 35.86-35.86 35.86zm0-1.966c18.72 0 33.895-15.175 33.895-33.894 0-18.72-15.177-33.895-33.896-33.895-18.72 0-33.895 15.175-33.895 33.895 0 18.72 15.174 33.894 33.894 33.894z" fill="#575B66" fill-rule="nonzero"/>
    <path fill="#B8BECC" fill-rule="nonzero" d="M201 116v93.333h2V116"/>
    <path d="M198.877 204.35c0 1.658 1.343 3 3 3s3-1.342 3-3c0-1.656-1.343-3-3-3s-3 1.344-3 3z" fill="#121E3F"/>
  </g>
</svg>
