<svg xmlns="http://www.w3.org/2000/svg" width="1287" height="551" viewBox="0 0 1287 551"><linearGradient id="a" gradientUnits="userSpaceOnUse" y1="275.119" x2="1286.489" y2="275.119"><stop offset=".003" stop-color="#0457FF"/><stop offset=".996" stop-color="#0CC3F3"/></linearGradient><path fill="none" stroke="url(#a)" stroke-width=".2" d="M1286.4.1C1152.6 161 1080.3 535.7 772.3 245.7 630.6 112.4 275.3 563.7 0 549.8"/><linearGradient id="b" gradientUnits="userSpaceOnUse" x1="11.349" y1="278.388" x2="1286.486" y2="278.388"><stop offset=".003" stop-color="#0457FF"/><stop offset=".996" stop-color="#0CC3F3"/></linearGradient><path fill="none" stroke="url(#b)" stroke-width=".2" d="M1286.4 6.9c-141.3 153.3-216 523.8-517.3 243.5-143-133-497.7 296-757.7 299.4"/><linearGradient id="c" gradientUnits="userSpaceOnUse" x1="22.687" y1="281.815" x2="1286.482" y2="281.815"><stop offset=".003" stop-color="#0457FF"/><stop offset=".996" stop-color="#0CC3F3"/></linearGradient><path fill="none" stroke="url(#c)" stroke-width=".2" d="M1286.4 13.8c-148.8 145.6-225.9 512-520.5 241.3-144.4-132.6-498.4 274-743.2 294.7"/><linearGradient id="d" gradientUnits="userSpaceOnUse" x1="34.024" y1="285.241" x2="1286.478" y2="285.241"><stop offset=".003" stop-color="#0457FF"/><stop offset=".996" stop-color="#0CC3F3"/></linearGradient><path fill="none" stroke="url(#d)" stroke-width=".2" d="M1286.4 20.6c-156.3 137.9-235.9 500.3-523.7 239.1C616.9 127.5 263.5 511.7 34 549.8"/><linearGradient id="e" gradientUnits="userSpaceOnUse" x1="45.359" y1="288.667" x2="1286.474" y2="288.667"><stop offset=".003" stop-color="#0457FF"/><stop offset=".996" stop-color="#0CC3F3"/></linearGradient><path fill="none" stroke="url(#e)" stroke-width=".2" d="M1286.4 27.5c-163.8 130.3-246 488.6-526.9 236.9-147.2-131.8-499.9 230-714.1 285.4"/><linearGradient id="f" gradientUnits="userSpaceOnUse" x1="56.695" y1="292.092" x2="1286.47" y2="292.092"><stop offset=".003" stop-color="#0457FF"/><stop offset=".996" stop-color="#0CC3F3"/></linearGradient><path fill="none" stroke="url(#f)" stroke-width=".2" d="M1286.4 34.3c-171.3 122.6-256.1 477-530.1 234.7C607.7 137.6 255.7 477 56.7 549.7"/><linearGradient id="g" gradientUnits="userSpaceOnUse" x1="68.031" y1="295.517" x2="1286.466" y2="295.517"><stop offset=".003" stop-color="#0457FF"/><stop offset=".996" stop-color="#0CC3F3"/></linearGradient><path fill="none" stroke="url(#g)" stroke-width=".2" d="M1286.4 41.2c-178.8 114.9-266.3 465.5-533.3 232.5-150.1-130.9-501.3 186-685 276.1"/><linearGradient id="h" gradientUnits="userSpaceOnUse" x1="79.367" y1="298.942" x2="1286.462" y2="298.942"><stop offset=".003" stop-color="#0457FF"/><stop offset=".996" stop-color="#0CC3F3"/></linearGradient><path fill="none" stroke="url(#h)" stroke-width=".2" d="M1286.4 48.1c-186.3 107.3-276.6 454.1-536.5 230.4-151.5-130.5-502 164-670.5 271.4"/><linearGradient id="i" gradientUnits="userSpaceOnUse" x1="90.704" y1="302.366" x2="1286.458" y2="302.366"><stop offset=".003" stop-color="#0457FF"/><stop offset=".996" stop-color="#0CC3F3"/></linearGradient><path fill="none" stroke="url(#i)" stroke-width=".2" d="M1286.4 54.9c-193.8 99.6-287 442.7-539.7 228.2-153.1-130-502.7 142-656 266.7"/><linearGradient id="j" gradientUnits="userSpaceOnUse" x1="102.039" y1="305.79" x2="1286.454" y2="305.79"><stop offset=".003" stop-color="#0457FF"/><stop offset=".996" stop-color="#0CC3F3"/></linearGradient><path fill="none" stroke="url(#j)" stroke-width=".2" d="M1286.4 61.8c-201.3 92-297.4 431.4-542.9 226-154.6-129.4-503.4 120-641.4 262.1"/><linearGradient id="k" gradientUnits="userSpaceOnUse" x1="113.377" y1="309.214" x2="1286.449" y2="309.214"><stop offset=".003" stop-color="#0457FF"/><stop offset=".996" stop-color="#0CC3F3"/></linearGradient><path fill="none" stroke="url(#k)" stroke-width=".2" d="M1286.4 68.6c-208.8 84.3-308 420.2-546.1 223.8-156.2-128.9-504.1 98-626.9 257.4"/><linearGradient id="l" gradientUnits="userSpaceOnUse" x1="124.716" y1="312.636" x2="1286.445" y2="312.636"><stop offset=".003" stop-color="#0457FF"/><stop offset=".996" stop-color="#0CC3F3"/></linearGradient><path fill="none" stroke="url(#l)" stroke-width=".2" d="M1286.4 75.5c-216.3 76.6-318.5 409.1-549.3 221.6-157.8-128.3-504.9 76-612.4 252.7"/><linearGradient id="m" gradientUnits="userSpaceOnUse" x1="136.055" y1="316.06" x2="1286.441" y2="316.06"><stop offset=".003" stop-color="#0457FF"/><stop offset=".996" stop-color="#0CC3F3"/></linearGradient><path fill="none" stroke="url(#m)" stroke-width=".2" d="M1286.4 82.3c-223.8 69-329.2 398.1-552.4 219.4-159.5-127.6-505.6 54-597.8 248.1"/><linearGradient id="n" gradientUnits="userSpaceOnUse" x1="147.397" y1="319.484" x2="1286.438" y2="319.484"><stop offset=".003" stop-color="#0457FF"/><stop offset=".996" stop-color="#0CC3F3"/></linearGradient><path fill="none" stroke="url(#n)" stroke-width=".2" d="M1286.4 89.2c-231.3 61.3-339.9 387.1-555.6 217.2-161.2-126.9-506.3 32-583.3 243.4"/><linearGradient id="o" gradientUnits="userSpaceOnUse" x1="158.739" y1="322.907" x2="1286.434" y2="322.907"><stop offset=".003" stop-color="#0457FF"/><stop offset=".996" stop-color="#0CC3F3"/></linearGradient><path fill="none" stroke="url(#o)" stroke-width=".2" d="M1286.4 96.1c-238.8 53.6-350.7 376.2-558.8 215-162.9-126.1-507 10-568.7 238.7"/><linearGradient id="p" gradientUnits="userSpaceOnUse" x1="170.083" y1="326.332" x2="1286.43" y2="326.332"><stop offset=".003" stop-color="#0457FF"/><stop offset=".996" stop-color="#0CC3F3"/></linearGradient><path fill="none" stroke="url(#p)" stroke-width=".2" d="M1286.4 102.9c-246.3 46-361.5 365.4-562 212.8-164.7-125.3-507.7-12-554.2 234.1"/><linearGradient id="q" gradientUnits="userSpaceOnUse" x1="181.427" y1="329.757" x2="1286.427" y2="329.757"><stop offset=".003" stop-color="#0457FF"/><stop offset=".996" stop-color="#0CC3F3"/></linearGradient><path fill="none" stroke="url(#q)" stroke-width=".2" d="M1286.4 109.8C1032.6 148.1 914 464.4 721.2 320.4c-166.6-124.4-508.4-34-539.7 229.4"/><linearGradient id="r" gradientUnits="userSpaceOnUse" x1="192.772" y1="333.182" x2="1286.424" y2="333.182"><stop offset=".003" stop-color="#0457FF"/><stop offset=".996" stop-color="#0CC3F3"/></linearGradient><path fill="none" stroke="url(#r)" stroke-width=".2" d="M1286.4 116.6C1025.1 147.3 903.1 460.6 718 325c-168.5-123.4-509.1-56-525.1 224.7"/><linearGradient id="s" gradientUnits="userSpaceOnUse" x1="204.116" y1="336.608" x2="1286.42" y2="336.608"><stop offset=".003" stop-color="#0457FF"/><stop offset=".996" stop-color="#0CC3F3"/></linearGradient><path fill="none" stroke="url(#s)" stroke-width=".2" d="M1286.4 123.5c-268.9 23-394.3 333.4-571.6 206.3-170.5-122.3-509.9-78-510.6 220.1"/><linearGradient id="t" gradientUnits="userSpaceOnUse" x1="215.01" y1="340.039" x2="1286.418" y2="340.039"><stop offset=".003" stop-color="#0457FF"/><stop offset=".996" stop-color="#0CC3F3"/></linearGradient><path fill="none" stroke="url(#t)" stroke-width=".2" d="M1286.4 130.3C1010 145.6 881.1 453.2 711.6 334.4 539 213.4 201 234.4 215.5 549.8"/><linearGradient id="u" gradientUnits="userSpaceOnUse" x1="224.957" y1="343.469" x2="1286.415" y2="343.469"><stop offset=".003" stop-color="#0457FF"/><stop offset=".996" stop-color="#0CC3F3"/></linearGradient><path fill="none" stroke="url(#u)" stroke-width=".2" d="M1286.4 137.2c-283.9 7.7-416.3 312.5-578 201.9-174.7-119.6-511.3-122-481.5 210.7"/><linearGradient id="v" gradientUnits="userSpaceOnUse" x1="234.034" y1="346.899" x2="1286.412" y2="346.899"><stop offset=".003" stop-color="#0457FF"/><stop offset=".996" stop-color="#0CC3F3"/></linearGradient><path fill="none" stroke="url(#v)" stroke-width=".2" d="M238.2 549.8c-45-350.1 290-324.1 467-206.1C859 446.2 995 144.1 1286.4 144.1"/></svg>