<svg width="129" height="54" viewBox="0 0 129 54" xmlns="http://www.w3.org/2000/svg">
  <path d="M21.804 26.953L.807 4.456 5.632-.047l23.098 24.75c1.183 1.266 1.183 3.234 0 4.502L5.632 53.953.807 49.45l20.997-22.497zm32.998 0L33.805 4.456 38.63-.047l23.098 24.75c1.183 1.266 1.183 3.234 0 4.502l-23.1 24.748-4.823-4.503 20.997-22.497zm12 22.497L87.8 26.953 66.803 4.456l4.824-4.503 23.1 24.75c1.182 1.266 1.182 3.234 0 4.502l-23.1 24.748-4.824-4.503zM120.8 26.953L99.8 4.456l4.825-4.503 23.1 24.75c1.182 1.266 1.182 3.234 0 4.502l-23.1 24.748L99.8 49.45 120.8 26.953z" fill-rule="nonzero" fill="#121E3F"/>
</svg>
