<svg width="171" height="280" viewBox="0 0 171 280" xmlns="http://www.w3.org/2000/svg">
  <g fill="#121E3F" fill-rule="evenodd" fill-opacity=".6">
    <path d="M45.272 70.347c-2.007 0-3.38-.03-4.115-.1V6.326c3.814-.538 7.026-.806 9.637-.806 3.946 0 7.458.47 10.54 1.407 3.076.938 5.887 2.514 8.43 4.723 2.542 2.213 4.5 5.327 5.872 9.347 1.37 4.02 2.06 8.914 2.06 14.676 0 11.525-2.427 20.187-7.28 25.982-4.853 5.795-13.234 8.692-25.144 8.692M53.502 0H0v4.617L15.458 5.62v115.31L0 121.93v4.618h56.614v-4.617l-15.457-1V75.966c1.537-.063 3.78-.1 6.724-.1 1.742 0 3.397.388 4.97 1.155 1.57.77 3.112 2.057 4.617 3.864 1.507 1.805 2.81 3.528 3.915 5.168 1.106 1.64 2.41 4.05 3.917 7.225 1.502 3.178 2.658 5.77 3.46 7.776 5.49 13.515 9.37 22.397 11.644 26.644 2.275 4.25 4.87 7.577 7.78 9.986 2.912 2.41 5.84 3.93 8.785 4.567 2.94.637 6.957.953 12.044.953h16.664v-4.715c-2.075 0-2.587.555-5.522-.702-1.607-.466-3.58-2.543-5.92-4.618-2.346-2.074-4.59-5.018-6.727-8.83-2.68-4.683-5.372-10.053-8.082-16.108-2.71-6.055-4.804-10.552-6.275-13.497-2.207-4.28-4.535-7.777-6.975-10.488-2.445-2.71-5.722-4.933-9.84-6.675-4.114-1.736-8.983-2.64-14.603-2.707v-.202C74.85 72.79 85.258 68.66 92.953 62.27c7.694-6.388 11.544-15.304 11.544-26.744 0-6.355-1.29-11.857-3.864-16.508-2.577-4.65-6.224-8.346-10.943-11.09-4.717-2.74-10.072-4.75-16.06-6.02C67.64.638 60.93 0 53.502 0M72.15 210.142l-.042 49.974c6.73.524 17.964.786 24.59.786 3.102 0 5.837-.247 8.203-.748 2.367-.497 4.418-1.325 6.154-2.48 1.734-1.153 3.207-2.452 4.417-3.896 1.21-1.443 2.275-3.295 3.196-5.552.918-2.257 1.668-4.514 2.247-6.772.578-2.254 1.184-5.04 1.815-8.345h3.392l-.868 32.123H39.767v-3.623l12.148-.785.067-36.768c8.9-.947 15.623-5.585 20.168-13.915zm1.704-5.396c1.567.156 13.774.248 17.902.248 5.487 0 9.405-1.343 11.757-4.03 2.35-2.687 3.527-7.58 3.527-14.676h4.31v42.028h-4.31c0-7.095-1.19-12.04-3.567-14.83-2.38-2.792-6.282-4.188-11.717-4.188-4.023 0-17.652.12-19.322.276l1.42-4.828zm-35.223-48.37v-3.597h85l.785 31.804h-3.295c-.627-3.542-1.294-6.55-2-9.025-.706-2.474-1.714-4.963-3.02-7.464-1.308-2.5-2.838-4.494-4.59-5.978-1.753-1.485-4-2.697-6.747-3.633-2.746-.94-5.922-1.408-9.532-1.408-4.445 0-16.886.825-24.432 0v11.02c-3.193-8.787-16.395-9.553-19.1-9.612v-2.11c-2.117-.047-6.473-.047-13.067 0z"/>
    <path d="M77.22 80.398c0-11.594 1.848-22.174 5.55-31.742 3.698-9.568 9.136-17.264 16.31-23.09 7.176-5.824 15.438-8.737 24.788-8.737 14.1 0 25.462 5.6 34.086 16.8 8.625 11.2 12.936 25.89 12.936 44.066 0 6.64-.588 13.085-1.76 19.332-1.177 6.246-3.014 12.17-5.514 17.77-2.5 5.602-5.538 10.497-9.112 14.69-3.575 4.192-7.962 7.527-13.16 10.003-5.203 2.476-10.876 3.716-17.026 3.716-14.65 0-26.162-5.74-34.537-17.222-8.374-11.48-12.56-26.676-12.56-45.586m26.178-1.858c0 11.087.753 21.09 2.26 30.01 1.506 8.922 3.833 16.153 6.982 21.696 3.148 5.544 6.905 8.316 11.27 8.316 6.49 0 11.58-5.487 15.27-16.462 3.687-10.974 5.532-25.55 5.532-43.728 0-18.91-1.806-33.12-5.418-42.633-3.612-9.51-8.624-14.267-15.036-14.267-2.24 0-4.375.675-6.403 2.026-2.028 1.35-3.932 3.516-5.708 6.5-1.777 2.983-3.302 6.656-4.577 11.016-1.275 4.362-2.29 9.75-3.042 16.166-.754 6.416-1.13 13.535-1.13 21.358M0 280v-4.102l17.17-.89V157.77l-13.752-.89v-4.1H51.91c6.548 0 12.606.7 18.173 2.094 5.566 1.398 10.58 3.508 15.047 6.33 4.466 2.823 7.962 6.597 10.493 11.323 2.53 4.725 3.796 10.18 3.796 16.358 0 5.706-.97 10.85-2.904 15.425-1.935 4.578-4.54 8.41-7.814 11.5-3.276 3.09-7.22 5.662-11.832 7.712-4.616 2.05-9.497 3.536-14.646 4.457-5.15.922-10.613 1.38-16.388 1.38-1.25 0-3.185-.058-5.804-.176v45.825l13.752.888V280H0zm40.032-55.808c2.084.177 4.197.266 6.34.266 19.528 0 29.29-11.904 29.29-35.71 0-5.772-.654-10.697-1.963-14.774-1.31-4.076-3.2-7.232-5.672-9.462-2.47-2.232-5.21-3.84-8.215-4.82-3.008-.983-6.446-1.475-10.315-1.475-2.918 0-6.072.24-9.466.714v65.262z"/>
  </g>
</svg>
