<svg width="504" height="253" viewBox="0 0 504 253" xmlns="http://www.w3.org/2000/svg">
  <g fill="#FF5F5C" fill-rule="evenodd">
    <path d="M350.682 175.862c2.722-2.32 2.5-7.19 2.474-20.674-.005-2.445-.437-4.885-1.68-6.985-3.375-5.71-20.173-11.203-38.706-11.203-18.534 0-30.612 3.392-39.43 8.778-7.207 4.4-5.765 10.82-5.765 24.715 0 2.725 2.12 4.183 3.614 4.755-1.986 20.994-3.797 45.45-5.187 65.433-.16 3.706 5.896 4.045 5.93 2.098 1.416-23.875 3.32-45.07 5.476-65.555 4.22 1.174 8.875 2.157 13.886 2.89-.276 15.226-.972 48.604-1.068 51.86-.102 3.395 5.142 4.147 5.142 1.507 0-5.207 1.53-37.984 2.09-52.62 7.97.79 16.644.957 25.723.29 1.535 21.63 3.825 58.138 4.494 68.91.218 3.506 5.34 3.83 5.306 1.22-.288-21.635-1.308-49.543-2.323-70.858 4.787-.585 9.654-1.404 14.56-2.49 1.843 18.062 4.037 42.67 5.322 56.398.423 3.92 5.725 3.754 5.447.77-1.047-14.284-3.42-40.08-5.308-59.238M241.797 127.32c-3.394-1.203-7.832-2.18-12.528-2.975.386-21.72 2.235-47.633 4.706-69.667 5.353 1.208 10.335 2.915 14.596 5.23-4.657 24.092-5.755 45.306-6.775 67.41m-50.493-6.08c-.81-23.383-2.01-40.036-6.194-66.755 4.823-.926 10.47-1.633 16.49-1.983 1.84 21.924 3.24 41.928 2.754 69.04-1.255-.092-2.233-.158-2.815-.202-2.377-.175-6.1-.41-10.236-.1m35.44-67.867c-2.47 23.167-3.13 47.902-3.178 70.11-4.698-.64-9.34-1.114-13.19-1.455.573-23.312.24-40.676-.87-69.767 5.728-.016 11.588.32 17.238 1.113M170.16 38.33c-4.36 2.167-2.45 12.533-.398 17.11.576 1.284 2.932 2.59 5.573 1.612.64-.237 1.344-.468 2.078-.695 5.046 26.608 6.168 40.51 6.773 66.02-2.345.607-4.663 1.474-6.804 2.71-8.273 4.778-16.205 8.184-29.785 18.824-1.54 1.207-3.96 2.94-3.96 6.23 0 .532-.006 1.115-.012 1.72l-.21-.338c-.81 27.968-.222 60.013 0 88.305 0 3.375 5.632 4.74 5.805 2.014 1.734-26.325 1.962-41.95 4.094-67.115 6.66 2.306 15.685 3.865 22.974 5.046.115 12.797.66 32.054.825 34.65.185 2.915 5.012 4.72 5.26 1.598.52-6.622 1.464-22.213 2.007-35.073 5.55.716 11.14 1.296 16.65 1.895 3.724.407 8.983.828 13.375.873 1.022 21.86 2.487 44.74 3.78 66.958 1.083 3.373 6.228 2.65 6.26.56.427-25.983.506-46.155.908-68.78 1.92-.536 3.707-1.26 5.274-2.242 3.19-2.003 7.053-7.064 10.432-12.763 1.076 16.936 2.203 32.326 2.86 47.982.16 5.984 6.274 5.516 6.27 2.29-.36-30.556-.508-37.01-.93-69.75l-.07-.035c.047-.414.076-.805.07-1.152-.036-2.254-.457-11.067-1.237-14.693l.243.085c0-25.368 1.763-43.2 6.515-68.014 2.464 1.914 6.164 3.717 7.278-.613 2.294-8.903 2.738-13.632.34-16.26C246.066 29.4 185.586 30.66 170.16 38.33M95.414 215.813c-26.848-3.76-52.644-6.55-79.712-11.095 2.235-9.8 4.6-20.28 7.008-30.987 4.963 1.47 10.117 2.617 15.374 3.554 2.6 12.303 4.6 21.91 4.784 22.78.475 2.226 6.192 3.738 5.6-.22-.39-2.616-1.968-10.868-4.066-21.533 7.797 1.16 15.73 1.982 23.518 2.835 9.826 1.078 23.56 2.002 32.17-2.882.64-.362 1.65-1.44 2.88-3-2.688 14.607-5.328 28.708-7.556 40.55m21.61-121.603c-1.42 9.616-3.602 22.65-6.13 37.096-13.2-4.22-37.973-5.768-42.422-6.1-5.418-.403-17.264-1.126-26.258 4.104-2.273 1.323-4.523 2.55-6.855 3.833-.572-2.82-1.123-5.55-1.65-8.142 3.134-13.743 6.115-26.598 8.744-37.48 21.66 1.147 50.21 2.067 74.57 6.69m2.98 49.92c.227-.947.352-1.78.34-2.46-.047-2.946-.687-4.766-1.88-6.29-.083-.11-.198-.213-.295-.32-.113-.546-.223-1.094-.33-1.63 2.51-13.482 4.926-26.316 7.073-37.553 2.383-10.27 3.35-18.21 4.01-25.398.48-5.21-.43-10.055-4.65-13.6-2.335-1.963-5.606-2.67-8.72-3.302-16.223-3.3-47.764-4.09-54.738-3.29-13.65 1.567-18.307 9.515-20.688 14.702-3.41 7.43-3.964 13.99-5.234 21.585-2.865 12.75-7.432 32.752-12.33 54.142-3.74 2.443-7.9 5.394-12.722 9.2-1.673 1.32-4.303 3.215-4.303 6.818 0 7.206-.906 9.937 6.614 13.206 1.118.486 2.252.942 3.397 1.382C7.6 205.967.49 236.97.044 239.37c-.65 3.51 6.055 6.068 6.845 2.875 2.218-8.973 4.89-20.4 7.813-33.158 12.408 2.404 64.384 9.895 79.705 12.065-2.832 15.025-4.81 25.402-5.03 26.732-.664 4.01 6.057 7.178 6.74 3.47 3.856-20.944 10.328-56.404 16.814-91.49.93-1.66 1.826-3.326 2.653-4.954 5.05 23.107 11.414 53.82 11.78 55.403.637 2.763 6.116 3.037 5.6-.218-.92-5.83-7.653-39.658-12.962-65.966M317.528 89.602h-11.054l5.492-25.732 5.562 25.732zm-3.858-34.225c-.21-.9-.8-1.377-1.707-1.377-.844 0-1.424.49-1.632 1.384l-11.255 52.356c-.28.873.252 1.822 1.21 2.166.155.062.317.094.482.094.787 0 1.394-.715 1.624-1.38l3.333-15.46h12.556l3.315 15.406c.205.887.785 1.376 1.63 1.376h.402l.09-.036c.836-.34 1.51-1.237 1.21-2.166L313.67 55.377zM350.566 68.87c0 8.138-2.48 11.308-8.85 11.308h-6.282V57.56h6.283c6.368 0 8.85 3.17 8.85 11.31M341.716 54h-8c-.947 0-1.717.78-1.717 1.74v52.438c0 1.175.61 1.822 1.716 1.822 1.108 0 1.718-.647 1.718-1.822V83.74h6.283c8.38 0 12.283-4.726 12.283-14.87C354 58.726 350.097 54 341.717 54M403.46 106.44c-5.494 0-8.055-3.672-8.055-11.554V69.034c0-10.283 4.598-11.473 8.056-11.473 5.573 0 8.058 3.54 8.058 11.474v25.852c0 7.882-2.56 11.553-8.057 11.553m0-52.44C395.964 54 392 59.2 392 69.034v25.852c0 5.61 1.223 9.597 3.743 12.185 1.892 1.945 4.49 2.93 7.718 2.93 3.328 0 5.878-.958 7.797-2.93 2.52-2.587 3.743-6.573 3.743-12.184V69.034C415 62.174 413 54 403.46 54M439.566 68.87c0 8.138-2.48 11.308-8.85 11.308h-6.282V57.56h6.283c6.368 0 8.85 3.17 8.85 11.31M430.716 54h-8c-.947 0-1.717.78-1.717 1.74v52.438c0 1.175.61 1.822 1.716 1.822 1.108 0 1.718-.647 1.718-1.822V83.74h6.283c8.38 0 12.283-4.726 12.283-14.87C443 58.726 439.097 54 430.717 54M467.31 57.56c1.09 0 1.69-.646 1.69-1.82 0-.96-.76-1.74-1.69-1.74h-15.62c-.93 0-1.69.78-1.69 1.74v52.438c0 1.175.6 1.822 1.69 1.822h15.62c1.09 0 1.69-.647 1.69-1.822 0-.96-.76-1.74-1.69-1.74h-14.002V83.74h14c.933 0 1.692-.78 1.692-1.74 0-1.174-.6-1.822-1.69-1.822h-14.002V57.56h14zM502.268 54h-24.61c-.9 0-1.658.797-1.658 1.74 0 1.004.744 1.82 1.657 1.82h10.61v50.618c0 1.175.616 1.822 1.733 1.822.94 0 1.734-.835 1.734-1.822V57.56h10.534c1.116 0 1.732-.646 1.732-1.82 0-.96-.777-1.74-1.732-1.74M365.433 80.176V57.56h6.283c6.367 0 8.85 3.17 8.85 11.308s-2.483 11.308-8.85 11.308h-6.283zm11.478 2.757c4.81-1.736 7.088-6.318 7.088-14.065 0-10.144-3.903-14.868-12.282-14.868h-8c-.946 0-1.716.78-1.716 1.74v52.432c0 1.175.61 1.822 1.716 1.822 1.108 0 1.717-.647 1.717-1.822V83.736h6.283c.663 0 1.296-.033 1.904-.092l7.088 25.122c.21.747.882 1.234 1.613 1.234.153 0 .31-.02.463-.067.89-.257 1.406-1.2 1.152-2.104l-7.024-24.897zM313.472 2.423c4.126 0 6.048 2.552 6.048 8.032 0 .81.428 1.24 1.24 1.24.81 0 1.24-.43 1.24-1.24 0-3.92-.936-6.778-2.78-8.49C317.814.662 315.88 0 313.47 0c-2.37 0-4.285.662-5.69 1.965-1.846 1.712-2.782 4.57-2.782 8.49V28.49c0 3.91.91 6.684 2.778 8.484 1.395 1.344 3.31 2.026 5.694 2.026 2.455 0 4.336-.662 5.752-2.026 1.87-1.8 2.776-4.575 2.776-8.485 0-.813-.43-1.242-1.24-1.242-.812 0-1.24.43-1.24 1.24 0 5.52-1.922 8.09-6.048 8.09-4.013 0-6.05-2.72-6.05-8.09V10.456c0-5.405 1.98-8.032 6.05-8.032M336.472 2.423c4.184 0 6.048 2.477 6.048 8.032V28.49c0 5.517-1.922 8.087-6.048 8.087s-6.05-2.57-6.05-8.088V10.454c0-5.48 1.924-8.032 6.05-8.032m0-2.423C330.93 0 328 3.616 328 10.455V28.49c0 3.91.91 6.684 2.778 8.484 1.395 1.344 3.31 2.026 5.694 2.026 2.455 0 4.336-.662 5.752-2.026 1.87-1.8 2.776-4.575 2.776-8.485V10.454C345 3.615 342.05 0 336.472 0M374.726 0c-.565 0-1.032.336-1.19.86l-9.563 32.464-9.51-32.467c-.156-.52-.624-.857-1.19-.857C352.65 0 352 .44 352 1.178V37.76c0 .813.438 1.24 1.27 1.24.828 0 1.266-.427 1.266-1.24V9.957l8.254 28.22c.233.53.652.824 1.18.824.575 0 1.004-.284 1.257-.864l8.238-28.18V37.76c0 .813.438 1.24 1.268 1.24.674 0 1.267-.578 1.267-1.24V1.18c0-.74-.647-1.178-1.274-1.178M398.442 10.342c0 5.7-1.946 7.92-6.94 7.92h-4.944V2.42h4.944c4.994 0 6.94 2.22 6.94 7.92M391.502 0h-6.222c-.707 0-1.28.53-1.28 1.182v36.58c0 .81.442 1.238 1.28 1.238.836 0 1.278-.43 1.278-1.24V20.683h4.944c6.478 0 9.498-3.286 9.498-10.34C401 3.286 397.98 0 391.502 0M413.618 24.834h-8.24l4.095-18.217 4.145 18.217zM410.672.93c-.15-.608-.566-.93-1.2-.93-.59 0-1 .33-1.147.936l-8.26 36.5c-.097.266-.085.543.038.802.147.32.45.578.815.7.107.04.217.062.327.062.55 0 .977-.485 1.156-.977l2.44-10.77h9.316l2.442 10.778c.147.6.555.93 1.146.93h.222l.113-.02c.604-.233 1.088-.86.865-1.464L410.672.93zM440.776.006c-.675 0-1.223.53-1.223 1.182v30.265L427.363.773C427.16.296 426.716 0 426.208 0 425.622 0 425 .416 425 1.188V37.76c0 .81.423 1.24 1.225 1.24.8 0 1.224-.43 1.224-1.24V7.547l12.226 30.646c.148.52.54.808 1.1.808h.204l.035-.008c.655-.148.985-.56.985-1.23V1.187c0-.65-.548-1.182-1.224-1.182M468.37.14c-.52-.303-1.303-.077-1.61.466l-8.77 16.322L449.25.574c-.37-.532-1.066-.73-1.628-.442-.277.14-.478.39-.57.694-.096.32-.057.67.1.953l9.626 18.022v18.015c0 .652.543 1.183 1.21 1.183.667 0 1.21-.53 1.21-1.183V19.802l9.607-17.99c.18-.258.24-.586.163-.9-.082-.34-.306-.623-.6-.773M477.5 0c-.828 0-1.5.53-1.5 1.182v36.58c0 .81.52 1.238 1.5 1.238s1.5-.43 1.5-1.24V1.183c0-.65-.672-1.182-1.5-1.182M497.62 24.834h-8.244l4.097-18.217 4.146 18.217zm5.325 12.642L494.672.93c-.15-.608-.566-.93-1.2-.93-.59 0-1 .33-1.147.936l-8.26 36.5c-.097.266-.085.543.037.802.15.32.45.578.816.7.107.04.217.062.327.062.55 0 .977-.485 1.156-.977l2.44-10.77h9.316l2.442 10.778c.147.6.555.93 1.146.93h.222l.113-.02c.604-.233 1.088-.86.865-1.464z"/>
  </g>
</svg>
