<svg width="390" height="220" viewBox="0 0 390 220" xmlns="http://www.w3.org/2000/svg">
  <g fill="none" fill-rule="evenodd">
    <path d="M195.6 94c.8 0 1.8-.2 2.8-.2-3.8 3-8.6 4.8-13.8 4.8C172 98.6 162 88.4 162 76c0-5.2 1.8-10 4.8-13.8-.2 1-.2 1.8-.2 2.8 0 16 13 29 29 29zm92.4 48v20H100s188 .2 188-20zm2-14V50h8v78h-8zm-200 0V50h6.2v78H90z" fill-opacity=".2" fill="#071D49"/>
    <path d="M292 46h18c2.2 0 4 1.8 4 4v74c0 2.2-1.8 4-4 4h-18v34c0 2.2-1.8 4-4 4h-24v50h6c1.2 0 2 .8 2 2s-.8 2-2 2h-16c-1.2 0-2-.8-2-2s.8-2 2-2h6v-50H128v50h6c1.2 0 2 .8 2 2s-.8 2-2 2h-16c-1.2 0-2-.8-2-2s.8-2 2-2h6v-50h-24c-2.2 0-4-1.8-4-4v-34H78c-2.2 0-4-1.8-4-4V50c0-2.2 1.8-4 4-4h18V8c0-2.2 1.8-4 4-4h122c0-2.2 1.8-4 4-4h16c2.2 0 4 1.8 4 4h4c0-2.2 1.8-4 4-4h16c2.2 0 4 1.8 4 4h14c2.2 0 4 1.8 4 4v38zM133 150c-1.656 0-3 1.344-3 3s1.344 3 3 3 3-1.344 3-3-1.344-3-3-3zm-12 0c-1.656 0-3 1.344-3 3s1.344 3 3 3 3-1.344 3-3-1.344-3-3-3zm-12 0c-1.656 0-3 1.344-3 3s1.344 3 3 3 3-1.344 3-3-1.344-3-3-3zm100-57c-.8-.8-2-.8-2.8 0l-1 1-2-2c3.6-4.2 6-9.8 6-16 0-13.6-11-24.6-24.6-24.6-13.6 0-24.6 11-24.6 24.6 0 13.6 11 24.6 24.6 24.6 6 0 11.6-2.2 15.8-5.8l2 2-1 1c-.4.4-.6.8-.6 1.4 0 .6.2 1 .6 1.4L220 119c.4.4 1 .6 1.4.6.4 0 1-.2 1.4-.6l4.8-4.6c.4-.4.6-.8.6-1.4 0-.6-.2-1-.6-1.4L209 93zm12.2 21.8l-15.6-15.6 1.8-1.8L223 113l-1.8 1.8zm-36.6-18.4c-11.4 0-20.6-9.2-20.6-20.4 0-11.4 9.2-20.6 20.6-20.6 11.4 0 20.6 9.2 20.6 20.6 0 11.2-9.4 20.4-20.6 20.4zm0-37.6c-1.2 0-2 .8-2 2s.8 2 2 2c7.2 0 13.2 6 13.2 13.2 0 1.2.8 2 2 2s2-.8 2-2c0-9.6-7.8-17.2-17.2-17.2zM24 96H14c-1.2 0-2 .8-2 2s.8 2 2 2h10c1.2 0 2-.8 2-2s-.8-2-2-2m10-12H14c-1.2 0-2 .8-2 2s.8 2 2 2h20c1.2 0 2-.8 2-2s-.8-2-2-2m8-12H14c-1.2 0-2 .8-2 2s.8 2 2 2h28c1.2 0 2-.8 2-2s-.8-2-2-2m250 52V50h18v74h-18zm-192 38V8h188v154H100zm-22-38V50h18v10h-8c-1.2 0-2 .8-2 2s.8 2 2 2h8v8h-8c-1.2 0-2 .8-2 2s.8 2 2 2h8v8h-8c-1.2 0-2 .8-2 2s.8 2 2 2h8v8h-8c-1.2 0-2 .8-2 2s.8 2 2 2h8v24H78zm308-78c2.2 0 4 1.8 4 4v74c0 2.2-1.8 4-4 4h-50c-2.2 0-4-1.8-4-4V50c0-2.2 1.8-4 4-4h50zm-50 78h50V50h-50v74zM54 46c2.2 0 4 1.8 4 4v74c0 2.2-1.8 4-4 4H4c-2.2 0-4-1.8-4-4V50c0-2.2 1.8-4 4-4h50zM4 124h50V50H4v74zm370.4-51.2c.6-.8 1.8-1 2.8-.6.8.6 1 2 .4 2.8l-20 28c-.2.4-.8.8-1.4.8h-.2c-.6 0-1-.2-1.4-.6l-10-10c-.8-.8-.8-2 0-2.8.8-.8 2-.8 2.8 0l8.4 8.4 18.6-26z" fill="#000"/>
  </g>
</svg>
