<svg width="68" height="54" viewBox="0 0 68 54" xmlns="http://www.w3.org/2000/svg">
  <path d="M7.125 28.5C3.19 28.5 0 25.31 0 21.375s3.19-7.125 7.125-7.125 7.125 3.19 7.125 7.125S11.06 28.5 7.125 28.5zm23.25-17.25c-3.107 0-5.625-2.518-5.625-5.625S27.268 0 30.375 0 36 2.518 36 5.625s-2.518 5.625-5.625 5.625zM16.875 54c-2.278 0-4.125-1.847-4.125-4.125s1.847-4.125 4.125-4.125S21 47.597 21 49.875 19.153 54 16.875 54zm46.5-14.25c-2.278 0-4.125-1.847-4.125-4.125s1.847-4.125 4.125-4.125 4.125 1.847 4.125 4.125-1.847 4.125-4.125 4.125zm-26.25 4.5c-6.835 0-12.375-5.54-12.375-12.375S30.29 19.5 37.125 19.5 49.5 25.04 49.5 31.875 43.96 44.25 37.125 44.25z" fill="#121E3F" fill-rule="evenodd"/>
</svg>
