<svg width="551" height="518" viewBox="0 0 551 518" xmlns="http://www.w3.org/2000/svg">
  <title>
    [interludio]barrachina_logo-grey
  </title>
  <g fill="none" fill-rule="evenodd">
    <path fill="#FAFAFB" d="M0 0h551v518H0z"/>
    <path d="M157.755 353.09v6.224h3c.562 0 1.093-.066 1.593-.198.5-.13.937-.324 1.312-.576.375-.254.667-.577.875-.972.208-.394.313-.854.313-1.38 0-.588-.125-1.08-.375-1.473-.25-.395-.584-.714-1-.957-.417-.242-.89-.414-1.42-.515-.533-.1-1.08-.152-1.642-.152h-2.655zm0-9.167v6.01h2.874c1.06 0 1.848-.303 2.36-.91.508-.607.764-1.336.764-2.186 0-.99-.312-1.724-.937-2.2-.625-.475-1.47-.714-2.53-.714h-2.532zm-3.812 18.76v-22.13h6.218c1.126 0 2.146.107 3.063.32.916.212 1.698.546 2.343 1 .646.457 1.14 1.054 1.484 1.792.344.74.516 1.625.516 2.656 0 .568-.058 1.12-.172 1.656-.115.536-.302 1.032-.562 1.488-.26.455-.6.855-1.016 1.2-.417.342-.937.606-1.562.788.52.1 1.047.273 1.577.516.533.243 1.007.57 1.424.986.416.415.755.93 1.015 1.548.26.618.39 1.34.39 2.17 0 1.073-.215 1.99-.64 2.748-.428.76-.99 1.38-1.69 1.867-.696.486-1.504.84-2.42 1.062-.917.223-1.864.333-2.843.333h-7.124zM182.674 353.093h5.05l-2.19-5.222c-.02-.02-.07-.153-.152-.404-.082-.25-.142-.475-.183-.675-.042.2-.102.426-.183.676-.082.25-.122.385-.122.405l-2.22 5.223zm8.792 8.852l-.32-.75c-.15-.36-.34-.8-.562-1.32-.223-.52-.466-1.096-.73-1.726-.263-.63-.538-1.286-.82-1.967h-7.638l-2.433 5.762h-3.682c.083-.18.275-.624.58-1.335.304-.71.684-1.59 1.14-2.64.456-1.05.964-2.22 1.52-3.512.56-1.29 1.132-2.605 1.72-3.946.588-1.34 1.162-2.655 1.72-3.946.557-1.29 1.064-2.46 1.52-3.51.457-1.052.837-1.932 1.14-2.642.305-.71.498-1.155.58-1.335l.593 1.334c.314.71.7 1.59 1.156 2.64l1.52 3.512c.557 1.29 1.13 2.606 1.72 3.946.587 1.34 1.16 2.656 1.718 3.946.557 1.29 1.064 2.46 1.52 3.51.457 1.052.838 1.932 1.14 2.642.306.71.498 1.156.58 1.335h-3.682zM207.615 351.573h2.92c.756 0 1.382-.132 1.88-.395.496-.263.893-.58 1.19-.956.3-.374.508-.78.627-1.214.12-.435.18-.835.18-1.2 0-.343-.056-.732-.164-1.167-.11-.434-.31-.844-.597-1.23-.287-.383-.68-.707-1.176-.97-.497-.263-1.133-.395-1.91-.395h-2.95v7.528zm-3.637 11.11v-22.13h6.14c1.193 0 2.28.163 3.265.487.984.324 1.818.79 2.504 1.396.686.607 1.217 1.356 1.595 2.246.377.89.566 1.893.566 3.005 0 .608-.06 1.215-.178 1.822-.12.606-.31 1.193-.567 1.76-.258.566-.596 1.087-1.014 1.563-.418.476-.915.885-1.49 1.23.436.707.864 1.4 1.28 2.078.418.68.84 1.362 1.268 2.05.427.688.87 1.396 1.327 2.125.456.73.953 1.518 1.49 2.368h-4.383c-.894-1.416-1.74-2.757-2.533-4.022-.796-1.264-1.562-2.463-2.297-3.597h-3.337v7.62h-3.638zM233.367 351.573h2.922c.754 0 1.38-.132 1.877-.395.496-.263.894-.58 1.193-.956.297-.374.506-.78.625-1.214.12-.435.18-.835.18-1.2 0-.343-.055-.732-.164-1.167-.11-.434-.308-.844-.596-1.23-.288-.383-.68-.707-1.177-.97s-1.133-.395-1.908-.395h-2.953v7.528zm-3.636 11.11v-22.13h6.142c1.192 0 2.28.163 3.264.487.984.324 1.818.79 2.504 1.396.685.607 1.217 1.356 1.595 2.246.378.89.566 1.893.566 3.005 0 .608-.058 1.215-.177 1.822-.12.606-.31 1.193-.567 1.76-.258.566-.596 1.087-1.013 1.563-.418.476-.915.885-1.492 1.23.44.707.867 1.4 1.284 2.078.418.68.84 1.362 1.267 2.05.43.688.87 1.396 1.328 2.125.456.73.953 1.518 1.49 2.368h-4.382c-.894-1.416-1.74-2.757-2.534-4.022-.795-1.264-1.56-2.463-2.295-3.597h-3.34v7.62h-3.636zM259.933 353.093h5.05l-2.19-5.222c-.02-.02-.07-.153-.152-.404-.08-.25-.14-.475-.182-.675-.04.2-.1.426-.182.676-.082.25-.122.385-.122.405l-2.22 5.223zm8.792 8.852l-.32-.75c-.15-.36-.34-.8-.562-1.32-.223-.52-.466-1.096-.73-1.726-.263-.63-.538-1.286-.82-1.967h-7.638l-2.433 5.762h-3.682c.082-.18.274-.624.578-1.335.305-.71.685-1.59 1.14-2.64.457-1.05.965-2.22 1.522-3.512.558-1.29 1.13-2.605 1.72-3.946.587-1.34 1.16-2.655 1.718-3.946.558-1.29 1.065-2.46 1.522-3.51.456-1.052.836-1.932 1.14-2.642.304-.71.497-1.155.578-1.335.08.18.28.624.594 1.334.314.71.7 1.59 1.156 2.64.456 1.05.963 2.222 1.52 3.512.558 1.29 1.13 2.606 1.72 3.946.588 1.34 1.16 2.656 1.72 3.946.556 1.29 1.063 2.46 1.52 3.51.456 1.052.837 1.932 1.14 2.642.305.71.497 1.156.58 1.335h-3.683zM298.16 361.518c-.246.163-.592.358-1.034.583-.443.226-.967.436-1.574.63-.607.195-1.292.358-2.052.49-.762.134-1.575.2-2.438.2-1.77 0-3.354-.3-4.753-.905-1.4-.603-2.584-1.417-3.55-2.44-.968-1.023-1.71-2.22-2.223-3.59-.515-1.372-.772-2.814-.772-4.33 0-1.676.31-3.226.926-4.65.618-1.42 1.457-2.648 2.516-3.682 1.06-1.033 2.295-1.836 3.704-2.41 1.41-.572 2.917-.86 4.522-.86.617 0 1.24.047 1.867.14.626.09 1.22.21 1.774.352.556.143 1.044.308 1.466.49.422.185.726.38.91.584-.184.286-.33.522-.43.705l-.325.568c-.115.195-.238.415-.37.66-.136.246-.326.583-.573 1.013-.246-.163-.545-.307-.894-.43-.35-.122-.715-.22-1.096-.29-.38-.073-.766-.13-1.157-.17-.39-.04-.74-.062-1.05-.062-1.152 0-2.217.215-3.194.645-.976.428-1.82.997-2.53 1.703-.71.706-1.266 1.53-1.667 2.47-.4.942-.6 1.914-.6 2.917 0 .98.19 1.938.57 2.87.38.93.915 1.754 1.604 2.47.69.716 1.507 1.294 2.454 1.734.947.44 1.996.66 3.15.66.658 0 1.295-.066 1.913-.2.617-.133 1.162-.28 1.636-.445.47-.164.857-.328 1.156-.49.298-.165.458-.278.48-.34l1.634 3.408zM306.254 362.683v-22.13h3.803v9.23h10.758v-9.23h3.834v6.057c0 1.57-.007 3.238-.017 5.01-.01 1.77-.015 3.44-.015 5.007v6.055h-3.803v-9.35h-10.758v9.35h-3.803zM336.422 362.683h3.68v-22.13h-3.68M371.004 340.118v24.04c-.144-.19-.462-.535-.956-1.04-.494-.503-1.1-1.107-1.82-1.81-.72-.704-1.517-1.482-2.39-2.332-.875-.852-1.765-1.712-2.67-2.584-.905-.872-1.79-1.728-2.653-2.57-.862-.838-1.65-1.61-2.36-2.314-.708-.704-1.305-1.302-1.788-1.796-.484-.493-.798-.835-.94-1.024-.022-.042-.104-.152-.248-.33-.145-.18-.268-.342-.37-.49l.092 1.01v14.21h-3.764v-24.01c.144.19.463.53.956 1.024.494.494 1.1 1.087 1.82 1.78.72.694 1.517 1.45 2.39 2.27.875.818 1.764 1.653 2.67 2.504.904.85 1.788 1.69 2.652 2.52.864.83 1.656 1.586 2.376 2.27.72.682 1.32 1.265 1.804 1.748.484.483.797.82.94 1.008l.588.882-.093-1.07v-13.896h3.764zM387.963 353.093h5.05l-2.19-5.222c-.022-.02-.07-.153-.153-.404-.08-.25-.142-.475-.183-.675-.04.2-.1.426-.182.676-.08.25-.12.385-.12.405l-2.222 5.223zm8.792 8.852l-.32-.75c-.152-.36-.34-.8-.562-1.32-.224-.52-.467-1.096-.73-1.726l-.822-1.967h-7.635l-2.434 5.762h-3.68c.08-.18.274-.624.578-1.335.304-.71.684-1.59 1.14-2.64.457-1.05.964-2.22 1.522-3.512.558-1.29 1.13-2.605 1.72-3.946.587-1.34 1.16-2.655 1.718-3.946l1.52-3.51c.457-1.052.838-1.932 1.14-2.642.306-.71.5-1.155.58-1.335l.593 1.334c.315.71.7 1.59 1.157 2.64.456 1.05.963 2.222 1.52 3.512.56 1.29 1.132 2.606 1.72 3.946.588 1.34 1.16 2.656 1.72 3.946.557 1.29 1.064 2.46 1.52 3.51.457 1.052.837 1.932 1.14 2.642.306.71.498 1.156.58 1.335h-3.682zM170.13 385.503v9.515c-.86.512-1.902.906-3.12 1.182-1.222.276-2.468.414-3.74.414-1.763 0-3.357-.276-4.782-.828-1.426-.552-2.64-1.31-3.645-2.272-1.005-.96-1.774-2.107-2.307-3.437-.534-1.33-.8-2.783-.8-4.36 0-1.78.317-3.4.953-4.863.635-1.463 1.492-2.722 2.568-3.776 1.077-1.054 2.328-1.872 3.753-2.455 1.426-.584 2.928-.875 4.507-.875.533 0 1.092.036 1.677.107.584.072 1.164.18 1.737.323.576.143 1.13.312 1.663.506.533.195 1.014.425 1.445.69l-1.845 3.07c-.288-.184-.63-.343-1.03-.476-.4-.133-.816-.25-1.246-.352-.432-.103-.857-.18-1.277-.23-.42-.052-.816-.078-1.185-.078-1.045 0-2.045.21-3 .63-.952.42-1.798.987-2.536 1.703-.74.718-1.33 1.572-1.77 2.564-.44.993-.66 2.05-.66 3.177 0 1.024.194 1.995.583 2.917.39.92.933 1.734 1.63 2.44.697.705 1.528 1.268 2.492 1.688.963.42 2.02.63 3.168.63.41 0 .923-.036 1.538-.108.617-.072 1.2-.2 1.755-.384v-3.806h-4.183v-3.254h7.66zM180.432 395.877v-22.13h15.017v3.37h-11.233v5.95h9.99v3.46h-9.99v5.89h11.667v3.46M219.414 375.136l-1.378 3.086c-.876-.308-1.743-.555-2.6-.74-.855-.185-1.648-.278-2.378-.278-1.274 0-2.28.247-3.022.74-.74.494-1.112 1.122-1.112 1.883 0 .66.277 1.193.83 1.604.553.413 1.247.783 2.082 1.113.835.33 1.738.663 2.71 1.003.97.34 1.872.776 2.707 1.31.835.536 1.53 1.215 2.082 2.038.553.823.83 1.872.83 3.148 0 .986-.183 1.882-.547 2.684-.366.803-.914 1.492-1.645 2.068-.73.576-1.654 1.024-2.77 1.342-1.118.32-2.427.478-3.93.478-.92 0-1.754-.06-2.505-.185-.752-.124-1.424-.278-2.02-.464-.595-.185-1.12-.385-1.58-.602-.46-.216-.856-.426-1.19-.632l1.66-3.302c.876.474 1.815.84 2.817 1.095 1.002.258 1.89.386 2.66.386.377 0 .862-.04 1.457-.122.595-.082 1.175-.237 1.738-.463.564-.226 1.05-.535 1.456-.926.407-.392.61-.895.61-1.513 0-.72-.276-1.312-.83-1.774-.553-.463-1.246-.875-2.082-1.235-.834-.36-1.737-.715-2.708-1.064-.97-.35-1.873-.767-2.71-1.25-.833-.483-1.528-1.08-2.08-1.79-.554-.71-.83-1.61-.83-2.7 0-.782.156-1.548.47-2.3.313-.75.787-1.424 1.424-2.02.637-.597 1.43-1.08 2.38-1.45.95-.37 2.07-.556 3.366-.556.814 0 1.602.067 2.364.2.76.134 1.445.283 2.05.448.606.165 1.107.323 1.503.478.397.154.637.242.72.262M243.71 373.748v3.55h-5.53v18.58h-3.778v-18.58h-5.407v-3.55M254.012 395.877h3.68v-22.13h-3.68M276.87 373.467c.47-.676.934-1.36 1.393-2.058.46-.696.924-1.392 1.393-2.088h3.154c-.613.696-1.236 1.392-1.868 2.087-.632.696-1.265 1.38-1.898 2.057h-2.174zm-5.848 12.495c0 1.085.2 2.103.597 3.055.397.952.948 1.78 1.652 2.487.704.706 1.52 1.264 2.45 1.673.928.41 1.934.614 3.015.614 1.04 0 2.027-.203 2.955-.613.928-.41 1.735-.967 2.42-1.673.683-.707 1.224-1.535 1.622-2.487.398-.952.597-1.97.597-3.055 0-1.084-.203-2.103-.61-3.055-.41-.95-.96-1.785-1.655-2.502-.694-.716-1.505-1.28-2.434-1.688-.928-.41-1.923-.614-2.984-.614-1.06 0-2.057.204-2.985.614-.93.41-1.735.972-2.42 1.688-.683.717-1.223 1.55-1.62 2.502-.4.952-.598 1.97-.598 3.055zm-3.766 0c0-1.555.3-3.03.903-4.42.6-1.393 1.418-2.61 2.45-3.654 1.03-1.045 2.234-1.874 3.61-2.487 1.38-.613 2.854-.92 4.426-.92 1.55 0 3.02.307 4.41.92 1.386.614 2.602 1.443 3.642 2.488 1.042 1.043 1.863 2.26 2.465 3.653.602 1.393.903 2.867.903 4.422 0 1.577-.3 3.055-.903 4.436-.602 1.382-1.423 2.59-2.465 3.623-1.04 1.034-2.256 1.85-3.643 2.442-1.388.593-2.86.89-4.41.89-1.57 0-3.046-.297-4.424-.89-1.376-.593-2.58-1.408-3.61-2.44-1.032-1.034-1.85-2.242-2.45-3.624-.603-1.38-.904-2.86-.904-4.436z" fill="#4C4C4C"/>
    <path d="M191.47 275.143v-61.536c-5.947-1.418-12.142-2.14-18.42-2.14h-16.9v87.78h1.55l31.963-20.762c1.126-.73 1.806-1.99 1.806-3.342" fill="#F9CC39"/>
    <path d="M220.16 273.97c-2.314 5.48-5.576 10.02-9.7 13.5-4.18 3.534-9.146 6.262-14.757 8.107-5.646 1.864-11.754 2.81-18.154 2.81h-21.23V210.85h17.132c6.364 0 12.644.72 18.672 2.134l.258.057c5.96 1.426 11.342 3.868 15.993 7.258 4.602 3.36 8.342 7.84 11.116 13.32 2.778 5.488 4.186 12.476 4.186 20.773 0 7.45-1.183 14.038-3.517 19.578m4.082-42.725c-3.155-6.233-7.434-11.348-12.72-15.205-5.224-3.808-11.245-6.545-17.9-8.137-.496-.118-.998-.224-1.498-.333-6.054-1.324-12.326-2.004-18.672-2.004H151v98.106h26.55c6.97 0 13.642-1.036 19.827-3.078 6.26-2.06 11.823-5.12 16.528-9.096 4.765-4.022 8.52-9.23 11.16-15.483 2.607-6.192 3.93-13.467 3.93-21.622 0-9.13-1.6-16.918-4.753-23.148" fill="#4C4C4C"/>
    <path d="M189.663 146.348l-31.29-20.447h-2.222v68.6h13.622c9.22 0 16.37-2.062 21.697-6.26v-38.53c0-1.36-.68-2.626-1.807-3.362" fill="#F9CC39"/>
    <path d="M196.06 183.44c-1.21 1.48-2.565 2.787-4.05 3.94-5.386 4.183-12.615 6.237-21.936 6.237h-13.77V125.31h9.684c11.957 0 21.528 2.75 28.447 8.172 6.813 5.345 10.125 13.48 10.125 24.867 0 9.73-2.86 18.172-8.5 25.09m1.645-54.138C189.83 123.13 179.158 120 165.988 120H151v78.927h19.074c8.73 0 16.062-1.744 21.935-5.18 3.138-1.835 5.868-4.145 8.157-6.95 6.435-7.89 9.697-17.46 9.697-28.448 0-12.946-4.09-22.72-12.16-29.048" fill="#4C4C4C"/>
  </g>
</svg>
