<svg width="55" height="55" viewBox="0 0 55 55" xmlns="http://www.w3.org/2000/svg">
  <path d="M27.668 38.94c-6.226 0-11.274-5.046-11.274-11.272s5.048-11.274 11.274-11.274c6.226 0 11.273 5.048 11.273 11.274 0 6.226-5.046 11.273-11.272 11.273zM54.25 27.25c0 2.46-1.994 4.454-4.454 4.454s-4.453-1.994-4.453-4.454c0-9.992-8.1-18.093-18.093-18.093-9.992 0-18.093 8.1-18.093 18.093 0 9.992 8.1 18.093 18.093 18.093 2.46 0 4.454 1.994 4.454 4.453 0 2.46-1.994 4.454-4.454 4.454-14.912 0-27-12.088-27-27s12.088-27 27-27 27 12.088 27 27z" fill="#121E3F" fill-rule="evenodd"/>
</svg>
