<?xml version="1.0" encoding="utf-8"?>
<!-- Generator: Adobe Illustrator 18.0.0, SVG Export Plug-In . SVG Version: 6.00 Build 0)  -->
<!DOCTYPE svg PUBLIC "-//W3C//DTD SVG 1.1//EN" "http://www.w3.org/Graphics/SVG/1.1/DTD/svg11.dtd">
<svg version="1.1" id="Capa_1" xmlns="http://www.w3.org/2000/svg" xmlns:xlink="http://www.w3.org/1999/xlink" x="0px" y="0px"
	 width="1140px" height="971px" viewBox="0 0 1140 971" enable-background="new 0 0 1140 971" xml:space="preserve">
<g>
	<rect x="1138" y="123" fill="#E4E7EF" width="2" height="2"/>
	<path fill="#E4E7EF" d="M1134.1,125h-1.9v-2h1.9V125z M1128.3,125h-1.9v-2h1.9V125z M1122.4,125h-1.9v-2h1.9V125z M1116.6,125h-1.9
		v-2h1.9V125z M1110.7,125h-1.9v-2h1.9V125z M1104.9,125h-1.9v-2h1.9V125z M1099,125h-1.9v-2h1.9V125z M1093.2,125h-1.9v-2h1.9V125z
		 M1087.4,125h-1.9v-2h1.9V125z M1081.5,125h-1.9v-2h1.9V125z M1075.7,125h-1.9v-2h1.9V125z"/>
	<rect x="1067.8" y="123" fill="#E4E7EF" width="2" height="2"/>
	<path fill="#E4E7EF" d="M1069.8,118.9h-2v-2.1h2V118.9z M1069.8,112.7h-2v-2.1h2V112.7z M1069.8,106.6h-2v-2.1h2V106.6z
		 M1069.8,100.4h-2v-2.1h2V100.4z M1069.8,94.3h-2v-2.1h2V94.3z M1069.8,88.1h-2v-2.1h2V88.1z M1069.8,82h-2v-2.1h2V82z
		 M1069.8,75.8h-2v-2.1h2V75.8z M1069.8,69.7h-2v-2.1h2V69.7z M1069.8,63.5h-2v-2.1h2V63.5z M1069.8,57.3h-2v-2.1h2V57.3z"/>
	<rect x="1067.8" y="49.2" fill="#E4E7EF" width="2" height="2"/>
	<path fill="#E4E7EF" d="M1134.1,51.2h-1.9v-2h1.9V51.2z M1128.3,51.2h-1.9v-2h1.9V51.2z M1122.4,51.2h-1.9v-2h1.9V51.2z
		 M1116.6,51.2h-1.9v-2h1.9V51.2z M1110.7,51.2h-1.9v-2h1.9V51.2z M1104.9,51.2h-1.9v-2h1.9V51.2z M1099,51.2h-1.9v-2h1.9V51.2z
		 M1093.2,51.2h-1.9v-2h1.9V51.2z M1087.4,51.2h-1.9v-2h1.9V51.2z M1081.5,51.2h-1.9v-2h1.9V51.2z M1075.7,51.2h-1.9v-2h1.9V51.2z"
		/>
	<rect x="1138" y="49.2" fill="#E4E7EF" width="2" height="2"/>
	<path fill="#E4E7EF" d="M1140,118.9h-2v-2.1h2V118.9z M1140,112.7h-2v-2.1h2V112.7z M1140,106.6h-2v-2.1h2V106.6z M1140,100.4h-2
		v-2.1h2V100.4z M1140,94.3h-2v-2.1h2V94.3z M1140,88.1h-2v-2.1h2V88.1z M1140,82h-2v-2.1h2V82z M1140,75.8h-2v-2.1h2V75.8z
		 M1140,69.7h-2v-2.1h2V69.7z M1140,63.5h-2v-2.1h2V63.5z M1140,57.3h-2v-2.1h2V57.3z"/>
</g>
<polygon id="Path-4_2_" fill="#E4E7EF" points="32.5,127 30.5,127 30.5,252 123.5,252 123.5,250 32.5,250 "/>
<polygon id="Path-4_6_" fill="#E4E7EF" points="147.6,587 145.6,587 145.6,644 180.5,644 180.5,642 147.6,642 "/>
<polygon id="Path-4_5_" fill="#E4E7EF" points="271,370.2 271,368.2 372,368.2 372,504.5 370,504.5 370,370.2 "/>
<polygon id="Line_4_" fill="#E4E7EF" points="979,236 979,297 981,297 981,236 "/>
<title>[interludio]autoentry-flow</title>
<desc>Created with Sketch.</desc>
<polygon id="arrow" fill="#B8BECC" points="1110.1,68.5 1110.1,74.5 1104.1,68.5 "/>
<polygon id="Line-2" fill="#B8BECC" points="1108.9,68.3 1100.9,76.3 1102.3,77.7 1110.3,69.7 "/>
<path id="External-link" fill="#575B66" d="M1086.3,97.6h-2.2l-0.4,1.6h-1.7l2.4-7.8h1.4l2.5,7.8h-1.7L1086.3,97.6z M1084.5,96.3
	h1.5l-0.7-2.8L1084.5,96.3z M1092,98.7c-0.3,0.4-0.7,0.6-1.3,0.6c-0.5,0-0.9-0.2-1.2-0.6c-0.3-0.4-0.4-0.9-0.4-1.6v-3.8h1.5v3.8
	c0,0.6,0.2,0.8,0.6,0.8c0.3,0,0.6-0.2,0.8-0.5v-4.2h1.5v5.8h-1.4L1092,98.7z M1096.5,92v1.4h0.8v1.1h-0.8v2.9c0,0.2,0,0.4,0.1,0.5
	c0.1,0.1,0.2,0.1,0.4,0.1c0.1,0,0.3,0,0.4,0l0,1.2c-0.3,0.1-0.5,0.1-0.8,0.1c-1,0-1.5-0.6-1.5-1.7v-3.1h-0.7v-1.1h0.7V92H1096.5z
	 M1098,96.1c0-0.9,0.2-1.6,0.6-2.1c0.4-0.5,1-0.8,1.7-0.8c0.7,0,1.3,0.3,1.7,0.8c0.4,0.5,0.6,1.2,0.6,2.1v0.4c0,0.9-0.2,1.6-0.6,2.1
	c-0.4,0.5-1,0.7-1.7,0.7c-0.7,0-1.3-0.2-1.7-0.7c-0.4-0.5-0.6-1.2-0.6-2.1V96.1z M1099.5,96.5c0,1,0.3,1.6,0.8,1.6
	c0.5,0,0.8-0.4,0.8-1.3l0-0.6c0-0.5-0.1-0.9-0.2-1.2c-0.1-0.3-0.4-0.4-0.6-0.4c-0.3,0-0.5,0.1-0.6,0.4c-0.1,0.3-0.2,0.6-0.2,1.2
	V96.5z M1106.2,99.3c-0.8,0-1.4-0.2-1.8-0.7c-0.4-0.5-0.7-1.1-0.7-2v-0.5c0-0.9,0.2-1.6,0.6-2.1c0.4-0.5,1-0.7,1.7-0.7
	c0.7,0,1.3,0.2,1.6,0.7c0.4,0.5,0.6,1.2,0.6,2.1v0.7h-3c0,0.4,0.1,0.7,0.3,0.9c0.2,0.2,0.4,0.3,0.8,0.3c0.5,0,0.9-0.2,1.3-0.5
	l0.6,0.9c-0.2,0.3-0.5,0.5-0.8,0.6C1107,99.2,1106.6,99.3,1106.2,99.3z M1105.2,95.7h1.5v-0.1c0-0.3-0.1-0.6-0.2-0.8
	c-0.1-0.2-0.3-0.3-0.6-0.3c-0.3,0-0.5,0.1-0.6,0.3C1105.3,95,1105.2,95.3,1105.2,95.7z M1110.7,93.4l0,0.6c0.3-0.5,0.8-0.7,1.3-0.7
	c1,0,1.5,0.7,1.5,2.1v3.8h-1.5v-3.7c0-0.3,0-0.6-0.1-0.7c-0.1-0.1-0.3-0.2-0.5-0.2c-0.3,0-0.5,0.1-0.6,0.4v4.2h-1.5v-5.8H1110.7z
	 M1116.6,92v1.4h0.8v1.1h-0.8v2.9c0,0.2,0,0.4,0.1,0.5s0.2,0.1,0.4,0.1c0.1,0,0.3,0,0.4,0l0,1.2c-0.3,0.1-0.5,0.1-0.8,0.1
	c-1,0-1.5-0.6-1.5-1.7v-3.1h-0.7v-1.1h0.7V92H1116.6z M1121.3,94.9l-0.5,0c-0.4,0-0.7,0.2-0.8,0.5v3.8h-1.5v-5.8h1.4l0,0.6
	c0.2-0.5,0.6-0.7,1-0.7c0.2,0,0.3,0,0.4,0.1L1121.3,94.9z M1124.2,96.7l0.8-3.3h1.6l-1.9,6.7c-0.3,1-0.8,1.5-1.6,1.5
	c-0.2,0-0.4,0-0.6-0.1v-1.2l0.2,0c0.2,0,0.4,0,0.5-0.1c0.1-0.1,0.2-0.2,0.3-0.5l0.1-0.4l-1.7-5.9h1.6L1124.2,96.7z M1100.5,104.7
	h-1.9v6.5h-1.6v-6.5h-1.9v-1.3h5.4V104.7z M1100.2,108.1c0-0.9,0.2-1.6,0.6-2.1c0.4-0.5,1-0.8,1.7-0.8c0.7,0,1.3,0.3,1.7,0.8
	c0.4,0.5,0.6,1.2,0.6,2.1v0.4c0,0.9-0.2,1.6-0.6,2.1c-0.4,0.5-1,0.7-1.7,0.7c-0.7,0-1.3-0.2-1.7-0.7c-0.4-0.5-0.6-1.2-0.6-2.1V108.1
	z M1101.7,108.5c0,1,0.3,1.6,0.8,1.6c0.5,0,0.8-0.4,0.8-1.3l0-0.6c0-0.5-0.1-0.9-0.2-1.2c-0.1-0.3-0.4-0.4-0.6-0.4
	c-0.3,0-0.5,0.1-0.6,0.4c-0.1,0.3-0.2,0.6-0.2,1.2V108.5z M1105.8,108.1c0-0.9,0.2-1.6,0.6-2.1c0.4-0.5,1-0.8,1.7-0.8
	c0.7,0,1.3,0.3,1.7,0.8s0.6,1.2,0.6,2.1v0.4c0,0.9-0.2,1.6-0.6,2.1c-0.4,0.5-1,0.7-1.7,0.7c-0.7,0-1.3-0.2-1.7-0.7
	c-0.4-0.5-0.6-1.2-0.6-2.1V108.1z M1107.4,108.5c0,1,0.3,1.6,0.8,1.6c0.5,0,0.8-0.4,0.8-1.3l0-0.6c0-0.5-0.1-0.9-0.2-1.2
	c-0.1-0.3-0.4-0.4-0.6-0.4c-0.3,0-0.5,0.1-0.6,0.4c-0.1,0.3-0.2,0.6-0.2,1.2V108.5z M1113.3,111.2h-1.5v-8.2h1.5V111.2z"/>
<polygon id="Path-4" fill="#E4E7EF" points="1105.8,435.1 786,435.1 786,437.1 1107.8,437.1 1107.8,126.5 1105.8,126.5 "/>
<circle id="Oval--Copy-3" fill="#575B66" cx="1106.8" cy="124" r="3"/>
<path id="Rectangle-7" fill="#B8BECC" d="M314,316h116v-78H314V316z M312,236h120v82H312V236z"/>
<circle id="Oval-4" fill="#B8BECC" cx="317.5" cy="241.5" r="1.5"/>
<circle id="Oval-4_1_" fill="#B8BECC" cx="322.5" cy="241.5" r="1.5"/>
<circle id="Oval-4_2_" fill="#B8BECC" cx="327.5" cy="241.5" r="1.5"/>
<polygon id="Line" fill="#B8BECC" points="314.2,247.2 429.8,247.2 429.8,245.2 314.2,245.2 "/>
<path id="Page-Title" fill="#575B66" d="M323.4,268.1h-0.8v2.9H321v-7.8h2.5c0.8,0,1.4,0.2,1.8,0.6s0.6,1,0.6,1.7
	c0,1-0.4,1.8-1.1,2.2l1.4,3.2v0.1h-1.7L323.4,268.1z M322.6,266.8h0.9c0.3,0,0.6-0.1,0.7-0.3c0.2-0.2,0.2-0.5,0.2-0.8
	c0-0.8-0.3-1.2-0.9-1.2h-0.9V266.8z M331.6,267.6h-2.5v2.1h2.9v1.3h-4.5v-7.8h4.5v1.3h-2.9v1.8h2.5V267.6z M338.7,270.1
	c-0.3,0.3-0.7,0.6-1.1,0.7s-0.9,0.2-1.5,0.2c-0.9,0-1.6-0.3-2.1-0.8s-0.8-1.4-0.8-2.4v-1.4c0-1.1,0.2-1.9,0.7-2.5s1.2-0.9,2.1-0.9
	c0.8,0,1.5,0.2,1.9,0.6s0.7,1.1,0.7,2h-1.5c0-0.5-0.1-0.8-0.3-1s-0.4-0.3-0.8-0.3c-0.4,0-0.7,0.2-0.9,0.5s-0.3,0.8-0.3,1.5v1.4
	c0,0.7,0.1,1.2,0.3,1.6s0.6,0.5,1.1,0.5c0.3,0,0.6-0.1,0.8-0.2l0.1-0.1v-1.4H336v-1.2h2.7V270.1z M341.9,271h-1.6v-7.8h1.6V271z
	 M346.9,268.9c0-0.3-0.1-0.6-0.2-0.7c-0.2-0.2-0.5-0.3-0.9-0.5c-0.8-0.3-1.3-0.6-1.7-1s-0.5-0.9-0.5-1.4c0-0.7,0.2-1.2,0.7-1.6
	s1.1-0.6,1.8-0.6c0.5,0,0.9,0.1,1.3,0.3s0.7,0.5,0.9,0.9c0.2,0.4,0.3,0.8,0.3,1.3H347c0-0.4-0.1-0.6-0.2-0.8s-0.4-0.3-0.7-0.3
	c-0.3,0-0.5,0.1-0.6,0.2c-0.2,0.2-0.2,0.4-0.2,0.7c0,0.2,0.1,0.4,0.3,0.6s0.5,0.4,0.9,0.5c0.8,0.3,1.3,0.6,1.7,1
	c0.3,0.4,0.5,0.9,0.5,1.5c0,0.7-0.2,1.2-0.6,1.6c-0.4,0.4-1,0.6-1.8,0.6c-0.5,0-1-0.1-1.4-0.3c-0.4-0.2-0.7-0.5-1-0.9
	c-0.2-0.4-0.4-0.8-0.4-1.4h1.6c0,0.5,0.1,0.8,0.3,1c0.2,0.2,0.5,0.3,0.9,0.3C346.7,269.8,346.9,269.5,346.9,268.9z M355.1,264.5
	h-1.9v6.5h-1.6v-6.5h-1.9v-1.3h5.4V264.5z M358.8,268.1H358v2.9h-1.6v-7.8h2.5c0.8,0,1.4,0.2,1.8,0.6c0.4,0.4,0.6,1,0.6,1.7
	c0,1-0.4,1.8-1.1,2.2l1.4,3.2v0.1h-1.7L358.8,268.1z M358,266.8h0.9c0.3,0,0.6-0.1,0.7-0.3c0.2-0.2,0.2-0.5,0.2-0.8
	c0-0.8-0.3-1.2-0.9-1.2H358V266.8z M366.6,269.4h-2.2l-0.4,1.6h-1.7l2.4-7.8h1.4l2.5,7.8h-1.7L366.6,269.4z M364.8,268.1h1.5
	l-0.7-2.8L364.8,268.1z M374.3,264.5h-1.9v6.5h-1.6v-6.5h-1.9v-1.3h5.4V264.5z M377.3,271h-1.6v-7.8h1.6V271z M384.6,267.8
	c0,1-0.2,1.9-0.7,2.4s-1.2,0.9-2.1,0.9c-0.9,0-1.6-0.3-2.1-0.9s-0.8-1.4-0.8-2.4v-1.3c0-1.1,0.2-1.9,0.7-2.5s1.2-0.9,2.1-0.9
	c0.9,0,1.6,0.3,2.1,0.9s0.8,1.4,0.8,2.5V267.8z M383,266.5c0-0.7-0.1-1.2-0.3-1.6s-0.5-0.5-0.9-0.5c-0.4,0-0.7,0.2-0.9,0.5
	s-0.3,0.8-0.3,1.5v1.4c0,0.7,0.1,1.2,0.3,1.5s0.5,0.5,0.9,0.5c0.4,0,0.7-0.2,0.9-0.5s0.3-0.8,0.3-1.5V266.5z M391.6,271H390
	l-2.3-5.1v5.1h-1.6v-7.8h1.6l2.3,5.1v-5.1h1.6V271z M400.3,267.8h-2.5v3.2h-1.6v-7.8h4.3v1.3h-2.8v2h2.5V267.8z M407.4,267.8
	c0,1-0.2,1.9-0.7,2.4c-0.5,0.6-1.2,0.9-2.1,0.9c-0.9,0-1.6-0.3-2.1-0.9c-0.5-0.6-0.8-1.4-0.8-2.4v-1.3c0-1.1,0.2-1.9,0.7-2.5
	c0.5-0.6,1.2-0.9,2.1-0.9c0.9,0,1.6,0.3,2.1,0.9c0.5,0.6,0.8,1.4,0.8,2.5V267.8z M405.8,266.5c0-0.7-0.1-1.2-0.3-1.6
	c-0.2-0.3-0.5-0.5-0.9-0.5c-0.4,0-0.7,0.2-0.9,0.5c-0.2,0.3-0.3,0.8-0.3,1.5v1.4c0,0.7,0.1,1.2,0.3,1.5s0.5,0.5,0.9,0.5
	c0.4,0,0.7-0.2,0.9-0.5c0.2-0.3,0.3-0.8,0.3-1.5V266.5z M411.3,268.1h-0.8v2.9h-1.6v-7.8h2.5c0.8,0,1.4,0.2,1.8,0.6s0.6,1,0.6,1.7
	c0,1-0.4,1.8-1.1,2.2l1.4,3.2v0.1h-1.7L411.3,268.1z M410.5,266.8h0.9c0.3,0,0.6-0.1,0.7-0.3s0.2-0.5,0.2-0.8c0-0.8-0.3-1.2-0.9-1.2
	h-0.9V266.8z M417.5,263.2l1.5,5.7l1.5-5.7h2.1v7.8h-1.6v-2.1l0.1-3.3l-1.6,5.4h-1.1l-1.6-5.4l0.1,3.3v2.1h-1.6v-7.8H417.5z"/>
<polygon id="Line_1_" fill="#E4E7EF" points="102,88 1071.8,88 1071.8,86 102,86 "/>
<circle id="Oval-R" fill="#575B66" cx="1068.8" cy="87" r="3"/>
<path id="Rectangle-7_1_" fill="#B8BECC" d="M937,236h86v-62h-86V236z M935,172h90v66h-90V172z"/>
<circle id="Oval-4_3_" fill="#B8BECC" cx="940.5" cy="177.5" r="1.5"/>
<circle id="Oval-4_4_" fill="#B8BECC" cx="945.5" cy="177.5" r="1.5"/>
<circle id="Oval-4_5_" fill="#B8BECC" cx="950.5" cy="177.5" r="1.5"/>
<polygon id="Line_2_" fill="#B8BECC" points="936.7,182.9 1023.3,182.9 1023.3,180.9 936.7,180.9 "/>
<path id="Page-Title_1_" fill="#575B66" d="M950.5,203.6H948v2.1h2.9v1.3h-4.5v-7.8h4.5v1.3H948v1.8h2.5V203.6z M957.7,207h-1.6
	l-2.3-5.1v5.1h-1.6v-7.8h1.6l2.3,5.1v-5.1h1.6V207z M964.3,200.5h-1.9v6.5h-1.6v-6.5h-1.9v-1.3h5.4V200.5z M969.7,203.6h-2.5v2.1
	h2.9v1.3h-4.5v-7.8h4.5v1.3h-2.9v1.8h2.5V203.6z M973.8,204.1H973v2.9h-1.6v-7.8h2.5c0.8,0,1.4,0.2,1.8,0.6c0.4,0.4,0.6,1,0.6,1.7
	c0,1-0.4,1.8-1.1,2.2l1.4,3.2v0.1H975L973.8,204.1z M973,202.8h0.9c0.3,0,0.6-0.1,0.7-0.3c0.2-0.2,0.2-0.5,0.2-0.8
	c0-0.8-0.3-1.2-0.9-1.2H973V202.8z M982.5,204.2v2.8h-1.6v-7.8h2.7c0.8,0,1.4,0.2,1.9,0.7s0.7,1.1,0.7,1.9s-0.2,1.4-0.7,1.8
	s-1.1,0.7-1.9,0.7H982.5z M982.5,202.9h1.1c0.3,0,0.5-0.1,0.7-0.3s0.2-0.5,0.2-0.9c0-0.4-0.1-0.7-0.3-0.9s-0.4-0.3-0.7-0.4h-1.1
	V202.9z M993.1,207h-1.6v-3.3h-2.3v3.3h-1.6v-7.8h1.6v3.2h2.3v-3.2h1.6V207z M1000.3,203.8c0,1-0.2,1.9-0.7,2.4
	c-0.5,0.6-1.2,0.9-2.1,0.9c-0.9,0-1.6-0.3-2.1-0.9c-0.5-0.6-0.8-1.4-0.8-2.4v-1.3c0-1.1,0.2-1.9,0.7-2.5c0.5-0.6,1.2-0.9,2.1-0.9
	c0.9,0,1.6,0.3,2.1,0.9c0.5,0.6,0.8,1.4,0.8,2.5V203.8z M998.7,202.5c0-0.7-0.1-1.2-0.3-1.6c-0.2-0.3-0.5-0.5-0.9-0.5
	c-0.4,0-0.7,0.2-0.9,0.5c-0.2,0.3-0.3,0.8-0.3,1.5v1.4c0,0.7,0.1,1.2,0.3,1.5s0.5,0.5,0.9,0.5c0.4,0,0.7-0.2,0.9-0.5
	c0.2-0.3,0.3-0.8,0.3-1.5V202.5z M1007.3,207h-1.6l-2.3-5.1v5.1h-1.6v-7.8h1.6l2.3,5.1v-5.1h1.6V207z M1013.1,203.6h-2.5v2.1h2.9
	v1.3h-4.5v-7.8h4.5v1.3h-2.9v1.8h2.5V203.6z"/>
<path id="Rectangle-7_2_" fill="#B8BECC" d="M937,359h86v-62h-86V359z M935,295h90v66h-90V295z"/>
<circle id="Oval-4_6_" fill="#B8BECC" cx="940.5" cy="300.5" r="1.5"/>
<circle id="Oval-4_7_" fill="#B8BECC" cx="945.5" cy="300.5" r="1.5"/>
<circle id="Oval-4_8_" fill="#B8BECC" cx="950.5" cy="300.5" r="1.5"/>
<polygon id="Line_3_" fill="#B8BECC" points="936.7,305.9 1023.3,305.9 1023.3,303.9 936.7,303.9 "/>
<path id="Page-Title_2_" fill="#575B66" d="M973.4,327.4c0,0.9-0.3,1.6-0.8,2s-1.1,0.7-2,0.7c-0.9,0-1.6-0.3-2-0.9
	c-0.5-0.6-0.7-1.4-0.7-2.5v-1.3c0-1.1,0.2-1.9,0.7-2.5c0.5-0.6,1.2-0.9,2-0.9c0.9,0,1.5,0.2,1.9,0.7c0.4,0.5,0.7,1.2,0.8,2.1h-1.6
	c0-0.6-0.1-0.9-0.3-1.1s-0.4-0.3-0.9-0.3c-0.4,0-0.7,0.1-0.9,0.4c-0.2,0.3-0.3,0.8-0.3,1.5v1.5c0,0.8,0.1,1.3,0.3,1.6
	c0.2,0.3,0.5,0.4,0.9,0.4c0.4,0,0.7-0.1,0.9-0.3c0.2-0.2,0.2-0.6,0.3-1.1H973.4z M978.5,328.4h-2.2L976,330h-1.7l2.4-7.8h1.4
	l2.5,7.8h-1.7L978.5,328.4z M976.7,327.1h1.5l-0.7-2.8L976.7,327.1z M983.4,328.7h2.8v1.3h-4.4v-7.8h1.6V328.7z M989.1,328.7h2.8
	v1.3h-4.4v-7.8h1.6V328.7z M957.1,340.4c0,0.9-0.3,1.6-0.8,2s-1.1,0.7-2,0.7c-0.9,0-1.6-0.3-2-0.9c-0.5-0.6-0.7-1.4-0.7-2.5v-1.3
	c0-1.1,0.2-1.9,0.7-2.5c0.5-0.6,1.2-0.9,2-0.9c0.9,0,1.5,0.2,1.9,0.7c0.4,0.5,0.7,1.2,0.8,2.1h-1.6c0-0.6-0.1-0.9-0.3-1.1
	s-0.4-0.3-0.9-0.3c-0.4,0-0.7,0.1-0.9,0.4c-0.2,0.3-0.3,0.8-0.3,1.5v1.5c0,0.8,0.1,1.3,0.3,1.6c0.2,0.3,0.5,0.4,0.9,0.4
	c0.4,0,0.7-0.1,0.9-0.3c0.2-0.2,0.2-0.6,0.3-1.1H957.1z M964,339.8c0,1-0.2,1.9-0.7,2.4s-1.2,0.9-2.1,0.9c-0.9,0-1.6-0.3-2.1-0.9
	s-0.8-1.4-0.8-2.4v-1.3c0-1.1,0.2-1.9,0.7-2.5s1.2-0.9,2.1-0.9c0.9,0,1.6,0.3,2.1,0.9s0.8,1.4,0.8,2.5V339.8z M962.4,338.5
	c0-0.7-0.1-1.2-0.3-1.6s-0.5-0.5-0.9-0.5c-0.4,0-0.7,0.2-0.9,0.5s-0.3,0.8-0.3,1.5v1.4c0,0.7,0.1,1.2,0.3,1.5s0.5,0.5,0.9,0.5
	c0.4,0,0.7-0.2,0.9-0.5s0.3-0.8,0.3-1.5V338.5z M971,343h-1.6l-2.3-5.1v5.1h-1.6v-7.8h1.6l2.3,5.1v-5.1h1.6V343z M976.7,339.8h-2.5
	v3.2h-1.6v-7.8h4.3v1.3h-2.8v2h2.5V339.8z M980,343h-1.6v-7.8h1.6V343z M984.1,340.1h-0.8v2.9h-1.6v-7.8h2.5c0.8,0,1.4,0.2,1.8,0.6
	c0.4,0.4,0.6,1,0.6,1.7c0,1-0.4,1.8-1.1,2.2l1.4,3.2v0.1h-1.7L984.1,340.1z M983.3,338.8h0.9c0.3,0,0.6-0.1,0.7-0.3s0.2-0.5,0.2-0.8
	c0-0.8-0.3-1.2-0.9-1.2h-0.9V338.8z M990.3,335.2l1.5,5.7l1.5-5.7h2.1v7.8h-1.6v-2.1l0.1-3.3l-1.6,5.4h-1.1l-1.6-5.4l0.1,3.3v2.1
	h-1.6v-7.8H990.3z M1001.1,339.6h-2.5v2.1h2.9v1.3H997v-7.8h4.5v1.3h-2.9v1.8h2.5V339.6z M1002.8,343v-7.8h2.1
	c0.9,0,1.6,0.3,2.2,0.9s0.8,1.4,0.8,2.4v1.3c0,1-0.3,1.8-0.8,2.4s-1.3,0.9-2.2,0.9H1002.8z M1004.4,336.5v5.2h0.5
	c0.5,0,0.9-0.1,1.1-0.4s0.3-0.8,0.3-1.4v-1.4c0-0.7-0.1-1.2-0.3-1.5s-0.6-0.4-1-0.5H1004.4z"/>
<circle id="Oval-R_1_" fill="#575B66" cx="980" cy="296" r="3"/>
<path id="Rectangle-7_3_" fill="#B8BECC" d="M2,2v123h116V2H2z M0,0h120v127H0V0z"/>
<circle id="Oval-4_9_" fill="#B8BECC" cx="8.5" cy="8.5" r="2.5"/>
<circle id="Oval-4_10_" fill="#B8BECC" cx="16.5" cy="8.5" r="2.5"/>
<circle id="Oval-4_11_" fill="#B8BECC" cx="24.5" cy="8.5" r="2.5"/>
<path id="Line_5_" fill="none" stroke="#B8BECC" stroke-width="2" d="M2,15.8h116"/>
<path id="Homepage" fill="#575B66" d="M34.8,46h-1.9v-4h-2.8v4h-1.9v-9.2h1.9v3.7h2.8v-3.7h1.9V46z M43.3,42.2
	c0,1.2-0.3,2.2-0.9,2.9s-1.4,1-2.4,1c-1,0-1.9-0.3-2.4-1s-0.9-1.6-0.9-2.9v-1.6c0-1.3,0.3-2.3,0.9-3s1.4-1.1,2.5-1.1
	c1,0,1.8,0.4,2.4,1.1s0.9,1.7,0.9,2.9V42.2z M41.4,40.7c0-0.8-0.1-1.5-0.4-1.9s-0.6-0.6-1.1-0.6c-0.5,0-0.9,0.2-1.1,0.6
	s-0.4,1-0.4,1.8v1.6c0,0.8,0.1,1.4,0.4,1.8s0.6,0.6,1.1,0.6c0.5,0,0.8-0.2,1.1-0.6c0.2-0.4,0.4-1,0.4-1.7V40.7z M47.5,36.8l1.7,6.7
	l1.7-6.7h2.4V46h-1.9v-2.5l0.2-3.9L49.9,46h-1.3l-1.8-6.4l0.2,3.9V46h-1.9v-9.2H47.5z M60.2,42h-2.9v2.5h3.4V46h-5.3v-9.2h5.3v1.6
	h-3.4v2.2h2.9V42z M64.2,42.8V46h-1.9v-9.2h3.1c0.9,0,1.6,0.3,2.2,0.9s0.8,1.3,0.8,2.2s-0.3,1.6-0.8,2.1s-1.3,0.8-2.2,0.8H64.2z
	 M64.2,41.2h1.3c0.4,0,0.6-0.1,0.8-0.3s0.3-0.6,0.3-1c0-0.5-0.1-0.8-0.3-1.1s-0.5-0.4-0.8-0.4h-1.3V41.2z M73.5,44.1H71L70.5,46h-2
	l2.9-9.2h1.7L76,46h-2L73.5,44.1z M71.4,42.6h1.7l-0.9-3.3L71.4,42.6z M83.5,45c-0.4,0.4-0.8,0.7-1.3,0.9s-1.1,0.3-1.7,0.3
	c-1.1,0-1.9-0.3-2.5-1s-0.9-1.6-0.9-2.9v-1.7c0-1.3,0.3-2.3,0.8-2.9s1.4-1,2.4-1c1,0,1.8,0.2,2.3,0.7s0.8,1.3,0.9,2.3h-1.8
	c-0.1-0.6-0.2-1-0.4-1.2s-0.5-0.3-0.9-0.3c-0.5,0-0.9,0.2-1.1,0.6s-0.3,1-0.4,1.8v1.7c0,0.8,0.1,1.5,0.4,1.8s0.7,0.6,1.2,0.6
	c0.4,0,0.7-0.1,0.9-0.2l0.2-0.1v-1.7h-1.3v-1.4h3.2V45z M90.1,42h-2.9v2.5h3.4V46h-5.3v-9.2h5.3v1.6h-3.4v2.2h2.9V42z"/>
<path id="Rectangle" fill="#E4E7EF" d="M20,96h80V78H20V96z M18,76h84v22H18V76z"/>
<path id="Label" fill="#575B66" d="M47.4,90.1h3.6v1h-4.8v-9.2h1.2V90.1z M52.3,87.3c0-1,0.2-1.8,0.7-2.4s1.1-0.9,1.9-0.9
	s1.4,0.3,1.9,0.9c0.5,0.6,0.7,1.3,0.7,2.3v0.7c0,1-0.2,1.8-0.7,2.4c-0.5,0.6-1.1,0.9-1.9,0.9c-0.8,0-1.4-0.3-1.9-0.8
	S52.3,89,52.3,88V87.3z M53.4,87.9c0,0.7,0.1,1.3,0.4,1.7s0.7,0.6,1.1,0.6c1,0,1.5-0.7,1.5-2.1v-0.8c0-0.7-0.1-1.3-0.4-1.7
	c-0.3-0.4-0.7-0.6-1.1-0.6c-0.5,0-0.8,0.2-1.1,0.6c-0.3,0.4-0.4,1-0.4,1.7V87.9z M59,87.3c0-1.1,0.2-1.9,0.6-2.4
	c0.4-0.5,1-0.8,1.7-0.8c0.7,0,1.2,0.3,1.6,0.9l0.1-0.8h1v6.9c0,0.9-0.2,1.5-0.7,2s-1,0.7-1.8,0.7c-0.3,0-0.7-0.1-1.1-0.3
	c-0.4-0.2-0.7-0.4-0.9-0.6l0.5-0.8c0.5,0.5,1,0.7,1.5,0.7c0.9,0,1.4-0.5,1.4-1.5v-0.9c-0.4,0.5-0.9,0.8-1.5,0.8
	c-0.7,0-1.3-0.3-1.7-0.8c-0.4-0.5-0.6-1.3-0.6-2.3V87.3z M60.1,87.9c0,0.8,0.1,1.3,0.3,1.7c0.2,0.4,0.6,0.5,1.1,0.5
	c0.6,0,1-0.3,1.3-0.9v-3.4c-0.3-0.6-0.7-0.8-1.2-0.8c-0.5,0-0.9,0.2-1.1,0.5c-0.2,0.4-0.3,0.9-0.3,1.7V87.9z M67.1,91.1H66v-6.9h1.1
	V91.1z M67.2,82.4c0,0.2-0.1,0.3-0.2,0.5C66.9,83,66.7,83,66.5,83c-0.2,0-0.4-0.1-0.5-0.2c-0.1-0.1-0.2-0.3-0.2-0.5
	c0-0.2,0.1-0.4,0.2-0.5c0.1-0.1,0.3-0.2,0.5-0.2c0.2,0,0.4,0.1,0.5,0.2C67.1,82,67.2,82.2,67.2,82.4z M70.1,84.2l0,0.7
	c0.4-0.6,1-0.9,1.7-0.9c1.2,0,1.8,0.8,1.8,2.4v4.6h-1.1v-4.5c0-0.5-0.1-0.9-0.3-1.1c-0.2-0.2-0.4-0.3-0.8-0.3
	c-0.3,0-0.5,0.1-0.8,0.3c-0.2,0.2-0.4,0.4-0.5,0.7v5h-1.1v-6.9H70.1z"/>
<path id="Rectangle-7_4_" fill="#B8BECC" d="M510,316h116v-78H510V316z M508,236h120v82H508V236z"/>
<circle id="Oval-4_12_" fill="#B8BECC" cx="513.5" cy="241.5" r="1.5"/>
<circle id="Oval-4_13_" fill="#B8BECC" cx="518.5" cy="241.5" r="1.5"/>
<circle id="Oval-4_14_" fill="#B8BECC" cx="523.5" cy="241.5" r="1.5"/>
<polygon id="Line_6_" fill="#B8BECC" points="510.2,247.2 625.8,247.2 625.8,245.2 510.2,245.2 "/>
<path id="Rectangle_1_" fill="#E4E7EF" d="M536,305h65v-18h-65V305z M534,285h69v22h-69V285z"/>
<path id="Label_1_" fill="#575B66" d="M548.4,297.7c0-0.5-0.1-0.8-0.4-1.1c-0.2-0.2-0.7-0.5-1.4-0.7c-0.7-0.2-1.2-0.5-1.5-0.7
	c-0.3-0.3-0.6-0.5-0.8-0.9c-0.2-0.3-0.3-0.7-0.3-1.1c0-0.7,0.2-1.3,0.7-1.8c0.5-0.5,1.1-0.7,1.9-0.7c0.5,0,1,0.1,1.4,0.4
	c0.4,0.2,0.7,0.6,1,1s0.3,0.9,0.3,1.4h-1.2c0-0.6-0.1-1-0.4-1.3c-0.3-0.3-0.7-0.5-1.2-0.5c-0.5,0-0.8,0.1-1.1,0.4
	c-0.3,0.3-0.4,0.6-0.4,1.1c0,0.4,0.1,0.7,0.4,1c0.3,0.3,0.7,0.5,1.3,0.7c0.9,0.3,1.6,0.7,2,1.1c0.4,0.4,0.6,1,0.6,1.7
	c0,0.7-0.2,1.3-0.7,1.8c-0.5,0.5-1.1,0.7-2,0.7c-0.5,0-1-0.1-1.5-0.4c-0.5-0.2-0.8-0.6-1.1-1s-0.4-0.9-0.4-1.5h1.2
	c0,0.6,0.2,1,0.5,1.3c0.3,0.3,0.8,0.5,1.3,0.5c0.5,0,0.9-0.1,1.2-0.4C548.3,298.5,548.4,298.2,548.4,297.7z M552.6,291.5v1.7h1v0.9
	h-1v4.3c0,0.3,0,0.5,0.1,0.6s0.2,0.2,0.5,0.2c0.1,0,0.3,0,0.5-0.1l0,1c-0.3,0.1-0.5,0.1-0.8,0.1c-0.4,0-0.8-0.2-1-0.5
	c-0.2-0.3-0.3-0.8-0.3-1.3v-4.3h-1v-0.9h1v-1.7H552.6z M558.8,300c-0.1-0.1-0.1-0.4-0.1-0.7c-0.4,0.6-0.9,0.9-1.5,0.9
	c-0.6,0-1.1-0.2-1.5-0.5s-0.5-0.8-0.5-1.5c0-0.7,0.2-1.3,0.7-1.7c0.5-0.4,1.1-0.6,1.9-0.6h0.8v-0.7c0-0.4-0.1-0.7-0.3-0.9
	c-0.2-0.2-0.5-0.3-0.8-0.3c-0.3,0-0.6,0.1-0.8,0.3c-0.2,0.2-0.3,0.5-0.3,0.8h-1.1c0-0.4,0.1-0.7,0.3-1c0.2-0.3,0.5-0.6,0.8-0.8
	c0.4-0.2,0.7-0.3,1.2-0.3c0.7,0,1.2,0.2,1.6,0.5c0.4,0.3,0.6,0.9,0.6,1.5v3.5c0,0.5,0.1,1,0.2,1.4v0.1H558.8z M557.3,299.2
	c0.3,0,0.5-0.1,0.8-0.2c0.2-0.2,0.4-0.3,0.5-0.6v-1.6H558c-0.5,0-1,0.1-1.3,0.4c-0.3,0.2-0.5,0.6-0.5,1c0,0.4,0.1,0.7,0.2,0.8
	C556.6,299.1,556.9,299.2,557.3,299.2z M564.5,294.2c-0.2,0-0.3,0-0.5,0c-0.6,0-1,0.3-1.2,0.9v4.9h-1.1v-6.9h1.1l0,0.7
	c0.3-0.6,0.7-0.8,1.3-0.8c0.2,0,0.3,0,0.4,0.1L564.5,294.2z M567.6,291.5v1.7h1v0.9h-1v4.3c0,0.3,0,0.5,0.1,0.6s0.2,0.2,0.5,0.2
	c0.1,0,0.3,0,0.5-0.1l0,1c-0.3,0.1-0.5,0.1-0.8,0.1c-0.4,0-0.8-0.2-1-0.5c-0.2-0.3-0.3-0.8-0.3-1.3v-4.3h-1v-0.9h1v-1.7H567.6z
	 M574.9,291.5v1.7h1v0.9h-1v4.3c0,0.3,0,0.5,0.1,0.6s0.2,0.2,0.5,0.2c0.1,0,0.3,0,0.5-0.1l0,1c-0.3,0.1-0.5,0.1-0.8,0.1
	c-0.4,0-0.8-0.2-1-0.5s-0.3-0.8-0.3-1.3v-4.3h-1v-0.9h1v-1.7H574.9z M580.3,294.2c-0.2,0-0.3,0-0.5,0c-0.6,0-1,0.3-1.2,0.9v4.9h-1.1
	v-6.9h1.1l0,0.7c0.3-0.6,0.7-0.8,1.3-0.8c0.2,0,0.3,0,0.4,0.1L580.3,294.2z M582.8,300h-1.1v-6.9h1.1V300z M582.9,291.4
	c0,0.2-0.1,0.3-0.2,0.5c-0.1,0.1-0.3,0.2-0.5,0.2c-0.2,0-0.4-0.1-0.5-0.2c-0.1-0.1-0.2-0.3-0.2-0.5s0.1-0.4,0.2-0.5
	c0.1-0.1,0.3-0.2,0.5-0.2c0.2,0,0.4,0.1,0.5,0.2S582.9,291.2,582.9,291.4z M588.4,300c-0.1-0.1-0.1-0.4-0.1-0.7
	c-0.4,0.6-0.9,0.9-1.5,0.9c-0.6,0-1.1-0.2-1.5-0.5s-0.5-0.8-0.5-1.5c0-0.7,0.2-1.3,0.7-1.7c0.5-0.4,1.1-0.6,1.9-0.6h0.8v-0.7
	c0-0.4-0.1-0.7-0.3-0.9c-0.2-0.2-0.5-0.3-0.8-0.3c-0.3,0-0.6,0.1-0.8,0.3c-0.2,0.2-0.3,0.5-0.3,0.8h-1.1c0-0.4,0.1-0.7,0.3-1
	c0.2-0.3,0.5-0.6,0.8-0.8c0.4-0.2,0.7-0.3,1.2-0.3c0.7,0,1.2,0.2,1.6,0.5c0.4,0.3,0.6,0.9,0.6,1.5v3.5c0,0.5,0.1,1,0.2,1.4v0.1
	H588.4z M586.9,299.2c0.3,0,0.5-0.1,0.8-0.2c0.2-0.2,0.4-0.3,0.5-0.6v-1.6h-0.6c-0.5,0-1,0.1-1.3,0.4c-0.3,0.2-0.5,0.6-0.5,1
	c0,0.4,0.1,0.7,0.2,0.8C586.2,299.1,586.5,299.2,586.9,299.2z M592.5,300h-1.1v-9.8h1.1V300z"/>
<path id="Rectangle_2_" fill="#E4E7EF" d="M527.5,277h80.9v-18h-80.9V277z M525.5,257h84.9v22h-84.9V257z"/>
<path id="Label_2_" fill="#575B66" d="M533.8,272v-9.2h2.6c0.8,0,1.5,0.2,1.9,0.6c0.4,0.4,0.6,1,0.6,1.8c0,0.4-0.1,0.8-0.3,1.1
	s-0.5,0.6-0.9,0.8c0.4,0.1,0.8,0.4,1,0.8s0.4,0.9,0.4,1.4c0,0.8-0.2,1.5-0.7,2c-0.5,0.5-1.1,0.7-1.9,0.7H533.8z M535,267.7v3.3h1.6
	c0.4,0,0.8-0.1,1-0.4c0.3-0.3,0.4-0.7,0.4-1.2c0-1.1-0.5-1.7-1.4-1.7H535z M535,266.7h1.5c0.4,0,0.7-0.1,1-0.4
	c0.2-0.3,0.4-0.6,0.4-1.1c0-0.5-0.1-0.9-0.3-1.1c-0.2-0.2-0.6-0.3-1-0.3H535V266.7z M540.7,268.3c0-1,0.2-1.8,0.7-2.4
	c0.5-0.6,1.1-0.9,1.9-0.9c0.8,0,1.4,0.3,1.9,0.9c0.5,0.6,0.7,1.3,0.7,2.3v0.7c0,1-0.2,1.8-0.7,2.4c-0.5,0.6-1.1,0.9-1.9,0.9
	c-0.8,0-1.4-0.3-1.9-0.8c-0.5-0.6-0.7-1.3-0.7-2.3V268.3z M541.8,268.9c0,0.7,0.1,1.3,0.4,1.7c0.3,0.4,0.7,0.6,1.1,0.6
	c1,0,1.5-0.7,1.5-2.1v-0.8c0-0.7-0.1-1.3-0.4-1.7c-0.3-0.4-0.7-0.6-1.1-0.6c-0.5,0-0.8,0.2-1.1,0.6c-0.3,0.4-0.4,1-0.4,1.7V268.9z
	 M547.5,268.3c0-1,0.2-1.8,0.7-2.4c0.5-0.6,1.1-0.9,1.9-0.9c0.8,0,1.4,0.3,1.9,0.9c0.5,0.6,0.7,1.3,0.7,2.3v0.7c0,1-0.2,1.8-0.7,2.4
	c-0.5,0.6-1.1,0.9-1.9,0.9c-0.8,0-1.4-0.3-1.9-0.8c-0.5-0.6-0.7-1.3-0.7-2.3V268.3z M548.6,268.9c0,0.7,0.1,1.3,0.4,1.7
	c0.3,0.4,0.7,0.6,1.1,0.6c1,0,1.5-0.7,1.5-2.1v-0.8c0-0.7-0.1-1.3-0.4-1.7c-0.3-0.4-0.7-0.6-1.1-0.6c-0.5,0-0.8,0.2-1.1,0.6
	c-0.3,0.4-0.4,1-0.4,1.7V268.9z M556.2,268.9l-0.6,0.7v2.5h-1.1v-9.8h1.1v5.8l2.1-3h1.3l-2.2,2.9l2.5,4H558L556.2,268.9z M567.2,272
	c-0.1-0.1-0.1-0.4-0.1-0.7c-0.4,0.6-0.9,0.9-1.5,0.9c-0.6,0-1.1-0.2-1.5-0.5s-0.5-0.8-0.5-1.5c0-0.7,0.2-1.3,0.7-1.7
	c0.5-0.4,1.1-0.6,1.9-0.6h0.8v-0.7c0-0.4-0.1-0.7-0.3-0.9c-0.2-0.2-0.5-0.3-0.8-0.3c-0.3,0-0.6,0.1-0.8,0.3
	c-0.2,0.2-0.3,0.5-0.3,0.8h-1.1c0-0.4,0.1-0.7,0.3-1c0.2-0.3,0.5-0.6,0.8-0.8c0.4-0.2,0.7-0.3,1.2-0.3c0.7,0,1.2,0.2,1.6,0.5
	s0.6,0.9,0.6,1.5v3.5c0,0.5,0.1,1,0.2,1.4v0.1H567.2z M565.7,271.2c0.3,0,0.5-0.1,0.8-0.2s0.4-0.3,0.5-0.6v-1.6h-0.6
	c-0.5,0-1,0.1-1.3,0.4c-0.3,0.2-0.5,0.6-0.5,1c0,0.4,0.1,0.7,0.2,0.8C565.1,271.1,565.4,271.2,565.7,271.2z M573.5,272v-9.2h2.2
	c1.1,0,1.9,0.3,2.5,1c0.6,0.7,0.9,1.6,0.9,2.8v1.5c0,1.2-0.3,2.2-0.9,2.8s-1.5,1-2.6,1H573.5z M574.7,263.8v7.2h0.9
	c0.8,0,1.4-0.2,1.8-0.7c0.4-0.5,0.6-1.2,0.6-2.1v-1.6c0-1-0.2-1.7-0.6-2.1c-0.4-0.5-0.9-0.7-1.7-0.7H574.7z M583.4,272.2
	c-0.9,0-1.5-0.3-2-0.8c-0.5-0.5-0.7-1.3-0.7-2.2v-0.8c0-1,0.2-1.8,0.7-2.4c0.4-0.6,1.1-0.9,1.9-0.9c0.8,0,1.4,0.3,1.8,0.8
	c0.4,0.5,0.6,1.3,0.6,2.4v0.7h-3.8v0.2c0,0.7,0.1,1.3,0.4,1.6c0.3,0.3,0.7,0.5,1.2,0.5c0.3,0,0.6-0.1,0.9-0.2
	c0.3-0.1,0.5-0.3,0.7-0.6l0.6,0.7C585.2,271.8,584.4,272.2,583.4,272.2z M583.3,266c-0.5,0-0.8,0.2-1,0.5c-0.2,0.3-0.4,0.8-0.4,1.5
	h2.7v-0.2c0-0.7-0.1-1.1-0.4-1.4C584,266.2,583.7,266,583.3,266z M588.3,265.2l0,0.6c0.4-0.5,1-0.8,1.7-0.8c0.8,0,1.3,0.3,1.6,1
	c0.4-0.7,1-1,1.8-1c1.3,0,1.9,0.8,1.9,2.4v4.6h-1.1v-4.5c0-0.5-0.1-0.9-0.3-1.1c-0.2-0.2-0.5-0.4-0.9-0.4c-0.3,0-0.6,0.1-0.8,0.4
	c-0.2,0.3-0.3,0.6-0.4,1v4.6h-1.1v-4.6c0-1-0.4-1.4-1.2-1.4c-0.6,0-1,0.3-1.2,0.9v5.1h-1.1v-6.9H588.3z M597.1,268.3
	c0-1,0.2-1.8,0.7-2.4c0.5-0.6,1.1-0.9,1.9-0.9c0.8,0,1.4,0.3,1.9,0.9c0.5,0.6,0.7,1.3,0.7,2.3v0.7c0,1-0.2,1.8-0.7,2.4
	c-0.5,0.6-1.1,0.9-1.9,0.9c-0.8,0-1.4-0.3-1.9-0.8c-0.5-0.6-0.7-1.3-0.7-2.3V268.3z M598.2,268.9c0,0.7,0.1,1.3,0.4,1.7
	c0.3,0.4,0.7,0.6,1.1,0.6c1,0,1.5-0.7,1.5-2.1v-0.8c0-0.7-0.1-1.3-0.4-1.7c-0.3-0.4-0.7-0.6-1.1-0.6c-0.5,0-0.8,0.2-1.1,0.6
	c-0.3,0.4-0.4,1-0.4,1.7V268.9z"/>
<polygon id="Line_7_" fill="#E4E7EF" points="227,285 316,285 316,283 227,283 "/>
<circle id="Oval-R_2_" fill="#575B66" cx="313" cy="284" r="3"/>
<polygon id="Line_8_" fill="#E4E7EF" points="432,285 512,285 512,283 432,283 "/>
<circle id="Oval-R_3_" fill="#575B66" cx="509" cy="284" r="3"/>
<polygon id="Path-4_1_" fill="#E4E7EF" points="852,209 939,209 939,207 850,207 850,329 939,329 939,327 852,327 "/>
<circle id="Oval--Copy-3_1_" fill="#575B66" cx="936" cy="328" r="3"/>
<circle id="Oval--Copy-3_2_" fill="#575B66" cx="936" cy="208" r="3"/>
<path fill="#E4E7EF" d="M769.4,267L728,225.6L686.6,267H610v2h76.6l41.4,41.4l41.4-41.4h80.9v-2H769.4z M728,307.6L688.4,268
	l39.6-39.6l39.6,39.6L728,307.6z"/>
<path id="Success_x3F_" fill="#575B66" d="M714.3,269.2v2.8h-1.6v-7.8h2.7c0.8,0,1.4,0.2,1.9,0.7c0.5,0.5,0.7,1.1,0.7,1.9
	s-0.2,1.4-0.7,1.8s-1.1,0.7-1.9,0.7H714.3z M714.3,267.9h1.1c0.3,0,0.5-0.1,0.7-0.3c0.2-0.2,0.2-0.5,0.2-0.9c0-0.4-0.1-0.7-0.3-0.9
	c-0.2-0.2-0.4-0.3-0.7-0.4h-1.1V267.9z M720.5,266.7c0.3-0.4,0.7-0.6,1.2-0.6c0.5,0,0.9,0.2,1.2,0.6c0.3,0.4,0.4,0.9,0.4,1.7v3.7
	h-1.5v-3.7c0-0.3-0.1-0.6-0.2-0.7c-0.1-0.2-0.3-0.2-0.5-0.2c-0.3,0-0.5,0.1-0.6,0.4v4.3H719v-8.2h1.5V266.7z M724.5,268.9
	c0-0.9,0.2-1.6,0.6-2.1c0.4-0.5,1-0.8,1.7-0.8c0.7,0,1.3,0.3,1.7,0.8c0.4,0.5,0.6,1.2,0.6,2.1v0.4c0,0.9-0.2,1.6-0.6,2.1
	c-0.4,0.5-1,0.7-1.7,0.7c-0.7,0-1.3-0.2-1.7-0.7s-0.6-1.2-0.6-2.1V268.9z M726,269.3c0,1,0.3,1.6,0.8,1.6c0.5,0,0.8-0.4,0.8-1.3
	l0-0.6c0-0.5-0.1-0.9-0.2-1.2c-0.1-0.3-0.4-0.4-0.6-0.4c-0.3,0-0.5,0.1-0.6,0.4s-0.2,0.6-0.2,1.2V269.3z M731.7,266.2l0,0.6
	c0.3-0.5,0.8-0.7,1.3-0.7c1,0,1.5,0.7,1.5,2.1v3.8h-1.5v-3.7c0-0.3,0-0.6-0.1-0.7s-0.3-0.2-0.5-0.2c-0.3,0-0.5,0.1-0.6,0.4v4.2h-1.5
	v-5.8H731.7z M738.3,272.1c-0.8,0-1.4-0.2-1.8-0.7c-0.4-0.5-0.7-1.1-0.7-2v-0.5c0-0.9,0.2-1.6,0.6-2.1c0.4-0.5,1-0.7,1.7-0.7
	c0.7,0,1.3,0.2,1.6,0.7c0.4,0.5,0.6,1.2,0.6,2.1v0.7h-3c0,0.4,0.1,0.7,0.3,0.9c0.2,0.2,0.4,0.3,0.8,0.3c0.5,0,0.9-0.2,1.3-0.5
	l0.6,0.9c-0.2,0.3-0.5,0.5-0.8,0.6S738.7,272.1,738.3,272.1z M737.3,268.5h1.5v-0.1c0-0.3-0.1-0.6-0.2-0.8s-0.3-0.3-0.6-0.3
	c-0.3,0-0.5,0.1-0.6,0.3C737.4,267.8,737.3,268.1,737.3,268.5z M742.4,269.6c0-0.5,0-0.9,0.1-1.2c0.1-0.3,0.3-0.6,0.5-0.8
	c0.3-0.3,0.4-0.5,0.5-0.7c0.1-0.2,0.1-0.4,0.1-0.6c0-0.6-0.2-0.9-0.6-0.9c-0.2,0-0.3,0.1-0.4,0.2c-0.1,0.2-0.2,0.4-0.2,0.7h-1.5
	c0-0.7,0.2-1.2,0.6-1.6s0.9-0.6,1.5-0.6c0.7,0,1.2,0.2,1.6,0.6c0.4,0.4,0.6,0.9,0.6,1.6c0,0.6-0.2,1.1-0.7,1.6l-0.4,0.5
	c-0.1,0.2-0.3,0.4-0.3,0.5c-0.1,0.2-0.1,0.4-0.1,0.7H742.4z M742.3,271.2c0-0.2,0.1-0.4,0.2-0.6s0.4-0.2,0.6-0.2
	c0.2,0,0.4,0.1,0.6,0.2c0.2,0.2,0.2,0.4,0.2,0.6c0,0.2-0.1,0.4-0.2,0.6s-0.4,0.2-0.6,0.2c-0.3,0-0.5-0.1-0.6-0.2
	S742.3,271.5,742.3,271.2z"/>
<rect id="Rectangle_3_" x="838" y="228" fill="#FF6660" width="30" height="20"/>
<path id="Error_x21_" fill="#FFFFFF" d="M852.5,243h-1.2l-3.7-7.1v7.1h-1.2v-9.2h1.2l3.7,7.2v-7.2h1.2V243z M854.4,239.2
	c0-1,0.2-1.8,0.7-2.4s1.1-0.9,1.9-0.9s1.4,0.3,1.9,0.9s0.7,1.3,0.7,2.3v0.7c0,1-0.2,1.8-0.7,2.4s-1.1,0.9-1.9,0.9
	c-0.8,0-1.4-0.3-1.9-0.8c-0.5-0.6-0.7-1.3-0.7-2.3V239.2z M855.5,239.9c0,0.7,0.1,1.3,0.4,1.7s0.7,0.6,1.1,0.6c1,0,1.5-0.7,1.5-2.1
	v-0.8c0-0.7-0.1-1.3-0.4-1.7s-0.7-0.6-1.1-0.6c-0.5,0-0.8,0.2-1.1,0.6s-0.4,1-0.4,1.7V239.9z"/>
<rect id="Rectangle_4_" x="838" y="288" fill="#4CBA38" width="30" height="20"/>
<path id="Success_x21_" fill="#FFFFFF" d="M846.1,298.4l2.4-4.6h1.4l-3.2,5.8v3.4h-1.2v-3.4l-3.2-5.8h1.4L846.1,298.4z M853.5,303.1
	c-0.9,0-1.7-0.3-2.3-0.9s-0.9-1.4-0.9-2.5v-0.2c0-0.7,0.1-1.3,0.4-1.8s0.6-1,1.1-1.3s1-0.5,1.5-0.5c0.9,0,1.6,0.3,2.1,0.9
	s0.7,1.4,0.7,2.5v0.5h-4.7c0,0.7,0.2,1.2,0.6,1.6s0.9,0.6,1.4,0.6c0.4,0,0.8-0.1,1.1-0.3s0.5-0.4,0.8-0.7l0.7,0.6
	C855.5,302.7,854.7,303.1,853.5,303.1z M853.4,297c-0.5,0-0.9,0.2-1.2,0.5s-0.5,0.8-0.6,1.5h3.4v-0.1c0-0.6-0.2-1.1-0.5-1.4
	S853.9,297,853.4,297z M861.8,301.2c0-0.3-0.1-0.6-0.4-0.7s-0.7-0.3-1.3-0.5s-1.1-0.3-1.4-0.5s-0.6-0.4-0.8-0.6s-0.3-0.5-0.3-0.9
	c0-0.6,0.2-1,0.7-1.4s1.1-0.6,1.8-0.6c0.8,0,1.4,0.2,1.9,0.6s0.7,0.9,0.7,1.5h-1.2c0-0.3-0.1-0.6-0.4-0.8s-0.6-0.3-1-0.3
	c-0.4,0-0.8,0.1-1,0.3s-0.4,0.4-0.4,0.7c0,0.3,0.1,0.5,0.3,0.6s0.6,0.3,1.2,0.4s1.1,0.3,1.4,0.5s0.6,0.4,0.8,0.7s0.3,0.6,0.3,0.9
	c0,0.6-0.2,1.1-0.7,1.5s-1.1,0.6-1.9,0.6c-0.6,0-1-0.1-1.5-0.3s-0.8-0.5-1-0.8s-0.4-0.7-0.4-1.1h1.2c0,0.4,0.2,0.7,0.5,0.9
	s0.7,0.3,1.2,0.3c0.4,0,0.8-0.1,1.1-0.3S861.8,301.5,861.8,301.2z"/>
<path id="Rectangle-7_5_" fill="#B8BECC" d="M127,193v123h116V193H127z M125,191h120v127H125V191z"/>
<circle id="Oval-4_15_" fill="#B8BECC" cx="133.5" cy="199.5" r="2.5"/>
<circle id="Oval-4_16_" fill="#B8BECC" cx="141.5" cy="199.5" r="2.5"/>
<circle id="Oval-4_17_" fill="#B8BECC" cx="149.5" cy="199.5" r="2.5"/>
<polygon id="Line_10_" fill="#B8BECC" points="127,207.8 243,207.8 243,205.8 127,205.8 "/>
<path id="Page-Title_3_" fill="#575B66" d="M144.4,235.1h-2.5l-0.5,1.9h-2l2.9-9.2h1.7l2.9,9.2h-2L144.4,235.1z M142.2,233.6h1.7
	l-0.9-3.3L142.2,233.6z M154.4,233.9c0,1.1-0.3,1.9-0.9,2.4s-1.3,0.8-2.3,0.8c-1,0-1.8-0.3-2.4-1s-0.8-1.7-0.8-2.9v-1.6
	c0-1.3,0.3-2.2,0.9-2.9c0.6-0.7,1.4-1,2.4-1c1,0,1.8,0.3,2.3,0.8s0.8,1.4,0.9,2.4h-1.9c0-0.7-0.1-1.1-0.3-1.3s-0.5-0.4-1-0.4
	c-0.5,0-0.9,0.2-1.1,0.5s-0.3,0.9-0.3,1.7v1.7c0,0.9,0.1,1.5,0.3,1.9s0.6,0.5,1.1,0.5c0.5,0,0.8-0.1,1-0.4s0.3-0.7,0.3-1.3H154.4z
	 M162.3,233.9c0,1.1-0.3,1.9-0.9,2.4s-1.3,0.8-2.3,0.8c-1,0-1.8-0.3-2.4-1c-0.6-0.7-0.8-1.7-0.8-2.9v-1.6c0-1.3,0.3-2.2,0.9-2.9
	s1.4-1,2.4-1c1,0,1.8,0.3,2.3,0.8s0.8,1.4,0.9,2.4h-1.9c0-0.7-0.1-1.1-0.3-1.3s-0.5-0.4-1-0.4c-0.5,0-0.9,0.2-1.1,0.5
	s-0.3,0.9-0.3,1.7v1.7c0,0.9,0.1,1.5,0.3,1.9s0.6,0.5,1.1,0.5c0.5,0,0.8-0.1,1-0.4s0.3-0.7,0.3-1.3H162.3z M170.4,233.2
	c0,1.2-0.3,2.2-0.9,2.9s-1.4,1-2.4,1c-1,0-1.9-0.3-2.4-1s-0.9-1.6-0.9-2.9v-1.6c0-1.3,0.3-2.3,0.9-3c0.6-0.7,1.4-1.1,2.5-1.1
	c1,0,1.8,0.4,2.4,1.1s0.9,1.7,0.9,2.9V233.2z M168.6,231.7c0-0.8-0.1-1.5-0.4-1.9s-0.6-0.6-1.1-0.6c-0.5,0-0.9,0.2-1.1,0.6
	s-0.4,1-0.4,1.8v1.6c0,0.8,0.1,1.4,0.4,1.8s0.6,0.6,1.1,0.6c0.5,0,0.8-0.2,1.1-0.6s0.4-1,0.4-1.7V231.7z M178.3,227.8v6.4
	c0,1-0.3,1.7-0.8,2.2s-1.3,0.8-2.2,0.8c-1,0-1.7-0.3-2.3-0.8s-0.8-1.3-0.8-2.2v-6.4h1.9v6.4c0,0.5,0.1,0.9,0.3,1.1s0.5,0.3,0.9,0.3
	s0.7-0.1,0.9-0.3s0.2-0.6,0.3-1.1v-6.4H178.3z M186.7,237h-1.9l-2.7-6.1v6.1h-1.9v-9.2h1.9l2.7,6.1v-6.1h1.9V237z M194.5,229.3h-2.3
	v7.7h-1.9v-7.7h-2.2v-1.6h6.4V229.3z M199.7,235.1h-2.5l-0.5,1.9h-2l2.9-9.2h1.7l2.9,9.2h-2L199.7,235.1z M197.5,233.6h1.7l-0.9-3.3
	L197.5,233.6z M210,237h-1.9l-2.7-6.1v6.1h-1.9v-9.2h1.9l2.7,6.1v-6.1h1.9V237z M217.8,229.3h-2.3v7.7h-1.9v-7.7h-2.2v-1.6h6.4
	V229.3z M222.2,234.5c0-0.4,0.1-0.8,0.3-1.2s0.6-0.8,1.1-1.2c-0.2-0.4-0.4-0.7-0.6-1s-0.2-0.7-0.2-1c0-0.7,0.2-1.3,0.6-1.8
	s0.9-0.7,1.6-0.7c0.6,0,1.1,0.2,1.5,0.6s0.6,0.9,0.6,1.5c0,0.8-0.3,1.5-1,2l-0.5,0.4l1.2,1.7c0.1-0.4,0.2-0.9,0.2-1.4h1.5
	c0,1.2-0.2,2.1-0.7,2.9l1.2,1.7h-2l-0.3-0.5c-0.5,0.4-1.2,0.6-1.9,0.6c-0.8,0-1.4-0.2-1.9-0.7S222.2,235.3,222.2,234.5z
	 M224.9,235.6c0.3,0,0.6-0.1,0.9-0.3l-1.5-2.1l0,0c-0.2,0.3-0.3,0.7-0.3,1.1c0,0.4,0.1,0.7,0.3,0.9S224.6,235.6,224.9,235.6z
	 M224.4,230c0,0.3,0.1,0.7,0.4,1.1l0.3-0.2c0.2-0.1,0.3-0.3,0.4-0.4s0.1-0.3,0.1-0.6c0-0.2-0.1-0.4-0.2-0.6s-0.3-0.2-0.4-0.2
	c-0.2,0-0.3,0.1-0.4,0.3S224.4,229.8,224.4,230z M143.4,252v-9.2h2.9c1,0,1.7,0.2,2.2,0.6s0.8,1.1,0.8,1.9c0,0.5-0.1,0.9-0.3,1.2
	s-0.5,0.6-0.9,0.7c0.4,0.1,0.7,0.4,1,0.7s0.3,0.8,0.3,1.3c0,0.9-0.2,1.6-0.7,2s-1.2,0.7-2.1,0.7H143.4z M145.3,248v2.5h1.2
	c0.3,0,0.6-0.1,0.8-0.3s0.3-0.5,0.3-0.9c0-0.8-0.3-1.3-0.9-1.3H145.3z M145.3,246.6h1c0.7,0,1.1-0.4,1.1-1.1c0-0.4-0.1-0.7-0.3-0.9
	s-0.4-0.3-0.8-0.3h-1V246.6z M157.7,248.2c0,1.2-0.3,2.2-0.9,2.9s-1.4,1-2.4,1c-1,0-1.9-0.3-2.4-1s-0.9-1.6-0.9-2.9v-1.6
	c0-1.3,0.3-2.3,0.9-3s1.4-1.1,2.5-1.1c1,0,1.8,0.4,2.4,1.1s0.9,1.7,0.9,2.9V248.2z M155.9,246.7c0-0.8-0.1-1.5-0.4-1.9
	s-0.6-0.6-1.1-0.6c-0.5,0-0.9,0.2-1.1,0.6s-0.4,1-0.4,1.8v1.6c0,0.8,0.1,1.4,0.4,1.8s0.6,0.6,1.1,0.6c0.5,0,0.8-0.2,1.1-0.6
	s0.4-1,0.4-1.7V246.7z M166.1,248.2c0,1.2-0.3,2.2-0.9,2.9s-1.4,1-2.4,1c-1,0-1.9-0.3-2.4-1s-0.9-1.6-0.9-2.9v-1.6
	c0-1.3,0.3-2.3,0.9-3s1.4-1.1,2.5-1.1c1,0,1.8,0.4,2.4,1.1s0.9,1.7,0.9,2.9V248.2z M164.2,246.7c0-0.8-0.1-1.5-0.4-1.9
	s-0.6-0.6-1.1-0.6c-0.5,0-0.9,0.2-1.1,0.6s-0.4,1-0.4,1.8v1.6c0,0.8,0.1,1.4,0.4,1.8s0.6,0.6,1.1,0.6c0.5,0,0.8-0.2,1.1-0.6
	s0.4-1,0.4-1.7V246.7z M170.5,248.4l-0.7,0.9v2.6h-1.9v-9.2h1.9v4l0.6-1l1.7-3h2.3l-2.6,4.1l2.7,5.2h-2.2L170.5,248.4z M178.2,248.4
	l-0.7,0.9v2.6h-1.9v-9.2h1.9v4l0.6-1l1.7-3h2.3l-2.6,4.1l2.7,5.2h-2.2L178.2,248.4z M188.1,248h-2.9v2.5h3.4v1.5h-5.3v-9.2h5.3v1.6
	h-3.4v2.2h2.9V248z M195,248H192v2.5h3.4v1.5h-5.3v-9.2h5.3v1.6H192v2.2h2.9V248z M198.9,248.8v3.2h-1.9v-9.2h3.1
	c0.9,0,1.6,0.3,2.2,0.9s0.8,1.3,0.8,2.2s-0.3,1.6-0.8,2.1s-1.3,0.8-2.2,0.8H198.9z M198.9,247.2h1.3c0.4,0,0.6-0.1,0.8-0.3
	s0.3-0.6,0.3-1c0-0.5-0.1-0.8-0.3-1.1s-0.5-0.4-0.8-0.4h-1.3V247.2z M209.7,248h-2.9v2.5h3.4v1.5H205v-9.2h5.3v1.6h-3.4v2.2h2.9V248
	z M214.6,248.6h-0.9v3.4h-1.9v-9.2h3c0.9,0,1.7,0.2,2.2,0.7s0.8,1.2,0.8,2.1c0,1.2-0.4,2.1-1.3,2.6l1.6,3.8v0.1h-2L214.6,248.6z
	 M213.7,247.1h1.1c0.4,0,0.7-0.1,0.8-0.4s0.3-0.6,0.3-1c0-0.9-0.4-1.4-1.1-1.4h-1.1V247.1z M223.4,249.6c0-0.4-0.1-0.7-0.3-0.9
	s-0.5-0.4-1.1-0.6c-0.9-0.4-1.6-0.8-2-1.2s-0.6-1-0.6-1.7c0-0.8,0.3-1.4,0.8-1.9s1.3-0.7,2.1-0.7c0.6,0,1.1,0.1,1.5,0.4s0.8,0.6,1,1
	s0.4,0.9,0.4,1.5h-1.9c0-0.4-0.1-0.8-0.3-1s-0.4-0.3-0.8-0.3c-0.3,0-0.6,0.1-0.8,0.3s-0.3,0.5-0.3,0.8c0,0.3,0.1,0.5,0.3,0.7
	s0.6,0.4,1.1,0.6c0.9,0.3,1.6,0.7,2,1.2s0.6,1.1,0.6,1.8c0,0.8-0.3,1.4-0.8,1.9s-1.2,0.7-2.1,0.7c-0.6,0-1.1-0.1-1.6-0.4
	s-0.9-0.6-1.2-1.1s-0.4-1-0.4-1.6h1.9c0,0.5,0.1,0.9,0.3,1.2s0.5,0.4,1,0.4C223.1,250.6,223.4,250.3,223.4,249.6z"/>
<path id="Rectangle_5_" fill="#E4E7EF" d="M145,294h80v-18h-80V294z M143,274h84v22h-84V274z"/>
<path id="Label_3_" fill="#575B66" d="M160.9,280.8h-2.4v8.2h-1.2v-8.2h-2.4v-1h6V280.8z M164.7,283.2c-0.2,0-0.3,0-0.5,0
	c-0.6,0-1,0.3-1.2,0.9v4.9h-1.1v-6.9h1.1l0,0.7c0.3-0.6,0.7-0.8,1.3-0.8c0.2,0,0.3,0,0.4,0.1L164.7,283.2z M168,287.2l1.3-5h1.2
	l-2.2,7.8c-0.2,0.6-0.4,1-0.7,1.3c-0.3,0.3-0.7,0.5-1.1,0.5c-0.2,0-0.3,0-0.6-0.1v-1l0.2,0c0.3,0,0.6-0.1,0.8-0.2
	c0.2-0.2,0.3-0.4,0.4-0.8l0.2-0.8l-2-6.8h1.2L168,287.2z M175.4,289v-6h-0.9v-0.9h0.9v-0.8c0-0.7,0.2-1.2,0.5-1.6
	c0.3-0.4,0.8-0.6,1.4-0.6c0.2,0,0.5,0,0.7,0.1l-0.1,1c-0.2,0-0.3-0.1-0.5-0.1c-0.6,0-1,0.5-1,1.4v0.6h1.2v0.9h-1.2v6H175.4z
	 M179,285.3c0-1,0.2-1.8,0.7-2.4c0.5-0.6,1.1-0.9,1.9-0.9c0.8,0,1.4,0.3,1.9,0.9c0.5,0.6,0.7,1.3,0.7,2.3v0.7c0,1-0.2,1.8-0.7,2.4
	c-0.5,0.6-1.1,0.9-1.9,0.9c-0.8,0-1.4-0.3-1.9-0.8c-0.5-0.6-0.7-1.3-0.7-2.3V285.3z M180.2,285.9c0,0.7,0.1,1.3,0.4,1.7
	c0.3,0.4,0.7,0.6,1.1,0.6c1,0,1.5-0.7,1.5-2.1v-0.8c0-0.7-0.1-1.3-0.4-1.7c-0.3-0.4-0.7-0.6-1.1-0.6c-0.5,0-0.8,0.2-1.1,0.6
	c-0.3,0.4-0.4,1-0.4,1.7V285.9z M188.9,283.2c-0.2,0-0.3,0-0.5,0c-0.6,0-1,0.3-1.2,0.9v4.9H186v-6.9h1.1l0,0.7
	c0.3-0.6,0.7-0.8,1.3-0.8c0.2,0,0.3,0,0.4,0.1L188.9,283.2z M197.8,285h-3.1v4.1h-1.2v-9.2h4.8v1h-3.6v3.2h3.1V285z M202.5,283.2
	c-0.2,0-0.3,0-0.5,0c-0.6,0-1,0.3-1.2,0.9v4.9h-1.1v-6.9h1.1l0,0.7c0.3-0.6,0.7-0.8,1.3-0.8c0.2,0,0.3,0,0.4,0.1L202.5,283.2z
	 M206.2,289.2c-0.9,0-1.5-0.3-2-0.8c-0.5-0.5-0.7-1.3-0.7-2.2v-0.8c0-1,0.2-1.8,0.7-2.4c0.4-0.6,1.1-0.9,1.9-0.9
	c0.8,0,1.4,0.3,1.8,0.8c0.4,0.5,0.6,1.3,0.6,2.4v0.7h-3.8v0.2c0,0.7,0.1,1.3,0.4,1.6c0.3,0.3,0.7,0.5,1.2,0.5c0.3,0,0.6-0.1,0.9-0.2
	c0.3-0.1,0.5-0.3,0.7-0.6l0.6,0.7C207.9,288.8,207.2,289.2,206.2,289.2z M206.1,283c-0.5,0-0.8,0.2-1,0.5c-0.2,0.3-0.4,0.8-0.4,1.5
	h2.7v-0.2c0-0.7-0.1-1.1-0.4-1.4S206.5,283,206.1,283z M212.5,289.2c-0.9,0-1.5-0.3-2-0.8c-0.5-0.5-0.7-1.3-0.7-2.2v-0.8
	c0-1,0.2-1.8,0.7-2.4c0.4-0.6,1.1-0.9,1.9-0.9c0.8,0,1.4,0.3,1.8,0.8c0.4,0.5,0.6,1.3,0.6,2.4v0.7h-3.8v0.2c0,0.7,0.1,1.3,0.4,1.6
	c0.3,0.3,0.7,0.5,1.2,0.5c0.3,0,0.6-0.1,0.9-0.2c0.3-0.1,0.5-0.3,0.7-0.6l0.6,0.7C214.2,288.8,213.5,289.2,212.5,289.2z M212.4,283
	c-0.5,0-0.8,0.2-1,0.5c-0.2,0.3-0.4,0.8-0.4,1.5h2.7v-0.2c0-0.7-0.1-1.1-0.4-1.4C213.1,283.2,212.8,283,212.4,283z"/>
<path id="Rectangle-7_6_" fill="#B8BECC" d="M184,402h86v-62h-86V402z M182,338h90v66h-90V338z"/>
<circle id="Oval-4_18_" fill="#B8BECC" cx="187.5" cy="343.5" r="1.5"/>
<circle id="Oval-4_19_" fill="#B8BECC" cx="192.5" cy="343.5" r="1.5"/>
<circle id="Oval-4_20_" fill="#B8BECC" cx="197.5" cy="343.5" r="1.5"/>
<polygon id="Line_11_" fill="#B8BECC" points="183.7,348.9 270.3,348.9 270.3,346.9 183.7,346.9 "/>
<path id="Page-Title_4_" fill="#575B66" d="M197.2,370.2v2.8h-1.6v-7.8h2.7c0.8,0,1.4,0.2,1.9,0.7s0.7,1.1,0.7,1.9s-0.2,1.4-0.7,1.8
	s-1.1,0.7-1.9,0.7H197.2z M197.2,368.9h1.1c0.3,0,0.5-0.1,0.7-0.3c0.2-0.2,0.2-0.5,0.2-0.9c0-0.4-0.1-0.7-0.3-0.9
	c-0.2-0.2-0.4-0.3-0.7-0.4h-1.1V368.9z M204.7,370.1h-0.8v2.9h-1.6v-7.8h2.5c0.8,0,1.4,0.2,1.8,0.6c0.4,0.4,0.6,1,0.6,1.7
	c0,1-0.4,1.8-1.1,2.2l1.4,3.2v0.1h-1.7L204.7,370.1z M203.9,368.8h0.9c0.3,0,0.6-0.1,0.7-0.3c0.2-0.2,0.2-0.5,0.2-0.8
	c0-0.8-0.3-1.2-0.9-1.2h-0.9V368.8z M210.5,373h-1.6v-7.8h1.6V373z M217.5,370.4c0,0.9-0.3,1.6-0.8,2s-1.1,0.7-2,0.7
	c-0.9,0-1.6-0.3-2-0.9s-0.7-1.4-0.7-2.5v-1.3c0-1.1,0.2-1.9,0.7-2.5s1.2-0.9,2-0.9c0.9,0,1.5,0.2,1.9,0.7c0.4,0.5,0.7,1.2,0.8,2.1
	h-1.6c0-0.6-0.1-0.9-0.3-1.1s-0.4-0.3-0.9-0.3c-0.4,0-0.7,0.1-0.9,0.4s-0.3,0.8-0.3,1.5v1.5c0,0.8,0.1,1.3,0.3,1.6s0.5,0.4,0.9,0.4
	c0.4,0,0.7-0.1,0.9-0.3s0.2-0.6,0.3-1.1H217.5z M220.5,373H219v-7.8h1.6V373z M227.8,373h-1.6l-2.3-5.1v5.1h-1.6v-7.8h1.6l2.3,5.1
	v-5.1h1.6V373z M234.8,372.1c-0.3,0.3-0.7,0.6-1.1,0.7c-0.4,0.2-0.9,0.2-1.5,0.2c-0.9,0-1.6-0.3-2.1-0.8c-0.5-0.6-0.8-1.4-0.8-2.4
	v-1.4c0-1.1,0.2-1.9,0.7-2.5c0.5-0.6,1.2-0.9,2.1-0.9c0.8,0,1.5,0.2,1.9,0.6c0.4,0.4,0.7,1.1,0.7,2h-1.5c0-0.5-0.1-0.8-0.3-1
	c-0.2-0.2-0.4-0.3-0.8-0.3c-0.4,0-0.7,0.2-0.9,0.5s-0.3,0.8-0.3,1.5v1.4c0,0.7,0.1,1.2,0.3,1.6c0.2,0.3,0.6,0.5,1.1,0.5
	c0.3,0,0.6-0.1,0.8-0.2l0.1-0.1v-1.4h-1.1v-1.2h2.7V372.1z M243,371.4h-2.2l-0.4,1.6h-1.7l2.4-7.8h1.4l2.5,7.8h-1.7L243,371.4z
	 M241.2,370.1h1.5l-0.7-2.8L241.2,370.1z M246,370.9c0-0.4,0.1-0.7,0.2-1s0.5-0.6,0.9-1c-0.2-0.3-0.4-0.6-0.5-0.9
	c-0.1-0.3-0.2-0.6-0.2-0.9c0-0.6,0.2-1.1,0.5-1.5c0.3-0.4,0.8-0.6,1.4-0.6c0.5,0,0.9,0.2,1.3,0.5c0.3,0.4,0.5,0.8,0.5,1.3
	c0,0.7-0.3,1.2-0.9,1.7l-0.4,0.3l1,1.4c0.1-0.4,0.2-0.8,0.2-1.2h1.3c0,1-0.2,1.8-0.6,2.4l1,1.4h-1.7l-0.3-0.4
	c-0.5,0.3-1,0.5-1.6,0.5c-0.7,0-1.2-0.2-1.6-0.6S246,371.6,246,370.9z M248.3,371.9c0.3,0,0.5-0.1,0.8-0.3l-1.2-1.7l0,0
	c-0.2,0.3-0.3,0.6-0.3,1c0,0.3,0.1,0.6,0.2,0.7C247.9,371.8,248.1,371.9,248.3,371.9z M247.9,367.1c0,0.3,0.1,0.6,0.4,0.9l0.3-0.2
	c0.2-0.1,0.3-0.2,0.3-0.4s0.1-0.3,0.1-0.5c0-0.2-0.1-0.3-0.2-0.5s-0.2-0.2-0.4-0.2c-0.2,0-0.3,0.1-0.4,0.2
	C248,366.7,247.9,366.9,247.9,367.1z M253.1,373v-7.8h2.4c0.8,0,1.4,0.2,1.9,0.5s0.6,0.9,0.6,1.6c0,0.4-0.1,0.7-0.3,1
	c-0.2,0.3-0.4,0.5-0.7,0.6c0.4,0.1,0.6,0.3,0.8,0.6c0.2,0.3,0.3,0.7,0.3,1.1c0,0.8-0.2,1.3-0.6,1.7c-0.4,0.4-1,0.6-1.8,0.6H253.1z
	 M254.6,369.6v2.1h1c0.3,0,0.5-0.1,0.6-0.3c0.1-0.2,0.2-0.4,0.2-0.7c0-0.7-0.3-1.1-0.8-1.1H254.6z M254.6,368.5h0.8
	c0.6,0,0.9-0.3,0.9-1c0-0.4-0.1-0.6-0.2-0.8c-0.1-0.2-0.4-0.2-0.7-0.2h-0.8V368.5z"/>
<circle id="Oval--Copy-3_3_" fill="#575B66" cx="126" cy="251" r="3"/>
<polygon id="Path-4_3_" fill="#E4E7EF" points="147.6,318 145.6,318 145.6,374 180.5,374 180.5,372 147.6,372 "/>
<circle id="Oval--Copy-3_4_" fill="#575B66" cx="183" cy="373" r="3"/>
<path id="Rectangle-7_7_" fill="#B8BECC" d="M314,586h116v-78H314V586z M312,506h120v82H312V506z"/>
<circle id="Oval-4_21_" fill="#B8BECC" cx="317.5" cy="511.5" r="1.5"/>
<circle id="Oval-4_22_" fill="#B8BECC" cx="322.5" cy="511.5" r="1.5"/>
<circle id="Oval-4_23_" fill="#B8BECC" cx="327.5" cy="511.5" r="1.5"/>
<polygon id="Line_12_" fill="#B8BECC" points="314.2,517.2 429.8,517.2 429.8,515.2 314.2,515.2 "/>
<path id="Page-Title_5_" fill="#575B66" d="M323.4,538.1h-0.8v2.9H321v-7.8h2.5c0.8,0,1.4,0.2,1.8,0.6s0.6,1,0.6,1.7
	c0,1-0.4,1.8-1.1,2.2l1.4,3.2v0.1h-1.7L323.4,538.1z M322.6,536.8h0.9c0.3,0,0.6-0.1,0.7-0.3c0.2-0.2,0.2-0.5,0.2-0.8
	c0-0.8-0.3-1.2-0.9-1.2h-0.9V536.8z M331.6,537.6h-2.5v2.1h2.9v1.3h-4.5v-7.8h4.5v1.3h-2.9v1.8h2.5V537.6z M338.7,540.1
	c-0.3,0.3-0.7,0.6-1.1,0.7s-0.9,0.2-1.5,0.2c-0.9,0-1.6-0.3-2.1-0.8s-0.8-1.4-0.8-2.4v-1.4c0-1.1,0.2-1.9,0.7-2.5s1.2-0.9,2.1-0.9
	c0.8,0,1.5,0.2,1.9,0.6s0.7,1.1,0.7,2h-1.5c0-0.5-0.1-0.8-0.3-1s-0.4-0.3-0.8-0.3c-0.4,0-0.7,0.2-0.9,0.5s-0.3,0.8-0.3,1.5v1.4
	c0,0.7,0.1,1.2,0.3,1.6s0.6,0.5,1.1,0.5c0.3,0,0.6-0.1,0.8-0.2l0.1-0.1v-1.4H336v-1.2h2.7V540.1z M341.9,541h-1.6v-7.8h1.6V541z
	 M346.9,538.9c0-0.3-0.1-0.6-0.2-0.7c-0.2-0.2-0.5-0.3-0.9-0.5c-0.8-0.3-1.3-0.6-1.7-1s-0.5-0.9-0.5-1.4c0-0.7,0.2-1.2,0.7-1.6
	s1.1-0.6,1.8-0.6c0.5,0,0.9,0.1,1.3,0.3s0.7,0.5,0.9,0.9c0.2,0.4,0.3,0.8,0.3,1.3H347c0-0.4-0.1-0.6-0.2-0.8s-0.4-0.3-0.7-0.3
	c-0.3,0-0.5,0.1-0.6,0.2c-0.2,0.2-0.2,0.4-0.2,0.7c0,0.2,0.1,0.4,0.3,0.6s0.5,0.4,0.9,0.5c0.8,0.3,1.3,0.6,1.7,1
	c0.3,0.4,0.5,0.9,0.5,1.5c0,0.7-0.2,1.2-0.6,1.6c-0.4,0.4-1,0.6-1.8,0.6c-0.5,0-1-0.1-1.4-0.3c-0.4-0.2-0.7-0.5-1-0.9
	c-0.2-0.4-0.4-0.8-0.4-1.4h1.6c0,0.5,0.1,0.8,0.3,1c0.2,0.2,0.5,0.3,0.9,0.3C346.7,539.8,346.9,539.5,346.9,538.9z M355.1,534.5
	h-1.9v6.5h-1.6v-6.5h-1.9v-1.3h5.4V534.5z M358.8,538.1H358v2.9h-1.6v-7.8h2.5c0.8,0,1.4,0.2,1.8,0.6c0.4,0.4,0.6,1,0.6,1.7
	c0,1-0.4,1.8-1.1,2.2l1.4,3.2v0.1h-1.7L358.8,538.1z M358,536.8h0.9c0.3,0,0.6-0.1,0.7-0.3c0.2-0.2,0.2-0.5,0.2-0.8
	c0-0.8-0.3-1.2-0.9-1.2H358V536.8z M366.6,539.4h-2.2l-0.4,1.6h-1.7l2.4-7.8h1.4l2.5,7.8h-1.7L366.6,539.4z M364.8,538.1h1.5
	l-0.7-2.8L364.8,538.1z M374.3,534.5h-1.9v6.5h-1.6v-6.5h-1.9v-1.3h5.4V534.5z M377.3,541h-1.6v-7.8h1.6V541z M384.6,537.8
	c0,1-0.2,1.9-0.7,2.4s-1.2,0.9-2.1,0.9c-0.9,0-1.6-0.3-2.1-0.9s-0.8-1.4-0.8-2.4v-1.3c0-1.1,0.2-1.9,0.7-2.5s1.2-0.9,2.1-0.9
	c0.9,0,1.6,0.3,2.1,0.9s0.8,1.4,0.8,2.5V537.8z M383,536.5c0-0.7-0.1-1.2-0.3-1.6s-0.5-0.5-0.9-0.5c-0.4,0-0.7,0.2-0.9,0.5
	s-0.3,0.8-0.3,1.5v1.4c0,0.7,0.1,1.2,0.3,1.5s0.5,0.5,0.9,0.5c0.4,0,0.7-0.2,0.9-0.5s0.3-0.8,0.3-1.5V536.5z M391.6,541H390
	l-2.3-5.1v5.1h-1.6v-7.8h1.6l2.3,5.1v-5.1h1.6V541z M400.3,537.8h-2.5v3.2h-1.6v-7.8h4.3v1.3h-2.8v2h2.5V537.8z M407.4,537.8
	c0,1-0.2,1.9-0.7,2.4c-0.5,0.6-1.2,0.9-2.1,0.9c-0.9,0-1.6-0.3-2.1-0.9c-0.5-0.6-0.8-1.4-0.8-2.4v-1.3c0-1.1,0.2-1.9,0.7-2.5
	c0.5-0.6,1.2-0.9,2.1-0.9c0.9,0,1.6,0.3,2.1,0.9c0.5,0.6,0.8,1.4,0.8,2.5V537.8z M405.8,536.5c0-0.7-0.1-1.2-0.3-1.6
	c-0.2-0.3-0.5-0.5-0.9-0.5c-0.4,0-0.7,0.2-0.9,0.5c-0.2,0.3-0.3,0.8-0.3,1.5v1.4c0,0.7,0.1,1.2,0.3,1.5s0.5,0.5,0.9,0.5
	c0.4,0,0.7-0.2,0.9-0.5c0.2-0.3,0.3-0.8,0.3-1.5V536.5z M411.3,538.1h-0.8v2.9h-1.6v-7.8h2.5c0.8,0,1.4,0.2,1.8,0.6s0.6,1,0.6,1.7
	c0,1-0.4,1.8-1.1,2.2l1.4,3.2v0.1h-1.7L411.3,538.1z M410.5,536.8h0.9c0.3,0,0.6-0.1,0.7-0.3s0.2-0.5,0.2-0.8c0-0.8-0.3-1.2-0.9-1.2
	h-0.9V536.8z M417.5,533.2l1.5,5.7l1.5-5.7h2.1v7.8h-1.6v-2.1l0.1-3.3l-1.6,5.4h-1.1l-1.6-5.4l0.1,3.3v2.1h-1.6v-7.8H417.5z"/>
<polygon id="Path-4_4_" fill="#E4E7EF" points="270.5,644.5 270.5,646.5 375.5,646.5 375.5,590 373.5,590 373.5,644.5 "/>
<circle id="Oval--Copy-3_5_" fill="#575B66" cx="375.5" cy="587.5" r="3"/>
<circle id="Oval--Copy-3_6_" fill="#575B66" cx="372" cy="506" r="3"/>
<polygon id="Line_13_" fill="#E4E7EF" points="226,552 316,552 316,550 226,550 "/>
<circle id="Oval-R_4_" fill="#575B66" cx="313" cy="551" r="3"/>
<path id="Rectangle-7_8_" fill="#B8BECC" d="M126,586h116V463H126V586z M124,461h120v127H124V461z"/>
<circle id="Oval-4_24_" fill="#B8BECC" cx="132.5" cy="469.5" r="2.5"/>
<circle id="Oval-4_25_" fill="#B8BECC" cx="140.5" cy="469.5" r="2.5"/>
<circle id="Oval-4_26_" fill="#B8BECC" cx="148.5" cy="469.5" r="2.5"/>
<polygon id="Line_14_" fill="#B8BECC" points="126,477.8 242,477.8 242,475.8 126,475.8 "/>
<path id="Page-Title_6_" fill="#575B66" d="M137.1,504.6c0-0.4-0.1-0.7-0.3-0.9s-0.5-0.4-1.1-0.6c-0.9-0.4-1.6-0.8-2-1.2
	s-0.6-1-0.6-1.7c0-0.8,0.3-1.4,0.8-1.9s1.3-0.7,2.1-0.7c0.6,0,1.1,0.1,1.5,0.4s0.8,0.6,1,1s0.4,0.9,0.4,1.5h-1.9
	c0-0.4-0.1-0.8-0.3-1s-0.4-0.3-0.8-0.3c-0.3,0-0.6,0.1-0.8,0.3s-0.3,0.5-0.3,0.8c0,0.3,0.1,0.5,0.3,0.7s0.6,0.4,1.1,0.6
	c0.9,0.3,1.6,0.7,2,1.2s0.6,1.1,0.6,1.8c0,0.8-0.3,1.4-0.8,1.9c-0.5,0.5-1.2,0.7-2.1,0.7c-0.6,0-1.1-0.1-1.6-0.4s-0.9-0.6-1.2-1.1
	s-0.4-1-0.4-1.6h1.9c0,0.5,0.1,0.9,0.3,1.2s0.5,0.4,1,0.4C136.8,505.6,137.1,505.3,137.1,504.6z M143.2,497.8l1.7,6.7l1.7-6.7h2.4
	v9.2h-1.9v-2.5l0.2-3.9l-1.8,6.4h-1.3l-1.8-6.4l0.2,3.9v2.5h-1.9v-9.2H143.2z M155.6,505.1h-2.5l-0.5,1.9h-2l2.9-9.2h1.7l2.9,9.2h-2
	L155.6,505.1z M153.5,503.6h1.7l-0.9-3.3L153.5,503.6z M161.3,505.5h3.3v1.5h-5.1v-9.2h1.9V505.5z M168,505.5h3.3v1.5h-5.1v-9.2h1.9
	V505.5z M176.1,504.5c0-0.4,0.1-0.8,0.3-1.2s0.6-0.8,1.1-1.2c-0.2-0.4-0.4-0.7-0.6-1s-0.2-0.7-0.2-1c0-0.7,0.2-1.3,0.6-1.8
	s0.9-0.7,1.6-0.7c0.6,0,1.1,0.2,1.5,0.6s0.6,0.9,0.6,1.5c0,0.8-0.3,1.5-1,2l-0.5,0.4l1.2,1.7c0.1-0.4,0.2-0.9,0.2-1.4h1.5
	c0,1.2-0.2,2.1-0.7,2.9l1.2,1.7h-2l-0.3-0.5c-0.5,0.4-1.2,0.6-1.9,0.6c-0.8,0-1.4-0.2-1.9-0.7S176.1,505.3,176.1,504.5z
	 M178.8,505.6c0.3,0,0.6-0.1,0.9-0.3l-1.5-2.1l0,0c-0.2,0.3-0.3,0.7-0.3,1.1c0,0.4,0.1,0.7,0.3,0.9S178.5,505.6,178.8,505.6z
	 M178.3,500c0,0.3,0.1,0.7,0.4,1.1l0.3-0.2c0.2-0.1,0.3-0.3,0.4-0.4s0.1-0.3,0.1-0.6c0-0.2-0.1-0.4-0.2-0.6s-0.3-0.2-0.4-0.2
	c-0.2,0-0.3,0.1-0.4,0.3S178.3,499.8,178.3,500z M190.3,497.8l1.7,6.7l1.7-6.7h2.4v9.2h-1.9v-2.5l0.2-3.9l-1.8,6.4h-1.3l-1.8-6.4
	l0.2,3.9v2.5h-1.9v-9.2H190.3z M203,503h-2.9v2.5h3.4v1.5h-5.3v-9.2h5.3v1.6h-3.4v2.2h2.9V503z M205.1,507v-9.2h2.4
	c1.1,0,1.9,0.3,2.6,1s1,1.6,1,2.8v1.5c0,1.2-0.3,2.2-1,2.9s-1.5,1-2.7,1H205.1z M207,499.3v6.1h0.6c0.6,0,1.1-0.2,1.3-0.5
	s0.4-0.9,0.4-1.7v-1.6c0-0.9-0.1-1.5-0.4-1.8s-0.7-0.5-1.2-0.5H207z M214.9,507h-1.9v-9.2h1.9V507z M223,497.8v6.4
	c0,1-0.3,1.7-0.8,2.2s-1.3,0.8-2.2,0.8c-1,0-1.7-0.3-2.3-0.8s-0.8-1.3-0.8-2.2v-6.4h1.9v6.4c0,0.5,0.1,0.9,0.3,1.1s0.5,0.3,0.9,0.3
	s0.7-0.1,0.9-0.3s0.2-0.6,0.3-1.1v-6.4H223z M227.4,497.8l1.7,6.7l1.7-6.7h2.4v9.2h-1.9v-2.5l0.2-3.9l-1.8,6.4h-1.3l-1.8-6.4
	l0.2,3.9v2.5h-1.9v-9.2H227.4z M148.2,522v-9.2h2.9c1,0,1.7,0.2,2.2,0.6s0.8,1.1,0.8,1.9c0,0.5-0.1,0.9-0.3,1.2s-0.5,0.6-0.9,0.7
	c0.4,0.1,0.7,0.4,1,0.7s0.3,0.8,0.3,1.3c0,0.9-0.2,1.6-0.7,2c-0.5,0.5-1.2,0.7-2.1,0.7H148.2z M150.1,518v2.5h1.2
	c0.3,0,0.6-0.1,0.8-0.3s0.3-0.5,0.3-0.9c0-0.8-0.3-1.3-0.9-1.3H150.1z M150.1,516.6h1c0.7,0,1.1-0.4,1.1-1.1c0-0.4-0.1-0.7-0.3-0.9
	s-0.4-0.3-0.8-0.3h-1V516.6z M162,512.8v6.4c0,1-0.3,1.7-0.8,2.2s-1.3,0.8-2.2,0.8c-1,0-1.7-0.3-2.3-0.8s-0.8-1.3-0.8-2.2v-6.4h1.9
	v6.4c0,0.5,0.1,0.9,0.3,1.1s0.5,0.3,0.9,0.3s0.7-0.1,0.9-0.3s0.2-0.6,0.3-1.1v-6.4H162z M167.8,519.6c0-0.4-0.1-0.7-0.3-0.9
	s-0.5-0.4-1.1-0.6c-0.9-0.4-1.6-0.8-2-1.2s-0.6-1-0.6-1.7c0-0.8,0.3-1.4,0.8-1.9s1.3-0.7,2.1-0.7c0.6,0,1.1,0.1,1.5,0.4s0.8,0.6,1,1
	s0.4,0.9,0.4,1.5h-1.9c0-0.4-0.1-0.8-0.3-1s-0.4-0.3-0.8-0.3c-0.3,0-0.6,0.1-0.8,0.3s-0.3,0.5-0.3,0.8c0,0.3,0.1,0.5,0.3,0.7
	s0.6,0.4,1.1,0.6c0.9,0.3,1.6,0.7,2,1.2s0.6,1.1,0.6,1.8c0,0.8-0.3,1.4-0.8,1.9c-0.5,0.5-1.2,0.7-2.1,0.7c-0.6,0-1.1-0.1-1.6-0.4
	s-0.9-0.6-1.2-1.1s-0.4-1-0.4-1.6h1.9c0,0.5,0.1,0.9,0.3,1.2s0.5,0.4,1,0.4C167.5,520.6,167.8,520.3,167.8,519.6z M173.4,522h-1.9
	v-9.2h1.9V522z M181.9,522h-1.9l-2.7-6.1v6.1h-1.9v-9.2h1.9l2.7,6.1v-6.1h1.9V522z M188.7,518h-2.9v2.5h3.4v1.5h-5.3v-9.2h5.3v1.6
	h-3.4v2.2h2.9V518z M194.7,519.6c0-0.4-0.1-0.7-0.3-0.9s-0.5-0.4-1.1-0.6c-0.9-0.4-1.6-0.8-2-1.2s-0.6-1-0.6-1.7
	c0-0.8,0.3-1.4,0.8-1.9s1.3-0.7,2.1-0.7c0.6,0,1.1,0.1,1.5,0.4s0.8,0.6,1,1s0.4,0.9,0.4,1.5h-1.9c0-0.4-0.1-0.8-0.3-1
	s-0.4-0.3-0.8-0.3c-0.3,0-0.6,0.1-0.8,0.3s-0.3,0.5-0.3,0.8c0,0.3,0.1,0.5,0.3,0.7s0.6,0.4,1.1,0.6c0.9,0.3,1.6,0.7,2,1.2
	s0.6,1.1,0.6,1.8c0,0.8-0.3,1.4-0.8,1.9s-1.2,0.7-2.1,0.7c-0.6,0-1.1-0.1-1.6-0.4s-0.9-0.6-1.2-1.1s-0.4-1-0.4-1.6h1.9
	c0,0.5,0.1,0.9,0.3,1.2s0.5,0.4,1,0.4C194.4,520.6,194.7,520.3,194.7,519.6z M202.2,519.6c0-0.4-0.1-0.7-0.3-0.9s-0.5-0.4-1.1-0.6
	c-0.9-0.4-1.6-0.8-2-1.2s-0.6-1-0.6-1.7c0-0.8,0.3-1.4,0.8-1.9s1.3-0.7,2.1-0.7c0.6,0,1.1,0.1,1.5,0.4s0.8,0.6,1,1s0.4,0.9,0.4,1.5
	h-1.9c0-0.4-0.1-0.8-0.3-1s-0.4-0.3-0.8-0.3c-0.3,0-0.6,0.1-0.8,0.3s-0.3,0.5-0.3,0.8c0,0.3,0.1,0.5,0.3,0.7s0.6,0.4,1.1,0.6
	c0.9,0.3,1.6,0.7,2,1.2s0.6,1.1,0.6,1.8c0,0.8-0.3,1.4-0.8,1.9s-1.2,0.7-2.1,0.7c-0.6,0-1.1-0.1-1.6-0.4s-0.9-0.6-1.2-1.1
	s-0.4-1-0.4-1.6h1.9c0,0.5,0.1,0.9,0.3,1.2s0.5,0.4,1,0.4C201.9,520.6,202.2,520.3,202.2,519.6z M210.6,518h-2.9v2.5h3.4v1.5h-5.3
	v-9.2h5.3v1.6h-3.4v2.2h2.9V518z M216.6,519.6c0-0.4-0.1-0.7-0.3-0.9s-0.5-0.4-1.1-0.6c-0.9-0.4-1.6-0.8-2-1.2s-0.6-1-0.6-1.7
	c0-0.8,0.3-1.4,0.8-1.9s1.3-0.7,2.1-0.7c0.6,0,1.1,0.1,1.5,0.4s0.8,0.6,1,1s0.4,0.9,0.4,1.5h-1.9c0-0.4-0.1-0.8-0.3-1
	s-0.4-0.3-0.8-0.3c-0.3,0-0.6,0.1-0.8,0.3s-0.3,0.5-0.3,0.8c0,0.3,0.1,0.5,0.3,0.7s0.6,0.4,1.1,0.6c0.9,0.3,1.6,0.7,2,1.2
	s0.6,1.1,0.6,1.8c0,0.8-0.3,1.4-0.8,1.9c-0.5,0.5-1.2,0.7-2.1,0.7c-0.6,0-1.1-0.1-1.6-0.4s-0.9-0.6-1.2-1.1s-0.4-1-0.4-1.6h1.9
	c0,0.5,0.1,0.9,0.3,1.2s0.5,0.4,1,0.4C216.3,520.6,216.6,520.3,216.6,519.6z"/>
<path id="Rectangle_6_" fill="#E4E7EF" d="M144,561h80v-18h-80V561z M142,541h84v22h-84V541z"/>
<path id="Label_4_" fill="#575B66" d="M168.6,553.7c0-0.5-0.1-0.8-0.4-1.1c-0.2-0.2-0.7-0.5-1.4-0.7c-0.7-0.2-1.1-0.5-1.5-0.7
	c-0.3-0.3-0.6-0.5-0.8-0.9c-0.2-0.3-0.3-0.7-0.3-1.1c0-0.7,0.2-1.3,0.7-1.8c0.5-0.5,1.1-0.7,1.9-0.7c0.5,0,1,0.1,1.4,0.4
	c0.4,0.2,0.7,0.6,1,1s0.3,0.9,0.3,1.4h-1.2c0-0.6-0.1-1-0.4-1.3c-0.3-0.3-0.7-0.5-1.2-0.5c-0.5,0-0.8,0.1-1.1,0.4
	c-0.3,0.3-0.4,0.6-0.4,1.1c0,0.4,0.1,0.7,0.4,1c0.3,0.3,0.7,0.5,1.3,0.7c0.9,0.3,1.6,0.7,2,1.1c0.4,0.4,0.6,1,0.6,1.7
	c0,0.7-0.2,1.3-0.7,1.8c-0.5,0.5-1.1,0.7-2,0.7c-0.5,0-1-0.1-1.5-0.4c-0.5-0.2-0.8-0.6-1.1-1s-0.4-0.9-0.4-1.5h1.2
	c0,0.6,0.2,1,0.5,1.3s0.8,0.5,1.3,0.5c0.5,0,0.9-0.1,1.2-0.4C168.5,554.5,168.6,554.2,168.6,553.7z M172.6,556h-1.1v-6.9h1.1V556z
	 M172.7,547.4c0,0.2-0.1,0.3-0.2,0.5c-0.1,0.1-0.3,0.2-0.5,0.2c-0.2,0-0.4-0.1-0.5-0.2c-0.1-0.1-0.2-0.3-0.2-0.5s0.1-0.4,0.2-0.5
	c0.1-0.1,0.3-0.2,0.5-0.2c0.2,0,0.4,0.1,0.5,0.2S172.7,547.2,172.7,547.4z M174.3,552.3c0-1.1,0.2-1.9,0.6-2.4s1-0.8,1.7-0.8
	c0.7,0,1.2,0.3,1.6,0.9l0.1-0.8h1v6.9c0,0.9-0.2,1.5-0.7,2c-0.4,0.5-1,0.7-1.8,0.7c-0.3,0-0.7-0.1-1.1-0.3c-0.4-0.2-0.7-0.4-0.9-0.6
	l0.5-0.8c0.5,0.5,1,0.7,1.5,0.7c0.9,0,1.4-0.5,1.4-1.5v-0.9c-0.4,0.5-0.9,0.8-1.5,0.8c-0.7,0-1.3-0.3-1.7-0.8
	c-0.4-0.5-0.6-1.3-0.6-2.3V552.3z M175.5,552.9c0,0.8,0.1,1.3,0.3,1.7c0.2,0.4,0.6,0.5,1.1,0.5c0.6,0,1-0.3,1.3-0.9v-3.4
	c-0.3-0.6-0.7-0.8-1.2-0.8c-0.5,0-0.9,0.2-1.1,0.5s-0.3,0.9-0.3,1.7V552.9z M182.2,549.2l0,0.7c0.4-0.6,1-0.9,1.7-0.9
	c1.2,0,1.8,0.8,1.8,2.4v4.6h-1.1v-4.5c0-0.5-0.1-0.9-0.3-1.1c-0.2-0.2-0.4-0.3-0.8-0.3c-0.3,0-0.5,0.1-0.8,0.3
	c-0.2,0.2-0.4,0.4-0.5,0.7v5h-1.1v-6.9H182.2z M189.8,552.6h-2.6v-1h2.6V552.6z M196.8,546.8v6.6c0,0.9-0.3,1.6-0.8,2.1
	c-0.5,0.5-1.2,0.7-2.1,0.7c-0.9,0-1.6-0.2-2.1-0.7s-0.7-1.2-0.7-2.1v-6.6h1.2v6.5c0,0.6,0.1,1.1,0.4,1.4c0.3,0.3,0.7,0.5,1.3,0.5
	c0.6,0,1-0.2,1.3-0.5c0.3-0.3,0.4-0.8,0.4-1.4v-6.5H196.8z M203.6,552.9c0,1.1-0.2,1.9-0.6,2.4c-0.4,0.5-0.9,0.8-1.7,0.8
	c-0.7,0-1.2-0.3-1.6-0.8v3.3h-1.1v-9.5h1l0.1,0.8c0.4-0.6,0.9-0.9,1.6-0.9c0.8,0,1.3,0.3,1.7,0.8c0.4,0.5,0.6,1.3,0.6,2.4V552.9z
	 M202.5,552.3c0-0.8-0.1-1.3-0.4-1.7c-0.2-0.4-0.6-0.5-1.1-0.5c-0.5,0-0.9,0.3-1.2,0.8v3.6c0.3,0.5,0.7,0.8,1.2,0.8
	c0.5,0,0.9-0.2,1.1-0.5c0.2-0.4,0.4-0.9,0.4-1.7V552.3z"/>
<path id="Rectangle-7_9_" fill="#B8BECC" d="M184,672h86v-62h-86V672z M182,608h90v66h-90V608z"/>
<circle id="Oval-4_27_" fill="#B8BECC" cx="187.5" cy="613.5" r="1.5"/>
<circle id="Oval-4_28_" fill="#B8BECC" cx="192.5" cy="613.5" r="1.5"/>
<circle id="Oval-4_29_" fill="#B8BECC" cx="197.5" cy="613.5" r="1.5"/>
<polygon id="Line_15_" fill="#B8BECC" points="183.7,618.9 270.3,618.9 270.3,616.9 183.7,616.9 "/>
<path id="Page-Title_7_" fill="#575B66" d="M196.9,640.2v2.8h-1.6v-7.8h2.7c0.8,0,1.4,0.2,1.9,0.7s0.7,1.1,0.7,1.9s-0.2,1.4-0.7,1.8
	s-1.1,0.7-1.9,0.7H196.9z M196.9,638.9h1.1c0.3,0,0.5-0.1,0.7-0.3c0.2-0.2,0.2-0.5,0.2-0.9c0-0.4-0.1-0.7-0.3-0.9
	c-0.2-0.2-0.4-0.3-0.7-0.4h-1.1V638.9z M204.4,640.1h-0.8v2.9H202v-7.8h2.5c0.8,0,1.4,0.2,1.8,0.6c0.4,0.4,0.6,1,0.6,1.7
	c0,1-0.4,1.8-1.1,2.2l1.4,3.2v0.1h-1.7L204.4,640.1z M203.6,638.8h0.9c0.3,0,0.6-0.1,0.7-0.3c0.2-0.2,0.2-0.5,0.2-0.8
	c0-0.8-0.3-1.2-0.9-1.2h-0.9V638.8z M210.2,643h-1.6v-7.8h1.6V643z M217.2,640.4c0,0.9-0.3,1.6-0.8,2s-1.1,0.7-2,0.7
	c-0.9,0-1.6-0.3-2-0.9s-0.7-1.4-0.7-2.5v-1.3c0-1.1,0.2-1.9,0.7-2.5s1.2-0.9,2-0.9c0.9,0,1.5,0.2,1.9,0.7c0.4,0.5,0.7,1.2,0.8,2.1
	h-1.6c0-0.6-0.1-0.9-0.3-1.1s-0.4-0.3-0.9-0.3c-0.4,0-0.7,0.1-0.9,0.4s-0.3,0.8-0.3,1.5v1.5c0,0.8,0.1,1.3,0.3,1.6s0.5,0.4,0.9,0.4
	c0.4,0,0.7-0.1,0.9-0.3s0.2-0.6,0.3-1.1H217.2z M220.3,643h-1.6v-7.8h1.6V643z M227.5,643h-1.6l-2.3-5.1v5.1H222v-7.8h1.6l2.3,5.1
	v-5.1h1.6V643z M234.5,642.1c-0.3,0.3-0.7,0.6-1.1,0.7c-0.4,0.2-0.9,0.2-1.5,0.2c-0.9,0-1.6-0.3-2.1-0.8c-0.5-0.6-0.8-1.4-0.8-2.4
	v-1.4c0-1.1,0.2-1.9,0.7-2.5c0.5-0.6,1.2-0.9,2.1-0.9c0.8,0,1.5,0.2,1.9,0.6c0.4,0.4,0.7,1.1,0.7,2H233c0-0.5-0.1-0.8-0.3-1
	c-0.2-0.2-0.4-0.3-0.8-0.3c-0.4,0-0.7,0.2-0.9,0.5s-0.3,0.8-0.3,1.5v1.4c0,0.7,0.1,1.2,0.3,1.6c0.2,0.3,0.6,0.5,1.1,0.5
	c0.3,0,0.6-0.1,0.8-0.2l0.1-0.1v-1.4h-1.1v-1.2h2.7V642.1z M242.3,640.9c0-0.3-0.1-0.6-0.2-0.7s-0.5-0.3-0.9-0.5
	c-0.8-0.3-1.3-0.6-1.7-1s-0.5-0.9-0.5-1.4c0-0.7,0.2-1.2,0.7-1.6s1.1-0.6,1.8-0.6c0.5,0,0.9,0.1,1.3,0.3s0.7,0.5,0.9,0.9
	s0.3,0.8,0.3,1.3h-1.6c0-0.4-0.1-0.6-0.2-0.8s-0.4-0.3-0.7-0.3c-0.3,0-0.5,0.1-0.6,0.2s-0.2,0.4-0.2,0.7c0,0.2,0.1,0.4,0.3,0.6
	s0.5,0.4,0.9,0.5c0.8,0.3,1.3,0.6,1.7,1c0.3,0.4,0.5,0.9,0.5,1.5c0,0.7-0.2,1.2-0.6,1.6s-1,0.6-1.8,0.6c-0.5,0-1-0.1-1.4-0.3
	c-0.4-0.2-0.7-0.5-1-0.9s-0.4-0.8-0.4-1.4h1.6c0,0.5,0.1,0.8,0.3,1s0.5,0.3,0.9,0.3C242,641.8,242.3,641.5,242.3,640.9z
	 M247.4,635.2l1.5,5.7l1.5-5.7h2.1v7.8h-1.6v-2.1l0.1-3.3l-1.6,5.4h-1.1l-1.6-5.4l0.1,3.3v2.1h-1.6v-7.8H247.4z M258.2,639.6h-2.5
	v2.1h2.9v1.3h-4.5v-7.8h4.5v1.3h-2.9v1.8h2.5V639.6z"/>
<circle id="Oval--Copy-3_7_" fill="#575B66" cx="183" cy="643" r="3"/>
<path id="Rectangle-7_10_" fill="#B8BECC" d="M510,586h116v-78H510V586z M508,506h120v82H508V506z"/>
<circle id="Oval-4_30_" fill="#B8BECC" cx="513.5" cy="511.5" r="1.5"/>
<circle id="Oval-4_31_" fill="#B8BECC" cx="518.5" cy="511.5" r="1.5"/>
<circle id="Oval-4_32_" fill="#B8BECC" cx="523.5" cy="511.5" r="1.5"/>
<polygon id="Line_16_" fill="#B8BECC" points="510.2,517.2 625.8,517.2 625.8,515.2 510.2,515.2 "/>
<path id="Page-Title_8_" fill="#575B66" d="M526.9,537.7c0,1.3-0.3,2.2-1,2.8l1.1,1l-1,0.9l-1.4-1.3l-0.4,0c-0.9,0-1.6-0.3-2.1-0.9
	c-0.5-0.6-0.8-1.4-0.8-2.5v-1.2c0-1.1,0.2-1.9,0.7-2.5c0.5-0.6,1.2-0.9,2.1-0.9c0.9,0,1.5,0.3,2,0.9c0.5,0.6,0.8,1.4,0.8,2.4V537.7z
	 M525.3,536.5c0-0.7-0.1-1.2-0.3-1.6s-0.5-0.5-0.9-0.5s-0.7,0.2-0.9,0.5c-0.2,0.3-0.3,0.8-0.3,1.5v1.3c0,0.7,0.1,1.2,0.3,1.6
	c0.2,0.3,0.5,0.5,0.9,0.5c0.4,0,0.7-0.2,0.9-0.5c0.2-0.3,0.3-0.9,0.3-1.5V536.5z M533.5,533.2v5.4c0,0.8-0.2,1.4-0.7,1.9
	s-1.1,0.6-1.9,0.6c-0.8,0-1.5-0.2-1.9-0.7c-0.4-0.4-0.7-1.1-0.7-1.9v-5.4h1.6v5.4c0,0.4,0.1,0.8,0.2,1s0.4,0.3,0.8,0.3
	s0.6-0.1,0.8-0.3s0.2-0.5,0.2-0.9v-5.4H533.5z M536.8,541h-1.6v-7.8h1.6V541z M543.9,538.4c0,0.9-0.3,1.6-0.8,2s-1.1,0.7-2,0.7
	c-0.9,0-1.6-0.3-2-0.9c-0.5-0.6-0.7-1.4-0.7-2.5v-1.3c0-1.1,0.2-1.9,0.7-2.5c0.5-0.6,1.2-0.9,2-0.9c0.9,0,1.5,0.2,1.9,0.7
	c0.4,0.5,0.7,1.2,0.8,2.1h-1.6c0-0.6-0.1-0.9-0.3-1.1s-0.4-0.3-0.9-0.3c-0.4,0-0.7,0.1-0.9,0.4c-0.2,0.3-0.3,0.8-0.3,1.5v1.5
	c0,0.8,0.1,1.3,0.3,1.6c0.2,0.3,0.5,0.4,0.9,0.4c0.4,0,0.7-0.1,0.9-0.3c0.2-0.2,0.2-0.6,0.3-1.1H543.9z M547.5,538l-0.6,0.8v2.2
	h-1.6v-7.8h1.6v3.4l0.5-0.8l1.5-2.6h1.9l-2.2,3.4l2.3,4.4h-1.9L547.5,538z M555.1,538.9c0-0.3-0.1-0.6-0.2-0.7s-0.5-0.3-0.9-0.5
	c-0.8-0.3-1.3-0.6-1.7-1s-0.5-0.9-0.5-1.4c0-0.7,0.2-1.2,0.7-1.6s1.1-0.6,1.8-0.6c0.5,0,0.9,0.1,1.3,0.3s0.7,0.5,0.9,0.9
	s0.3,0.8,0.3,1.3h-1.6c0-0.4-0.1-0.6-0.2-0.8s-0.4-0.3-0.7-0.3c-0.3,0-0.5,0.1-0.6,0.2s-0.2,0.4-0.2,0.7c0,0.2,0.1,0.4,0.3,0.6
	s0.5,0.4,0.9,0.5c0.8,0.3,1.3,0.6,1.7,1s0.5,0.9,0.5,1.5c0,0.7-0.2,1.2-0.6,1.6s-1,0.6-1.8,0.6c-0.5,0-1-0.1-1.4-0.3s-0.7-0.5-1-0.9
	s-0.4-0.8-0.4-1.4h1.6c0,0.5,0.1,0.8,0.3,1s0.5,0.3,0.9,0.3C554.8,539.8,555.1,539.5,555.1,538.9z M563.2,534.5h-1.9v6.5h-1.6v-6.5
	h-1.9v-1.3h5.4V534.5z M567.6,539.4h-2.2L565,541h-1.7l2.4-7.8h1.4l2.5,7.8H568L567.6,539.4z M565.8,538.1h1.5l-0.7-2.8L565.8,538.1
	z M573.2,538.1h-0.8v2.9h-1.6v-7.8h2.5c0.8,0,1.4,0.2,1.8,0.6s0.6,1,0.6,1.7c0,1-0.4,1.8-1.1,2.2l1.4,3.2v0.1h-1.7L573.2,538.1z
	 M572.5,536.8h0.9c0.3,0,0.6-0.1,0.7-0.3s0.2-0.5,0.2-0.8c0-0.8-0.3-1.2-0.9-1.2h-0.9V536.8z M582.2,534.5h-1.9v6.5h-1.6v-6.5h-1.9
	v-1.3h5.4V534.5z M588.7,538.9l1.3-5.7h1.8l-2.3,7.8h-1.6l-2.2-7.8h1.8L588.7,538.9z M594.6,541H593v-7.8h1.6V541z M596.3,541v-7.8
	h2.1c0.9,0,1.6,0.3,2.2,0.9c0.5,0.6,0.8,1.4,0.8,2.4v1.3c0,1-0.3,1.8-0.8,2.4s-1.3,0.9-2.2,0.9H596.3z M597.9,534.5v5.2h0.5
	c0.5,0,0.9-0.1,1.1-0.4s0.3-0.8,0.3-1.4v-1.4c0-0.7-0.1-1.2-0.3-1.5s-0.6-0.4-1-0.5H597.9z M607,537.6h-2.5v2.1h2.9v1.3H603v-7.8
	h4.5v1.3h-2.9v1.8h2.5V537.6z M614.3,537.8c0,1-0.2,1.9-0.7,2.4c-0.5,0.6-1.2,0.9-2.1,0.9c-0.9,0-1.6-0.3-2.1-0.9
	c-0.5-0.6-0.8-1.4-0.8-2.4v-1.3c0-1.1,0.2-1.9,0.7-2.5s1.2-0.9,2.1-0.9c0.9,0,1.6,0.3,2.1,0.9c0.5,0.6,0.8,1.4,0.8,2.5V537.8z
	 M612.7,536.5c0-0.7-0.1-1.2-0.3-1.6c-0.2-0.3-0.5-0.5-0.9-0.5c-0.4,0-0.7,0.2-0.9,0.5s-0.3,0.8-0.3,1.5v1.4c0,0.7,0.1,1.2,0.3,1.5
	s0.5,0.5,0.9,0.5c0.4,0,0.7-0.2,0.9-0.5c0.2-0.3,0.3-0.8,0.3-1.5V536.5z"/>
<path id="Rectangle_7_" fill="#E4E7EF" d="M536,574h65v-18h-65V574z M534,554h69v22h-69V554z"/>
<path id="Label_5_" fill="#575B66" d="M548.4,566.7c0-0.5-0.1-0.8-0.4-1.1c-0.2-0.2-0.7-0.5-1.4-0.7c-0.7-0.2-1.2-0.5-1.5-0.7
	c-0.3-0.3-0.6-0.5-0.8-0.9c-0.2-0.3-0.3-0.7-0.3-1.1c0-0.7,0.2-1.3,0.7-1.8c0.5-0.5,1.1-0.7,1.9-0.7c0.5,0,1,0.1,1.4,0.4
	c0.4,0.2,0.7,0.6,1,1s0.3,0.9,0.3,1.4h-1.2c0-0.6-0.1-1-0.4-1.3c-0.3-0.3-0.7-0.5-1.2-0.5c-0.5,0-0.8,0.1-1.1,0.4
	c-0.3,0.3-0.4,0.6-0.4,1.1c0,0.4,0.1,0.7,0.4,1c0.3,0.3,0.7,0.5,1.3,0.7c0.9,0.3,1.6,0.7,2,1.1c0.4,0.4,0.6,1,0.6,1.7
	c0,0.7-0.2,1.3-0.7,1.8c-0.5,0.5-1.1,0.7-2,0.7c-0.5,0-1-0.1-1.5-0.4c-0.5-0.2-0.8-0.6-1.1-1s-0.4-0.9-0.4-1.5h1.2
	c0,0.6,0.2,1,0.5,1.3c0.3,0.3,0.8,0.5,1.3,0.5c0.5,0,0.9-0.1,1.2-0.4C548.3,567.5,548.4,567.2,548.4,566.7z M552.6,560.5v1.7h1v0.9
	h-1v4.3c0,0.3,0,0.5,0.1,0.6s0.2,0.2,0.5,0.2c0.1,0,0.3,0,0.5-0.1l0,1c-0.3,0.1-0.5,0.1-0.8,0.1c-0.4,0-0.8-0.2-1-0.5
	c-0.2-0.3-0.3-0.8-0.3-1.3v-4.3h-1v-0.9h1v-1.7H552.6z M558.8,569c-0.1-0.1-0.1-0.4-0.1-0.7c-0.4,0.6-0.9,0.9-1.5,0.9
	c-0.6,0-1.1-0.2-1.5-0.5s-0.5-0.8-0.5-1.5c0-0.7,0.2-1.3,0.7-1.7c0.5-0.4,1.1-0.6,1.9-0.6h0.8v-0.7c0-0.4-0.1-0.7-0.3-0.9
	c-0.2-0.2-0.5-0.3-0.8-0.3c-0.3,0-0.6,0.1-0.8,0.3c-0.2,0.2-0.3,0.5-0.3,0.8h-1.1c0-0.4,0.1-0.7,0.3-1c0.2-0.3,0.5-0.6,0.8-0.8
	c0.4-0.2,0.7-0.3,1.2-0.3c0.7,0,1.2,0.2,1.6,0.5c0.4,0.3,0.6,0.9,0.6,1.5v3.5c0,0.5,0.1,1,0.2,1.4v0.1H558.8z M557.3,568.2
	c0.3,0,0.5-0.1,0.8-0.2c0.2-0.2,0.4-0.3,0.5-0.6v-1.6H558c-0.5,0-1,0.1-1.3,0.4c-0.3,0.2-0.5,0.6-0.5,1c0,0.4,0.1,0.7,0.2,0.8
	C556.6,568.1,556.9,568.2,557.3,568.2z M564.5,563.2c-0.2,0-0.3,0-0.5,0c-0.6,0-1,0.3-1.2,0.9v4.9h-1.1v-6.9h1.1l0,0.7
	c0.3-0.6,0.7-0.8,1.3-0.8c0.2,0,0.3,0,0.4,0.1L564.5,563.2z M567.6,560.5v1.7h1v0.9h-1v4.3c0,0.3,0,0.5,0.1,0.6s0.2,0.2,0.5,0.2
	c0.1,0,0.3,0,0.5-0.1l0,1c-0.3,0.1-0.5,0.1-0.8,0.1c-0.4,0-0.8-0.2-1-0.5c-0.2-0.3-0.3-0.8-0.3-1.3v-4.3h-1v-0.9h1v-1.7H567.6z
	 M574.9,560.5v1.7h1v0.9h-1v4.3c0,0.3,0,0.5,0.1,0.6s0.2,0.2,0.5,0.2c0.1,0,0.3,0,0.5-0.1l0,1c-0.3,0.1-0.5,0.1-0.8,0.1
	c-0.4,0-0.8-0.2-1-0.5s-0.3-0.8-0.3-1.3v-4.3h-1v-0.9h1v-1.7H574.9z M580.3,563.2c-0.2,0-0.3,0-0.5,0c-0.6,0-1,0.3-1.2,0.9v4.9h-1.1
	v-6.9h1.1l0,0.7c0.3-0.6,0.7-0.8,1.3-0.8c0.2,0,0.3,0,0.4,0.1L580.3,563.2z M582.8,569h-1.1v-6.9h1.1V569z M582.9,560.4
	c0,0.2-0.1,0.3-0.2,0.5c-0.1,0.1-0.3,0.2-0.5,0.2c-0.2,0-0.4-0.1-0.5-0.2c-0.1-0.1-0.2-0.3-0.2-0.5s0.1-0.4,0.2-0.5
	c0.1-0.1,0.3-0.2,0.5-0.2c0.2,0,0.4,0.1,0.5,0.2S582.9,560.2,582.9,560.4z M588.4,569c-0.1-0.1-0.1-0.4-0.1-0.7
	c-0.4,0.6-0.9,0.9-1.5,0.9c-0.6,0-1.1-0.2-1.5-0.5s-0.5-0.8-0.5-1.5c0-0.7,0.2-1.3,0.7-1.7c0.5-0.4,1.1-0.6,1.9-0.6h0.8v-0.7
	c0-0.4-0.1-0.7-0.3-0.9c-0.2-0.2-0.5-0.3-0.8-0.3c-0.3,0-0.6,0.1-0.8,0.3c-0.2,0.2-0.3,0.5-0.3,0.8h-1.1c0-0.4,0.1-0.7,0.3-1
	c0.2-0.3,0.5-0.6,0.8-0.8c0.4-0.2,0.7-0.3,1.2-0.3c0.7,0,1.2,0.2,1.6,0.5c0.4,0.3,0.6,0.9,0.6,1.5v3.5c0,0.5,0.1,1,0.2,1.4v0.1
	H588.4z M586.9,568.2c0.3,0,0.5-0.1,0.8-0.2c0.2-0.2,0.4-0.3,0.5-0.6v-1.6h-0.6c-0.5,0-1,0.1-1.3,0.4c-0.3,0.2-0.5,0.6-0.5,1
	c0,0.4,0.1,0.7,0.2,0.8C586.2,568.1,586.5,568.2,586.9,568.2z M592.5,569h-1.1v-9.8h1.1V569z"/>
<polygon id="Path-4_7_" fill="#E4E7EF" points="32.5,248 30.5,248 30.5,534 122.5,534 122.5,532 32.5,532 "/>
<circle id="Oval--Copy-3_8_" fill="#575B66" cx="125" cy="533" r="3"/>
<path id="Rectangle-7_11_" fill="#B8BECC" d="M670,388v78h116v-78H670z M668,386h120v82H668V386z"/>
<circle id="Oval-4_33_" fill="#B8BECC" cx="673.5" cy="391.5" r="1.5"/>
<circle id="Oval-4_34_" fill="#B8BECC" cx="678.5" cy="391.5" r="1.5"/>
<circle id="Oval-4_35_" fill="#B8BECC" cx="683.5" cy="391.5" r="1.5"/>
<polygon id="Line_17_" fill="#B8BECC" points="670.2,397.2 785.8,397.2 785.8,395.2 670.2,395.2 "/>
<path id="Page-Title_9_" fill="#575B66" d="M686.7,418.4c0,0.9-0.3,1.6-0.8,2s-1.1,0.7-2,0.7c-0.9,0-1.6-0.3-2-0.9s-0.7-1.4-0.7-2.5
	v-1.3c0-1.1,0.2-1.9,0.7-2.5s1.2-0.9,2-0.9c0.9,0,1.5,0.2,1.9,0.7c0.4,0.5,0.7,1.2,0.8,2.1h-1.6c0-0.6-0.1-0.9-0.3-1.1
	s-0.4-0.3-0.9-0.3c-0.4,0-0.7,0.1-0.9,0.4s-0.3,0.8-0.3,1.5v1.5c0,0.8,0.1,1.3,0.3,1.6s0.5,0.4,0.9,0.4c0.4,0,0.7-0.1,0.9-0.3
	s0.2-0.6,0.3-1.1H686.7z M693.6,421H692v-3.3h-2.3v3.3h-1.6v-7.8h1.6v3.2h2.3v-3.2h1.6V421z M700.8,417.8c0,1-0.2,1.9-0.7,2.4
	c-0.5,0.6-1.2,0.9-2.1,0.9c-0.9,0-1.6-0.3-2.1-0.9c-0.5-0.6-0.8-1.4-0.8-2.4v-1.3c0-1.1,0.2-1.9,0.7-2.5c0.5-0.6,1.2-0.9,2.1-0.9
	c0.9,0,1.6,0.3,2.1,0.9c0.5,0.6,0.8,1.4,0.8,2.5V417.8z M699.2,416.5c0-0.7-0.1-1.2-0.3-1.6c-0.2-0.3-0.5-0.5-0.9-0.5
	c-0.4,0-0.7,0.2-0.9,0.5c-0.2,0.3-0.3,0.8-0.3,1.5v1.4c0,0.7,0.1,1.2,0.3,1.5s0.5,0.5,0.9,0.5c0.4,0,0.7-0.2,0.9-0.5
	c0.2-0.3,0.3-0.8,0.3-1.5V416.5z M707.8,417.8c0,1-0.2,1.9-0.7,2.4c-0.5,0.6-1.2,0.9-2.1,0.9c-0.9,0-1.6-0.3-2.1-0.9
	c-0.5-0.6-0.8-1.4-0.8-2.4v-1.3c0-1.1,0.2-1.9,0.7-2.5c0.5-0.6,1.2-0.9,2.1-0.9c0.9,0,1.6,0.3,2.1,0.9c0.5,0.6,0.8,1.4,0.8,2.5
	V417.8z M706.2,416.5c0-0.7-0.1-1.2-0.3-1.6c-0.2-0.3-0.5-0.5-0.9-0.5c-0.4,0-0.7,0.2-0.9,0.5c-0.2,0.3-0.3,0.8-0.3,1.5v1.4
	c0,0.7,0.1,1.2,0.3,1.5s0.5,0.5,0.9,0.5c0.4,0,0.7-0.2,0.9-0.5c0.2-0.3,0.3-0.8,0.3-1.5V416.5z M712.7,418.9c0-0.3-0.1-0.6-0.2-0.7
	s-0.5-0.3-0.9-0.5c-0.8-0.3-1.3-0.6-1.7-1s-0.5-0.9-0.5-1.4c0-0.7,0.2-1.2,0.7-1.6s1.1-0.6,1.8-0.6c0.5,0,0.9,0.1,1.3,0.3
	s0.7,0.5,0.9,0.9s0.3,0.8,0.3,1.3h-1.6c0-0.4-0.1-0.6-0.2-0.8s-0.4-0.3-0.7-0.3c-0.3,0-0.5,0.1-0.6,0.2s-0.2,0.4-0.2,0.7
	c0,0.2,0.1,0.4,0.3,0.6s0.5,0.4,0.9,0.5c0.8,0.3,1.3,0.6,1.7,1s0.5,0.9,0.5,1.5c0,0.7-0.2,1.2-0.6,1.6s-1,0.6-1.8,0.6
	c-0.5,0-1-0.1-1.4-0.3s-0.7-0.5-1-0.9s-0.4-0.8-0.4-1.4h1.6c0,0.5,0.1,0.8,0.3,1s0.5,0.3,0.9,0.3
	C712.4,419.8,712.7,419.5,712.7,418.9z M719.8,417.6h-2.5v2.1h2.9v1.3h-4.5v-7.8h4.5v1.3h-2.9v1.8h2.5V417.6z M726.1,418.2v2.8h-1.6
	v-7.8h2.7c0.8,0,1.4,0.2,1.9,0.7s0.7,1.1,0.7,1.9s-0.2,1.4-0.7,1.8s-1.1,0.7-1.9,0.7H726.1z M726.1,416.9h1.1c0.3,0,0.5-0.1,0.7-0.3
	s0.2-0.5,0.2-0.9c0-0.4-0.1-0.7-0.3-0.9s-0.4-0.3-0.7-0.4h-1.1V416.9z M734,419.4h-2.2l-0.4,1.6h-1.7l2.4-7.8h1.4l2.5,7.8h-1.7
	L734,419.4z M732.2,418.1h1.5l-0.7-2.8L732.2,418.1z M740.5,418.9c0-0.3-0.1-0.6-0.2-0.7c-0.2-0.2-0.5-0.3-0.9-0.5
	c-0.8-0.3-1.3-0.6-1.7-1s-0.5-0.9-0.5-1.4c0-0.7,0.2-1.2,0.7-1.6s1.1-0.6,1.8-0.6c0.5,0,0.9,0.1,1.3,0.3s0.7,0.5,0.9,0.9
	c0.2,0.4,0.3,0.8,0.3,1.3h-1.6c0-0.4-0.1-0.6-0.2-0.8s-0.4-0.3-0.7-0.3c-0.3,0-0.5,0.1-0.6,0.2c-0.2,0.2-0.2,0.4-0.2,0.7
	c0,0.2,0.1,0.4,0.3,0.6s0.5,0.4,0.9,0.5c0.8,0.3,1.3,0.6,1.7,1c0.3,0.4,0.5,0.9,0.5,1.5c0,0.7-0.2,1.2-0.6,1.6
	c-0.4,0.4-1,0.6-1.8,0.6c-0.5,0-1-0.1-1.4-0.3c-0.4-0.2-0.7-0.5-1-0.9c-0.2-0.4-0.4-0.8-0.4-1.4h1.6c0,0.5,0.1,0.8,0.3,1
	c0.2,0.2,0.5,0.3,0.9,0.3C740.3,419.8,740.5,419.5,740.5,418.9z M746.9,418.9c0-0.3-0.1-0.6-0.2-0.7s-0.5-0.3-0.9-0.5
	c-0.8-0.3-1.3-0.6-1.7-1s-0.5-0.9-0.5-1.4c0-0.7,0.2-1.2,0.7-1.6s1.1-0.6,1.8-0.6c0.5,0,0.9,0.1,1.3,0.3s0.7,0.5,0.9,0.9
	s0.3,0.8,0.3,1.3h-1.6c0-0.4-0.1-0.6-0.2-0.8s-0.4-0.3-0.7-0.3c-0.3,0-0.5,0.1-0.6,0.2s-0.2,0.4-0.2,0.7c0,0.2,0.1,0.4,0.3,0.6
	s0.5,0.4,0.9,0.5c0.8,0.3,1.3,0.6,1.7,1s0.5,0.9,0.5,1.5c0,0.7-0.2,1.2-0.6,1.6s-1,0.6-1.8,0.6c-0.5,0-1-0.1-1.4-0.3s-0.7-0.5-1-0.9
	s-0.4-0.8-0.4-1.4h1.6c0,0.5,0.1,0.8,0.3,1s0.5,0.3,0.9,0.3C746.6,419.8,746.9,419.5,746.9,418.9z M755,418.1l0.7-4.9h1.6L756,421
	h-1.6l-0.9-4.6l-0.9,4.6H751l-1.4-7.8h1.6l0.7,4.9l0.9-4.9h1.3L755,418.1z M764.1,417.8c0,1-0.2,1.9-0.7,2.4
	c-0.5,0.6-1.2,0.9-2.1,0.9c-0.9,0-1.6-0.3-2.1-0.9c-0.5-0.6-0.8-1.4-0.8-2.4v-1.3c0-1.1,0.2-1.9,0.7-2.5c0.5-0.6,1.2-0.9,2.1-0.9
	c0.9,0,1.6,0.3,2.1,0.9c0.5,0.6,0.8,1.4,0.8,2.5V417.8z M762.5,416.5c0-0.7-0.1-1.2-0.3-1.6c-0.2-0.3-0.5-0.5-0.9-0.5
	c-0.4,0-0.7,0.2-0.9,0.5c-0.2,0.3-0.3,0.8-0.3,1.5v1.4c0,0.7,0.1,1.2,0.3,1.5s0.5,0.5,0.9,0.5c0.4,0,0.7-0.2,0.9-0.5
	c0.2-0.3,0.3-0.8,0.3-1.5V416.5z M768.1,418.1h-0.8v2.9h-1.6v-7.8h2.5c0.8,0,1.4,0.2,1.8,0.6c0.4,0.4,0.6,1,0.6,1.7
	c0,1-0.4,1.8-1.1,2.2l1.4,3.2v0.1h-1.7L768.1,418.1z M767.3,416.8h0.9c0.3,0,0.6-0.1,0.7-0.3s0.2-0.5,0.2-0.8c0-0.8-0.3-1.2-0.9-1.2
	h-0.9V416.8z M772.2,421v-7.8h2.1c0.9,0,1.6,0.3,2.2,0.9s0.8,1.4,0.8,2.4v1.3c0,1-0.3,1.8-0.8,2.4s-1.3,0.9-2.2,0.9H772.2z
	 M773.8,414.5v5.2h0.5c0.5,0,0.9-0.1,1.1-0.4s0.3-0.8,0.3-1.4v-1.4c0-0.7-0.1-1.2-0.3-1.5s-0.6-0.4-1-0.5H773.8z"/>
<polygon id="Path-4_8_" fill="#E4E7EF" points="570.7,307 568.7,307 568.7,434 665.5,434 665.5,432 570.7,432 "/>
<circle id="Oval--Copy-3_9_" fill="#575B66" cx="668" cy="433" r="3"/>
<polygon id="Line_18_" fill="#E4E7EF" points="432,552 511,552 511,550 432,550 "/>
<circle id="Oval-R_5_" fill="#575B66" cx="508" cy="551" r="3"/>
<polygon id="Path-4_9_" fill="#E4E7EF" points="601.5,562.9 601.5,564.9 728.5,564.9 728.5,470 726.5,470 726.5,562.9 "/>
<circle id="Oval--Copy-3_10_" fill="#575B66" cx="728.5" cy="467.5" r="3"/>
<path id="Rectangle-7_12_" fill="#B8BECC" d="M2,786v78h116v-78H2z M0,784h120v82H0V784z"/>
<circle id="Oval-4_36_" fill="#B8BECC" cx="8.5" cy="792.5" r="2.5"/>
<circle id="Oval-4_37_" fill="#B8BECC" cx="16.5" cy="792.5" r="2.5"/>
<circle id="Oval-4_38_" fill="#B8BECC" cx="24.5" cy="792.5" r="2.5"/>
<polygon id="Line_19_" fill="#B8BECC" points="2,800.5 118,800.5 118,798.5 2,798.5 "/>
<path id="Page-Title_10_" fill="#575B66" d="M22.6,822.3h-2.3v7.7h-1.9v-7.7h-2.2v-1.6h6.4V822.3z M28.9,826H26v2.5h3.4v1.5h-5.3
	v-9.2h5.3v1.6H26v2.2h2.9V826z M34.9,827.6c0-0.4-0.1-0.7-0.3-0.9s-0.5-0.4-1.1-0.6c-0.9-0.4-1.6-0.8-2-1.2s-0.6-1-0.6-1.7
	c0-0.8,0.3-1.4,0.8-1.9c0.6-0.5,1.3-0.7,2.1-0.7c0.6,0,1.1,0.1,1.5,0.4s0.8,0.6,1,1s0.4,0.9,0.4,1.5h-1.9c0-0.4-0.1-0.8-0.3-1
	s-0.4-0.3-0.8-0.3c-0.3,0-0.6,0.1-0.8,0.3s-0.3,0.5-0.3,0.8c0,0.3,0.1,0.5,0.3,0.7s0.6,0.4,1.1,0.6c0.9,0.3,1.6,0.7,2,1.2
	s0.6,1.1,0.6,1.8c0,0.8-0.3,1.4-0.8,1.9s-1.2,0.7-2.1,0.7c-0.6,0-1.1-0.1-1.6-0.4c-0.5-0.2-0.9-0.6-1.2-1.1s-0.4-1-0.4-1.6h1.9
	c0,0.5,0.1,0.9,0.3,1.2s0.5,0.4,1,0.4C34.6,828.6,34.9,828.3,34.9,827.6z M44.5,822.3h-2.3v7.7h-1.9v-7.7h-2.2v-1.6h6.4V822.3z
	 M48,830h-1.9v-9.2H48V830z M52.5,820.8l1.7,6.7l1.7-6.7h2.4v9.2h-1.9v-2.5l0.2-3.9l-1.8,6.4h-1.3l-1.8-6.4l0.2,3.9v2.5h-1.9v-9.2
	H52.5z M67,826.2c0,1.2-0.3,2.2-0.9,2.9s-1.4,1-2.4,1c-1,0-1.9-0.3-2.4-1s-0.9-1.6-0.9-2.9v-1.6c0-1.3,0.3-2.3,0.9-3
	s1.4-1.1,2.5-1.1c1,0,1.8,0.4,2.4,1.1s0.9,1.7,0.9,2.9V826.2z M65.1,824.7c0-0.8-0.1-1.5-0.4-1.9s-0.6-0.6-1.1-0.6
	c-0.5,0-0.9,0.2-1.1,0.6s-0.4,1-0.4,1.8v1.6c0,0.8,0.1,1.4,0.4,1.8s0.6,0.6,1.1,0.6c0.5,0,0.8-0.2,1.1-0.6s0.4-1,0.4-1.7V824.7z
	 M75.3,830h-1.9l-2.7-6.1v6.1h-1.9v-9.2h1.9l2.7,6.1v-6.1h1.9V830z M79.2,830h-1.9v-9.2h1.9V830z M85.8,828.1h-2.5l-0.5,1.9h-2
	l2.9-9.2h1.7l2.9,9.2h-2L85.8,828.1z M83.7,826.6h1.7l-0.9-3.3L83.7,826.6z M91.5,828.5h3.3v1.5h-5.1v-9.2h1.9V828.5z M100.3,827.6
	c0-0.4-0.1-0.7-0.3-0.9c-0.2-0.2-0.5-0.4-1.1-0.6c-0.9-0.4-1.6-0.8-2-1.2s-0.6-1-0.6-1.7c0-0.8,0.3-1.4,0.8-1.9s1.3-0.7,2.1-0.7
	c0.6,0,1.1,0.1,1.5,0.4s0.8,0.6,1,1s0.4,0.9,0.4,1.5h-1.9c0-0.4-0.1-0.8-0.3-1s-0.4-0.3-0.8-0.3c-0.3,0-0.6,0.1-0.8,0.3
	s-0.3,0.5-0.3,0.8c0,0.3,0.1,0.5,0.3,0.7s0.6,0.4,1.1,0.6c0.9,0.3,1.6,0.7,2,1.2s0.6,1.1,0.6,1.8c0,0.8-0.3,1.4-0.8,1.9
	s-1.2,0.7-2.1,0.7c-0.6,0-1.1-0.1-1.6-0.4s-0.9-0.6-1.2-1.1s-0.4-1-0.4-1.6H98c0,0.5,0.1,0.9,0.3,1.2s0.5,0.4,1,0.4
	C100,828.6,100.3,828.3,100.3,827.6z"/>
<polygon id="Line_20_" fill="#E4E7EF" points="30.5,533.5 30.5,788.5 32.5,788.5 32.5,533.5 "/>
<circle id="Oval-R_6_" fill="#575B66" cx="31.5" cy="785.5" r="3"/>
<path id="Rectangle-7_13_" fill="#B8BECC" d="M191,786v78h116v-78H191z M189,784h120v82H189V784z"/>
<circle id="Oval-4_39_" fill="#B8BECC" cx="197.5" cy="792.5" r="2.5"/>
<circle id="Oval-4_40_" fill="#B8BECC" cx="205.5" cy="792.5" r="2.5"/>
<circle id="Oval-4_41_" fill="#B8BECC" cx="213.5" cy="792.5" r="2.5"/>
<polygon id="Line_21_" fill="#B8BECC" points="191,800.5 307,800.5 307,798.5 191,798.5 "/>
<path id="Page-Title_11_" fill="#575B66" d="M226.9,828.1h-2.5l-0.5,1.9h-2l2.9-9.2h1.7l2.9,9.2h-2L226.9,828.1z M224.8,826.6h1.7
	l-0.9-3.3L224.8,826.6z M230.8,830v-9.2h2.4c1.1,0,1.9,0.3,2.6,1s1,1.6,1,2.8v1.5c0,1.2-0.3,2.2-1,2.9s-1.5,1-2.7,1H230.8z
	 M232.6,822.3v6.1h0.6c0.6,0,1.1-0.2,1.3-0.5s0.4-0.9,0.4-1.7v-1.6c0-0.9-0.1-1.5-0.4-1.8s-0.7-0.5-1.2-0.5H232.6z M238.6,830v-9.2
	h2.4c1.1,0,1.9,0.3,2.6,1s1,1.6,1,2.8v1.5c0,1.2-0.3,2.2-1,2.9s-1.5,1-2.7,1H238.6z M240.5,822.3v6.1h0.6c0.6,0,1.1-0.2,1.3-0.5
	s0.4-0.9,0.4-1.7v-1.6c0-0.9-0.1-1.5-0.4-1.8s-0.7-0.5-1.2-0.5H240.5z M249.6,826.8h-3.1v-1.5h3.1V826.8z M258.2,826.2
	c0,1.2-0.3,2.2-0.9,2.9s-1.4,1-2.4,1c-1,0-1.9-0.3-2.4-1s-0.9-1.6-0.9-2.9v-1.6c0-1.3,0.3-2.3,0.9-3s1.4-1.1,2.5-1.1
	c1,0,1.8,0.4,2.4,1.1s0.9,1.7,0.9,2.9V826.2z M256.3,824.7c0-0.8-0.1-1.5-0.4-1.9c-0.2-0.4-0.6-0.6-1.1-0.6c-0.5,0-0.9,0.2-1.1,0.6
	s-0.4,1-0.4,1.8v1.6c0,0.8,0.1,1.4,0.4,1.8s0.6,0.6,1.1,0.6c0.5,0,0.8-0.2,1.1-0.6c0.2-0.4,0.4-1,0.4-1.7V824.7z M266.5,830h-1.9
	l-2.7-6.1v6.1H260v-9.2h1.9l2.7,6.1v-6.1h1.9V830z M272.4,827.6c0-0.4-0.1-0.7-0.3-0.9s-0.5-0.4-1.1-0.6c-0.9-0.4-1.6-0.8-2-1.2
	s-0.6-1-0.6-1.7c0-0.8,0.3-1.4,0.8-1.9s1.3-0.7,2.1-0.7c0.6,0,1.1,0.1,1.5,0.4s0.8,0.6,1,1s0.4,0.9,0.4,1.5h-1.9
	c0-0.4-0.1-0.8-0.3-1s-0.4-0.3-0.8-0.3c-0.3,0-0.6,0.1-0.8,0.3s-0.3,0.5-0.3,0.8c0,0.3,0.1,0.5,0.3,0.7s0.6,0.4,1.1,0.6
	c0.9,0.3,1.6,0.7,2,1.2s0.6,1.1,0.6,1.8c0,0.8-0.3,1.4-0.8,1.9s-1.2,0.7-2.1,0.7c-0.6,0-1.1-0.1-1.6-0.4s-0.9-0.6-1.2-1.1
	s-0.4-1-0.4-1.6h1.9c0,0.5,0.1,0.9,0.3,1.2s0.5,0.4,1,0.4C272.1,828.6,272.4,828.3,272.4,827.6z"/>
<polygon id="Line_22_" fill="#E4E7EF" points="220,736 220,788 222,788 222,736 "/>
<circle id="Oval-R_7_" fill="#575B66" cx="221" cy="785" r="3"/>
<path id="Rectangle-7_14_" fill="#B8BECC" d="M381,786v78h116v-78H381z M379,784h120v82H379V784z"/>
<circle id="Oval-4_42_" fill="#B8BECC" cx="387.5" cy="792.5" r="2.5"/>
<circle id="Oval-4_43_" fill="#B8BECC" cx="395.5" cy="792.5" r="2.5"/>
<circle id="Oval-4_44_" fill="#B8BECC" cx="403.5" cy="792.5" r="2.5"/>
<polygon id="Line_23_" fill="#B8BECC" points="381,800.5 497,800.5 497,798.5 381,798.5 "/>
<path id="Page-Title_12_" fill="#575B66" d="M405.8,820.8l1.7,6.7l1.7-6.7h2.4v9.2h-1.9v-2.5l0.2-3.9l-1.8,6.4H407l-1.8-6.4l0.2,3.9
	v2.5h-1.9v-9.2H405.8z M420.3,826.2c0,1.2-0.3,2.2-0.9,2.9s-1.4,1-2.4,1c-1,0-1.9-0.3-2.4-1s-0.9-1.6-0.9-2.9v-1.6
	c0-1.3,0.3-2.3,0.9-3s1.4-1.1,2.5-1.1c1,0,1.8,0.4,2.4,1.1s0.9,1.7,0.9,2.9V826.2z M418.4,824.7c0-0.8-0.1-1.5-0.4-1.9
	s-0.6-0.6-1.1-0.6c-0.5,0-0.9,0.2-1.1,0.6s-0.4,1-0.4,1.8v1.6c0,0.8,0.1,1.4,0.4,1.8s0.6,0.6,1.1,0.6c0.5,0,0.8-0.2,1.1-0.6
	s0.4-1,0.4-1.7V824.7z M422.1,830v-9.2h2.9c1,0,1.7,0.2,2.2,0.6s0.8,1.1,0.8,1.9c0,0.5-0.1,0.9-0.3,1.2s-0.5,0.6-0.9,0.7
	c0.4,0.1,0.7,0.4,1,0.7s0.3,0.8,0.3,1.3c0,0.9-0.2,1.6-0.7,2s-1.2,0.7-2.1,0.7H422.1z M424,826v2.5h1.2c0.3,0,0.6-0.1,0.8-0.3
	s0.3-0.5,0.3-0.9c0-0.8-0.3-1.3-0.9-1.3H424z M424,824.6h1c0.7,0,1.1-0.4,1.1-1.1c0-0.4-0.1-0.7-0.3-0.9s-0.4-0.3-0.8-0.3h-1V824.6z
	 M431.9,830H430v-9.2h1.9V830z M435.8,828.5h3.3v1.5h-5.1v-9.2h1.9V828.5z M445.4,826h-2.9v2.5h3.4v1.5h-5.3v-9.2h5.3v1.6h-3.4v2.2
	h2.9V826z M455.4,828.1h-2.5l-0.5,1.9h-2l2.9-9.2h1.7l2.9,9.2h-2L455.4,828.1z M453.3,826.6h1.7l-0.9-3.3L453.3,826.6z M461.2,826.8
	v3.2h-1.9v-9.2h3.1c0.9,0,1.6,0.3,2.2,0.9s0.8,1.3,0.8,2.2s-0.3,1.6-0.8,2.1s-1.3,0.8-2.2,0.8H461.2z M461.2,825.2h1.3
	c0.4,0,0.6-0.1,0.8-0.3s0.3-0.6,0.3-1c0-0.5-0.1-0.8-0.3-1.1s-0.5-0.4-0.8-0.4h-1.3V825.2z M469,826.8v3.2h-1.9v-9.2h3.1
	c0.9,0,1.6,0.3,2.2,0.9s0.8,1.3,0.8,2.2s-0.3,1.6-0.8,2.1s-1.3,0.8-2.2,0.8H469z M469,825.2h1.3c0.4,0,0.6-0.1,0.8-0.3
	s0.3-0.6,0.3-1c0-0.5-0.1-0.8-0.3-1.1s-0.5-0.4-0.8-0.4H469V825.2z"/>
<polygon id="Line_24_" fill="#E4E7EF" points="411,736 411,788 413,788 413,736 "/>
<circle id="Oval-R_8_" fill="#575B66" cx="412" cy="785" r="3"/>
<polygon id="Rectangle-7_15_" fill="#B8BECC" fill-opacity="0.25" points="1066,969 1066,966 1064,966 1064.1,971 1128,971 
	1128,966 1126,966 1126,969 "/>
<polygon id="Rectangle-7_16_" fill="#B8BECC" fill-opacity="0.5" points="1061,964 1061,961 1059,961 1059,966 1132,966 1132,961 
	1130,961 1130,964 "/>
<path id="Path" fill="none" stroke="#B8BECC" stroke-width="2" stroke-opacity="0.75" d="M1135,956h-78.9l-0.1,4h79L1135,956z"/>
<path id="Rectangle-7_17_" fill="#B8BECC" d="M1052.7,954h85.3v-62h-85.3V954z M1050.7,890h89.3v66h-89.3V890z"/>
<circle id="Oval-4_45_" fill="#B8BECC" cx="1056.2" cy="895.5" r="1.5"/>
<circle id="Oval-4_46_" fill="#B8BECC" cx="1061.2" cy="895.5" r="1.5"/>
<circle id="Oval-4_47_" fill="#B8BECC" cx="1066.2" cy="895.5" r="1.5"/>
<path id="Line_25_" fill="none" stroke="#B8BECC" stroke-width="2" d="M1052.4,899.9h86"/>
<path id="Page-Title_13_" fill="#575B66" d="M1068.3,925v-7.8h2.4c0.8,0,1.4,0.2,1.9,0.5s0.6,0.9,0.6,1.6c0,0.4-0.1,0.7-0.3,1
	c-0.2,0.3-0.4,0.5-0.7,0.6c0.4,0.1,0.6,0.3,0.8,0.6c0.2,0.3,0.3,0.7,0.3,1.1c0,0.8-0.2,1.3-0.6,1.7c-0.4,0.4-1,0.6-1.8,0.6H1068.3z
	 M1069.9,921.6v2.1h1c0.3,0,0.5-0.1,0.6-0.3c0.1-0.2,0.2-0.4,0.2-0.7c0-0.7-0.3-1.1-0.8-1.1H1069.9z M1069.9,920.5h0.8
	c0.6,0,0.9-0.3,0.9-1c0-0.4-0.1-0.6-0.2-0.8c-0.1-0.2-0.4-0.2-0.7-0.2h-0.8V920.5z M1076.5,923.7h2.8v1.3h-4.4v-7.8h1.6V923.7z
	 M1085.8,921.8c0,1-0.2,1.9-0.7,2.4s-1.2,0.9-2.1,0.9c-0.9,0-1.6-0.3-2.1-0.9s-0.8-1.4-0.8-2.4v-1.3c0-1.1,0.2-1.9,0.7-2.5
	s1.2-0.9,2.1-0.9c0.9,0,1.6,0.3,2.1,0.9s0.8,1.4,0.8,2.5V921.8z M1084.2,920.5c0-0.7-0.1-1.2-0.3-1.6s-0.5-0.5-0.9-0.5
	c-0.4,0-0.7,0.2-0.9,0.5s-0.3,0.8-0.3,1.5v1.4c0,0.7,0.1,1.2,0.3,1.5s0.5,0.5,0.9,0.5c0.4,0,0.7-0.2,0.9-0.5s0.3-0.8,0.3-1.5V920.5z
	 M1092.7,924.1c-0.3,0.3-0.7,0.6-1.1,0.7s-0.9,0.2-1.5,0.2c-0.9,0-1.6-0.3-2.1-0.8s-0.8-1.4-0.8-2.4v-1.4c0-1.1,0.2-1.9,0.7-2.5
	s1.2-0.9,2.1-0.9c0.8,0,1.5,0.2,1.9,0.6c0.4,0.4,0.7,1.1,0.7,2h-1.5c0-0.5-0.1-0.8-0.3-1c-0.2-0.2-0.4-0.3-0.8-0.3
	c-0.4,0-0.7,0.2-0.9,0.5s-0.3,0.8-0.3,1.5v1.4c0,0.7,0.1,1.2,0.3,1.6c0.2,0.3,0.6,0.5,1.1,0.5c0.3,0,0.6-0.1,0.8-0.2l0.1-0.1v-1.4
	h-1.1v-1.2h2.7V924.1z M1098.7,922.2v2.8h-1.6v-7.8h2.7c0.8,0,1.4,0.2,1.9,0.7c0.5,0.5,0.7,1.1,0.7,1.9s-0.2,1.4-0.7,1.8
	c-0.5,0.4-1.1,0.7-1.9,0.7H1098.7z M1098.7,920.9h1.1c0.3,0,0.5-0.1,0.7-0.3c0.2-0.2,0.2-0.5,0.2-0.9c0-0.4-0.1-0.7-0.3-0.9
	c-0.2-0.2-0.4-0.3-0.7-0.4h-1.1V920.9z M1109.3,921.8c0,1-0.2,1.9-0.7,2.4c-0.5,0.6-1.2,0.9-2.1,0.9c-0.9,0-1.6-0.3-2.1-0.9
	c-0.5-0.6-0.8-1.4-0.8-2.4v-1.3c0-1.1,0.2-1.9,0.7-2.5c0.5-0.6,1.2-0.9,2.1-0.9c0.9,0,1.6,0.3,2.1,0.9c0.5,0.6,0.8,1.4,0.8,2.5
	V921.8z M1107.8,920.5c0-0.7-0.1-1.2-0.3-1.6c-0.2-0.3-0.5-0.5-0.9-0.5c-0.4,0-0.7,0.2-0.9,0.5c-0.2,0.3-0.3,0.8-0.3,1.5v1.4
	c0,0.7,0.1,1.2,0.3,1.5s0.5,0.5,0.9,0.5c0.4,0,0.7-0.2,0.9-0.5c0.2-0.3,0.3-0.8,0.3-1.5V920.5z M1114.2,922.9c0-0.3-0.1-0.6-0.2-0.7
	c-0.2-0.2-0.5-0.3-0.9-0.5c-0.8-0.3-1.3-0.6-1.7-1s-0.5-0.9-0.5-1.4c0-0.7,0.2-1.2,0.7-1.6s1.1-0.6,1.8-0.6c0.5,0,0.9,0.1,1.3,0.3
	s0.7,0.5,0.9,0.9c0.2,0.4,0.3,0.8,0.3,1.3h-1.6c0-0.4-0.1-0.6-0.2-0.8s-0.4-0.3-0.7-0.3c-0.3,0-0.5,0.1-0.6,0.2
	c-0.2,0.2-0.2,0.4-0.2,0.7c0,0.2,0.1,0.4,0.3,0.6s0.5,0.4,0.9,0.5c0.8,0.3,1.3,0.6,1.7,1c0.3,0.4,0.5,0.9,0.5,1.5
	c0,0.7-0.2,1.2-0.6,1.6c-0.4,0.4-1,0.6-1.8,0.6c-0.5,0-1-0.1-1.4-0.3c-0.4-0.2-0.7-0.5-1-0.9c-0.2-0.4-0.4-0.8-0.4-1.4h1.6
	c0,0.5,0.1,0.8,0.3,1c0.2,0.2,0.5,0.3,0.9,0.3C1113.9,923.8,1114.2,923.5,1114.2,922.9z M1122.3,918.5h-1.9v6.5h-1.6v-6.5h-1.9v-1.3
	h5.4V918.5z"/>
<path id="NAV-Dropdown-_x201C_MORE_x201D_" fill="#575B66" d="M574.1,739h-1.6l-2.3-5.1v5.1h-1.6v-7.8h1.6l2.3,5.1v-5.1h1.6V739z
	 M579.5,737.4h-2.2L577,739h-1.7l2.4-7.8h1.4l2.5,7.8H580L579.5,737.4z M577.7,736.1h1.5l-0.7-2.8L577.7,736.1z M584.9,736.9
	l1.3-5.7h1.8l-2.3,7.8h-1.6l-2.2-7.8h1.8L584.9,736.9z M591.9,739v-7.8h2.1c0.9,0,1.6,0.3,2.2,0.9c0.5,0.6,0.8,1.4,0.8,2.4v1.3
	c0,1-0.3,1.8-0.8,2.4c-0.5,0.6-1.3,0.9-2.2,0.9H591.9z M593.5,732.5v5.2h0.5c0.5,0,0.9-0.1,1.1-0.4s0.3-0.8,0.3-1.4v-1.4
	c0-0.7-0.1-1.2-0.3-1.5c-0.2-0.3-0.6-0.4-1-0.5H593.5z M600.9,736.1h-0.8v2.9h-1.6v-7.8h2.5c0.8,0,1.4,0.2,1.8,0.6s0.6,1,0.6,1.7
	c0,1-0.4,1.8-1.1,2.2l1.4,3.2v0.1H602L600.9,736.1z M600.1,734.8h0.9c0.3,0,0.6-0.1,0.7-0.3s0.2-0.5,0.2-0.8c0-0.8-0.3-1.2-0.9-1.2
	h-0.9V734.8z M610.5,735.8c0,1-0.2,1.9-0.7,2.4c-0.5,0.6-1.2,0.9-2.1,0.9c-0.9,0-1.6-0.3-2.1-0.9c-0.5-0.6-0.8-1.4-0.8-2.4v-1.3
	c0-1.1,0.2-1.9,0.7-2.5c0.5-0.6,1.2-0.9,2.1-0.9c0.9,0,1.6,0.3,2.1,0.9c0.5,0.6,0.8,1.4,0.8,2.5V735.8z M608.9,734.5
	c0-0.7-0.1-1.2-0.3-1.6c-0.2-0.3-0.5-0.5-0.9-0.5c-0.4,0-0.7,0.2-0.9,0.5c-0.2,0.3-0.3,0.8-0.3,1.5v1.4c0,0.7,0.1,1.2,0.3,1.5
	s0.5,0.5,0.9,0.5c0.4,0,0.7-0.2,0.9-0.5c0.2-0.3,0.3-0.8,0.3-1.5V734.5z M613.5,736.2v2.8h-1.6v-7.8h2.7c0.8,0,1.4,0.2,1.9,0.7
	c0.5,0.5,0.7,1.1,0.7,1.9s-0.2,1.4-0.7,1.8c-0.5,0.4-1.1,0.7-1.9,0.7H613.5z M613.5,734.9h1.1c0.3,0,0.5-0.1,0.7-0.3
	c0.2-0.2,0.2-0.5,0.2-0.9c0-0.4-0.1-0.7-0.3-0.9c-0.2-0.2-0.4-0.3-0.7-0.4h-1.1V734.9z M618.6,739v-7.8h2.1c0.9,0,1.6,0.3,2.2,0.9
	s0.8,1.4,0.8,2.4v1.3c0,1-0.3,1.8-0.8,2.4s-1.3,0.9-2.2,0.9H618.6z M620.1,732.5v5.2h0.5c0.5,0,0.9-0.1,1.1-0.4s0.3-0.8,0.3-1.4
	v-1.4c0-0.7-0.1-1.2-0.3-1.5s-0.6-0.4-1-0.5H620.1z M630.6,735.8c0,1-0.2,1.9-0.7,2.4c-0.5,0.6-1.2,0.9-2.1,0.9
	c-0.9,0-1.6-0.3-2.1-0.9c-0.5-0.6-0.8-1.4-0.8-2.4v-1.3c0-1.1,0.2-1.9,0.7-2.5c0.5-0.6,1.2-0.9,2.1-0.9c0.9,0,1.6,0.3,2.1,0.9
	c0.5,0.6,0.8,1.4,0.8,2.5V735.8z M629,734.5c0-0.7-0.1-1.2-0.3-1.6c-0.2-0.3-0.5-0.5-0.9-0.5c-0.4,0-0.7,0.2-0.9,0.5
	c-0.2,0.3-0.3,0.8-0.3,1.5v1.4c0,0.7,0.1,1.2,0.3,1.5s0.5,0.5,0.9,0.5c0.4,0,0.7-0.2,0.9-0.5c0.2-0.3,0.3-0.8,0.3-1.5V734.5z
	 M637.2,736.1l0.7-4.9h1.6l-1.4,7.8h-1.6l-0.9-4.6l-0.9,4.6h-1.6l-1.4-7.8h1.6l0.7,4.9l0.9-4.9h1.3L637.2,736.1z M646.2,739h-1.6
	l-2.3-5.1v5.1h-1.6v-7.8h1.6l2.3,5.1v-5.1h1.6V739z M651.6,730.6l0.7,0.4c-0.3,0.5-0.4,1-0.4,1.5v0.9h-1.2v-0.8c0-0.3,0.1-0.6,0.2-1
	C651.1,731.2,651.3,730.8,651.6,730.6z M653.3,730.6l0.7,0.4c-0.3,0.5-0.4,1-0.4,1.5v0.9h-1.2v-0.8c0-0.3,0.1-0.6,0.2-1
	C652.8,731.2,653,730.8,653.3,730.6z M657.4,731.2l1.5,5.7l1.5-5.7h2.1v7.8h-1.6v-2.1l0.1-3.3l-1.6,5.4h-1.1l-1.6-5.4l0.1,3.3v2.1
	h-1.6v-7.8H657.4z M669.5,735.8c0,1-0.2,1.9-0.7,2.4c-0.5,0.6-1.2,0.9-2.1,0.9c-0.9,0-1.6-0.3-2.1-0.9c-0.5-0.6-0.8-1.4-0.8-2.4
	v-1.3c0-1.1,0.2-1.9,0.7-2.5c0.5-0.6,1.2-0.9,2.1-0.9c0.9,0,1.6,0.3,2.1,0.9c0.5,0.6,0.8,1.4,0.8,2.5V735.8z M667.9,734.5
	c0-0.7-0.1-1.2-0.3-1.6c-0.2-0.3-0.5-0.5-0.9-0.5c-0.4,0-0.7,0.2-0.9,0.5c-0.2,0.3-0.3,0.8-0.3,1.5v1.4c0,0.7,0.1,1.2,0.3,1.5
	s0.5,0.5,0.9,0.5c0.4,0,0.7-0.2,0.9-0.5c0.2-0.3,0.3-0.8,0.3-1.5V734.5z M673.4,736.1h-0.8v2.9H671v-7.8h2.5c0.8,0,1.4,0.2,1.8,0.6
	s0.6,1,0.6,1.7c0,1-0.4,1.8-1.1,2.2l1.4,3.2v0.1h-1.7L673.4,736.1z M672.6,734.8h0.9c0.3,0,0.6-0.1,0.7-0.3s0.2-0.5,0.2-0.8
	c0-0.8-0.3-1.2-0.9-1.2h-0.9V734.8z M681.5,735.6H679v2.1h2.9v1.3h-4.5v-7.8h4.5v1.3H679v1.8h2.5V735.6z M683.7,733.6l-0.7-0.4
	c0.3-0.5,0.4-1,0.4-1.5v-0.9h1.2v0.8c0,0.3-0.1,0.7-0.3,1.1S684,733.3,683.7,733.6z M685.4,733.6l-0.7-0.4c0.3-0.5,0.4-1,0.4-1.5
	v-0.9h1.2v0.8c0,0.3-0.1,0.7-0.3,1.1S685.7,733.3,685.4,733.6z"/>
<path id="Rectangle-7_18_" fill="#B8BECC" d="M570,864h116v-62H570V864z M568,800h120v66H568V800z"/>
<circle id="Oval-4_48_" fill="#B8BECC" cx="573.5" cy="805.5" r="1.5"/>
<circle id="Oval-4_49_" fill="#B8BECC" cx="578.5" cy="805.5" r="1.5"/>
<circle id="Oval-4_50_" fill="#B8BECC" cx="583.5" cy="805.5" r="1.5"/>
<polygon id="Line_26_" fill="#B8BECC" points="570.2,810.9 685.8,810.9 685.8,808.9 570.2,808.9 "/>
<path id="Page-Title_14_" fill="#575B66" d="M600.8,835h-1.6v-3.3h-2.3v3.3h-1.6v-7.8h1.6v3.2h2.3v-3.2h1.6V835z M606.6,831.6h-2.5
	v2.1h2.9v1.3h-4.5v-7.8h4.5v1.3h-2.9v1.8h2.5V831.6z M609.9,833.7h2.8v1.3h-4.4v-7.8h1.6V833.7z M615.6,832.2v2.8H614v-7.8h2.7
	c0.8,0,1.4,0.2,1.9,0.7c0.5,0.5,0.7,1.1,0.7,1.9s-0.2,1.4-0.7,1.8c-0.5,0.4-1.1,0.7-1.9,0.7H615.6z M615.6,830.9h1.1
	c0.3,0,0.5-0.1,0.7-0.3c0.2-0.2,0.2-0.5,0.2-0.9c0-0.4-0.1-0.7-0.3-0.9c-0.2-0.2-0.4-0.3-0.7-0.4h-1.1V830.9z M629,832.4
	c0,0.9-0.3,1.6-0.8,2s-1.1,0.7-2,0.7c-0.9,0-1.6-0.3-2-0.9s-0.7-1.4-0.7-2.5v-1.3c0-1.1,0.2-1.9,0.7-2.5s1.2-0.9,2-0.9
	c0.9,0,1.5,0.2,1.9,0.7c0.4,0.5,0.7,1.2,0.8,2.1h-1.6c0-0.6-0.1-0.9-0.3-1.1s-0.4-0.3-0.9-0.3c-0.4,0-0.7,0.1-0.9,0.4
	s-0.3,0.8-0.3,1.5v1.5c0,0.8,0.1,1.3,0.3,1.6c0.2,0.3,0.5,0.4,0.9,0.4c0.4,0,0.7-0.1,0.9-0.3c0.2-0.2,0.2-0.6,0.3-1.1H629z
	 M634.4,831.6h-2.5v2.1h2.9v1.3h-4.5v-7.8h4.5v1.3h-2.9v1.8h2.5V831.6z M641.6,835h-1.6l-2.3-5.1v5.1h-1.6v-7.8h1.6l2.3,5.1v-5.1
	h1.6V835z M648.2,828.5h-1.9v6.5h-1.6v-6.5h-1.9v-1.3h5.4V828.5z M651.9,832.1h-0.8v2.9h-1.6v-7.8h2.5c0.8,0,1.4,0.2,1.8,0.6
	s0.6,1,0.6,1.7c0,1-0.4,1.8-1.1,2.2l1.4,3.2v0.1h-1.7L651.9,832.1z M651.2,830.8h0.9c0.3,0,0.6-0.1,0.7-0.3s0.2-0.5,0.2-0.8
	c0-0.8-0.3-1.2-0.9-1.2h-0.9V830.8z M660.1,831.6h-2.5v2.1h2.9v1.3h-4.5v-7.8h4.5v1.3h-2.9v1.8h2.5V831.6z"/>
<path id="Rectangle-7_19_" fill="#B8BECC" d="M715,864h116v-62H715V864z M713,800h120v66H713V800z"/>
<circle id="Oval-4_51_" fill="#B8BECC" cx="718.5" cy="805.5" r="1.5"/>
<circle id="Oval-4_52_" fill="#B8BECC" cx="723.5" cy="805.5" r="1.5"/>
<circle id="Oval-4_53_" fill="#B8BECC" cx="728.5" cy="805.5" r="1.5"/>
<polygon id="Line_27_" fill="#B8BECC" points="715.2,810.9 830.8,810.9 830.8,808.9 715.2,808.9 "/>
<path id="Page-Title_15_" fill="#575B66" d="M752.6,833.4h-2.2l-0.4,1.6h-1.7l2.4-7.8h1.4l2.5,7.8h-1.7L752.6,833.4z M750.8,832.1
	h1.5l-0.7-2.8L750.8,832.1z M755.9,835v-7.8h2.4c0.8,0,1.4,0.2,1.9,0.5s0.6,0.9,0.6,1.6c0,0.4-0.1,0.7-0.3,1s-0.4,0.5-0.7,0.6
	c0.4,0.1,0.6,0.3,0.8,0.6s0.3,0.7,0.3,1.1c0,0.8-0.2,1.3-0.6,1.7s-1,0.6-1.8,0.6H755.9z M757.5,831.6v2.1h1c0.3,0,0.5-0.1,0.6-0.3
	s0.2-0.4,0.2-0.7c0-0.7-0.3-1.1-0.8-1.1H757.5z M757.5,830.5h0.8c0.6,0,0.9-0.3,0.9-1c0-0.4-0.1-0.6-0.2-0.8s-0.4-0.2-0.7-0.2h-0.8
	V830.5z M768,831.8c0,1-0.2,1.9-0.7,2.4c-0.5,0.6-1.2,0.9-2.1,0.9c-0.9,0-1.6-0.3-2.1-0.9c-0.5-0.6-0.8-1.4-0.8-2.4v-1.3
	c0-1.1,0.2-1.9,0.7-2.5c0.5-0.6,1.2-0.9,2.1-0.9c0.9,0,1.6,0.3,2.1,0.9c0.5,0.6,0.8,1.4,0.8,2.5V831.8z M766.4,830.5
	c0-0.7-0.1-1.2-0.3-1.6c-0.2-0.3-0.5-0.5-0.9-0.5c-0.4,0-0.7,0.2-0.9,0.5c-0.2,0.3-0.3,0.8-0.3,1.5v1.4c0,0.7,0.1,1.2,0.3,1.5
	s0.5,0.5,0.9,0.5c0.4,0,0.7-0.2,0.9-0.5c0.2-0.3,0.3-0.8,0.3-1.5V830.5z M774.6,827.2v5.4c0,0.8-0.2,1.4-0.7,1.9s-1.1,0.6-1.9,0.6
	c-0.8,0-1.5-0.2-1.9-0.7c-0.4-0.4-0.7-1.1-0.7-1.9v-5.4h1.6v5.4c0,0.4,0.1,0.8,0.2,1c0.1,0.2,0.4,0.3,0.8,0.3s0.6-0.1,0.8-0.3
	s0.2-0.5,0.2-0.9v-5.4H774.6z M781.3,828.5h-1.9v6.5h-1.6v-6.5h-1.9v-1.3h5.4V828.5z M790.4,827.2v5.4c0,0.8-0.2,1.4-0.7,1.9
	s-1.1,0.6-1.9,0.6c-0.8,0-1.5-0.2-1.9-0.7c-0.4-0.4-0.7-1.1-0.7-1.9v-5.4h1.6v5.4c0,0.4,0.1,0.8,0.2,1c0.1,0.2,0.4,0.3,0.8,0.3
	s0.6-0.1,0.8-0.3s0.2-0.5,0.2-0.9v-5.4H790.4z M795.3,832.9c0-0.3-0.1-0.6-0.2-0.7s-0.5-0.3-0.9-0.5c-0.8-0.3-1.3-0.6-1.7-1
	s-0.5-0.9-0.5-1.4c0-0.7,0.2-1.2,0.7-1.6s1.1-0.6,1.8-0.6c0.5,0,0.9,0.1,1.3,0.3s0.7,0.5,0.9,0.9s0.3,0.8,0.3,1.3h-1.6
	c0-0.4-0.1-0.6-0.2-0.8s-0.4-0.3-0.7-0.3c-0.3,0-0.5,0.1-0.6,0.2s-0.2,0.4-0.2,0.7c0,0.2,0.1,0.4,0.3,0.6s0.5,0.4,0.9,0.5
	c0.8,0.3,1.3,0.6,1.7,1s0.5,0.9,0.5,1.5c0,0.7-0.2,1.2-0.6,1.6s-1,0.6-1.8,0.6c-0.5,0-1-0.1-1.4-0.3s-0.7-0.5-1-0.9
	s-0.4-0.8-0.4-1.4h1.6c0,0.5,0.1,0.8,0.3,1s0.5,0.3,0.9,0.3C795,833.8,795.3,833.5,795.3,832.9z"/>
<path id="Rectangle-7_20_" fill="#B8BECC" d="M861,864h116v-62H861V864z M859,800h120v66H859V800z"/>
<circle id="Oval-4_54_" fill="#B8BECC" cx="864.5" cy="805.5" r="1.5"/>
<circle id="Oval-4_55_" fill="#B8BECC" cx="869.5" cy="805.5" r="1.5"/>
<circle id="Oval-4_56_" fill="#B8BECC" cx="874.5" cy="805.5" r="1.5"/>
<polygon id="Line_28_" fill="#B8BECC" points="861.2,810.9 976.8,810.9 976.8,808.9 861.2,808.9 "/>
<path id="Page-Title_16_" fill="#575B66" d="M893.9,832.4c0,0.9-0.3,1.6-0.8,2s-1.1,0.7-2,0.7c-0.9,0-1.6-0.3-2-0.9
	c-0.5-0.6-0.7-1.4-0.7-2.5v-1.3c0-1.1,0.2-1.9,0.7-2.5c0.5-0.6,1.2-0.9,2-0.9c0.9,0,1.5,0.2,1.9,0.7c0.4,0.5,0.7,1.2,0.8,2.1h-1.6
	c0-0.6-0.1-0.9-0.3-1.1s-0.4-0.3-0.9-0.3c-0.4,0-0.7,0.1-0.9,0.4c-0.2,0.3-0.3,0.8-0.3,1.5v1.5c0,0.8,0.1,1.3,0.3,1.6
	c0.2,0.3,0.5,0.4,0.9,0.4c0.4,0,0.7-0.1,0.9-0.3c0.2-0.2,0.2-0.6,0.3-1.1H893.9z M900.8,831.8c0,1-0.2,1.9-0.7,2.4
	c-0.5,0.6-1.2,0.9-2.1,0.9c-0.9,0-1.6-0.3-2.1-0.9c-0.5-0.6-0.8-1.4-0.8-2.4v-1.3c0-1.1,0.2-1.9,0.7-2.5c0.5-0.6,1.2-0.9,2.1-0.9
	c0.9,0,1.6,0.3,2.1,0.9c0.5,0.6,0.8,1.4,0.8,2.5V831.8z M899.2,830.5c0-0.7-0.1-1.2-0.3-1.6c-0.2-0.3-0.5-0.5-0.9-0.5
	c-0.4,0-0.7,0.2-0.9,0.5c-0.2,0.3-0.3,0.8-0.3,1.5v1.4c0,0.7,0.1,1.2,0.3,1.5s0.5,0.5,0.9,0.5c0.4,0,0.7-0.2,0.9-0.5
	c0.2-0.3,0.3-0.8,0.3-1.5V830.5z M907.8,835h-1.6l-2.3-5.1v5.1h-1.6v-7.8h1.6l2.3,5.1v-5.1h1.6V835z M914.4,828.5h-1.9v6.5h-1.6
	v-6.5H909v-1.3h5.4V828.5z M918.9,833.4h-2.2l-0.4,1.6h-1.7l2.4-7.8h1.4l2.5,7.8h-1.7L918.9,833.4z M917,832.1h1.5l-0.7-2.8
	L917,832.1z M927.3,832.4c0,0.9-0.3,1.6-0.8,2s-1.1,0.7-2,0.7c-0.9,0-1.6-0.3-2-0.9s-0.7-1.4-0.7-2.5v-1.3c0-1.1,0.2-1.9,0.7-2.5
	s1.2-0.9,2-0.9c0.9,0,1.5,0.2,1.9,0.7s0.7,1.2,0.8,2.1h-1.6c0-0.6-0.1-0.9-0.3-1.1s-0.4-0.3-0.9-0.3c-0.4,0-0.7,0.1-0.9,0.4
	s-0.3,0.8-0.3,1.5v1.5c0,0.8,0.1,1.3,0.3,1.6s0.5,0.4,0.9,0.4c0.4,0,0.7-0.1,0.9-0.3s0.2-0.6,0.3-1.1H927.3z M933.6,828.5h-1.9v6.5
	h-1.6v-6.5h-1.9v-1.3h5.4V828.5z M942.7,827.2v5.4c0,0.8-0.2,1.4-0.7,1.9s-1.1,0.6-1.9,0.6c-0.8,0-1.5-0.2-1.9-0.7s-0.7-1.1-0.7-1.9
	v-5.4h1.6v5.4c0,0.4,0.1,0.8,0.2,1s0.4,0.3,0.8,0.3s0.6-0.1,0.8-0.3s0.2-0.5,0.2-0.9v-5.4H942.7z M947.6,832.9
	c0-0.3-0.1-0.6-0.2-0.7c-0.2-0.2-0.5-0.3-0.9-0.5c-0.8-0.3-1.3-0.6-1.7-1s-0.5-0.9-0.5-1.4c0-0.7,0.2-1.2,0.7-1.6s1.1-0.6,1.8-0.6
	c0.5,0,0.9,0.1,1.3,0.3s0.7,0.5,0.9,0.9c0.2,0.4,0.3,0.8,0.3,1.3h-1.6c0-0.4-0.1-0.6-0.2-0.8s-0.4-0.3-0.7-0.3
	c-0.3,0-0.5,0.1-0.6,0.2c-0.2,0.2-0.2,0.4-0.2,0.7c0,0.2,0.1,0.4,0.3,0.6s0.5,0.4,0.9,0.5c0.8,0.3,1.3,0.6,1.7,1
	c0.3,0.4,0.5,0.9,0.5,1.5c0,0.7-0.2,1.2-0.6,1.6c-0.4,0.4-1,0.6-1.8,0.6c-0.5,0-1-0.1-1.4-0.3c-0.4-0.2-0.7-0.5-1-0.9
	c-0.2-0.4-0.4-0.8-0.4-1.4h1.6c0,0.5,0.1,0.8,0.3,1c0.2,0.2,0.5,0.3,0.9,0.3C947.3,833.8,947.6,833.5,947.6,832.9z"/>
<path id="Rectangle-7_21_" fill="#B8BECC" d="M1006,864h116v-62h-116V864z M1004,800h120v66h-120V800z"/>
<circle id="Oval-4_57_" fill="#B8BECC" cx="1009.5" cy="805.5" r="1.5"/>
<circle id="Oval-4_58_" fill="#B8BECC" cx="1014.5" cy="805.5" r="1.5"/>
<circle id="Oval-4_59_" fill="#B8BECC" cx="1019.5" cy="805.5" r="1.5"/>
<polygon id="Line_29_" fill="#B8BECC" points="1006.2,810.9 1121.8,810.9 1121.8,808.9 1006.2,808.9 "/>
<path id="Page-Title_17_" fill="#575B66" d="M1051.7,835v-7.8h2.4c0.8,0,1.4,0.2,1.9,0.5s0.6,0.9,0.6,1.6c0,0.4-0.1,0.7-0.3,1
	c-0.2,0.3-0.4,0.5-0.7,0.6c0.4,0.1,0.6,0.3,0.8,0.6c0.2,0.3,0.3,0.7,0.3,1.1c0,0.8-0.2,1.3-0.6,1.7c-0.4,0.4-1,0.6-1.8,0.6H1051.7z
	 M1053.3,831.6v2.1h1c0.3,0,0.5-0.1,0.6-0.3c0.1-0.2,0.2-0.4,0.2-0.7c0-0.7-0.3-1.1-0.8-1.1H1053.3z M1053.3,830.5h0.8
	c0.6,0,0.9-0.3,0.9-1c0-0.4-0.1-0.6-0.2-0.8c-0.1-0.2-0.4-0.2-0.7-0.2h-0.8V830.5z M1059.9,833.7h2.8v1.3h-4.4v-7.8h1.6V833.7z
	 M1069.1,831.8c0,1-0.2,1.9-0.7,2.4s-1.2,0.9-2.1,0.9c-0.9,0-1.6-0.3-2.1-0.9s-0.8-1.4-0.8-2.4v-1.3c0-1.1,0.2-1.9,0.7-2.5
	s1.2-0.9,2.1-0.9c0.9,0,1.6,0.3,2.1,0.9s0.8,1.4,0.8,2.5V831.8z M1067.6,830.5c0-0.7-0.1-1.2-0.3-1.6s-0.5-0.5-0.9-0.5
	c-0.4,0-0.7,0.2-0.9,0.5s-0.3,0.8-0.3,1.5v1.4c0,0.7,0.1,1.2,0.3,1.5s0.5,0.5,0.9,0.5c0.4,0,0.7-0.2,0.9-0.5s0.3-0.8,0.3-1.5V830.5z
	 M1076,834.1c-0.3,0.3-0.7,0.6-1.1,0.7s-0.9,0.2-1.5,0.2c-0.9,0-1.6-0.3-2.1-0.8s-0.8-1.4-0.8-2.4v-1.4c0-1.1,0.2-1.9,0.7-2.5
	s1.2-0.9,2.1-0.9c0.8,0,1.5,0.2,1.9,0.6s0.7,1.1,0.7,2h-1.5c0-0.5-0.1-0.8-0.3-1c-0.2-0.2-0.4-0.3-0.8-0.3c-0.4,0-0.7,0.2-0.9,0.5
	s-0.3,0.8-0.3,1.5v1.4c0,0.7,0.1,1.2,0.3,1.6c0.2,0.3,0.6,0.5,1.1,0.5c0.3,0,0.6-0.1,0.8-0.2l0.1-0.1v-1.4h-1.1v-1.2h2.7V834.1z"/>
<polygon id="Line_30_" fill="#E4E7EF" points="592,746 592,804 594,804 594,746 "/>
<circle id="Oval-R_9_" fill="#575B66" cx="593" cy="801" r="3"/>
<polygon id="Line_31_" fill="#E4E7EF" points="1032.5,767.5 1032.5,804.5 1034.5,804.5 1034.5,767.5 "/>
<circle id="Oval-R_10_" fill="#575B66" cx="1033.5" cy="801.5" r="3"/>
<polygon id="Line_32_" fill="#E4E7EF" points="885,768 885,804 887,804 887,768 "/>
<circle id="Oval-R_11_" fill="#575B66" cx="886" cy="801" r="3"/>
<polygon id="Line_33_" fill="#E4E7EF" points="739,768 739,804 741,804 741,768 "/>
<circle id="Oval-R_12_" fill="#575B66" cx="740" cy="801" r="3"/>
<polygon id="Path-4_10_" fill="#E4E7EF" points="1035.3,866 1033.3,866 1033.3,930 1049.5,930 1049.5,928 1035.3,928 "/>
<circle id="Oval--Copy-3_11_" fill="#575B66" cx="1052" cy="929" r="3"/>
<polygon id="Line_34_" fill="#E4E7EF" points="30,736 558.7,736 558.7,734 30,734 "/>
<polygon id="Line_35_" fill="#E4E7EF" points="594,769 1033.9,769 1033.9,767 594,767 "/>
</svg>
